ISO-10303-21;
HEADER;
FILE_DESCRIPTION (( 'STEP AP214' ),
    '1' );
FILE_NAME ('A133 Сухарь пазовый М5, паз 6.STEP',
    '2019-09-24T08:37:37',
    ( 'Windows User' ),
    ( '' ),
    'SwSTEP 2.0',
    'SolidWorks 2019',
    '' );
FILE_SCHEMA (( 'AUTOMOTIVE_DESIGN' ));
ENDSEC;

DATA;
#1 = VERTEX_POINT ( 'NONE', #348 ) ;
#2 = DIRECTION ( 'NONE',  ( 0.0000000000000000000, 0.0000000000000000000, -1.000000000000000000 ) ) ;
#3 = CARTESIAN_POINT ( 'NONE',  ( 2.991747842435283911, 4.171224194932468876, 4.048538261792416826 ) ) ;
#4 = EDGE_CURVE ( 'NONE', #53, #825, #511, .T. ) ;
#5 = VECTOR ( 'NONE', #370, 1000.000000000000000 ) ;
#6 = DIRECTION ( 'NONE',  ( 1.000000000000000000, 0.0000000000000000000, 0.0000000000000000000 ) ) ;
#7 = ORIENTED_EDGE ( 'NONE', *, *, #215, .F. ) ;
#8 = ORIENTED_EDGE ( 'NONE', *, *, #729, .F. ) ;
#9 = DIRECTION ( 'NONE',  ( 0.0000000000000000000, 0.0000000000000000000, -1.000000000000000000 ) ) ;
#10 = DIRECTION ( 'NONE',  ( 0.0000000000000000000, 1.000000000000000000, 0.0000000000000000000 ) ) ;
#11 = CIRCLE ( 'NONE', #150, 0.2999999999999999334 ) ;
#12 = DIRECTION ( 'NONE',  ( 0.0000000000000000000, 1.000000000000000000, 0.0000000000000000000 ) ) ;
#13 =( GEOMETRIC_REPRESENTATION_CONTEXT ( 3 ) GLOBAL_UNCERTAINTY_ASSIGNED_CONTEXT ( ( #524 ) ) GLOBAL_UNIT_ASSIGNED_CONTEXT ( ( #1007, #361, #603 ) ) REPRESENTATION_CONTEXT ( 'NONE', 'WORKASPACE' ) );
#14 = VECTOR ( 'NONE', #673, 1000.000000000000000 ) ;
#15 = VERTEX_POINT ( 'NONE', #425 ) ;
#16 = PLANE ( 'NONE',  #338 ) ;
#17 = DIRECTION ( 'NONE',  ( -0.0000000000000000000, 0.0000000000000000000, -1.000000000000000000 ) ) ;
#18 = DIRECTION ( 'NONE',  ( 0.0000000000000000000, 0.0000000000000000000, -1.000000000000000000 ) ) ;
#19 = CARTESIAN_POINT ( 'NONE',  ( 5.817072295949925454E-16, 0.0000000000000000000, 6.849999999999999645 ) ) ;
#20 = CARTESIAN_POINT ( 'NONE',  ( 3.030584004399416109, 4.150347167564335749, 5.150805043740676936 ) ) ;
#21 = CARTESIAN_POINT ( 'NONE',  ( -2.700000000000000178, 0.0000000000000000000, 0.0000000000000000000 ) ) ;
#22 = VERTEX_POINT ( 'NONE', #588 ) ;
#23 = EDGE_CURVE ( 'NONE', #93, #549, #662, .T. ) ;
#24 = ORIENTED_EDGE ( 'NONE', *, *, #468, .T. ) ;
#25 = VECTOR ( 'NONE', #661, 1000.000000000000000 ) ;
#26 = CARTESIAN_POINT ( 'NONE',  ( 2.862697040352309763, 4.200000000000000178, 3.560476710964359359 ) ) ;
#27 = DIRECTION ( 'NONE',  ( -0.0000000000000000000, 0.0000000000000000000, 1.000000000000000000 ) ) ;
#28 = PRESENTATION_LAYER_ASSIGNMENT (  '', '', ( #675 ) ) ;
#29 = ORIENTED_EDGE ( 'NONE', *, *, #378, .T. ) ;
#30 = VERTEX_POINT ( 'NONE', #584 ) ;
#31 = VECTOR ( 'NONE', #840, 1000.000000000000000 ) ;
#32 = CARTESIAN_POINT ( 'NONE',  ( 3.299999999999999822, 1.000000000000000000, 0.0000000000000000000 ) ) ;
#33 = EDGE_CURVE ( 'NONE', #466, #774, #495, .T. ) ;
#34 = PRODUCT_DEFINITION_CONTEXT ( 'detailed design', #573, 'design' ) ;
#35 = DIRECTION ( 'NONE',  ( 0.0000000000000000000, 1.000000000000000000, 0.0000000000000000000 ) ) ;
#36 = VERTEX_POINT ( 'NONE', #664 ) ;
#37 = LINE ( 'NONE', #274, #447 ) ;
#38 = LINE ( 'NONE', #200, #529 ) ;
#39 = EDGE_CURVE ( 'NONE', #498, #183, #831, .T. ) ;
#40 = ORIENTED_EDGE ( 'NONE', *, *, #180, .F. ) ;
#41 = DIRECTION ( 'NONE',  ( -0.0000000000000000000, -0.0000000000000000000, 1.000000000000000000 ) ) ;
#42 = CIRCLE ( 'NONE', #555, 0.2999999999999999334 ) ;
#43 = CARTESIAN_POINT ( 'NONE',  ( -3.299999999999999822, 1.000000000000000000, 9.500000000000000000 ) ) ;
#44 = ORIENTED_EDGE ( 'NONE', *, *, #939, .T. ) ;
#45 = EDGE_CURVE ( 'NONE', #815, #30, #128, .T. ) ;
#46 = CARTESIAN_POINT ( 'NONE',  ( 4.600000000000000533, 1.000000000000000000, 9.500000000000000000 ) ) ;
#47 = DIRECTION ( 'NONE',  ( 1.000000000000000000, 0.0000000000000000000, 0.0000000000000000000 ) ) ;
#48 = STYLED_ITEM ( 'NONE', ( #329 ), #509 ) ;
#49 = CARTESIAN_POINT ( 'NONE',  ( -3.089743942683057298, 4.096085961103828055, 9.500000000000000000 ) ) ;
#50 = VECTOR ( 'NONE', #688, 1000.000000000000000 ) ;
#51 = LINE ( 'NONE', #605, #264 ) ;
#52 = DIRECTION ( 'NONE',  ( 0.0000000000000000000, -1.000000000000000000, 0.0000000000000000000 ) ) ;
#53 = VERTEX_POINT ( 'NONE', #672 ) ;
#54 = CARTESIAN_POINT ( 'NONE',  ( -4.827046902330748956, 2.084472007827554929, 0.0000000000000000000 ) ) ;
#55 = SURFACE_STYLE_FILL_AREA ( #366 ) ;
#56 = PLANE ( 'NONE',  #343 ) ;
#57 = ORIENTED_EDGE ( 'NONE', *, *, #443, .T. ) ;
#58 = EDGE_CURVE ( 'NONE', #634, #448, #992, .T. ) ;
#59 = LINE ( 'NONE', #315, #5 ) ;
#60 = AXIS2_PLACEMENT_3D ( 'NONE', #243, #974, #403 ) ;
#61 = LINE ( 'NONE', #1034, #118 ) ;
#62 = ORIENTED_EDGE ( 'NONE', *, *, #1012, .T. ) ;
#63 = DIRECTION ( 'NONE',  ( 0.0000000000000000000, 0.0000000000000000000, -1.000000000000000000 ) ) ;
#64 = COLOUR_RGB ( '',0.8509803921568627194, 0.8509803921568627194, 0.8509803921568627194 ) ;
#65 = VECTOR ( 'NONE', #847, 1000.000000000000000 ) ;
#66 = MANIFOLD_SOLID_BREP ( 'Фаска2', #978 ) ;
#67 = EDGE_CURVE ( 'NONE', #36, #209, #138, .T. ) ;
#68 = VECTOR ( 'NONE', #783, 1000.000000000000000 ) ;
#69 = AXIS2_PLACEMENT_3D ( 'NONE', #379, #698, #1019 ) ;
#70 = PLANE ( 'NONE',  #69 ) ;
#71 = ORIENTED_EDGE ( 'NONE', *, *, #254, .T. ) ;
#72 = CARTESIAN_POINT ( 'NONE',  ( 2.700000000000000178, 0.2999999999999999889, 9.500000000000000000 ) ) ;
#73 = ADVANCED_FACE ( 'NONE', ( #294 ), #211, .T. ) ;
#74 = CARTESIAN_POINT ( 'NONE',  ( 5.817072295949925454E-16, 4.200000000000000178, 4.749999999999999112 ) ) ;
#75 = ORIENTED_EDGE ( 'NONE', *, *, #913, .T. ) ;
#76 = CARTESIAN_POINT ( 'NONE',  ( -3.000000000000000000, 0.2999999999999999334, 0.0000000000000000000 ) ) ;
#77 = AXIS2_PLACEMENT_3D ( 'NONE', #471, #227, #631 ) ;
#78 = EDGE_CURVE ( 'NONE', #714, #36, #599, .T. ) ;
#79 = CARTESIAN_POINT ( 'NONE',  ( 4.600000000000000533, 1.300000000000000044, 9.500000000000000000 ) ) ;
#80 = VERTEX_POINT ( 'NONE', #131 ) ;
#81 = DIRECTION ( 'NONE',  ( -0.0000000000000000000, -1.000000000000000000, -0.0000000000000000000 ) ) ;
#82 = FACE_OUTER_BOUND ( 'NONE', #269, .T. ) ;
#83 = VERTEX_POINT ( 'NONE', #530 ) ;
#84 = VERTEX_POINT ( 'NONE', #450 ) ;
#85 = LINE ( 'NONE', #398, #921 ) ;
#86 = CARTESIAN_POINT ( 'NONE',  ( 3.089743942683057298, 4.096085961103828055, 0.0000000000000000000 ) ) ;
#87 = ORIENTED_EDGE ( 'NONE', *, *, #328, .F. ) ;
#88 = DIRECTION ( 'NONE',  ( 0.0000000000000000000, 1.000000000000000000, 0.0000000000000000000 ) ) ;
#89 = EDGE_CURVE ( 'NONE', #408, #1024, #51, .T. ) ;
#90 = DIRECTION ( 'NONE',  ( 0.0000000000000000000, -0.0000000000000000000, 1.000000000000000000 ) ) ;
#91 = PRESENTATION_LAYER_ASSIGNMENT (  '', '', ( #855 ) ) ;
#92 = SURFACE_SIDE_STYLE ('',( #185 ) ) ;
#93 = VERTEX_POINT ( 'NONE', #988 ) ;
#94 = EDGE_LOOP ( 'NONE', ( #735, #545, #872, #365 ) ) ;
#95 = DIRECTION ( 'NONE',  ( 1.000000000000000000, 0.0000000000000000000, -0.0000000000000000000 ) ) ;
#96 = CYLINDRICAL_SURFACE ( 'NONE', #321, 0.2999999999999999334 ) ;
#97 = ADVANCED_FACE ( 'NONE', ( #123 ), #462, .F. ) ;
#98 = AXIS2_PLACEMENT_3D ( 'NONE', #239, #887, #6 ) ;
#99 = DIRECTION ( 'NONE',  ( -0.0000000000000000000, 0.0000000000000000000, 1.000000000000000000 ) ) ;
#100 = CONICAL_SURFACE ( 'NONE', #560, 2.100000000000000089, 0.7853981633974498333 ) ;
#101 = EDGE_LOOP ( 'NONE', ( #240, #148, #8, #581 ) ) ;
#102 = CARTESIAN_POINT ( 'NONE',  ( 2.974916373921195678, 4.179227658465421769, 5.551046766060021120 ) ) ;
#103 = EDGE_CURVE ( 'NONE', #470, #933, #532, .T. ) ;
#104 = ORIENTED_EDGE ( 'NONE', *, *, #226, .F. ) ;
#105 = DIRECTION ( 'NONE',  ( 0.0000000000000000000, -0.0000000000000000000, 1.000000000000000000 ) ) ;
#106 = ORIENTED_EDGE ( 'NONE', *, *, #456, .T. ) ;
#107 = VERTEX_POINT ( 'NONE', #356 ) ;
#108 = ORIENTED_EDGE ( 'NONE', *, *, #986, .T. ) ;
#109 = CARTESIAN_POINT ( 'NONE',  ( 2.862697040352309763, 4.200000000000000178, 9.500000000000000000 ) ) ;
#110 = CARTESIAN_POINT ( 'NONE',  ( -3.000000000000000000, 0.0000000000000000000, 9.500000000000000000 ) ) ;
#111 = ORIENTED_EDGE ( 'NONE', *, *, #760, .T. ) ;
#112 = CIRCLE ( 'NONE', #868, 0.2999999999999999334 ) ;
#113 = EDGE_LOOP ( 'NONE', ( #906, #108, #29, #62, #187 ) ) ;
#114 = CARTESIAN_POINT ( 'NONE',  ( 2.901920030244135251, 4.200000000000000178, 5.845129561639076599 ) ) ;
#115 = APPLICATION_CONTEXT ( 'automotive_design' ) ;
#116 = ORIENTED_EDGE ( 'NONE', *, *, #517, .T. ) ;
#117 = DIRECTION ( 'NONE',  ( -0.0000000000000000000, -0.0000000000000000000, 1.000000000000000000 ) ) ;
#118 = VECTOR ( 'NONE', #942, 1000.000000000000000 ) ;
#119 = VECTOR ( 'NONE', #568, 1000.000000000000000 ) ;
#120 = DIRECTION ( 'NONE',  ( 0.0000000000000000000, 0.0000000000000000000, 1.000000000000000000 ) ) ;
#121 = SURFACE_STYLE_USAGE ( .BOTH. , #745 ) ;
#122 = ORIENTED_EDGE ( 'NONE', *, *, #777, .T. ) ;
#123 = FACE_OUTER_BOUND ( 'NONE', #310, .T. ) ;
#124 = ORIENTED_EDGE ( 'NONE', *, *, #716, .T. ) ;
#125 = DIRECTION ( 'NONE',  ( 0.0000000000000000000, 0.0000000000000000000, 1.000000000000000000 ) ) ;
#126 = EDGE_CURVE ( 'NONE', #84, #401, #682, .T. ) ;
#127 = SURFACE_STYLE_FILL_AREA ( #429 ) ;
#128 = LINE ( 'NONE', #19, #997 ) ;
#129 = LINE ( 'NONE', #285, #214 ) ;
#130 = CARTESIAN_POINT ( 'NONE',  ( -4.900000000000000355, 2.000000000000000000, 9.500000000000000000 ) ) ;
#131 = CARTESIAN_POINT ( 'NONE',  ( 2.862697040352309763, 4.200000000000000178, 0.0000000000000000000 ) ) ;
#132 = DIRECTION ( 'NONE',  ( -0.0000000000000000000, -1.000000000000000000, -0.0000000000000000000 ) ) ;
#133 = VERTEX_POINT ( 'NONE', #216 ) ;
#134 = CARTESIAN_POINT ( 'NONE',  ( -2.929699566582613102, 4.193376871510123394, 5.747978677183713359 ) ) ;
#135 = AXIS2_PLACEMENT_3D ( 'NONE', #1015, #301, #864 ) ;
#136 = ORIENTED_EDGE ( 'NONE', *, *, #67, .T. ) ;
#137 = EDGE_CURVE ( 'NONE', #549, #753, #37, .T. ) ;
#138 = LINE ( 'NONE', #46, #277 ) ;
#139 = CARTESIAN_POINT ( 'NONE',  ( -2.862697040352310207, 4.200000000000000178, 0.0000000000000000000 ) ) ;
#140 = ORIENTED_EDGE ( 'NONE', *, *, #126, .F. ) ;
#141 = CARTESIAN_POINT ( 'NONE',  ( -3.000000000000000000, 1.000000000000000000, 9.500000000000000000 ) ) ;
#142 = FACE_OUTER_BOUND ( 'NONE', #676, .T. ) ;
#143 = ORIENTED_EDGE ( 'NONE', *, *, #464, .F. ) ;
#145 = EDGE_CURVE ( 'NONE', #719, #206, #431, .T. ) ;
#144 = CYLINDRICAL_SURFACE ( 'NONE', #586, 0.2999999999999999334 ) ;
#146 = CIRCLE ( 'NONE', #77, 2.100000000000000089 ) ;
#147 = CARTESIAN_POINT ( 'NONE',  ( -4.600000000000000533, 1.300000000000000044, 0.0000000000000000000 ) ) ;
#148 = ORIENTED_EDGE ( 'NONE', *, *, #316, .T. ) ;
#149 = DIRECTION ( 'NONE',  ( 0.0000000000000000000, -0.0000000000000000000, -1.000000000000000000 ) ) ;
#150 = AXIS2_PLACEMENT_3D ( 'NONE', #518, #748, #674 ) ;
#151 = EDGE_CURVE ( 'NONE', #970, #635, #129, .T. ) ;
#152 = CIRCLE ( 'NONE', #880, 3.100000000000005418 ) ;
#153 = DIRECTION ( 'NONE',  ( 0.0000000000000000000, -1.000000000000000000, 0.0000000000000000000 ) ) ;
#154 = ORIENTED_EDGE ( 'NONE', *, *, #900, .F. ) ;
#155 = CARTESIAN_POINT ( 'NONE',  ( 4.827046902330748956, 2.084472007827554929, 0.0000000000000000000 ) ) ;
#156 = DIRECTION ( 'NONE',  ( 0.0000000000000000000, -0.0000000000000000000, 1.000000000000000000 ) ) ;
#157 = ORIENTED_EDGE ( 'NONE', *, *, #346, .F. ) ;
#158 = FACE_OUTER_BOUND ( 'NONE', #804, .T. ) ;
#159 = AXIS2_PLACEMENT_3D ( 'NONE', #717, #417, #326 ) ;
#160 = DIRECTION ( 'NONE',  ( 1.000000000000000000, 0.0000000000000000000, 0.0000000000000000000 ) ) ;
#161 = ORIENTED_EDGE ( 'NONE', *, *, #722, .F. ) ;
#162 = FACE_OUTER_BOUND ( 'NONE', #853, .T. ) ;
#163 = VECTOR ( 'NONE', #681, 1000.000000000000000 ) ;
#164 = DIRECTION ( 'NONE',  ( 0.0000000000000000000, 0.0000000000000000000, 1.000000000000000000 ) ) ;
#165 = EDGE_CURVE ( 'NONE', #448, #957, #846, .T. ) ;
#166 = ORIENTED_EDGE ( 'NONE', *, *, #991, .T. ) ;
#167 = DIRECTION ( 'NONE',  ( 0.0000000000000000000, 0.0000000000000000000, -1.000000000000000000 ) ) ;
#168 =( LENGTH_UNIT ( ) NAMED_UNIT ( * ) SI_UNIT ( .MILLI., .METRE. ) );
#169 = CARTESIAN_POINT ( 'NONE',  ( -3.299999999999999822, 1.000000000000000000, 0.0000000000000000000 ) ) ;
#170 = FILL_AREA_STYLE ('',( #339 ) ) ;
#171 = ORIENTED_EDGE ( 'NONE', *, *, #755, .T. ) ;
#172 = ORIENTED_EDGE ( 'NONE', *, *, #346, .T. ) ;
#173 = DIRECTION ( 'NONE',  ( -0.7568230077691594504, -0.6536198703460925907, 0.0000000000000000000 ) ) ;
#174 = ADVANCED_FACE ( 'NONE', ( #349 ), #56, .T. ) ;
#175 = CARTESIAN_POINT ( 'NONE',  ( 9.613477373306727274E-16, 4.200000000000000178, 1.649999999999993472 ) ) ;
#176 = AXIS2_PLACEMENT_3D ( 'NONE', #449, #764, #914 ) ;
#177 = CARTESIAN_POINT ( 'NONE',  ( 8.388830574159367904E-16, 0.0000000000000000000, 2.649999999999998579 ) ) ;
#178 = ORIENTED_EDGE ( 'NONE', *, *, #45, .F. ) ;
#179 = DIRECTION ( 'NONE',  ( 0.0000000000000000000, -1.000000000000000000, 0.0000000000000000000 ) ) ;
#180 = EDGE_CURVE ( 'NONE', #15, #1009, #744, .T. ) ;
#181 = VECTOR ( 'NONE', #909, 1000.000000000000000 ) ;
#182 = CARTESIAN_POINT ( 'NONE',  ( 5.817072295949925454E-16, 0.5000000000000008882, 4.749999999999999112 ) ) ;
#183 = VERTEX_POINT ( 'NONE', #917 ) ;
#184 = CARTESIAN_POINT ( 'NONE',  ( 3.041163647889464805, 4.141142427259844716, 4.550003190529621655 ) ) ;
#185 = SURFACE_STYLE_FILL_AREA ( #170 ) ;
#186 =( NAMED_UNIT ( * ) SI_UNIT ( $, .STERADIAN. ) SOLID_ANGLE_UNIT ( ) );
#187 = ORIENTED_EDGE ( 'NONE', *, *, #440, .T. ) ;
#188 = DIRECTION ( 'NONE',  ( 1.000000000000000000, 0.0000000000000000000, 0.0000000000000000000 ) ) ;
#189 = EDGE_CURVE ( 'NONE', #474, #448, #205, .T. ) ;
#190 =( GEOMETRIC_REPRESENTATION_CONTEXT ( 3 ) GLOBAL_UNCERTAINTY_ASSIGNED_CONTEXT ( ( #352 ) ) GLOBAL_UNIT_ASSIGNED_CONTEXT ( ( #168, #632, #638 ) ) REPRESENTATION_CONTEXT ( 'NONE', 'WORKASPACE' ) );
#191 = ORIENTED_EDGE ( 'NONE', *, *, #39, .F. ) ;
#192 = VERTEX_POINT ( 'NONE', #139 ) ;
#193 = LINE ( 'NONE', #828, #181 ) ;
#194 = CARTESIAN_POINT ( 'NONE',  ( 3.089743942683057298, 4.096085961103828055, 9.500000000000000000 ) ) ;
#195 = AXIS2_PLACEMENT_3D ( 'NONE', #428, #996, #670 ) ;
#196 = DIRECTION ( 'NONE',  ( 0.0000000000000000000, -0.0000000000000000000, -1.000000000000000000 ) ) ;
#197 = CARTESIAN_POINT ( 'NONE',  ( 0.0000000000000000000, 0.0000000000000000000, 9.500000000000000000 ) ) ;
#198 = EDGE_CURVE ( 'NONE', #107, #225, #752, .T. ) ;
#199 = AXIS2_PLACEMENT_3D ( 'NONE', #74, #388, #543 ) ;
#200 = CARTESIAN_POINT ( 'NONE',  ( -3.000000000000000000, 0.0000000000000000000, 0.0000000000000000000 ) ) ;
#201 = EDGE_LOOP ( 'NONE', ( #604, #580, #273, #924, #789, #166, #709, #314, #432, #898, #492, #767, #248, #903, #122, #857, #480, #57, #740, #713 ) ) ;
#202 = DIRECTION ( 'NONE',  ( 0.0000000000000000000, -0.0000000000000000000, -1.000000000000000000 ) ) ;
#203 = CARTESIAN_POINT ( 'NONE',  ( -3.089743942683057298, 4.096085961103828055, 0.0000000000000000000 ) ) ;
#204 = CARTESIAN_POINT ( 'NONE',  ( 3.000000000000000000, 1.000000000000000000, 0.0000000000000000000 ) ) ;
#205 = LINE ( 'NONE', #832, #513 ) ;
#206 = VERTEX_POINT ( 'NONE', #451 ) ;
#207 = AXIS2_PLACEMENT_3D ( 'NONE', #934, #854, #944 ) ;
#208 = CARTESIAN_POINT ( 'NONE',  ( -2.974842159398060737, 4.179254005401038974, 5.551398700897484773 ) ) ;
#209 = VERTEX_POINT ( 'NONE', #295 ) ;
#210 = ADVANCED_FACE ( 'NONE', ( #362 ), #300, .F. ) ;
#211 = CYLINDRICAL_SURFACE ( 'NONE', #910, 0.2999999999999999334 ) ;
#212 = LINE ( 'NONE', #768, #50 ) ;
#213 = VERTEX_POINT ( 'NONE', #1003 ) ;
#214 = VECTOR ( 'NONE', #117, 1000.000000000000000 ) ;
#215 = EDGE_CURVE ( 'NONE', #825, #811, #152, .T. ) ;
#216 = CARTESIAN_POINT ( 'NONE',  ( 2.862697040352309763, 4.200000000000000178, 3.560476710964359359 ) ) ;
#217 = ORIENTED_EDGE ( 'NONE', *, *, #487, .F. ) ;
#218 = LINE ( 'NONE', #948, #489 ) ;
#219 = PLANE ( 'NONE',  #375 ) ;
#220 = EDGE_CURVE ( 'NONE', #183, #553, #496, .T. ) ;
#221 = ORIENTED_EDGE ( 'NONE', *, *, #900, .T. ) ;
#222 = CARTESIAN_POINT ( 'NONE',  ( 3.299999999999999822, 1.000000000000000000, 0.0000000000000000000 ) ) ;
#223 = MECHANICAL_DESIGN_GEOMETRIC_PRESENTATION_REPRESENTATION (  '', ( #855 ), #870 ) ;
#224 = DIRECTION ( 'NONE',  ( -1.000000000000000000, 0.0000000000000000000, 0.0000000000000000000 ) ) ;
#225 = VERTEX_POINT ( 'NONE', #441 ) ;
#226 = EDGE_CURVE ( 'NONE', #490, #397, #979, .T. ) ;
#227 = DIRECTION ( 'NONE',  ( 0.0000000000000000000, 1.000000000000000000, 0.0000000000000000000 ) ) ;
#228 = CIRCLE ( 'NONE', #245, 0.2999999999999999334 ) ;
#229 = CARTESIAN_POINT ( 'NONE',  ( 3.000000000000000000, 4.200000000000000178, 9.500000000000000000 ) ) ;
#230 = ORIENTED_EDGE ( 'NONE', *, *, #481, .F. ) ;
#231 = DIRECTION ( 'NONE',  ( 1.000000000000000000, 0.0000000000000000000, 0.0000000000000000000 ) ) ;
#232 = SURFACE_STYLE_USAGE ( .BOTH. , #386 ) ;
#233 = DIRECTION ( 'NONE',  ( 0.0000000000000000000, 1.000000000000000000, 0.0000000000000000000 ) ) ;
#234 = ORIENTED_EDGE ( 'NONE', *, *, #945, .T. ) ;
#235 = ORIENTED_EDGE ( 'NONE', *, *, #517, .F. ) ;
#236 = DIRECTION ( 'NONE',  ( 1.000000000000000000, 2.891205793294679017E-15, 0.0000000000000000000 ) ) ;
#237 = EDGE_CURVE ( 'NONE', #93, #278, #212, .T. ) ;
#238 = PRODUCT_DEFINITION_FORMATION_WITH_SPECIFIED_SOURCE ( 'ANY', '', #519, .NOT_KNOWN. ) ;
#239 = CARTESIAN_POINT ( 'NONE',  ( -3.299999999999999822, 0.7000000000000000666, 9.500000000000000000 ) ) ;
#240 = ORIENTED_EDGE ( 'NONE', *, *, #967, .T. ) ;
#241 = ORIENTED_EDGE ( 'NONE', *, *, #614, .T. ) ;
#242 = DIRECTION ( 'NONE',  ( 0.6536198703460925907, -0.7568230077691594504, 0.0000000000000000000 ) ) ;
#243 = CARTESIAN_POINT ( 'NONE',  ( 4.600000000000000533, 1.300000000000000044, 9.500000000000000000 ) ) ;
#244 = VECTOR ( 'NONE', #414, 1000.000000000000000 ) ;
#245 = AXIS2_PLACEMENT_3D ( 'NONE', #856, #951, #458 ) ;
#246 = DIRECTION ( 'NONE',  ( -0.6536198703460925907, 0.7568230077691594504, 0.0000000000000000000 ) ) ;
#247 = EDGE_CURVE ( 'NONE', #811, #183, #611, .T. ) ;
#248 = ORIENTED_EDGE ( 'NONE', *, *, #547, .T. ) ;
#249 = CARTESIAN_POINT ( 'NONE',  ( 4.900000000000000355, 2.000000000000000000, 9.500000000000000000 ) ) ;
#250 = PLANE ( 'NONE',  #657 ) ;
#251 = DIRECTION ( 'NONE',  ( 8.659560562354947649E-17, 0.7071067811865464625, -0.7071067811865486830 ) ) ;
#252 = ORIENTED_EDGE ( 'NONE', *, *, #640, .T. ) ;
#253 = EDGE_LOOP ( 'NONE', ( #616, #888, #1030, #642 ) ) ;
#254 = EDGE_CURVE ( 'NONE', #258, #278, #628, .T. ) ;
#255 = CARTESIAN_POINT ( 'NONE',  ( -4.900000000000000355, 1.000000000000000000, 9.500000000000000000 ) ) ;
#256 = CIRCLE ( 'NONE', #60, 0.2999999999999999334 ) ;
#257 = CARTESIAN_POINT ( 'NONE',  ( 4.600000000000000533, 1.888386046723727008, 9.500000000000000000 ) ) ;
#258 = VERTEX_POINT ( 'NONE', #693 ) ;
#259 = ORIENTED_EDGE ( 'NONE', *, *, #614, .F. ) ;
#260 = ORIENTED_EDGE ( 'NONE', *, *, #876, .F. ) ;
#261 = ADVANCED_FACE ( 'NONE', ( #309 ), #100, .F. ) ;
#262 = CARTESIAN_POINT ( 'NONE',  ( 2.929697471657578323, 4.193380650833751666, 5.748016510934086831 ) ) ;
#263 = CARTESIAN_POINT ( 'NONE',  ( 3.000000000000000000, 0.7000000000000000666, 0.0000000000000000000 ) ) ;
#264 = VECTOR ( 'NONE', #41, 1000.000000000000000 ) ;
#265 = CARTESIAN_POINT ( 'NONE',  ( -4.600000000000000533, 1.888386046723727008, 0.0000000000000000000 ) ) ;
#266 = ORIENTED_EDGE ( 'NONE', *, *, #89, .F. ) ;
#267 = LINE ( 'NONE', #890, #472 ) ;
#268 = FACE_OUTER_BOUND ( 'NONE', #291, .T. ) ;
#269 = EDGE_LOOP ( 'NONE', ( #993, #302, #977, #689, #191 ) ) ;
#270 = CARTESIAN_POINT ( 'NONE',  ( -2.862697040352310207, 4.200000000000000178, 5.939523289035633979 ) ) ;
#271 = EDGE_CURVE ( 'NONE', #714, #474, #1013, .T. ) ;
#272 = COLOUR_RGB ( '',0.7803921568627451011, 0.7607843137254901578, 0.7411764705882353255 ) ;
#273 = ORIENTED_EDGE ( 'NONE', *, *, #58, .T. ) ;
#274 = CARTESIAN_POINT ( 'NONE',  ( -4.827046902330748956, 2.084472007827554929, 9.500000000000000000 ) ) ;
#275 = CARTESIAN_POINT ( 'NONE',  ( -2.901973195231978941, 4.199999999999999289, 5.845001615213176294 ) ) ;
#276 = ORIENTED_EDGE ( 'NONE', *, *, #237, .F. ) ;
#277 = VECTOR ( 'NONE', #687, 1000.000000000000000 ) ;
#278 = VERTEX_POINT ( 'NONE', #615 ) ;
#279 = ORIENTED_EDGE ( 'NONE', *, *, #103, .T. ) ;
#280 = CARTESIAN_POINT ( 'NONE',  ( 4.900000000000000355, 1.000000000000000000, 9.500000000000000000 ) ) ;
#281 = ADVANCED_FACE ( 'NONE', ( #791, #932 ), #454, .F. ) ;
#282 = DIRECTION ( 'NONE',  ( 0.0000000000000000000, 0.0000000000000000000, 1.000000000000000000 ) ) ;
#283 = ORIENTED_EDGE ( 'NONE', *, *, #328, .T. ) ;
#284 = UNCERTAINTY_MEASURE_WITH_UNIT (LENGTH_MEASURE( 1.000000000000000082E-05 ), #982, 'distance_accuracy_value', 'NONE');
#285 = CARTESIAN_POINT ( 'NONE',  ( -3.299999999999999822, 1.000000000000000000, 9.500000000000000000 ) ) ;
#286 = ORIENTED_EDGE ( 'NONE', *, *, #578, .F. ) ;
#287 = ADVANCED_FACE ( 'NONE', ( #82 ), #712, .F. ) ;
#288 = DIRECTION ( 'NONE',  ( -0.6536198703460925907, -0.7568230077691594504, -0.0000000000000000000 ) ) ;
#289 = CARTESIAN_POINT ( 'NONE',  ( -2.700000000000000178, 0.2999999999999999889, 9.500000000000000000 ) ) ;
#290 = CONICAL_SURFACE ( 'NONE', #176, 2.100000000000000089, 0.7853981633974498333 ) ;
#291 = EDGE_LOOP ( 'NONE', ( #252, #106, #171, #178 ) ) ;
#292 = AXIS2_PLACEMENT_3D ( 'NONE', #954, #9, #402 ) ;
#293 = CARTESIAN_POINT ( 'NONE',  ( 4.827046902330748956, 2.084472007827554929, 9.500000000000000000 ) ) ;
#294 = FACE_OUTER_BOUND ( 'NONE', #725, .T. ) ;
#295 = CARTESIAN_POINT ( 'NONE',  ( 4.600000000000000533, 1.000000000000000000, 9.500000000000000000 ) ) ;
#296 = AXIS2_PLACEMENT_3D ( 'NONE', #265, #196, #897 ) ;
#297 = ORIENTED_EDGE ( 'NONE', *, *, #436, .T. ) ;
#298 = DIRECTION ( 'NONE',  ( 0.0000000000000000000, 0.0000000000000000000, -1.000000000000000000 ) ) ;
#299 = AXIS2_PLACEMENT_3D ( 'NONE', #911, #668, #340 ) ;
#300 = CONICAL_SURFACE ( 'NONE', #795, 2.600000000000000089, 0.7853981633974469467 ) ;
#301 = DIRECTION ( 'NONE',  ( 0.0000000000000000000, -1.000000000000000000, 0.0000000000000000000 ) ) ;
#302 = ORIENTED_EDGE ( 'NONE', *, *, #4, .T. ) ;
#303 = FACE_OUTER_BOUND ( 'NONE', #751, .T. ) ;
#304 = ADVANCED_FACE ( 'NONE', ( #371 ), #219, .F. ) ;
#305 = CARTESIAN_POINT ( 'NONE',  ( -3.000000000000000000, 0.0000000000000000000, 9.500000000000000000 ) ) ;
#306 = ORIENTED_EDGE ( 'NONE', *, *, #542, .T. ) ;
#307 = CARTESIAN_POINT ( 'NONE',  ( 4.600000000000000533, 1.888386046723727008, 9.500000000000000000 ) ) ;
#308 = VECTOR ( 'NONE', #179, 1000.000000000000000 ) ;
#309 = FACE_OUTER_BOUND ( 'NONE', #915, .T. ) ;
#310 = EDGE_LOOP ( 'NONE', ( #415, #746, #313, #358 ) ) ;
#311 = CARTESIAN_POINT ( 'NONE',  ( -4.900000000000000355, 1.000000000000000000, 0.0000000000000000000 ) ) ;
#312 = LINE ( 'NONE', #465, #829 ) ;
#313 = ORIENTED_EDGE ( 'NONE', *, *, #684, .T. ) ;
#314 = ORIENTED_EDGE ( 'NONE', *, *, #463, .T. ) ;
#315 = CARTESIAN_POINT ( 'NONE',  ( 9.001153973733043645E-16, 0.0000000000000000000, 7.349999999999998757 ) ) ;
#316 = EDGE_CURVE ( 'NONE', #774, #490, #61, .T. ) ;
#317 = CARTESIAN_POINT ( 'NONE',  ( 5.817072295949925454E-16, 3.199999999999997513, 4.749999999999999112 ) ) ;
#318 = EDGE_LOOP ( 'NONE', ( #104, #728, #575, #582 ) ) ;
#319 = FACE_OUTER_BOUND ( 'NONE', #842, .T. ) ;
#320 = CARTESIAN_POINT ( 'NONE',  ( -3.000000000000000000, 1.000000000000000000, 0.0000000000000000000 ) ) ;
#321 = AXIS2_PLACEMENT_3D ( 'NONE', #727, #17, #652 ) ;
#322 = EDGE_CURVE ( 'NONE', #1024, #498, #228, .T. ) ;
#323 = CARTESIAN_POINT ( 'NONE',  ( -3.000000000000000000, 0.7000000000000000666, 0.0000000000000000000 ) ) ;
#324 = ORIENTED_EDGE ( 'NONE', *, *, #426, .T. ) ;
#325 = CARTESIAN_POINT ( 'NONE',  ( -4.600000000000000533, 1.888386046723727008, 9.500000000000000000 ) ) ;
#326 = DIRECTION ( 'NONE',  ( 1.000000000000000000, 0.0000000000000000000, 0.0000000000000000000 ) ) ;
#327 = AXIS2_PLACEMENT_3D ( 'NONE', #182, #502, #164 ) ;
#328 = EDGE_CURVE ( 'NONE', #719, #408, #312, .T. ) ;
#329 = PRESENTATION_STYLE_ASSIGNMENT (( #659 ) ) ;
#330 = ORIENTED_EDGE ( 'NONE', *, *, #443, .F. ) ;
#331 = CARTESIAN_POINT ( 'NONE',  ( 3.299999999999999822, 1.000000000000000000, 9.500000000000000000 ) ) ;
#332 = ORIENTED_EDGE ( 'NONE', *, *, #271, .F. ) ;
#333 = CARTESIAN_POINT ( 'NONE',  ( 2.862697040352309763, 4.200000000000000178, 9.500000000000000000 ) ) ;
#334 = EDGE_CURVE ( 'NONE', #397, #466, #778, .T. ) ;
#335 = CARTESIAN_POINT ( 'NONE',  ( 3.000000000000000000, 0.0000000000000000000, 9.500000000000000000 ) ) ;
#336 = ORIENTED_EDGE ( 'NONE', *, *, #749, .T. ) ;
#337 = DIRECTION ( 'NONE',  ( 0.0000000000000000000, 0.0000000000000000000, -1.000000000000000000 ) ) ;
#338 = AXIS2_PLACEMENT_3D ( 'NONE', #566, #873, #475 ) ;
#339 = FILL_AREA_STYLE_COLOUR ( '', #758 ) ;
#340 = DIRECTION ( 'NONE',  ( 0.0000000000000000000, 0.0000000000000000000, -1.000000000000000000 ) ) ;
#341 = CARTESIAN_POINT ( 'NONE',  ( 2.974842159398059849, 4.179254005401038974, 3.948601299102508566 ) ) ;
#342 = LINE ( 'NONE', #110, #494 ) ;
#343 = AXIS2_PLACEMENT_3D ( 'NONE', #197, #1008, #516 ) ;
#344 = DIRECTION ( 'NONE',  ( 0.0000000000000000000, -0.0000000000000000000, -1.000000000000000000 ) ) ;
#345 = CARTESIAN_POINT ( 'NONE',  ( -3.041139236850928462, 4.141160491663410603, 4.549358348534068952 ) ) ;
#346 = EDGE_CURVE ( 'NONE', #206, #225, #535, .T. ) ;
#347 = PRODUCT_DEFINITION_SHAPE ( 'NONE', 'NONE',  #596 ) ;
#348 = CARTESIAN_POINT ( 'NONE',  ( 2.700000000000000178, 0.0000000000000000000, 9.500000000000000000 ) ) ;
#349 = FACE_OUTER_BOUND ( 'NONE', #201, .T. ) ;
#350 = CARTESIAN_POINT ( 'NONE',  ( 5.817072295949925454E-16, 0.0000000000000000000, 4.749999999999999112 ) ) ;
#351 = ORIENTED_EDGE ( 'NONE', *, *, #189, .F. ) ;
#352 = UNCERTAINTY_MEASURE_WITH_UNIT (LENGTH_MEASURE( 1.000000000000000082E-05 ), #168, 'distance_accuracy_value', 'NONE');
#353 =( NAMED_UNIT ( * ) PLANE_ANGLE_UNIT ( ) SI_UNIT ( $, .RADIAN. ) );
#354 = ADVANCED_FACE ( 'NONE', ( #469 ), #70, .F. ) ;
#355 = CARTESIAN_POINT ( 'NONE',  ( 3.000000000000000000, 4.200000000000000178, 9.500000000000000000 ) ) ;
#356 = CARTESIAN_POINT ( 'NONE',  ( 4.900000000000000355, 1.300000000000000044, 9.500000000000000000 ) ) ;
#357 = CARTESIAN_POINT ( 'NONE',  ( -2.862697040352310207, 4.200000000000000178, 3.560476710964363356 ) ) ;
#358 = ORIENTED_EDGE ( 'NONE', *, *, #626, .F. ) ;
#359 = VECTOR ( 'NONE', #251, 1000.000000000000000 ) ;
#360 = ADVANCED_FACE ( 'NONE', ( #142 ), #787, .T. ) ;
#361 =( NAMED_UNIT ( * ) PLANE_ANGLE_UNIT ( ) SI_UNIT ( $, .RADIAN. ) );
#362 = FACE_OUTER_BOUND ( 'NONE', #536, .T. ) ;
#363 = CARTESIAN_POINT ( 'NONE',  ( -3.030645877485549367, 4.150319559454893614, 5.150471783600289122 ) ) ;
#364 = DIRECTION ( 'NONE',  ( -0.0000000000000000000, 0.0000000000000000000, 1.000000000000000000 ) ) ;
#365 = ORIENTED_EDGE ( 'NONE', *, *, #867, .F. ) ;
#366 = FILL_AREA_STYLE ('',( #679 ) ) ;
#367 = DIRECTION ( 'NONE',  ( -0.0000000000000000000, 0.0000000000000000000, 1.000000000000000000 ) ) ;
#368 = VECTOR ( 'NONE', #81, 1000.000000000000000 ) ;
#369 = ORIENTED_EDGE ( 'NONE', *, *, #247, .F. ) ;
#370 = DIRECTION ( 'NONE',  ( 8.659560562354921765E-17, -0.7071067811865484609, 0.7071067811865465735 ) ) ;
#371 = FACE_OUTER_BOUND ( 'NONE', #113, .T. ) ;
#372 = CIRCLE ( 'NONE', #692, 0.2999999999999999334 ) ;
#373 = ORIENTED_EDGE ( 'NONE', *, *, #78, .T. ) ;
#374 = FACE_OUTER_BOUND ( 'NONE', #94, .T. ) ;
#375 = AXIS2_PLACEMENT_3D ( 'NONE', #229, #153, #538 ) ;
#376 = SURFACE_STYLE_FILL_AREA ( #935 ) ;
#377 = CIRCLE ( 'NONE', #964, 0.2999999999999999334 ) ;
#378 = EDGE_CURVE ( 'NONE', #1020, #133, #562, .T. ) ;
#379 = CARTESIAN_POINT ( 'NONE',  ( 4.900000000000000355, 1.000000000000000000, 9.500000000000000000 ) ) ;
#380 = VERTEX_POINT ( 'NONE', #383 ) ;
#381 = CARTESIAN_POINT ( 'NONE',  ( 5.817072295949925454E-16, 0.0000000000000000000, 2.149999999999999023 ) ) ;
#382 = ADVANCED_FACE ( 'NONE', ( #702 ), #708, .F. ) ;
#383 = CARTESIAN_POINT ( 'NONE',  ( 8.388830574159367904E-16, 0.5000000000000008882, 2.649999999999998579 ) ) ;
#384 = ORIENTED_EDGE ( 'NONE', *, *, #487, .T. ) ;
#385 = LINE ( 'NONE', #790, #368 ) ;
#386 = SURFACE_SIDE_STYLE ('',( #376 ) ) ;
#387 = VECTOR ( 'NONE', #482, 1000.000000000000000 ) ;
#388 = DIRECTION ( 'NONE',  ( 0.0000000000000000000, -1.000000000000000000, 0.0000000000000000000 ) ) ;
#389 = EDGE_CURVE ( 'NONE', #278, #15, #975, .T. ) ;
#390 = ORIENTED_EDGE ( 'NONE', *, *, #913, .F. ) ;
#391 = CYLINDRICAL_SURFACE ( 'NONE', #989, 0.2999999999999999334 ) ;
#392 = VECTOR ( 'NONE', #246, 1000.000000000000000 ) ;
#393 = CARTESIAN_POINT ( 'NONE',  ( 0.0000000000000000000, 0.0000000000000000000, 0.0000000000000000000 ) ) ;
#394 = AXIS2_PLACEMENT_3D ( 'NONE', #994, #669, #848 ) ;
#395 = DIRECTION ( 'NONE',  ( -0.0000000000000000000, 0.0000000000000000000, -1.000000000000000000 ) ) ;
#396 = EDGE_LOOP ( 'NONE', ( #241, #699, #143, #929 ) ) ;
#397 = VERTEX_POINT ( 'NONE', #649 ) ;
#398 = CARTESIAN_POINT ( 'NONE',  ( 2.862697040352309763, 4.200000000000000178, 9.500000000000000000 ) ) ;
#399 = APPLICATION_PROTOCOL_DEFINITION ( 'draft international standard', 'automotive_design', 1998, #573 ) ;
#400 = DIRECTION ( 'NONE',  ( 1.000000000000000000, 0.0000000000000000000, 0.0000000000000000000 ) ) ;
#401 = VERTEX_POINT ( 'NONE', #323 ) ;
#402 = DIRECTION ( 'NONE',  ( -1.000000000000000000, 0.0000000000000000000, 0.0000000000000000000 ) ) ;
#403 = DIRECTION ( 'NONE',  ( 1.000000000000000000, 0.0000000000000000000, 0.0000000000000000000 ) ) ;
#404 = ADVANCED_FACE ( 'NONE', ( #723 ), #797, .F. ) ;
#405 = VECTOR ( 'NONE', #550, 1000.000000000000000 ) ;
#406 = CARTESIAN_POINT ( 'NONE',  ( 3.000000000000000000, 0.2999999999999999889, 0.0000000000000000000 ) ) ;
#407 = ORIENTED_EDGE ( 'NONE', *, *, #237, .T. ) ;
#408 = VERTEX_POINT ( 'NONE', #86 ) ;
#409 = CARTESIAN_POINT ( 'NONE',  ( 2.700000000000000178, 0.0000000000000000000, 0.0000000000000000000 ) ) ;
#410 = FACE_OUTER_BOUND ( 'NONE', #893, .T. ) ;
#411 = CIRCLE ( 'NONE', #98, 0.2999999999999999334 ) ;
#412 = EDGE_CURVE ( 'NONE', #1, #634, #377, .T. ) ;
#413 = AXIS2_PLACEMENT_3D ( 'NONE', #928, #762, #446 ) ;
#414 = DIRECTION ( 'NONE',  ( 0.0000000000000000000, 0.0000000000000000000, -1.000000000000000000 ) ) ;
#415 = ORIENTED_EDGE ( 'NONE', *, *, #782, .F. ) ;
#416 = EDGE_LOOP ( 'NONE', ( #731, #324, #836, #221 ) ) ;
#417 = DIRECTION ( 'NONE',  ( 0.0000000000000000000, -0.0000000000000000000, 1.000000000000000000 ) ) ;
#418 = CARTESIAN_POINT ( 'NONE',  ( -4.900000000000000355, 1.300000000000000044, 9.500000000000000000 ) ) ;
#419 = EDGE_LOOP ( 'NONE', ( #918, #351, #332, #286 ) ) ;
#420 = ORIENTED_EDGE ( 'NONE', *, *, #145, .T. ) ;
#421 = DIRECTION ( 'NONE',  ( 0.0000000000000000000, 0.0000000000000000000, -1.000000000000000000 ) ) ;
#422 = VECTOR ( 'NONE', #1025, 1000.000000000000000 ) ;
#423 = AXIS2_PLACEMENT_3D ( 'NONE', #393, #711, #776 ) ;
#424 = CARTESIAN_POINT ( 'NONE',  ( -4.900000000000000355, 1.888386046723727008, 9.500000000000000000 ) ) ;
#425 = CARTESIAN_POINT ( 'NONE',  ( -4.900000000000000355, 1.300000000000000044, 9.500000000000000000 ) ) ;
#426 = EDGE_CURVE ( 'NONE', #380, #815, #514, .T. ) ;
#427 = ORIENTED_EDGE ( 'NONE', *, *, #595, .T. ) ;
#428 = CARTESIAN_POINT ( 'NONE',  ( 4.600000000000000533, 1.300000000000000044, 0.0000000000000000000 ) ) ;
#429 = FILL_AREA_STYLE ('',( #512 ) ) ;
#430 = AXIS2_PLACEMENT_3D ( 'NONE', #589, #756, #1000 ) ;
#431 = CIRCLE ( 'NONE', #592, 0.2999999999999999334 ) ;
#432 = ORIENTED_EDGE ( 'NONE', *, *, #481, .T. ) ;
#433 = DIRECTION ( 'NONE',  ( 0.0000000000000000000, 1.000000000000000000, 0.0000000000000000000 ) ) ;
#434 = ORIENTED_EDGE ( 'NONE', *, *, #389, .T. ) ;
#435 = LINE ( 'NONE', #528, #459 ) ;
#436 = EDGE_CURVE ( 'NONE', #213, #1020, #718, .T. ) ;
#437 = ORIENTED_EDGE ( 'NONE', *, *, #67, .F. ) ;
#438 = DIRECTION ( 'NONE',  ( -0.0000000000000000000, -0.0000000000000000000, 1.000000000000000000 ) ) ;
#439 = DIRECTION ( 'NONE',  ( -0.0000000000000000000, -0.0000000000000000000, 1.000000000000000000 ) ) ;
#440 = EDGE_CURVE ( 'NONE', #80, #192, #971, .T. ) ;
#441 = CARTESIAN_POINT ( 'NONE',  ( 4.900000000000000355, 1.888386046723727008, 9.500000000000000000 ) ) ;
#442 = DIRECTION ( 'NONE',  ( 1.000000000000000000, 0.0000000000000000000, 0.0000000000000000000 ) ) ;
#443 = EDGE_CURVE ( 'NONE', #635, #84, #411, .T. ) ;
#444 = PRODUCT_RELATED_PRODUCT_CATEGORY ( 'part', '', ( #519 ) ) ;
#445 = CIRCLE ( 'NONE', #1027, 2.100000000000000089 ) ;
#446 = DIRECTION ( 'NONE',  ( 0.0000000000000000000, 0.0000000000000000000, 1.000000000000000000 ) ) ;
#447 = VECTOR ( 'NONE', #824, 1000.000000000000000 ) ;
#448 = VERTEX_POINT ( 'NONE', #818 ) ;
#449 = CARTESIAN_POINT ( 'NONE',  ( 5.817072295949925454E-16, 3.199999999999997513, 4.749999999999999112 ) ) ;
#450 = CARTESIAN_POINT ( 'NONE',  ( -3.000000000000000000, 0.7000000000000000666, 9.500000000000000000 ) ) ;
#451 = CARTESIAN_POINT ( 'NONE',  ( 4.900000000000000355, 1.888386046723727008, 0.0000000000000000000 ) ) ;
#452 = EDGE_LOOP ( 'NONE', ( #235, #798, #259, #540, #937, #234, #161, #71, #276, #953, #793, #865, #972, #124, #87, #420, #987, #306, #973, #772 ) ) ;
#453 = DIRECTION ( 'NONE',  ( -0.0000000000000000000, 0.0000000000000000000, 1.000000000000000000 ) ) ;
#454 = PLANE ( 'NONE',  #478 ) ;
#455 = ORIENTED_EDGE ( 'NONE', *, *, #684, .F. ) ;
#456 = EDGE_CURVE ( 'NONE', #380, #213, #739, .T. ) ;
#457 = DIRECTION ( 'NONE',  ( 1.000000000000000000, 0.0000000000000000000, 0.0000000000000000000 ) ) ;
#458 = DIRECTION ( 'NONE',  ( 1.000000000000000000, 0.0000000000000000000, 0.0000000000000000000 ) ) ;
#459 = VECTOR ( 'NONE', #439, 1000.000000000000000 ) ;
#460 = ORIENTED_EDGE ( 'NONE', *, *, #463, .F. ) ;
#461 = CARTESIAN_POINT ( 'NONE',  ( 2.862697040352309763, 3.899999999999999911, 0.0000000000000000000 ) ) ;
#462 = CONICAL_SURFACE ( 'NONE', #894, 2.600000000000000089, 0.7853981633974469467 ) ;
#463 = EDGE_CURVE ( 'NONE', #225, #22, #372, .T. ) ;
#464 = EDGE_CURVE ( 'NONE', #397, #1, #342, .T. ) ;
#465 = CARTESIAN_POINT ( 'NONE',  ( 4.900000000000000355, 2.000000000000000000, 0.0000000000000000000 ) ) ;
#466 = VERTEX_POINT ( 'NONE', #21 ) ;
#467 = DIRECTION ( 'NONE',  ( 0.0000000000000000000, 0.7071067811865464625, 0.7071067811865486830 ) ) ;
#468 = EDGE_CURVE ( 'NONE', #765, #93, #802, .T. ) ;
#469 = FACE_OUTER_BOUND ( 'NONE', #533, .T. ) ;
#470 = VERTEX_POINT ( 'NONE', #572 ) ;
#471 = CARTESIAN_POINT ( 'NONE',  ( 5.817072295949925454E-16, 3.199999999999997513, 4.749999999999999112 ) ) ;
#472 = VECTOR ( 'NONE', #583, 1000.000000000000000 ) ;
#473 = DIRECTION ( 'NONE',  ( 0.0000000000000000000, 0.0000000000000000000, 1.000000000000000000 ) ) ;
#474 = VERTEX_POINT ( 'NONE', #263 ) ;
#475 = DIRECTION ( 'NONE',  ( 0.6536198703460925907, 0.7568230077691594504, 0.0000000000000000000 ) ) ;
#476 = MECHANICAL_DESIGN_GEOMETRIC_PRESENTATION_REPRESENTATION (  '', ( #675 ), #743 ) ;
#477 = AXIS2_PLACEMENT_3D ( 'NONE', #504, #344, #515 ) ;
#478 = AXIS2_PLACEMENT_3D ( 'NONE', #305, #773, #156 ) ;
#479 = CARTESIAN_POINT ( 'NONE',  ( 3.000000000000000000, 1.000000000000000000, 9.500000000000000000 ) ) ;
#480 = ORIENTED_EDGE ( 'NONE', *, *, #1018, .T. ) ;
#481 = EDGE_CURVE ( 'NONE', #22, #1024, #497, .T. ) ;
#482 = DIRECTION ( 'NONE',  ( 0.0000000000000000000, 0.0000000000000000000, -1.000000000000000000 ) ) ;
#483 = DIRECTION ( 'NONE',  ( 1.000000000000000000, 0.0000000000000000000, 0.0000000000000000000 ) ) ;
#484 = DIRECTION ( 'NONE',  ( 1.000000000000000000, 0.0000000000000000000, 0.0000000000000000000 ) ) ;
#485 = ORIENTED_EDGE ( 'NONE', *, *, #542, .F. ) ;
#486 = FACE_OUTER_BOUND ( 'NONE', #101, .T. ) ;
#487 = EDGE_CURVE ( 'NONE', #1009, #258, #734, .T. ) ;
#488 = DIRECTION ( 'NONE',  ( 0.0000000000000000000, -1.000000000000000000, 0.0000000000000000000 ) ) ;
#489 = VECTOR ( 'NONE', #546, 1000.000000000000000 ) ;
#490 = VERTEX_POINT ( 'NONE', #557 ) ;
#491 = DIRECTION ( 'NONE',  ( -0.0000000000000000000, 1.000000000000000000, -0.0000000000000000000 ) ) ;
#492 = ORIENTED_EDGE ( 'NONE', *, *, #39, .T. ) ;
#493 = PLANE ( 'NONE',  #703 ) ;
#494 = VECTOR ( 'NONE', #484, 1000.000000000000000 ) ;
#495 = CIRCLE ( 'NONE', #477, 0.2999999999999999334 ) ;
#496 = CIRCLE ( 'NONE', #1014, 0.2999999999999999334 ) ;
#497 = LINE ( 'NONE', #663, #392 ) ;
#498 = VERTEX_POINT ( 'NONE', #333 ) ;
#499 = ORIENTED_EDGE ( 'NONE', *, *, #570, .F. ) ;
#500 = CARTESIAN_POINT ( 'NONE',  ( -4.600000000000000533, 1.000000000000000000, 9.500000000000000000 ) ) ;
#501 = ADVANCED_FACE ( 'NONE', ( #563 ), #814, .F. ) ;
#502 = DIRECTION ( 'NONE',  ( -0.0000000000000000000, -1.000000000000000000, -0.0000000000000000000 ) ) ;
#503 = B_SPLINE_CURVE_WITH_KNOTS ( 'NONE', 3,
 ( #270, #275, #134, #208, #1001, #363, #1005, #345, #665, #984, #590, #585, #904, #357 ),
 .UNSPECIFIED., .F., .F.,
 ( 4, 2, 2, 2, 2, 2, 4 ),
 ( 0.0000000000000000000, 0.0003032032746623087292, 0.0006064065493246174584, 0.001212813098649237302, 0.001819219647973857037, 0.002122422922636166796, 0.002425626197298476772 ),
 .UNSPECIFIED. ) ;
#504 = CARTESIAN_POINT ( 'NONE',  ( -2.700000000000000178, 0.2999999999999999889, 0.0000000000000000000 ) ) ;
#505 = CARTESIAN_POINT ( 'NONE',  ( 2.901973195231977609, 4.200000000000001066, 3.654998384786819265 ) ) ;
#506 = AXIS2_PLACEMENT_3D ( 'NONE', #955, #488, #337 ) ;
#507 = DIRECTION ( 'NONE',  ( -0.0000000000000000000, 1.000000000000000000, -0.0000000000000000000 ) ) ;
#508 = VERTEX_POINT ( 'NONE', #406 ) ;
#509 = ADVANCED_FACE ( 'NONE', ( #579 ), #882, .F. ) ;
#510 = LINE ( 'NONE', #130, #940 ) ;
#511 = CIRCLE ( 'NONE', #299, 3.100000000000005418 ) ;
#512 = FILL_AREA_STYLE_COLOUR ( '', #64 ) ;
#513 = VECTOR ( 'NONE', #438, 1000.000000000000000 ) ;
#514 = CIRCLE ( 'NONE', #327, 2.100000000000000089 ) ;
#515 = DIRECTION ( 'NONE',  ( 1.000000000000000000, 0.0000000000000000000, 0.0000000000000000000 ) ) ;
#516 = DIRECTION ( 'NONE',  ( 1.000000000000000000, 0.0000000000000000000, 0.0000000000000000000 ) ) ;
#517 = EDGE_CURVE ( 'NONE', #508, #474, #830, .T. ) ;
#518 = CARTESIAN_POINT ( 'NONE',  ( 2.700000000000000178, 0.2999999999999999889, 0.0000000000000000000 ) ) ;
#519 = PRODUCT ( 'A133 Сухарь пазовый М5, паз 6', 'A133 Сухарь пазовый М5, паз 6', '', ( #556 ) ) ;
#520 = ORIENTED_EDGE ( 'NONE', *, *, #640, .F. ) ;
#521 = CARTESIAN_POINT ( 'NONE',  ( 5.817072295949925454E-16, 4.200000000000000178, 4.749999999999999112 ) ) ;
#522 = CARTESIAN_POINT ( 'NONE',  ( -2.862697040352309763, 3.899999999999999911, 0.0000000000000000000 ) ) ;
#523 = ADVANCED_FACE ( 'NONE', ( #268 ), #742, .F. ) ;
#524 = UNCERTAINTY_MEASURE_WITH_UNIT (LENGTH_MEASURE( 1.000000000000000082E-05 ), #1007, 'distance_accuracy_value', 'NONE');
#525 = AXIS2_PLACEMENT_3D ( 'NONE', #307, #710, #1017 ) ;
#526 = CARTESIAN_POINT ( 'NONE',  ( -2.862697040352309763, 3.899999999999999911, 9.500000000000000000 ) ) ;
#527 = ORIENTED_EDGE ( 'NONE', *, *, #151, .F. ) ;
#528 = CARTESIAN_POINT ( 'NONE',  ( 2.700000000000000178, 0.0000000000000000000, 9.500000000000000000 ) ) ;
#529 = VECTOR ( 'NONE', #442, 1000.000000000000000 ) ;
#530 = CARTESIAN_POINT ( 'NONE',  ( -2.862697040352310207, 4.200000000000000178, 3.560476710964363356 ) ) ;
#531 = DIRECTION ( 'NONE',  ( 0.0000000000000000000, 0.0000000000000000000, -1.000000000000000000 ) ) ;
#532 = CIRCLE ( 'NONE', #413, 2.600000000000000089 ) ;
#533 = EDGE_LOOP ( 'NONE', ( #111, #172, #769, #574 ) ) ;
#534 = EDGE_CURVE ( 'NONE', #22, #719, #990, .T. ) ;
#535 = LINE ( 'NONE', #851, #68 ) ;
#536 = EDGE_LOOP ( 'NONE', ( #520, #962, #812, #455 ) ) ;
#537 = CARTESIAN_POINT ( 'NONE',  ( -4.900000000000000355, 1.888386046723727008, 9.500000000000000000 ) ) ;
#538 = DIRECTION ( 'NONE',  ( 0.0000000000000000000, -0.0000000000000000000, -1.000000000000000000 ) ) ;
#539 = VECTOR ( 'NONE', #785, 1000.000000000000000 ) ;
#540 = ORIENTED_EDGE ( 'NONE', *, *, #33, .T. ) ;
#542 = EDGE_CURVE ( 'NONE', #569, #36, #810, .T. ) ;
#541 = DIRECTION ( 'NONE',  ( -1.000000000000000000, 0.0000000000000000000, 0.0000000000000000000 ) ) ;
#543 = DIRECTION ( 'NONE',  ( 0.0000000000000000000, 0.0000000000000000000, -1.000000000000000000 ) ) ;
#544 =( GEOMETRIC_REPRESENTATION_CONTEXT ( 3 ) GLOBAL_UNCERTAINTY_ASSIGNED_CONTEXT ( ( #284 ) ) GLOBAL_UNIT_ASSIGNED_CONTEXT ( ( #982, #822, #901 ) ) REPRESENTATION_CONTEXT ( 'NONE', 'WORKASPACE' ) );
#545 = ORIENTED_EDGE ( 'NONE', *, *, #608, .F. ) ;
#546 = DIRECTION ( 'NONE',  ( 0.0000000000000000000, 1.000000000000000000, 0.0000000000000000000 ) ) ;
#547 = EDGE_CURVE ( 'NONE', #553, #753, #510, .T. ) ;
#548 = DIRECTION ( 'NONE',  ( 1.000000000000000000, 0.0000000000000000000, 0.0000000000000000000 ) ) ;
#549 = VERTEX_POINT ( 'NONE', #54 ) ;
#550 = DIRECTION ( 'NONE',  ( 1.000000000000000000, 0.0000000000000000000, 0.0000000000000000000 ) ) ;
#551 = APPLICATION_PROTOCOL_DEFINITION ( 'draft international standard', 'automotive_design', 1998, #115 ) ;
#552 = DIRECTION ( 'NONE',  ( 1.000000000000000000, 0.0000000000000000000, 0.0000000000000000000 ) ) ;
#553 = VERTEX_POINT ( 'NONE', #49 ) ;
#554 = CARTESIAN_POINT ( 'NONE',  ( 4.900000000000000355, 1.300000000000000044, 9.500000000000000000 ) ) ;
#555 = AXIS2_PLACEMENT_3D ( 'NONE', #705, #453, #231 ) ;
#556 = PRODUCT_CONTEXT ( 'NONE', #115, 'mechanical' ) ;
#557 = CARTESIAN_POINT ( 'NONE',  ( -3.000000000000000000, 0.2999999999999999334, 9.500000000000000000 ) ) ;
#558 = ORIENTED_EDGE ( 'NONE', *, *, #1018, .F. ) ;
#559 = CARTESIAN_POINT ( 'NONE',  ( 5.817072295949925454E-16, 3.199999999999997513, 4.749999999999999112 ) ) ;
#560 = AXIS2_PLACEMENT_3D ( 'NONE', #317, #233, #473 ) ;
#561 = CARTESIAN_POINT ( 'NONE',  ( 9.001153973733043645E-16, 0.0000000000000000000, 7.349999999999998757 ) ) ;
#562 = CIRCLE ( 'NONE', #199, 3.100000000000005418 ) ;
#563 = FACE_OUTER_BOUND ( 'NONE', #844, .T. ) ;
#564 = EDGE_LOOP ( 'NONE', ( #279, #732 ) ) ;
#565 = ORIENTED_EDGE ( 'NONE', *, *, #436, .F. ) ;
#566 = CARTESIAN_POINT ( 'NONE',  ( -4.900000000000000355, 2.000000000000000000, 9.500000000000000000 ) ) ;
#567 = CARTESIAN_POINT ( 'NONE',  ( -4.900000000000000355, 1.000000000000000000, 9.500000000000000000 ) ) ;
#568 = DIRECTION ( 'NONE',  ( -0.0000000000000000000, -0.0000000000000000000, 1.000000000000000000 ) ) ;
#569 = VERTEX_POINT ( 'NONE', #602 ) ;
#570 = EDGE_CURVE ( 'NONE', #653, #192, #741, .T. ) ;
#571 = DIRECTION ( 'NONE',  ( -0.0000000000000000000, 0.0000000000000000000, 1.000000000000000000 ) ) ;
#572 = CARTESIAN_POINT ( 'NONE',  ( 5.817072295949925454E-16, 0.0000000000000000000, 2.149999999999999023 ) ) ;
#573 = APPLICATION_CONTEXT ( 'automotive_design' ) ;
#574 = ORIENTED_EDGE ( 'NONE', *, *, #691, .T. ) ;
#575 = ORIENTED_EDGE ( 'NONE', *, *, #33, .F. ) ;
#576 = ORIENTED_EDGE ( 'NONE', *, *, #749, .F. ) ;
#577 = FACE_OUTER_BOUND ( 'NONE', #651, .T. ) ;
#578 = EDGE_CURVE ( 'NONE', #957, #714, #843, .T. ) ;
#579 = FACE_OUTER_BOUND ( 'NONE', #416, .T. ) ;
#580 = ORIENTED_EDGE ( 'NONE', *, *, #412, .T. ) ;
#581 = ORIENTED_EDGE ( 'NONE', *, *, #126, .T. ) ;
#582 = ORIENTED_EDGE ( 'NONE', *, *, #334, .F. ) ;
#583 = DIRECTION ( 'NONE',  ( -0.0000000000000000000, -0.0000000000000000000, 1.000000000000000000 ) ) ;
#584 = CARTESIAN_POINT ( 'NONE',  ( 5.817072295949925454E-16, 3.199999999999997513, 6.849999999999999645 ) ) ;
#585 = CARTESIAN_POINT ( 'NONE',  ( -2.929697471657576990, 4.193380650833749002, 3.751983489065918942 ) ) ;
#586 = AXIS2_PLACEMENT_3D ( 'NONE', #617, #775, #541 ) ;
#587 = EDGE_CURVE ( 'NONE', #811, #83, #503, .T. ) ;
#588 = CARTESIAN_POINT ( 'NONE',  ( 4.827046902330748956, 2.084472007827554929, 9.500000000000000000 ) ) ;
#589 = CARTESIAN_POINT ( 'NONE',  ( 3.299999999999999822, 0.7000000000000000666, 9.500000000000000000 ) ) ;
#590 = CARTESIAN_POINT ( 'NONE',  ( -2.974916373921194346, 4.179227658465419992, 3.948953233939981988 ) ) ;
#591 = VECTOR ( 'NONE', #685, 1000.000000000000000 ) ;
#592 = AXIS2_PLACEMENT_3D ( 'NONE', #837, #202, #841 ) ;
#593 = ORIENTED_EDGE ( 'NONE', *, *, #691, .F. ) ;
#594 = DIRECTION ( 'NONE',  ( 0.0000000000000000000, 0.0000000000000000000, -1.000000000000000000 ) ) ;
#595 = EDGE_CURVE ( 'NONE', #653, #549, #193, .T. ) ;
#596 = PRODUCT_DEFINITION ( 'UNKNOWN', '', #238, #34 ) ;
#597 = FACE_OUTER_BOUND ( 'NONE', #1016, .T. ) ;
#598 = ORIENTED_EDGE ( 'NONE', *, *, #945, .F. ) ;
#599 = LINE ( 'NONE', #204, #31 ) ;
#600 = CARTESIAN_POINT ( 'NONE',  ( 5.817072295949925454E-16, 0.0000000000000000000, 4.749999999999999112 ) ) ;
#601 = ORIENTED_EDGE ( 'NONE', *, *, #534, .T. ) ;
#602 = CARTESIAN_POINT ( 'NONE',  ( 4.900000000000000355, 1.300000000000000044, 0.0000000000000000000 ) ) ;
#603 =( NAMED_UNIT ( * ) SI_UNIT ( $, .STERADIAN. ) SOLID_ANGLE_UNIT ( ) );
#604 = ORIENTED_EDGE ( 'NONE', *, *, #464, .T. ) ;
#605 = CARTESIAN_POINT ( 'NONE',  ( 3.089743942683057298, 4.096085961103828055, 9.500000000000000000 ) ) ;
#606 = EDGE_LOOP ( 'NONE', ( #283, #803, #230, #601 ) ) ;
#607 = DIRECTION ( 'NONE',  ( 1.000000000000000000, 1.445602896647339508E-15, 0.0000000000000000000 ) ) ;
#608 = EDGE_CURVE ( 'NONE', #862, #1, #435, .T. ) ;
#609 = AXIS2_PLACEMENT_3D ( 'NONE', #479, #12, #105 ) ;
#610 = VECTOR ( 'NONE', #983, 1000.000000000000000 ) ;
#611 = LINE ( 'NONE', #1022, #998 ) ;
#612 = ORIENTED_EDGE ( 'NONE', *, *, #986, .F. ) ;
#613 = LINE ( 'NONE', #1032, #1006 ) ;
#614 = EDGE_CURVE ( 'NONE', #466, #862, #38, .T. ) ;
#615 = CARTESIAN_POINT ( 'NONE',  ( -4.900000000000000355, 1.300000000000000044, 0.0000000000000000000 ) ) ;
#616 = ORIENTED_EDGE ( 'NONE', *, *, #792, .F. ) ;
#617 = CARTESIAN_POINT ( 'NONE',  ( 2.862697040352309763, 3.899999999999999911, 9.500000000000000000 ) ) ;
#618 = DIRECTION ( 'NONE',  ( 0.0000000000000000000, 0.0000000000000000000, -1.000000000000000000 ) ) ;
#619 = EDGE_CURVE ( 'NONE', #508, #862, #11, .T. ) ;
#620 = AXIS2_PLACEMENT_3D ( 'NONE', #249, #173, #242 ) ;
#621 = ORIENTED_EDGE ( 'NONE', *, *, #151, .T. ) ;
#622 = LINE ( 'NONE', #311, #736 ) ;
#623 = DIRECTION ( 'NONE',  ( -0.0000000000000000000, 0.0000000000000000000, 1.000000000000000000 ) ) ;
#624 = AXIS2_PLACEMENT_3D ( 'NONE', #522, #919, #607 ) ;
#625 = ORIENTED_EDGE ( 'NONE', *, *, #587, .T. ) ;
#626 = EDGE_CURVE ( 'NONE', #933, #470, #724, .T. ) ;
#627 = CARTESIAN_POINT ( 'NONE',  ( -4.827046902330748956, 2.084472007827554929, 9.500000000000000000 ) ) ;
#628 = CIRCLE ( 'NONE', #927, 0.2999999999999999334 ) ;
#629 = DIRECTION ( 'NONE',  ( 0.0000000000000000000, -0.0000000000000000000, 1.000000000000000000 ) ) ;
#630 = ORIENTED_EDGE ( 'NONE', *, *, #755, .F. ) ;
#631 = DIRECTION ( 'NONE',  ( 0.0000000000000000000, 0.0000000000000000000, -1.000000000000000000 ) ) ;
#632 =( NAMED_UNIT ( * ) PLANE_ANGLE_UNIT ( ) SI_UNIT ( $, .RADIAN. ) );
#633 = DIRECTION ( 'NONE',  ( -0.0000000000000000000, -0.0000000000000000000, 1.000000000000000000 ) ) ;
#634 = VERTEX_POINT ( 'NONE', #754 ) ;
#635 = VERTEX_POINT ( 'NONE', #43 ) ;
#636 = CYLINDRICAL_SURFACE ( 'NONE', #292, 0.2999999999999999334 ) ;
#637 = VECTOR ( 'NONE', #421, 1000.000000000000000 ) ;
#638 =( NAMED_UNIT ( * ) SI_UNIT ( $, .STERADIAN. ) SOLID_ANGLE_UNIT ( ) );
#639 = CYLINDRICAL_SURFACE ( 'NONE', #159, 0.2999999999999999334 ) ;
#640 = EDGE_CURVE ( 'NONE', #815, #380, #445, .T. ) ;
#641 = CARTESIAN_POINT ( 'NONE',  ( 3.000000000000000000, 4.200000000000000178, 0.0000000000000000000 ) ) ;
#642 = ORIENTED_EDGE ( 'NONE', *, *, #468, .F. ) ;
#643 = AXIS2_PLACEMENT_3D ( 'NONE', #850, #925, #120 ) ;
#644 = ORIENTED_EDGE ( 'NONE', *, *, #58, .F. ) ;
#645 = DIRECTION ( 'NONE',  ( 0.0000000000000000000, 0.0000000000000000000, -1.000000000000000000 ) ) ;
#646 = STYLED_ITEM ( 'NONE', ( #1002 ), #66 ) ;
#647 = DIRECTION ( 'NONE',  ( 0.0000000000000000000, 0.0000000000000000000, -1.000000000000000000 ) ) ;
#648 = AXIS2_PLACEMENT_3D ( 'NONE', #79, #618, #224 ) ;
#649 = CARTESIAN_POINT ( 'NONE',  ( -2.700000000000000178, 0.0000000000000000000, 9.500000000000000000 ) ) ;
#650 = ADVANCED_FACE ( 'NONE', ( #597 ), #290, .F. ) ;
#651 = EDGE_LOOP ( 'NONE', ( #407, #434, #780, #24 ) ) ;
#652 = DIRECTION ( 'NONE',  ( -1.000000000000000000, 0.0000000000000000000, 0.0000000000000000000 ) ) ;
#653 = VERTEX_POINT ( 'NONE', #203 ) ;
#654 = DIRECTION ( 'NONE',  ( -0.0000000000000000000, 0.0000000000000000000, 1.000000000000000000 ) ) ;
#655 = ORIENTED_EDGE ( 'NONE', *, *, #939, .F. ) ;
#656 = CARTESIAN_POINT ( 'NONE',  ( 2.929699566582612658, 4.193376871510124282, 3.752021322816281312 ) ) ;
#657 = AXIS2_PLACEMENT_3D ( 'NONE', #255, #188, #647 ) ;
#658 = ADVANCED_BREP_SHAPE_REPRESENTATION ( 'A133 TєїрЁ№ ярчютvщ ¦5, ярч 6', ( #66, #423 ), #190 ) ;
#659 = SURFACE_STYLE_USAGE ( .BOTH. , #92 ) ;
#660 = ORIENTED_EDGE ( 'NONE', *, *, #378, .F. ) ;
#661 = DIRECTION ( 'NONE',  ( 0.0000000000000000000, 0.0000000000000000000, -1.000000000000000000 ) ) ;
#662 = CIRCLE ( 'NONE', #296, 0.2999999999999999334 ) ;
#663 = CARTESIAN_POINT ( 'NONE',  ( 4.900000000000000355, 2.000000000000000000, 9.500000000000000000 ) ) ;
#664 = CARTESIAN_POINT ( 'NONE',  ( 4.600000000000000533, 1.000000000000000000, 0.0000000000000000000 ) ) ;
#665 = CARTESIAN_POINT ( 'NONE',  ( -3.030584004399415221, 4.150347167564335749, 4.349194956259323952 ) ) ;
#666 = EDGE_CURVE ( 'NONE', #957, #209, #1010, .T. ) ;
#667 =( LENGTH_UNIT ( ) NAMED_UNIT ( * ) SI_UNIT ( .MILLI., .METRE. ) );
#668 = DIRECTION ( 'NONE',  ( 0.0000000000000000000, -1.000000000000000000, 0.0000000000000000000 ) ) ;
#669 = DIRECTION ( 'NONE',  ( -0.0000000000000000000, 0.0000000000000000000, 1.000000000000000000 ) ) ;
#670 = DIRECTION ( 'NONE',  ( 1.000000000000000000, 0.0000000000000000000, 0.0000000000000000000 ) ) ;
#671 = CIRCLE ( 'NONE', #506, 3.100000000000005418 ) ;
#672 = CARTESIAN_POINT ( 'NONE',  ( 2.862697040352309763, 4.200000000000000178, 5.939523289035638420 ) ) ;
#673 = DIRECTION ( 'NONE',  ( -0.0000000000000000000, 0.0000000000000000000, -1.000000000000000000 ) ) ;
#674 = DIRECTION ( 'NONE',  ( 1.000000000000000000, 0.0000000000000000000, 0.0000000000000000000 ) ) ;
#675 = STYLED_ITEM ( 'NONE', ( #750 ), #523 ) ;
#676 = EDGE_LOOP ( 'NONE', ( #823, #437, #485, #593 ) ) ;
#677 = UNCERTAINTY_MEASURE_WITH_UNIT (LENGTH_MEASURE( 1.000000000000000082E-05 ), #667, 'distance_accuracy_value', 'NONE');
#678 = AXIS2_PLACEMENT_3D ( 'NONE', #861, #623, #552 ) ;
#679 = FILL_AREA_STYLE_COLOUR ( '', #875 ) ;
#680 = CARTESIAN_POINT ( 'NONE',  ( -3.000000000000000000, 0.7000000000000000666, 0.0000000000000000000 ) ) ;
#681 = DIRECTION ( 'NONE',  ( 0.0000000000000000000, 0.0000000000000000000, -1.000000000000000000 ) ) ;
#682 = LINE ( 'NONE', #680, #14 ) ;
#683 = ORIENTED_EDGE ( 'NONE', *, *, #547, .F. ) ;
#684 = EDGE_CURVE ( 'NONE', #380, #470, #1021, .T. ) ;
#685 = DIRECTION ( 'NONE',  ( 0.0000000000000000000, 0.0000000000000000000, -1.000000000000000000 ) ) ;
#686 = AXIS2_PLACEMENT_3D ( 'NONE', #559, #88, #167 ) ;
#687 = DIRECTION ( 'NONE',  ( -0.0000000000000000000, -0.0000000000000000000, 1.000000000000000000 ) ) ;
#688 = DIRECTION ( 'NONE',  ( -0.0000000000000000000, -1.000000000000000000, -0.0000000000000000000 ) ) ;
#689 = ORIENTED_EDGE ( 'NONE', *, *, #247, .T. ) ;
#690 = PLANE ( 'NONE',  #207 ) ;
#691 = EDGE_CURVE ( 'NONE', #107, #569, #700, .T. ) ;
#692 = AXIS2_PLACEMENT_3D ( 'NONE', #257, #99, #959 ) ;
#693 = CARTESIAN_POINT ( 'NONE',  ( -4.600000000000000533, 1.000000000000000000, 0.0000000000000000000 ) ) ;
#694 = AXIS2_PLACEMENT_3D ( 'NONE', #966, #654, #896 ) ;
#695 = ORIENTED_EDGE ( 'NONE', *, *, #189, .T. ) ;
#696 = CYLINDRICAL_SURFACE ( 'NONE', #525, 0.2999999999999999334 ) ;
#697 = ADVANCED_FACE ( 'NONE', ( #374 ), #391, .T. ) ;
#698 = DIRECTION ( 'NONE',  ( -1.000000000000000000, 0.0000000000000000000, 0.0000000000000000000 ) ) ;
#699 = ORIENTED_EDGE ( 'NONE', *, *, #608, .T. ) ;
#700 = LINE ( 'NONE', #554, #738 ) ;
#701 = ADVANCED_FACE ( 'NONE', ( #158 ), #696, .T. ) ;
#702 = FACE_OUTER_BOUND ( 'NONE', #889, .T. ) ;
#703 = AXIS2_PLACEMENT_3D ( 'NONE', #733, #10, #90 ) ;
#704 = ORIENTED_EDGE ( 'NONE', *, *, #534, .F. ) ;
#705 = CARTESIAN_POINT ( 'NONE',  ( -4.600000000000000533, 1.888386046723727008, 9.500000000000000000 ) ) ;
#706 = B_SPLINE_CURVE_WITH_KNOTS ( 'NONE', 3,
 ( #26, #505, #656, #341, #3, #813, #184, #899, #20, #980, #102, #262, #114, #817 ),
 .UNSPECIFIED., .F., .F.,
 ( 4, 2, 2, 2, 2, 2, 4 ),
 ( 0.0000000000000000000, 0.0003032032746623111686, 0.0006064065493246223373, 0.001212813098649244241, 0.001819219647973866144, 0.002122422922636175904, 0.002425626197298485446 ),
 .UNSPECIFIED. ) ;
#707 =( LENGTH_UNIT ( ) NAMED_UNIT ( * ) SI_UNIT ( .MILLI., .METRE. ) );
#708 = CYLINDRICAL_SURFACE ( 'NONE', #779, 0.2999999999999999334 ) ;
#709 = ORIENTED_EDGE ( 'NONE', *, *, #198, .T. ) ;
#710 = DIRECTION ( 'NONE',  ( 0.0000000000000000000, 0.0000000000000000000, -1.000000000000000000 ) ) ;
#711 = DIRECTION ( 'NONE',  ( 0.0000000000000000000, 0.0000000000000000000, 1.000000000000000000 ) ) ;
#712 = PLANE ( 'NONE',  #135 ) ;
#713 = ORIENTED_EDGE ( 'NONE', *, *, #226, .T. ) ;
#714 = VERTEX_POINT ( 'NONE', #222 ) ;
#715 = PLANE ( 'NONE',  #620 ) ;
#716 = EDGE_CURVE ( 'NONE', #80, #408, #112, .T. ) ;
#717 = CARTESIAN_POINT ( 'NONE',  ( 3.299999999999999822, 0.7000000000000000666, 9.500000000000000000 ) ) ;
#718 = LINE ( 'NONE', #874, #359 ) ;
#719 = VERTEX_POINT ( 'NONE', #155 ) ;
#720 = CYLINDRICAL_SURFACE ( 'NONE', #950, 0.2999999999999999334 ) ;
#721 = DIRECTION ( 'NONE',  ( -1.000000000000000000, 0.0000000000000000000, 0.0000000000000000000 ) ) ;
#722 = EDGE_CURVE ( 'NONE', #258, #970, #622, .T. ) ;
#723 = FACE_OUTER_BOUND ( 'NONE', #452, .T. ) ;
#724 = CIRCLE ( 'NONE', #859, 2.600000000000000089 ) ;
#725 = EDGE_LOOP ( 'NONE', ( #369, #625, #816, #499, #655, #819 ) ) ;
#726 = LINE ( 'NONE', #794, #387 ) ;
#727 = CARTESIAN_POINT ( 'NONE',  ( -2.700000000000000178, 0.2999999999999999889, 9.500000000000000000 ) ) ;
#728 = ORIENTED_EDGE ( 'NONE', *, *, #316, .F. ) ;
#729 = EDGE_CURVE ( 'NONE', #84, #490, #938, .T. ) ;
#730 = CARTESIAN_POINT ( 'NONE',  ( -4.600000000000000533, 1.000000000000000000, 9.500000000000000000 ) ) ;
#731 = ORIENTED_EDGE ( 'NONE', *, *, #456, .F. ) ;
#732 = ORIENTED_EDGE ( 'NONE', *, *, #626, .T. ) ;
#733 = CARTESIAN_POINT ( 'NONE',  ( -4.900000000000000355, 1.000000000000000000, 9.500000000000000000 ) ) ;
#734 = LINE ( 'NONE', #730, #244 ) ;
#735 = ORIENTED_EDGE ( 'NONE', *, *, #412, .F. ) ;
#736 = VECTOR ( 'NONE', #457, 1000.000000000000000 ) ;
#737 = LINE ( 'NONE', #567, #839 ) ;
#738 = VECTOR ( 'NONE', #63, 1000.000000000000000 ) ;
#739 = LINE ( 'NONE', #177, #1011 ) ;
#740 = ORIENTED_EDGE ( 'NONE', *, *, #729, .T. ) ;
#741 = CIRCLE ( 'NONE', #624, 0.2999999999999999334 ) ;
#742 = CYLINDRICAL_SURFACE ( 'NONE', #643, 2.100000000000000089 ) ;
#743 =( GEOMETRIC_REPRESENTATION_CONTEXT ( 3 ) GLOBAL_UNCERTAINTY_ASSIGNED_CONTEXT ( ( #677 ) ) GLOBAL_UNIT_ASSIGNED_CONTEXT ( ( #667, #353, #186 ) ) REPRESENTATION_CONTEXT ( 'NONE', 'WORKASPACE' ) );
#744 = CIRCLE ( 'NONE', #394, 0.2999999999999999334 ) ;
#745 = SURFACE_SIDE_STYLE ('',( #127 ) ) ;
#746 = ORIENTED_EDGE ( 'NONE', *, *, #426, .F. ) ;
#747 = DIRECTION ( 'NONE',  ( 0.0000000000000000000, 0.0000000000000000000, -1.000000000000000000 ) ) ;
#748 = DIRECTION ( 'NONE',  ( 0.0000000000000000000, -0.0000000000000000000, -1.000000000000000000 ) ) ;
#749 = EDGE_CURVE ( 'NONE', #30, #825, #613, .T. ) ;
#750 = PRESENTATION_STYLE_ASSIGNMENT (( #121 ) ) ;
#751 = EDGE_LOOP ( 'NONE', ( #1031, #75, #260, #952, #266, #849 ) ) ;
#752 = LINE ( 'NONE', #280, #1028 ) ;
#753 = VERTEX_POINT ( 'NONE', #627 ) ;
#754 = CARTESIAN_POINT ( 'NONE',  ( 3.000000000000000000, 0.2999999999999999889, 9.500000000000000000 ) ) ;
#755 = EDGE_CURVE ( 'NONE', #213, #30, #146, .T. ) ;
#756 = DIRECTION ( 'NONE',  ( 0.0000000000000000000, -0.0000000000000000000, -1.000000000000000000 ) ) ;
#757 = DIRECTION ( 'NONE',  ( -0.0000000000000000000, -1.000000000000000000, -0.0000000000000000000 ) ) ;
#758 = COLOUR_RGB ( '',0.8509803921568627194, 0.8509803921568627194, 0.8509803921568627194 ) ;
#759 = UNCERTAINTY_MEASURE_WITH_UNIT (LENGTH_MEASURE( 1.000000000000000082E-05 ), #707, 'distance_accuracy_value', 'NONE');
#760 = EDGE_CURVE ( 'NONE', #569, #206, #218, .T. ) ;
#761 = DIRECTION ( 'NONE',  ( -1.000000000000000000, 0.0000000000000000000, 0.0000000000000000000 ) ) ;
#762 = DIRECTION ( 'NONE',  ( 0.0000000000000000000, 1.000000000000000000, 0.0000000000000000000 ) ) ;
#763 = ORIENTED_EDGE ( 'NONE', *, *, #254, .F. ) ;
#764 = DIRECTION ( 'NONE',  ( 0.0000000000000000000, 1.000000000000000000, 0.0000000000000000000 ) ) ;
#765 = VERTEX_POINT ( 'NONE', #537 ) ;
#766 = DIRECTION ( 'NONE',  ( 0.0000000000000000000, 0.0000000000000000000, -1.000000000000000000 ) ) ;
#767 = ORIENTED_EDGE ( 'NONE', *, *, #220, .T. ) ;
#768 = CARTESIAN_POINT ( 'NONE',  ( -4.900000000000000355, 1.000000000000000000, 0.0000000000000000000 ) ) ;
#769 = ORIENTED_EDGE ( 'NONE', *, *, #198, .F. ) ;
#770 = FACE_OUTER_BOUND ( 'NONE', #1004, .T. ) ;
#771 = CIRCLE ( 'NONE', #820, 0.2999999999999999334 ) ;
#772 = ORIENTED_EDGE ( 'NONE', *, *, #271, .T. ) ;
#773 = DIRECTION ( 'NONE',  ( 0.0000000000000000000, 1.000000000000000000, 0.0000000000000000000 ) ) ;
#774 = VERTEX_POINT ( 'NONE', #76 ) ;
#775 = DIRECTION ( 'NONE',  ( 0.0000000000000000000, 0.0000000000000000000, -1.000000000000000000 ) ) ;
#776 = DIRECTION ( 'NONE',  ( 1.000000000000000000, 0.0000000000000000000, 0.0000000000000000000 ) ) ;
#777 = EDGE_CURVE ( 'NONE', #765, #15, #385, .T. ) ;
#778 = LINE ( 'NONE', #946, #960 ) ;
#779 = AXIS2_PLACEMENT_3D ( 'NONE', #1029, #629, #160 ) ;
#780 = ORIENTED_EDGE ( 'NONE', *, *, #777, .F. ) ;
#781 = CARTESIAN_POINT ( 'NONE',  ( 5.817072295949925454E-16, 0.5000000000000008882, 6.849999999999999645 ) ) ;
#782 = EDGE_CURVE ( 'NONE', #815, #933, #59, .T. ) ;
#783 = DIRECTION ( 'NONE',  ( -0.0000000000000000000, -0.0000000000000000000, 1.000000000000000000 ) ) ;
#784 = ORIENTED_EDGE ( 'NONE', *, *, #587, .F. ) ;
#785 = DIRECTION ( 'NONE',  ( 0.0000000000000000000, -1.000000000000000000, 0.0000000000000000000 ) ) ;
#786 = PRESENTATION_STYLE_ASSIGNMENT (( #232 ) ) ;
#787 = CYLINDRICAL_SURFACE ( 'NONE', #648, 0.2999999999999999334 ) ;
#788 = CIRCLE ( 'NONE', #686, 2.100000000000000089 ) ;
#789 = ORIENTED_EDGE ( 'NONE', *, *, #666, .T. ) ;
#790 = CARTESIAN_POINT ( 'NONE',  ( -4.900000000000000355, 1.000000000000000000, 9.500000000000000000 ) ) ;
#791 = FACE_BOUND ( 'NONE', #564, .T. ) ;
#792 = EDGE_CURVE ( 'NONE', #753, #765, #42, .T. ) ;
#793 = ORIENTED_EDGE ( 'NONE', *, *, #595, .F. ) ;
#794 = CARTESIAN_POINT ( 'NONE',  ( 3.000000000000000000, 0.2999999999999999889, 9.500000000000000000 ) ) ;
#795 = AXIS2_PLACEMENT_3D ( 'NONE', #600, #923, #747 ) ;
#796 =( NAMED_UNIT ( * ) SI_UNIT ( $, .STERADIAN. ) SOLID_ANGLE_UNIT ( ) );
#797 = PLANE ( 'NONE',  #694 ) ;
#798 = ORIENTED_EDGE ( 'NONE', *, *, #619, .T. ) ;
#799 = FACE_OUTER_BOUND ( 'NONE', #253, .T. ) ;
#800 = ADVANCED_FACE ( 'NONE', ( #770 ), #690, .F. ) ;
#801 = FACE_OUTER_BOUND ( 'NONE', #419, .T. ) ;
#802 = LINE ( 'NONE', #424, #956 ) ;
#803 = ORIENTED_EDGE ( 'NONE', *, *, #89, .T. ) ;
#804 = EDGE_LOOP ( 'NONE', ( #460, #157, #883, #704 ) ) ;
#805 = FACE_OUTER_BOUND ( 'NONE', #606, .T. ) ;
#806 = AXIS2_PLACEMENT_3D ( 'NONE', #885, #95, #879 ) ;
#807 = FACE_OUTER_BOUND ( 'NONE', #318, .T. ) ;
#808 = ADVANCED_FACE ( 'NONE', ( #303 ), #144, .T. ) ;
#809 = DIRECTION ( 'NONE',  ( -1.000000000000000000, 0.0000000000000000000, 0.0000000000000000000 ) ) ;
#810 = CIRCLE ( 'NONE', #195, 0.2999999999999999334 ) ;
#811 = VERTEX_POINT ( 'NONE', #858 ) ;
#812 = ORIENTED_EDGE ( 'NONE', *, *, #103, .F. ) ;
#813 = CARTESIAN_POINT ( 'NONE',  ( 3.030645877485549367, 4.150319559454892726, 4.349528216399707325 ) ) ;
#814 = PLANE ( 'NONE',  #609 ) ;
#815 = VERTEX_POINT ( 'NONE', #781 ) ;
#816 = ORIENTED_EDGE ( 'NONE', *, *, #920, .F. ) ;
#817 = CARTESIAN_POINT ( 'NONE',  ( 2.862697040352309763, 4.200000000000000178, 5.939523289035638420 ) ) ;
#818 = CARTESIAN_POINT ( 'NONE',  ( 3.000000000000000000, 0.7000000000000000666, 9.500000000000000000 ) ) ;
#819 = ORIENTED_EDGE ( 'NONE', *, *, #220, .F. ) ;
#820 = AXIS2_PLACEMENT_3D ( 'NONE', #969, #571, #483 ) ;
#821 = LINE ( 'NONE', #895, #25 ) ;
#822 =( NAMED_UNIT ( * ) PLANE_ANGLE_UNIT ( ) SI_UNIT ( $, .RADIAN. ) );
#823 = ORIENTED_EDGE ( 'NONE', *, *, #991, .F. ) ;
#824 = DIRECTION ( 'NONE',  ( -0.0000000000000000000, -0.0000000000000000000, 1.000000000000000000 ) ) ;
#825 = VERTEX_POINT ( 'NONE', #863 ) ;
#826 = ADVANCED_FACE ( 'NONE', ( #805 ), #715, .F. ) ;
#827 = PRESENTATION_LAYER_ASSIGNMENT (  '', '', ( #48 ) ) ;
#828 = CARTESIAN_POINT ( 'NONE',  ( -4.900000000000000355, 2.000000000000000000, 0.0000000000000000000 ) ) ;
#829 = VECTOR ( 'NONE', #869, 1000.000000000000000 ) ;
#830 = LINE ( 'NONE', #905, #995 ) ;
#831 = LINE ( 'NONE', #355, #610 ) ;
#832 = CARTESIAN_POINT ( 'NONE',  ( 3.000000000000000000, 0.7000000000000000666, 9.500000000000000000 ) ) ;
#833 = DIRECTION ( 'NONE',  ( 0.0000000000000000000, 1.000000000000000000, 0.0000000000000000000 ) ) ;
#834 = ADVANCED_FACE ( 'NONE', ( #162 ), #16, .F. ) ;
#835 = DIRECTION ( 'NONE',  ( 0.0000000000000000000, 0.0000000000000000000, 1.000000000000000000 ) ) ;
#836 = ORIENTED_EDGE ( 'NONE', *, *, #45, .T. ) ;
#837 = CARTESIAN_POINT ( 'NONE',  ( 4.600000000000000533, 1.888386046723727008, 0.0000000000000000000 ) ) ;
#838 = CARTESIAN_POINT ( 'NONE',  ( 5.817072295949925454E-16, 0.5000000000000008882, 4.749999999999999112 ) ) ;
#839 = VECTOR ( 'NONE', #886, 1000.000000000000000 ) ;
#840 = DIRECTION ( 'NONE',  ( 1.000000000000000000, 0.0000000000000000000, 0.0000000000000000000 ) ) ;
#841 = DIRECTION ( 'NONE',  ( 1.000000000000000000, 1.084202172485504750E-14, 0.0000000000000000000 ) ) ;
#842 = EDGE_LOOP ( 'NONE', ( #40, #877, #763, #217 ) ) ;
#843 = LINE ( 'NONE', #32, #163 ) ;
#844 = EDGE_LOOP ( 'NONE', ( #961, #878, #373, #136 ) ) ;
#845 = PRESENTATION_LAYER_ASSIGNMENT (  '', '', ( #646 ) ) ;
#846 = CIRCLE ( 'NONE', #430, 0.2999999999999999334 ) ;
#847 = DIRECTION ( 'NONE',  ( 0.0000000000000000000, 1.000000000000000000, 0.0000000000000000000 ) ) ;
#848 = DIRECTION ( 'NONE',  ( 1.000000000000000000, 0.0000000000000000000, 0.0000000000000000000 ) ) ;
#849 = ORIENTED_EDGE ( 'NONE', *, *, #716, .F. ) ;
#850 = CARTESIAN_POINT ( 'NONE',  ( 5.817072295949925454E-16, 0.0000000000000000000, 4.749999999999999112 ) ) ;
#851 = CARTESIAN_POINT ( 'NONE',  ( 4.900000000000000355, 1.888386046723727008, 9.500000000000000000 ) ) ;
#852 = ADVANCED_FACE ( 'NONE', ( #486 ), #963, .F. ) ;
#853 = EDGE_LOOP ( 'NONE', ( #427, #943, #683, #44 ) ) ;
#854 = DIRECTION ( 'NONE',  ( -1.000000000000000000, 0.0000000000000000000, 0.0000000000000000000 ) ) ;
#855 = STYLED_ITEM ( 'NONE', ( #786 ), #658 ) ;
#856 = CARTESIAN_POINT ( 'NONE',  ( 2.862697040352309763, 3.899999999999999911, 9.500000000000000000 ) ) ;
#857 = ORIENTED_EDGE ( 'NONE', *, *, #180, .T. ) ;
#858 = CARTESIAN_POINT ( 'NONE',  ( -2.862697040352310207, 4.200000000000000178, 5.939523289035633979 ) ) ;
#859 = AXIS2_PLACEMENT_3D ( 'NONE', #350, #833, #125 ) ;
#860 = AXIS2_PLACEMENT_3D ( 'NONE', #289, #367, #47 ) ;
#861 = CARTESIAN_POINT ( 'NONE',  ( 3.299999999999999822, 0.7000000000000000666, 0.0000000000000000000 ) ) ;
#862 = VERTEX_POINT ( 'NONE', #409 ) ;
#863 = CARTESIAN_POINT ( 'NONE',  ( 5.817072295949925454E-16, 4.200000000000000178, 7.850000000000004974 ) ) ;
#864 = DIRECTION ( 'NONE',  ( 0.0000000000000000000, -0.0000000000000000000, -1.000000000000000000 ) ) ;
#865 = ORIENTED_EDGE ( 'NONE', *, *, #570, .T. ) ;
#866 = DIRECTION ( 'NONE',  ( -1.000000000000000000, 0.0000000000000000000, 0.0000000000000000000 ) ) ;
#867 = EDGE_CURVE ( 'NONE', #634, #508, #726, .T. ) ;
#868 = AXIS2_PLACEMENT_3D ( 'NONE', #461, #149, #236 ) ;
#869 = DIRECTION ( 'NONE',  ( -0.6536198703460925907, 0.7568230077691594504, 0.0000000000000000000 ) ) ;
#870 =( GEOMETRIC_REPRESENTATION_CONTEXT ( 3 ) GLOBAL_UNCERTAINTY_ASSIGNED_CONTEXT ( ( #759 ) ) GLOBAL_UNIT_ASSIGNED_CONTEXT ( ( #707, #1026, #796 ) ) REPRESENTATION_CONTEXT ( 'NONE', 'WORKASPACE' ) );
#871 = ORIENTED_EDGE ( 'NONE', *, *, #867, .T. ) ;
#872 = ORIENTED_EDGE ( 'NONE', *, *, #619, .F. ) ;
#873 = DIRECTION ( 'NONE',  ( 0.7568230077691594504, -0.6536198703460925907, 0.0000000000000000000 ) ) ;
#874 = CARTESIAN_POINT ( 'NONE',  ( 8.388830574159367904E-16, 3.199999999999997513, 2.649999999999998579 ) ) ;
#875 = COLOUR_RGB ( '',0.7803921568627451011, 0.7607843137254901578, 0.7411764705882353255 ) ;
#876 = EDGE_CURVE ( 'NONE', #498, #53, #85, .T. ) ;
#877 = ORIENTED_EDGE ( 'NONE', *, *, #389, .F. ) ;
#878 = ORIENTED_EDGE ( 'NONE', *, *, #578, .T. ) ;
#879 = DIRECTION ( 'NONE',  ( -0.0000000000000000000, 0.0000000000000000000, -1.000000000000000000 ) ) ;
#880 = AXIS2_PLACEMENT_3D ( 'NONE', #521, #52, #594 ) ;
#881 = LINE ( 'NONE', #320, #308 ) ;
#882 = CYLINDRICAL_SURFACE ( 'NONE', #976, 2.100000000000000089 ) ;
#883 = ORIENTED_EDGE ( 'NONE', *, *, #145, .F. ) ;
#884 = ADVANCED_FACE ( 'NONE', ( #319 ), #636, .T. ) ;
#885 = CARTESIAN_POINT ( 'NONE',  ( -3.000000000000000000, 1.000000000000000000, 9.500000000000000000 ) ) ;
#886 = DIRECTION ( 'NONE',  ( 1.000000000000000000, 0.0000000000000000000, 0.0000000000000000000 ) ) ;
#887 = DIRECTION ( 'NONE',  ( 0.0000000000000000000, -0.0000000000000000000, -1.000000000000000000 ) ) ;
#888 = ORIENTED_EDGE ( 'NONE', *, *, #137, .F. ) ;
#889 = EDGE_LOOP ( 'NONE', ( #330, #527, #598, #140 ) ) ;
#890 = CARTESIAN_POINT ( 'NONE',  ( -2.862697040352310207, 4.200000000000000178, 9.500000000000000000 ) ) ;
#891 = CARTESIAN_POINT ( 'NONE',  ( 2.700000000000000178, 0.2999999999999999889, 9.500000000000000000 ) ) ;
#892 = MECHANICAL_DESIGN_GEOMETRIC_PRESENTATION_REPRESENTATION (  '', ( #48 ), #544 ) ;
#893 = EDGE_LOOP ( 'NONE', ( #968, #621, #558, #384 ) ) ;
#894 = AXIS2_PLACEMENT_3D ( 'NONE', #907, #132, #531 ) ;
#895 = CARTESIAN_POINT ( 'NONE',  ( -3.089743942683057298, 4.096085961103828055, 9.500000000000000000 ) ) ;
#896 = DIRECTION ( 'NONE',  ( 1.000000000000000000, 0.0000000000000000000, 0.0000000000000000000 ) ) ;
#897 = DIRECTION ( 'NONE',  ( 1.000000000000000000, 5.059610138265688673E-15, 0.0000000000000000000 ) ) ;
#898 = ORIENTED_EDGE ( 'NONE', *, *, #322, .T. ) ;
#899 = CARTESIAN_POINT ( 'NONE',  ( 3.041139236850928462, 4.141160491663409715, 4.950641651465927495 ) ) ;
#900 = EDGE_CURVE ( 'NONE', #30, #213, #788, .T. ) ;
#901 =( NAMED_UNIT ( * ) SI_UNIT ( $, .STERADIAN. ) SOLID_ANGLE_UNIT ( ) );
#902 = DIRECTION ( 'NONE',  ( -0.0000000000000000000, 1.000000000000000000, -0.0000000000000000000 ) ) ;
#903 = ORIENTED_EDGE ( 'NONE', *, *, #792, .T. ) ;
#904 = CARTESIAN_POINT ( 'NONE',  ( -2.901920030244133919, 4.199999999999997513, 3.654870438360926954 ) ) ;
#905 = CARTESIAN_POINT ( 'NONE',  ( 3.000000000000000000, 0.0000000000000000000, 0.0000000000000000000 ) ) ;
#906 = ORIENTED_EDGE ( 'NONE', *, *, #920, .T. ) ;
#907 = CARTESIAN_POINT ( 'NONE',  ( 5.817072295949925454E-16, 0.0000000000000000000, 4.749999999999999112 ) ) ;
#908 = ADVANCED_FACE ( 'NONE', ( #799 ), #720, .T. ) ;
#909 = DIRECTION ( 'NONE',  ( -0.6536198703460925907, -0.7568230077691594504, -0.0000000000000000000 ) ) ;
#910 = AXIS2_PLACEMENT_3D ( 'NONE', #922, #766, #761 ) ;
#911 = CARTESIAN_POINT ( 'NONE',  ( 5.817072295949925454E-16, 4.200000000000000178, 4.749999999999999112 ) ) ;
#912 = DIRECTION ( 'NONE',  ( 1.000000000000000000, 0.0000000000000000000, 0.0000000000000000000 ) ) ;
#913 = EDGE_CURVE ( 'NONE', #133, #53, #706, .T. ) ;
#914 = DIRECTION ( 'NONE',  ( 0.0000000000000000000, 0.0000000000000000000, 1.000000000000000000 ) ) ;
#915 = EDGE_LOOP ( 'NONE', ( #630, #297, #612, #784, #7, #576 ) ) ;
#916 = SURFACE_SIDE_STYLE ('',( #55 ) ) ;
#917 = CARTESIAN_POINT ( 'NONE',  ( -2.862697040352310207, 4.200000000000000178, 9.500000000000000000 ) ) ;
#918 = ORIENTED_EDGE ( 'NONE', *, *, #165, .F. ) ;
#919 = DIRECTION ( 'NONE',  ( 0.0000000000000000000, -0.0000000000000000000, -1.000000000000000000 ) ) ;
#920 = EDGE_CURVE ( 'NONE', #192, #83, #267, .T. ) ;
#921 = VECTOR ( 'NONE', #2, 1000.000000000000000 ) ;
#922 = CARTESIAN_POINT ( 'NONE',  ( -2.862697040352309763, 3.899999999999999911, 9.500000000000000000 ) ) ;
#923 = DIRECTION ( 'NONE',  ( -0.0000000000000000000, -1.000000000000000000, -0.0000000000000000000 ) ) ;
#924 = ORIENTED_EDGE ( 'NONE', *, *, #165, .T. ) ;
#925 = DIRECTION ( 'NONE',  ( -0.0000000000000000000, 1.000000000000000000, -0.0000000000000000000 ) ) ;
#926 = VECTOR ( 'NONE', #809, 1000.000000000000000 ) ;
#927 = AXIS2_PLACEMENT_3D ( 'NONE', #147, #936, #548 ) ;
#928 = CARTESIAN_POINT ( 'NONE',  ( 5.817072295949925454E-16, 0.0000000000000000000, 4.749999999999999112 ) ) ;
#929 = ORIENTED_EDGE ( 'NONE', *, *, #334, .T. ) ;
#930 = CARTESIAN_POINT ( 'NONE',  ( 3.000000000000000000, 1.000000000000000000, 9.500000000000000000 ) ) ;
#931 = ADVANCED_FACE ( 'NONE', ( #577 ), #250, .F. ) ;
#932 = FACE_OUTER_BOUND ( 'NONE', #396, .T. ) ;
#933 = VERTEX_POINT ( 'NONE', #561 ) ;
#934 = CARTESIAN_POINT ( 'NONE',  ( 3.000000000000000000, 0.0000000000000000000, 9.500000000000000000 ) ) ;
#935 = FILL_AREA_STYLE ('',( #949 ) ) ;
#936 = DIRECTION ( 'NONE',  ( 0.0000000000000000000, -0.0000000000000000000, -1.000000000000000000 ) ) ;
#937 = ORIENTED_EDGE ( 'NONE', *, *, #967, .F. ) ;
#939 = EDGE_CURVE ( 'NONE', #553, #653, #821, .T. ) ;
#938 = LINE ( 'NONE', #141, #539 ) ;
#940 = VECTOR ( 'NONE', #288, 1000.000000000000000 ) ;
#941 = MECHANICAL_DESIGN_GEOMETRIC_PRESENTATION_REPRESENTATION (  '', ( #646 ), #13 ) ;
#942 = DIRECTION ( 'NONE',  ( 0.0000000000000000000, -0.0000000000000000000, 1.000000000000000000 ) ) ;
#943 = ORIENTED_EDGE ( 'NONE', *, *, #137, .T. ) ;
#944 = DIRECTION ( 'NONE',  ( 0.0000000000000000000, 0.0000000000000000000, 1.000000000000000000 ) ) ;
#945 = EDGE_CURVE ( 'NONE', #401, #970, #771, .T. ) ;
#946 = CARTESIAN_POINT ( 'NONE',  ( -2.700000000000000178, 0.0000000000000000000, 9.500000000000000000 ) ) ;
#947 = ORIENTED_EDGE ( 'NONE', *, *, #4, .F. ) ;
#948 = CARTESIAN_POINT ( 'NONE',  ( 4.900000000000000355, 1.000000000000000000, 0.0000000000000000000 ) ) ;
#949 = FILL_AREA_STYLE_COLOUR ( '', #272 ) ;
#950 = AXIS2_PLACEMENT_3D ( 'NONE', #325, #645, #721 ) ;
#951 = DIRECTION ( 'NONE',  ( -0.0000000000000000000, 0.0000000000000000000, 1.000000000000000000 ) ) ;
#952 = ORIENTED_EDGE ( 'NONE', *, *, #322, .F. ) ;
#953 = ORIENTED_EDGE ( 'NONE', *, *, #23, .T. ) ;
#954 = CARTESIAN_POINT ( 'NONE',  ( -4.600000000000000533, 1.300000000000000044, 9.500000000000000000 ) ) ;
#955 = CARTESIAN_POINT ( 'NONE',  ( 5.817072295949925454E-16, 4.200000000000000178, 4.749999999999999112 ) ) ;
#956 = VECTOR ( 'NONE', #18, 1000.000000000000000 ) ;
#957 = VERTEX_POINT ( 'NONE', #331 ) ;
#958 = ADVANCED_FACE ( 'NONE', ( #801 ), #639, .F. ) ;
#959 = DIRECTION ( 'NONE',  ( 1.000000000000000000, 0.0000000000000000000, 0.0000000000000000000 ) ) ;
#960 = VECTOR ( 'NONE', #395, 1000.000000000000000 ) ;
#961 = ORIENTED_EDGE ( 'NONE', *, *, #666, .F. ) ;
#962 = ORIENTED_EDGE ( 'NONE', *, *, #782, .T. ) ;
#963 = PLANE ( 'NONE',  #806 ) ;
#964 = AXIS2_PLACEMENT_3D ( 'NONE', #891, #27, #400 ) ;
#965 = LINE ( 'NONE', #109, #637 ) ;
#966 = CARTESIAN_POINT ( 'NONE',  ( 0.0000000000000000000, 0.0000000000000000000, 0.0000000000000000000 ) ) ;
#967 = EDGE_CURVE ( 'NONE', #401, #774, #881, .T. ) ;
#968 = ORIENTED_EDGE ( 'NONE', *, *, #722, .T. ) ;
#969 = CARTESIAN_POINT ( 'NONE',  ( -3.299999999999999822, 0.7000000000000000666, 0.0000000000000000000 ) ) ;
#970 = VERTEX_POINT ( 'NONE', #169 ) ;
#971 = LINE ( 'NONE', #641, #926 ) ;
#972 = ORIENTED_EDGE ( 'NONE', *, *, #440, .F. ) ;
#973 = ORIENTED_EDGE ( 'NONE', *, *, #78, .F. ) ;
#974 = DIRECTION ( 'NONE',  ( -0.0000000000000000000, 0.0000000000000000000, 1.000000000000000000 ) ) ;
#975 = LINE ( 'NONE', #418, #119 ) ;
#976 = AXIS2_PLACEMENT_3D ( 'NONE', #985, #507, #835 ) ;
#977 = ORIENTED_EDGE ( 'NONE', *, *, #215, .T. ) ;
#978 = CLOSED_SHELL ( 'NONE', ( #210, #261, #523, #287, #852, #281, #800, #501, #354, #826, #304, #834, #931, #981, #174, #404, #884, #908, #73, #808, #701, #360, #509, #697, #1023, #958, #382, #650, #97 ) ) ;
#979 = CIRCLE ( 'NONE', #860, 0.2999999999999999334 ) ;
#980 = CARTESIAN_POINT ( 'NONE',  ( 2.991845923909505434, 4.171174298426384652, 5.450775356969937313 ) ) ;
#981 = ADVANCED_FACE ( 'NONE', ( #410 ), #493, .F. ) ;
#982 =( LENGTH_UNIT ( ) NAMED_UNIT ( * ) SI_UNIT ( .MILLI., .METRE. ) );
#983 = DIRECTION ( 'NONE',  ( -1.000000000000000000, 0.0000000000000000000, 0.0000000000000000000 ) ) ;
#984 = CARTESIAN_POINT ( 'NONE',  ( -2.991845923909504990, 4.171174298426381988, 4.049224643030063575 ) ) ;
#985 = CARTESIAN_POINT ( 'NONE',  ( 5.817072295949925454E-16, 0.0000000000000000000, 4.749999999999999112 ) ) ;
#986 = EDGE_CURVE ( 'NONE', #83, #1020, #671, .T. ) ;
#987 = ORIENTED_EDGE ( 'NONE', *, *, #760, .F. ) ;
#988 = CARTESIAN_POINT ( 'NONE',  ( -4.900000000000000355, 1.888386046723727008, 0.0000000000000000000 ) ) ;
#989 = AXIS2_PLACEMENT_3D ( 'NONE', #72, #298, #866 ) ;
#990 = LINE ( 'NONE', #293, #591 ) ;
#991 = EDGE_CURVE ( 'NONE', #209, #107, #256, .T. ) ;
#992 = LINE ( 'NONE', #335, #65 ) ;
#993 = ORIENTED_EDGE ( 'NONE', *, *, #876, .T. ) ;
#994 = CARTESIAN_POINT ( 'NONE',  ( -4.600000000000000533, 1.300000000000000044, 9.500000000000000000 ) ) ;
#995 = VECTOR ( 'NONE', #35, 1000.000000000000000 ) ;
#996 = DIRECTION ( 'NONE',  ( 0.0000000000000000000, -0.0000000000000000000, -1.000000000000000000 ) ) ;
#997 = VECTOR ( 'NONE', #902, 1000.000000000000000 ) ;
#998 = VECTOR ( 'NONE', #633, 1000.000000000000000 ) ;
#999 = SURFACE_STYLE_USAGE ( .BOTH. , #916 ) ;
#1000 = DIRECTION ( 'NONE',  ( 1.000000000000000000, 0.0000000000000000000, 0.0000000000000000000 ) ) ;
#1001 = CARTESIAN_POINT ( 'NONE',  ( -2.991747842435284799, 4.171224194932468876, 5.451461738207578733 ) ) ;
#1002 = PRESENTATION_STYLE_ASSIGNMENT (( #999 ) ) ;
#1003 = CARTESIAN_POINT ( 'NONE',  ( 8.388830574159367904E-16, 3.199999999999997513, 2.649999999999998579 ) ) ;
#1004 = EDGE_LOOP ( 'NONE', ( #644, #871, #116, #695 ) ) ;
#1005 = CARTESIAN_POINT ( 'NONE',  ( -3.041163647889464361, 4.141142427259844716, 4.949996809470373904 ) ) ;
#1006 = VECTOR ( 'NONE', #467, 1000.000000000000000 ) ;
#1007 =( LENGTH_UNIT ( ) NAMED_UNIT ( * ) SI_UNIT ( .MILLI., .METRE. ) );
#1008 = DIRECTION ( 'NONE',  ( -0.0000000000000000000, 0.0000000000000000000, 1.000000000000000000 ) ) ;
#1009 = VERTEX_POINT ( 'NONE', #500 ) ;
#1010 = LINE ( 'NONE', #930, #405 ) ;
#1011 = VECTOR ( 'NONE', #491, 1000.000000000000000 ) ;
#1012 = EDGE_CURVE ( 'NONE', #133, #80, #965, .T. ) ;
#1013 = CIRCLE ( 'NONE', #678, 0.2999999999999999334 ) ;
#1014 = AXIS2_PLACEMENT_3D ( 'NONE', #526, #364, #912 ) ;
#1015 = CARTESIAN_POINT ( 'NONE',  ( 3.000000000000000000, 4.200000000000000178, 9.500000000000000000 ) ) ;
#1016 = EDGE_LOOP ( 'NONE', ( #565, #154, #336, #947, #390, #660 ) ) ;
#1017 = DIRECTION ( 'NONE',  ( -1.000000000000000000, 0.0000000000000000000, 0.0000000000000000000 ) ) ;
#1018 = EDGE_CURVE ( 'NONE', #1009, #635, #737, .T. ) ;
#1019 = DIRECTION ( 'NONE',  ( 0.0000000000000000000, 0.0000000000000000000, 1.000000000000000000 ) ) ;
#1020 = VERTEX_POINT ( 'NONE', #175 ) ;
#1021 = LINE ( 'NONE', #381, #422 ) ;
#1022 = CARTESIAN_POINT ( 'NONE',  ( -2.862697040352310207, 4.200000000000000178, 9.500000000000000000 ) ) ;
#1023 = ADVANCED_FACE ( 'NONE', ( #807 ), #96, .T. ) ;
#1024 = VERTEX_POINT ( 'NONE', #194 ) ;
#1025 = DIRECTION ( 'NONE',  ( 0.0000000000000000000, -0.7071067811865484609, -0.7071067811865465735 ) ) ;
#1026 =( NAMED_UNIT ( * ) PLANE_ANGLE_UNIT ( ) SI_UNIT ( $, .RADIAN. ) );
#1027 = AXIS2_PLACEMENT_3D ( 'NONE', #838, #757, #282 ) ;
#1028 = VECTOR ( 'NONE', #433, 1000.000000000000000 ) ;
#1029 = CARTESIAN_POINT ( 'NONE',  ( -3.299999999999999822, 0.7000000000000000666, 9.500000000000000000 ) ) ;
#1030 = ORIENTED_EDGE ( 'NONE', *, *, #23, .F. ) ;
#1031 = ORIENTED_EDGE ( 'NONE', *, *, #1012, .F. ) ;
#1032 = CARTESIAN_POINT ( 'NONE',  ( 5.817072295949925454E-16, 3.199999999999997513, 6.849999999999999645 ) ) ;
#1033 = SHAPE_DEFINITION_REPRESENTATION ( #347, #658 ) ;
#1034 = CARTESIAN_POINT ( 'NONE',  ( -3.000000000000000000, 0.2999999999999999334, 9.500000000000000000 ) ) ;
ENDSEC;
END-ISO-10303-21;
