ISO-10303-21;
HEADER;
FILE_DESCRIPTION (( 'STEP AP214' ),
    '1' );
FILE_NAME ('A131 Сухарь пазовый М3, паз 6.STEP',
    '2019-09-24T09:12:27',
    ( 'Windows User' ),
    ( '' ),
    'SwSTEP 2.0',
    'SolidWorks 2019',
    '' );
FILE_SCHEMA (( 'AUTOMOTIVE_DESIGN' ));
ENDSEC;

DATA;
#1 = ORIENTED_EDGE ( 'NONE', *, *, #740, .F. ) ;
#2 = VERTEX_POINT ( 'NONE', #796 ) ;
#3 = CARTESIAN_POINT ( 'NONE',  ( 4.900000000000000355, 1.000000000000000000, 9.599999999999999645 ) ) ;
#4 = EDGE_CURVE ( 'NONE', #738, #764, #131, .T. ) ;
#5 = VERTEX_POINT ( 'NONE', #869 ) ;
#6 =( LENGTH_UNIT ( ) NAMED_UNIT ( * ) SI_UNIT ( .MILLI., .METRE. ) );
#7 = EDGE_CURVE ( 'NONE', #687, #5, #352, .T. ) ;
#8 = ORIENTED_EDGE ( 'NONE', *, *, #147, .T. ) ;
#9 = CARTESIAN_POINT ( 'NONE',  ( 3.299999999999999822, 0.7000000000000000666, 9.599999999999999645 ) ) ;
#10 = AXIS2_PLACEMENT_3D ( 'NONE', #553, #645, #783 ) ;
#11 = AXIS2_PLACEMENT_3D ( 'NONE', #161, #903, #674 ) ;
#12 = DIRECTION ( 'NONE',  ( 1.000000000000000000, 0.0000000000000000000, 0.0000000000000000000 ) ) ;
#13 = FACE_OUTER_BOUND ( 'NONE', #671, .T. ) ;
#14 = VERTEX_POINT ( 'NONE', #56 ) ;
#15 = SURFACE_STYLE_USAGE ( .BOTH. , #882 ) ;
#16 = LINE ( 'NONE', #631, #234 ) ;
#17 = DIRECTION ( 'NONE',  ( 0.0000000000000000000, -0.0000000000000000000, 1.000000000000000000 ) ) ;
#18 = ORIENTED_EDGE ( 'NONE', *, *, #662, .T. ) ;
#19 = DIRECTION ( 'NONE',  ( 1.000000000000000000, 0.0000000000000000000, 0.0000000000000000000 ) ) ;
#20 = DIRECTION ( 'NONE',  ( 0.0000000000000000000, -0.0000000000000000000, 1.000000000000000000 ) ) ;
#21 = ORIENTED_EDGE ( 'NONE', *, *, #288, .F. ) ;
#22 = DIRECTION ( 'NONE',  ( 1.000000000000000000, 0.0000000000000000000, 0.0000000000000000000 ) ) ;
#23 = VECTOR ( 'NONE', #682, 1000.000000000000000 ) ;
#24 = LINE ( 'NONE', #503, #148 ) ;
#25 = AXIS2_PLACEMENT_3D ( 'NONE', #800, #652, #753 ) ;
#26 = AXIS2_PLACEMENT_3D ( 'NONE', #151, #374, #514 ) ;
#27 = CARTESIAN_POINT ( 'NONE',  ( -3.000000000000000000, 0.2999999999999999334, 9.599999999999999645 ) ) ;
#28 = VERTEX_POINT ( 'NONE', #357 ) ;
#29 = CARTESIAN_POINT ( 'NONE',  ( 4.900000000000000355, 1.895624383210084973, 9.599999999999999645 ) ) ;
#30 = LINE ( 'NONE', #414, #436 ) ;
#31 = ORIENTED_EDGE ( 'NONE', *, *, #356, .F. ) ;
#32 = LINE ( 'NONE', #105, #291 ) ;
#33 = CARTESIAN_POINT ( 'NONE',  ( -4.600000000000000533, 1.300000000000000044, 9.599999999999999645 ) ) ;
#34 = CARTESIAN_POINT ( 'NONE',  ( 7.225416114969382221E-16, 0.0000000000000000000, 3.699999999999999289 ) ) ;
#35 = LINE ( 'NONE', #251, #878 ) ;
#36 = SURFACE_SIDE_STYLE ('',( #274 ) ) ;
#37 = ORIENTED_EDGE ( 'NONE', *, *, #379, .T. ) ;
#38 = CYLINDRICAL_SURFACE ( 'NONE', #793, 0.2999999999999999334 ) ;
#39 = CARTESIAN_POINT ( 'NONE',  ( -2.854869303374650169, 4.399999999999999467, 0.0000000000000000000 ) ) ;
#40 = EDGE_CURVE ( 'NONE', #75, #538, #603, .T. ) ;
#41 = CARTESIAN_POINT ( 'NONE',  ( 4.900000000000000355, 2.000000000000000000, 0.0000000000000000000 ) ) ;
#42 = LINE ( 'NONE', #195, #481 ) ;
#43 = VECTOR ( 'NONE', #767, 1000.000000000000000 ) ;
#44 = DIRECTION ( 'NONE',  ( 0.0000000000000000000, 1.000000000000000000, 0.0000000000000000000 ) ) ;
#45 = VECTOR ( 'NONE', #915, 1000.000000000000000 ) ;
#46 = VECTOR ( 'NONE', #408, 1000.000000000000114 ) ;
#47 = CARTESIAN_POINT ( 'NONE',  ( 4.835213747338529267, 2.081835266519753702, 9.599999999999999645 ) ) ;
#48 = EDGE_LOOP ( 'NONE', ( #892, #669 ) ) ;
#49 = DIRECTION ( 'NONE',  ( 0.0000000000000000000, 0.0000000000000000000, 1.000000000000000000 ) ) ;
#50 = DIRECTION ( 'NONE',  ( -0.0000000000000000000, -0.0000000000000000000, 1.000000000000000000 ) ) ;
#51 = SHAPE_DEFINITION_REPRESENTATION ( #679, #736 ) ;
#52 = DIRECTION ( 'NONE',  ( -0.0000000000000000000, 1.000000000000000000, -0.0000000000000000000 ) ) ;
#53 = PLANE ( 'NONE',  #150 ) ;
#54 = CARTESIAN_POINT ( 'NONE',  ( 4.600000000000000533, 1.000000000000000000, 9.599999999999999645 ) ) ;
#55 = FACE_OUTER_BOUND ( 'NONE', #307, .T. ) ;
#56 = CARTESIAN_POINT ( 'NONE',  ( -4.900000000000000355, 1.300000000000000044, 9.599999999999999645 ) ) ;
#57 = LINE ( 'NONE', #139, #320 ) ;
#58 = ORIENTED_EDGE ( 'NONE', *, *, #952, .F. ) ;
#59 = CLOSED_SHELL ( 'NONE', ( #858, #520, #492, #824, #627, #810, #684, #632, #582, #366, #700, #494, #531, #880, #723, #472, #694, #871, #162, #431, #852, #285, #647, #316, #616, #730, #947, #595 ) ) ;
#60 = PRESENTATION_LAYER_ASSIGNMENT (  '', '', ( #585 ) ) ;
#61 = ORIENTED_EDGE ( 'NONE', *, *, #548, .F. ) ;
#62 = ORIENTED_EDGE ( 'NONE', *, *, #212, .T. ) ;
#63 = DIRECTION ( 'NONE',  ( 1.000000000000000000, 0.0000000000000000000, 0.0000000000000000000 ) ) ;
#64 = ORIENTED_EDGE ( 'NONE', *, *, #207, .T. ) ;
#65 = EDGE_CURVE ( 'NONE', #808, #462, #946, .T. ) ;
#66 = ORIENTED_EDGE ( 'NONE', *, *, #77, .F. ) ;
#67 = EDGE_CURVE ( 'NONE', #253, #744, #693, .T. ) ;
#68 = AXIS2_PLACEMENT_3D ( 'NONE', #752, #913, #480 ) ;
#69 = AXIS2_PLACEMENT_3D ( 'NONE', #192, #479, #187 ) ;
#70 = MECHANICAL_DESIGN_GEOMETRIC_PRESENTATION_REPRESENTATION (  '', ( #585 ), #743 ) ;
#71 = EDGE_CURVE ( 'NONE', #636, #237, #625, .T. ) ;
#72 = ORIENTED_EDGE ( 'NONE', *, *, #212, .F. ) ;
#73 = ORIENTED_EDGE ( 'NONE', *, *, #770, .F. ) ;
#74 = DIRECTION ( 'NONE',  ( 0.0000000000000000000, -0.0000000000000000000, 1.000000000000000000 ) ) ;
#75 = VERTEX_POINT ( 'NONE', #247 ) ;
#76 = CARTESIAN_POINT ( 'NONE',  ( 3.000000000000000000, 4.399999999999999467, 9.599999999999999645 ) ) ;
#77 = EDGE_CURVE ( 'NONE', #28, #303, #386, .T. ) ;
#78 = ORIENTED_EDGE ( 'NONE', *, *, #611, .F. ) ;
#79 = DIRECTION ( 'NONE',  ( -0.0000000000000000000, -0.0000000000000000000, 1.000000000000000000 ) ) ;
#80 = ORIENTED_EDGE ( 'NONE', *, *, #7, .F. ) ;
#81 = DIRECTION ( 'NONE',  ( -0.0000000000000000000, -1.000000000000000000, -0.0000000000000000000 ) ) ;
#82 = DIRECTION ( 'NONE',  ( 0.0000000000000000000, 0.7071067811865464625, 0.7071067811865486830 ) ) ;
#83 = APPLICATION_CONTEXT ( 'automotive_design' ) ;
#84 = CIRCLE ( 'NONE', #923, 0.2999999999999999334 ) ;
#85 = DIRECTION ( 'NONE',  ( 0.0000000000000000000, 0.0000000000000000000, -1.000000000000000000 ) ) ;
#86 = CONICAL_SURFACE ( 'NONE', #867, 1.600000000000000755, 0.7853981633974487231 ) ;
#87 = VERTEX_POINT ( 'NONE', #609 ) ;
#88 = DIRECTION ( 'NONE',  ( 0.0000000000000000000, 0.0000000000000000000, 1.000000000000000000 ) ) ;
#89 = DIRECTION ( 'NONE',  ( -0.0000000000000000000, -1.000000000000000000, -0.0000000000000000000 ) ) ;
#90 = EDGE_CURVE ( 'NONE', #327, #5, #84, .T. ) ;
#91 = DIRECTION ( 'NONE',  ( -0.0000000000000000000, -0.0000000000000000000, 1.000000000000000000 ) ) ;
#92 = LINE ( 'NONE', #829, #877 ) ;
#93 = DIRECTION ( 'NONE',  ( 0.6207029443655612821, 0.7840458244617611872, 0.0000000000000000000 ) ) ;
#94 = EDGE_CURVE ( 'NONE', #377, #389, #840, .T. ) ;
#95 = CARTESIAN_POINT ( 'NONE',  ( 7.225416114969382221E-16, 3.900000000000002132, 3.699999999999999289 ) ) ;
#96 = FILL_AREA_STYLE_COLOUR ( '', #404 ) ;
#97 = DIRECTION ( 'NONE',  ( -0.6207029443655612821, -0.7840458244617611872, -0.0000000000000000000 ) ) ;
#98 = ORIENTED_EDGE ( 'NONE', *, *, #40, .T. ) ;
#99 = DIRECTION ( 'NONE',  ( 0.0000000000000000000, -0.7071067811865472397, -0.7071067811865479058 ) ) ;
#100 = COLOUR_RGB ( '',0.7921568627450980005, 0.8196078431372548767, 0.9333333333333333481 ) ;
#101 = CARTESIAN_POINT ( 'NONE',  ( 5.878304635907294211E-16, 3.900000000000002132, 4.799999999999999822 ) ) ;
#102 = VECTOR ( 'NONE', #570, 999.9999999999998863 ) ;
#103 = SURFACE_STYLE_USAGE ( .BOTH. , #36 ) ;
#104 = CIRCLE ( 'NONE', #879, 0.2999999999999999334 ) ;
#105 = CARTESIAN_POINT ( 'NONE',  ( -3.000000000000000000, 1.000000000000000000, 0.0000000000000000000 ) ) ;
#106 = DIRECTION ( 'NONE',  ( 1.000000000000000000, -8.673617379884037050E-15, 0.0000000000000000000 ) ) ;
#107 = ORIENTED_EDGE ( 'NONE', *, *, #122, .T. ) ;
#108 = CARTESIAN_POINT ( 'NONE',  ( -3.000000000000000000, 0.2999999999999999334, 9.599999999999999645 ) ) ;
#109 = FACE_OUTER_BOUND ( 'NONE', #944, .T. ) ;
#110 = ORIENTED_EDGE ( 'NONE', *, *, #248, .F. ) ;
#111 = CARTESIAN_POINT ( 'NONE',  ( -4.900000000000000355, 1.000000000000000000, 9.599999999999999645 ) ) ;
#112 = CYLINDRICAL_SURFACE ( 'NONE', #886, 1.100000000000000311 ) ;
#113 = VERTEX_POINT ( 'NONE', #820 ) ;
#114 = LINE ( 'NONE', #413, #423 ) ;
#115 = LINE ( 'NONE', #771, #865 ) ;
#116 = APPLICATION_PROTOCOL_DEFINITION ( 'draft international standard', 'automotive_design', 1998, #737 ) ;
#117 = DIRECTION ( 'NONE',  ( 0.0000000000000000000, -1.000000000000000000, 0.0000000000000000000 ) ) ;
#118 = ORIENTED_EDGE ( 'NONE', *, *, #770, .T. ) ;
#119 = CARTESIAN_POINT ( 'NONE',  ( 4.900000000000000355, 1.300000000000000044, 9.599999999999999645 ) ) ;
#120 = DIRECTION ( 'NONE',  ( 0.0000000000000000000, 0.0000000000000000000, -1.000000000000000000 ) ) ;
#121 = ORIENTED_EDGE ( 'NONE', *, *, #548, .T. ) ;
#122 = EDGE_CURVE ( 'NONE', #441, #186, #461, .T. ) ;
#123 = VECTOR ( 'NONE', #875, 1000.000000000000000 ) ;
#124 = FACE_OUTER_BOUND ( 'NONE', #349, .T. ) ;
#125 = ORIENTED_EDGE ( 'NONE', *, *, #487, .F. ) ;
#126 = VERTEX_POINT ( 'NONE', #163 ) ;
#127 = AXIS2_PLACEMENT_3D ( 'NONE', #477, #769, #564 ) ;
#128 = FILL_AREA_STYLE_COLOUR ( '', #100 ) ;
#129 = LINE ( 'NONE', #41, #211 ) ;
#130 = EDGE_CURVE ( 'NONE', #341, #538, #92, .T. ) ;
#131 = LINE ( 'NONE', #54, #383 ) ;
#132 = ORIENTED_EDGE ( 'NONE', *, *, #4, .F. ) ;
#133 = DIRECTION ( 'NONE',  ( 0.0000000000000000000, 0.0000000000000000000, -1.000000000000000000 ) ) ;
#134 = CARTESIAN_POINT ( 'NONE',  ( 4.900000000000000355, 1.000000000000000000, 0.0000000000000000000 ) ) ;
#135 = DIRECTION ( 'NONE',  ( 0.0000000000000000000, 0.0000000000000000000, -1.000000000000000000 ) ) ;
#136 = ORIENTED_EDGE ( 'NONE', *, *, #668, .F. ) ;
#137 = EDGE_LOOP ( 'NONE', ( #157, #443, #218, #429 ) ) ;
#138 = ORIENTED_EDGE ( 'NONE', *, *, #323, .F. ) ;
#139 = CARTESIAN_POINT ( 'NONE',  ( 3.000000000000000000, 0.7000000000000000666, 9.599999999999999645 ) ) ;
#140 = EDGE_CURVE ( 'NONE', #14, #587, #664, .T. ) ;
#141 = AXIS2_PLACEMENT_3D ( 'NONE', #101, #842, #568 ) ;
#142 =( GEOMETRIC_REPRESENTATION_CONTEXT ( 3 ) GLOBAL_UNCERTAINTY_ASSIGNED_CONTEXT ( ( #507 ) ) GLOBAL_UNIT_ASSIGNED_CONTEXT ( ( #857, #269, #721 ) ) REPRESENTATION_CONTEXT ( 'NONE', 'WORKASPACE' ) );
#143 = VECTOR ( 'NONE', #331, 1000.000000000000000 ) ;
#144 = EDGE_LOOP ( 'NONE', ( #908, #439, #811, #772 ) ) ;
#145 = ORIENTED_EDGE ( 'NONE', *, *, #740, .T. ) ;
#146 = EDGE_CURVE ( 'NONE', #303, #261, #639, .T. ) ;
#147 = EDGE_CURVE ( 'NONE', #744, #208, #673, .T. ) ;
#148 = VECTOR ( 'NONE', #491, 1000.000000000000000 ) ;
#149 = ORIENTED_EDGE ( 'NONE', *, *, #71, .F. ) ;
#150 = AXIS2_PLACEMENT_3D ( 'NONE', #579, #198, #272 ) ;
#151 = CARTESIAN_POINT ( 'NONE',  ( 5.878304635907294211E-16, 4.399999999999999467, 4.799999999999999822 ) ) ;
#152 = EDGE_CURVE ( 'NONE', #441, #279, #280, .T. ) ;
#153 = STYLED_ITEM ( 'NONE', ( #698 ), #736 ) ;
#154 = DIRECTION ( 'NONE',  ( 1.000000000000000000, 0.0000000000000000000, 0.0000000000000000000 ) ) ;
#155 = ORIENTED_EDGE ( 'NONE', *, *, #598, .F. ) ;
#156 = CYLINDRICAL_SURFACE ( 'NONE', #542, 0.2999999999999999334 ) ;
#157 = ORIENTED_EDGE ( 'NONE', *, *, #803, .T. ) ;
#158 = CARTESIAN_POINT ( 'NONE',  ( 2.700000000000000178, 0.0000000000000000000, 0.0000000000000000000 ) ) ;
#159 = DIRECTION ( 'NONE',  ( -1.000000000000000000, 0.0000000000000000000, 0.0000000000000000000 ) ) ;
#160 = PLANE ( 'NONE',  #449 ) ;
#161 = CARTESIAN_POINT ( 'NONE',  ( 5.878304635907294211E-16, 0.0000000000000000000, 4.799999999999999822 ) ) ;
#162 = ADVANCED_FACE ( 'NONE', ( #555 ), #701, .T. ) ;
#163 = CARTESIAN_POINT ( 'NONE',  ( 3.090083050713178903, 4.286210883309668596, 0.0000000000000000000 ) ) ;
#164 = VECTOR ( 'NONE', #543, 1000.000000000000000 ) ;
#165 = FACE_OUTER_BOUND ( 'NONE', #862, .T. ) ;
#166 = AXIS2_PLACEMENT_3D ( 'NONE', #322, #642, #856 ) ;
#167 = VECTOR ( 'NONE', #755, 1000.000000000000000 ) ;
#168 = CARTESIAN_POINT ( 'NONE',  ( 0.0000000000000000000, 0.0000000000000000000, 9.599999999999999645 ) ) ;
#169 = EDGE_CURVE ( 'NONE', #512, #126, #948, .T. ) ;
#170 = CARTESIAN_POINT ( 'NONE',  ( 3.000000000000000000, 0.0000000000000000000, 0.0000000000000000000 ) ) ;
#171 = ORIENTED_EDGE ( 'NONE', *, *, #169, .F. ) ;
#172 = CARTESIAN_POINT ( 'NONE',  ( 3.000000000000000000, 1.000000000000000000, 9.599999999999999645 ) ) ;
#173 = CYLINDRICAL_SURFACE ( 'NONE', #342, 0.2999999999999999334 ) ;
#174 = CARTESIAN_POINT ( 'NONE',  ( -4.835213747338529267, 2.081835266519753702, 0.0000000000000000000 ) ) ;
#175 = DIRECTION ( 'NONE',  ( 1.000000000000000000, 0.0000000000000000000, 0.0000000000000000000 ) ) ;
#176 = CARTESIAN_POINT ( 'NONE',  ( 2.854869303374650169, 4.399999999999999467, 9.599999999999999645 ) ) ;
#177 = VERTEX_POINT ( 'NONE', #762 ) ;
#178 = LINE ( 'NONE', #726, #102 ) ;
#179 = CARTESIAN_POINT ( 'NONE',  ( 2.700000000000000178, 0.0000000000000000000, 9.599999999999999645 ) ) ;
#180 = VERTEX_POINT ( 'NONE', #825 ) ;
#181 = LINE ( 'NONE', #696, #292 ) ;
#182 = EDGE_CURVE ( 'NONE', #937, #801, #395, .T. ) ;
#183 = VECTOR ( 'NONE', #329, 1000.000000000000000 ) ;
#184 = DIRECTION ( 'NONE',  ( -0.0000000000000000000, 1.000000000000000000, -0.0000000000000000000 ) ) ;
#185 = CIRCLE ( 'NONE', #924, 0.2999999999999999334 ) ;
#186 = VERTEX_POINT ( 'NONE', #174 ) ;
#187 = DIRECTION ( 'NONE',  ( 1.000000000000000000, 0.0000000000000000000, 0.0000000000000000000 ) ) ;
#188 = LINE ( 'NONE', #489, #337 ) ;
#189 = DIRECTION ( 'NONE',  ( 1.000000000000000000, 0.0000000000000000000, 0.0000000000000000000 ) ) ;
#190 = FACE_BOUND ( 'NONE', #620, .T. ) ;
#191 = ORIENTED_EDGE ( 'NONE', *, *, #677, .F. ) ;
#192 = CARTESIAN_POINT ( 'NONE',  ( 4.600000000000000533, 1.300000000000000044, 0.0000000000000000000 ) ) ;
#193 = ORIENTED_EDGE ( 'NONE', *, *, #65, .F. ) ;
#194 = CARTESIAN_POINT ( 'NONE',  ( 4.835213747338529267, 2.081835266519753702, 9.599999999999999645 ) ) ;
#195 = CARTESIAN_POINT ( 'NONE',  ( -3.000000000000000000, 0.0000000000000000000, 9.599999999999999645 ) ) ;
#196 = CARTESIAN_POINT ( 'NONE',  ( 0.0000000000000000000, 0.0000000000000000000, 0.0000000000000000000 ) ) ;
#197 = LINE ( 'NONE', #932, #715 ) ;
#198 = DIRECTION ( 'NONE',  ( 1.000000000000000000, 0.0000000000000000000, -0.0000000000000000000 ) ) ;
#199 = CARTESIAN_POINT ( 'NONE',  ( 4.900000000000000355, 2.000000000000000000, 9.599999999999999645 ) ) ;
#200 = EDGE_LOOP ( 'NONE', ( #552, #536, #817, #660 ) ) ;
#201 = AXIS2_PLACEMENT_3D ( 'NONE', #111, #699, #133 ) ;
#202 = DIRECTION ( 'NONE',  ( -0.0000000000000000000, -0.0000000000000000000, 1.000000000000000000 ) ) ;
#203 = PLANE ( 'NONE',  #828 ) ;
#204 = CARTESIAN_POINT ( 'NONE',  ( -4.600000000000000533, 1.300000000000000044, 0.0000000000000000000 ) ) ;
#205 = CARTESIAN_POINT ( 'NONE',  ( -4.900000000000000355, 1.000000000000000000, 9.599999999999999645 ) ) ;
#206 = ORIENTED_EDGE ( 'NONE', *, *, #600, .F. ) ;
#207 = EDGE_CURVE ( 'NONE', #261, #2, #314, .T. ) ;
#208 = VERTEX_POINT ( 'NONE', #618 ) ;
#209 = AXIS2_PLACEMENT_3D ( 'NONE', #407, #466, #899 ) ;
#210 = VECTOR ( 'NONE', #709, 1000.000000000000114 ) ;
#211 = VECTOR ( 'NONE', #425, 1000.000000000000114 ) ;
#212 = EDGE_CURVE ( 'NONE', #237, #499, #16, .T. ) ;
#213 = CARTESIAN_POINT ( 'NONE',  ( 3.000000000000000000, 0.2999999999999999889, 9.599999999999999645 ) ) ;
#214 = LINE ( 'NONE', #540, #666 ) ;
#215 = STYLED_ITEM ( 'NONE', ( #411 ), #285 ) ;
#216 = AXIS2_PLACEMENT_3D ( 'NONE', #586, #135, #235 ) ;
#217 = ORIENTED_EDGE ( 'NONE', *, *, #182, .F. ) ;
#218 = ORIENTED_EDGE ( 'NONE', *, *, #398, .F. ) ;
#219 = VECTOR ( 'NONE', #779, 1000.000000000000000 ) ;
#220 = ORIENTED_EDGE ( 'NONE', *, *, #659, .T. ) ;
#221 = DIRECTION ( 'NONE',  ( -1.000000000000000000, 0.0000000000000000000, 0.0000000000000000000 ) ) ;
#222 = ORIENTED_EDGE ( 'NONE', *, *, #309, .T. ) ;
#223 =( LENGTH_UNIT ( ) NAMED_UNIT ( * ) SI_UNIT ( .MILLI., .METRE. ) );
#224 = ORIENTED_EDGE ( 'NONE', *, *, #140, .F. ) ;
#225 = CARTESIAN_POINT ( 'NONE',  ( -3.000000000000000000, 0.0000000000000000000, 9.599999999999999645 ) ) ;
#226 = CARTESIAN_POINT ( 'NONE',  ( -2.854869303374650613, 4.099999999999999645, 9.599999999999999645 ) ) ;
#227 = ORIENTED_EDGE ( 'NONE', *, *, #363, .T. ) ;
#228 = DIRECTION ( 'NONE',  ( 0.0000000000000000000, -0.0000000000000000000, -1.000000000000000000 ) ) ;
#229 = FACE_OUTER_BOUND ( 'NONE', #427, .T. ) ;
#230 = ORIENTED_EDGE ( 'NONE', *, *, #952, .T. ) ;
#231 = DIRECTION ( 'NONE',  ( -0.0000000000000000000, 0.0000000000000000000, 1.000000000000000000 ) ) ;
#232 = DIRECTION ( 'NONE',  ( 0.0000000000000000000, 0.0000000000000000000, -1.000000000000000000 ) ) ;
#233 = ORIENTED_EDGE ( 'NONE', *, *, #152, .F. ) ;
#234 = VECTOR ( 'NONE', #82, 999.9999999999998863 ) ;
#235 = DIRECTION ( 'NONE',  ( -1.000000000000000000, 0.0000000000000000000, 0.0000000000000000000 ) ) ;
#236 = VECTOR ( 'NONE', #608, 1000.000000000000000 ) ;
#237 = VERTEX_POINT ( 'NONE', #918 ) ;
#238 = AXIS2_PLACEMENT_3D ( 'NONE', #523, #231, #154 ) ;
#239 = DIRECTION ( 'NONE',  ( 0.0000000000000000000, 0.0000000000000000000, -1.000000000000000000 ) ) ;
#240 = LINE ( 'NONE', #549, #653 ) ;
#241 = ORIENTED_EDGE ( 'NONE', *, *, #751, .T. ) ;
#242 = PLANE ( 'NONE',  #656 ) ;
#243 = EDGE_CURVE ( 'NONE', #452, #87, #435, .T. ) ;
#244 = CARTESIAN_POINT ( 'NONE',  ( -2.700000000000000178, 0.0000000000000000000, 0.0000000000000000000 ) ) ;
#245 = ORIENTED_EDGE ( 'NONE', *, *, #611, .T. ) ;
#246 = SURFACE_STYLE_FILL_AREA ( #637 ) ;
#247 = CARTESIAN_POINT ( 'NONE',  ( -4.600000000000000533, 1.000000000000000000, 0.0000000000000000000 ) ) ;
#248 = EDGE_CURVE ( 'NONE', #919, #14, #240, .T. ) ;
#249 = VERTEX_POINT ( 'NONE', #706 ) ;
#250 = CARTESIAN_POINT ( 'NONE',  ( 4.600000000000000533, 1.000000000000000000, 9.599999999999999645 ) ) ;
#251 = CARTESIAN_POINT ( 'NONE',  ( -3.090083050713178903, 4.286210883309668596, 9.599999999999999645 ) ) ;
#252 = FILL_AREA_STYLE_COLOUR ( '', #942 ) ;
#253 = VERTEX_POINT ( 'NONE', #495 ) ;
#254 = LINE ( 'NONE', #710, #665 ) ;
#255 = FACE_OUTER_BOUND ( 'NONE', #646, .T. ) ;
#256 = ORIENTED_EDGE ( 'NONE', *, *, #803, .F. ) ;
#257 = CARTESIAN_POINT ( 'NONE',  ( 3.299999999999999822, 1.000000000000000000, 0.0000000000000000000 ) ) ;
#258 = VECTOR ( 'NONE', #727, 1000.000000000000000 ) ;
#259 = DIRECTION ( 'NONE',  ( 0.0000000000000000000, -0.0000000000000000000, -1.000000000000000000 ) ) ;
#260 = MECHANICAL_DESIGN_GEOMETRIC_PRESENTATION_REPRESENTATION (  '', ( #775 ), #142 ) ;
#261 = VERTEX_POINT ( 'NONE', #271 ) ;
#262 = AXIS2_PLACEMENT_3D ( 'NONE', #678, #85, #394 ) ;
#263 = CARTESIAN_POINT ( 'NONE',  ( 5.878304635907294211E-16, 0.0000000000000000000, 4.799999999999999822 ) ) ;
#264 = FACE_OUTER_BOUND ( 'NONE', #832, .T. ) ;
#265 = VERTEX_POINT ( 'NONE', #712 ) ;
#266 = CARTESIAN_POINT ( 'NONE',  ( 2.700000000000000178, 0.2999999999999999889, 0.0000000000000000000 ) ) ;
#267 = ORIENTED_EDGE ( 'NONE', *, *, #541, .T. ) ;
#268 = EDGE_CURVE ( 'NONE', #249, #830, #594, .T. ) ;
#269 =( NAMED_UNIT ( * ) PLANE_ANGLE_UNIT ( ) SI_UNIT ( $, .RADIAN. ) );
#270 = ORIENTED_EDGE ( 'NONE', *, *, #460, .T. ) ;
#271 = CARTESIAN_POINT ( 'NONE',  ( -3.000000000000000000, 0.7000000000000000666, 9.599999999999999645 ) ) ;
#272 = DIRECTION ( 'NONE',  ( -0.0000000000000000000, 0.0000000000000000000, -1.000000000000000000 ) ) ;
#273 = LINE ( 'NONE', #580, #465 ) ;
#274 = SURFACE_STYLE_FILL_AREA ( #720 ) ;
#275 = ORIENTED_EDGE ( 'NONE', *, *, #71, .T. ) ;
#276 = UNCERTAINTY_MEASURE_WITH_UNIT (LENGTH_MEASURE( 1.000000000000000082E-05 ), #786, 'distance_accuracy_value', 'NONE');
#277 = FACE_OUTER_BOUND ( 'NONE', #911, .T. ) ;
#278 = EDGE_CURVE ( 'NONE', #75, #28, #188, .T. ) ;
#279 = VERTEX_POINT ( 'NONE', #39 ) ;
#280 = CIRCLE ( 'NONE', #773, 0.2999999999999999334 ) ;
#281 = FACE_OUTER_BOUND ( 'NONE', #529, .T. ) ;
#282 = CONICAL_SURFACE ( 'NONE', #868, 1.100000000000000311, 0.7853981633974498333 ) ;
#283 = ORIENTED_EDGE ( 'NONE', *, *, #140, .T. ) ;
#284 = VERTEX_POINT ( 'NONE', #47 ) ;
#285 = ADVANCED_FACE ( 'NONE', ( #255 ), #112, .F. ) ;
#286 = CARTESIAN_POINT ( 'NONE',  ( 2.700000000000000178, 0.2999999999999999889, 9.599999999999999645 ) ) ;
#287 = ORIENTED_EDGE ( 'NONE', *, *, #152, .T. ) ;
#288 = EDGE_CURVE ( 'NONE', #340, #237, #741, .T. ) ;
#289 = CARTESIAN_POINT ( 'NONE',  ( 4.900000000000000355, 1.000000000000000000, 9.599999999999999645 ) ) ;
#290 = PRESENTATION_LAYER_ASSIGNMENT (  '', '', ( #215 ) ) ;
#291 = VECTOR ( 'NONE', #328, 1000.000000000000000 ) ;
#292 = VECTOR ( 'NONE', #914, 1000.000000000000000 ) ;
#293 = EDGE_CURVE ( 'NONE', #377, #937, #902, .T. ) ;
#294 = CARTESIAN_POINT ( 'NONE',  ( 3.090083050713178903, 4.286210883309668596, 9.599999999999999645 ) ) ;
#295 = ORIENTED_EDGE ( 'NONE', *, *, #207, .F. ) ;
#296 = ORIENTED_EDGE ( 'NONE', *, *, #518, .T. ) ;
#297 = DIRECTION ( 'NONE',  ( 0.0000000000000000000, 0.0000000000000000000, -1.000000000000000000 ) ) ;
#298 = AXIS2_PLACEMENT_3D ( 'NONE', #777, #401, #106 ) ;
#299 = AXIS2_PLACEMENT_3D ( 'NONE', #556, #539, #388 ) ;
#300 = ORIENTED_EDGE ( 'NONE', *, *, #77, .T. ) ;
#301 = VERTEX_POINT ( 'NONE', #409 ) ;
#302 = EDGE_CURVE ( 'NONE', #208, #801, #42, .T. ) ;
#303 = VERTEX_POINT ( 'NONE', #922 ) ;
#304 = DIRECTION ( 'NONE',  ( 1.000000000000000000, 0.0000000000000000000, 0.0000000000000000000 ) ) ;
#305 =( NAMED_UNIT ( * ) PLANE_ANGLE_UNIT ( ) SI_UNIT ( $, .RADIAN. ) );
#306 = DIRECTION ( 'NONE',  ( 1.000000000000000000, 2.891205793294679017E-15, 0.0000000000000000000 ) ) ;
#307 = EDGE_LOOP ( 'NONE', ( #21, #451, #155, #72 ) ) ;
#308 = CARTESIAN_POINT ( 'NONE',  ( -4.900000000000000355, 2.000000000000000000, 9.599999999999999645 ) ) ;
#309 = EDGE_CURVE ( 'NONE', #538, #14, #115, .T. ) ;
#310 = ORIENTED_EDGE ( 'NONE', *, *, #442, .F. ) ;
#311 = DIRECTION ( 'NONE',  ( 0.0000000000000000000, -0.0000000000000000000, -1.000000000000000000 ) ) ;
#312 = DIRECTION ( 'NONE',  ( 1.000000000000000000, 0.0000000000000000000, 0.0000000000000000000 ) ) ;
#313 = DIRECTION ( 'NONE',  ( -1.000000000000000000, 0.0000000000000000000, 0.0000000000000000000 ) ) ;
#314 = LINE ( 'NONE', #686, #23 ) ;
#315 = VECTOR ( 'NONE', #97, 1000.000000000000114 ) ;
#316 = ADVANCED_FACE ( 'NONE', ( #574 ), #399, .T. ) ;
#317 = ORIENTED_EDGE ( 'NONE', *, *, #659, .F. ) ;
#318 = AXIS2_PLACEMENT_3D ( 'NONE', #789, #634, #120 ) ;
#319 = DIRECTION ( 'NONE',  ( -0.0000000000000000000, 0.0000000000000000000, 1.000000000000000000 ) ) ;
#320 = VECTOR ( 'NONE', #79, 1000.000000000000000 ) ;
#321 = EDGE_LOOP ( 'NONE', ( #382, #953, #58, #589 ) ) ;
#322 = CARTESIAN_POINT ( 'NONE',  ( 3.000000000000000000, 4.399999999999999467, 9.599999999999999645 ) ) ;
#323 = EDGE_CURVE ( 'NONE', #237, #340, #446, .T. ) ;
#324 = DIRECTION ( 'NONE',  ( -0.0000000000000000000, -0.0000000000000000000, 1.000000000000000000 ) ) ;
#325 = CARTESIAN_POINT ( 'NONE',  ( 4.900000000000000355, 1.300000000000000044, 0.0000000000000000000 ) ) ;
#326 = CARTESIAN_POINT ( 'NONE',  ( -2.700000000000000178, 0.2999999999999999889, 9.599999999999999645 ) ) ;
#327 = VERTEX_POINT ( 'NONE', #478 ) ;
#328 = DIRECTION ( 'NONE',  ( 0.0000000000000000000, -1.000000000000000000, 0.0000000000000000000 ) ) ;
#329 = DIRECTION ( 'NONE',  ( 0.0000000000000000000, 1.000000000000000000, 0.0000000000000000000 ) ) ;
#330 = EDGE_LOOP ( 'NONE', ( #296, #876, #872, #64 ) ) ;
#331 = DIRECTION ( 'NONE',  ( -0.0000000000000000000, 1.000000000000000000, -0.0000000000000000000 ) ) ;
#332 = DIRECTION ( 'NONE',  ( 0.0000000000000000000, 0.0000000000000000000, 1.000000000000000000 ) ) ;
#333 = ORIENTED_EDGE ( 'NONE', *, *, #346, .F. ) ;
#334 = CARTESIAN_POINT ( 'NONE',  ( 4.600000000000000533, 1.300000000000000044, 9.599999999999999645 ) ) ;
#335 = EDGE_CURVE ( 'NONE', #402, #937, #24, .T. ) ;
#336 = ORIENTED_EDGE ( 'NONE', *, *, #293, .F. ) ;
#337 = VECTOR ( 'NONE', #643, 1000.000000000000000 ) ;
#338 = LINE ( 'NONE', #199, #210 ) ;
#339 = CONICAL_SURFACE ( 'NONE', #517, 1.100000000000000311, 0.7853981633974498333 ) ;
#340 = VERTEX_POINT ( 'NONE', #95 ) ;
#341 = VERTEX_POINT ( 'NONE', #405 ) ;
#342 = AXIS2_PLACEMENT_3D ( 'NONE', #226, #239, #313 ) ;
#343 = DIRECTION ( 'NONE',  ( 0.0000000000000000000, 0.0000000000000000000, 1.000000000000000000 ) ) ;
#344 = SURFACE_STYLE_FILL_AREA ( #560 ) ;
#345 = LINE ( 'NONE', #782, #889 ) ;
#346 = EDGE_CURVE ( 'NONE', #636, #249, #486, .T. ) ;
#347 = PLANE ( 'NONE',  #166 ) ;
#348 = DIRECTION ( 'NONE',  ( 1.000000000000000000, 0.0000000000000000000, 0.0000000000000000000 ) ) ;
#349 = EDGE_LOOP ( 'NONE', ( #224, #680, #851, #31 ) ) ;
#350 = DIRECTION ( 'NONE',  ( 0.0000000000000000000, 0.0000000000000000000, -1.000000000000000000 ) ) ;
#351 = DIRECTION ( 'NONE',  ( 1.000000000000000000, 0.0000000000000000000, 0.0000000000000000000 ) ) ;
#352 = LINE ( 'NONE', #134, #258 ) ;
#353 = ORIENTED_EDGE ( 'NONE', *, *, #833, .F. ) ;
#354 = CYLINDRICAL_SURFACE ( 'NONE', #216, 0.2999999999999999334 ) ;
#355 = ORIENTED_EDGE ( 'NONE', *, *, #766, .F. ) ;
#356 = EDGE_CURVE ( 'NONE', #587, #75, #719, .T. ) ;
#357 = CARTESIAN_POINT ( 'NONE',  ( -3.299999999999999822, 1.000000000000000000, 0.0000000000000000000 ) ) ;
#358 = EDGE_LOOP ( 'NONE', ( #874, #220, #193, #725 ) ) ;
#359 = MECHANICAL_DESIGN_GEOMETRIC_PRESENTATION_REPRESENTATION (  '', ( #215 ), #368 ) ;
#360 = VECTOR ( 'NONE', #91, 1000.000000000000000 ) ;
#361 = LINE ( 'NONE', #453, #236 ) ;
#362 = CIRCLE ( 'NONE', #756, 1.100000000000000311 ) ;
#363 = EDGE_CURVE ( 'NONE', #177, #441, #35, .T. ) ;
#364 = ORIENTED_EDGE ( 'NONE', *, *, #268, .F. ) ;
#365 = FACE_OUTER_BOUND ( 'NONE', #200, .T. ) ;
#366 = ADVANCED_FACE ( 'NONE', ( #190, #928 ), #347, .F. ) ;
#367 = ORIENTED_EDGE ( 'NONE', *, *, #278, .F. ) ;
#368 =( GEOMETRIC_REPRESENTATION_CONTEXT ( 3 ) GLOBAL_UNCERTAINTY_ASSIGNED_CONTEXT ( ( #276 ) ) GLOBAL_UNIT_ASSIGNED_CONTEXT ( ( #786, #416, #424 ) ) REPRESENTATION_CONTEXT ( 'NONE', 'WORKASPACE' ) );
#369 = VECTOR ( 'NONE', #297, 1000.000000000000000 ) ;
#370 = CIRCLE ( 'NONE', #468, 1.100000000000000311 ) ;
#371 = EDGE_CURVE ( 'NONE', #301, #499, #904, .T. ) ;
#372 = ORIENTED_EDGE ( 'NONE', *, *, #363, .F. ) ;
#373 = EDGE_LOOP ( 'NONE', ( #380, #739, #233, #372 ) ) ;
#374 = DIRECTION ( 'NONE',  ( 0.0000000000000000000, -1.000000000000000000, 0.0000000000000000000 ) ) ;
#375 = ORIENTED_EDGE ( 'NONE', *, *, #757, .F. ) ;
#376 = DIRECTION ( 'NONE',  ( -0.0000000000000000000, 0.0000000000000000000, 1.000000000000000000 ) ) ;
#377 = VERTEX_POINT ( 'NONE', #931 ) ;
#378 = FACE_OUTER_BOUND ( 'NONE', #137, .T. ) ;
#379 = EDGE_CURVE ( 'NONE', #186, #527, #273, .T. ) ;
#380 = ORIENTED_EDGE ( 'NONE', *, *, #951, .F. ) ;
#381 = LINE ( 'NONE', #459, #506 ) ;
#382 = ORIENTED_EDGE ( 'NONE', *, *, #757, .T. ) ;
#383 = VECTOR ( 'NONE', #202, 1000.000000000000000 ) ;
#384 = EDGE_CURVE ( 'NONE', #279, #265, #30, .T. ) ;
#385 = AXIS2_PLACEMENT_3D ( 'NONE', #437, #457, #945 ) ;
#386 = LINE ( 'NONE', #676, #806 ) ;
#387 = CIRCLE ( 'NONE', #846, 0.2999999999999999334 ) ;
#388 = DIRECTION ( 'NONE',  ( 1.000000000000000000, 0.0000000000000000000, 0.0000000000000000000 ) ) ;
#389 = VERTEX_POINT ( 'NONE', #910 ) ;
#390 = CARTESIAN_POINT ( 'NONE',  ( 4.600000000000000533, 1.895624383210084973, 9.599999999999999645 ) ) ;
#391 = DIRECTION ( 'NONE',  ( 1.000000000000000000, -5.059610138265688673E-15, 0.0000000000000000000 ) ) ;
#392 = ORIENTED_EDGE ( 'NONE', *, *, #509, .F. ) ;
#393 = ORIENTED_EDGE ( 'NONE', *, *, #518, .F. ) ;
#394 = DIRECTION ( 'NONE',  ( -1.000000000000000000, 0.0000000000000000000, 0.0000000000000000000 ) ) ;
#395 = LINE ( 'NONE', #179, #164 ) ;
#396 = DIRECTION ( 'NONE',  ( 0.0000000000000000000, -0.0000000000000000000, 1.000000000000000000 ) ) ;
#397 = EDGE_LOOP ( 'NONE', ( #412, #651, #799, #816 ) ) ;
#398 = EDGE_CURVE ( 'NONE', #284, #590, #338, .T. ) ;
#399 = CYLINDRICAL_SURFACE ( 'NONE', #583, 0.2999999999999999334 ) ;
#400 = PLANE ( 'NONE',  #795 ) ;
#401 = DIRECTION ( 'NONE',  ( 0.0000000000000000000, -0.0000000000000000000, -1.000000000000000000 ) ) ;
#402 = VERTEX_POINT ( 'NONE', #244 ) ;
#403 = DIRECTION ( 'NONE',  ( 0.7840458244617612982, -0.6207029443655613932, 0.0000000000000000000 ) ) ;
#404 = COLOUR_RGB ( '',0.7803921568627451011, 0.7607843137254901578, 0.7411764705882353255 ) ;
#405 = CARTESIAN_POINT ( 'NONE',  ( -4.900000000000000355, 1.895624383210084973, 0.0000000000000000000 ) ) ;
#406 = PRESENTATION_STYLE_ASSIGNMENT (( #912 ) ) ;
#407 = CARTESIAN_POINT ( 'NONE',  ( -3.299999999999999822, 0.7000000000000000666, 9.599999999999999645 ) ) ;
#408 = DIRECTION ( 'NONE',  ( -0.6207029443655612821, -0.7840458244617611872, -0.0000000000000000000 ) ) ;
#409 = CARTESIAN_POINT ( 'NONE',  ( 7.837739514543056976E-16, 4.399999999999999467, 3.200000000000000622 ) ) ;
#410 = ORIENTED_EDGE ( 'NONE', *, *, #717, .F. ) ;
#411 = PRESENTATION_STYLE_ASSIGNMENT (( #638 ) ) ;
#412 = ORIENTED_EDGE ( 'NONE', *, *, #147, .F. ) ;
#413 = CARTESIAN_POINT ( 'NONE',  ( -4.900000000000000355, 1.000000000000000000, 9.599999999999999645 ) ) ;
#414 = CARTESIAN_POINT ( 'NONE',  ( -2.854869303374650169, 4.399999999999999467, 9.599999999999999645 ) ) ;
#415 = SURFACE_SIDE_STYLE ('',( #246 ) ) ;
#416 =( NAMED_UNIT ( * ) PLANE_ANGLE_UNIT ( ) SI_UNIT ( $, .RADIAN. ) );
#417 = EDGE_CURVE ( 'NONE', #180, #512, #838, .T. ) ;
#418 = ORIENTED_EDGE ( 'NONE', *, *, #243, .T. ) ;
#419 = DIRECTION ( 'NONE',  ( -0.0000000000000000000, -1.000000000000000000, -0.0000000000000000000 ) ) ;
#420 = DIRECTION ( 'NONE',  ( -0.0000000000000000000, 0.0000000000000000000, -1.000000000000000000 ) ) ;
#421 = CIRCLE ( 'NONE', #742, 0.2999999999999999334 ) ;
#422 = ORIENTED_EDGE ( 'NONE', *, *, #182, .T. ) ;
#423 = VECTOR ( 'NONE', #351, 1000.000000000000000 ) ;
#424 =( NAMED_UNIT ( * ) SI_UNIT ( $, .STERADIAN. ) SOLID_ANGLE_UNIT ( ) );
#425 = DIRECTION ( 'NONE',  ( -0.6207029443655612821, 0.7840458244617611872, 0.0000000000000000000 ) ) ;
#426 = ORIENTED_EDGE ( 'NONE', *, *, #766, .T. ) ;
#427 = EDGE_LOOP ( 'NONE', ( #1, #515, #572, #447 ) ) ;
#428 = CARTESIAN_POINT ( 'NONE',  ( 5.878304635907294211E-16, 4.399999999999999467, 6.399999999999998579 ) ) ;
#429 = ORIENTED_EDGE ( 'NONE', *, *, #785, .T. ) ;
#430 = PRODUCT_RELATED_PRODUCT_CATEGORY ( 'part', '', ( #591 ) ) ;
#431 = ADVANCED_FACE ( 'NONE', ( #109 ), #38, .T. ) ;
#432 = CARTESIAN_POINT ( 'NONE',  ( -4.835213747338529267, 2.081835266519753702, 9.599999999999999645 ) ) ;
#433 = ORIENTED_EDGE ( 'NONE', *, *, #921, .F. ) ;
#434 = ORIENTED_EDGE ( 'NONE', *, *, #792, .F. ) ;
#435 = CIRCLE ( 'NONE', #617, 0.2999999999999999334 ) ;
#436 = VECTOR ( 'NONE', #861, 1000.000000000000000 ) ;
#437 = CARTESIAN_POINT ( 'NONE',  ( 4.900000000000000355, 2.000000000000000000, 9.599999999999999645 ) ) ;
#438 = VECTOR ( 'NONE', #573, 1000.000000000000000 ) ;
#439 = ORIENTED_EDGE ( 'NONE', *, *, #567, .T. ) ;
#440 = UNCERTAINTY_MEASURE_WITH_UNIT (LENGTH_MEASURE( 1.000000000000000082E-05 ), #6, 'distance_accuracy_value', 'NONE');
#441 = VERTEX_POINT ( 'NONE', #917 ) ;
#442 = EDGE_CURVE ( 'NONE', #687, #738, #448, .T. ) ;
#443 = ORIENTED_EDGE ( 'NONE', *, *, #487, .T. ) ;
#444 = EDGE_CURVE ( 'NONE', #749, #738, #254, .T. ) ;
#445 = ORIENTED_EDGE ( 'NONE', *, *, #442, .T. ) ;
#446 = CIRCLE ( 'NONE', #141, 1.100000000000000311 ) ;
#447 = ORIENTED_EDGE ( 'NONE', *, *, #4, .T. ) ;
#448 = CIRCLE ( 'NONE', #69, 0.2999999999999999334 ) ;
#449 = AXIS2_PLACEMENT_3D ( 'NONE', #3, #221, #530 ) ;
#450 = CIRCLE ( 'NONE', #238, 0.2999999999999999334 ) ;
#451 = ORIENTED_EDGE ( 'NONE', *, *, #509, .T. ) ;
#452 = VERTEX_POINT ( 'NONE', #558 ) ;
#453 = CARTESIAN_POINT ( 'NONE',  ( -2.700000000000000178, 0.0000000000000000000, 9.599999999999999645 ) ) ;
#454 = LINE ( 'NONE', #76, #814 ) ;
#455 = ORIENTED_EDGE ( 'NONE', *, *, #668, .T. ) ;
#456 = ORIENTED_EDGE ( 'NONE', *, *, #335, .F. ) ;
#457 = DIRECTION ( 'NONE',  ( -0.7840458244617612982, -0.6207029443655613932, 0.0000000000000000000 ) ) ;
#458 = ORIENTED_EDGE ( 'NONE', *, *, #90, .F. ) ;
#459 = CARTESIAN_POINT ( 'NONE',  ( 4.900000000000000355, 1.300000000000000044, 9.599999999999999645 ) ) ;
#460 = EDGE_CURVE ( 'NONE', #261, #744, #791, .T. ) ;
#461 = LINE ( 'NONE', #835, #315 ) ;
#462 = VERTEX_POINT ( 'NONE', #648 ) ;
#463 = CARTESIAN_POINT ( 'NONE',  ( -4.900000000000000355, 1.300000000000000044, 0.0000000000000000000 ) ) ;
#464 = CARTESIAN_POINT ( 'NONE',  ( 3.299999999999999822, 1.000000000000000000, 0.0000000000000000000 ) ) ;
#465 = VECTOR ( 'NONE', #622, 1000.000000000000000 ) ;
#466 = DIRECTION ( 'NONE',  ( 0.0000000000000000000, -0.0000000000000000000, -1.000000000000000000 ) ) ;
#467 = ORIENTED_EDGE ( 'NONE', *, *, #894, .F. ) ;
#468 = AXIS2_PLACEMENT_3D ( 'NONE', #765, #81, #475 ) ;
#469 = CARTESIAN_POINT ( 'NONE',  ( 5.878304635907294211E-16, 0.0000000000000000000, 3.199999999999998845 ) ) ;
#470 = FACE_OUTER_BOUND ( 'NONE', #790, .T. ) ;
#471 = CARTESIAN_POINT ( 'NONE',  ( -2.854869303374650613, 4.099999999999999645, 0.0000000000000000000 ) ) ;
#472 = ADVANCED_FACE ( 'NONE', ( #124 ), #844, .T. ) ;
#473 = ORIENTED_EDGE ( 'NONE', *, *, #600, .T. ) ;
#474 = CYLINDRICAL_SURFACE ( 'NONE', #262, 0.2999999999999999334 ) ;
#475 = DIRECTION ( 'NONE',  ( 0.0000000000000000000, 0.0000000000000000000, 1.000000000000000000 ) ) ;
#476 = DIRECTION ( 'NONE',  ( -0.0000000000000000000, 0.0000000000000000000, 1.000000000000000000 ) ) ;
#477 = CARTESIAN_POINT ( 'NONE',  ( -4.600000000000000533, 1.895624383210084973, 9.599999999999999645 ) ) ;
#478 = CARTESIAN_POINT ( 'NONE',  ( 4.835213747338529267, 2.081835266519753702, 0.0000000000000000000 ) ) ;
#479 = DIRECTION ( 'NONE',  ( 0.0000000000000000000, -0.0000000000000000000, -1.000000000000000000 ) ) ;
#480 = DIRECTION ( 'NONE',  ( 1.000000000000000000, 0.0000000000000000000, 0.0000000000000000000 ) ) ;
#481 = VECTOR ( 'NONE', #689, 1000.000000000000000 ) ;
#482 = ORIENTED_EDGE ( 'NONE', *, *, #785, .F. ) ;
#483 = AXIS2_PLACEMENT_3D ( 'NONE', #898, #760, #189 ) ;
#484 = CYLINDRICAL_SURFACE ( 'NONE', #733, 0.2999999999999999334 ) ;
#485 = AXIS2_PLACEMENT_3D ( 'NONE', #688, #319, #22 ) ;
#486 = LINE ( 'NONE', #628, #938 ) ;
#487 = EDGE_CURVE ( 'NONE', #126, #590, #197, .T. ) ;
#488 = DIRECTION ( 'NONE',  ( -1.000000000000000000, 0.0000000000000000000, 0.0000000000000000000 ) ) ;
#489 = CARTESIAN_POINT ( 'NONE',  ( -4.900000000000000355, 1.000000000000000000, 0.0000000000000000000 ) ) ;
#490 = LINE ( 'NONE', #841, #46 ) ;
#491 = DIRECTION ( 'NONE',  ( 1.000000000000000000, 0.0000000000000000000, 0.0000000000000000000 ) ) ;
#492 = ADVANCED_FACE ( 'NONE', ( #277 ), #774, .F. ) ;
#493 = CARTESIAN_POINT ( 'NONE',  ( 2.854869303374650169, 4.399999999999999467, 0.0000000000000000000 ) ) ;
#494 = ADVANCED_FACE ( 'NONE', ( #839 ), #798, .F. ) ;
#495 = CARTESIAN_POINT ( 'NONE',  ( -3.000000000000000000, 0.2999999999999999334, 0.0000000000000000000 ) ) ;
#496 = CARTESIAN_POINT ( 'NONE',  ( 2.700000000000000178, 0.0000000000000000000, 9.599999999999999645 ) ) ;
#497 = DIRECTION ( 'NONE',  ( 0.0000000000000000000, 0.0000000000000000000, -1.000000000000000000 ) ) ;
#498 = DIRECTION ( 'NONE',  ( 0.0000000000000000000, 0.0000000000000000000, 1.000000000000000000 ) ) ;
#499 = VERTEX_POINT ( 'NONE', #428 ) ;
#500 = ORIENTED_EDGE ( 'NONE', *, *, #323, .T. ) ;
#501 = DIRECTION ( 'NONE',  ( 0.0000000000000000000, 0.0000000000000000000, -1.000000000000000000 ) ) ;
#502 = CYLINDRICAL_SURFACE ( 'NONE', #519, 0.2999999999999999334 ) ;
#503 = CARTESIAN_POINT ( 'NONE',  ( -3.000000000000000000, 0.0000000000000000000, 0.0000000000000000000 ) ) ;
#504 = AXIS2_PLACEMENT_3D ( 'NONE', #225, #597, #881 ) ;
#505 = EDGE_CURVE ( 'NONE', #830, #249, #524, .T. ) ;
#506 = VECTOR ( 'NONE', #896, 1000.000000000000000 ) ;
#507 = UNCERTAINTY_MEASURE_WITH_UNIT (LENGTH_MEASURE( 1.000000000000000082E-05 ), #857, 'distance_accuracy_value', 'NONE');
#508 = DIRECTION ( 'NONE',  ( 0.0000000000000000000, 0.0000000000000000000, 1.000000000000000000 ) ) ;
#509 = EDGE_CURVE ( 'NONE', #340, #301, #178, .T. ) ;
#510 = ORIENTED_EDGE ( 'NONE', *, *, #905, .F. ) ;
#511 = CARTESIAN_POINT ( 'NONE',  ( -4.600000000000000533, 1.000000000000000000, 9.599999999999999645 ) ) ;
#512 = VERTEX_POINT ( 'NONE', #493 ) ;
#513 = DIRECTION ( 'NONE',  ( 0.0000000000000000000, -0.0000000000000000000, -1.000000000000000000 ) ) ;
#514 = DIRECTION ( 'NONE',  ( 0.0000000000000000000, 0.0000000000000000000, -1.000000000000000000 ) ) ;
#515 = ORIENTED_EDGE ( 'NONE', *, *, #934, .T. ) ;
#516 = AXIS2_PLACEMENT_3D ( 'NONE', #33, #476, #12 ) ;
#517 = AXIS2_PLACEMENT_3D ( 'NONE', #873, #870, #804 ) ;
#518 = EDGE_CURVE ( 'NONE', #2, #253, #32, .T. ) ;
#519 = AXIS2_PLACEMENT_3D ( 'NONE', #334, #641, #708 ) ;
#520 = ADVANCED_FACE ( 'NONE', ( #55 ), #339, .F. ) ;
#521 = ORIENTED_EDGE ( 'NONE', *, *, #302, .T. ) ;
#522 = CARTESIAN_POINT ( 'NONE',  ( 3.000000000000000000, 0.2999999999999999889, 9.599999999999999645 ) ) ;
#523 = CARTESIAN_POINT ( 'NONE',  ( -2.854869303374650613, 4.099999999999999645, 9.599999999999999645 ) ) ;
#524 = CIRCLE ( 'NONE', #596, 1.600000000000000755 ) ;
#525 = PRESENTATION_LAYER_ASSIGNMENT (  '', '', ( #153 ) ) ;
#526 = PRODUCT_DEFINITION_FORMATION_WITH_SPECIFIED_SOURCE ( 'ANY', '', #591, .NOT_KNOWN. ) ;
#527 = VERTEX_POINT ( 'NONE', #432 ) ;
#528 = VERTEX_POINT ( 'NONE', #213 ) ;
#529 = EDGE_LOOP ( 'NONE', ( #895, #300, #434, #754 ) ) ;
#530 = DIRECTION ( 'NONE',  ( 0.0000000000000000000, 0.0000000000000000000, 1.000000000000000000 ) ) ;
#531 = ADVANCED_FACE ( 'NONE', ( #281 ), #203, .F. ) ;
#532 = FILL_AREA_STYLE ('',( #96 ) ) ;
#533 = CARTESIAN_POINT ( 'NONE',  ( 3.299999999999999822, 0.7000000000000000666, 9.599999999999999645 ) ) ;
#534 = DIRECTION ( 'NONE',  ( 1.000000000000000000, 0.0000000000000000000, 0.0000000000000000000 ) ) ;
#535 = FACE_OUTER_BOUND ( 'NONE', #584, .T. ) ;
#536 = ORIENTED_EDGE ( 'NONE', *, *, #559, .F. ) ;
#537 = DIRECTION ( 'NONE',  ( 0.0000000000000000000, -0.0000000000000000000, -1.000000000000000000 ) ) ;
#538 = VERTEX_POINT ( 'NONE', #463 ) ;
#539 = DIRECTION ( 'NONE',  ( -0.0000000000000000000, 0.0000000000000000000, 1.000000000000000000 ) ) ;
#540 = CARTESIAN_POINT ( 'NONE',  ( -4.900000000000000355, 1.895624383210084973, 9.599999999999999645 ) ) ;
#541 = EDGE_CURVE ( 'NONE', #208, #402, #361, .T. ) ;
#542 = AXIS2_PLACEMENT_3D ( 'NONE', #9, #822, #304 ) ;
#543 = DIRECTION ( 'NONE',  ( -0.0000000000000000000, -0.0000000000000000000, 1.000000000000000000 ) ) ;
#544 = CIRCLE ( 'NONE', #127, 0.2999999999999999334 ) ;
#545 = LINE ( 'NONE', #621, #219 ) ;
#546 = ORIENTED_EDGE ( 'NONE', *, *, #833, .T. ) ;
#547 = DIRECTION ( 'NONE',  ( 1.000000000000000000, 0.0000000000000000000, 0.0000000000000000000 ) ) ;
#548 = EDGE_CURVE ( 'NONE', #801, #528, #421, .T. ) ;
#549 = CARTESIAN_POINT ( 'NONE',  ( -4.900000000000000355, 1.000000000000000000, 9.599999999999999645 ) ) ;
#550 = ORIENTED_EDGE ( 'NONE', *, *, #293, .T. ) ;
#551 = DIRECTION ( 'NONE',  ( 0.0000000000000000000, -0.0000000000000000000, -1.000000000000000000 ) ) ;
#552 = ORIENTED_EDGE ( 'NONE', *, *, #243, .F. ) ;
#553 = CARTESIAN_POINT ( 'NONE',  ( 5.878304635907294211E-16, 4.399999999999999467, 4.799999999999999822 ) ) ;
#554 = ORIENTED_EDGE ( 'NONE', *, *, #169, .T. ) ;
#555 = FACE_OUTER_BOUND ( 'NONE', #729, .T. ) ;
#556 = CARTESIAN_POINT ( 'NONE',  ( 4.600000000000000533, 1.300000000000000044, 9.599999999999999645 ) ) ;
#557 = DIRECTION ( 'NONE',  ( -1.000000000000000000, 0.0000000000000000000, 0.0000000000000000000 ) ) ;
#558 = CARTESIAN_POINT ( 'NONE',  ( 3.000000000000000000, 0.7000000000000000666, 9.599999999999999645 ) ) ;
#559 = EDGE_CURVE ( 'NONE', #389, #452, #57, .T. ) ;
#560 = FILL_AREA_STYLE ('',( #128 ) ) ;
#561 = AXIS2_PLACEMENT_3D ( 'NONE', #758, #232, #159 ) ;
#562 = ORIENTED_EDGE ( 'NONE', *, *, #677, .T. ) ;
#563 = PRESENTATION_LAYER_ASSIGNMENT (  '', '', ( #775 ) ) ;
#564 = DIRECTION ( 'NONE',  ( 1.000000000000000000, 0.0000000000000000000, 0.0000000000000000000 ) ) ;
#565 = CIRCLE ( 'NONE', #776, 0.2999999999999999334 ) ;
#566 = PRODUCT_DEFINITION ( 'UNKNOWN', '', #526, #809 ) ;
#567 = EDGE_CURVE ( 'NONE', #528, #377, #750, .T. ) ;
#568 = DIRECTION ( 'NONE',  ( 0.0000000000000000000, 0.0000000000000000000, -1.000000000000000000 ) ) ;
#569 =( NAMED_UNIT ( * ) SI_UNIT ( $, .STERADIAN. ) SOLID_ANGLE_UNIT ( ) );
#570 = DIRECTION ( 'NONE',  ( 8.659560562354947649E-17, 0.7071067811865464625, -0.7071067811865486830 ) ) ;
#571 = CARTESIAN_POINT ( 'NONE',  ( 5.878304635907294211E-16, 0.0000000000000000000, 4.799999999999999822 ) ) ;
#572 = ORIENTED_EDGE ( 'NONE', *, *, #444, .T. ) ;
#573 = DIRECTION ( 'NONE',  ( 0.0000000000000000000, 0.0000000000000000000, -1.000000000000000000 ) ) ;
#574 = FACE_OUTER_BOUND ( 'NONE', #397, .T. ) ;
#575 =( NAMED_UNIT ( * ) PLANE_ANGLE_UNIT ( ) SI_UNIT ( $, .RADIAN. ) );
#576 = CARTESIAN_POINT ( 'NONE',  ( 4.600000000000000533, 1.895624383210084973, 9.599999999999999645 ) ) ;
#577 = DIRECTION ( 'NONE',  ( 0.0000000000000000000, 0.0000000000000000000, 1.000000000000000000 ) ) ;
#578 = ORIENTED_EDGE ( 'NONE', *, *, #146, .T. ) ;
#579 = CARTESIAN_POINT ( 'NONE',  ( -3.000000000000000000, 1.000000000000000000, 9.599999999999999645 ) ) ;
#580 = CARTESIAN_POINT ( 'NONE',  ( -4.835213747338529267, 2.081835266519753702, 9.599999999999999645 ) ) ;
#581 = EDGE_LOOP ( 'NONE', ( #759, #422, #768, #267 ) ) ;
#582 = ADVANCED_FACE ( 'NONE', ( #378 ), #658, .F. ) ;
#583 = AXIS2_PLACEMENT_3D ( 'NONE', #326, #420, #557 ) ;
#584 = EDGE_LOOP ( 'NONE', ( #521, #121, #805, #418, #145, #455, #619, #891, #614, #473, #230, #685, #426, #241, #797, #283, #663, #578, #270, #8 ) ) ;
#585 = STYLED_ITEM ( 'NONE', ( #761 ), #941 ) ;
#586 = CARTESIAN_POINT ( 'NONE',  ( 2.700000000000000178, 0.2999999999999999889, 9.599999999999999645 ) ) ;
#587 = VERTEX_POINT ( 'NONE', #511 ) ;
#588 = CARTESIAN_POINT ( 'NONE',  ( 5.878304635907294211E-16, 0.0000000000000000000, 4.799999999999999822 ) ) ;
#589 = ORIENTED_EDGE ( 'NONE', *, *, #417, .T. ) ;
#590 = VERTEX_POINT ( 'NONE', #294 ) ;
#591 = PRODUCT ( 'A131 Сухарь пазовый М3, паз 6', 'A131 Сухарь пазовый М3, паз 6', '', ( #916 ) ) ;
#592 = UNCERTAINTY_MEASURE_WITH_UNIT (LENGTH_MEASURE( 1.000000000000000082E-05 ), #223, 'distance_accuracy_value', 'NONE');
#593 = ORIENTED_EDGE ( 'NONE', *, *, #417, .F. ) ;
#594 = CIRCLE ( 'NONE', #713, 1.600000000000000755 ) ;
#595 = ADVANCED_FACE ( 'NONE', ( #672 ), #86, .F. ) ;
#596 = AXIS2_PLACEMENT_3D ( 'NONE', #263, #44, #343 ) ;
#597 = DIRECTION ( 'NONE',  ( 0.0000000000000000000, 1.000000000000000000, 0.0000000000000000000 ) ) ;
#598 = EDGE_CURVE ( 'NONE', #499, #301, #654, .T. ) ;
#599 = ORIENTED_EDGE ( 'NONE', *, *, #735, .T. ) ;
#600 = EDGE_CURVE ( 'NONE', #590, #180, #949, .T. ) ;
#601 = ORIENTED_EDGE ( 'NONE', *, *, #939, .F. ) ;
#602 = CARTESIAN_POINT ( 'NONE',  ( -4.600000000000000533, 1.895624383210084973, 0.0000000000000000000 ) ) ;
#603 = CIRCLE ( 'NONE', #691, 0.2999999999999999334 ) ;
#604 = DIRECTION ( 'NONE',  ( 0.0000000000000000000, 1.000000000000000000, 0.0000000000000000000 ) ) ;
#605 = EDGE_LOOP ( 'NONE', ( #333, #353, #562, #364 ) ) ;
#606 = VECTOR ( 'NONE', #697, 1000.000000000000000 ) ;
#607 = ORIENTED_EDGE ( 'NONE', *, *, #505, .F. ) ;
#608 = DIRECTION ( 'NONE',  ( -0.0000000000000000000, 0.0000000000000000000, -1.000000000000000000 ) ) ;
#609 = CARTESIAN_POINT ( 'NONE',  ( 3.299999999999999822, 1.000000000000000000, 9.599999999999999645 ) ) ;
#610 = FACE_OUTER_BOUND ( 'NONE', #843, .T. ) ;
#611 = EDGE_CURVE ( 'NONE', #341, #186, #185, .T. ) ;
#612 = CARTESIAN_POINT ( 'NONE',  ( 5.878304635907294211E-16, 0.0000000000000000000, 5.899999999999999467 ) ) ;
#613 = DIRECTION ( 'NONE',  ( 0.0000000000000000000, 1.000000000000000000, 0.0000000000000000000 ) ) ;
#614 = ORIENTED_EDGE ( 'NONE', *, *, #398, .T. ) ;
#615 =( NAMED_UNIT ( * ) SI_UNIT ( $, .STERADIAN. ) SOLID_ANGLE_UNIT ( ) );
#616 = ADVANCED_FACE ( 'NONE', ( #365 ), #156, .F. ) ;
#617 = AXIS2_PLACEMENT_3D ( 'NONE', #533, #311, #907 ) ;
#618 = CARTESIAN_POINT ( 'NONE',  ( -2.700000000000000178, 0.0000000000000000000, 9.599999999999999645 ) ) ;
#619 = ORIENTED_EDGE ( 'NONE', *, *, #65, .T. ) ;
#620 = EDGE_LOOP ( 'NONE', ( #935, #787 ) ) ;
#621 = CARTESIAN_POINT ( 'NONE',  ( 3.000000000000000000, 1.000000000000000000, 9.599999999999999645 ) ) ;
#622 = DIRECTION ( 'NONE',  ( -0.0000000000000000000, -0.0000000000000000000, 1.000000000000000000 ) ) ;
#623 = APPLICATION_PROTOCOL_DEFINITION ( 'draft international standard', 'automotive_design', 1998, #83 ) ;
#624 = CARTESIAN_POINT ( 'NONE',  ( -4.600000000000000533, 1.300000000000000044, 9.599999999999999645 ) ) ;
#625 = LINE ( 'NONE', #612, #43 ) ;
#626 = PLANE ( 'NONE',  #485 ) ;
#627 = ADVANCED_FACE ( 'NONE', ( #661, #954 ), #813, .F. ) ;
#628 = CARTESIAN_POINT ( 'NONE',  ( 7.837739514543059934E-16, 0.0000000000000000000, 6.400000000000000355 ) ) ;
#629 =( NAMED_UNIT ( * ) SI_UNIT ( $, .STERADIAN. ) SOLID_ANGLE_UNIT ( ) );
#630 = DIRECTION ( 'NONE',  ( -1.000000000000000000, 0.0000000000000000000, 0.0000000000000000000 ) ) ;
#631 = CARTESIAN_POINT ( 'NONE',  ( 5.878304635907294211E-16, 3.900000000000002132, 5.899999999999999467 ) ) ;
#632 = ADVANCED_FACE ( 'NONE', ( #670 ), #160, .F. ) ;
#633 = PLANE ( 'NONE',  #906 ) ;
#634 = DIRECTION ( 'NONE',  ( 0.0000000000000000000, 1.000000000000000000, 0.0000000000000000000 ) ) ;
#635 =( LENGTH_UNIT ( ) NAMED_UNIT ( * ) SI_UNIT ( .MILLI., .METRE. ) );
#636 = VERTEX_POINT ( 'NONE', #818 ) ;
#637 = FILL_AREA_STYLE ('',( #705 ) ) ;
#638 = SURFACE_STYLE_USAGE ( .BOTH. , #929 ) ;
#639 = CIRCLE ( 'NONE', #209, 0.2999999999999999334 ) ;
#640 = VECTOR ( 'NONE', #117, 1000.000000000000000 ) ;
#641 = DIRECTION ( 'NONE',  ( 0.0000000000000000000, 0.0000000000000000000, -1.000000000000000000 ) ) ;
#642 = DIRECTION ( 'NONE',  ( 0.0000000000000000000, -1.000000000000000000, 0.0000000000000000000 ) ) ;
#643 = DIRECTION ( 'NONE',  ( 1.000000000000000000, 0.0000000000000000000, 0.0000000000000000000 ) ) ;
#644 = DIRECTION ( 'NONE',  ( 0.0000000000000000000, 1.000000000000000000, 0.0000000000000000000 ) ) ;
#645 = DIRECTION ( 'NONE',  ( 0.0000000000000000000, -1.000000000000000000, 0.0000000000000000000 ) ) ;
#646 = EDGE_LOOP ( 'NONE', ( #73, #546, #275, #500 ) ) ;
#647 = ADVANCED_FACE ( 'NONE', ( #936 ), #354, .T. ) ;
#648 = CARTESIAN_POINT ( 'NONE',  ( 4.900000000000000355, 1.895624383210084973, 9.599999999999999645 ) ) ;
#649 = CARTESIAN_POINT ( 'NONE',  ( 5.878304635907294211E-16, 0.0000000000000000000, 3.199999999999998845 ) ) ;
#650 = ORIENTED_EDGE ( 'NONE', *, *, #371, .F. ) ;
#651 = ORIENTED_EDGE ( 'NONE', *, *, #67, .F. ) ;
#652 = DIRECTION ( 'NONE',  ( -0.0000000000000000000, 0.0000000000000000000, 1.000000000000000000 ) ) ;
#653 = VECTOR ( 'NONE', #859, 1000.000000000000000 ) ;
#654 = CIRCLE ( 'NONE', #26, 1.599999999999998979 ) ;
#655 = EDGE_LOOP ( 'NONE', ( #136, #132, #310, #601 ) ) ;
#656 = AXIS2_PLACEMENT_3D ( 'NONE', #308, #403, #93 ) ;
#657 = AXIS2_PLACEMENT_3D ( 'NONE', #196, #498, #348 ) ;
#658 = PLANE ( 'NONE',  #385 ) ;
#659 = EDGE_CURVE ( 'NONE', #5, #462, #831, .T. ) ;
#660 = ORIENTED_EDGE ( 'NONE', *, *, #934, .F. ) ;
#661 = FACE_BOUND ( 'NONE', #48, .T. ) ;
#662 = EDGE_CURVE ( 'NONE', #749, #389, #888, .T. ) ;
#663 = ORIENTED_EDGE ( 'NONE', *, *, #792, .T. ) ;
#664 = CIRCLE ( 'NONE', #516, 0.2999999999999999334 ) ;
#665 = VECTOR ( 'NONE', #864, 1000.000000000000000 ) ;
#666 = VECTOR ( 'NONE', #834, 1000.000000000000000 ) ;
#667 = ORIENTED_EDGE ( 'NONE', *, *, #751, .F. ) ;
#668 = EDGE_CURVE ( 'NONE', #764, #808, #731, .T. ) ;
#669 = ORIENTED_EDGE ( 'NONE', *, *, #268, .T. ) ;
#670 = FACE_OUTER_BOUND ( 'NONE', #358, .T. ) ;
#671 = EDGE_LOOP ( 'NONE', ( #107, #37, #355, #227 ) ) ;
#672 = FACE_OUTER_BOUND ( 'NONE', #605, .T. ) ;
#673 = CIRCLE ( 'NONE', #68, 0.2999999999999999334 ) ;
#674 = DIRECTION ( 'NONE',  ( 0.0000000000000000000, 0.0000000000000000000, -1.000000000000000000 ) ) ;
#675 = COLOUR_RGB ( '',0.7921568627450980005, 0.8196078431372548767, 0.9333333333333333481 ) ;
#676 = CARTESIAN_POINT ( 'NONE',  ( -3.299999999999999822, 1.000000000000000000, 9.599999999999999645 ) ) ;
#677 = EDGE_CURVE ( 'NONE', #113, #830, #909, .T. ) ;
#678 = CARTESIAN_POINT ( 'NONE',  ( -4.600000000000000533, 1.895624383210084973, 9.599999999999999645 ) ) ;
#679 = PRODUCT_DEFINITION_SHAPE ( 'NONE', 'NONE',  #566 ) ;
#680 = ORIENTED_EDGE ( 'NONE', *, *, #309, .F. ) ;
#681 = SURFACE_STYLE_FILL_AREA ( #532 ) ;
#682 = DIRECTION ( 'NONE',  ( -0.0000000000000000000, 0.0000000000000000000, -1.000000000000000000 ) ) ;
#683 = CARTESIAN_POINT ( 'NONE',  ( -3.299999999999999822, 0.7000000000000000666, 9.599999999999999645 ) ) ;
#684 = ADVANCED_FACE ( 'NONE', ( #229 ), #633, .F. ) ;
#685 = ORIENTED_EDGE ( 'NONE', *, *, #951, .T. ) ;
#686 = CARTESIAN_POINT ( 'NONE',  ( -3.000000000000000000, 0.7000000000000000666, 0.0000000000000000000 ) ) ;
#687 = VERTEX_POINT ( 'NONE', #325 ) ;
#688 = CARTESIAN_POINT ( 'NONE',  ( 0.0000000000000000000, 0.0000000000000000000, 0.0000000000000000000 ) ) ;
#689 = DIRECTION ( 'NONE',  ( 1.000000000000000000, 0.0000000000000000000, 0.0000000000000000000 ) ) ;
#690 =( NAMED_UNIT ( * ) PLANE_ANGLE_UNIT ( ) SI_UNIT ( $, .RADIAN. ) );
#691 = AXIS2_PLACEMENT_3D ( 'NONE', #204, #513, #732 ) ;
#692 = CONICAL_SURFACE ( 'NONE', #11, 1.600000000000000755, 0.7853981633974487231 ) ;
#693 = LINE ( 'NONE', #27, #812 ) ;
#694 = ADVANCED_FACE ( 'NONE', ( #826 ), #474, .T. ) ;
#695 = ORIENTED_EDGE ( 'NONE', *, *, #122, .F. ) ;
#696 = CARTESIAN_POINT ( 'NONE',  ( 3.000000000000000000, 4.399999999999999467, 0.0000000000000000000 ) ) ;
#697 = DIRECTION ( 'NONE',  ( 0.0000000000000000000, 0.0000000000000000000, -1.000000000000000000 ) ) ;
#698 = PRESENTATION_STYLE_ASSIGNMENT (( #103 ) ) ;
#699 = DIRECTION ( 'NONE',  ( 1.000000000000000000, 0.0000000000000000000, 0.0000000000000000000 ) ) ;
#700 = ADVANCED_FACE ( 'NONE', ( #13 ), #242, .F. ) ;
#701 = CYLINDRICAL_SURFACE ( 'NONE', #561, 0.2999999999999999334 ) ;
#702 = LINE ( 'NONE', #34, #143 ) ;
#703 = DIRECTION ( 'NONE',  ( 1.000000000000000000, 0.0000000000000000000, 0.0000000000000000000 ) ) ;
#704 = ORIENTED_EDGE ( 'NONE', *, *, #921, .T. ) ;
#705 = FILL_AREA_STYLE_COLOUR ( '', #675 ) ;
#706 = CARTESIAN_POINT ( 'NONE',  ( 7.837739514543059934E-16, 0.0000000000000000000, 6.400000000000000355 ) ) ;
#707 = EDGE_LOOP ( 'NONE', ( #61, #217, #336, #885 ) ) ;
#708 = DIRECTION ( 'NONE',  ( -1.000000000000000000, 0.0000000000000000000, 0.0000000000000000000 ) ) ;
#709 = DIRECTION ( 'NONE',  ( -0.6207029443655612821, 0.7840458244617611872, 0.0000000000000000000 ) ) ;
#710 = CARTESIAN_POINT ( 'NONE',  ( 3.000000000000000000, 1.000000000000000000, 0.0000000000000000000 ) ) ;
#711 = ORIENTED_EDGE ( 'NONE', *, *, #90, .T. ) ;
#712 = CARTESIAN_POINT ( 'NONE',  ( -2.854869303374650169, 4.399999999999999467, 9.599999999999999645 ) ) ;
#713 = AXIS2_PLACEMENT_3D ( 'NONE', #854, #847, #577 ) ;
#714 = ORIENTED_EDGE ( 'NONE', *, *, #146, .F. ) ;
#715 = VECTOR ( 'NONE', #784, 1000.000000000000000 ) ;
#716 = FACE_OUTER_BOUND ( 'NONE', #330, .T. ) ;
#717 = EDGE_CURVE ( 'NONE', #2, #28, #565, .T. ) ;
#718 = MECHANICAL_DESIGN_GEOMETRIC_PRESENTATION_REPRESENTATION (  '', ( #153 ), #943 ) ;
#719 = LINE ( 'NONE', #780, #606 ) ;
#720 = FILL_AREA_STYLE ('',( #252 ) ) ;
#721 =( NAMED_UNIT ( * ) SI_UNIT ( $, .STERADIAN. ) SOLID_ANGLE_UNIT ( ) );
#722 = PLANE ( 'NONE',  #925 ) ;
#723 = ADVANCED_FACE ( 'NONE', ( #610 ), #626, .F. ) ;
#724 = ORIENTED_EDGE ( 'NONE', *, *, #717, .T. ) ;
#725 = ORIENTED_EDGE ( 'NONE', *, *, #939, .T. ) ;
#726 = CARTESIAN_POINT ( 'NONE',  ( 7.225416114969382221E-16, 3.900000000000002132, 3.699999999999999289 ) ) ;
#727 = DIRECTION ( 'NONE',  ( 0.0000000000000000000, 1.000000000000000000, 0.0000000000000000000 ) ) ;
#728 = DIRECTION ( 'NONE',  ( -0.0000000000000000000, 0.0000000000000000000, 1.000000000000000000 ) ) ;
#729 = EDGE_LOOP ( 'NONE', ( #206, #125, #171, #593 ) ) ;
#730 = ADVANCED_FACE ( 'NONE', ( #165 ), #484, .F. ) ;
#731 = CIRCLE ( 'NONE', #299, 0.2999999999999999334 ) ;
#732 = DIRECTION ( 'NONE',  ( 1.000000000000000000, 0.0000000000000000000, 0.0000000000000000000 ) ) ;
#733 = AXIS2_PLACEMENT_3D ( 'NONE', #683, #17, #175 ) ;
#734 = DIRECTION ( 'NONE',  ( 0.0000000000000000000, 0.0000000000000000000, -1.000000000000000000 ) ) ;
#735 = EDGE_CURVE ( 'NONE', #402, #253, #387, .T. ) ;
#736 = ADVANCED_BREP_SHAPE_REPRESENTATION ( 'A131 TєїрЁ№ ярчютvщ ¦3, ярч 6', ( #941, #657 ), #950 ) ;
#737 = APPLICATION_CONTEXT ( 'automotive_design' ) ;
#738 = VERTEX_POINT ( 'NONE', #900 ) ;
#739 = ORIENTED_EDGE ( 'NONE', *, *, #384, .F. ) ;
#740 = EDGE_CURVE ( 'NONE', #87, #764, #545, .T. ) ;
#741 = CIRCLE ( 'NONE', #318, 1.100000000000000311 ) ;
#742 = AXIS2_PLACEMENT_3D ( 'NONE', #286, #728, #534 ) ;
#743 =( GEOMETRIC_REPRESENTATION_CONTEXT ( 3 ) GLOBAL_UNCERTAINTY_ASSIGNED_CONTEXT ( ( #592 ) ) GLOBAL_UNIT_ASSIGNED_CONTEXT ( ( #223, #690, #615 ) ) REPRESENTATION_CONTEXT ( 'NONE', 'WORKASPACE' ) );
#744 = VERTEX_POINT ( 'NONE', #108 ) ;
#745 = ORIENTED_EDGE ( 'NONE', *, *, #130, .F. ) ;
#746 = DIRECTION ( 'NONE',  ( 0.0000000000000000000, 1.000000000000000000, 0.0000000000000000000 ) ) ;
#747 = ORIENTED_EDGE ( 'NONE', *, *, #379, .F. ) ;
#748 = CARTESIAN_POINT ( 'NONE',  ( -4.900000000000000355, 1.895624383210084973, 9.599999999999999645 ) ) ;
#749 = VERTEX_POINT ( 'NONE', #257 ) ;
#750 = LINE ( 'NONE', #522, #369 ) ;
#751 = EDGE_CURVE ( 'NONE', #527, #919, #544, .T. ) ;
#752 = CARTESIAN_POINT ( 'NONE',  ( -2.700000000000000178, 0.2999999999999999889, 9.599999999999999645 ) ) ;
#753 = DIRECTION ( 'NONE',  ( 1.000000000000000000, 0.0000000000000000000, 0.0000000000000000000 ) ) ;
#754 = ORIENTED_EDGE ( 'NONE', *, *, #356, .T. ) ;
#755 = DIRECTION ( 'NONE',  ( 0.0000000000000000000, 0.0000000000000000000, -1.000000000000000000 ) ) ;
#756 = AXIS2_PLACEMENT_3D ( 'NONE', #788, #419, #933 ) ;
#757 = EDGE_CURVE ( 'NONE', #512, #279, #181, .T. ) ;
#758 = CARTESIAN_POINT ( 'NONE',  ( 2.854869303374650169, 4.099999999999999645, 9.599999999999999645 ) ) ;
#759 = ORIENTED_EDGE ( 'NONE', *, *, #335, .T. ) ;
#760 = DIRECTION ( 'NONE',  ( -0.0000000000000000000, 0.0000000000000000000, 1.000000000000000000 ) ) ;
#761 = PRESENTATION_STYLE_ASSIGNMENT (( #15 ) ) ;
#762 = CARTESIAN_POINT ( 'NONE',  ( -3.090083050713178903, 4.286210883309668596, 9.599999999999999645 ) ) ;
#763 = CARTESIAN_POINT ( 'NONE',  ( -3.299999999999999822, 0.7000000000000000666, 0.0000000000000000000 ) ) ;
#764 = VERTEX_POINT ( 'NONE', #250 ) ;
#765 = CARTESIAN_POINT ( 'NONE',  ( 5.878304635907294211E-16, 0.5000000000000002220, 4.799999999999999822 ) ) ;
#766 = EDGE_CURVE ( 'NONE', #177, #527, #490, .T. ) ;
#767 = DIRECTION ( 'NONE',  ( -0.0000000000000000000, 1.000000000000000000, -0.0000000000000000000 ) ) ;
#768 = ORIENTED_EDGE ( 'NONE', *, *, #302, .F. ) ;
#769 = DIRECTION ( 'NONE',  ( -0.0000000000000000000, 0.0000000000000000000, 1.000000000000000000 ) ) ;
#770 = EDGE_CURVE ( 'NONE', #113, #340, #702, .T. ) ;
#771 = CARTESIAN_POINT ( 'NONE',  ( -4.900000000000000355, 1.300000000000000044, 9.599999999999999645 ) ) ;
#772 = ORIENTED_EDGE ( 'NONE', *, *, #559, .T. ) ;
#773 = AXIS2_PLACEMENT_3D ( 'NONE', #471, #537, #306 ) ;
#774 = CYLINDRICAL_SURFACE ( 'NONE', #940, 1.100000000000000311 ) ;
#775 = STYLED_ITEM ( 'NONE', ( #406 ), #492 ) ;
#776 = AXIS2_PLACEMENT_3D ( 'NONE', #763, #837, #920 ) ;
#777 = CARTESIAN_POINT ( 'NONE',  ( 2.854869303374650169, 4.099999999999999645, 0.0000000000000000000 ) ) ;
#778 = ORIENTED_EDGE ( 'NONE', *, *, #444, .F. ) ;
#779 = DIRECTION ( 'NONE',  ( 1.000000000000000000, 0.0000000000000000000, 0.0000000000000000000 ) ) ;
#780 = CARTESIAN_POINT ( 'NONE',  ( -4.600000000000000533, 1.000000000000000000, 9.599999999999999645 ) ) ;
#781 = CARTESIAN_POINT ( 'NONE',  ( 5.878304635907294211E-16, 0.0000000000000000000, 4.799999999999999822 ) ) ;
#782 = CARTESIAN_POINT ( 'NONE',  ( 3.000000000000000000, 0.0000000000000000000, 9.599999999999999645 ) ) ;
#783 = DIRECTION ( 'NONE',  ( 0.0000000000000000000, 0.0000000000000000000, -1.000000000000000000 ) ) ;
#784 = DIRECTION ( 'NONE',  ( -0.0000000000000000000, -0.0000000000000000000, 1.000000000000000000 ) ) ;
#785 = EDGE_CURVE ( 'NONE', #284, #327, #794, .T. ) ;
#786 =( LENGTH_UNIT ( ) NAMED_UNIT ( * ) SI_UNIT ( .MILLI., .METRE. ) );
#787 = ORIENTED_EDGE ( 'NONE', *, *, #371, .T. ) ;
#788 = CARTESIAN_POINT ( 'NONE',  ( 5.878304635907294211E-16, 0.5000000000000002220, 4.799999999999999822 ) ) ;
#789 = CARTESIAN_POINT ( 'NONE',  ( 5.878304635907294211E-16, 3.900000000000002132, 4.799999999999999822 ) ) ;
#790 = EDGE_LOOP ( 'NONE', ( #392, #138, #62, #650 ) ) ;
#791 = LINE ( 'NONE', #853, #640 ) ;
#792 = EDGE_CURVE ( 'NONE', #587, #303, #114, .T. ) ;
#793 = AXIS2_PLACEMENT_3D ( 'NONE', #576, #350, #630 ) ;
#794 = LINE ( 'NONE', #194, #438 ) ;
#795 = AXIS2_PLACEMENT_3D ( 'NONE', #168, #376, #547 ) ;
#796 = CARTESIAN_POINT ( 'NONE',  ( -3.000000000000000000, 0.7000000000000000666, 0.0000000000000000000 ) ) ;
#797 = ORIENTED_EDGE ( 'NONE', *, *, #248, .T. ) ;
#798 = PLANE ( 'NONE',  #201 ) ;
#799 = ORIENTED_EDGE ( 'NONE', *, *, #735, .F. ) ;
#800 = CARTESIAN_POINT ( 'NONE',  ( 2.854869303374650169, 4.099999999999999645, 9.599999999999999645 ) ) ;
#801 = VERTEX_POINT ( 'NONE', #496 ) ;
#802 = EDGE_LOOP ( 'NONE', ( #821, #222, #110, #926 ) ) ;
#803 = EDGE_CURVE ( 'NONE', #327, #126, #129, .T. ) ;
#804 = DIRECTION ( 'NONE',  ( 0.0000000000000000000, 0.0000000000000000000, 1.000000000000000000 ) ) ;
#805 = ORIENTED_EDGE ( 'NONE', *, *, #836, .T. ) ;
#806 = VECTOR ( 'NONE', #324, 1000.000000000000000 ) ;
#807 = AXIS2_PLACEMENT_3D ( 'NONE', #624, #501, #488 ) ;
#808 = VERTEX_POINT ( 'NONE', #119 ) ;
#809 = PRODUCT_DEFINITION_CONTEXT ( 'detailed design', #737, 'design' ) ;
#810 = ADVANCED_FACE ( 'NONE', ( #927 ), #722, .F. ) ;
#811 = ORIENTED_EDGE ( 'NONE', *, *, #94, .T. ) ;
#812 = VECTOR ( 'NONE', #20, 1000.000000000000000 ) ;
#813 = PLANE ( 'NONE',  #504 ) ;
#814 = VECTOR ( 'NONE', #819, 1000.000000000000000 ) ;
#815 = CARTESIAN_POINT ( 'NONE',  ( 5.878304635907294211E-16, 3.900000000000002132, 4.799999999999999822 ) ) ;
#816 = ORIENTED_EDGE ( 'NONE', *, *, #541, .F. ) ;
#817 = ORIENTED_EDGE ( 'NONE', *, *, #662, .F. ) ;
#818 = CARTESIAN_POINT ( 'NONE',  ( 5.878304635907294211E-16, 0.5000000000000002220, 5.899999999999999467 ) ) ;
#819 = DIRECTION ( 'NONE',  ( -1.000000000000000000, 0.0000000000000000000, 0.0000000000000000000 ) ) ;
#820 = CARTESIAN_POINT ( 'NONE',  ( 7.225416114969382221E-16, 0.5000000000000002220, 3.699999999999999289 ) ) ;
#821 = ORIENTED_EDGE ( 'NONE', *, *, #130, .T. ) ;
#822 = DIRECTION ( 'NONE',  ( 0.0000000000000000000, -0.0000000000000000000, 1.000000000000000000 ) ) ;
#823 = DIRECTION ( 'NONE',  ( -0.0000000000000000000, 0.0000000000000000000, 1.000000000000000000 ) ) ;
#824 = ADVANCED_FACE ( 'NONE', ( #716 ), #53, .F. ) ;
#825 = CARTESIAN_POINT ( 'NONE',  ( 2.854869303374650169, 4.399999999999999467, 9.599999999999999645 ) ) ;
#826 = FACE_OUTER_BOUND ( 'NONE', #848, .T. ) ;
#827 = FACE_OUTER_BOUND ( 'NONE', #373, .T. ) ;
#828 = AXIS2_PLACEMENT_3D ( 'NONE', #205, #746, #74 ) ;
#829 = CARTESIAN_POINT ( 'NONE',  ( -4.900000000000000355, 1.000000000000000000, 0.0000000000000000000 ) ) ;
#830 = VERTEX_POINT ( 'NONE', #649 ) ;
#831 = LINE ( 'NONE', #29, #360 ) ;
#832 = EDGE_LOOP ( 'NONE', ( #433, #884, #607, #191 ) ) ;
#833 = EDGE_CURVE ( 'NONE', #113, #636, #362, .T. ) ;
#834 = DIRECTION ( 'NONE',  ( 0.0000000000000000000, 0.0000000000000000000, -1.000000000000000000 ) ) ;
#835 = CARTESIAN_POINT ( 'NONE',  ( -4.900000000000000355, 2.000000000000000000, 0.0000000000000000000 ) ) ;
#836 = EDGE_CURVE ( 'NONE', #528, #452, #345, .T. ) ;
#837 = DIRECTION ( 'NONE',  ( -0.0000000000000000000, 0.0000000000000000000, 1.000000000000000000 ) ) ;
#838 = LINE ( 'NONE', #176, #45 ) ;
#839 = FACE_OUTER_BOUND ( 'NONE', #802, .T. ) ;
#840 = LINE ( 'NONE', #170, #183 ) ;
#841 = CARTESIAN_POINT ( 'NONE',  ( -4.900000000000000355, 2.000000000000000000, 9.599999999999999645 ) ) ;
#842 = DIRECTION ( 'NONE',  ( 0.0000000000000000000, 1.000000000000000000, 0.0000000000000000000 ) ) ;
#843 = EDGE_LOOP ( 'NONE', ( #883, #550, #456, #599, #393, #724, #367, #98, #745, #245, #695, #287, #375, #554, #256, #711, #80, #445, #778, #18 ) ) ;
#844 = CYLINDRICAL_SURFACE ( 'NONE', #807, 0.2999999999999999334 ) ;
#845 = VECTOR ( 'NONE', #99, 999.9999999999998863 ) ;
#846 = AXIS2_PLACEMENT_3D ( 'NONE', #849, #551, #312 ) ;
#847 = DIRECTION ( 'NONE',  ( 0.0000000000000000000, 1.000000000000000000, 0.0000000000000000000 ) ) ;
#848 = EDGE_LOOP ( 'NONE', ( #667, #747, #78, #510 ) ) ;
#849 = CARTESIAN_POINT ( 'NONE',  ( -2.700000000000000178, 0.2999999999999999889, 0.0000000000000000000 ) ) ;
#850 = DIRECTION ( 'NONE',  ( 8.659560562354937789E-17, -0.7071067811865472397, 0.7071067811865479058 ) ) ;
#851 = ORIENTED_EDGE ( 'NONE', *, *, #40, .F. ) ;
#852 = ADVANCED_FACE ( 'NONE', ( #860 ), #502, .T. ) ;
#853 = CARTESIAN_POINT ( 'NONE',  ( -3.000000000000000000, 1.000000000000000000, 9.599999999999999645 ) ) ;
#854 = CARTESIAN_POINT ( 'NONE',  ( 5.878304635907294211E-16, 0.0000000000000000000, 4.799999999999999822 ) ) ;
#855 = CARTESIAN_POINT ( 'NONE',  ( 3.000000000000000000, 0.0000000000000000000, 9.599999999999999645 ) ) ;
#856 = DIRECTION ( 'NONE',  ( 0.0000000000000000000, -0.0000000000000000000, -1.000000000000000000 ) ) ;
#857 =( LENGTH_UNIT ( ) NAMED_UNIT ( * ) SI_UNIT ( .MILLI., .METRE. ) );
#858 = ADVANCED_FACE ( 'NONE', ( #264 ), #692, .F. ) ;
#859 = DIRECTION ( 'NONE',  ( -0.0000000000000000000, -1.000000000000000000, -0.0000000000000000000 ) ) ;
#860 = FACE_OUTER_BOUND ( 'NONE', #655, .T. ) ;
#861 = DIRECTION ( 'NONE',  ( -0.0000000000000000000, -0.0000000000000000000, 1.000000000000000000 ) ) ;
#862 = EDGE_LOOP ( 'NONE', ( #714, #66, #410, #295 ) ) ;
#863 = UNCERTAINTY_MEASURE_WITH_UNIT (LENGTH_MEASURE( 1.000000000000000082E-05 ), #635, 'distance_accuracy_value', 'NONE');
#864 = DIRECTION ( 'NONE',  ( 1.000000000000000000, 0.0000000000000000000, 0.0000000000000000000 ) ) ;
#865 = VECTOR ( 'NONE', #50, 1000.000000000000000 ) ;
#866 = AXIS2_PLACEMENT_3D ( 'NONE', #266, #259, #703 ) ;
#867 = AXIS2_PLACEMENT_3D ( 'NONE', #588, #893, #734 ) ;
#868 = AXIS2_PLACEMENT_3D ( 'NONE', #815, #604, #88 ) ;
#869 = CARTESIAN_POINT ( 'NONE',  ( 4.900000000000000355, 1.895624383210084973, 0.0000000000000000000 ) ) ;
#870 = DIRECTION ( 'NONE',  ( 0.0000000000000000000, 1.000000000000000000, 0.0000000000000000000 ) ) ;
#871 = ADVANCED_FACE ( 'NONE', ( #827 ), #173, .T. ) ;
#872 = ORIENTED_EDGE ( 'NONE', *, *, #460, .F. ) ;
#873 = CARTESIAN_POINT ( 'NONE',  ( 5.878304635907294211E-16, 3.900000000000002132, 4.799999999999999822 ) ) ;
#874 = ORIENTED_EDGE ( 'NONE', *, *, #7, .T. ) ;
#875 = DIRECTION ( 'NONE',  ( 0.0000000000000000000, 1.000000000000000000, 0.0000000000000000000 ) ) ;
#876 = ORIENTED_EDGE ( 'NONE', *, *, #67, .T. ) ;
#877 = VECTOR ( 'NONE', #89, 1000.000000000000000 ) ;
#878 = VECTOR ( 'NONE', #497, 1000.000000000000000 ) ;
#879 = AXIS2_PLACEMENT_3D ( 'NONE', #390, #823, #19 ) ;
#880 = ADVANCED_FACE ( 'NONE', ( #535 ), #400, .T. ) ;
#881 = DIRECTION ( 'NONE',  ( 0.0000000000000000000, -0.0000000000000000000, 1.000000000000000000 ) ) ;
#882 = SURFACE_SIDE_STYLE ('',( #681 ) ) ;
#883 = ORIENTED_EDGE ( 'NONE', *, *, #94, .F. ) ;
#884 = ORIENTED_EDGE ( 'NONE', *, *, #346, .T. ) ;
#885 = ORIENTED_EDGE ( 'NONE', *, *, #567, .F. ) ;
#886 = AXIS2_PLACEMENT_3D ( 'NONE', #571, #184, #332 ) ;
#887 = DIRECTION ( 'NONE',  ( 0.0000000000000000000, -0.0000000000000000000, -1.000000000000000000 ) ) ;
#888 = CIRCLE ( 'NONE', #483, 0.2999999999999999334 ) ;
#889 = VECTOR ( 'NONE', #644, 1000.000000000000000 ) ;
#890 = LINE ( 'NONE', #464, #167 ) ;
#891 = ORIENTED_EDGE ( 'NONE', *, *, #894, .T. ) ;
#892 = ORIENTED_EDGE ( 'NONE', *, *, #505, .T. ) ;
#893 = DIRECTION ( 'NONE',  ( -0.0000000000000000000, -1.000000000000000000, -0.0000000000000000000 ) ) ;
#894 = EDGE_CURVE ( 'NONE', #462, #284, #104, .T. ) ;
#895 = ORIENTED_EDGE ( 'NONE', *, *, #278, .T. ) ;
#896 = DIRECTION ( 'NONE',  ( 0.0000000000000000000, 0.0000000000000000000, -1.000000000000000000 ) ) ;
#897 = CARTESIAN_POINT ( 'NONE',  ( 4.600000000000000533, 1.895624383210084973, 0.0000000000000000000 ) ) ;
#898 = CARTESIAN_POINT ( 'NONE',  ( 3.299999999999999822, 0.7000000000000000666, 0.0000000000000000000 ) ) ;
#899 = DIRECTION ( 'NONE',  ( 1.000000000000000000, 0.0000000000000000000, 0.0000000000000000000 ) ) ;
#900 = CARTESIAN_POINT ( 'NONE',  ( 4.600000000000000533, 1.000000000000000000, 0.0000000000000000000 ) ) ;
#901 = ORIENTED_EDGE ( 'NONE', *, *, #288, .T. ) ;
#902 = CIRCLE ( 'NONE', #866, 0.2999999999999999334 ) ;
#903 = DIRECTION ( 'NONE',  ( -0.0000000000000000000, -1.000000000000000000, -0.0000000000000000000 ) ) ;
#904 = CIRCLE ( 'NONE', #10, 1.599999999999998979 ) ;
#905 = EDGE_CURVE ( 'NONE', #919, #341, #214, .T. ) ;
#906 = AXIS2_PLACEMENT_3D ( 'NONE', #172, #613, #396 ) ;
#907 = DIRECTION ( 'NONE',  ( 1.000000000000000000, 0.0000000000000000000, 0.0000000000000000000 ) ) ;
#908 = ORIENTED_EDGE ( 'NONE', *, *, #836, .F. ) ;
#909 = LINE ( 'NONE', #469, #845 ) ;
#910 = CARTESIAN_POINT ( 'NONE',  ( 3.000000000000000000, 0.7000000000000000666, 0.0000000000000000000 ) ) ;
#911 = EDGE_LOOP ( 'NONE', ( #704, #118, #901, #149 ) ) ;
#912 = SURFACE_STYLE_USAGE ( .BOTH. , #415 ) ;
#913 = DIRECTION ( 'NONE',  ( -0.0000000000000000000, 0.0000000000000000000, 1.000000000000000000 ) ) ;
#914 = DIRECTION ( 'NONE',  ( -1.000000000000000000, 0.0000000000000000000, 0.0000000000000000000 ) ) ;
#915 = DIRECTION ( 'NONE',  ( 0.0000000000000000000, 0.0000000000000000000, -1.000000000000000000 ) ) ;
#916 = PRODUCT_CONTEXT ( 'NONE', #83, 'mechanical' ) ;
#917 = CARTESIAN_POINT ( 'NONE',  ( -3.090083050713178903, 4.286210883309668596, 0.0000000000000000000 ) ) ;
#918 = CARTESIAN_POINT ( 'NONE',  ( 5.878304635907294211E-16, 3.900000000000002132, 5.899999999999999467 ) ) ;
#919 = VERTEX_POINT ( 'NONE', #748 ) ;
#920 = DIRECTION ( 'NONE',  ( 1.000000000000000000, 0.0000000000000000000, 0.0000000000000000000 ) ) ;
#921 = EDGE_CURVE ( 'NONE', #636, #113, #370, .T. ) ;
#922 = CARTESIAN_POINT ( 'NONE',  ( -3.299999999999999822, 1.000000000000000000, 9.599999999999999645 ) ) ;
#923 = AXIS2_PLACEMENT_3D ( 'NONE', #897, #228, #391 ) ;
#924 = AXIS2_PLACEMENT_3D ( 'NONE', #602, #887, #63 ) ;
#925 = AXIS2_PLACEMENT_3D ( 'NONE', #855, #930, #49 ) ;
#926 = ORIENTED_EDGE ( 'NONE', *, *, #905, .T. ) ;
#927 = FACE_OUTER_BOUND ( 'NONE', #144, .T. ) ;
#928 = FACE_OUTER_BOUND ( 'NONE', #321, .T. ) ;
#929 = SURFACE_SIDE_STYLE ('',( #344 ) ) ;
#930 = DIRECTION ( 'NONE',  ( -1.000000000000000000, 0.0000000000000000000, 0.0000000000000000000 ) ) ;
#931 = CARTESIAN_POINT ( 'NONE',  ( 3.000000000000000000, 0.2999999999999999889, 0.0000000000000000000 ) ) ;
#932 = CARTESIAN_POINT ( 'NONE',  ( 3.090083050713178903, 4.286210883309668596, 9.599999999999999645 ) ) ;
#933 = DIRECTION ( 'NONE',  ( 0.0000000000000000000, 0.0000000000000000000, 1.000000000000000000 ) ) ;
#934 = EDGE_CURVE ( 'NONE', #87, #749, #890, .T. ) ;
#935 = ORIENTED_EDGE ( 'NONE', *, *, #598, .T. ) ;
#936 = FACE_OUTER_BOUND ( 'NONE', #707, .T. ) ;
#937 = VERTEX_POINT ( 'NONE', #158 ) ;
#938 = VECTOR ( 'NONE', #850, 999.9999999999998863 ) ;
#939 = EDGE_CURVE ( 'NONE', #808, #687, #381, .T. ) ;
#940 = AXIS2_PLACEMENT_3D ( 'NONE', #781, #52, #508 ) ;
#941 = MANIFOLD_SOLID_BREP ( 'Фаска2', #59 ) ;
#942 = COLOUR_RGB ( '',0.7803921568627451011, 0.7607843137254901578, 0.7411764705882353255 ) ;
#943 =( GEOMETRIC_REPRESENTATION_CONTEXT ( 3 ) GLOBAL_UNCERTAINTY_ASSIGNED_CONTEXT ( ( #863 ) ) GLOBAL_UNIT_ASSIGNED_CONTEXT ( ( #635, #575, #569 ) ) REPRESENTATION_CONTEXT ( 'NONE', 'WORKASPACE' ) );
#944 = EDGE_LOOP ( 'NONE', ( #467, #317, #458, #482 ) ) ;
#945 = DIRECTION ( 'NONE',  ( 0.6207029443655612821, -0.7840458244617611872, 0.0000000000000000000 ) ) ;
#946 = LINE ( 'NONE', #289, #123 ) ;
#947 = ADVANCED_FACE ( 'NONE', ( #470 ), #282, .F. ) ;
#948 = CIRCLE ( 'NONE', #298, 0.2999999999999999334 ) ;
#949 = CIRCLE ( 'NONE', #25, 0.2999999999999999334 ) ;
#950 =( GEOMETRIC_REPRESENTATION_CONTEXT ( 3 ) GLOBAL_UNCERTAINTY_ASSIGNED_CONTEXT ( ( #440 ) ) GLOBAL_UNIT_ASSIGNED_CONTEXT ( ( #6, #305, #629 ) ) REPRESENTATION_CONTEXT ( 'NONE', 'WORKASPACE' ) );
#951 = EDGE_CURVE ( 'NONE', #265, #177, #450, .T. ) ;
#952 = EDGE_CURVE ( 'NONE', #180, #265, #454, .T. ) ;
#953 = ORIENTED_EDGE ( 'NONE', *, *, #384, .T. ) ;
#954 = FACE_OUTER_BOUND ( 'NONE', #581, .T. ) ;
ENDSEC;
END-ISO-10303-21;
