ISO-10303-21;
HEADER;
FILE_DESCRIPTION(('STEP AP242'),
    '1');
FILE_NAME('Корпус',
    '',
    ('UNSPECIFIED'),
    ('UNSPECIFIED'),
    'C3D Converter',
    'C3D Toolkit',
    '');
FILE_SCHEMA(('AP242_MANAGED_MODEL_BASED_3D_ENGINEERING_MIM_LF { 1 0 10303 442 1 1 4 }'));
ENDSEC;

DATA;
#1=PRODUCT_DEFINITION('','UNSPECIFIED',#39,#42);
#2=SHAPE_DEFINITION_REPRESENTATION(#37,#3);
#3=SHAPE_REPRESENTATION('NONE',(#4),#8);
#4=AXIS2_PLACEMENT_3D('',#5,#6,#7);
#5=CARTESIAN_POINT('',(0.,0.,0.));
#6=DIRECTION('',(0.,0.,1.));
#7=DIRECTION('',(1.,0.,0.));
#8=(GEOMETRIC_REPRESENTATION_CONTEXT(3)GLOBAL_UNCERTAINTY_ASSIGNED_CONTEXT((#10))
GLOBAL_UNIT_ASSIGNED_CONTEXT((#9,#11,#12))REPRESENTATION_CONTEXT('NONE','NONE'));
#9=(LENGTH_UNIT()NAMED_UNIT(*)SI_UNIT(.MILLI.,.METRE.));
#10=UNCERTAINTY_MEASURE_WITH_UNIT(LENGTH_MEASURE(1.E-5),#9,'NONE','NONE');
#11=(NAMED_UNIT(*)PLANE_ANGLE_UNIT()SI_UNIT($,.RADIAN.));
#12=(NAMED_UNIT(*)SI_UNIT($,.STERADIAN.)SOLID_ANGLE_UNIT());
#13=MANIFOLD_SOLID_BREP('',#14);
#14=CLOSED_SHELL('',(#64,#65,#66,#67,#68,#69,#70,#71,#72,#73,#74,#75,#76,#77,#78,
#79,#80,#81,#82,#83,#84,#85,#86,#87,#88,#89,#90,#91,#92,#93,#94,#95,#96,#97,#98,
#99,#100,#101,#102,#103,#104,#105,#106,#107,#108,#109,#110,#111,#112,#113,#114,#115));
#15=COLOUR_RGB('',0.4,0.698039215686275,1.);
#16=FILL_AREA_STYLE_COLOUR('',#15);
#17=FILL_AREA_STYLE($,(#16));
#18=SURFACE_STYLE_FILL_AREA(#17);
#19=SURFACE_SIDE_STYLE('',(#18));
#20=SURFACE_STYLE_USAGE(.BOTH.,#19);
#21=PRESENTATION_STYLE_ASSIGNMENT((#20));
#22=MECHANICAL_DESIGN_GEOMETRIC_PRESENTATION_REPRESENTATION('NONE',(#23,#34),#8);
#23=STYLED_ITEM('',(#21),#13);
#24=INVISIBILITY((#23));
#25=MANIFOLD_SOLID_BREP('',#26);
#26=CLOSED_SHELL('',(#116,#117,#118,#119,#120,#121,#122,#123,#124,#125,#126,#127,
#128,#129,#130,#131,#132));
#27=COLOUR_RGB('',0.4,0.698039215686275,1.);
#28=FILL_AREA_STYLE_COLOUR('',#27);
#29=FILL_AREA_STYLE($,(#28));
#30=SURFACE_STYLE_FILL_AREA(#29);
#31=SURFACE_SIDE_STYLE('',(#30));
#32=SURFACE_STYLE_USAGE(.BOTH.,#31);
#33=PRESENTATION_STYLE_ASSIGNMENT((#32));
#34=STYLED_ITEM('',(#33),#25);
#35=ADVANCED_BREP_SHAPE_REPRESENTATION('NONE',(#13,#25),#8);
#36=SHAPE_REPRESENTATION_RELATIONSHIP('','',#3,#35);
#37=PRODUCT_DEFINITION_SHAPE('NONE','NONE',#1);
#38=MECHANICAL_CONTEXT('NONE',#43,'mechanical');
#39=PRODUCT_DEFINITION_FORMATION_WITH_SPECIFIED_SOURCE('ANY','UNSPECIFIED',#40,.NOT_KNOWN.);
#40=PRODUCT('','\X2\041A043E0440043F04430441\X0\','NONE',(#38));
#41=PRODUCT_RELATED_PRODUCT_CATEGORY('detail','',(#40));
#42=DESIGN_CONTEXT('detailed design',#43,'design');
#43=APPLICATION_CONTEXT('configuration controlled 3d designs of mechanical parts and assemblies');
#44=APPLICATION_PROTOCOL_DEFINITION('international standard','config_control_design',
1994,#43);
#45=CC_DESIGN_DATE_AND_TIME_ASSIGNMENT(#46,#50,(#1));
#46=DATE_AND_TIME(#47,#48);
#47=CALENDAR_DATE(0,1,1);
#48=LOCAL_TIME(0,0,0.,#49);
#49=COORDINATED_UNIVERSAL_TIME_OFFSET(0,0,.AHEAD.);
#50=DATE_TIME_ROLE('creation_date');
#51=CC_DESIGN_APPROVAL(#52,(#1));
#52=APPROVAL(#53,'UNSPECIFIED');
#53=APPROVAL_STATUS('not_yet_approved');
#54=APPROVAL_DATE_TIME(#55,#52);
#55=DATE_AND_TIME(#56,#57);
#56=CALENDAR_DATE(0,1,1);
#57=LOCAL_TIME(0,0,0.,#58);
#58=COORDINATED_UNIVERSAL_TIME_OFFSET(0,0,.AHEAD.);
#59=PERSON('UNSPECIFIED','Admin','UNSPECIFIED',('UNSPECIFIED'),('UNSPECIFIED'),(
'UNSPECIFIED'));
#60=ORGANIZATION('UNSPECIFIED','UNSPECIFIED','UNSPECIFIED');
#61=PERSON_AND_ORGANIZATION(#59,#60);
#62=PERSON_AND_ORGANIZATION_ROLE('creator');
#63=CC_DESIGN_PERSON_AND_ORGANIZATION_ASSIGNMENT(#61,#62,(#39,#1));
#64=ADVANCED_FACE('',(#133,#135),#137,.T.);
#65=ADVANCED_FACE('',(#142,#144),#146,.T.);
#66=ADVANCED_FACE('',(#151,#153),#155,.F.);
#67=ADVANCED_FACE('',(#160,#162),#164,.F.);
#68=ADVANCED_FACE('',(#169),#171,.T.);
#69=ADVANCED_FACE('',(#176),#178,.F.);
#70=ADVANCED_FACE('',(#183,#185,#187,#189,#191),#193,.T.);
#71=ADVANCED_FACE('',(#198),#200,.F.);
#72=ADVANCED_FACE('',(#205),#207,.T.);
#73=ADVANCED_FACE('',(#212),#214,.T.);
#74=ADVANCED_FACE('',(#219,#221),#223,.T.);
#75=ADVANCED_FACE('',(#228),#230,.T.);
#76=ADVANCED_FACE('',(#235,#237),#239,.T.);
#77=ADVANCED_FACE('',(#244),#246,.T.);
#78=ADVANCED_FACE('',(#251),#253,.T.);
#79=ADVANCED_FACE('',(#258),#260,.T.);
#80=ADVANCED_FACE('',(#265),#267,.T.);
#81=ADVANCED_FACE('',(#272),#274,.T.);
#82=ADVANCED_FACE('',(#279),#281,.T.);
#83=ADVANCED_FACE('',(#286),#288,.T.);
#84=ADVANCED_FACE('',(#293),#295,.T.);
#85=ADVANCED_FACE('',(#300),#302,.T.);
#86=ADVANCED_FACE('',(#307),#309,.T.);
#87=ADVANCED_FACE('',(#314),#316,.T.);
#88=ADVANCED_FACE('',(#321),#323,.T.);
#89=ADVANCED_FACE('',(#328),#330,.T.);
#90=ADVANCED_FACE('',(#335),#337,.T.);
#91=ADVANCED_FACE('',(#342),#344,.T.);
#92=ADVANCED_FACE('',(#349),#351,.T.);
#93=ADVANCED_FACE('',(#356,#358),#360,.F.);
#94=ADVANCED_FACE('',(#365),#367,.F.);
#95=ADVANCED_FACE('',(#372,#374,#376),#378,.T.);
#96=ADVANCED_FACE('',(#383),#385,.T.);
#97=ADVANCED_FACE('',(#390,#392,#394,#396,#398),#400,.T.);
#98=ADVANCED_FACE('',(#405),#407,.F.);
#99=ADVANCED_FACE('',(#412),#414,.F.);
#100=ADVANCED_FACE('',(#419),#421,.F.);
#101=ADVANCED_FACE('',(#426),#428,.F.);
#102=ADVANCED_FACE('',(#433),#435,.F.);
#103=ADVANCED_FACE('',(#440),#442,.F.);
#104=ADVANCED_FACE('',(#447),#449,.F.);
#105=ADVANCED_FACE('',(#454),#456,.F.);
#106=ADVANCED_FACE('',(#461,#463),#465,.F.);
#107=ADVANCED_FACE('',(#470,#472),#474,.F.);
#108=ADVANCED_FACE('',(#479,#481),#483,.F.);
#109=ADVANCED_FACE('',(#488,#490),#492,.F.);
#110=ADVANCED_FACE('',(#497),#499,.T.);
#111=ADVANCED_FACE('',(#504,#506),#508,.T.);
#112=ADVANCED_FACE('',(#513),#515,.T.);
#113=ADVANCED_FACE('',(#520),#522,.F.);
#114=ADVANCED_FACE('',(#527,#529),#531,.F.);
#115=ADVANCED_FACE('',(#536,#538),#540,.F.);
#116=ADVANCED_FACE('',(#545,#547,#549,#551,#553,#555),#557,.T.);
#117=ADVANCED_FACE('',(#562,#564,#566,#568,#570,#572),#574,.T.);
#118=ADVANCED_FACE('',(#579,#581),#583,.F.);
#119=ADVANCED_FACE('',(#588,#590),#592,.F.);
#120=ADVANCED_FACE('',(#597),#599,.T.);
#121=ADVANCED_FACE('',(#604),#606,.T.);
#122=ADVANCED_FACE('',(#611),#613,.T.);
#123=ADVANCED_FACE('',(#618),#620,.T.);
#124=ADVANCED_FACE('',(#625),#627,.F.);
#125=ADVANCED_FACE('',(#632),#634,.F.);
#126=ADVANCED_FACE('',(#639),#641,.F.);
#127=ADVANCED_FACE('',(#646),#648,.F.);
#128=ADVANCED_FACE('',(#653,#655),#657,.F.);
#129=ADVANCED_FACE('',(#662,#664),#666,.F.);
#130=ADVANCED_FACE('',(#671),#673,.F.);
#131=ADVANCED_FACE('',(#678),#680,.T.);
#132=ADVANCED_FACE('',(#685),#687,.T.);
#133=FACE_BOUND('',#134,.T.);
#134=EDGE_LOOP('',(#692,#693,#694,#695));
#135=FACE_BOUND('',#136,.T.);
#136=EDGE_LOOP('',(#696));
#137=PLANE('',#138);
#138=AXIS2_PLACEMENT_3D('',#139,#140,#141);
#139=CARTESIAN_POINT('',(52.,-64.,-21.5));
#140=DIRECTION('',(-1.,0.,0.));
#141=DIRECTION('',(0.,0.,1.));
#142=FACE_BOUND('',#143,.T.);
#143=EDGE_LOOP('',(#697,#698,#699,#700,#701,#702));
#144=FACE_BOUND('',#145,.T.);
#145=EDGE_LOOP('',(#703));
#146=PLANE('',#147);
#147=AXIS2_PLACEMENT_3D('',#148,#149,#150);
#148=CARTESIAN_POINT('',(55.,-1.50019232895551E-15,24.5));
#149=DIRECTION('',(1.,0.,0.));
#150=DIRECTION('',(0.,6.12323399573677E-17,-1.));
#151=FACE_OUTER_BOUND('',#152,.T.);
#152=EDGE_LOOP('',(#704));
#153=FACE_OUTER_BOUND('',#154,.T.);
#154=EDGE_LOOP('',(#705));
#155=CYLINDRICAL_SURFACE('',#156,2.6);
#156=AXIS2_PLACEMENT_3D('',#157,#158,#159);
#157=CARTESIAN_POINT('',(45.,-32.,-11.5));
#158=DIRECTION('',(1.,0.,0.));
#159=DIRECTION('',(0.,1.,6.12323399573677E-17));
#160=FACE_BOUND('',#161,.T.);
#161=EDGE_LOOP('',(#706,#707,#708,#709,#710,#711,#712,#713,#714,#715,#716,#717,#718,
#719,#720,#721,#722,#723,#724,#725));
#162=FACE_BOUND('',#163,.T.);
#163=EDGE_LOOP('',(#726));
#164=PLANE('',#165);
#165=AXIS2_PLACEMENT_3D('',#166,#167,#168);
#166=CARTESIAN_POINT('',(0.,0.,0.));
#167=DIRECTION('',(0.,1.,6.12323399573677E-17));
#168=DIRECTION('',(-1.,7.49879891330929E-33,-1.22464679914735E-16));
#169=FACE_BOUND('',#170,.T.);
#170=EDGE_LOOP('',(#727,#728,#729,#730));
#171=PLANE('',#172);
#172=AXIS2_PLACEMENT_3D('',#173,#174,#175);
#173=CARTESIAN_POINT('',(7.5,-64.,-21.5));
#174=DIRECTION('',(-2.39508787334865E-16,-5.55111512312578E-17,1.));
#175=DIRECTION('',(1.,0.,2.39508787334865E-16));
#176=FACE_BOUND('',#177,.T.);
#177=EDGE_LOOP('',(#731,#732,#733,#734,#735,#736,#737,#738,#739,#740,#741,#742,#743,
#744,#745,#746,#747,#748,#749,#750,#751,#752,#753,#754,#755,#756));
#178=PLANE('',#179);
#179=AXIS2_PLACEMENT_3D('',#180,#181,#182);
#180=CARTESIAN_POINT('',(0.,-64.,-3.91886975727153E-15));
#181=DIRECTION('',(0.,1.,6.12323399573677E-17));
#182=DIRECTION('',(-1.,7.49879891330929E-33,-1.22464679914735E-16));
#183=FACE_BOUND('',#184,.T.);
#184=EDGE_LOOP('',(#757,#758,#759,#760,#761,#762,#763));
#185=FACE_BOUND('',#186,.T.);
#186=EDGE_LOOP('',(#764));
#187=FACE_BOUND('',#188,.T.);
#188=EDGE_LOOP('',(#765));
#189=FACE_BOUND('',#190,.T.);
#190=EDGE_LOOP('',(#766));
#191=FACE_BOUND('',#192,.T.);
#192=EDGE_LOOP('',(#767));
#193=PLANE('',#194);
#194=AXIS2_PLACEMENT_3D('',#195,#196,#197);
#195=CARTESIAN_POINT('',(52.,-64.,-1.49999999999999));
#196=DIRECTION('',(1.55858232303147E-16,6.2450045135165E-17,-1.));
#197=DIRECTION('',(-1.,0.,-1.55858232303147E-16));
#198=FACE_BOUND('',#199,.T.);
#199=EDGE_LOOP('',(#768,#769,#770,#771,#772,#773,#774,#775,#776,#777));
#200=PLANE('',#201);
#201=AXIS2_PLACEMENT_3D('',#202,#203,#204);
#202=CARTESIAN_POINT('',(0.,0.,0.));
#203=DIRECTION('',(0.,1.,6.12323399573677E-17));
#204=DIRECTION('',(-1.,7.49879891330929E-33,-1.22464679914735E-16));
#205=FACE_BOUND('',#206,.T.);
#206=EDGE_LOOP('',(#778,#779,#780,#781));
#207=PLANE('',#208);
#208=AXIS2_PLACEMENT_3D('',#209,#210,#211);
#209=CARTESIAN_POINT('',(52.,-64.,21.5));
#210=DIRECTION('',(0.,-5.55111512312578E-17,1.));
#211=DIRECTION('',(1.,0.,0.));
#212=FACE_BOUND('',#213,.T.);
#213=EDGE_LOOP('',(#782,#783,#784,#785,#786,#787));
#214=PLANE('',#215);
#215=AXIS2_PLACEMENT_3D('',#216,#217,#218);
#216=CARTESIAN_POINT('',(55.,1.50019232895551E-15,-24.5));
#217=DIRECTION('',(1.61486985400023E-16,0.,-1.));
#218=DIRECTION('',(-1.,8.96432846842059E-33,-1.61486985400023E-16));
#219=FACE_BOUND('',#220,.T.);
#220=EDGE_LOOP('',(#788,#789,#790,#791));
#221=FACE_BOUND('',#222,.T.);
#222=EDGE_LOOP('',(#792));
#223=PLANE('',#224);
#224=AXIS2_PLACEMENT_3D('',#225,#226,#227);
#225=CARTESIAN_POINT('',(0.,3.,1.83697019872103E-16));
#226=DIRECTION('',(0.,1.,6.12323399573677E-17));
#227=DIRECTION('',(-1.,7.49879891330929E-33,-1.22464679914735E-16));
#228=FACE_BOUND('',#229,.T.);
#229=EDGE_LOOP('',(#793,#794,#795,#796));
#230=PLANE('',#231);
#231=AXIS2_PLACEMENT_3D('',#232,#233,#234);
#232=CARTESIAN_POINT('',(-55.,-1.50019232895551E-15,24.5));
#233=DIRECTION('',(-1.61486985400023E-16,0.,1.));
#234=DIRECTION('',(1.,-8.96432846842059E-33,1.61486985400023E-16));
#235=FACE_BOUND('',#236,.T.);
#236=EDGE_LOOP('',(#797,#798,#799,#800));
#237=FACE_BOUND('',#238,.T.);
#238=EDGE_LOOP('',(#801));
#239=PLANE('',#240);
#240=AXIS2_PLACEMENT_3D('',#241,#242,#243);
#241=CARTESIAN_POINT('',(-49.,-10.,-1.5));
#242=DIRECTION('',(1.,0.,0.));
#243=DIRECTION('',(0.,8.88178419700125E-17,-1.));
#244=FACE_BOUND('',#245,.T.);
#245=EDGE_LOOP('',(#802,#803,#804,#805,#806,#807));
#246=PLANE('',#247);
#247=AXIS2_PLACEMENT_3D('',#248,#249,#250);
#248=CARTESIAN_POINT('',(-52.,-64.,-21.5));
#249=DIRECTION('',(0.,-5.55111512312578E-17,1.));
#250=DIRECTION('',(1.,0.,0.));
#251=FACE_BOUND('',#252,.T.);
#252=EDGE_LOOP('',(#808,#809,#810,#811));
#253=PLANE('',#254);
#254=AXIS2_PLACEMENT_3D('',#255,#256,#257);
#255=CARTESIAN_POINT('',(-41.5,-64.,-21.5));
#256=DIRECTION('',(-1.,0.,0.));
#257=DIRECTION('',(0.,0.,1.));
#258=FACE_BOUND('',#259,.T.);
#259=EDGE_LOOP('',(#812,#813,#814,#815));
#260=PLANE('',#261);
#261=AXIS2_PLACEMENT_3D('',#262,#263,#264);
#262=CARTESIAN_POINT('',(-41.5,-64.,-15.5));
#263=DIRECTION('',(0.,-5.55111512312578E-17,1.));
#264=DIRECTION('',(1.,0.,0.));
#265=FACE_BOUND('',#266,.T.);
#266=EDGE_LOOP('',(#816,#817,#818,#819,#820));
#267=PLANE('',#268);
#268=AXIS2_PLACEMENT_3D('',#269,#270,#271);
#269=CARTESIAN_POINT('',(-36.5,-64.,-15.5));
#270=DIRECTION('',(1.,0.,0.));
#271=DIRECTION('',(0.,0.,-1.));
#272=FACE_BOUND('',#273,.T.);
#273=EDGE_LOOP('',(#821,#822,#823,#824));
#274=PLANE('',#275);
#275=AXIS2_PLACEMENT_3D('',#276,#277,#278);
#276=CARTESIAN_POINT('',(-36.5,-64.,-17.3));
#277=DIRECTION('',(0.,5.55111512312578E-17,-1.));
#278=DIRECTION('',(-1.,0.,0.));
#279=FACE_BOUND('',#280,.T.);
#280=EDGE_LOOP('',(#825,#826,#827,#828));
#281=PLANE('',#282);
#282=AXIS2_PLACEMENT_3D('',#283,#284,#285);
#283=CARTESIAN_POINT('',(-38.,-64.,-17.3));
#284=DIRECTION('',(1.,0.,0.));
#285=DIRECTION('',(0.,0.,-1.));
#286=FACE_BOUND('',#287,.T.);
#287=EDGE_LOOP('',(#829,#830,#831,#832));
#288=PLANE('',#289);
#289=AXIS2_PLACEMENT_3D('',#290,#291,#292);
#290=CARTESIAN_POINT('',(-38.,-64.,-18.5));
#291=DIRECTION('',(0.,-5.55111512312578E-17,1.));
#292=DIRECTION('',(1.,0.,0.));
#293=FACE_BOUND('',#294,.T.);
#294=EDGE_LOOP('',(#833,#834,#835,#836,#837));
#295=PLANE('',#296);
#296=AXIS2_PLACEMENT_3D('',#297,#298,#299);
#297=CARTESIAN_POINT('',(-36.5,-64.,-18.5));
#298=DIRECTION('',(1.,1.31476817536835E-31,-2.368475785867E-15));
#299=DIRECTION('',(-2.368475785867E-15,0.,-1.));
#300=FACE_BOUND('',#301,.T.);
#301=EDGE_LOOP('',(#838,#839,#840,#841));
#302=PLANE('',#303);
#303=AXIS2_PLACEMENT_3D('',#304,#305,#306);
#304=CARTESIAN_POINT('',(-36.5,-64.,-21.5));
#305=DIRECTION('',(-1.82190445066692E-16,-5.55111512312578E-17,1.));
#306=DIRECTION('',(1.,0.,1.82190445066692E-16));
#307=FACE_BOUND('',#308,.T.);
#308=EDGE_LOOP('',(#842,#843,#844,#845,#846));
#309=PLANE('',#310);
#310=AXIS2_PLACEMENT_3D('',#311,#312,#313);
#311=CARTESIAN_POINT('',(2.5,-64.,-21.5));
#312=DIRECTION('',(-1.,1.64346021921044E-32,-2.96059473233375E-16));
#313=DIRECTION('',(-2.96059473233375E-16,0.,1.));
#314=FACE_BOUND('',#315,.T.);
#315=EDGE_LOOP('',(#847,#848,#849,#850));
#316=PLANE('',#317);
#317=AXIS2_PLACEMENT_3D('',#318,#319,#320);
#318=CARTESIAN_POINT('',(2.50000000000001,-64.,-18.5));
#319=DIRECTION('',(0.,-5.55111512312578E-17,1.));
#320=DIRECTION('',(1.,0.,0.));
#321=FACE_BOUND('',#322,.T.);
#322=EDGE_LOOP('',(#851,#852,#853,#854));
#323=PLANE('',#324);
#324=AXIS2_PLACEMENT_3D('',#325,#326,#327);
#325=CARTESIAN_POINT('',(4.00000000000001,-64.,-18.5));
#326=DIRECTION('',(-1.,4.10865054802611E-32,-7.40148683083438E-16));
#327=DIRECTION('',(-7.40148683083438E-16,0.,1.));
#328=FACE_BOUND('',#329,.T.);
#329=EDGE_LOOP('',(#855,#856,#857,#858));
#330=PLANE('',#331);
#331=AXIS2_PLACEMENT_3D('',#332,#333,#334);
#332=CARTESIAN_POINT('',(4.00000000000001,-64.,-17.3));
#333=DIRECTION('',(0.,5.55111512312578E-17,-1.));
#334=DIRECTION('',(-1.,0.,0.));
#335=FACE_BOUND('',#336,.T.);
#336=EDGE_LOOP('',(#859,#860,#861,#862,#863));
#337=PLANE('',#338);
#338=AXIS2_PLACEMENT_3D('',#339,#340,#341);
#339=CARTESIAN_POINT('',(2.5,-64.,-17.3));
#340=DIRECTION('',(-1.,1.36955018267537E-32,-2.46716227694479E-16));
#341=DIRECTION('',(-2.46716227694479E-16,0.,1.));
#342=FACE_BOUND('',#343,.T.);
#343=EDGE_LOOP('',(#864,#865,#866,#867));
#344=PLANE('',#345);
#345=AXIS2_PLACEMENT_3D('',#346,#347,#348);
#346=CARTESIAN_POINT('',(2.5,-64.,-15.5));
#347=DIRECTION('',(0.,-5.55111512312578E-17,1.));
#348=DIRECTION('',(1.,0.,0.));
#349=FACE_BOUND('',#350,.T.);
#350=EDGE_LOOP('',(#868,#869,#870,#871));
#351=PLANE('',#352);
#352=AXIS2_PLACEMENT_3D('',#353,#354,#355);
#353=CARTESIAN_POINT('',(7.5,-64.,-15.5));
#354=DIRECTION('',(1.,-2.46519032881566E-32,2.96059473233375E-16));
#355=DIRECTION('',(2.96059473233375E-16,0.,-1.));
#356=FACE_OUTER_BOUND('',#357,.T.);
#357=EDGE_LOOP('',(#872));
#358=FACE_OUTER_BOUND('',#359,.T.);
#359=EDGE_LOOP('',(#873));
#360=CYLINDRICAL_SURFACE('',#361,6.);
#361=AXIS2_PLACEMENT_3D('',#362,#363,#364);
#362=CARTESIAN_POINT('',(29.75,7.04171909509728E-16,-11.5));
#363=DIRECTION('',(0.,1.,6.12323399573676E-17));
#364=DIRECTION('',(-1.,7.49879891330928E-33,-1.22464679914735E-16));
#365=FACE_BOUND('',#366,.T.);
#366=EDGE_LOOP('',(#874,#875,#876,#877));
#367=PLANE('',#368);
#368=AXIS2_PLACEMENT_3D('',#369,#370,#371);
#369=CARTESIAN_POINT('',(-34.5,-63.5,-17.3));
#370=DIRECTION('',(0.,0.70710678118655,0.707106781186545));
#371=DIRECTION('',(-1.,0.,0.));
#372=FACE_BOUND('',#373,.T.);
#373=EDGE_LOOP('',(#878,#879,#880,#881,#882,#883));
#374=FACE_BOUND('',#375,.T.);
#375=EDGE_LOOP('',(#884));
#376=FACE_BOUND('',#377,.T.);
#377=EDGE_LOOP('',(#885));
#378=PLANE('',#379);
#379=AXIS2_PLACEMENT_3D('',#380,#381,#382);
#380=CARTESIAN_POINT('',(-52.,-64.,-1.50000000000001));
#381=DIRECTION('',(-1.,0.,0.));
#382=DIRECTION('',(0.,0.,1.));
#383=FACE_BOUND('',#384,.T.);
#384=EDGE_LOOP('',(#886,#887,#888,#889));
#385=PLANE('',#386);
#386=AXIS2_PLACEMENT_3D('',#387,#388,#389);
#387=CARTESIAN_POINT('',(52.,-64.,1.50000000000001));
#388=DIRECTION('',(-1.,0.,0.));
#389=DIRECTION('',(0.,0.,1.));
#390=FACE_BOUND('',#391,.T.);
#391=EDGE_LOOP('',(#890,#891,#892,#893,#894,#895,#896));
#392=FACE_BOUND('',#393,.T.);
#393=EDGE_LOOP('',(#897));
#394=FACE_BOUND('',#395,.T.);
#395=EDGE_LOOP('',(#898));
#396=FACE_BOUND('',#397,.T.);
#397=EDGE_LOOP('',(#899));
#398=FACE_BOUND('',#399,.T.);
#399=EDGE_LOOP('',(#900));
#400=PLANE('',#401);
#401=AXIS2_PLACEMENT_3D('',#402,#403,#404);
#402=CARTESIAN_POINT('',(-52.,-64.,1.49999999999999));
#403=DIRECTION('',(-1.53723188025022E-16,-5.89805981832114E-17,1.));
#404=DIRECTION('',(1.,0.,1.53723188025022E-16));
#405=FACE_BOUND('',#406,.T.);
#406=EDGE_LOOP('',(#901,#902,#903,#904));
#407=PLANE('',#408);
#408=AXIS2_PLACEMENT_3D('',#409,#410,#411);
#409=CARTESIAN_POINT('',(-36.,-64.,22.5));
#410=DIRECTION('',(0.707106781186547,0.707106781186547,7.6125694966486E-17));
#411=DIRECTION('',(1.07657990266682E-16,0.,-1.));
#412=FACE_BOUND('',#413,.T.);
#413=EDGE_LOOP('',(#905,#906,#907,#908));
#414=PLANE('',#415);
#415=AXIS2_PLACEMENT_3D('',#416,#417,#418);
#416=CARTESIAN_POINT('',(6.00000000000001,-63.5,-17.3));
#417=DIRECTION('',(0.,0.70710678118655,0.707106781186545));
#418=DIRECTION('',(-1.,0.,0.));
#419=FACE_BOUND('',#420,.T.);
#420=EDGE_LOOP('',(#909,#910,#911,#912));
#421=PLANE('',#422);
#422=AXIS2_PLACEMENT_3D('',#423,#424,#425);
#423=CARTESIAN_POINT('',(4.00000000000001,-63.5,-20.5));
#424=DIRECTION('',(0.707106781186549,0.707106781186546,6.03881714878376E-16));
#425=DIRECTION('',(-8.5401771125012E-16,-5.36354707206475E-32,1.));
#426=FACE_BOUND('',#427,.T.);
#427=EDGE_LOOP('',(#913,#914,#915,#916));
#428=PLANE('',#429);
#429=AXIS2_PLACEMENT_3D('',#430,#431,#432);
#430=CARTESIAN_POINT('',(0.500000000000005,-63.5,-18.5));
#431=DIRECTION('',(0.,0.70710678118655,-0.707106781186545));
#432=DIRECTION('',(1.,0.,0.));
#433=FACE_BOUND('',#434,.T.);
#434=EDGE_LOOP('',(#917,#918,#919,#920));
#435=PLANE('',#436);
#436=AXIS2_PLACEMENT_3D('',#437,#438,#439);
#437=CARTESIAN_POINT('',(-40.,-63.5,-18.5));
#438=DIRECTION('',(0.,0.707106781186543,-0.707106781186553));
#439=DIRECTION('',(1.,0.,0.));
#440=FACE_BOUND('',#441,.T.);
#441=EDGE_LOOP('',(#921,#922,#923,#924));
#442=PLANE('',#443);
#443=AXIS2_PLACEMENT_3D('',#444,#445,#446);
#444=CARTESIAN_POINT('',(-38.,-63.5,-15.3));
#445=DIRECTION('',(-0.707106781186537,0.707106781186557,0.));
#446=DIRECTION('',(0.,0.,-1.));
#447=FACE_BOUND('',#448,.T.);
#448=EDGE_LOOP('',(#925,#926,#927,#928));
#449=PLANE('',#450);
#450=AXIS2_PLACEMENT_3D('',#451,#452,#453);
#451=CARTESIAN_POINT('',(-46.,-64.,-2.50000000000002));
#452=DIRECTION('',(1.,1.39322105050882E-16,0.));
#453=DIRECTION('',(-1.39322105050882E-16,1.,5.22457893940807E-17));
#454=FACE_BOUND('',#455,.T.);
#455=EDGE_LOOP('',(#929,#930,#931,#932));
#456=PLANE('',#457);
#457=AXIS2_PLACEMENT_3D('',#458,#459,#460);
#458=CARTESIAN_POINT('',(-46.,-12.9999999999567,-2.50000000000002));
#459=DIRECTION('',(0.707106781181448,0.707106781191647,0.));
#460=DIRECTION('',(-0.707106781191647,0.707106781181448,0.));
#461=FACE_OUTER_BOUND('',#462,.T.);
#462=EDGE_LOOP('',(#933));
#463=FACE_OUTER_BOUND('',#464,.T.);
#464=EDGE_LOOP('',(#934));
#465=CYLINDRICAL_SURFACE('',#466,1.6);
#466=AXIS2_PLACEMENT_3D('',#467,#468,#469);
#467=CARTESIAN_POINT('',(-21.5,-22.,-1.5));
#468=DIRECTION('',(1.53723188025022E-16,6.34840817315239E-17,-1.));
#469=DIRECTION('',(6.12323399573677E-17,1.,6.34840817315239E-17));
#470=FACE_OUTER_BOUND('',#471,.T.);
#471=EDGE_LOOP('',(#935));
#472=FACE_OUTER_BOUND('',#473,.T.);
#473=EDGE_LOOP('',(#936));
#474=CYLINDRICAL_SURFACE('',#475,1.6);
#475=AXIS2_PLACEMENT_3D('',#476,#477,#478);
#476=CARTESIAN_POINT('',(35.,-22.,-1.5));
#477=DIRECTION('',(1.53723188025022E-16,-6.34840817315239E-17,1.));
#478=DIRECTION('',(2.17411870144396E-16,1.,6.34840817315239E-17));
#479=FACE_OUTER_BOUND('',#480,.T.);
#480=EDGE_LOOP('',(#937));
#481=FACE_OUTER_BOUND('',#482,.T.);
#482=EDGE_LOOP('',(#938));
#483=CYLINDRICAL_SURFACE('',#484,1.6);
#484=AXIS2_PLACEMENT_3D('',#485,#486,#487);
#485=CARTESIAN_POINT('',(-21.5,-42.,-1.5));
#486=DIRECTION('',(-1.53723188025022E-16,-5.89805981832114E-17,1.));
#487=DIRECTION('',(6.12323399573677E-17,-1.,-5.89805981832114E-17));
#488=FACE_OUTER_BOUND('',#489,.T.);
#489=EDGE_LOOP('',(#939));
#490=FACE_OUTER_BOUND('',#491,.T.);
#491=EDGE_LOOP('',(#940));
#492=CYLINDRICAL_SURFACE('',#493,1.6);
#493=AXIS2_PLACEMENT_3D('',#494,#495,#496);
#494=CARTESIAN_POINT('',(35.,-42.,-1.5));
#495=DIRECTION('',(-1.53723188025022E-16,5.89805981832114E-17,-1.));
#496=DIRECTION('',(2.17411870144396E-16,-1.,-5.89805981832114E-17));
#497=FACE_BOUND('',#498,.T.);
#498=EDGE_LOOP('',(#941,#942,#943,#944));
#499=PLANE('',#500);
#500=AXIS2_PLACEMENT_3D('',#501,#502,#503);
#501=CARTESIAN_POINT('',(-52.,-10.,20.5));
#502=DIRECTION('',(0.,0.,1.));
#503=DIRECTION('',(1.,0.,0.));
#504=FACE_BOUND('',#505,.T.);
#505=EDGE_LOOP('',(#945,#946,#947,#948));
#506=FACE_BOUND('',#507,.T.);
#507=EDGE_LOOP('',(#949));
#508=PLANE('',#509);
#509=AXIS2_PLACEMENT_3D('',#510,#511,#512);
#510=CARTESIAN_POINT('',(-49.,-10.,20.5));
#511=DIRECTION('',(1.,0.,0.));
#512=DIRECTION('',(0.,9.34924652315921E-17,-1.));
#513=FACE_BOUND('',#514,.T.);
#514=EDGE_LOOP('',(#950,#951,#952,#953));
#515=PLANE('',#516);
#516=AXIS2_PLACEMENT_3D('',#517,#518,#519);
#517=CARTESIAN_POINT('',(-55.,1.50019232895551E-15,-24.5));
#518=DIRECTION('',(-1.,0.,0.));
#519=DIRECTION('',(0.,-6.12323399573677E-17,1.));
#520=FACE_BOUND('',#521,.T.);
#521=EDGE_LOOP('',(#954,#955,#956,#957,#958,#959));
#522=PLANE('',#523);
#523=AXIS2_PLACEMENT_3D('',#524,#525,#526);
#524=CARTESIAN_POINT('',(0.,-10.,-6.12323399573677E-16));
#525=DIRECTION('',(0.,1.,6.12323399573677E-17));
#526=DIRECTION('',(-1.,7.49879891330929E-33,-1.22464679914735E-16));
#527=FACE_OUTER_BOUND('',#528,.T.);
#528=EDGE_LOOP('',(#960));
#529=FACE_OUTER_BOUND('',#530,.T.);
#530=EDGE_LOOP('',(#961));
#531=CYLINDRICAL_SURFACE('',#532,2.);
#532=AXIS2_PLACEMENT_3D('',#533,#534,#535);
#533=CARTESIAN_POINT('',(-45.,-5.,-15.));
#534=DIRECTION('',(-1.,0.,0.));
#535=DIRECTION('',(0.,-1.,-6.12323399573677E-17));
#536=FACE_OUTER_BOUND('',#537,.T.);
#537=EDGE_LOOP('',(#962));
#538=FACE_OUTER_BOUND('',#539,.T.);
#539=EDGE_LOOP('',(#963));
#540=CYLINDRICAL_SURFACE('',#541,2.);
#541=AXIS2_PLACEMENT_3D('',#542,#543,#544);
#542=CARTESIAN_POINT('',(-45.,-5.,15.));
#543=DIRECTION('',(-1.,0.,0.));
#544=DIRECTION('',(0.,-1.,-6.12323399573677E-17));
#545=FACE_BOUND('',#546,.T.);
#546=EDGE_LOOP('',(#964,#965,#966,#967));
#547=FACE_BOUND('',#548,.T.);
#548=EDGE_LOOP('',(#968));
#549=FACE_BOUND('',#550,.T.);
#550=EDGE_LOOP('',(#969));
#551=FACE_BOUND('',#552,.T.);
#552=EDGE_LOOP('',(#970,#971,#972,#973));
#553=FACE_BOUND('',#554,.T.);
#554=EDGE_LOOP('',(#974));
#555=FACE_BOUND('',#556,.T.);
#556=EDGE_LOOP('',(#975));
#557=PLANE('',#558);
#558=AXIS2_PLACEMENT_3D('',#559,#560,#561);
#559=CARTESIAN_POINT('',(-55.,-64.,-24.5));
#560=DIRECTION('',(-1.,0.,0.));
#561=DIRECTION('',(0.,0.,1.));
#562=FACE_BOUND('',#563,.T.);
#563=EDGE_LOOP('',(#976,#977,#978,#979));
#564=FACE_BOUND('',#565,.T.);
#565=EDGE_LOOP('',(#980));
#566=FACE_BOUND('',#567,.T.);
#567=EDGE_LOOP('',(#981));
#568=FACE_BOUND('',#569,.T.);
#569=EDGE_LOOP('',(#982,#983,#984,#985));
#570=FACE_BOUND('',#571,.T.);
#571=EDGE_LOOP('',(#986));
#572=FACE_BOUND('',#573,.T.);
#573=EDGE_LOOP('',(#987));
#574=PLANE('',#575);
#575=AXIS2_PLACEMENT_3D('',#576,#577,#578);
#576=CARTESIAN_POINT('',(-52.,-64.,21.5));
#577=DIRECTION('',(1.,0.,0.));
#578=DIRECTION('',(0.,0.,-1.));
#579=FACE_OUTER_BOUND('',#580,.T.);
#580=EDGE_LOOP('',(#988));
#581=FACE_OUTER_BOUND('',#582,.T.);
#582=EDGE_LOOP('',(#989));
#583=CYLINDRICAL_SURFACE('',#584,2.);
#584=AXIS2_PLACEMENT_3D('',#585,#586,#587);
#585=CARTESIAN_POINT('',(-45.,-5.,15.));
#586=DIRECTION('',(-1.,0.,0.));
#587=DIRECTION('',(0.,-1.,-6.12323399573677E-17));
#588=FACE_OUTER_BOUND('',#589,.T.);
#589=EDGE_LOOP('',(#990));
#590=FACE_OUTER_BOUND('',#591,.T.);
#591=EDGE_LOOP('',(#991));
#592=CYLINDRICAL_SURFACE('',#593,2.);
#593=AXIS2_PLACEMENT_3D('',#594,#595,#596);
#594=CARTESIAN_POINT('',(-45.,-5.,-15.));
#595=DIRECTION('',(-1.,0.,0.));
#596=DIRECTION('',(0.,-1.,-6.12323399573677E-17));
#597=FACE_BOUND('',#598,.T.);
#598=EDGE_LOOP('',(#992,#993,#994,#995));
#599=PLANE('',#600);
#600=AXIS2_PLACEMENT_3D('',#601,#602,#603);
#601=CARTESIAN_POINT('',(-55.,-64.,24.5));
#602=DIRECTION('',(-1.61486985400023E-16,-5.55111512312578E-17,1.));
#603=DIRECTION('',(1.,0.,1.61486985400023E-16));
#604=FACE_BOUND('',#605,.T.);
#605=EDGE_LOOP('',(#996,#997,#998,#999,#1000,#1001));
#606=PLANE('',#607);
#607=AXIS2_PLACEMENT_3D('',#608,#609,#610);
#608=CARTESIAN_POINT('',(0.,0.,0.));
#609=DIRECTION('',(0.,1.,6.12323399573677E-17));
#610=DIRECTION('',(-1.,7.49879891330929E-33,-1.22464679914735E-16));
#611=FACE_BOUND('',#612,.T.);
#612=EDGE_LOOP('',(#1002,#1003,#1004,#1005,#1006,#1007));
#613=PLANE('',#614);
#614=AXIS2_PLACEMENT_3D('',#615,#616,#617);
#615=CARTESIAN_POINT('',(-52.,-64.,-24.5));
#616=DIRECTION('',(0.,5.55111512312578E-17,-1.));
#617=DIRECTION('',(-1.,0.,0.));
#618=FACE_BOUND('',#619,.T.);
#619=EDGE_LOOP('',(#1008,#1009,#1010,#1011));
#620=PLANE('',#621);
#621=AXIS2_PLACEMENT_3D('',#622,#623,#624);
#622=CARTESIAN_POINT('',(0.,-67.,-4.10256677714363E-15));
#623=DIRECTION('',(0.,-1.,-6.12323399573677E-17));
#624=DIRECTION('',(1.,0.,0.));
#625=FACE_BOUND('',#626,.T.);
#626=EDGE_LOOP('',(#1012,#1013,#1014,#1015));
#627=PLANE('',#628);
#628=AXIS2_PLACEMENT_3D('',#629,#630,#631);
#629=CARTESIAN_POINT('',(-45.,-49.15,9.99999999999999));
#630=DIRECTION('',(0.,5.67526146773243E-17,1.));
#631=DIRECTION('',(0.,1.,-5.67526146773243E-17));
#632=FACE_BOUND('',#633,.T.);
#633=EDGE_LOOP('',(#1016,#1017,#1018,#1019));
#634=PLANE('',#635);
#635=AXIS2_PLACEMENT_3D('',#636,#637,#638);
#636=CARTESIAN_POINT('',(-45.,-49.15,-10.));
#637=DIRECTION('',(0.,-1.,0.));
#638=DIRECTION('',(0.,0.,1.));
#639=FACE_BOUND('',#640,.T.);
#640=EDGE_LOOP('',(#1020,#1021,#1022,#1023));
#641=PLANE('',#642);
#642=AXIS2_PLACEMENT_3D('',#643,#644,#645);
#643=CARTESIAN_POINT('',(-45.,-17.85,-10.));
#644=DIRECTION('',(0.,5.67526146773243E-17,-1.));
#645=DIRECTION('',(0.,-1.,-5.67526146773243E-17));
#646=FACE_BOUND('',#647,.T.);
#647=EDGE_LOOP('',(#1024,#1025,#1026,#1027));
#648=PLANE('',#649);
#649=AXIS2_PLACEMENT_3D('',#650,#651,#652);
#650=CARTESIAN_POINT('',(-45.,-17.85,9.99999999999998));
#651=DIRECTION('',(0.,1.,0.));
#652=DIRECTION('',(0.,0.,-1.));
#653=FACE_OUTER_BOUND('',#654,.T.);
#654=EDGE_LOOP('',(#1028));
#655=FACE_OUTER_BOUND('',#656,.T.);
#656=EDGE_LOOP('',(#1029));
#657=CYLINDRICAL_SURFACE('',#658,0.999999999999998);
#658=AXIS2_PLACEMENT_3D('',#659,#660,#661);
#659=CARTESIAN_POINT('',(-45.,-51.5,-1.29234281245058E-14));
#660=DIRECTION('',(-1.,0.,0.));
#661=DIRECTION('',(0.,-1.,-6.12323399573677E-17));
#662=FACE_OUTER_BOUND('',#663,.T.);
#663=EDGE_LOOP('',(#1030));
#664=FACE_OUTER_BOUND('',#665,.T.);
#665=EDGE_LOOP('',(#1031));
#666=CYLINDRICAL_SURFACE('',#667,1.);
#667=AXIS2_PLACEMENT_3D('',#668,#669,#670);
#668=CARTESIAN_POINT('',(-45.,-15.5,-1.07190638860406E-14));
#669=DIRECTION('',(-1.,0.,0.));
#670=DIRECTION('',(0.,-1.,-6.12323399573677E-17));
#671=FACE_BOUND('',#672,.T.);
#672=EDGE_LOOP('',(#1032,#1033,#1034,#1035));
#673=PLANE('',#674);
#674=AXIS2_PLACEMENT_3D('',#675,#676,#677);
#675=CARTESIAN_POINT('',(0.,-64.,-3.91886975727153E-15));
#676=DIRECTION('',(0.,-1.,-6.12323399573677E-17));
#677=DIRECTION('',(1.,0.,0.));
#678=FACE_BOUND('',#679,.T.);
#679=EDGE_LOOP('',(#1036,#1037,#1038,#1039));
#680=PLANE('',#681);
#681=AXIS2_PLACEMENT_3D('',#682,#683,#684);
#682=CARTESIAN_POINT('',(55.,-64.,21.5));
#683=DIRECTION('',(1.32811726310299E-16,5.55111512312578E-17,-1.));
#684=DIRECTION('',(-1.,0.,-1.32811726310299E-16));
#685=FACE_BOUND('',#686,.T.);
#686=EDGE_LOOP('',(#1040,#1041,#1042,#1043,#1044,#1045));
#687=PLANE('',#688);
#688=AXIS2_PLACEMENT_3D('',#689,#690,#691);
#689=CARTESIAN_POINT('',(55.,-64.,24.5));
#690=DIRECTION('',(1.,-1.31476817536835E-31,2.368475785867E-15));
#691=DIRECTION('',(2.368475785867E-15,0.,-1.));
#692=ORIENTED_EDGE('',*,*,#1046,.T.);
#693=ORIENTED_EDGE('',*,*,#1047,.F.);
#694=ORIENTED_EDGE('',*,*,#1048,.T.);
#695=ORIENTED_EDGE('',*,*,#1049,.T.);
#696=ORIENTED_EDGE('',*,*,#1050,.T.);
#697=ORIENTED_EDGE('',*,*,#1051,.T.);
#698=ORIENTED_EDGE('',*,*,#1052,.F.);
#699=ORIENTED_EDGE('',*,*,#1053,.T.);
#700=ORIENTED_EDGE('',*,*,#1054,.T.);
#701=ORIENTED_EDGE('',*,*,#1055,.F.);
#702=ORIENTED_EDGE('',*,*,#1056,.F.);
#703=ORIENTED_EDGE('',*,*,#1057,.T.);
#704=ORIENTED_EDGE('',*,*,#1057,.F.);
#705=ORIENTED_EDGE('',*,*,#1050,.F.);
#706=ORIENTED_EDGE('',*,*,#1058,.F.);
#707=ORIENTED_EDGE('',*,*,#1059,.F.);
#708=ORIENTED_EDGE('',*,*,#1060,.F.);
#709=ORIENTED_EDGE('',*,*,#1061,.F.);
#710=ORIENTED_EDGE('',*,*,#1062,.F.);
#711=ORIENTED_EDGE('',*,*,#1063,.F.);
#712=ORIENTED_EDGE('',*,*,#1064,.F.);
#713=ORIENTED_EDGE('',*,*,#1065,.F.);
#714=ORIENTED_EDGE('',*,*,#1066,.F.);
#715=ORIENTED_EDGE('',*,*,#1067,.F.);
#716=ORIENTED_EDGE('',*,*,#1068,.F.);
#717=ORIENTED_EDGE('',*,*,#1069,.F.);
#718=ORIENTED_EDGE('',*,*,#1070,.F.);
#719=ORIENTED_EDGE('',*,*,#1071,.F.);
#720=ORIENTED_EDGE('',*,*,#1072,.F.);
#721=ORIENTED_EDGE('',*,*,#1073,.F.);
#722=ORIENTED_EDGE('',*,*,#1074,.F.);
#723=ORIENTED_EDGE('',*,*,#1075,.F.);
#724=ORIENTED_EDGE('',*,*,#1046,.F.);
#725=ORIENTED_EDGE('',*,*,#1076,.F.);
#726=ORIENTED_EDGE('',*,*,#1077,.T.);
#727=ORIENTED_EDGE('',*,*,#1075,.T.);
#728=ORIENTED_EDGE('',*,*,#1078,.F.);
#729=ORIENTED_EDGE('',*,*,#1079,.T.);
#730=ORIENTED_EDGE('',*,*,#1047,.T.);
#731=ORIENTED_EDGE('',*,*,#1080,.F.);
#732=ORIENTED_EDGE('',*,*,#1081,.F.);
#733=ORIENTED_EDGE('',*,*,#1082,.F.);
#734=ORIENTED_EDGE('',*,*,#1083,.F.);
#735=ORIENTED_EDGE('',*,*,#1084,.F.);
#736=ORIENTED_EDGE('',*,*,#1085,.F.);
#737=ORIENTED_EDGE('',*,*,#1086,.F.);
#738=ORIENTED_EDGE('',*,*,#1053,.F.);
#739=ORIENTED_EDGE('',*,*,#1087,.F.);
#740=ORIENTED_EDGE('',*,*,#1088,.F.);
#741=ORIENTED_EDGE('',*,*,#1089,.F.);
#742=ORIENTED_EDGE('',*,*,#1090,.T.);
#743=ORIENTED_EDGE('',*,*,#1091,.F.);
#744=ORIENTED_EDGE('',*,*,#1048,.F.);
#745=ORIENTED_EDGE('',*,*,#1079,.F.);
#746=ORIENTED_EDGE('',*,*,#1092,.F.);
#747=ORIENTED_EDGE('',*,*,#1093,.F.);
#748=ORIENTED_EDGE('',*,*,#1094,.F.);
#749=ORIENTED_EDGE('',*,*,#1095,.F.);
#750=ORIENTED_EDGE('',*,*,#1096,.F.);
#751=ORIENTED_EDGE('',*,*,#1097,.F.);
#752=ORIENTED_EDGE('',*,*,#1098,.F.);
#753=ORIENTED_EDGE('',*,*,#1099,.F.);
#754=ORIENTED_EDGE('',*,*,#1100,.F.);
#755=ORIENTED_EDGE('',*,*,#1101,.F.);
#756=ORIENTED_EDGE('',*,*,#1102,.F.);
#757=ORIENTED_EDGE('',*,*,#1103,.F.);
#758=ORIENTED_EDGE('',*,*,#1104,.T.);
#759=ORIENTED_EDGE('',*,*,#1105,.T.);
#760=ORIENTED_EDGE('',*,*,#1106,.F.);
#761=ORIENTED_EDGE('',*,*,#1076,.T.);
#762=ORIENTED_EDGE('',*,*,#1049,.F.);
#763=ORIENTED_EDGE('',*,*,#1091,.T.);
#764=ORIENTED_EDGE('',*,*,#1107,.T.);
#765=ORIENTED_EDGE('',*,*,#1108,.T.);
#766=ORIENTED_EDGE('',*,*,#1109,.T.);
#767=ORIENTED_EDGE('',*,*,#1110,.T.);
#768=ORIENTED_EDGE('',*,*,#1111,.F.);
#769=ORIENTED_EDGE('',*,*,#1112,.F.);
#770=ORIENTED_EDGE('',*,*,#1113,.F.);
#771=ORIENTED_EDGE('',*,*,#1114,.F.);
#772=ORIENTED_EDGE('',*,*,#1115,.F.);
#773=ORIENTED_EDGE('',*,*,#1116,.F.);
#774=ORIENTED_EDGE('',*,*,#1051,.F.);
#775=ORIENTED_EDGE('',*,*,#1117,.F.);
#776=ORIENTED_EDGE('',*,*,#1118,.F.);
#777=ORIENTED_EDGE('',*,*,#1119,.F.);
#778=ORIENTED_EDGE('',*,*,#1116,.T.);
#779=ORIENTED_EDGE('',*,*,#1120,.F.);
#780=ORIENTED_EDGE('',*,*,#1087,.T.);
#781=ORIENTED_EDGE('',*,*,#1052,.T.);
#782=ORIENTED_EDGE('',*,*,#1119,.T.);
#783=ORIENTED_EDGE('',*,*,#1121,.T.);
#784=ORIENTED_EDGE('',*,*,#1122,.F.);
#785=ORIENTED_EDGE('',*,*,#1054,.F.);
#786=ORIENTED_EDGE('',*,*,#1086,.T.);
#787=ORIENTED_EDGE('',*,*,#1123,.T.);
#788=ORIENTED_EDGE('',*,*,#1055,.T.);
#789=ORIENTED_EDGE('',*,*,#1122,.T.);
#790=ORIENTED_EDGE('',*,*,#1124,.T.);
#791=ORIENTED_EDGE('',*,*,#1125,.T.);
#792=ORIENTED_EDGE('',*,*,#1126,.T.);
#793=ORIENTED_EDGE('',*,*,#1117,.T.);
#794=ORIENTED_EDGE('',*,*,#1056,.T.);
#795=ORIENTED_EDGE('',*,*,#1125,.F.);
#796=ORIENTED_EDGE('',*,*,#1127,.F.);
#797=ORIENTED_EDGE('',*,*,#1058,.T.);
#798=ORIENTED_EDGE('',*,*,#1106,.T.);
#799=ORIENTED_EDGE('',*,*,#1128,.T.);
#800=ORIENTED_EDGE('',*,*,#1129,.T.);
#801=ORIENTED_EDGE('',*,*,#1130,.T.);
#802=ORIENTED_EDGE('',*,*,#1129,.F.);
#803=ORIENTED_EDGE('',*,*,#1131,.F.);
#804=ORIENTED_EDGE('',*,*,#1132,.F.);
#805=ORIENTED_EDGE('',*,*,#1084,.T.);
#806=ORIENTED_EDGE('',*,*,#1133,.T.);
#807=ORIENTED_EDGE('',*,*,#1059,.T.);
#808=ORIENTED_EDGE('',*,*,#1060,.T.);
#809=ORIENTED_EDGE('',*,*,#1133,.F.);
#810=ORIENTED_EDGE('',*,*,#1083,.T.);
#811=ORIENTED_EDGE('',*,*,#1134,.T.);
#812=ORIENTED_EDGE('',*,*,#1061,.T.);
#813=ORIENTED_EDGE('',*,*,#1134,.F.);
#814=ORIENTED_EDGE('',*,*,#1082,.T.);
#815=ORIENTED_EDGE('',*,*,#1135,.T.);
#816=ORIENTED_EDGE('',*,*,#1136,.F.);
#817=ORIENTED_EDGE('',*,*,#1137,.T.);
#818=ORIENTED_EDGE('',*,*,#1062,.T.);
#819=ORIENTED_EDGE('',*,*,#1135,.F.);
#820=ORIENTED_EDGE('',*,*,#1081,.T.);
#821=ORIENTED_EDGE('',*,*,#1138,.T.);
#822=ORIENTED_EDGE('',*,*,#1139,.T.);
#823=ORIENTED_EDGE('',*,*,#1063,.T.);
#824=ORIENTED_EDGE('',*,*,#1137,.F.);
#825=ORIENTED_EDGE('',*,*,#1140,.T.);
#826=ORIENTED_EDGE('',*,*,#1141,.T.);
#827=ORIENTED_EDGE('',*,*,#1064,.T.);
#828=ORIENTED_EDGE('',*,*,#1139,.F.);
#829=ORIENTED_EDGE('',*,*,#1142,.T.);
#830=ORIENTED_EDGE('',*,*,#1143,.T.);
#831=ORIENTED_EDGE('',*,*,#1065,.T.);
#832=ORIENTED_EDGE('',*,*,#1141,.F.);
#833=ORIENTED_EDGE('',*,*,#1144,.F.);
#834=ORIENTED_EDGE('',*,*,#1100,.T.);
#835=ORIENTED_EDGE('',*,*,#1145,.T.);
#836=ORIENTED_EDGE('',*,*,#1066,.T.);
#837=ORIENTED_EDGE('',*,*,#1143,.F.);
#838=ORIENTED_EDGE('',*,*,#1067,.T.);
#839=ORIENTED_EDGE('',*,*,#1145,.F.);
#840=ORIENTED_EDGE('',*,*,#1099,.T.);
#841=ORIENTED_EDGE('',*,*,#1146,.T.);
#842=ORIENTED_EDGE('',*,*,#1147,.F.);
#843=ORIENTED_EDGE('',*,*,#1148,.T.);
#844=ORIENTED_EDGE('',*,*,#1068,.T.);
#845=ORIENTED_EDGE('',*,*,#1146,.F.);
#846=ORIENTED_EDGE('',*,*,#1098,.T.);
#847=ORIENTED_EDGE('',*,*,#1149,.T.);
#848=ORIENTED_EDGE('',*,*,#1150,.T.);
#849=ORIENTED_EDGE('',*,*,#1069,.T.);
#850=ORIENTED_EDGE('',*,*,#1148,.F.);
#851=ORIENTED_EDGE('',*,*,#1151,.T.);
#852=ORIENTED_EDGE('',*,*,#1152,.T.);
#853=ORIENTED_EDGE('',*,*,#1070,.T.);
#854=ORIENTED_EDGE('',*,*,#1150,.F.);
#855=ORIENTED_EDGE('',*,*,#1153,.T.);
#856=ORIENTED_EDGE('',*,*,#1154,.T.);
#857=ORIENTED_EDGE('',*,*,#1071,.T.);
#858=ORIENTED_EDGE('',*,*,#1152,.F.);
#859=ORIENTED_EDGE('',*,*,#1155,.F.);
#860=ORIENTED_EDGE('',*,*,#1094,.T.);
#861=ORIENTED_EDGE('',*,*,#1156,.T.);
#862=ORIENTED_EDGE('',*,*,#1072,.T.);
#863=ORIENTED_EDGE('',*,*,#1154,.F.);
#864=ORIENTED_EDGE('',*,*,#1073,.T.);
#865=ORIENTED_EDGE('',*,*,#1156,.F.);
#866=ORIENTED_EDGE('',*,*,#1093,.T.);
#867=ORIENTED_EDGE('',*,*,#1157,.T.);
#868=ORIENTED_EDGE('',*,*,#1074,.T.);
#869=ORIENTED_EDGE('',*,*,#1157,.F.);
#870=ORIENTED_EDGE('',*,*,#1092,.T.);
#871=ORIENTED_EDGE('',*,*,#1078,.T.);
#872=ORIENTED_EDGE('',*,*,#1126,.F.);
#873=ORIENTED_EDGE('',*,*,#1077,.F.);
#874=ORIENTED_EDGE('',*,*,#1138,.F.);
#875=ORIENTED_EDGE('',*,*,#1136,.T.);
#876=ORIENTED_EDGE('',*,*,#1080,.T.);
#877=ORIENTED_EDGE('',*,*,#1158,.T.);
#878=ORIENTED_EDGE('',*,*,#1159,.T.);
#879=ORIENTED_EDGE('',*,*,#1160,.T.);
#880=ORIENTED_EDGE('',*,*,#1111,.T.);
#881=ORIENTED_EDGE('',*,*,#1123,.F.);
#882=ORIENTED_EDGE('',*,*,#1085,.T.);
#883=ORIENTED_EDGE('',*,*,#1132,.T.);
#884=ORIENTED_EDGE('',*,*,#1161,.T.);
#885=ORIENTED_EDGE('',*,*,#1162,.T.);
#886=ORIENTED_EDGE('',*,*,#1115,.T.);
#887=ORIENTED_EDGE('',*,*,#1163,.F.);
#888=ORIENTED_EDGE('',*,*,#1088,.T.);
#889=ORIENTED_EDGE('',*,*,#1120,.T.);
#890=ORIENTED_EDGE('',*,*,#1164,.F.);
#891=ORIENTED_EDGE('',*,*,#1089,.T.);
#892=ORIENTED_EDGE('',*,*,#1163,.T.);
#893=ORIENTED_EDGE('',*,*,#1114,.T.);
#894=ORIENTED_EDGE('',*,*,#1165,.F.);
#895=ORIENTED_EDGE('',*,*,#1166,.T.);
#896=ORIENTED_EDGE('',*,*,#1167,.T.);
#897=ORIENTED_EDGE('',*,*,#1168,.T.);
#898=ORIENTED_EDGE('',*,*,#1169,.T.);
#899=ORIENTED_EDGE('',*,*,#1170,.T.);
#900=ORIENTED_EDGE('',*,*,#1171,.T.);
#901=ORIENTED_EDGE('',*,*,#1090,.F.);
#902=ORIENTED_EDGE('',*,*,#1164,.T.);
#903=ORIENTED_EDGE('',*,*,#1172,.T.);
#904=ORIENTED_EDGE('',*,*,#1103,.T.);
#905=ORIENTED_EDGE('',*,*,#1153,.F.);
#906=ORIENTED_EDGE('',*,*,#1173,.F.);
#907=ORIENTED_EDGE('',*,*,#1095,.T.);
#908=ORIENTED_EDGE('',*,*,#1155,.T.);
#909=ORIENTED_EDGE('',*,*,#1151,.F.);
#910=ORIENTED_EDGE('',*,*,#1174,.F.);
#911=ORIENTED_EDGE('',*,*,#1096,.T.);
#912=ORIENTED_EDGE('',*,*,#1173,.T.);
#913=ORIENTED_EDGE('',*,*,#1149,.F.);
#914=ORIENTED_EDGE('',*,*,#1147,.T.);
#915=ORIENTED_EDGE('',*,*,#1097,.T.);
#916=ORIENTED_EDGE('',*,*,#1174,.T.);
#917=ORIENTED_EDGE('',*,*,#1142,.F.);
#918=ORIENTED_EDGE('',*,*,#1175,.F.);
#919=ORIENTED_EDGE('',*,*,#1101,.T.);
#920=ORIENTED_EDGE('',*,*,#1144,.T.);
#921=ORIENTED_EDGE('',*,*,#1140,.F.);
#922=ORIENTED_EDGE('',*,*,#1158,.F.);
#923=ORIENTED_EDGE('',*,*,#1102,.T.);
#924=ORIENTED_EDGE('',*,*,#1175,.T.);
#925=ORIENTED_EDGE('',*,*,#1172,.F.);
#926=ORIENTED_EDGE('',*,*,#1167,.F.);
#927=ORIENTED_EDGE('',*,*,#1176,.F.);
#928=ORIENTED_EDGE('',*,*,#1104,.F.);
#929=ORIENTED_EDGE('',*,*,#1177,.F.);
#930=ORIENTED_EDGE('',*,*,#1105,.F.);
#931=ORIENTED_EDGE('',*,*,#1176,.T.);
#932=ORIENTED_EDGE('',*,*,#1166,.F.);
#933=ORIENTED_EDGE('',*,*,#1168,.F.);
#934=ORIENTED_EDGE('',*,*,#1107,.F.);
#935=ORIENTED_EDGE('',*,*,#1169,.F.);
#936=ORIENTED_EDGE('',*,*,#1108,.F.);
#937=ORIENTED_EDGE('',*,*,#1170,.F.);
#938=ORIENTED_EDGE('',*,*,#1109,.F.);
#939=ORIENTED_EDGE('',*,*,#1171,.F.);
#940=ORIENTED_EDGE('',*,*,#1110,.F.);
#941=ORIENTED_EDGE('',*,*,#1112,.T.);
#942=ORIENTED_EDGE('',*,*,#1160,.F.);
#943=ORIENTED_EDGE('',*,*,#1178,.T.);
#944=ORIENTED_EDGE('',*,*,#1179,.T.);
#945=ORIENTED_EDGE('',*,*,#1113,.T.);
#946=ORIENTED_EDGE('',*,*,#1179,.F.);
#947=ORIENTED_EDGE('',*,*,#1180,.T.);
#948=ORIENTED_EDGE('',*,*,#1165,.T.);
#949=ORIENTED_EDGE('',*,*,#1181,.T.);
#950=ORIENTED_EDGE('',*,*,#1118,.T.);
#951=ORIENTED_EDGE('',*,*,#1127,.T.);
#952=ORIENTED_EDGE('',*,*,#1124,.F.);
#953=ORIENTED_EDGE('',*,*,#1121,.F.);
#954=ORIENTED_EDGE('',*,*,#1177,.T.);
#955=ORIENTED_EDGE('',*,*,#1180,.F.);
#956=ORIENTED_EDGE('',*,*,#1178,.F.);
#957=ORIENTED_EDGE('',*,*,#1159,.F.);
#958=ORIENTED_EDGE('',*,*,#1131,.T.);
#959=ORIENTED_EDGE('',*,*,#1128,.F.);
#960=ORIENTED_EDGE('',*,*,#1130,.F.);
#961=ORIENTED_EDGE('',*,*,#1161,.F.);
#962=ORIENTED_EDGE('',*,*,#1181,.F.);
#963=ORIENTED_EDGE('',*,*,#1162,.F.);
#964=ORIENTED_EDGE('',*,*,#1182,.T.);
#965=ORIENTED_EDGE('',*,*,#1183,.F.);
#966=ORIENTED_EDGE('',*,*,#1184,.F.);
#967=ORIENTED_EDGE('',*,*,#1185,.F.);
#968=ORIENTED_EDGE('',*,*,#1186,.T.);
#969=ORIENTED_EDGE('',*,*,#1187,.T.);
#970=ORIENTED_EDGE('',*,*,#1188,.T.);
#971=ORIENTED_EDGE('',*,*,#1189,.T.);
#972=ORIENTED_EDGE('',*,*,#1190,.T.);
#973=ORIENTED_EDGE('',*,*,#1191,.T.);
#974=ORIENTED_EDGE('',*,*,#1192,.T.);
#975=ORIENTED_EDGE('',*,*,#1193,.T.);
#976=ORIENTED_EDGE('',*,*,#1194,.F.);
#977=ORIENTED_EDGE('',*,*,#1195,.T.);
#978=ORIENTED_EDGE('',*,*,#1196,.F.);
#979=ORIENTED_EDGE('',*,*,#1197,.F.);
#980=ORIENTED_EDGE('',*,*,#1198,.T.);
#981=ORIENTED_EDGE('',*,*,#1199,.T.);
#982=ORIENTED_EDGE('',*,*,#1200,.T.);
#983=ORIENTED_EDGE('',*,*,#1201,.T.);
#984=ORIENTED_EDGE('',*,*,#1202,.T.);
#985=ORIENTED_EDGE('',*,*,#1203,.T.);
#986=ORIENTED_EDGE('',*,*,#1204,.T.);
#987=ORIENTED_EDGE('',*,*,#1205,.T.);
#988=ORIENTED_EDGE('',*,*,#1199,.F.);
#989=ORIENTED_EDGE('',*,*,#1187,.F.);
#990=ORIENTED_EDGE('',*,*,#1198,.F.);
#991=ORIENTED_EDGE('',*,*,#1186,.F.);
#992=ORIENTED_EDGE('',*,*,#1206,.T.);
#993=ORIENTED_EDGE('',*,*,#1207,.F.);
#994=ORIENTED_EDGE('',*,*,#1182,.F.);
#995=ORIENTED_EDGE('',*,*,#1208,.F.);
#996=ORIENTED_EDGE('',*,*,#1183,.T.);
#997=ORIENTED_EDGE('',*,*,#1207,.T.);
#998=ORIENTED_EDGE('',*,*,#1209,.T.);
#999=ORIENTED_EDGE('',*,*,#1210,.T.);
#1000=ORIENTED_EDGE('',*,*,#1196,.T.);
#1001=ORIENTED_EDGE('',*,*,#1211,.T.);
#1002=ORIENTED_EDGE('',*,*,#1184,.T.);
#1003=ORIENTED_EDGE('',*,*,#1211,.F.);
#1004=ORIENTED_EDGE('',*,*,#1195,.F.);
#1005=ORIENTED_EDGE('',*,*,#1212,.T.);
#1006=ORIENTED_EDGE('',*,*,#1213,.T.);
#1007=ORIENTED_EDGE('',*,*,#1214,.F.);
#1008=ORIENTED_EDGE('',*,*,#1214,.T.);
#1009=ORIENTED_EDGE('',*,*,#1215,.T.);
#1010=ORIENTED_EDGE('',*,*,#1208,.T.);
#1011=ORIENTED_EDGE('',*,*,#1185,.T.);
#1012=ORIENTED_EDGE('',*,*,#1188,.F.);
#1013=ORIENTED_EDGE('',*,*,#1216,.F.);
#1014=ORIENTED_EDGE('',*,*,#1200,.F.);
#1015=ORIENTED_EDGE('',*,*,#1217,.T.);
#1016=ORIENTED_EDGE('',*,*,#1189,.F.);
#1017=ORIENTED_EDGE('',*,*,#1217,.F.);
#1018=ORIENTED_EDGE('',*,*,#1203,.F.);
#1019=ORIENTED_EDGE('',*,*,#1218,.T.);
#1020=ORIENTED_EDGE('',*,*,#1190,.F.);
#1021=ORIENTED_EDGE('',*,*,#1218,.F.);
#1022=ORIENTED_EDGE('',*,*,#1202,.F.);
#1023=ORIENTED_EDGE('',*,*,#1219,.T.);
#1024=ORIENTED_EDGE('',*,*,#1191,.F.);
#1025=ORIENTED_EDGE('',*,*,#1219,.F.);
#1026=ORIENTED_EDGE('',*,*,#1201,.F.);
#1027=ORIENTED_EDGE('',*,*,#1216,.T.);
#1028=ORIENTED_EDGE('',*,*,#1204,.F.);
#1029=ORIENTED_EDGE('',*,*,#1192,.F.);
#1030=ORIENTED_EDGE('',*,*,#1205,.F.);
#1031=ORIENTED_EDGE('',*,*,#1193,.F.);
#1032=ORIENTED_EDGE('',*,*,#1220,.T.);
#1033=ORIENTED_EDGE('',*,*,#1221,.F.);
#1034=ORIENTED_EDGE('',*,*,#1212,.F.);
#1035=ORIENTED_EDGE('',*,*,#1194,.T.);
#1036=ORIENTED_EDGE('',*,*,#1220,.F.);
#1037=ORIENTED_EDGE('',*,*,#1197,.T.);
#1038=ORIENTED_EDGE('',*,*,#1210,.F.);
#1039=ORIENTED_EDGE('',*,*,#1222,.F.);
#1040=ORIENTED_EDGE('',*,*,#1222,.T.);
#1041=ORIENTED_EDGE('',*,*,#1209,.F.);
#1042=ORIENTED_EDGE('',*,*,#1206,.F.);
#1043=ORIENTED_EDGE('',*,*,#1215,.F.);
#1044=ORIENTED_EDGE('',*,*,#1213,.F.);
#1045=ORIENTED_EDGE('',*,*,#1221,.T.);
#1046=EDGE_CURVE('',#1223,#1224,#1225,.F.);
#1047=EDGE_CURVE('',#1226,#1224,#1227,.T.);
#1048=EDGE_CURVE('',#1226,#1228,#1229,.T.);
#1049=EDGE_CURVE('',#1228,#1223,#1230,.T.);
#1050=EDGE_CURVE('',#1231,#1231,#1232,.T.);
#1051=EDGE_CURVE('',#1233,#1234,#1235,.T.);
#1052=EDGE_CURVE('',#1236,#1234,#1237,.T.);
#1053=EDGE_CURVE('',#1236,#1238,#1239,.T.);
#1054=EDGE_CURVE('',#1238,#1240,#1241,.T.);
#1055=EDGE_CURVE('',#1242,#1240,#1243,.T.);
#1056=EDGE_CURVE('',#1233,#1242,#1244,.T.);
#1057=EDGE_CURVE('',#1245,#1245,#1246,.F.);
#1058=EDGE_CURVE('',#1247,#1248,#1249,.F.);
#1059=EDGE_CURVE('',#1250,#1247,#1251,.F.);
#1060=EDGE_CURVE('',#1252,#1250,#1253,.F.);
#1061=EDGE_CURVE('',#1254,#1252,#1255,.F.);
#1062=EDGE_CURVE('',#1256,#1254,#1257,.F.);
#1063=EDGE_CURVE('',#1258,#1256,#1259,.F.);
#1064=EDGE_CURVE('',#1260,#1258,#1261,.F.);
#1065=EDGE_CURVE('',#1262,#1260,#1263,.F.);
#1066=EDGE_CURVE('',#1264,#1262,#1265,.F.);
#1067=EDGE_CURVE('',#1266,#1264,#1267,.F.);
#1068=EDGE_CURVE('',#1268,#1266,#1269,.F.);
#1069=EDGE_CURVE('',#1270,#1268,#1271,.F.);
#1070=EDGE_CURVE('',#1272,#1270,#1273,.F.);
#1071=EDGE_CURVE('',#1274,#1272,#1275,.F.);
#1072=EDGE_CURVE('',#1276,#1274,#1277,.F.);
#1073=EDGE_CURVE('',#1278,#1276,#1279,.F.);
#1074=EDGE_CURVE('',#1280,#1278,#1281,.F.);
#1075=EDGE_CURVE('',#1224,#1280,#1282,.F.);
#1076=EDGE_CURVE('',#1248,#1223,#1283,.F.);
#1077=EDGE_CURVE('',#1284,#1284,#1285,.T.);
#1078=EDGE_CURVE('',#1286,#1280,#1287,.T.);
#1079=EDGE_CURVE('',#1286,#1226,#1288,.T.);
#1080=EDGE_CURVE('',#1289,#1290,#1291,.T.);
#1081=EDGE_CURVE('',#1292,#1289,#1293,.T.);
#1082=EDGE_CURVE('',#1294,#1292,#1295,.T.);
#1083=EDGE_CURVE('',#1296,#1294,#1297,.T.);
#1084=EDGE_CURVE('',#1298,#1296,#1299,.T.);
#1085=EDGE_CURVE('',#1300,#1298,#1301,.T.);
#1086=EDGE_CURVE('',#1238,#1300,#1302,.T.);
#1087=EDGE_CURVE('',#1303,#1236,#1304,.T.);
#1088=EDGE_CURVE('',#1305,#1303,#1306,.T.);
#1089=EDGE_CURVE('',#1307,#1305,#1308,.T.);
#1090=EDGE_CURVE('',#1307,#1309,#1310,.T.);
#1091=EDGE_CURVE('',#1228,#1309,#1311,.T.);
#1092=EDGE_CURVE('',#1312,#1286,#1313,.T.);
#1093=EDGE_CURVE('',#1314,#1312,#1315,.T.);
#1094=EDGE_CURVE('',#1316,#1314,#1317,.T.);
#1095=EDGE_CURVE('',#1318,#1316,#1319,.T.);
#1096=EDGE_CURVE('',#1320,#1318,#1321,.T.);
#1097=EDGE_CURVE('',#1322,#1320,#1323,.T.);
#1098=EDGE_CURVE('',#1324,#1322,#1325,.T.);
#1099=EDGE_CURVE('',#1326,#1324,#1327,.T.);
#1100=EDGE_CURVE('',#1328,#1326,#1329,.T.);
#1101=EDGE_CURVE('',#1330,#1328,#1331,.T.);
#1102=EDGE_CURVE('',#1290,#1330,#1332,.T.);
#1103=EDGE_CURVE('',#1333,#1309,#1334,.F.);
#1104=EDGE_CURVE('',#1333,#1335,#1336,.F.);
#1105=EDGE_CURVE('',#1335,#1337,#1338,.F.);
#1106=EDGE_CURVE('',#1248,#1337,#1339,.T.);
#1107=EDGE_CURVE('',#1340,#1340,#1341,.F.);
#1108=EDGE_CURVE('',#1342,#1342,#1343,.T.);
#1109=EDGE_CURVE('',#1344,#1344,#1345,.T.);
#1110=EDGE_CURVE('',#1346,#1346,#1347,.F.);
#1111=EDGE_CURVE('',#1348,#1349,#1350,.F.);
#1112=EDGE_CURVE('',#1351,#1348,#1352,.F.);
#1113=EDGE_CURVE('',#1353,#1351,#1354,.F.);
#1114=EDGE_CURVE('',#1355,#1353,#1356,.F.);
#1115=EDGE_CURVE('',#1357,#1355,#1358,.F.);
#1116=EDGE_CURVE('',#1234,#1357,#1359,.F.);
#1117=EDGE_CURVE('',#1360,#1233,#1361,.T.);
#1118=EDGE_CURVE('',#1362,#1360,#1363,.T.);
#1119=EDGE_CURVE('',#1349,#1362,#1364,.T.);
#1120=EDGE_CURVE('',#1303,#1357,#1365,.T.);
#1121=EDGE_CURVE('',#1362,#1366,#1367,.T.);
#1122=EDGE_CURVE('',#1240,#1366,#1368,.T.);
#1123=EDGE_CURVE('',#1300,#1349,#1369,.T.);
#1124=EDGE_CURVE('',#1366,#1370,#1371,.T.);
#1125=EDGE_CURVE('',#1370,#1242,#1372,.T.);
#1126=EDGE_CURVE('',#1373,#1373,#1374,.F.);
#1127=EDGE_CURVE('',#1360,#1370,#1375,.T.);
#1128=EDGE_CURVE('',#1337,#1376,#1377,.T.);
#1129=EDGE_CURVE('',#1376,#1247,#1378,.T.);
#1130=EDGE_CURVE('',#1379,#1379,#1380,.T.);
#1131=EDGE_CURVE('',#1381,#1376,#1382,.F.);
#1132=EDGE_CURVE('',#1298,#1381,#1383,.T.);
#1133=EDGE_CURVE('',#1296,#1250,#1384,.T.);
#1134=EDGE_CURVE('',#1294,#1252,#1385,.T.);
#1135=EDGE_CURVE('',#1292,#1254,#1386,.T.);
#1136=EDGE_CURVE('',#1387,#1289,#1388,.F.);
#1137=EDGE_CURVE('',#1387,#1256,#1389,.T.);
#1138=EDGE_CURVE('',#1387,#1390,#1391,.T.);
#1139=EDGE_CURVE('',#1390,#1258,#1392,.T.);
#1140=EDGE_CURVE('',#1390,#1393,#1394,.T.);
#1141=EDGE_CURVE('',#1393,#1260,#1395,.T.);
#1142=EDGE_CURVE('',#1393,#1396,#1397,.T.);
#1143=EDGE_CURVE('',#1396,#1262,#1398,.T.);
#1144=EDGE_CURVE('',#1328,#1396,#1399,.F.);
#1145=EDGE_CURVE('',#1326,#1264,#1400,.T.);
#1146=EDGE_CURVE('',#1324,#1266,#1401,.T.);
#1147=EDGE_CURVE('',#1402,#1322,#1403,.F.);
#1148=EDGE_CURVE('',#1402,#1268,#1404,.T.);
#1149=EDGE_CURVE('',#1402,#1405,#1406,.T.);
#1150=EDGE_CURVE('',#1405,#1270,#1407,.T.);
#1151=EDGE_CURVE('',#1405,#1408,#1409,.T.);
#1152=EDGE_CURVE('',#1408,#1272,#1410,.T.);
#1153=EDGE_CURVE('',#1408,#1411,#1412,.T.);
#1154=EDGE_CURVE('',#1411,#1274,#1413,.T.);
#1155=EDGE_CURVE('',#1316,#1411,#1414,.F.);
#1156=EDGE_CURVE('',#1314,#1276,#1415,.T.);
#1157=EDGE_CURVE('',#1312,#1278,#1416,.T.);
#1158=EDGE_CURVE('',#1290,#1390,#1417,.F.);
#1159=EDGE_CURVE('',#1381,#1418,#1419,.T.);
#1160=EDGE_CURVE('',#1418,#1348,#1420,.T.);
#1161=EDGE_CURVE('',#1421,#1421,#1422,.F.);
#1162=EDGE_CURVE('',#1423,#1423,#1424,.F.);
#1163=EDGE_CURVE('',#1305,#1355,#1425,.T.);
#1164=EDGE_CURVE('',#1307,#1426,#1427,.F.);
#1165=EDGE_CURVE('',#1428,#1353,#1429,.T.);
#1166=EDGE_CURVE('',#1428,#1430,#1431,.F.);
#1167=EDGE_CURVE('',#1430,#1426,#1432,.F.);
#1168=EDGE_CURVE('',#1433,#1433,#1434,.T.);
#1169=EDGE_CURVE('',#1435,#1435,#1436,.F.);
#1170=EDGE_CURVE('',#1437,#1437,#1438,.F.);
#1171=EDGE_CURVE('',#1439,#1439,#1440,.T.);
#1172=EDGE_CURVE('',#1426,#1333,#1441,.T.);
#1173=EDGE_CURVE('',#1318,#1408,#1442,.F.);
#1174=EDGE_CURVE('',#1320,#1405,#1443,.F.);
#1175=EDGE_CURVE('',#1330,#1393,#1444,.F.);
#1176=EDGE_CURVE('',#1335,#1430,#1445,.T.);
#1177=EDGE_CURVE('',#1337,#1428,#1446,.T.);
#1178=EDGE_CURVE('',#1418,#1447,#1448,.T.);
#1179=EDGE_CURVE('',#1447,#1351,#1449,.T.);
#1180=EDGE_CURVE('',#1447,#1428,#1450,.T.);
#1181=EDGE_CURVE('',#1451,#1451,#1452,.T.);
#1182=EDGE_CURVE('',#1453,#1454,#1455,.T.);
#1183=EDGE_CURVE('',#1456,#1454,#1457,.T.);
#1184=EDGE_CURVE('',#1458,#1456,#1459,.T.);
#1185=EDGE_CURVE('',#1453,#1458,#1460,.T.);
#1186=EDGE_CURVE('',#1461,#1461,#1462,.F.);
#1187=EDGE_CURVE('',#1463,#1463,#1464,.F.);
#1188=EDGE_CURVE('',#1465,#1466,#1467,.F.);
#1189=EDGE_CURVE('',#1466,#1468,#1469,.F.);
#1190=EDGE_CURVE('',#1468,#1470,#1471,.F.);
#1191=EDGE_CURVE('',#1470,#1465,#1472,.F.);
#1192=EDGE_CURVE('',#1473,#1473,#1474,.F.);
#1193=EDGE_CURVE('',#1475,#1475,#1476,.F.);
#1194=EDGE_CURVE('',#1477,#1478,#1479,.F.);
#1195=EDGE_CURVE('',#1477,#1480,#1481,.T.);
#1196=EDGE_CURVE('',#1482,#1480,#1483,.T.);
#1197=EDGE_CURVE('',#1478,#1482,#1484,.T.);
#1198=EDGE_CURVE('',#1485,#1485,#1486,.T.);
#1199=EDGE_CURVE('',#1487,#1487,#1488,.T.);
#1200=EDGE_CURVE('',#1489,#1490,#1491,.F.);
#1201=EDGE_CURVE('',#1490,#1492,#1493,.F.);
#1202=EDGE_CURVE('',#1492,#1494,#1495,.F.);
#1203=EDGE_CURVE('',#1494,#1489,#1496,.F.);
#1204=EDGE_CURVE('',#1497,#1497,#1498,.T.);
#1205=EDGE_CURVE('',#1499,#1499,#1500,.T.);
#1206=EDGE_CURVE('',#1501,#1502,#1503,.T.);
#1207=EDGE_CURVE('',#1454,#1502,#1504,.T.);
#1208=EDGE_CURVE('',#1501,#1453,#1505,.T.);
#1209=EDGE_CURVE('',#1502,#1506,#1507,.T.);
#1210=EDGE_CURVE('',#1506,#1482,#1508,.T.);
#1211=EDGE_CURVE('',#1480,#1456,#1509,.T.);
#1212=EDGE_CURVE('',#1477,#1510,#1511,.T.);
#1213=EDGE_CURVE('',#1510,#1512,#1513,.T.);
#1214=EDGE_CURVE('',#1458,#1512,#1514,.T.);
#1215=EDGE_CURVE('',#1512,#1501,#1515,.T.);
#1216=EDGE_CURVE('',#1490,#1465,#1516,.T.);
#1217=EDGE_CURVE('',#1489,#1466,#1517,.T.);
#1218=EDGE_CURVE('',#1494,#1468,#1518,.T.);
#1219=EDGE_CURVE('',#1492,#1470,#1519,.T.);
#1220=EDGE_CURVE('',#1478,#1520,#1521,.F.);
#1221=EDGE_CURVE('',#1510,#1520,#1522,.T.);
#1222=EDGE_CURVE('',#1520,#1506,#1523,.T.);
#1223=VERTEX_POINT('',#1524);
#1224=VERTEX_POINT('',#1525);
#1225=LINE('',#1526,#1527);
#1226=VERTEX_POINT('',#1529);
#1227=LINE('',#1530,#1531);
#1228=VERTEX_POINT('',#1533);
#1229=LINE('',#1534,#1535);
#1230=LINE('',#1537,#1538);
#1231=VERTEX_POINT('',#1540);
#1232=CIRCLE('',#1541,2.6);
#1233=VERTEX_POINT('',#1545);
#1234=VERTEX_POINT('',#1546);
#1235=LINE('',#1547,#1548);
#1236=VERTEX_POINT('',#1550);
#1237=LINE('',#1551,#1552);
#1238=VERTEX_POINT('',#1554);
#1239=LINE('',#1555,#1556);
#1240=VERTEX_POINT('',#1558);
#1241=LINE('',#1559,#1560);
#1242=VERTEX_POINT('',#1562);
#1243=LINE('',#1563,#1564);
#1244=LINE('',#1566,#1567);
#1245=VERTEX_POINT('',#1569);
#1246=CIRCLE('',#1570,2.6);
#1247=VERTEX_POINT('',#1574);
#1248=VERTEX_POINT('',#1575);
#1249=LINE('',#1576,#1577);
#1250=VERTEX_POINT('',#1579);
#1251=LINE('',#1580,#1581);
#1252=VERTEX_POINT('',#1583);
#1253=LINE('',#1584,#1585);
#1254=VERTEX_POINT('',#1587);
#1255=LINE('',#1588,#1589);
#1256=VERTEX_POINT('',#1591);
#1257=LINE('',#1592,#1593);
#1258=VERTEX_POINT('',#1595);
#1259=LINE('',#1596,#1597);
#1260=VERTEX_POINT('',#1599);
#1261=LINE('',#1600,#1601);
#1262=VERTEX_POINT('',#1603);
#1263=LINE('',#1604,#1605);
#1264=VERTEX_POINT('',#1607);
#1265=LINE('',#1608,#1609);
#1266=VERTEX_POINT('',#1611);
#1267=LINE('',#1612,#1613);
#1268=VERTEX_POINT('',#1615);
#1269=LINE('',#1616,#1617);
#1270=VERTEX_POINT('',#1619);
#1271=LINE('',#1620,#1621);
#1272=VERTEX_POINT('',#1623);
#1273=LINE('',#1624,#1625);
#1274=VERTEX_POINT('',#1627);
#1275=LINE('',#1628,#1629);
#1276=VERTEX_POINT('',#1631);
#1277=LINE('',#1632,#1633);
#1278=VERTEX_POINT('',#1635);
#1279=LINE('',#1636,#1637);
#1280=VERTEX_POINT('',#1639);
#1281=LINE('',#1640,#1641);
#1282=LINE('',#1643,#1644);
#1283=LINE('',#1646,#1647);
#1284=VERTEX_POINT('',#1649);
#1285=CIRCLE('',#1650,6.);
#1286=VERTEX_POINT('',#1654);
#1287=LINE('',#1655,#1656);
#1288=LINE('',#1658,#1659);
#1289=VERTEX_POINT('',#1661);
#1290=VERTEX_POINT('',#1662);
#1291=LINE('',#1663,#1664);
#1292=VERTEX_POINT('',#1666);
#1293=LINE('',#1667,#1668);
#1294=VERTEX_POINT('',#1670);
#1295=LINE('',#1671,#1672);
#1296=VERTEX_POINT('',#1674);
#1297=LINE('',#1675,#1676);
#1298=VERTEX_POINT('',#1678);
#1299=LINE('',#1679,#1680);
#1300=VERTEX_POINT('',#1682);
#1301=LINE('',#1683,#1684);
#1302=LINE('',#1686,#1687);
#1303=VERTEX_POINT('',#1689);
#1304=LINE('',#1690,#1691);
#1305=VERTEX_POINT('',#1693);
#1306=LINE('',#1694,#1695);
#1307=VERTEX_POINT('',#1697);
#1308=LINE('',#1698,#1699);
#1309=VERTEX_POINT('',#1701);
#1310=LINE('',#1702,#1703);
#1311=LINE('',#1705,#1706);
#1312=VERTEX_POINT('',#1708);
#1313=LINE('',#1709,#1710);
#1314=VERTEX_POINT('',#1712);
#1315=LINE('',#1713,#1714);
#1316=VERTEX_POINT('',#1716);
#1317=LINE('',#1717,#1718);
#1318=VERTEX_POINT('',#1720);
#1319=LINE('',#1721,#1722);
#1320=VERTEX_POINT('',#1724);
#1321=LINE('',#1725,#1726);
#1322=VERTEX_POINT('',#1728);
#1323=LINE('',#1729,#1730);
#1324=VERTEX_POINT('',#1732);
#1325=LINE('',#1733,#1734);
#1326=VERTEX_POINT('',#1736);
#1327=LINE('',#1737,#1738);
#1328=VERTEX_POINT('',#1740);
#1329=LINE('',#1741,#1742);
#1330=VERTEX_POINT('',#1744);
#1331=LINE('',#1745,#1746);
#1332=LINE('',#1748,#1749);
#1333=VERTEX_POINT('',#1751);
#1334=LINE('',#1752,#1753);
#1335=VERTEX_POINT('',#1755);
#1336=LINE('',#1756,#1757);
#1337=VERTEX_POINT('',#1759);
#1338=LINE('',#1760,#1761);
#1339=LINE('',#1763,#1764);
#1340=VERTEX_POINT('',#1766);
#1341=CIRCLE('',#1767,1.6);
#1342=VERTEX_POINT('',#1771);
#1343=CIRCLE('',#1772,1.6);
#1344=VERTEX_POINT('',#1776);
#1345=CIRCLE('',#1777,1.6);
#1346=VERTEX_POINT('',#1781);
#1347=CIRCLE('',#1782,1.6);
#1348=VERTEX_POINT('',#1786);
#1349=VERTEX_POINT('',#1787);
#1350=LINE('',#1788,#1789);
#1351=VERTEX_POINT('',#1791);
#1352=LINE('',#1792,#1793);
#1353=VERTEX_POINT('',#1795);
#1354=LINE('',#1796,#1797);
#1355=VERTEX_POINT('',#1799);
#1356=LINE('',#1800,#1801);
#1357=VERTEX_POINT('',#1803);
#1358=LINE('',#1804,#1805);
#1359=LINE('',#1807,#1808);
#1360=VERTEX_POINT('',#1810);
#1361=LINE('',#1811,#1812);
#1362=VERTEX_POINT('',#1814);
#1363=LINE('',#1815,#1816);
#1364=LINE('',#1818,#1819);
#1365=LINE('',#1821,#1822);
#1366=VERTEX_POINT('',#1824);
#1367=LINE('',#1825,#1826);
#1368=LINE('',#1828,#1829);
#1369=LINE('',#1831,#1832);
#1370=VERTEX_POINT('',#1834);
#1371=LINE('',#1835,#1836);
#1372=LINE('',#1838,#1839);
#1373=VERTEX_POINT('',#1841);
#1374=CIRCLE('',#1842,6.);
#1375=LINE('',#1846,#1847);
#1376=VERTEX_POINT('',#1849);
#1377=LINE('',#1850,#1851);
#1378=LINE('',#1853,#1854);
#1379=VERTEX_POINT('',#1856);
#1380=CIRCLE('',#1857,2.);
#1381=VERTEX_POINT('',#1861);
#1382=LINE('',#1862,#1863);
#1383=LINE('',#1865,#1866);
#1384=LINE('',#1868,#1869);
#1385=LINE('',#1871,#1872);
#1386=LINE('',#1874,#1875);
#1387=VERTEX_POINT('',#1877);
#1388=LINE('',#1878,#1879);
#1389=LINE('',#1881,#1882);
#1390=VERTEX_POINT('',#1884);
#1391=LINE('',#1885,#1886);
#1392=LINE('',#1888,#1889);
#1393=VERTEX_POINT('',#1891);
#1394=LINE('',#1892,#1893);
#1395=LINE('',#1895,#1896);
#1396=VERTEX_POINT('',#1898);
#1397=LINE('',#1899,#1900);
#1398=LINE('',#1902,#1903);
#1399=LINE('',#1905,#1906);
#1400=LINE('',#1908,#1909);
#1401=LINE('',#1911,#1912);
#1402=VERTEX_POINT('',#1914);
#1403=LINE('',#1915,#1916);
#1404=LINE('',#1918,#1919);
#1405=VERTEX_POINT('',#1921);
#1406=LINE('',#1922,#1923);
#1407=LINE('',#1925,#1926);
#1408=VERTEX_POINT('',#1928);
#1409=LINE('',#1929,#1930);
#1410=LINE('',#1932,#1933);
#1411=VERTEX_POINT('',#1935);
#1412=LINE('',#1936,#1937);
#1413=LINE('',#1939,#1940);
#1414=LINE('',#1942,#1943);
#1415=LINE('',#1945,#1946);
#1416=LINE('',#1948,#1949);
#1417=LINE('',#1951,#1952);
#1418=VERTEX_POINT('',#1954);
#1419=LINE('',#1955,#1956);
#1420=LINE('',#1958,#1959);
#1421=VERTEX_POINT('',#1961);
#1422=CIRCLE('',#1962,2.);
#1423=VERTEX_POINT('',#1966);
#1424=CIRCLE('',#1967,2.);
#1425=LINE('',#1971,#1972);
#1426=VERTEX_POINT('',#1974);
#1427=LINE('',#1975,#1976);
#1428=VERTEX_POINT('',#1978);
#1429=LINE('',#1979,#1980);
#1430=VERTEX_POINT('',#1982);
#1431=LINE('',#1983,#1984);
#1432=LINE('',#1986,#1987);
#1433=VERTEX_POINT('',#1989);
#1434=CIRCLE('',#1990,1.6);
#1435=VERTEX_POINT('',#1994);
#1436=CIRCLE('',#1995,1.6);
#1437=VERTEX_POINT('',#1999);
#1438=CIRCLE('',#2000,1.6);
#1439=VERTEX_POINT('',#2004);
#1440=CIRCLE('',#2005,1.6);
#1441=LINE('',#2009,#2010);
#1442=LINE('',#2012,#2013);
#1443=LINE('',#2015,#2016);
#1444=LINE('',#2018,#2019);
#1445=LINE('',#2021,#2022);
#1446=LINE('',#2024,#2025);
#1447=VERTEX_POINT('',#2027);
#1448=LINE('',#2028,#2029);
#1449=LINE('',#2031,#2032);
#1450=LINE('',#2034,#2035);
#1451=VERTEX_POINT('',#2037);
#1452=CIRCLE('',#2038,2.);
#1453=VERTEX_POINT('',#2042);
#1454=VERTEX_POINT('',#2043);
#1455=LINE('',#2044,#2045);
#1456=VERTEX_POINT('',#2047);
#1457=LINE('',#2048,#2049);
#1458=VERTEX_POINT('',#2051);
#1459=LINE('',#2052,#2053);
#1460=LINE('',#2055,#2056);
#1461=VERTEX_POINT('',#2058);
#1462=CIRCLE('',#2059,2.);
#1463=VERTEX_POINT('',#2063);
#1464=CIRCLE('',#2064,2.);
#1465=VERTEX_POINT('',#2068);
#1466=VERTEX_POINT('',#2069);
#1467=LINE('',#2070,#2071);
#1468=VERTEX_POINT('',#2073);
#1469=LINE('',#2074,#2075);
#1470=VERTEX_POINT('',#2077);
#1471=LINE('',#2078,#2079);
#1472=LINE('',#2081,#2082);
#1473=VERTEX_POINT('',#2084);
#1474=CIRCLE('',#2085,0.999999999999998);
#1475=VERTEX_POINT('',#2089);
#1476=CIRCLE('',#2090,1.);
#1477=VERTEX_POINT('',#2094);
#1478=VERTEX_POINT('',#2095);
#1479=LINE('',#2096,#2097);
#1480=VERTEX_POINT('',#2099);
#1481=LINE('',#2100,#2101);
#1482=VERTEX_POINT('',#2103);
#1483=LINE('',#2104,#2105);
#1484=LINE('',#2107,#2108);
#1485=VERTEX_POINT('',#2110);
#1486=CIRCLE('',#2111,2.);
#1487=VERTEX_POINT('',#2115);
#1488=CIRCLE('',#2116,2.);
#1489=VERTEX_POINT('',#2120);
#1490=VERTEX_POINT('',#2121);
#1491=LINE('',#2122,#2123);
#1492=VERTEX_POINT('',#2125);
#1493=LINE('',#2126,#2127);
#1494=VERTEX_POINT('',#2129);
#1495=LINE('',#2130,#2131);
#1496=LINE('',#2133,#2134);
#1497=VERTEX_POINT('',#2136);
#1498=CIRCLE('',#2137,0.999999999999998);
#1499=VERTEX_POINT('',#2141);
#1500=CIRCLE('',#2142,1.);
#1501=VERTEX_POINT('',#2146);
#1502=VERTEX_POINT('',#2147);
#1503=LINE('',#2148,#2149);
#1504=LINE('',#2151,#2152);
#1505=LINE('',#2154,#2155);
#1506=VERTEX_POINT('',#2157);
#1507=LINE('',#2158,#2159);
#1508=LINE('',#2161,#2162);
#1509=LINE('',#2164,#2165);
#1510=VERTEX_POINT('',#2167);
#1511=LINE('',#2168,#2169);
#1512=VERTEX_POINT('',#2171);
#1513=LINE('',#2172,#2173);
#1514=LINE('',#2175,#2176);
#1515=LINE('',#2178,#2179);
#1516=LINE('',#2181,#2182);
#1517=LINE('',#2184,#2185);
#1518=LINE('',#2187,#2188);
#1519=LINE('',#2190,#2191);
#1520=VERTEX_POINT('',#2193);
#1521=LINE('',#2194,#2195);
#1522=LINE('',#2197,#2198);
#1523=LINE('',#2200,#2201);
#1524=CARTESIAN_POINT('',(52.,9.18485099360509E-17,-1.49999999999999));
#1525=CARTESIAN_POINT('',(52.,1.3164953090834E-15,-21.5));
#1526=CARTESIAN_POINT('',(52.,6.58247654541702E-16,-21.5));
#1527=VECTOR('',#1528,1.);
#1528=DIRECTION('',(0.,-3.06161699786838E-17,1.));
#1529=CARTESIAN_POINT('',(52.,-64.,-21.5));
#1530=CARTESIAN_POINT('',(52.,-64.,-21.5));
#1531=VECTOR('',#1532,1.);
#1532=DIRECTION('',(0.,1.,5.55111512312578E-17));
#1533=CARTESIAN_POINT('',(52.,-64.,-1.49999999999999));
#1534=CARTESIAN_POINT('',(52.,-64.,-21.5));
#1535=VECTOR('',#1536,1.);
#1536=DIRECTION('',(0.,0.,1.));
#1537=CARTESIAN_POINT('',(52.,-64.,-1.49999999999999));
#1538=VECTOR('',#1539,1.);
#1539=DIRECTION('',(0.,1.,5.55111512312578E-17));
#1540=CARTESIAN_POINT('',(52.,-29.4,-11.5));
#1541=AXIS2_PLACEMENT_3D('',#1542,#1543,#1544);
#1542=CARTESIAN_POINT('',(52.,-32.,-11.5));
#1543=DIRECTION('',(1.,0.,0.));
#1544=DIRECTION('',(0.,1.,6.12323399573677E-17));
#1545=CARTESIAN_POINT('',(55.,-1.50019232895551E-15,24.5));
#1546=CARTESIAN_POINT('',(55.,-8.77663539388937E-16,21.5));
#1547=CARTESIAN_POINT('',(55.,-1.50019232895551E-15,24.5));
#1548=VECTOR('',#1549,1.);
#1549=DIRECTION('',(0.,6.12323399573676E-17,-1.));
#1550=CARTESIAN_POINT('',(55.,-64.,21.5));
#1551=CARTESIAN_POINT('',(55.,-64.,21.5));
#1552=VECTOR('',#1553,1.);
#1553=DIRECTION('',(0.,1.,5.55111512312578E-17));
#1554=CARTESIAN_POINT('',(55.,-64.,-24.5));
#1555=CARTESIAN_POINT('',(55.,-64.,21.5));
#1556=VECTOR('',#1557,1.);
#1557=DIRECTION('',(0.,0.,-1.));
#1558=CARTESIAN_POINT('',(55.,3.,-24.5));
#1559=CARTESIAN_POINT('',(55.,-64.,-24.5));
#1560=VECTOR('',#1561,1.);
#1561=DIRECTION('',(0.,1.,5.30255772955299E-17));
#1562=CARTESIAN_POINT('',(55.,3.,24.5));
#1563=CARTESIAN_POINT('',(55.,3.,24.5));
#1564=VECTOR('',#1565,1.);
#1565=DIRECTION('',(0.,4.53152254949043E-17,-1.));
#1566=CARTESIAN_POINT('',(55.,-1.50019232895551E-15,24.5));
#1567=VECTOR('',#1568,1.);
#1568=DIRECTION('',(0.,1.,0.));
#1569=CARTESIAN_POINT('',(55.,-29.4,-11.5));
#1570=AXIS2_PLACEMENT_3D('',#1571,#1572,#1573);
#1571=CARTESIAN_POINT('',(55.,-32.,-11.5));
#1572=DIRECTION('',(1.,0.,0.));
#1573=DIRECTION('',(0.,1.,6.12323399573676E-17));
#1574=CARTESIAN_POINT('',(-49.,6.58247654541703E-16,-21.5));
#1575=CARTESIAN_POINT('',(-49.,4.59242549680259E-17,-1.50000000000001));
#1576=CARTESIAN_POINT('',(-49.,4.59242549680259E-17,-1.5));
#1577=VECTOR('',#1578,1.);
#1578=DIRECTION('',(0.,7.50250909636901E-17,-1.));
#1579=CARTESIAN_POINT('',(-41.5,1.3164953090834E-15,-21.5));
#1580=CARTESIAN_POINT('',(-49.,6.58247654541703E-16,-21.5));
#1581=VECTOR('',#1582,1.);
#1582=DIRECTION('',(1.,0.,0.));
#1583=CARTESIAN_POINT('',(-41.5,9.49101269339199E-16,-15.5));
#1584=CARTESIAN_POINT('',(-41.5,6.58247654541703E-16,-21.5));
#1585=VECTOR('',#1586,1.);
#1586=DIRECTION('',(0.,-3.06161699786838E-17,1.));
#1587=CARTESIAN_POINT('',(-36.5,9.49101269339199E-16,-15.5));
#1588=CARTESIAN_POINT('',(-41.5,4.745506346696E-16,-15.5));
#1589=VECTOR('',#1590,1.);
#1590=DIRECTION('',(1.,-1.97215226305253E-32,0.));
#1591=CARTESIAN_POINT('',(-36.5,1.05931948126246E-15,-17.3));
#1592=CARTESIAN_POINT('',(-36.5,4.74550634669599E-16,-15.5));
#1593=VECTOR('',#1594,1.);
#1594=DIRECTION('',(0.,3.06161699786838E-17,-1.));
#1595=CARTESIAN_POINT('',(-38.,1.05931948126246E-15,-17.3));
#1596=CARTESIAN_POINT('',(-36.5,5.2965974063123E-16,-17.3));
#1597=VECTOR('',#1598,1.);
#1598=DIRECTION('',(-1.,0.,0.));
#1599=CARTESIAN_POINT('',(-38.,1.1327982892113E-15,-18.5));
#1600=CARTESIAN_POINT('',(-38.,5.2965974063123E-16,-17.3));
#1601=VECTOR('',#1602,1.);
#1602=DIRECTION('',(0.,3.06161699786838E-17,-1.));
#1603=CARTESIAN_POINT('',(-36.5,1.1327982892113E-15,-18.5));
#1604=CARTESIAN_POINT('',(-38.,5.66399144605651E-16,-18.5));
#1605=VECTOR('',#1606,1.);
#1606=DIRECTION('',(1.,0.,0.));
#1607=CARTESIAN_POINT('',(-36.5,1.3164953090834E-15,-21.5));
#1608=CARTESIAN_POINT('',(-36.5,5.66399144605651E-16,-18.5));
#1609=VECTOR('',#1610,1.);
#1610=DIRECTION('',(-2.368475785867E-15,3.06161699786838E-17,-1.));
#1611=CARTESIAN_POINT('',(2.5,1.3164953090834E-15,-21.5));
#1612=CARTESIAN_POINT('',(-36.5,6.58247654541702E-16,-21.5));
#1613=VECTOR('',#1614,1.);
#1614=DIRECTION('',(1.,-2.52840033724683E-33,9.10952225333462E-17));
#1615=CARTESIAN_POINT('',(2.5,1.1327982892113E-15,-18.5));
#1616=CARTESIAN_POINT('',(2.5,6.58247654541702E-16,-21.5));
#1617=VECTOR('',#1618,1.);
#1618=DIRECTION('',(-2.96059473233375E-16,-3.06161699786838E-17,1.));
#1619=CARTESIAN_POINT('',(4.00000000000001,1.1327982892113E-15,-18.5));
#1620=CARTESIAN_POINT('',(2.50000000000001,5.66399144605651E-16,-18.5));
#1621=VECTOR('',#1622,1.);
#1622=DIRECTION('',(1.,0.,0.));
#1623=CARTESIAN_POINT('',(4.00000000000001,1.05931948126246E-15,-17.3));
#1624=CARTESIAN_POINT('',(4.00000000000001,5.66399144605651E-16,-18.5));
#1625=VECTOR('',#1626,1.);
#1626=DIRECTION('',(-7.40148683083436E-16,-3.06161699786838E-17,1.));
#1627=CARTESIAN_POINT('',(2.5,1.05931948126246E-15,-17.3));
#1628=CARTESIAN_POINT('',(4.00000000000001,5.2965974063123E-16,-17.3));
#1629=VECTOR('',#1630,1.);
#1630=DIRECTION('',(-1.,0.,0.));
#1631=CARTESIAN_POINT('',(2.5,9.49101269339199E-16,-15.5));
#1632=CARTESIAN_POINT('',(2.5,5.2965974063123E-16,-17.3));
#1633=VECTOR('',#1634,1.);
#1634=DIRECTION('',(-2.46716227694478E-16,-3.06161699786838E-17,1.));
#1635=CARTESIAN_POINT('',(7.5,9.49101269339199E-16,-15.5));
#1636=CARTESIAN_POINT('',(2.5,4.74550634669599E-16,-15.5));
#1637=VECTOR('',#1638,1.);
#1638=DIRECTION('',(1.,0.,3.5527136788005E-16));
#1639=CARTESIAN_POINT('',(7.5,1.3164953090834E-15,-21.5));
#1640=CARTESIAN_POINT('',(7.5,4.74550634669599E-16,-15.5));
#1641=VECTOR('',#1642,1.);
#1642=DIRECTION('',(2.96059473233375E-16,3.06161699786838E-17,-1.));
#1643=CARTESIAN_POINT('',(7.5,6.58247654541702E-16,-21.5));
#1644=VECTOR('',#1645,1.);
#1645=DIRECTION('',(1.,-8.86360567664058E-33,3.1934504977982E-16));
#1646=CARTESIAN_POINT('',(52.,4.59242549680254E-17,-1.49999999999999));
#1647=VECTOR('',#1648,1.);
#1648=DIRECTION('',(-1.,4.82054544496132E-33,-1.56090761877992E-16));
#1649=CARTESIAN_POINT('',(23.75,7.04171909509728E-16,-11.5));
#1650=AXIS2_PLACEMENT_3D('',#1651,#1652,#1653);
#1651=CARTESIAN_POINT('',(29.75,7.04171909509728E-16,-11.5));
#1652=DIRECTION('',(0.,1.,6.12323399573677E-17));
#1653=DIRECTION('',(-1.,7.49879891330929E-33,-1.22464679914735E-16));
#1654=CARTESIAN_POINT('',(7.5,-64.,-21.5));
#1655=CARTESIAN_POINT('',(7.5,-64.,-21.5));
#1656=VECTOR('',#1657,1.);
#1657=DIRECTION('',(0.,1.,0.));
#1658=CARTESIAN_POINT('',(7.5,-64.,-21.5));
#1659=VECTOR('',#1660,1.);
#1660=DIRECTION('',(1.,0.,2.39508787334865E-16));
#1661=CARTESIAN_POINT('',(-36.5,-64.,-16.8));
#1662=CARTESIAN_POINT('',(-38.5,-64.,-16.8));
#1663=CARTESIAN_POINT('',(-36.5,-64.,-16.8));
#1664=VECTOR('',#1665,1.);
#1665=DIRECTION('',(-1.,0.,-1.77635683940024E-15));
#1666=CARTESIAN_POINT('',(-36.5,-64.,-15.5));
#1667=CARTESIAN_POINT('',(-36.5,-64.,-15.5));
#1668=VECTOR('',#1669,1.);
#1669=DIRECTION('',(0.,0.,-1.));
#1670=CARTESIAN_POINT('',(-41.5,-64.,-15.5));
#1671=CARTESIAN_POINT('',(-41.5,-64.,-15.5));
#1672=VECTOR('',#1673,1.);
#1673=DIRECTION('',(1.,0.,0.));
#1674=CARTESIAN_POINT('',(-41.5,-64.,-21.5));
#1675=CARTESIAN_POINT('',(-41.5,-64.,-21.5));
#1676=VECTOR('',#1677,1.);
#1677=DIRECTION('',(0.,0.,1.));
#1678=CARTESIAN_POINT('',(-52.,-64.,-21.5));
#1679=CARTESIAN_POINT('',(-52.,-64.,-21.5));
#1680=VECTOR('',#1681,1.);
#1681=DIRECTION('',(1.,0.,0.));
#1682=CARTESIAN_POINT('',(-52.,-64.,-24.5));
#1683=CARTESIAN_POINT('',(-52.,-64.,-24.5));
#1684=VECTOR('',#1685,1.);
#1685=DIRECTION('',(0.,0.,1.));
#1686=CARTESIAN_POINT('',(55.,-64.,-24.5));
#1687=VECTOR('',#1688,1.);
#1688=DIRECTION('',(-1.,0.,-1.32811726310299E-16));
#1689=CARTESIAN_POINT('',(52.,-64.,21.5));
#1690=CARTESIAN_POINT('',(52.,-64.,21.5));
#1691=VECTOR('',#1692,1.);
#1692=DIRECTION('',(1.,0.,0.));
#1693=CARTESIAN_POINT('',(52.,-64.,1.50000000000001));
#1694=CARTESIAN_POINT('',(52.,-64.,1.50000000000001));
#1695=VECTOR('',#1696,1.);
#1696=DIRECTION('',(0.,0.,1.));
#1697=CARTESIAN_POINT('',(-36.,-64.,1.49999999999999));
#1698=CARTESIAN_POINT('',(-36.,-64.,1.49999999999999));
#1699=VECTOR('',#1700,1.);
#1700=DIRECTION('',(1.,0.,1.53917282959397E-16));
#1701=CARTESIAN_POINT('',(-36.,-64.,-1.50000000000001));
#1702=CARTESIAN_POINT('',(-36.,-64.,1.49999999999999));
#1703=VECTOR('',#1704,1.);
#1704=DIRECTION('',(0.,0.,-1.));
#1705=CARTESIAN_POINT('',(52.,-64.,-1.49999999999999));
#1706=VECTOR('',#1707,1.);
#1707=DIRECTION('',(-1.,0.,-1.56440517106272E-16));
#1708=CARTESIAN_POINT('',(7.5,-64.,-15.5));
#1709=CARTESIAN_POINT('',(7.5,-64.,-15.5));
#1710=VECTOR('',#1711,1.);
#1711=DIRECTION('',(2.96059473233375E-16,0.,-1.));
#1712=CARTESIAN_POINT('',(2.5,-64.,-15.5));
#1713=CARTESIAN_POINT('',(2.5,-64.,-15.5));
#1714=VECTOR('',#1715,1.);
#1715=DIRECTION('',(1.,0.,0.));
#1716=CARTESIAN_POINT('',(2.5,-64.,-16.8));
#1717=CARTESIAN_POINT('',(2.5,-64.,-16.8));
#1718=VECTOR('',#1719,1.);
#1719=DIRECTION('',(-3.41607084500047E-16,0.,1.));
#1720=CARTESIAN_POINT('',(4.50000000000001,-64.,-16.8));
#1721=CARTESIAN_POINT('',(4.50000000000001,-64.,-16.8));
#1722=VECTOR('',#1723,1.);
#1723=DIRECTION('',(-1.,0.,0.));
#1724=CARTESIAN_POINT('',(4.50000000000001,-64.,-19.));
#1725=CARTESIAN_POINT('',(4.50000000000001,-64.,-19.));
#1726=VECTOR('',#1727,1.);
#1727=DIRECTION('',(-8.07434927000113E-16,0.,1.));
#1728=CARTESIAN_POINT('',(2.5,-64.,-19.));
#1729=CARTESIAN_POINT('',(2.50000000000001,-64.,-19.));
#1730=VECTOR('',#1731,1.);
#1731=DIRECTION('',(1.,0.,0.));
#1732=CARTESIAN_POINT('',(2.5,-64.,-21.5));
#1733=CARTESIAN_POINT('',(2.5,-64.,-21.5));
#1734=VECTOR('',#1735,1.);
#1735=DIRECTION('',(-3.55271367880051E-16,0.,1.));
#1736=CARTESIAN_POINT('',(-36.5,-64.,-21.5));
#1737=CARTESIAN_POINT('',(-36.5,-64.,-21.5));
#1738=VECTOR('',#1739,1.);
#1739=DIRECTION('',(1.,0.,1.82190445066692E-16));
#1740=CARTESIAN_POINT('',(-36.5,-64.,-19.));
#1741=CARTESIAN_POINT('',(-36.5,-64.,-19.));
#1742=VECTOR('',#1743,1.);
#1743=DIRECTION('',(-2.8421709430404E-15,0.,-1.));
#1744=CARTESIAN_POINT('',(-38.5,-64.,-19.));
#1745=CARTESIAN_POINT('',(-38.5,-64.,-19.));
#1746=VECTOR('',#1747,1.);
#1747=DIRECTION('',(1.,0.,-1.77635683940023E-15));
#1748=CARTESIAN_POINT('',(-38.5,-64.,-16.8));
#1749=VECTOR('',#1750,1.);
#1750=DIRECTION('',(0.,0.,-1.));
#1751=CARTESIAN_POINT('',(-46.,-54.,-1.50000000000001));
#1752=CARTESIAN_POINT('',(-36.,-64.,-1.50000000000001));
#1753=VECTOR('',#1754,1.);
#1754=DIRECTION('',(-0.707106781186547,0.707106781186547,-6.2803698347351E-17));
#1755=CARTESIAN_POINT('',(-46.,-12.9999999999567,-1.50000000000001));
#1756=CARTESIAN_POINT('',(-46.,-12.9999999999567,-1.50000000000001));
#1757=VECTOR('',#1758,1.);
#1758=DIRECTION('',(0.,-1.,-5.95729427847016E-17));
#1759=CARTESIAN_POINT('',(-49.,-10.,-1.50000000000001));
#1760=CARTESIAN_POINT('',(-49.,-10.,-1.50000000000001));
#1761=VECTOR('',#1762,1.);
#1762=DIRECTION('',(0.707106781191647,-0.707106781181448,5.23364152898366E-17));
#1763=CARTESIAN_POINT('',(-49.,0.,-1.50000000000001));
#1764=VECTOR('',#1765,1.);
#1765=DIRECTION('',(0.,-1.,-6.66133814775094E-17));
#1766=CARTESIAN_POINT('',(-21.5,-20.4,-1.5));
#1767=AXIS2_PLACEMENT_3D('',#1768,#1769,#1770);
#1768=CARTESIAN_POINT('',(-21.5,-22.,-1.5));
#1769=DIRECTION('',(1.55858232303147E-16,6.2450045135165E-17,-1.));
#1770=DIRECTION('',(6.12323399573677E-17,1.,6.24500451351651E-17));
#1771=CARTESIAN_POINT('',(35.,-20.4,-1.5));
#1772=AXIS2_PLACEMENT_3D('',#1773,#1774,#1775);
#1773=CARTESIAN_POINT('',(35.,-22.,-1.49999999999999));
#1774=DIRECTION('',(-1.55858232303147E-16,-6.2450045135165E-17,1.));
#1775=DIRECTION('',(2.17411870144396E-16,1.,6.24500451351651E-17));
#1776=CARTESIAN_POINT('',(-21.5,-43.6,-1.5));
#1777=AXIS2_PLACEMENT_3D('',#1778,#1779,#1780);
#1778=CARTESIAN_POINT('',(-21.5,-42.,-1.5));
#1779=DIRECTION('',(-1.55858232303147E-16,-6.2450045135165E-17,1.));
#1780=DIRECTION('',(6.12323399573677E-17,-1.,-6.2450045135165E-17));
#1781=CARTESIAN_POINT('',(35.,-43.6,-1.5));
#1782=AXIS2_PLACEMENT_3D('',#1783,#1784,#1785);
#1783=CARTESIAN_POINT('',(35.,-42.,-1.5));
#1784=DIRECTION('',(1.55858232303147E-16,6.2450045135165E-17,-1.));
#1785=DIRECTION('',(2.17411870144396E-16,-1.,-6.2450045135165E-17));
#1786=CARTESIAN_POINT('',(-52.,-1.25526296912604E-15,20.5));
#1787=CARTESIAN_POINT('',(-52.,1.00012821930367E-15,-24.5));
#1788=CARTESIAN_POINT('',(-52.,7.50096164477754E-16,-24.5));
#1789=VECTOR('',#1790,1.);
#1790=DIRECTION('',(0.,-3.06161699786838E-17,1.));
#1791=CARTESIAN_POINT('',(-49.,-1.25526296912604E-15,20.5));
#1792=CARTESIAN_POINT('',(-52.,-1.51580990426314E-15,20.5));
#1793=VECTOR('',#1794,1.);
#1794=DIRECTION('',(1.,0.,0.));
#1795=CARTESIAN_POINT('',(-49.,-4.59242549680256E-17,1.5));
#1796=CARTESIAN_POINT('',(-49.,-1.51580990426314E-15,20.5));
#1797=VECTOR('',#1798,1.);
#1798=DIRECTION('',(0.,7.73624025944799E-17,-1.));
#1799=CARTESIAN_POINT('',(52.,-9.18485099360521E-17,1.50000000000001));
#1800=CARTESIAN_POINT('',(-49.,-4.59242549680256E-17,1.5));
#1801=VECTOR('',#1802,1.);
#1802=DIRECTION('',(1.,-4.82054544496132E-33,1.53892300443091E-16));
#1803=CARTESIAN_POINT('',(52.,-1.31649530908341E-15,21.5));
#1804=CARTESIAN_POINT('',(52.,-4.59242549680259E-17,1.50000000000001));
#1805=VECTOR('',#1806,1.);
#1806=DIRECTION('',(0.,-3.06161699786838E-17,1.));
#1807=CARTESIAN_POINT('',(52.,-6.58247654541703E-16,21.5));
#1808=VECTOR('',#1809,1.);
#1809=DIRECTION('',(1.,0.,0.));
#1810=CARTESIAN_POINT('',(-55.,-1.50019232895551E-15,24.5));
#1811=CARTESIAN_POINT('',(-55.,-1.50019232895551E-15,24.5));
#1812=VECTOR('',#1813,1.);
#1813=DIRECTION('',(1.,-1.25500598557888E-32,1.61486985400023E-16));
#1814=CARTESIAN_POINT('',(-55.,1.50019232895551E-15,-24.5));
#1815=CARTESIAN_POINT('',(-55.,1.50019232895551E-15,-24.5));
#1816=VECTOR('',#1817,1.);
#1817=DIRECTION('',(0.,-6.12323399573677E-17,1.));
#1818=CARTESIAN_POINT('',(-52.,1.50019232895551E-15,-24.5));
#1819=VECTOR('',#1820,1.);
#1820=DIRECTION('',(-1.,0.,0.));
#1821=CARTESIAN_POINT('',(52.,-64.,21.5));
#1822=VECTOR('',#1823,1.);
#1823=DIRECTION('',(0.,1.,5.55111512312578E-17));
#1824=CARTESIAN_POINT('',(-55.,3.,-24.5));
#1825=CARTESIAN_POINT('',(-55.,1.50019232895551E-15,-24.5));
#1826=VECTOR('',#1827,1.);
#1827=DIRECTION('',(0.,1.,0.));
#1828=CARTESIAN_POINT('',(55.,3.,-24.5));
#1829=VECTOR('',#1830,1.);
#1830=DIRECTION('',(-1.,0.,-1.61486985400023E-16));
#1831=CARTESIAN_POINT('',(-52.,-64.,-24.5));
#1832=VECTOR('',#1833,1.);
#1833=DIRECTION('',(0.,1.,0.));
#1834=CARTESIAN_POINT('',(-55.,3.,24.5));
#1835=CARTESIAN_POINT('',(-55.,3.,-24.5));
#1836=VECTOR('',#1837,1.);
#1837=DIRECTION('',(0.,-4.53152254949043E-17,1.));
#1838=CARTESIAN_POINT('',(-55.,3.,24.5));
#1839=VECTOR('',#1840,1.);
#1840=DIRECTION('',(1.,0.,1.61486985400023E-16));
#1841=CARTESIAN_POINT('',(23.75,3.,-11.5));
#1842=AXIS2_PLACEMENT_3D('',#1843,#1844,#1845);
#1843=CARTESIAN_POINT('',(29.75,3.,-11.5));
#1844=DIRECTION('',(0.,1.,6.12323399573677E-17));
#1845=DIRECTION('',(-1.,7.49879891330929E-33,-1.22464679914735E-16));
#1846=CARTESIAN_POINT('',(-55.,-1.50019232895551E-15,24.5));
#1847=VECTOR('',#1848,1.);
#1848=DIRECTION('',(0.,1.,0.));
#1849=CARTESIAN_POINT('',(-49.,-10.,-21.5));
#1850=CARTESIAN_POINT('',(-49.,-10.,-1.5));
#1851=VECTOR('',#1852,1.);
#1852=DIRECTION('',(0.,8.88178419700125E-17,-1.));
#1853=CARTESIAN_POINT('',(-49.,-10.,-21.5));
#1854=VECTOR('',#1855,1.);
#1855=DIRECTION('',(0.,1.,0.));
#1856=CARTESIAN_POINT('',(-49.,-7.,-15.));
#1857=AXIS2_PLACEMENT_3D('',#1858,#1859,#1860);
#1858=CARTESIAN_POINT('',(-49.,-5.,-15.));
#1859=DIRECTION('',(-1.,0.,0.));
#1860=DIRECTION('',(0.,-1.,-6.12323399573677E-17));
#1861=CARTESIAN_POINT('',(-52.,-10.,-21.5));
#1862=CARTESIAN_POINT('',(-49.,-10.,-21.5));
#1863=VECTOR('',#1864,1.);
#1864=DIRECTION('',(-1.,0.,0.));
#1865=CARTESIAN_POINT('',(-52.,-64.,-21.5));
#1866=VECTOR('',#1867,1.);
#1867=DIRECTION('',(0.,1.,6.57909940518611E-17));
#1868=CARTESIAN_POINT('',(-41.5,-64.,-21.5));
#1869=VECTOR('',#1870,1.);
#1870=DIRECTION('',(0.,1.,5.55111512312578E-17));
#1871=CARTESIAN_POINT('',(-41.5,-64.,-15.5));
#1872=VECTOR('',#1873,1.);
#1873=DIRECTION('',(0.,1.,5.55111512312578E-17));
#1874=CARTESIAN_POINT('',(-36.5,-64.,-15.5));
#1875=VECTOR('',#1876,1.);
#1876=DIRECTION('',(0.,1.,5.55111512312578E-17));
#1877=CARTESIAN_POINT('',(-36.5,-63.5,-17.3));
#1878=CARTESIAN_POINT('',(-36.5,-64.,-16.8));
#1879=VECTOR('',#1880,1.);
#1880=DIRECTION('',(0.,0.707106781186545,-0.70710678118655));
#1881=CARTESIAN_POINT('',(-36.5,-63.5,-17.3));
#1882=VECTOR('',#1883,1.);
#1883=DIRECTION('',(0.,1.,5.59482469102441E-17));
#1884=CARTESIAN_POINT('',(-38.,-63.5,-17.3));
#1885=CARTESIAN_POINT('',(-36.5,-63.5,-17.3));
#1886=VECTOR('',#1887,1.);
#1887=DIRECTION('',(-1.,0.,0.));
#1888=CARTESIAN_POINT('',(-38.,-63.5,-17.3));
#1889=VECTOR('',#1890,1.);
#1890=DIRECTION('',(0.,1.,5.59482469102441E-17));
#1891=CARTESIAN_POINT('',(-38.,-63.5,-18.5));
#1892=CARTESIAN_POINT('',(-38.,-63.5,-17.3));
#1893=VECTOR('',#1894,1.);
#1894=DIRECTION('',(0.,0.,-1.));
#1895=CARTESIAN_POINT('',(-38.,-63.5,-18.5));
#1896=VECTOR('',#1897,1.);
#1897=DIRECTION('',(0.,1.,5.59482469102441E-17));
#1898=CARTESIAN_POINT('',(-36.5,-63.5,-18.5));
#1899=CARTESIAN_POINT('',(-38.,-63.5,-18.5));
#1900=VECTOR('',#1901,1.);
#1901=DIRECTION('',(1.,0.,0.));
#1902=CARTESIAN_POINT('',(-36.5,-63.5,-18.5));
#1903=VECTOR('',#1904,1.);
#1904=DIRECTION('',(0.,1.,5.59482469102441E-17));
#1905=CARTESIAN_POINT('',(-36.5,-63.5,-18.5));
#1906=VECTOR('',#1907,1.);
#1907=DIRECTION('',(0.,-0.707106781186547,-0.707106781186547));
#1908=CARTESIAN_POINT('',(-36.5,-64.,-21.5));
#1909=VECTOR('',#1910,1.);
#1910=DIRECTION('',(0.,1.,5.55111512312578E-17));
#1911=CARTESIAN_POINT('',(2.5,-64.,-21.5));
#1912=VECTOR('',#1913,1.);
#1913=DIRECTION('',(0.,1.,5.55111512312578E-17));
#1914=CARTESIAN_POINT('',(2.5,-63.5,-18.5));
#1915=CARTESIAN_POINT('',(2.5,-64.,-19.));
#1916=VECTOR('',#1917,1.);
#1917=DIRECTION('',(0.,0.707106781186545,0.70710678118655));
#1918=CARTESIAN_POINT('',(2.5,-63.5,-18.5));
#1919=VECTOR('',#1920,1.);
#1920=DIRECTION('',(0.,1.,5.59482469102441E-17));
#1921=CARTESIAN_POINT('',(4.00000000000001,-63.5,-18.5));
#1922=CARTESIAN_POINT('',(2.50000000000001,-63.5,-18.5));
#1923=VECTOR('',#1924,1.);
#1924=DIRECTION('',(1.,0.,0.));
#1925=CARTESIAN_POINT('',(4.00000000000001,-63.5,-18.5));
#1926=VECTOR('',#1927,1.);
#1927=DIRECTION('',(0.,1.,5.59482469102441E-17));
#1928=CARTESIAN_POINT('',(4.00000000000001,-63.5,-17.3));
#1929=CARTESIAN_POINT('',(4.00000000000001,-63.5,-18.5));
#1930=VECTOR('',#1931,1.);
#1931=DIRECTION('',(-7.40148683083436E-16,0.,1.));
#1932=CARTESIAN_POINT('',(4.00000000000001,-63.5,-17.3));
#1933=VECTOR('',#1934,1.);
#1934=DIRECTION('',(0.,1.,5.59482469102441E-17));
#1935=CARTESIAN_POINT('',(2.5,-63.5,-17.3));
#1936=CARTESIAN_POINT('',(4.00000000000001,-63.5,-17.3));
#1937=VECTOR('',#1938,1.);
#1938=DIRECTION('',(-1.,0.,0.));
#1939=CARTESIAN_POINT('',(2.5,-63.5,-17.3));
#1940=VECTOR('',#1941,1.);
#1941=DIRECTION('',(0.,1.,5.59482469102441E-17));
#1942=CARTESIAN_POINT('',(2.5,-63.5,-17.3));
#1943=VECTOR('',#1944,1.);
#1944=DIRECTION('',(0.,-0.707106781186547,0.707106781186547));
#1945=CARTESIAN_POINT('',(2.5,-64.,-15.5));
#1946=VECTOR('',#1947,1.);
#1947=DIRECTION('',(0.,1.,5.55111512312578E-17));
#1948=CARTESIAN_POINT('',(7.49999999999999,-64.,-15.5));
#1949=VECTOR('',#1950,1.);
#1950=DIRECTION('',(0.,1.,8.32667268468867E-17));
#1951=CARTESIAN_POINT('',(-38.,-63.5,-17.3));
#1952=VECTOR('',#1953,1.);
#1953=DIRECTION('',(-0.577350269189635,-0.577350269189619,0.577350269189623));
#1954=CARTESIAN_POINT('',(-52.,-10.,20.5));
#1955=CARTESIAN_POINT('',(-52.,-10.,-21.5));
#1956=VECTOR('',#1957,1.);
#1957=DIRECTION('',(0.,0.,1.));
#1958=CARTESIAN_POINT('',(-52.,-10.,20.5));
#1959=VECTOR('',#1960,1.);
#1960=DIRECTION('',(0.,1.,0.));
#1961=CARTESIAN_POINT('',(-52.,-7.,-15.));
#1962=AXIS2_PLACEMENT_3D('',#1963,#1964,#1965);
#1963=CARTESIAN_POINT('',(-52.,-5.,-15.));
#1964=DIRECTION('',(-1.,0.,0.));
#1965=DIRECTION('',(0.,-1.,-6.12323399573677E-17));
#1966=CARTESIAN_POINT('',(-52.,-7.,15.));
#1967=AXIS2_PLACEMENT_3D('',#1968,#1969,#1970);
#1968=CARTESIAN_POINT('',(-52.,-5.,15.));
#1969=DIRECTION('',(-1.,0.,0.));
#1970=DIRECTION('',(0.,-1.,-6.12323399573677E-17));
#1971=CARTESIAN_POINT('',(52.,-64.,1.50000000000001));
#1972=VECTOR('',#1973,1.);
#1973=DIRECTION('',(0.,1.,5.89805981832114E-17));
#1974=CARTESIAN_POINT('',(-46.,-54.,1.49999999999999));
#1975=CARTESIAN_POINT('',(-46.,-54.,1.49999999999999));
#1976=VECTOR('',#1977,1.);
#1977=DIRECTION('',(0.707106781186547,-0.707106781186547,7.85046229341887E-17));
#1978=CARTESIAN_POINT('',(-49.,-10.,1.5));
#1979=CARTESIAN_POINT('',(-49.,-10.,1.5));
#1980=VECTOR('',#1981,1.);
#1981=DIRECTION('',(0.,1.,6.66133814775094E-17));
#1982=CARTESIAN_POINT('',(-46.,-12.9999999999567,1.5));
#1983=CARTESIAN_POINT('',(-46.,-12.9999999999567,1.5));
#1984=VECTOR('',#1985,1.);
#1985=DIRECTION('',(-0.707106781191648,0.707106781181447,-1.04672830579673E-16));
#1986=CARTESIAN_POINT('',(-46.,-54.,1.49999999999999));
#1987=VECTOR('',#1988,1.);
#1988=DIRECTION('',(-1.73303106282768E-16,1.,5.41572207133651E-17));
#1989=CARTESIAN_POINT('',(-21.5,-20.4,1.5));
#1990=AXIS2_PLACEMENT_3D('',#1991,#1992,#1993);
#1991=CARTESIAN_POINT('',(-21.5,-22.,1.5));
#1992=DIRECTION('',(1.53723188025022E-16,5.89805981832114E-17,-1.));
#1993=DIRECTION('',(6.12323399573677E-17,1.,5.89805981832115E-17));
#1994=CARTESIAN_POINT('',(35.,-20.4,1.5));
#1995=AXIS2_PLACEMENT_3D('',#1996,#1997,#1998);
#1996=CARTESIAN_POINT('',(35.,-22.,1.50000000000001));
#1997=DIRECTION('',(-1.53723188025022E-16,-5.89805981832114E-17,1.));
#1998=DIRECTION('',(2.17411870144396E-16,1.,5.89805981832115E-17));
#1999=CARTESIAN_POINT('',(-21.5,-43.6,1.5));
#2000=AXIS2_PLACEMENT_3D('',#2001,#2002,#2003);
#2001=CARTESIAN_POINT('',(-21.5,-42.,1.5));
#2002=DIRECTION('',(-1.53723188025022E-16,-5.89805981832114E-17,1.));
#2003=DIRECTION('',(6.12323399573677E-17,-1.,-5.89805981832114E-17));
#2004=CARTESIAN_POINT('',(35.,-43.6,1.5));
#2005=AXIS2_PLACEMENT_3D('',#2006,#2007,#2008);
#2006=CARTESIAN_POINT('',(35.,-42.,1.50000000000001));
#2007=DIRECTION('',(1.53723188025022E-16,5.89805981832114E-17,-1.));
#2008=DIRECTION('',(2.17411870144396E-16,-1.,-5.89805981832114E-17));
#2009=CARTESIAN_POINT('',(-46.,-54.,1.49999999999999));
#2010=VECTOR('',#2011,1.);
#2011=DIRECTION('',(0.,0.,-1.));
#2012=CARTESIAN_POINT('',(4.00000000000001,-63.5,-17.3));
#2013=VECTOR('',#2014,1.);
#2014=DIRECTION('',(0.577350269189626,-0.577350269189626,0.577350269189626));
#2015=CARTESIAN_POINT('',(4.00000000000001,-63.5,-18.5));
#2016=VECTOR('',#2017,1.);
#2017=DIRECTION('',(0.577350269189626,-0.577350269189626,-0.577350269189626));
#2018=CARTESIAN_POINT('',(-38.,-63.5,-18.5));
#2019=VECTOR('',#2020,1.);
#2020=DIRECTION('',(-0.577350269189639,-0.577350269189623,-0.577350269189615));
#2021=CARTESIAN_POINT('',(-46.,-12.9999999999567,-1.50000000000001));
#2022=VECTOR('',#2023,1.);
#2023=DIRECTION('',(0.,0.,1.));
#2024=CARTESIAN_POINT('',(-49.,-10.,-1.50000000000001));
#2025=VECTOR('',#2026,1.);
#2026=DIRECTION('',(0.,0.,1.));
#2027=CARTESIAN_POINT('',(-49.,-10.,20.5));
#2028=CARTESIAN_POINT('',(-52.,-10.,20.5));
#2029=VECTOR('',#2030,1.);
#2030=DIRECTION('',(1.,0.,0.));
#2031=CARTESIAN_POINT('',(-49.,-10.,20.5));
#2032=VECTOR('',#2033,1.);
#2033=DIRECTION('',(0.,1.,0.));
#2034=CARTESIAN_POINT('',(-49.,-10.,20.5));
#2035=VECTOR('',#2036,1.);
#2036=DIRECTION('',(0.,9.34924652315921E-17,-1.));
#2037=CARTESIAN_POINT('',(-49.,-7.,15.));
#2038=AXIS2_PLACEMENT_3D('',#2039,#2040,#2041);
#2039=CARTESIAN_POINT('',(-49.,-5.,15.));
#2040=DIRECTION('',(-1.,0.,0.));
#2041=DIRECTION('',(0.,-1.,-6.12323399573677E-17));
#2042=CARTESIAN_POINT('',(-55.,-67.,24.5));
#2043=CARTESIAN_POINT('',(-55.,-1.50019232895551E-15,24.5));
#2044=CARTESIAN_POINT('',(-55.,-67.,24.5));
#2045=VECTOR('',#2046,1.);
#2046=DIRECTION('',(0.,1.,5.30255772955299E-17));
#2047=CARTESIAN_POINT('',(-55.,1.50019232895551E-15,-24.5));
#2048=CARTESIAN_POINT('',(-55.,7.50096164477754E-16,-24.5));
#2049=VECTOR('',#2050,1.);
#2050=DIRECTION('',(0.,-3.06161699786838E-17,1.));
#2051=CARTESIAN_POINT('',(-55.,-67.,-24.5));
#2052=CARTESIAN_POINT('',(-55.,-67.,-24.5));
#2053=VECTOR('',#2054,1.);
#2054=DIRECTION('',(0.,1.,5.30255772955299E-17));
#2055=CARTESIAN_POINT('',(-55.,-67.,24.5));
#2056=VECTOR('',#2057,1.);
#2057=DIRECTION('',(0.,0.,-1.));
#2058=CARTESIAN_POINT('',(-55.,-7.,-15.));
#2059=AXIS2_PLACEMENT_3D('',#2060,#2061,#2062);
#2060=CARTESIAN_POINT('',(-55.,-5.,-15.));
#2061=DIRECTION('',(-1.,0.,0.));
#2062=DIRECTION('',(0.,-1.,-6.12323399573677E-17));
#2063=CARTESIAN_POINT('',(-55.,-7.,15.));
#2064=AXIS2_PLACEMENT_3D('',#2065,#2066,#2067);
#2065=CARTESIAN_POINT('',(-55.,-5.,15.));
#2066=DIRECTION('',(-1.,0.,0.));
#2067=DIRECTION('',(0.,-1.,-6.12323399573677E-17));
#2068=CARTESIAN_POINT('',(-55.,-17.85,9.99999999999998));
#2069=CARTESIAN_POINT('',(-55.,-49.15,9.99999999999999));
#2070=CARTESIAN_POINT('',(-55.,-49.15,9.99999999999998));
#2071=VECTOR('',#2072,1.);
#2072=DIRECTION('',(0.,1.,-5.67526146773243E-17));
#2073=CARTESIAN_POINT('',(-55.,-49.15,-10.));
#2074=CARTESIAN_POINT('',(-55.,-49.15,-10.));
#2075=VECTOR('',#2076,1.);
#2076=DIRECTION('',(0.,0.,1.));
#2077=CARTESIAN_POINT('',(-55.,-17.85,-10.));
#2078=CARTESIAN_POINT('',(-55.,-17.85,-10.));
#2079=VECTOR('',#2080,1.);
#2080=DIRECTION('',(0.,-1.,-5.67526146773243E-17));
#2081=CARTESIAN_POINT('',(-55.,-17.85,9.99999999999998));
#2082=VECTOR('',#2083,1.);
#2083=DIRECTION('',(0.,0.,-1.));
#2084=CARTESIAN_POINT('',(-55.,-52.5,-1.31071251443779E-14));
#2085=AXIS2_PLACEMENT_3D('',#2086,#2087,#2088);
#2086=CARTESIAN_POINT('',(-55.,-51.5,-1.4210854715202E-14));
#2087=DIRECTION('',(-1.,0.,0.));
#2088=DIRECTION('',(0.,-1.,-6.12323399573677E-17));
#2089=CARTESIAN_POINT('',(-55.,-16.5,-1.09027609059127E-14));
#2090=AXIS2_PLACEMENT_3D('',#2091,#2092,#2093);
#2091=CARTESIAN_POINT('',(-55.,-15.5,-1.06581410364015E-14));
#2092=DIRECTION('',(-1.,0.,0.));
#2093=DIRECTION('',(0.,-1.,-6.12323399573677E-17));
#2094=CARTESIAN_POINT('',(-52.,-64.,-24.5));
#2095=CARTESIAN_POINT('',(-52.,-64.,21.5));
#2096=CARTESIAN_POINT('',(-52.,-64.,21.5));
#2097=VECTOR('',#2098,1.);
#2098=DIRECTION('',(0.,0.,-1.));
#2099=CARTESIAN_POINT('',(-52.,1.50019232895551E-15,-24.5));
#2100=CARTESIAN_POINT('',(-52.,-64.,-24.5));
#2101=VECTOR('',#2102,1.);
#2102=DIRECTION('',(0.,1.,1.11022302462516E-16));
#2103=CARTESIAN_POINT('',(-52.,-1.3164953090834E-15,21.5));
#2104=CARTESIAN_POINT('',(-52.,-6.58247654541702E-16,21.5));
#2105=VECTOR('',#2106,1.);
#2106=DIRECTION('',(0.,3.06161699786838E-17,-1.));
#2107=CARTESIAN_POINT('',(-52.,-64.,21.5));
#2108=VECTOR('',#2109,1.);
#2109=DIRECTION('',(0.,1.,5.55111512312578E-17));
#2110=CARTESIAN_POINT('',(-52.,-7.,-15.));
#2111=AXIS2_PLACEMENT_3D('',#2112,#2113,#2114);
#2112=CARTESIAN_POINT('',(-52.,-5.,-15.));
#2113=DIRECTION('',(-1.,0.,0.));
#2114=DIRECTION('',(0.,-1.,-6.12323399573677E-17));
#2115=CARTESIAN_POINT('',(-52.,-7.,15.));
#2116=AXIS2_PLACEMENT_3D('',#2117,#2118,#2119);
#2117=CARTESIAN_POINT('',(-52.,-5.,15.));
#2118=DIRECTION('',(-1.,0.,0.));
#2119=DIRECTION('',(0.,-1.,-6.12323399573677E-17));
#2120=CARTESIAN_POINT('',(-52.,-49.15,9.99999999999999));
#2121=CARTESIAN_POINT('',(-52.,-17.85,9.99999999999998));
#2122=CARTESIAN_POINT('',(-52.,-17.85,9.99999999999998));
#2123=VECTOR('',#2124,1.);
#2124=DIRECTION('',(0.,-1.,5.67526146773243E-17));
#2125=CARTESIAN_POINT('',(-52.,-17.85,-10.));
#2126=CARTESIAN_POINT('',(-52.,-17.85,-10.));
#2127=VECTOR('',#2128,1.);
#2128=DIRECTION('',(0.,0.,1.));
#2129=CARTESIAN_POINT('',(-52.,-49.15,-10.));
#2130=CARTESIAN_POINT('',(-52.,-49.15,-10.));
#2131=VECTOR('',#2132,1.);
#2132=DIRECTION('',(0.,1.,0.));
#2133=CARTESIAN_POINT('',(-52.,-49.15,9.99999999999999));
#2134=VECTOR('',#2135,1.);
#2135=DIRECTION('',(0.,0.,-1.));
#2136=CARTESIAN_POINT('',(-52.,-52.5,-1.31071251443779E-14));
#2137=AXIS2_PLACEMENT_3D('',#2138,#2139,#2140);
#2138=CARTESIAN_POINT('',(-52.,-51.5,-1.4210854715202E-14));
#2139=DIRECTION('',(-1.,0.,0.));
#2140=DIRECTION('',(0.,-1.,-6.12323399573677E-17));
#2141=CARTESIAN_POINT('',(-52.,-16.5,-1.09027609059127E-14));
#2142=AXIS2_PLACEMENT_3D('',#2143,#2144,#2145);
#2143=CARTESIAN_POINT('',(-52.,-15.5,-1.06581410364015E-14));
#2144=DIRECTION('',(-1.,0.,0.));
#2145=DIRECTION('',(0.,-1.,-6.12323399573677E-17));
#2146=CARTESIAN_POINT('',(55.,-67.,24.5));
#2147=CARTESIAN_POINT('',(55.,-1.50019232895551E-15,24.5));
#2148=CARTESIAN_POINT('',(55.,-67.,24.5));
#2149=VECTOR('',#2150,1.);
#2150=DIRECTION('',(0.,1.,5.30255772955299E-17));
#2151=CARTESIAN_POINT('',(-55.,-7.50096164477754E-16,24.5));
#2152=VECTOR('',#2153,1.);
#2153=DIRECTION('',(1.,-4.48216423421029E-33,1.61486985400023E-16));
#2154=CARTESIAN_POINT('',(55.,-67.,24.5));
#2155=VECTOR('',#2156,1.);
#2156=DIRECTION('',(-1.,0.,-1.61486985400023E-16));
#2157=CARTESIAN_POINT('',(55.,-1.31649530908341E-15,21.5));
#2158=CARTESIAN_POINT('',(55.,-7.50096164477754E-16,24.5));
#2159=VECTOR('',#2160,1.);
#2160=DIRECTION('',(2.368475785867E-15,3.06161699786838E-17,-1.));
#2161=CARTESIAN_POINT('',(55.,-6.58247654541703E-16,21.5));
#2162=VECTOR('',#2163,1.);
#2163=DIRECTION('',(-1.,3.68626591224772E-33,-1.32811726310299E-16));
#2164=CARTESIAN_POINT('',(-52.,7.50096164477754E-16,-24.5));
#2165=VECTOR('',#2166,1.);
#2166=DIRECTION('',(-1.,0.,0.));
#2167=CARTESIAN_POINT('',(55.,-64.,-24.5));
#2168=CARTESIAN_POINT('',(-52.,-64.,-24.5));
#2169=VECTOR('',#2170,1.);
#2170=DIRECTION('',(1.,0.,9.96087947327243E-17));
#2171=CARTESIAN_POINT('',(55.,-67.,-24.5));
#2172=CARTESIAN_POINT('',(55.0000000000001,-64.,-24.5));
#2173=VECTOR('',#2174,1.);
#2174=DIRECTION('',(0.,-1.,0.));
#2175=CARTESIAN_POINT('',(-55.,-67.,-24.5));
#2176=VECTOR('',#2177,1.);
#2177=DIRECTION('',(1.,0.,9.68921912400137E-17));
#2178=CARTESIAN_POINT('',(55.0000000000001,-67.,-24.5));
#2179=VECTOR('',#2180,1.);
#2180=DIRECTION('',(-1.16006977266955E-15,0.,1.));
#2181=CARTESIAN_POINT('',(-52.,-17.85,9.99999999999998));
#2182=VECTOR('',#2183,1.);
#2183=DIRECTION('',(-1.,0.,0.));
#2184=CARTESIAN_POINT('',(-52.,-49.15,9.99999999999999));
#2185=VECTOR('',#2186,1.);
#2186=DIRECTION('',(-1.,0.,0.));
#2187=CARTESIAN_POINT('',(-52.,-49.15,-10.));
#2188=VECTOR('',#2189,1.);
#2189=DIRECTION('',(-1.,0.,0.));
#2190=CARTESIAN_POINT('',(-52.,-17.85,-10.));
#2191=VECTOR('',#2192,1.);
#2192=DIRECTION('',(-1.,0.,0.));
#2193=CARTESIAN_POINT('',(55.,-64.,21.5));
#2194=CARTESIAN_POINT('',(55.,-64.,21.5));
#2195=VECTOR('',#2196,1.);
#2196=DIRECTION('',(-1.,0.,-1.32811726310299E-16));
#2197=CARTESIAN_POINT('',(55.0000000000001,-64.,-24.5));
#2198=VECTOR('',#2199,1.);
#2199=DIRECTION('',(-1.23572649697409E-15,0.,1.));
#2200=CARTESIAN_POINT('',(55.,-64.,21.5));
#2201=VECTOR('',#2202,1.);
#2202=DIRECTION('',(0.,1.,5.55111512312578E-17));
ENDSEC;
END-ISO-10303-21;
