ISO-10303-21;
HEADER;
FILE_DESCRIPTION(('STEP AP242'),
    '1');
FILE_NAME('Скоба',
    '',
    ('UNSPECIFIED'),
    ('UNSPECIFIED'),
    'C3D Converter',
    'C3D Toolkit',
    '');
FILE_SCHEMA(('AP242_MANAGED_MODEL_BASED_3D_ENGINEERING_MIM_LF { 1 0 10303 442 1 1 4 }'));
ENDSEC;

DATA;
#1=PRODUCT_DEFINITION('','UNSPECIFIED',#28,#31);
#2=SHAPE_DEFINITION_REPRESENTATION(#26,#3);
#3=SHAPE_REPRESENTATION('NONE',(#4),#8);
#4=AXIS2_PLACEMENT_3D('',#5,#6,#7);
#5=CARTESIAN_POINT('',(0.,0.,0.));
#6=DIRECTION('',(0.,0.,1.));
#7=DIRECTION('',(1.,0.,0.));
#8=(GEOMETRIC_REPRESENTATION_CONTEXT(3)GLOBAL_UNCERTAINTY_ASSIGNED_CONTEXT((#10))
GLOBAL_UNIT_ASSIGNED_CONTEXT((#9,#11,#12))REPRESENTATION_CONTEXT('NONE','NONE'));
#9=(LENGTH_UNIT()NAMED_UNIT(*)SI_UNIT(.MILLI.,.METRE.));
#10=UNCERTAINTY_MEASURE_WITH_UNIT(LENGTH_MEASURE(1.E-5),#9,'NONE','NONE');
#11=(NAMED_UNIT(*)PLANE_ANGLE_UNIT()SI_UNIT($,.RADIAN.));
#12=(NAMED_UNIT(*)SI_UNIT($,.STERADIAN.)SOLID_ANGLE_UNIT());
#13=MANIFOLD_SOLID_BREP('',#14);
#14=CLOSED_SHELL('',(#53,#54,#55,#56,#57,#58,#59,#60,#61,#62,#63,#64,#65,#66,#67,
#68,#69,#70,#71,#72,#73,#74,#75,#76,#77,#78,#79,#80,#81,#82));
#15=COLOUR_RGB('',0.4,0.698039215686275,1.);
#16=FILL_AREA_STYLE_COLOUR('',#15);
#17=FILL_AREA_STYLE($,(#16));
#18=SURFACE_STYLE_FILL_AREA(#17);
#19=SURFACE_SIDE_STYLE('',(#18));
#20=SURFACE_STYLE_USAGE(.BOTH.,#19);
#21=PRESENTATION_STYLE_ASSIGNMENT((#20));
#22=MECHANICAL_DESIGN_GEOMETRIC_PRESENTATION_REPRESENTATION('NONE',(#23),#8);
#23=STYLED_ITEM('',(#21),#13);
#24=ADVANCED_BREP_SHAPE_REPRESENTATION('NONE',(#13),#8);
#25=SHAPE_REPRESENTATION_RELATIONSHIP('','',#3,#24);
#26=PRODUCT_DEFINITION_SHAPE('NONE','NONE',#1);
#27=MECHANICAL_CONTEXT('NONE',#32,'mechanical');
#28=PRODUCT_DEFINITION_FORMATION_WITH_SPECIFIED_SOURCE('ANY','UNSPECIFIED',#29,.NOT_KNOWN.);
#29=PRODUCT('','\X2\0421043A043E04310430\X0\','NONE',(#27));
#30=PRODUCT_RELATED_PRODUCT_CATEGORY('detail','',(#29));
#31=DESIGN_CONTEXT('detailed design',#32,'design');
#32=APPLICATION_CONTEXT('configuration controlled 3d designs of mechanical parts and assemblies');
#33=APPLICATION_PROTOCOL_DEFINITION('international standard','config_control_design',
1994,#32);
#34=CC_DESIGN_DATE_AND_TIME_ASSIGNMENT(#35,#39,(#1));
#35=DATE_AND_TIME(#36,#37);
#36=CALENDAR_DATE(0,1,1);
#37=LOCAL_TIME(0,0,0.,#38);
#38=COORDINATED_UNIVERSAL_TIME_OFFSET(0,0,.AHEAD.);
#39=DATE_TIME_ROLE('creation_date');
#40=CC_DESIGN_APPROVAL(#41,(#1));
#41=APPROVAL(#42,'UNSPECIFIED');
#42=APPROVAL_STATUS('not_yet_approved');
#43=APPROVAL_DATE_TIME(#44,#41);
#44=DATE_AND_TIME(#45,#46);
#45=CALENDAR_DATE(0,1,1);
#46=LOCAL_TIME(0,0,0.,#47);
#47=COORDINATED_UNIVERSAL_TIME_OFFSET(0,0,.AHEAD.);
#48=PERSON('UNSPECIFIED','Rozmu','UNSPECIFIED',('UNSPECIFIED'),('UNSPECIFIED'),(
'UNSPECIFIED'));
#49=ORGANIZATION('UNSPECIFIED','UNSPECIFIED','UNSPECIFIED');
#50=PERSON_AND_ORGANIZATION(#48,#49);
#51=PERSON_AND_ORGANIZATION_ROLE('creator');
#52=CC_DESIGN_PERSON_AND_ORGANIZATION_ASSIGNMENT(#50,#51,(#28,#1));
#53=ADVANCED_FACE('',(#83),#85,.T.);
#54=ADVANCED_FACE('',(#90),#92,.T.);
#55=ADVANCED_FACE('',(#97),#99,.T.);
#56=ADVANCED_FACE('',(#104),#106,.T.);
#57=ADVANCED_FACE('',(#111),#113,.T.);
#58=ADVANCED_FACE('',(#118),#120,.F.);
#59=ADVANCED_FACE('',(#125),#127,.F.);
#60=ADVANCED_FACE('',(#132),#134,.F.);
#61=ADVANCED_FACE('',(#139),#141,.F.);
#62=ADVANCED_FACE('',(#146),#148,.F.);
#63=ADVANCED_FACE('',(#153),#155,.F.);
#64=ADVANCED_FACE('',(#160),#162,.F.);
#65=ADVANCED_FACE('',(#167),#169,.F.);
#66=ADVANCED_FACE('',(#174),#176,.F.);
#67=ADVANCED_FACE('',(#181),#183,.T.);
#68=ADVANCED_FACE('',(#188),#190,.T.);
#69=ADVANCED_FACE('',(#195),#197,.F.);
#70=ADVANCED_FACE('',(#202),#204,.T.);
#71=ADVANCED_FACE('',(#209),#211,.T.);
#72=ADVANCED_FACE('',(#216),#218,.T.);
#73=ADVANCED_FACE('',(#223),#225,.F.);
#74=ADVANCED_FACE('',(#230),#232,.F.);
#75=ADVANCED_FACE('',(#237),#239,.F.);
#76=ADVANCED_FACE('',(#244),#246,.T.);
#77=ADVANCED_FACE('',(#251),#253,.T.);
#78=ADVANCED_FACE('',(#258),#260,.T.);
#79=ADVANCED_FACE('',(#265),#267,.F.);
#80=ADVANCED_FACE('',(#272),#274,.F.);
#81=ADVANCED_FACE('',(#279),#281,.F.);
#82=ADVANCED_FACE('',(#286),#288,.F.);
#83=FACE_BOUND('',#84,.T.);
#84=EDGE_LOOP('',(#293,#294,#295,#296));
#85=PLANE('',#86);
#86=AXIS2_PLACEMENT_3D('',#87,#88,#89);
#87=CARTESIAN_POINT('',(-18.8,-1.,-2.7));
#88=DIRECTION('',(-4.44089209850063E-16,1.11022302462516E-16,-1.));
#89=DIRECTION('',(-1.,0.,4.44089209850063E-16));
#90=FACE_BOUND('',#91,.T.);
#91=EDGE_LOOP('',(#297,#298,#299,#300));
#92=PLANE('',#93);
#93=AXIS2_PLACEMENT_3D('',#94,#95,#96);
#94=CARTESIAN_POINT('',(-19.8,-1.,4.56632437974112E-15));
#95=DIRECTION('',(-0.707106781186547,-4.32978028117746E-17,0.707106781186548));
#96=DIRECTION('',(0.707106781186548,0.,0.707106781186547));
#97=FACE_BOUND('',#98,.T.);
#98=EDGE_LOOP('',(#301,#302,#303,#304));
#99=PLANE('',#100);
#100=AXIS2_PLACEMENT_3D('',#101,#102,#103);
#101=CARTESIAN_POINT('',(-19.5,-1.83697019872103E-16,3.));
#102=DIRECTION('',(1.77635683940025E-16,-1.51929083932157E-64,-1.));
#103=DIRECTION('',(-1.,4.93038065763133E-33,-1.77635683940025E-16));
#104=FACE_BOUND('',#105,.T.);
#105=EDGE_LOOP('',(#305,#306,#307,#308));
#106=PLANE('',#107);
#107=AXIS2_PLACEMENT_3D('',#108,#109,#110);
#108=CARTESIAN_POINT('',(19.5,1.83697019872103E-16,-3.));
#109=DIRECTION('',(9.10952225333462E-17,1.48029736616688E-16,-1.));
#110=DIRECTION('',(-1.,6.32100084311708E-33,-9.10952225333462E-17));
#111=FACE_BOUND('',#112,.T.);
#112=EDGE_LOOP('',(#309,#310,#311,#312,#313,#314,#315,#316,#317,#318,#319,#320,#321,
#322,#323,#324,#325,#326,#327,#328,#329,#330,#331,#332,#333,#334,#335,#336));
#113=PLANE('',#114);
#114=AXIS2_PLACEMENT_3D('',#115,#116,#117);
#115=CARTESIAN_POINT('',(0.,3.,1.83697019872103E-16));
#116=DIRECTION('',(0.,1.,6.12323399573677E-17));
#117=DIRECTION('',(-1.,7.49879891330929E-33,-1.22464679914735E-16));
#118=FACE_BOUND('',#119,.T.);
#119=EDGE_LOOP('',(#337,#338,#339,#340,#341,#342,#343,#344,#345,#346,#347,#348,#349,
#350,#351,#352,#353,#354,#355,#356,#357,#358,#359,#360,#361,#362,#363,#364));
#120=PLANE('',#121);
#121=AXIS2_PLACEMENT_3D('',#122,#123,#124);
#122=CARTESIAN_POINT('',(0.,0.,0.));
#123=DIRECTION('',(0.,1.,6.12323399573677E-17));
#124=DIRECTION('',(-1.,7.49879891330929E-33,-1.22464679914735E-16));
#125=FACE_BOUND('',#126,.T.);
#126=EDGE_LOOP('',(#365,#366,#367,#368));
#127=PLANE('',#128);
#128=AXIS2_PLACEMENT_3D('',#129,#130,#131);
#129=CARTESIAN_POINT('',(-19.,-1.,5.));
#130=DIRECTION('',(1.,0.,0.));
#131=DIRECTION('',(0.,5.28677630773883E-17,-1.));
#132=FACE_BOUND('',#133,.T.);
#133=EDGE_LOOP('',(#369,#370,#371,#372));
#134=PLANE('',#135);
#135=AXIS2_PLACEMENT_3D('',#136,#137,#138);
#136=CARTESIAN_POINT('',(-19.5,-1.,0.299999999999998));
#137=DIRECTION('',(-1.,0.,0.));
#138=DIRECTION('',(0.,-4.72435329627724E-17,1.));
#139=FACE_BOUND('',#140,.T.);
#140=EDGE_LOOP('',(#373,#374,#375,#376));
#141=PLANE('',#142);
#142=AXIS2_PLACEMENT_3D('',#143,#144,#145);
#143=CARTESIAN_POINT('',(-19.5,-1.,5.));
#144=DIRECTION('',(0.,-2.22044604925031E-16,1.));
#145=DIRECTION('',(1.,0.,0.));
#146=FACE_BOUND('',#147,.T.);
#147=EDGE_LOOP('',(#377,#378,#379,#380));
#148=PLANE('',#149);
#149=AXIS2_PLACEMENT_3D('',#150,#151,#152);
#150=CARTESIAN_POINT('',(-18.8,-1.,-2.7));
#151=DIRECTION('',(-1.,0.,0.));
#152=DIRECTION('',(0.,-4.85707241214444E-17,1.));
#153=FACE_BOUND('',#154,.T.);
#154=EDGE_LOOP('',(#381,#382,#383,#384));
#155=PLANE('',#156);
#156=AXIS2_PLACEMENT_3D('',#157,#158,#159);
#157=CARTESIAN_POINT('',(-18.8,-1.,-0.41421356237309));
#158=DIRECTION('',(-0.707106781186547,-3.92523114670944E-17,0.707106781186548));
#159=DIRECTION('',(0.707106781186548,0.,0.707106781186547));
#160=FACE_BOUND('',#161,.T.);
#161=EDGE_LOOP('',(#385,#386,#387,#388));
#162=PLANE('',#163);
#163=AXIS2_PLACEMENT_3D('',#164,#165,#166);
#164=CARTESIAN_POINT('',(-18.,-1.,0.385786437626901));
#165=DIRECTION('',(-1.,0.,0.));
#166=DIRECTION('',(0.,-4.81218742746777E-17,1.));
#167=FACE_BOUND('',#168,.T.);
#168=EDGE_LOOP('',(#389,#390,#391,#392));
#169=PLANE('',#170);
#170=AXIS2_PLACEMENT_3D('',#171,#172,#173);
#171=CARTESIAN_POINT('',(-18.,-1.,5.));
#172=DIRECTION('',(0.,0.,1.));
#173=DIRECTION('',(1.,0.,0.));
#174=FACE_BOUND('',#175,.T.);
#175=EDGE_LOOP('',(#393,#394,#395,#396));
#176=PLANE('',#177);
#177=AXIS2_PLACEMENT_3D('',#178,#179,#180);
#178=CARTESIAN_POINT('',(-17.5,-1.,5.));
#179=DIRECTION('',(1.,0.,0.));
#180=DIRECTION('',(0.,5.55111512312578E-17,-1.));
#181=FACE_BOUND('',#182,.T.);
#182=EDGE_LOOP('',(#397,#398,#399,#400));
#183=PLANE('',#184);
#184=AXIS2_PLACEMENT_3D('',#185,#186,#187);
#185=CARTESIAN_POINT('',(-19.8,-1.,-2.7));
#186=DIRECTION('',(-1.,0.,0.));
#187=DIRECTION('',(0.,-4.11193712824132E-17,1.));
#188=FACE_BOUND('',#189,.T.);
#189=EDGE_LOOP('',(#401,#402,#403,#404));
#190=PLANE('',#191);
#191=AXIS2_PLACEMENT_3D('',#192,#193,#194);
#192=CARTESIAN_POINT('',(-24.5,-1.83697019872103E-16,3.));
#193=DIRECTION('',(-1.,0.,0.));
#194=DIRECTION('',(0.,-6.12323399573676E-17,1.));
#195=FACE_BOUND('',#196,.T.);
#196=EDGE_LOOP('',(#405,#406,#407,#408));
#197=PLANE('',#198);
#198=AXIS2_PLACEMENT_3D('',#199,#200,#201);
#199=CARTESIAN_POINT('',(17.5,-1.,-3.));
#200=DIRECTION('',(-1.,0.,0.));
#201=DIRECTION('',(0.,-5.55111512312578E-17,1.));
#202=FACE_BOUND('',#203,.T.);
#203=EDGE_LOOP('',(#409,#410,#411,#412));
#204=PLANE('',#205);
#205=AXIS2_PLACEMENT_3D('',#206,#207,#208);
#206=CARTESIAN_POINT('',(-24.5,-4.28626379701573E-16,7.));
#207=DIRECTION('',(-1.0875654118777E-16,0.,1.));
#208=DIRECTION('',(1.,-8.04960107368379E-33,1.0875654118777E-16));
#209=FACE_BOUND('',#210,.T.);
#210=EDGE_LOOP('',(#413,#414,#415,#416));
#211=PLANE('',#212);
#212=AXIS2_PLACEMENT_3D('',#213,#214,#215);
#213=CARTESIAN_POINT('',(24.5,-4.28626379701574E-16,7.));
#214=DIRECTION('',(1.,0.,0.));
#215=DIRECTION('',(0.,6.12323399573677E-17,-1.));
#216=FACE_BOUND('',#217,.T.);
#217=EDGE_LOOP('',(#417,#418,#419,#420));
#218=PLANE('',#219);
#219=AXIS2_PLACEMENT_3D('',#220,#221,#222);
#220=CARTESIAN_POINT('',(24.5,-1.83697019872103E-16,3.));
#221=DIRECTION('',(1.77635683940025E-16,-1.51929083932157E-64,-1.));
#222=DIRECTION('',(-1.,4.93038065763133E-33,-1.77635683940025E-16));
#223=FACE_BOUND('',#224,.T.);
#224=EDGE_LOOP('',(#421,#422,#423,#424));
#225=PLANE('',#226);
#226=AXIS2_PLACEMENT_3D('',#227,#228,#229);
#227=CARTESIAN_POINT('',(19.5,-1.,5.00000000000001));
#228=DIRECTION('',(1.,0.,0.));
#229=DIRECTION('',(0.,4.72435329627724E-17,-1.));
#230=FACE_BOUND('',#231,.T.);
#231=EDGE_LOOP('',(#425,#426,#427,#428));
#232=PLANE('',#233);
#233=AXIS2_PLACEMENT_3D('',#234,#235,#236);
#234=CARTESIAN_POINT('',(19.,-1.,5.));
#235=DIRECTION('',(0.,0.,1.));
#236=DIRECTION('',(1.,0.,0.));
#237=FACE_BOUND('',#238,.T.);
#238=EDGE_LOOP('',(#429,#430,#431,#432));
#239=PLANE('',#240);
#240=AXIS2_PLACEMENT_3D('',#241,#242,#243);
#241=CARTESIAN_POINT('',(19.,-1.,0.799999999999994));
#242=DIRECTION('',(-1.,0.,0.));
#243=DIRECTION('',(0.,-5.28677630773883E-17,1.));
#244=FACE_BOUND('',#245,.T.);
#245=EDGE_LOOP('',(#433,#434,#435,#436));
#246=PLANE('',#247);
#247=AXIS2_PLACEMENT_3D('',#248,#249,#250);
#248=CARTESIAN_POINT('',(19.,-1.,0.799999999999994));
#249=DIRECTION('',(0.707106781186547,-5.88784672006416E-17,0.707106781186548));
#250=DIRECTION('',(0.707106781186548,0.,-0.707106781186547));
#251=FACE_BOUND('',#252,.T.);
#252=EDGE_LOOP('',(#437,#438,#439,#440));
#253=PLANE('',#254);
#254=AXIS2_PLACEMENT_3D('',#255,#256,#257);
#255=CARTESIAN_POINT('',(19.8,-1.,2.14152371742936E-15));
#256=DIRECTION('',(1.,0.,0.));
#257=DIRECTION('',(0.,4.11193712824132E-17,-1.));
#258=FACE_BOUND('',#259,.T.);
#259=EDGE_LOOP('',(#441,#442,#443,#444));
#260=PLANE('',#261);
#261=AXIS2_PLACEMENT_3D('',#262,#263,#264);
#262=CARTESIAN_POINT('',(19.8,-1.,-2.7));
#263=DIRECTION('',(0.,1.11022302462516E-16,-1.));
#264=DIRECTION('',(-1.,0.,0.));
#265=FACE_BOUND('',#266,.T.);
#266=EDGE_LOOP('',(#445,#446,#447,#448));
#267=PLANE('',#268);
#268=AXIS2_PLACEMENT_3D('',#269,#270,#271);
#269=CARTESIAN_POINT('',(18.8,-1.,-0.414213562373093));
#270=DIRECTION('',(1.,0.,0.));
#271=DIRECTION('',(0.,4.85707241214444E-17,-1.));
#272=FACE_BOUND('',#273,.T.);
#273=EDGE_LOOP('',(#449,#450,#451,#452));
#274=PLANE('',#275);
#275=AXIS2_PLACEMENT_3D('',#276,#277,#278);
#276=CARTESIAN_POINT('',(18.,-1.,0.385786437626899));
#277=DIRECTION('',(0.707106781186547,-3.92523114670944E-17,0.707106781186548));
#278=DIRECTION('',(0.707106781186548,0.,-0.707106781186547));
#279=FACE_BOUND('',#280,.T.);
#280=EDGE_LOOP('',(#453,#454,#455,#456));
#281=PLANE('',#282);
#282=AXIS2_PLACEMENT_3D('',#283,#284,#285);
#283=CARTESIAN_POINT('',(18.,-1.,5.));
#284=DIRECTION('',(1.,0.,0.));
#285=DIRECTION('',(0.,4.81218742746777E-17,-1.));
#286=FACE_BOUND('',#287,.T.);
#287=EDGE_LOOP('',(#457,#458,#459,#460));
#288=PLANE('',#289);
#289=AXIS2_PLACEMENT_3D('',#290,#291,#292);
#290=CARTESIAN_POINT('',(17.5,-1.,5.));
#291=DIRECTION('',(0.,-2.22044604925031E-16,1.));
#292=DIRECTION('',(1.,0.,0.));
#293=ORIENTED_EDGE('',*,*,#461,.T.);
#294=ORIENTED_EDGE('',*,*,#462,.F.);
#295=ORIENTED_EDGE('',*,*,#463,.F.);
#296=ORIENTED_EDGE('',*,*,#464,.F.);
#297=ORIENTED_EDGE('',*,*,#465,.F.);
#298=ORIENTED_EDGE('',*,*,#466,.F.);
#299=ORIENTED_EDGE('',*,*,#467,.T.);
#300=ORIENTED_EDGE('',*,*,#468,.F.);
#301=ORIENTED_EDGE('',*,*,#469,.T.);
#302=ORIENTED_EDGE('',*,*,#470,.T.);
#303=ORIENTED_EDGE('',*,*,#471,.T.);
#304=ORIENTED_EDGE('',*,*,#472,.F.);
#305=ORIENTED_EDGE('',*,*,#473,.T.);
#306=ORIENTED_EDGE('',*,*,#474,.F.);
#307=ORIENTED_EDGE('',*,*,#475,.T.);
#308=ORIENTED_EDGE('',*,*,#476,.T.);
#309=ORIENTED_EDGE('',*,*,#477,.T.);
#310=ORIENTED_EDGE('',*,*,#478,.T.);
#311=ORIENTED_EDGE('',*,*,#479,.T.);
#312=ORIENTED_EDGE('',*,*,#480,.T.);
#313=ORIENTED_EDGE('',*,*,#481,.T.);
#314=ORIENTED_EDGE('',*,*,#462,.T.);
#315=ORIENTED_EDGE('',*,*,#482,.T.);
#316=ORIENTED_EDGE('',*,*,#468,.T.);
#317=ORIENTED_EDGE('',*,*,#483,.T.);
#318=ORIENTED_EDGE('',*,*,#484,.T.);
#319=ORIENTED_EDGE('',*,*,#485,.T.);
#320=ORIENTED_EDGE('',*,*,#472,.T.);
#321=ORIENTED_EDGE('',*,*,#486,.T.);
#322=ORIENTED_EDGE('',*,*,#487,.T.);
#323=ORIENTED_EDGE('',*,*,#488,.T.);
#324=ORIENTED_EDGE('',*,*,#489,.T.);
#325=ORIENTED_EDGE('',*,*,#490,.T.);
#326=ORIENTED_EDGE('',*,*,#491,.T.);
#327=ORIENTED_EDGE('',*,*,#492,.T.);
#328=ORIENTED_EDGE('',*,*,#493,.T.);
#329=ORIENTED_EDGE('',*,*,#494,.T.);
#330=ORIENTED_EDGE('',*,*,#495,.T.);
#331=ORIENTED_EDGE('',*,*,#496,.T.);
#332=ORIENTED_EDGE('',*,*,#497,.T.);
#333=ORIENTED_EDGE('',*,*,#498,.T.);
#334=ORIENTED_EDGE('',*,*,#499,.T.);
#335=ORIENTED_EDGE('',*,*,#500,.T.);
#336=ORIENTED_EDGE('',*,*,#474,.T.);
#337=ORIENTED_EDGE('',*,*,#501,.T.);
#338=ORIENTED_EDGE('',*,*,#476,.F.);
#339=ORIENTED_EDGE('',*,*,#502,.T.);
#340=ORIENTED_EDGE('',*,*,#503,.T.);
#341=ORIENTED_EDGE('',*,*,#504,.T.);
#342=ORIENTED_EDGE('',*,*,#505,.T.);
#343=ORIENTED_EDGE('',*,*,#506,.T.);
#344=ORIENTED_EDGE('',*,*,#507,.T.);
#345=ORIENTED_EDGE('',*,*,#508,.T.);
#346=ORIENTED_EDGE('',*,*,#509,.T.);
#347=ORIENTED_EDGE('',*,*,#510,.T.);
#348=ORIENTED_EDGE('',*,*,#511,.T.);
#349=ORIENTED_EDGE('',*,*,#512,.T.);
#350=ORIENTED_EDGE('',*,*,#513,.F.);
#351=ORIENTED_EDGE('',*,*,#514,.F.);
#352=ORIENTED_EDGE('',*,*,#515,.F.);
#353=ORIENTED_EDGE('',*,*,#516,.F.);
#354=ORIENTED_EDGE('',*,*,#470,.F.);
#355=ORIENTED_EDGE('',*,*,#517,.T.);
#356=ORIENTED_EDGE('',*,*,#518,.T.);
#357=ORIENTED_EDGE('',*,*,#519,.T.);
#358=ORIENTED_EDGE('',*,*,#466,.T.);
#359=ORIENTED_EDGE('',*,*,#520,.T.);
#360=ORIENTED_EDGE('',*,*,#464,.T.);
#361=ORIENTED_EDGE('',*,*,#521,.T.);
#362=ORIENTED_EDGE('',*,*,#522,.T.);
#363=ORIENTED_EDGE('',*,*,#523,.T.);
#364=ORIENTED_EDGE('',*,*,#524,.T.);
#365=ORIENTED_EDGE('',*,*,#519,.F.);
#366=ORIENTED_EDGE('',*,*,#525,.T.);
#367=ORIENTED_EDGE('',*,*,#483,.F.);
#368=ORIENTED_EDGE('',*,*,#467,.F.);
#369=ORIENTED_EDGE('',*,*,#517,.F.);
#370=ORIENTED_EDGE('',*,*,#469,.F.);
#371=ORIENTED_EDGE('',*,*,#485,.F.);
#372=ORIENTED_EDGE('',*,*,#526,.F.);
#373=ORIENTED_EDGE('',*,*,#518,.F.);
#374=ORIENTED_EDGE('',*,*,#526,.T.);
#375=ORIENTED_EDGE('',*,*,#484,.F.);
#376=ORIENTED_EDGE('',*,*,#525,.F.);
#377=ORIENTED_EDGE('',*,*,#521,.F.);
#378=ORIENTED_EDGE('',*,*,#463,.T.);
#379=ORIENTED_EDGE('',*,*,#481,.F.);
#380=ORIENTED_EDGE('',*,*,#527,.F.);
#381=ORIENTED_EDGE('',*,*,#522,.F.);
#382=ORIENTED_EDGE('',*,*,#527,.T.);
#383=ORIENTED_EDGE('',*,*,#480,.F.);
#384=ORIENTED_EDGE('',*,*,#528,.F.);
#385=ORIENTED_EDGE('',*,*,#523,.F.);
#386=ORIENTED_EDGE('',*,*,#528,.T.);
#387=ORIENTED_EDGE('',*,*,#479,.F.);
#388=ORIENTED_EDGE('',*,*,#529,.F.);
#389=ORIENTED_EDGE('',*,*,#524,.F.);
#390=ORIENTED_EDGE('',*,*,#529,.T.);
#391=ORIENTED_EDGE('',*,*,#478,.F.);
#392=ORIENTED_EDGE('',*,*,#530,.F.);
#393=ORIENTED_EDGE('',*,*,#501,.F.);
#394=ORIENTED_EDGE('',*,*,#530,.T.);
#395=ORIENTED_EDGE('',*,*,#477,.F.);
#396=ORIENTED_EDGE('',*,*,#473,.F.);
#397=ORIENTED_EDGE('',*,*,#520,.F.);
#398=ORIENTED_EDGE('',*,*,#465,.T.);
#399=ORIENTED_EDGE('',*,*,#482,.F.);
#400=ORIENTED_EDGE('',*,*,#461,.F.);
#401=ORIENTED_EDGE('',*,*,#516,.T.);
#402=ORIENTED_EDGE('',*,*,#531,.T.);
#403=ORIENTED_EDGE('',*,*,#486,.F.);
#404=ORIENTED_EDGE('',*,*,#471,.F.);
#405=ORIENTED_EDGE('',*,*,#475,.F.);
#406=ORIENTED_EDGE('',*,*,#500,.F.);
#407=ORIENTED_EDGE('',*,*,#532,.F.);
#408=ORIENTED_EDGE('',*,*,#502,.F.);
#409=ORIENTED_EDGE('',*,*,#533,.T.);
#410=ORIENTED_EDGE('',*,*,#487,.F.);
#411=ORIENTED_EDGE('',*,*,#531,.F.);
#412=ORIENTED_EDGE('',*,*,#515,.T.);
#413=ORIENTED_EDGE('',*,*,#514,.T.);
#414=ORIENTED_EDGE('',*,*,#534,.T.);
#415=ORIENTED_EDGE('',*,*,#488,.F.);
#416=ORIENTED_EDGE('',*,*,#533,.F.);
#417=ORIENTED_EDGE('',*,*,#535,.T.);
#418=ORIENTED_EDGE('',*,*,#489,.F.);
#419=ORIENTED_EDGE('',*,*,#534,.F.);
#420=ORIENTED_EDGE('',*,*,#513,.T.);
#421=ORIENTED_EDGE('',*,*,#535,.F.);
#422=ORIENTED_EDGE('',*,*,#512,.F.);
#423=ORIENTED_EDGE('',*,*,#536,.T.);
#424=ORIENTED_EDGE('',*,*,#490,.F.);
#425=ORIENTED_EDGE('',*,*,#491,.F.);
#426=ORIENTED_EDGE('',*,*,#536,.F.);
#427=ORIENTED_EDGE('',*,*,#511,.F.);
#428=ORIENTED_EDGE('',*,*,#537,.T.);
#429=ORIENTED_EDGE('',*,*,#492,.F.);
#430=ORIENTED_EDGE('',*,*,#537,.F.);
#431=ORIENTED_EDGE('',*,*,#510,.F.);
#432=ORIENTED_EDGE('',*,*,#538,.T.);
#433=ORIENTED_EDGE('',*,*,#539,.T.);
#434=ORIENTED_EDGE('',*,*,#493,.F.);
#435=ORIENTED_EDGE('',*,*,#538,.F.);
#436=ORIENTED_EDGE('',*,*,#509,.F.);
#437=ORIENTED_EDGE('',*,*,#508,.F.);
#438=ORIENTED_EDGE('',*,*,#540,.T.);
#439=ORIENTED_EDGE('',*,*,#494,.F.);
#440=ORIENTED_EDGE('',*,*,#539,.F.);
#441=ORIENTED_EDGE('',*,*,#540,.F.);
#442=ORIENTED_EDGE('',*,*,#507,.F.);
#443=ORIENTED_EDGE('',*,*,#541,.T.);
#444=ORIENTED_EDGE('',*,*,#495,.F.);
#445=ORIENTED_EDGE('',*,*,#496,.F.);
#446=ORIENTED_EDGE('',*,*,#541,.F.);
#447=ORIENTED_EDGE('',*,*,#506,.F.);
#448=ORIENTED_EDGE('',*,*,#542,.T.);
#449=ORIENTED_EDGE('',*,*,#497,.F.);
#450=ORIENTED_EDGE('',*,*,#542,.F.);
#451=ORIENTED_EDGE('',*,*,#505,.F.);
#452=ORIENTED_EDGE('',*,*,#543,.T.);
#453=ORIENTED_EDGE('',*,*,#498,.F.);
#454=ORIENTED_EDGE('',*,*,#543,.F.);
#455=ORIENTED_EDGE('',*,*,#504,.F.);
#456=ORIENTED_EDGE('',*,*,#544,.T.);
#457=ORIENTED_EDGE('',*,*,#499,.F.);
#458=ORIENTED_EDGE('',*,*,#544,.F.);
#459=ORIENTED_EDGE('',*,*,#503,.F.);
#460=ORIENTED_EDGE('',*,*,#532,.T.);
#461=EDGE_CURVE('',#545,#546,#547,.T.);
#462=EDGE_CURVE('',#548,#546,#549,.F.);
#463=EDGE_CURVE('',#550,#548,#551,.T.);
#464=EDGE_CURVE('',#545,#550,#552,.T.);
#465=EDGE_CURVE('',#553,#554,#555,.T.);
#466=EDGE_CURVE('',#556,#553,#557,.T.);
#467=EDGE_CURVE('',#556,#558,#559,.T.);
#468=EDGE_CURVE('',#554,#558,#560,.F.);
#469=EDGE_CURVE('',#561,#562,#563,.F.);
#470=EDGE_CURVE('',#562,#564,#565,.T.);
#471=EDGE_CURVE('',#564,#566,#567,.T.);
#472=EDGE_CURVE('',#561,#566,#568,.T.);
#473=EDGE_CURVE('',#569,#570,#571,.F.);
#474=EDGE_CURVE('',#572,#570,#573,.T.);
#475=EDGE_CURVE('',#572,#574,#575,.F.);
#476=EDGE_CURVE('',#574,#569,#576,.T.);
#477=EDGE_CURVE('',#570,#577,#578,.F.);
#478=EDGE_CURVE('',#577,#579,#580,.F.);
#479=EDGE_CURVE('',#579,#581,#582,.F.);
#480=EDGE_CURVE('',#581,#583,#584,.F.);
#481=EDGE_CURVE('',#583,#548,#585,.F.);
#482=EDGE_CURVE('',#546,#554,#586,.T.);
#483=EDGE_CURVE('',#558,#587,#588,.F.);
#484=EDGE_CURVE('',#587,#589,#590,.F.);
#485=EDGE_CURVE('',#589,#561,#591,.F.);
#486=EDGE_CURVE('',#566,#592,#593,.T.);
#487=EDGE_CURVE('',#592,#594,#595,.T.);
#488=EDGE_CURVE('',#594,#596,#597,.T.);
#489=EDGE_CURVE('',#596,#598,#599,.T.);
#490=EDGE_CURVE('',#598,#600,#601,.F.);
#491=EDGE_CURVE('',#600,#602,#603,.F.);
#492=EDGE_CURVE('',#602,#604,#605,.F.);
#493=EDGE_CURVE('',#604,#606,#607,.F.);
#494=EDGE_CURVE('',#606,#608,#609,.T.);
#495=EDGE_CURVE('',#608,#610,#611,.F.);
#496=EDGE_CURVE('',#610,#612,#613,.F.);
#497=EDGE_CURVE('',#612,#614,#615,.F.);
#498=EDGE_CURVE('',#614,#616,#617,.F.);
#499=EDGE_CURVE('',#616,#618,#619,.F.);
#500=EDGE_CURVE('',#618,#572,#620,.F.);
#501=EDGE_CURVE('',#621,#569,#622,.T.);
#502=EDGE_CURVE('',#574,#623,#624,.T.);
#503=EDGE_CURVE('',#623,#625,#626,.T.);
#504=EDGE_CURVE('',#625,#627,#628,.T.);
#505=EDGE_CURVE('',#627,#629,#630,.T.);
#506=EDGE_CURVE('',#629,#631,#632,.T.);
#507=EDGE_CURVE('',#631,#633,#634,.T.);
#508=EDGE_CURVE('',#633,#635,#636,.F.);
#509=EDGE_CURVE('',#635,#637,#638,.T.);
#510=EDGE_CURVE('',#637,#639,#640,.T.);
#511=EDGE_CURVE('',#639,#641,#642,.T.);
#512=EDGE_CURVE('',#641,#643,#644,.T.);
#513=EDGE_CURVE('',#645,#643,#646,.T.);
#514=EDGE_CURVE('',#647,#645,#648,.T.);
#515=EDGE_CURVE('',#649,#647,#650,.T.);
#516=EDGE_CURVE('',#564,#649,#651,.T.);
#517=EDGE_CURVE('',#562,#652,#653,.T.);
#518=EDGE_CURVE('',#652,#654,#655,.T.);
#519=EDGE_CURVE('',#654,#556,#656,.T.);
#520=EDGE_CURVE('',#553,#545,#657,.F.);
#521=EDGE_CURVE('',#550,#658,#659,.T.);
#522=EDGE_CURVE('',#658,#660,#661,.T.);
#523=EDGE_CURVE('',#660,#662,#663,.T.);
#524=EDGE_CURVE('',#662,#621,#664,.T.);
#525=EDGE_CURVE('',#654,#587,#665,.T.);
#526=EDGE_CURVE('',#652,#589,#666,.T.);
#527=EDGE_CURVE('',#658,#583,#667,.T.);
#528=EDGE_CURVE('',#660,#581,#668,.T.);
#529=EDGE_CURVE('',#662,#579,#669,.T.);
#530=EDGE_CURVE('',#621,#577,#670,.T.);
#531=EDGE_CURVE('',#649,#592,#671,.T.);
#532=EDGE_CURVE('',#623,#618,#672,.T.);
#533=EDGE_CURVE('',#647,#594,#673,.T.);
#534=EDGE_CURVE('',#645,#596,#674,.T.);
#535=EDGE_CURVE('',#643,#598,#675,.F.);
#536=EDGE_CURVE('',#641,#600,#676,.T.);
#537=EDGE_CURVE('',#639,#602,#677,.T.);
#538=EDGE_CURVE('',#637,#604,#678,.T.);
#539=EDGE_CURVE('',#635,#606,#679,.T.);
#540=EDGE_CURVE('',#633,#608,#680,.T.);
#541=EDGE_CURVE('',#631,#610,#681,.T.);
#542=EDGE_CURVE('',#629,#612,#682,.T.);
#543=EDGE_CURVE('',#627,#614,#683,.T.);
#544=EDGE_CURVE('',#625,#616,#684,.T.);
#545=VERTEX_POINT('',#685);
#546=VERTEX_POINT('',#686);
#547=LINE('',#687,#688);
#548=VERTEX_POINT('',#690);
#549=LINE('',#691,#692);
#550=VERTEX_POINT('',#694);
#551=LINE('',#695,#696);
#552=LINE('',#698,#699);
#553=VERTEX_POINT('',#701);
#554=VERTEX_POINT('',#702);
#555=LINE('',#703,#704);
#556=VERTEX_POINT('',#706);
#557=LINE('',#707,#708);
#558=VERTEX_POINT('',#710);
#559=LINE('',#711,#712);
#560=LINE('',#714,#715);
#561=VERTEX_POINT('',#717);
#562=VERTEX_POINT('',#718);
#563=LINE('',#719,#720);
#564=VERTEX_POINT('',#722);
#565=LINE('',#723,#724);
#566=VERTEX_POINT('',#726);
#567=LINE('',#727,#728);
#568=LINE('',#730,#731);
#569=VERTEX_POINT('',#733);
#570=VERTEX_POINT('',#734);
#571=LINE('',#735,#736);
#572=VERTEX_POINT('',#738);
#573=LINE('',#739,#740);
#574=VERTEX_POINT('',#742);
#575=LINE('',#743,#744);
#576=LINE('',#746,#747);
#577=VERTEX_POINT('',#749);
#578=LINE('',#750,#751);
#579=VERTEX_POINT('',#753);
#580=LINE('',#754,#755);
#581=VERTEX_POINT('',#757);
#582=LINE('',#758,#759);
#583=VERTEX_POINT('',#761);
#584=LINE('',#762,#763);
#585=LINE('',#765,#766);
#586=LINE('',#768,#769);
#587=VERTEX_POINT('',#771);
#588=LINE('',#772,#773);
#589=VERTEX_POINT('',#775);
#590=LINE('',#776,#777);
#591=LINE('',#779,#780);
#592=VERTEX_POINT('',#782);
#593=LINE('',#783,#784);
#594=VERTEX_POINT('',#786);
#595=LINE('',#787,#788);
#596=VERTEX_POINT('',#790);
#597=LINE('',#791,#792);
#598=VERTEX_POINT('',#794);
#599=LINE('',#795,#796);
#600=VERTEX_POINT('',#798);
#601=LINE('',#799,#800);
#602=VERTEX_POINT('',#802);
#603=LINE('',#803,#804);
#604=VERTEX_POINT('',#806);
#605=LINE('',#807,#808);
#606=VERTEX_POINT('',#810);
#607=LINE('',#811,#812);
#608=VERTEX_POINT('',#814);
#609=LINE('',#815,#816);
#610=VERTEX_POINT('',#818);
#611=LINE('',#819,#820);
#612=VERTEX_POINT('',#822);
#613=LINE('',#823,#824);
#614=VERTEX_POINT('',#826);
#615=LINE('',#827,#828);
#616=VERTEX_POINT('',#830);
#617=LINE('',#831,#832);
#618=VERTEX_POINT('',#834);
#619=LINE('',#835,#836);
#620=LINE('',#838,#839);
#621=VERTEX_POINT('',#841);
#622=LINE('',#842,#843);
#623=VERTEX_POINT('',#845);
#624=LINE('',#846,#847);
#625=VERTEX_POINT('',#849);
#626=LINE('',#850,#851);
#627=VERTEX_POINT('',#853);
#628=LINE('',#854,#855);
#629=VERTEX_POINT('',#857);
#630=LINE('',#858,#859);
#631=VERTEX_POINT('',#861);
#632=LINE('',#862,#863);
#633=VERTEX_POINT('',#865);
#634=LINE('',#866,#867);
#635=VERTEX_POINT('',#869);
#636=LINE('',#870,#871);
#637=VERTEX_POINT('',#873);
#638=LINE('',#874,#875);
#639=VERTEX_POINT('',#877);
#640=LINE('',#878,#879);
#641=VERTEX_POINT('',#881);
#642=LINE('',#882,#883);
#643=VERTEX_POINT('',#885);
#644=LINE('',#886,#887);
#645=VERTEX_POINT('',#889);
#646=LINE('',#890,#891);
#647=VERTEX_POINT('',#893);
#648=LINE('',#894,#895);
#649=VERTEX_POINT('',#897);
#650=LINE('',#898,#899);
#651=LINE('',#901,#902);
#652=VERTEX_POINT('',#904);
#653=LINE('',#905,#906);
#654=VERTEX_POINT('',#908);
#655=LINE('',#909,#910);
#656=LINE('',#912,#913);
#657=LINE('',#915,#916);
#658=VERTEX_POINT('',#918);
#659=LINE('',#919,#920);
#660=VERTEX_POINT('',#922);
#661=LINE('',#923,#924);
#662=VERTEX_POINT('',#926);
#663=LINE('',#927,#928);
#664=LINE('',#930,#931);
#665=LINE('',#933,#934);
#666=LINE('',#936,#937);
#667=LINE('',#939,#940);
#668=LINE('',#942,#943);
#669=LINE('',#945,#946);
#670=LINE('',#948,#949);
#671=LINE('',#951,#952);
#672=LINE('',#954,#955);
#673=LINE('',#957,#958);
#674=LINE('',#960,#961);
#675=LINE('',#963,#964);
#676=LINE('',#966,#967);
#677=LINE('',#969,#970);
#678=LINE('',#972,#973);
#679=LINE('',#975,#976);
#680=LINE('',#978,#979);
#681=LINE('',#981,#982);
#682=LINE('',#984,#985);
#683=LINE('',#987,#988);
#684=LINE('',#990,#991);
#685=CARTESIAN_POINT('',(-19.8,1.11022302462516E-16,-2.7));
#686=CARTESIAN_POINT('',(-19.8,3.,-2.7));
#687=CARTESIAN_POINT('',(-19.8,1.11022302462516E-16,-2.7));
#688=VECTOR('',#689,1.);
#689=DIRECTION('',(0.,1.,1.48029736616688E-16));
#690=CARTESIAN_POINT('',(-18.8,3.,-2.7));
#691=CARTESIAN_POINT('',(-19.8,3.,-2.69999999999999));
#692=VECTOR('',#693,1.);
#693=DIRECTION('',(1.,0.,-8.88178419700125E-16));
#694=CARTESIAN_POINT('',(-18.8,1.11022302462516E-16,-2.7));
#695=CARTESIAN_POINT('',(-18.8,1.11022302462516E-16,-2.7));
#696=VECTOR('',#697,1.);
#697=DIRECTION('',(0.,1.,1.48029736616688E-16));
#698=CARTESIAN_POINT('',(-19.8,1.38174810173704E-16,-2.7));
#699=VECTOR('',#700,1.);
#700=DIRECTION('',(1.,2.46519032881566E-32,-4.44089209850063E-16));
#701=CARTESIAN_POINT('',(-19.8,0.,4.77682869966579E-15));
#702=CARTESIAN_POINT('',(-19.8,3.,4.81125373957059E-15));
#703=CARTESIAN_POINT('',(-19.8,0.,4.77682869966579E-15));
#704=VECTOR('',#705,1.);
#705=DIRECTION('',(0.,1.,5.11758556198902E-17));
#706=CARTESIAN_POINT('',(-19.,0.,0.799999999999996));
#707=CARTESIAN_POINT('',(-19.,-2.4492935982947E-17,0.799999999999997));
#708=VECTOR('',#709,1.);
#709=DIRECTION('',(-0.707106781186548,2.16489014058873E-17,-0.707106781186547));
#710=CARTESIAN_POINT('',(-19.,3.,0.799999999999997));
#711=CARTESIAN_POINT('',(-19.,0.,0.799999999999996));
#712=VECTOR('',#713,1.);
#713=DIRECTION('',(0.,1.,2.22044604925031E-16));
#714=CARTESIAN_POINT('',(-19.,3.,0.799999999999997));
#715=VECTOR('',#716,1.);
#716=DIRECTION('',(-0.707106781186548,0.,-0.707106781186547));
#717=CARTESIAN_POINT('',(-19.5,3.,3.));
#718=CARTESIAN_POINT('',(-19.5,-1.83697019872103E-16,3.));
#719=CARTESIAN_POINT('',(-19.5,-2.58381963629825E-16,3.));
#720=VECTOR('',#721,1.);
#721=DIRECTION('',(0.,1.,0.));
#722=CARTESIAN_POINT('',(-24.5,-1.83697019872103E-16,3.));
#723=CARTESIAN_POINT('',(-19.5,-1.83697019872103E-16,3.));
#724=VECTOR('',#725,1.);
#725=DIRECTION('',(-1.,4.93038065763133E-33,-1.77635683940025E-16));
#726=CARTESIAN_POINT('',(-24.5,3.,3.));
#727=CARTESIAN_POINT('',(-24.5,-1.83697019872103E-16,3.));
#728=VECTOR('',#729,1.);
#729=DIRECTION('',(0.,1.,1.48029736616688E-16));
#730=CARTESIAN_POINT('',(-19.5,3.,3.));
#731=VECTOR('',#732,1.);
#732=DIRECTION('',(-1.,0.,-8.88178419700126E-17));
#733=CARTESIAN_POINT('',(-17.5,1.83697019872103E-16,-3.));
#734=CARTESIAN_POINT('',(-17.5,3.,-3.));
#735=CARTESIAN_POINT('',(-17.5,3.,-3.));
#736=VECTOR('',#737,1.);
#737=DIRECTION('',(0.,-1.,0.));
#738=CARTESIAN_POINT('',(17.5,3.,-3.));
#739=CARTESIAN_POINT('',(17.5,3.,-3.));
#740=VECTOR('',#741,1.);
#741=DIRECTION('',(-1.,0.,-1.01506105108586E-16));
#742=CARTESIAN_POINT('',(17.5,1.83697019872103E-16,-3.));
#743=CARTESIAN_POINT('',(17.5,2.02870812398567E-16,-3.));
#744=VECTOR('',#745,1.);
#745=DIRECTION('',(0.,1.,1.48029736616688E-16));
#746=CARTESIAN_POINT('',(17.5,1.83697019872103E-16,-3.));
#747=VECTOR('',#748,1.);
#748=DIRECTION('',(-1.,6.33906084552599E-33,-1.14194368247159E-16));
#749=CARTESIAN_POINT('',(-17.5,3.,5.));
#750=CARTESIAN_POINT('',(-17.5,3.,5.00000000000001));
#751=VECTOR('',#752,1.);
#752=DIRECTION('',(0.,0.,-1.));
#753=CARTESIAN_POINT('',(-18.,3.,5.));
#754=CARTESIAN_POINT('',(-18.,3.,5.));
#755=VECTOR('',#756,1.);
#756=DIRECTION('',(1.,0.,0.));
#757=CARTESIAN_POINT('',(-18.,3.,0.385786437626902));
#758=CARTESIAN_POINT('',(-18.,3.,0.385786437626901));
#759=VECTOR('',#760,1.);
#760=DIRECTION('',(0.,0.,1.));
#761=CARTESIAN_POINT('',(-18.8,3.,-0.41421356237309));
#762=CARTESIAN_POINT('',(-18.8,3.,-0.41421356237309));
#763=VECTOR('',#764,1.);
#764=DIRECTION('',(0.707106781186548,0.,0.707106781186547));
#765=CARTESIAN_POINT('',(-18.8,3.,-2.7));
#766=VECTOR('',#767,1.);
#767=DIRECTION('',(0.,0.,1.));
#768=CARTESIAN_POINT('',(-19.8,3.,-2.7));
#769=VECTOR('',#770,1.);
#770=DIRECTION('',(0.,0.,1.));
#771=CARTESIAN_POINT('',(-19.,3.,5.));
#772=CARTESIAN_POINT('',(-19.,3.,5.00000000000001));
#773=VECTOR('',#774,1.);
#774=DIRECTION('',(0.,0.,-1.));
#775=CARTESIAN_POINT('',(-19.5,3.,5.00000000000001));
#776=CARTESIAN_POINT('',(-19.5,3.,5.00000000000001));
#777=VECTOR('',#778,1.);
#778=DIRECTION('',(1.,0.,0.));
#779=CARTESIAN_POINT('',(-19.5,3.,3.));
#780=VECTOR('',#781,1.);
#781=DIRECTION('',(0.,0.,1.));
#782=CARTESIAN_POINT('',(-24.5,3.,7.));
#783=CARTESIAN_POINT('',(-24.5,3.,3.));
#784=VECTOR('',#785,1.);
#785=DIRECTION('',(0.,-1.11022302462516E-16,1.));
#786=CARTESIAN_POINT('',(24.5,3.,7.));
#787=CARTESIAN_POINT('',(-24.5,3.,7.));
#788=VECTOR('',#789,1.);
#789=DIRECTION('',(1.,0.,1.26882631385732E-16));
#790=CARTESIAN_POINT('',(24.5,3.,3.));
#791=CARTESIAN_POINT('',(24.5,3.,7.));
#792=VECTOR('',#793,1.);
#793=DIRECTION('',(0.,1.11022302462516E-16,-1.));
#794=CARTESIAN_POINT('',(19.5,3.,3.));
#795=CARTESIAN_POINT('',(24.5,3.,3.));
#796=VECTOR('',#797,1.);
#797=DIRECTION('',(-1.,0.,-8.88178419700126E-17));
#798=CARTESIAN_POINT('',(19.5,3.,5.00000000000001));
#799=CARTESIAN_POINT('',(19.5,3.,5.00000000000001));
#800=VECTOR('',#801,1.);
#801=DIRECTION('',(0.,0.,-1.));
#802=CARTESIAN_POINT('',(19.,3.,5.));
#803=CARTESIAN_POINT('',(19.,3.,5.));
#804=VECTOR('',#805,1.);
#805=DIRECTION('',(1.,0.,0.));
#806=CARTESIAN_POINT('',(19.,3.,0.799999999999995));
#807=CARTESIAN_POINT('',(19.,3.,0.799999999999995));
#808=VECTOR('',#809,1.);
#809=DIRECTION('',(0.,0.,1.));
#810=CARTESIAN_POINT('',(19.8,3.,2.38645307725883E-15));
#811=CARTESIAN_POINT('',(19.8,3.,2.44222744133272E-15));
#812=VECTOR('',#813,1.);
#813=DIRECTION('',(-0.707106781186548,0.,0.707106781186547));
#814=CARTESIAN_POINT('',(19.8,3.,-2.7));
#815=CARTESIAN_POINT('',(19.8,3.,2.38645307725883E-15));
#816=VECTOR('',#817,1.);
#817=DIRECTION('',(0.,0.,-1.));
#818=CARTESIAN_POINT('',(18.8,3.,-2.7));
#819=CARTESIAN_POINT('',(18.8,3.,-2.7));
#820=VECTOR('',#821,1.);
#821=DIRECTION('',(1.,0.,0.));
#822=CARTESIAN_POINT('',(18.8,3.,-0.414213562373092));
#823=CARTESIAN_POINT('',(18.8,3.,-0.414213562373092));
#824=VECTOR('',#825,1.);
#825=DIRECTION('',(0.,0.,-1.));
#826=CARTESIAN_POINT('',(18.,3.,0.385786437626899));
#827=CARTESIAN_POINT('',(18.,3.,0.3857864376269));
#828=VECTOR('',#829,1.);
#829=DIRECTION('',(0.707106781186548,0.,-0.707106781186547));
#830=CARTESIAN_POINT('',(18.,3.,5.));
#831=CARTESIAN_POINT('',(18.,3.,5.));
#832=VECTOR('',#833,1.);
#833=DIRECTION('',(0.,0.,-1.));
#834=CARTESIAN_POINT('',(17.5,3.,5.));
#835=CARTESIAN_POINT('',(17.5,3.,5.));
#836=VECTOR('',#837,1.);
#837=DIRECTION('',(1.,0.,0.));
#838=CARTESIAN_POINT('',(17.5,3.,-3.));
#839=VECTOR('',#840,1.);
#840=DIRECTION('',(0.,-1.11022302462516E-16,1.));
#841=CARTESIAN_POINT('',(-17.5,-3.33066907387547E-16,5.));
#842=CARTESIAN_POINT('',(-17.5,-3.19614303587193E-16,5.00000000000001));
#843=VECTOR('',#844,1.);
#844=DIRECTION('',(0.,6.531063949822E-17,-1.));
#845=CARTESIAN_POINT('',(17.5,-2.77555756156289E-16,5.));
#846=CARTESIAN_POINT('',(17.5,2.02870812398567E-16,-3.));
#847=VECTOR('',#848,1.);
#848=DIRECTION('',(0.,-6.531063949822E-17,1.));
#849=CARTESIAN_POINT('',(18.,-3.33066907387547E-16,5.));
#850=CARTESIAN_POINT('',(17.5,-3.19614303587193E-16,5.));
#851=VECTOR('',#852,1.);
#852=DIRECTION('',(1.,0.,0.));
#853=CARTESIAN_POINT('',(18.,1.11022302462516E-16,0.385786437626899));
#854=CARTESIAN_POINT('',(18.,-3.19614303587193E-16,5.));
#855=VECTOR('',#856,1.);
#856=DIRECTION('',(0.,6.67075756846921E-17,-1.));
#857=CARTESIAN_POINT('',(18.8,0.,-0.414213562373093));
#858=CARTESIAN_POINT('',(18.,-1.18113031498561E-17,0.385786437626899));
#859=VECTOR('',#860,1.);
#860=DIRECTION('',(0.707106781186548,2.16489014058873E-17,-0.707106781186547));
#861=CARTESIAN_POINT('',(18.8,1.11022302462516E-16,-2.7));
#862=CARTESIAN_POINT('',(18.8,1.26816328330908E-17,-0.414213562373093));
#863=VECTOR('',#864,1.);
#864=DIRECTION('',(0.,5.4901532039406E-17,-1.));
#865=CARTESIAN_POINT('',(19.8,1.11022302462516E-16,-2.7));
#866=CARTESIAN_POINT('',(18.8,1.38174810173704E-16,-2.7));
#867=VECTOR('',#868,1.);
#868=DIRECTION('',(1.,0.,0.));
#869=CARTESIAN_POINT('',(19.8,0.,2.2879288862615E-15));
#870=CARTESIAN_POINT('',(19.8,-6.92873000777126E-32,2.26309496341159E-15));
#871=VECTOR('',#872,1.);
#872=DIRECTION('',(0.,5.11758556198904E-17,-1.));
#873=CARTESIAN_POINT('',(19.,-1.11022302462516E-16,0.799999999999994));
#874=CARTESIAN_POINT('',(19.8,-7.26552854873182E-32,2.37310171513627E-15));
#875=VECTOR('',#876,1.);
#876=DIRECTION('',(-0.707106781186548,-7.07142907397557E-17,0.707106781186547));
#877=CARTESIAN_POINT('',(19.,-4.44089209850063E-16,5.));
#878=CARTESIAN_POINT('',(19.,-2.44929359829469E-17,0.799999999999994));
#879=VECTOR('',#880,1.);
#880=DIRECTION('',(0.,-7.0266992286725E-17,1.));
#881=CARTESIAN_POINT('',(19.5,-4.44089209850063E-16,5.00000000000001));
#882=CARTESIAN_POINT('',(19.,-3.19614303587193E-16,5.));
#883=VECTOR('',#884,1.);
#884=DIRECTION('',(1.,0.,0.));
#885=CARTESIAN_POINT('',(19.5,-1.83697019872103E-16,3.));
#886=CARTESIAN_POINT('',(19.5,-3.19614303587193E-16,5.00000000000001));
#887=VECTOR('',#888,1.);
#888=DIRECTION('',(0.,3.06161699786838E-17,-1.));
#889=CARTESIAN_POINT('',(24.5,-1.83697019872103E-16,3.));
#890=CARTESIAN_POINT('',(24.5,-1.83697019872103E-16,3.));
#891=VECTOR('',#892,1.);
#892=DIRECTION('',(-1.,4.93038065763133E-33,-1.77635683940025E-16));
#893=CARTESIAN_POINT('',(24.5,-4.28626379701574E-16,7.));
#894=CARTESIAN_POINT('',(24.5,-4.28626379701574E-16,7.));
#895=VECTOR('',#896,1.);
#896=DIRECTION('',(0.,6.12323399573677E-17,-1.));
#897=CARTESIAN_POINT('',(-24.5,-4.28626379701573E-16,7.));
#898=CARTESIAN_POINT('',(-24.5,-4.28626379701573E-16,7.));
#899=VECTOR('',#900,1.);
#900=DIRECTION('',(1.,-1.20744016105257E-32,1.0875654118777E-16));
#901=CARTESIAN_POINT('',(-24.5,-1.83697019872103E-16,3.));
#902=VECTOR('',#903,1.);
#903=DIRECTION('',(0.,-6.12323399573677E-17,1.));
#904=CARTESIAN_POINT('',(-19.5,-3.33066907387547E-16,5.00000000000001));
#905=CARTESIAN_POINT('',(-19.5,-2.58381963629825E-16,3.));
#906=VECTOR('',#907,1.);
#907=DIRECTION('',(0.,-3.06161699786838E-17,1.));
#908=CARTESIAN_POINT('',(-19.,-3.33066907387547E-16,5.));
#909=CARTESIAN_POINT('',(-19.5,-3.19614303587193E-16,5.));
#910=VECTOR('',#911,1.);
#911=DIRECTION('',(1.,0.,0.));
#912=CARTESIAN_POINT('',(-19.,-3.19614303587193E-16,5.));
#913=VECTOR('',#914,1.);
#914=DIRECTION('',(0.,7.02669922867251E-17,-1.));
#915=CARTESIAN_POINT('',(-19.8,1.38174810173704E-16,-2.7));
#916=VECTOR('',#917,1.);
#917=DIRECTION('',(0.,-5.11758556198904E-17,1.));
#918=CARTESIAN_POINT('',(-18.8,0.,-0.41421356237309));
#919=CARTESIAN_POINT('',(-18.8,1.38174810173704E-16,-2.7));
#920=VECTOR('',#921,1.);
#921=DIRECTION('',(0.,-5.4901532039406E-17,1.));
#922=CARTESIAN_POINT('',(-18.,0.,0.385786437626901));
#923=CARTESIAN_POINT('',(-18.8,1.26816328330907E-17,-0.41421356237309));
#924=VECTOR('',#925,1.);
#925=DIRECTION('',(0.707106781186548,-2.16489014058873E-17,0.707106781186547));
#926=CARTESIAN_POINT('',(-18.,-4.44089209850063E-16,5.00000000000001));
#927=CARTESIAN_POINT('',(-18.,-1.18113031498561E-17,0.385786437626901));
#928=VECTOR('',#929,1.);
#929=DIRECTION('',(0.,-6.67075756846921E-17,1.));
#930=CARTESIAN_POINT('',(-18.,-3.19614303587193E-16,5.));
#931=VECTOR('',#932,1.);
#932=DIRECTION('',(1.,0.,0.));
#933=CARTESIAN_POINT('',(-19.,-3.33066907387547E-16,5.));
#934=VECTOR('',#935,1.);
#935=DIRECTION('',(0.,1.,2.96059473233375E-16));
#936=CARTESIAN_POINT('',(-19.5,-3.33066907387547E-16,5.00000000000001));
#937=VECTOR('',#938,1.);
#938=DIRECTION('',(0.,1.,2.96059473233375E-16));
#939=CARTESIAN_POINT('',(-18.8,0.,-0.41421356237309));
#940=VECTOR('',#941,1.);
#941=DIRECTION('',(0.,1.,1.11022302462516E-16));
#942=CARTESIAN_POINT('',(-18.,0.,0.385786437626901));
#943=VECTOR('',#944,1.);
#944=DIRECTION('',(0.,1.,5.55111512312578E-17));
#945=CARTESIAN_POINT('',(-18.,-4.44089209850063E-16,5.00000000000001));
#946=VECTOR('',#947,1.);
#947=DIRECTION('',(0.,1.,0.));
#948=CARTESIAN_POINT('',(-17.5,-3.33066907387547E-16,5.));
#949=VECTOR('',#950,1.);
#950=DIRECTION('',(0.,1.,0.));
#951=CARTESIAN_POINT('',(-24.5,-4.28626379701574E-16,7.));
#952=VECTOR('',#953,1.);
#953=DIRECTION('',(0.,1.,0.));
#954=CARTESIAN_POINT('',(17.5,-2.77555756156289E-16,5.));
#955=VECTOR('',#956,1.);
#956=DIRECTION('',(0.,1.,0.));
#957=CARTESIAN_POINT('',(24.5,-4.28626379701574E-16,7.));
#958=VECTOR('',#959,1.);
#959=DIRECTION('',(0.,1.,2.96059473233375E-16));
#960=CARTESIAN_POINT('',(24.5,-1.83697019872103E-16,3.));
#961=VECTOR('',#962,1.);
#962=DIRECTION('',(0.,1.,0.));
#963=CARTESIAN_POINT('',(19.5,3.,3.));
#964=VECTOR('',#965,1.);
#965=DIRECTION('',(0.,-1.,0.));
#966=CARTESIAN_POINT('',(19.5,-4.44089209850063E-16,5.00000000000001));
#967=VECTOR('',#968,1.);
#968=DIRECTION('',(0.,1.,0.));
#969=CARTESIAN_POINT('',(19.,-4.44089209850063E-16,5.));
#970=VECTOR('',#971,1.);
#971=DIRECTION('',(0.,1.,0.));
#972=CARTESIAN_POINT('',(19.,-1.11022302462516E-16,0.799999999999994));
#973=VECTOR('',#974,1.);
#974=DIRECTION('',(0.,1.,1.11022302462516E-16));
#975=CARTESIAN_POINT('',(19.8,0.,2.2879288862615E-15));
#976=VECTOR('',#977,1.);
#977=DIRECTION('',(0.,1.,5.14328516904056E-17));
#978=CARTESIAN_POINT('',(19.8,1.11022302462516E-16,-2.7));
#979=VECTOR('',#980,1.);
#980=DIRECTION('',(0.,1.,1.48029736616688E-16));
#981=CARTESIAN_POINT('',(18.8,1.11022302462516E-16,-2.7));
#982=VECTOR('',#983,1.);
#983=DIRECTION('',(0.,1.,1.48029736616688E-16));
#984=CARTESIAN_POINT('',(18.8,0.,-0.414213562373093));
#985=VECTOR('',#986,1.);
#986=DIRECTION('',(0.,1.,5.55111512312578E-17));
#987=CARTESIAN_POINT('',(18.,1.11022302462516E-16,0.385786437626899));
#988=VECTOR('',#989,1.);
#989=DIRECTION('',(0.,1.,1.85037170770859E-16));
#990=CARTESIAN_POINT('',(18.,-3.33066907387547E-16,5.));
#991=VECTOR('',#992,1.);
#992=DIRECTION('',(0.,1.,2.96059473233375E-16));
ENDSEC;
END-ISO-10303-21;
