ISO-10303-21;
HEADER;
FILE_DESCRIPTION(('STEP AP242'),
    '1');
FILE_NAME('Стойка подшипника',
    '',
    ('UNSPECIFIED'),
    ('UNSPECIFIED'),
    'C3D Converter',
    'C3D Toolkit',
    '');
FILE_SCHEMA(('AP242_MANAGED_MODEL_BASED_3D_ENGINEERING_MIM_LF { 1 0 10303 442 1 1 4 }'));
ENDSEC;

DATA;
#1=PRODUCT_DEFINITION('','UNSPECIFIED',#28,#31);
#2=SHAPE_DEFINITION_REPRESENTATION(#26,#3);
#3=SHAPE_REPRESENTATION('NONE',(#4),#8);
#4=AXIS2_PLACEMENT_3D('',#5,#6,#7);
#5=CARTESIAN_POINT('',(0.,0.,0.));
#6=DIRECTION('',(0.,0.,1.));
#7=DIRECTION('',(1.,0.,0.));
#8=(GEOMETRIC_REPRESENTATION_CONTEXT(3)GLOBAL_UNCERTAINTY_ASSIGNED_CONTEXT((#10))
GLOBAL_UNIT_ASSIGNED_CONTEXT((#9,#11,#12))REPRESENTATION_CONTEXT('NONE','NONE'));
#9=(LENGTH_UNIT()NAMED_UNIT(*)SI_UNIT(.MILLI.,.METRE.));
#10=UNCERTAINTY_MEASURE_WITH_UNIT(LENGTH_MEASURE(1.E-5),#9,'NONE','NONE');
#11=(NAMED_UNIT(*)PLANE_ANGLE_UNIT()SI_UNIT($,.RADIAN.));
#12=(NAMED_UNIT(*)SI_UNIT($,.STERADIAN.)SOLID_ANGLE_UNIT());
#13=MANIFOLD_SOLID_BREP('',#14);
#14=CLOSED_SHELL('',(#53,#54,#55,#56,#57,#58,#59,#60,#61,#62,#63,#64,#65,#66,#67,
#68,#69,#70,#71,#72,#73,#74,#75,#76,#77,#78,#79,#80,#81,#82));
#15=COLOUR_RGB('',0.4,0.698039215686275,1.);
#16=FILL_AREA_STYLE_COLOUR('',#15);
#17=FILL_AREA_STYLE($,(#16));
#18=SURFACE_STYLE_FILL_AREA(#17);
#19=SURFACE_SIDE_STYLE('',(#18));
#20=SURFACE_STYLE_USAGE(.BOTH.,#19);
#21=PRESENTATION_STYLE_ASSIGNMENT((#20));
#22=MECHANICAL_DESIGN_GEOMETRIC_PRESENTATION_REPRESENTATION('NONE',(#23),#8);
#23=STYLED_ITEM('',(#21),#13);
#24=ADVANCED_BREP_SHAPE_REPRESENTATION('NONE',(#13),#8);
#25=SHAPE_REPRESENTATION_RELATIONSHIP('','',#3,#24);
#26=PRODUCT_DEFINITION_SHAPE('NONE','NONE',#1);
#27=MECHANICAL_CONTEXT('NONE',#32,'mechanical');
#28=PRODUCT_DEFINITION_FORMATION_WITH_SPECIFIED_SOURCE('ANY','UNSPECIFIED',#29,.NOT_KNOWN.);
#29=PRODUCT('','\X2\04210442043E0439043A0430\X0\ \X2\043F043E043404480438043F043D0438043A0430\X0\',
'NONE',(#27));
#30=PRODUCT_RELATED_PRODUCT_CATEGORY('detail','',(#29));
#31=DESIGN_CONTEXT('detailed design',#32,'design');
#32=APPLICATION_CONTEXT('configuration controlled 3d designs of mechanical parts and assemblies');
#33=APPLICATION_PROTOCOL_DEFINITION('international standard','config_control_design',
1994,#32);
#34=CC_DESIGN_DATE_AND_TIME_ASSIGNMENT(#35,#39,(#1));
#35=DATE_AND_TIME(#36,#37);
#36=CALENDAR_DATE(0,1,1);
#37=LOCAL_TIME(0,0,0.,#38);
#38=COORDINATED_UNIVERSAL_TIME_OFFSET(0,0,.AHEAD.);
#39=DATE_TIME_ROLE('creation_date');
#40=CC_DESIGN_APPROVAL(#41,(#1));
#41=APPROVAL(#42,'UNSPECIFIED');
#42=APPROVAL_STATUS('not_yet_approved');
#43=APPROVAL_DATE_TIME(#44,#41);
#44=DATE_AND_TIME(#45,#46);
#45=CALENDAR_DATE(0,1,1);
#46=LOCAL_TIME(0,0,0.,#47);
#47=COORDINATED_UNIVERSAL_TIME_OFFSET(0,0,.AHEAD.);
#48=PERSON('UNSPECIFIED','Rozmu','UNSPECIFIED',('UNSPECIFIED'),('UNSPECIFIED'),(
'UNSPECIFIED'));
#49=ORGANIZATION('UNSPECIFIED','UNSPECIFIED','UNSPECIFIED');
#50=PERSON_AND_ORGANIZATION(#48,#49);
#51=PERSON_AND_ORGANIZATION_ROLE('creator');
#52=CC_DESIGN_PERSON_AND_ORGANIZATION_ASSIGNMENT(#50,#51,(#28,#1));
#53=ADVANCED_FACE('',(#83),#85,.T.);
#54=ADVANCED_FACE('',(#90),#92,.T.);
#55=ADVANCED_FACE('',(#97),#99,.F.);
#56=ADVANCED_FACE('',(#104),#106,.F.);
#57=ADVANCED_FACE('',(#111),#113,.F.);
#58=ADVANCED_FACE('',(#118),#120,.T.);
#59=ADVANCED_FACE('',(#125),#127,.T.);
#60=ADVANCED_FACE('',(#132),#134,.F.);
#61=ADVANCED_FACE('',(#139),#141,.T.);
#62=ADVANCED_FACE('',(#146),#148,.T.);
#63=ADVANCED_FACE('',(#153,#155,#157),#159,.T.);
#64=ADVANCED_FACE('',(#164),#166,.T.);
#65=ADVANCED_FACE('',(#171,#173,#175),#177,.T.);
#66=ADVANCED_FACE('',(#182),#184,.T.);
#67=ADVANCED_FACE('',(#189),#191,.T.);
#68=ADVANCED_FACE('',(#196),#198,.T.);
#69=ADVANCED_FACE('',(#203),#205,.T.);
#70=ADVANCED_FACE('',(#210),#212,.T.);
#71=ADVANCED_FACE('',(#217,#219,#221),#223,.T.);
#72=ADVANCED_FACE('',(#228),#230,.T.);
#73=ADVANCED_FACE('',(#235,#237,#239),#241,.T.);
#74=ADVANCED_FACE('',(#246),#248,.T.);
#75=ADVANCED_FACE('',(#253),#255,.T.);
#76=ADVANCED_FACE('',(#260),#262,.F.);
#77=ADVANCED_FACE('',(#267),#269,.T.);
#78=ADVANCED_FACE('',(#274),#276,.T.);
#79=ADVANCED_FACE('',(#281,#283),#285,.F.);
#80=ADVANCED_FACE('',(#290,#292),#294,.F.);
#81=ADVANCED_FACE('',(#299,#301),#303,.F.);
#82=ADVANCED_FACE('',(#308,#310),#312,.F.);
#83=FACE_BOUND('',#84,.T.);
#84=EDGE_LOOP('',(#317,#318,#319,#320));
#85=PLANE('',#86);
#86=AXIS2_PLACEMENT_3D('',#87,#88,#89);
#87=CARTESIAN_POINT('',(-3.92857142857115,-1.51399731248032E-15,24.7254524902107));
#88=DIRECTION('',(0.934049773615402,0.,-0.357142857144051));
#89=DIRECTION('',(-0.357142857144051,5.71940532751206E-17,-0.934049773615402));
#90=FACE_BOUND('',#91,.T.);
#91=EDGE_LOOP('',(#321,#322,#323,#324));
#92=PLANE('',#93);
#93=AXIS2_PLACEMENT_3D('',#94,#95,#96);
#94=CARTESIAN_POINT('',(4.99999999998717,-1.34241515265549E-15,21.9233031693731));
#95=DIRECTION('',(-0.934049773615708,4.22942104619575E-17,-0.357142857143253));
#96=DIRECTION('',(-0.357142857143253,-5.71940532751393E-17,0.934049773615708));
#97=FACE_BOUND('',#98,.T.);
#98=EDGE_LOOP('',(#325,#326,#327,#328,#329,#330,#331,#332,#333,#334,#335,#336,#337,
#338,#339,#340,#341,#342,#343,#344,#345,#346));
#99=PLANE('',#100);
#100=AXIS2_PLACEMENT_3D('',#101,#102,#103);
#101=CARTESIAN_POINT('',(0.,0.,0.));
#102=DIRECTION('',(0.,1.,6.12323399573677E-17));
#103=DIRECTION('',(-1.,7.49879891330929E-33,-1.22464679914735E-16));
#104=FACE_BOUND('',#105,.T.);
#105=EDGE_LOOP('',(#347,#348,#349,#350,#351,#352,#353,#354,#355,#356,#357,#358,#359,
#360,#361,#362,#363,#364,#365,#366,#367,#368));
#106=PLANE('',#107);
#107=AXIS2_PLACEMENT_3D('',#108,#109,#110);
#108=CARTESIAN_POINT('',(18.,30.,10.));
#109=DIRECTION('',(4.65457055947186E-17,-0.881784641934692,-0.471652250337161));
#110=DIRECTION('',(-1.45708295774771E-16,-0.471652250337161,0.881784641934692));
#111=FACE_BOUND('',#112,.T.);
#112=EDGE_LOOP('',(#369,#370,#371,#372));
#113=CYLINDRICAL_SURFACE('',#114,11.05);
#114=AXIS2_PLACEMENT_3D('',#115,#116,#117);
#115=CARTESIAN_POINT('',(-7.98782456177079E-15,30.,35.));
#116=DIRECTION('',(0.,-1.,-6.12323399573677E-17));
#117=DIRECTION('',(6.12323399573677E-17,-6.12323399573677E-17,1.));
#118=FACE_BOUND('',#119,.T.);
#119=EDGE_LOOP('',(#373,#374,#375,#376));
#120=CYLINDRICAL_SURFACE('',#121,14.);
#121=AXIS2_PLACEMENT_3D('',#122,#123,#124);
#122=CARTESIAN_POINT('',(-7.98782456177079E-15,-2.14313189850787E-15,35.));
#123=DIRECTION('',(0.,1.,6.12323399573677E-17));
#124=DIRECTION('',(-0.357142857142739,5.71940532751513E-17,-0.934049773615904));
#125=FACE_BOUND('',#126,.T.);
#126=EDGE_LOOP('',(#377,#378,#379,#380));
#127=CYLINDRICAL_SURFACE('',#128,14.);
#128=AXIS2_PLACEMENT_3D('',#129,#130,#131);
#129=CARTESIAN_POINT('',(-7.98782456177079E-15,-2.14313189850787E-15,35.));
#130=DIRECTION('',(0.,1.,6.12323399573677E-17));
#131=DIRECTION('',(1.,-7.49879891330929E-33,1.22464679914735E-16));
#132=FACE_BOUND('',#133,.T.);
#133=EDGE_LOOP('',(#381,#382,#383,#384));
#134=CYLINDRICAL_SURFACE('',#135,2.);
#135=AXIS2_PLACEMENT_3D('',#136,#137,#138);
#136=CARTESIAN_POINT('',(12.,-4.,24.4169947557416));
#137=DIRECTION('',(0.,1.,0.));
#138=DIRECTION('',(-0.75,0.,0.661437827766148));
#139=FACE_BOUND('',#140,.T.);
#140=EDGE_LOOP('',(#385,#386,#387,#388));
#141=PLANE('',#142);
#142=AXIS2_PLACEMENT_3D('',#143,#144,#145);
#143=CARTESIAN_POINT('',(14.,-1.40834381901945E-15,22.9999999999999));
#144=DIRECTION('',(-1.,0.,0.));
#145=DIRECTION('',(0.,-6.12323399573677E-17,1.));
#146=FACE_BOUND('',#147,.T.);
#147=EDGE_LOOP('',(#389,#390,#391,#392));
#148=PLANE('',#149);
#149=AXIS2_PLACEMENT_3D('',#150,#151,#152);
#150=CARTESIAN_POINT('',(10.,-9.84113723529487E-16,16.0717967697244));
#151=DIRECTION('',(-0.866025403784439,-5.92118946466749E-17,0.499999999999999));
#152=DIRECTION('',(0.499999999999999,-5.30287619362454E-17,0.866025403784439));
#153=FACE_BOUND('',#154,.T.);
#154=EDGE_LOOP('',(#393,#394,#395,#396,#397));
#155=FACE_BOUND('',#156,.T.);
#156=EDGE_LOOP('',(#398));
#157=FACE_BOUND('',#158,.T.);
#158=EDGE_LOOP('',(#399));
#159=PLANE('',#160);
#160=AXIS2_PLACEMENT_3D('',#161,#162,#163);
#161=CARTESIAN_POINT('',(10.,6.12323399573676E-16,-10.));
#162=DIRECTION('',(-1.,4.03430016574881E-33,-6.81332727118764E-17));
#163=DIRECTION('',(-6.81332727118764E-17,-6.12323399573677E-17,1.));
#164=FACE_BOUND('',#165,.T.);
#165=EDGE_LOOP('',(#400,#401,#402,#403));
#166=PLANE('',#167);
#167=AXIS2_PLACEMENT_3D('',#168,#169,#170);
#168=CARTESIAN_POINT('',(14.,6.12323399573676E-16,-10.));
#169=DIRECTION('',(0.,5.9211894646675E-17,-1.));
#170=DIRECTION('',(-1.,0.,0.));
#171=FACE_BOUND('',#172,.T.);
#172=EDGE_LOOP('',(#404,#405,#406,#407,#408));
#173=FACE_BOUND('',#174,.T.);
#174=EDGE_LOOP('',(#409));
#175=FACE_BOUND('',#176,.T.);
#176=EDGE_LOOP('',(#410));
#177=PLANE('',#178);
#178=AXIS2_PLACEMENT_3D('',#179,#180,#181);
#179=CARTESIAN_POINT('',(14.,-9.18485099360515E-16,15.));
#180=DIRECTION('',(1.,-8.41451632235746E-33,1.4210854715202E-16));
#181=DIRECTION('',(1.4210854715202E-16,6.12323399573677E-17,-1.));
#182=FACE_BOUND('',#183,.T.);
#183=EDGE_LOOP('',(#411,#412,#413,#414));
#184=PLANE('',#185);
#185=AXIS2_PLACEMENT_3D('',#186,#187,#188);
#186=CARTESIAN_POINT('',(18.,-1.34271519485048E-15,21.9282032302755));
#187=DIRECTION('',(0.866025403784439,0.,-0.499999999999999));
#188=DIRECTION('',(-0.499999999999999,5.30287619362454E-17,-0.866025403784439));
#189=FACE_BOUND('',#190,.T.);
#190=EDGE_LOOP('',(#415,#416,#417,#418));
#191=PLANE('',#192);
#192=AXIS2_PLACEMENT_3D('',#193,#194,#195);
#193=CARTESIAN_POINT('',(18.,-2.14313189850787E-15,35.));
#194=DIRECTION('',(1.,0.,0.));
#195=DIRECTION('',(0.,6.12323399573677E-17,-1.));
#196=FACE_BOUND('',#197,.T.);
#197=EDGE_LOOP('',(#419,#420,#421,#422));
#198=CYLINDRICAL_SURFACE('',#199,18.);
#199=AXIS2_PLACEMENT_3D('',#200,#201,#202);
#200=CARTESIAN_POINT('',(-7.98782456177079E-15,-2.14313189850787E-15,35.));
#201=DIRECTION('',(0.,1.,6.12323399573677E-17));
#202=DIRECTION('',(-1.,7.49879891330929E-33,-1.22464679914735E-16));
#203=FACE_BOUND('',#204,.T.);
#204=EDGE_LOOP('',(#423,#424,#425,#426));
#205=PLANE('',#206);
#206=AXIS2_PLACEMENT_3D('',#207,#208,#209);
#207=CARTESIAN_POINT('',(-18.,-1.34271519485048E-15,21.9282032302755));
#208=DIRECTION('',(-1.,0.,0.));
#209=DIRECTION('',(0.,-6.12323399573677E-17,1.));
#210=FACE_BOUND('',#211,.T.);
#211=EDGE_LOOP('',(#427,#428,#429,#430));
#212=PLANE('',#213);
#213=AXIS2_PLACEMENT_3D('',#214,#215,#216);
#214=CARTESIAN_POINT('',(-14.,-9.18485099360515E-16,15.));
#215=DIRECTION('',(-0.866025403784439,2.96059473233375E-17,-0.5));
#216=DIRECTION('',(-0.5,-5.30287619362453E-17,0.866025403784439));
#217=FACE_BOUND('',#218,.T.);
#218=EDGE_LOOP('',(#431,#432,#433,#434,#435));
#219=FACE_BOUND('',#220,.T.);
#220=EDGE_LOOP('',(#436));
#221=FACE_BOUND('',#222,.T.);
#222=EDGE_LOOP('',(#437));
#223=PLANE('',#224);
#224=AXIS2_PLACEMENT_3D('',#225,#226,#227);
#225=CARTESIAN_POINT('',(-14.,6.12323399573677E-16,-10.));
#226=DIRECTION('',(-1.,8.41451632235746E-33,-1.4210854715202E-16));
#227=DIRECTION('',(-1.4210854715202E-16,-6.12323399573677E-17,1.));
#228=FACE_BOUND('',#229,.T.);
#229=EDGE_LOOP('',(#438,#439,#440,#441));
#230=PLANE('',#231);
#231=AXIS2_PLACEMENT_3D('',#232,#233,#234);
#232=CARTESIAN_POINT('',(-10.,6.12323399573677E-16,-10.));
#233=DIRECTION('',(0.,5.9211894646675E-17,-1.));
#234=DIRECTION('',(-1.,0.,0.));
#235=FACE_BOUND('',#236,.T.);
#236=EDGE_LOOP('',(#442,#443,#444,#445,#446));
#237=FACE_BOUND('',#238,.T.);
#238=EDGE_LOOP('',(#447));
#239=FACE_BOUND('',#240,.T.);
#240=EDGE_LOOP('',(#448));
#241=PLANE('',#242);
#242=AXIS2_PLACEMENT_3D('',#243,#244,#245);
#243=CARTESIAN_POINT('',(-10.,-9.84113723529409E-16,16.0717967697231));
#244=DIRECTION('',(1.,1.3684555315672E-48,1.36266545423759E-16));
#245=DIRECTION('',(1.36266545423759E-16,6.12323399573677E-17,-1.));
#246=FACE_BOUND('',#247,.T.);
#247=EDGE_LOOP('',(#449,#450,#451,#452));
#248=PLANE('',#249);
#249=AXIS2_PLACEMENT_3D('',#250,#251,#252);
#250=CARTESIAN_POINT('',(-14.0000000000007,-1.40834381901945E-15,22.9999999999999));
#251=DIRECTION('',(0.866025403784439,0.,0.5));
#252=DIRECTION('',(0.5,5.30287619362453E-17,-0.866025403784439));
#253=FACE_BOUND('',#254,.T.);
#254=EDGE_LOOP('',(#453,#454,#455,#456));
#255=PLANE('',#256);
#256=AXIS2_PLACEMENT_3D('',#257,#258,#259);
#257=CARTESIAN_POINT('',(-14.0000000000007,-2.14313189850787E-15,35.));
#258=DIRECTION('',(1.,0.,0.));
#259=DIRECTION('',(0.,6.12323399573677E-17,-1.));
#260=FACE_BOUND('',#261,.T.);
#261=EDGE_LOOP('',(#457,#458,#459,#460));
#262=CYLINDRICAL_SURFACE('',#263,2.);
#263=AXIS2_PLACEMENT_3D('',#264,#265,#266);
#264=CARTESIAN_POINT('',(-12.0000000000007,-4.,24.4169947557425));
#265=DIRECTION('',(1.24099665465818E-16,1.,1.24099665465818E-16));
#266=DIRECTION('',(-1.,1.24099665465818E-16,1.54007269687279E-32));
#267=FACE_BOUND('',#268,.T.);
#268=EDGE_LOOP('',(#461,#462,#463,#464));
#269=PLANE('',#270);
#270=AXIS2_PLACEMENT_3D('',#271,#272,#273);
#271=CARTESIAN_POINT('',(0.,30.,1.83697019872103E-15));
#272=DIRECTION('',(0.,1.,6.12323399573677E-17));
#273=DIRECTION('',(-1.,7.49879891330929E-33,-1.22464679914735E-16));
#274=FACE_BOUND('',#275,.T.);
#275=EDGE_LOOP('',(#465,#466,#467,#468));
#276=PLANE('',#277);
#277=AXIS2_PLACEMENT_3D('',#278,#279,#280);
#278=CARTESIAN_POINT('',(0.,30.,1.83697019872103E-15));
#279=DIRECTION('',(0.,1.,6.12323399573677E-17));
#280=DIRECTION('',(-1.,7.49879891330929E-33,-1.22464679914735E-16));
#281=FACE_OUTER_BOUND('',#282,.T.);
#282=EDGE_LOOP('',(#469));
#283=FACE_OUTER_BOUND('',#284,.T.);
#284=EDGE_LOOP('',(#470));
#285=CYLINDRICAL_SURFACE('',#286,2.55);
#286=AXIS2_PLACEMENT_3D('',#287,#288,#289);
#287=CARTESIAN_POINT('',(-15.,7.5,-1.27375646724057E-15));
#288=DIRECTION('',(1.,-8.41451632235746E-33,1.4210854715202E-16));
#289=DIRECTION('',(2.87122547702635E-34,-1.,-6.12323399573676E-17));
#290=FACE_OUTER_BOUND('',#291,.T.);
#291=EDGE_LOOP('',(#471));
#292=FACE_OUTER_BOUND('',#293,.T.);
#293=EDGE_LOOP('',(#472));
#294=CYLINDRICAL_SURFACE('',#295,2.55);
#295=AXIS2_PLACEMENT_3D('',#296,#297,#298);
#296=CARTESIAN_POINT('',(-15.,22.5,4.41987012838906E-16));
#297=DIRECTION('',(1.,-8.41451632235746E-33,1.4210854715202E-16));
#298=DIRECTION('',(2.87122547702627E-34,-1.,-6.12323399573675E-17));
#299=FACE_OUTER_BOUND('',#300,.T.);
#300=EDGE_LOOP('',(#473));
#301=FACE_OUTER_BOUND('',#302,.T.);
#302=EDGE_LOOP('',(#474));
#303=CYLINDRICAL_SURFACE('',#304,2.55);
#304=AXIS2_PLACEMENT_3D('',#305,#306,#307);
#305=CARTESIAN_POINT('',(-15.,7.5,-1.27375646724057E-15));
#306=DIRECTION('',(1.,-8.41451632235746E-33,1.4210854715202E-16));
#307=DIRECTION('',(2.87122547702635E-34,-1.,-6.12323399573676E-17));
#308=FACE_OUTER_BOUND('',#309,.T.);
#309=EDGE_LOOP('',(#475));
#310=FACE_OUTER_BOUND('',#311,.T.);
#311=EDGE_LOOP('',(#476));
#312=CYLINDRICAL_SURFACE('',#313,2.55);
#313=AXIS2_PLACEMENT_3D('',#314,#315,#316);
#314=CARTESIAN_POINT('',(-15.,22.5,4.41987012838906E-16));
#315=DIRECTION('',(1.,-8.41451632235746E-33,1.4210854715202E-16));
#316=DIRECTION('',(2.87122547702627E-34,-1.,-6.12323399573675E-17));
#317=ORIENTED_EDGE('',*,*,#477,.T.);
#318=ORIENTED_EDGE('',*,*,#478,.T.);
#319=ORIENTED_EDGE('',*,*,#479,.T.);
#320=ORIENTED_EDGE('',*,*,#480,.T.);
#321=ORIENTED_EDGE('',*,*,#481,.T.);
#322=ORIENTED_EDGE('',*,*,#482,.T.);
#323=ORIENTED_EDGE('',*,*,#483,.F.);
#324=ORIENTED_EDGE('',*,*,#484,.T.);
#325=ORIENTED_EDGE('',*,*,#485,.T.);
#326=ORIENTED_EDGE('',*,*,#484,.F.);
#327=ORIENTED_EDGE('',*,*,#486,.F.);
#328=ORIENTED_EDGE('',*,*,#487,.F.);
#329=ORIENTED_EDGE('',*,*,#488,.F.);
#330=ORIENTED_EDGE('',*,*,#489,.F.);
#331=ORIENTED_EDGE('',*,*,#490,.F.);
#332=ORIENTED_EDGE('',*,*,#491,.F.);
#333=ORIENTED_EDGE('',*,*,#492,.F.);
#334=ORIENTED_EDGE('',*,*,#493,.F.);
#335=ORIENTED_EDGE('',*,*,#494,.F.);
#336=ORIENTED_EDGE('',*,*,#495,.F.);
#337=ORIENTED_EDGE('',*,*,#496,.F.);
#338=ORIENTED_EDGE('',*,*,#497,.F.);
#339=ORIENTED_EDGE('',*,*,#498,.F.);
#340=ORIENTED_EDGE('',*,*,#499,.F.);
#341=ORIENTED_EDGE('',*,*,#500,.F.);
#342=ORIENTED_EDGE('',*,*,#501,.F.);
#343=ORIENTED_EDGE('',*,*,#502,.F.);
#344=ORIENTED_EDGE('',*,*,#503,.F.);
#345=ORIENTED_EDGE('',*,*,#504,.F.);
#346=ORIENTED_EDGE('',*,*,#478,.F.);
#347=ORIENTED_EDGE('',*,*,#480,.F.);
#348=ORIENTED_EDGE('',*,*,#505,.F.);
#349=ORIENTED_EDGE('',*,*,#506,.F.);
#350=ORIENTED_EDGE('',*,*,#507,.F.);
#351=ORIENTED_EDGE('',*,*,#508,.F.);
#352=ORIENTED_EDGE('',*,*,#509,.F.);
#353=ORIENTED_EDGE('',*,*,#510,.F.);
#354=ORIENTED_EDGE('',*,*,#511,.F.);
#355=ORIENTED_EDGE('',*,*,#512,.F.);
#356=ORIENTED_EDGE('',*,*,#513,.F.);
#357=ORIENTED_EDGE('',*,*,#514,.F.);
#358=ORIENTED_EDGE('',*,*,#515,.F.);
#359=ORIENTED_EDGE('',*,*,#516,.F.);
#360=ORIENTED_EDGE('',*,*,#517,.F.);
#361=ORIENTED_EDGE('',*,*,#518,.F.);
#362=ORIENTED_EDGE('',*,*,#519,.F.);
#363=ORIENTED_EDGE('',*,*,#520,.F.);
#364=ORIENTED_EDGE('',*,*,#521,.F.);
#365=ORIENTED_EDGE('',*,*,#522,.F.);
#366=ORIENTED_EDGE('',*,*,#523,.F.);
#367=ORIENTED_EDGE('',*,*,#482,.F.);
#368=ORIENTED_EDGE('',*,*,#524,.T.);
#369=ORIENTED_EDGE('',*,*,#524,.F.);
#370=ORIENTED_EDGE('',*,*,#481,.F.);
#371=ORIENTED_EDGE('',*,*,#485,.F.);
#372=ORIENTED_EDGE('',*,*,#477,.F.);
#373=ORIENTED_EDGE('',*,*,#525,.T.);
#374=ORIENTED_EDGE('',*,*,#505,.T.);
#375=ORIENTED_EDGE('',*,*,#479,.F.);
#376=ORIENTED_EDGE('',*,*,#504,.T.);
#377=ORIENTED_EDGE('',*,*,#526,.F.);
#378=ORIENTED_EDGE('',*,*,#486,.T.);
#379=ORIENTED_EDGE('',*,*,#483,.T.);
#380=ORIENTED_EDGE('',*,*,#523,.T.);
#381=ORIENTED_EDGE('',*,*,#527,.F.);
#382=ORIENTED_EDGE('',*,*,#487,.T.);
#383=ORIENTED_EDGE('',*,*,#526,.T.);
#384=ORIENTED_EDGE('',*,*,#522,.T.);
#385=ORIENTED_EDGE('',*,*,#527,.T.);
#386=ORIENTED_EDGE('',*,*,#521,.T.);
#387=ORIENTED_EDGE('',*,*,#528,.F.);
#388=ORIENTED_EDGE('',*,*,#488,.T.);
#389=ORIENTED_EDGE('',*,*,#520,.T.);
#390=ORIENTED_EDGE('',*,*,#529,.F.);
#391=ORIENTED_EDGE('',*,*,#489,.T.);
#392=ORIENTED_EDGE('',*,*,#528,.T.);
#393=ORIENTED_EDGE('',*,*,#519,.T.);
#394=ORIENTED_EDGE('',*,*,#530,.F.);
#395=ORIENTED_EDGE('',*,*,#531,.F.);
#396=ORIENTED_EDGE('',*,*,#490,.T.);
#397=ORIENTED_EDGE('',*,*,#529,.T.);
#398=ORIENTED_EDGE('',*,*,#532,.T.);
#399=ORIENTED_EDGE('',*,*,#533,.T.);
#400=ORIENTED_EDGE('',*,*,#491,.T.);
#401=ORIENTED_EDGE('',*,*,#531,.T.);
#402=ORIENTED_EDGE('',*,*,#534,.F.);
#403=ORIENTED_EDGE('',*,*,#535,.F.);
#404=ORIENTED_EDGE('',*,*,#517,.T.);
#405=ORIENTED_EDGE('',*,*,#536,.F.);
#406=ORIENTED_EDGE('',*,*,#492,.T.);
#407=ORIENTED_EDGE('',*,*,#535,.T.);
#408=ORIENTED_EDGE('',*,*,#537,.F.);
#409=ORIENTED_EDGE('',*,*,#538,.T.);
#410=ORIENTED_EDGE('',*,*,#539,.T.);
#411=ORIENTED_EDGE('',*,*,#516,.T.);
#412=ORIENTED_EDGE('',*,*,#540,.F.);
#413=ORIENTED_EDGE('',*,*,#493,.T.);
#414=ORIENTED_EDGE('',*,*,#536,.T.);
#415=ORIENTED_EDGE('',*,*,#515,.T.);
#416=ORIENTED_EDGE('',*,*,#541,.F.);
#417=ORIENTED_EDGE('',*,*,#494,.T.);
#418=ORIENTED_EDGE('',*,*,#540,.T.);
#419=ORIENTED_EDGE('',*,*,#514,.T.);
#420=ORIENTED_EDGE('',*,*,#542,.F.);
#421=ORIENTED_EDGE('',*,*,#495,.T.);
#422=ORIENTED_EDGE('',*,*,#541,.T.);
#423=ORIENTED_EDGE('',*,*,#513,.T.);
#424=ORIENTED_EDGE('',*,*,#543,.F.);
#425=ORIENTED_EDGE('',*,*,#496,.T.);
#426=ORIENTED_EDGE('',*,*,#542,.T.);
#427=ORIENTED_EDGE('',*,*,#512,.T.);
#428=ORIENTED_EDGE('',*,*,#544,.F.);
#429=ORIENTED_EDGE('',*,*,#497,.T.);
#430=ORIENTED_EDGE('',*,*,#543,.T.);
#431=ORIENTED_EDGE('',*,*,#511,.T.);
#432=ORIENTED_EDGE('',*,*,#545,.F.);
#433=ORIENTED_EDGE('',*,*,#546,.F.);
#434=ORIENTED_EDGE('',*,*,#498,.T.);
#435=ORIENTED_EDGE('',*,*,#544,.T.);
#436=ORIENTED_EDGE('',*,*,#547,.T.);
#437=ORIENTED_EDGE('',*,*,#548,.T.);
#438=ORIENTED_EDGE('',*,*,#499,.T.);
#439=ORIENTED_EDGE('',*,*,#546,.T.);
#440=ORIENTED_EDGE('',*,*,#549,.F.);
#441=ORIENTED_EDGE('',*,*,#550,.F.);
#442=ORIENTED_EDGE('',*,*,#509,.T.);
#443=ORIENTED_EDGE('',*,*,#551,.F.);
#444=ORIENTED_EDGE('',*,*,#500,.T.);
#445=ORIENTED_EDGE('',*,*,#550,.T.);
#446=ORIENTED_EDGE('',*,*,#552,.F.);
#447=ORIENTED_EDGE('',*,*,#553,.T.);
#448=ORIENTED_EDGE('',*,*,#554,.T.);
#449=ORIENTED_EDGE('',*,*,#508,.T.);
#450=ORIENTED_EDGE('',*,*,#555,.F.);
#451=ORIENTED_EDGE('',*,*,#501,.T.);
#452=ORIENTED_EDGE('',*,*,#551,.T.);
#453=ORIENTED_EDGE('',*,*,#556,.F.);
#454=ORIENTED_EDGE('',*,*,#502,.T.);
#455=ORIENTED_EDGE('',*,*,#555,.T.);
#456=ORIENTED_EDGE('',*,*,#507,.T.);
#457=ORIENTED_EDGE('',*,*,#525,.F.);
#458=ORIENTED_EDGE('',*,*,#503,.T.);
#459=ORIENTED_EDGE('',*,*,#556,.T.);
#460=ORIENTED_EDGE('',*,*,#506,.T.);
#461=ORIENTED_EDGE('',*,*,#510,.T.);
#462=ORIENTED_EDGE('',*,*,#552,.T.);
#463=ORIENTED_EDGE('',*,*,#549,.T.);
#464=ORIENTED_EDGE('',*,*,#545,.T.);
#465=ORIENTED_EDGE('',*,*,#518,.T.);
#466=ORIENTED_EDGE('',*,*,#537,.T.);
#467=ORIENTED_EDGE('',*,*,#534,.T.);
#468=ORIENTED_EDGE('',*,*,#530,.T.);
#469=ORIENTED_EDGE('',*,*,#538,.F.);
#470=ORIENTED_EDGE('',*,*,#532,.F.);
#471=ORIENTED_EDGE('',*,*,#539,.F.);
#472=ORIENTED_EDGE('',*,*,#533,.F.);
#473=ORIENTED_EDGE('',*,*,#553,.F.);
#474=ORIENTED_EDGE('',*,*,#547,.F.);
#475=ORIENTED_EDGE('',*,*,#554,.F.);
#476=ORIENTED_EDGE('',*,*,#548,.F.);
#477=EDGE_CURVE('',#557,#558,#559,.T.);
#478=EDGE_CURVE('',#558,#560,#561,.T.);
#479=EDGE_CURVE('',#560,#562,#563,.T.);
#480=EDGE_CURVE('',#562,#557,#564,.F.);
#481=EDGE_CURVE('',#565,#566,#567,.F.);
#482=EDGE_CURVE('',#566,#568,#569,.F.);
#483=EDGE_CURVE('',#570,#568,#571,.T.);
#484=EDGE_CURVE('',#570,#565,#572,.T.);
#485=EDGE_CURVE('',#558,#565,#573,.F.);
#486=EDGE_CURVE('',#574,#570,#575,.T.);
#487=EDGE_CURVE('',#576,#574,#577,.F.);
#488=EDGE_CURVE('',#578,#576,#579,.T.);
#489=EDGE_CURVE('',#580,#578,#581,.T.);
#490=EDGE_CURVE('',#582,#580,#583,.T.);
#491=EDGE_CURVE('',#584,#582,#585,.T.);
#492=EDGE_CURVE('',#586,#584,#587,.T.);
#493=EDGE_CURVE('',#588,#586,#589,.T.);
#494=EDGE_CURVE('',#590,#588,#591,.T.);
#495=EDGE_CURVE('',#592,#590,#593,.T.);
#496=EDGE_CURVE('',#594,#592,#595,.T.);
#497=EDGE_CURVE('',#596,#594,#597,.T.);
#498=EDGE_CURVE('',#598,#596,#599,.T.);
#499=EDGE_CURVE('',#600,#598,#601,.T.);
#500=EDGE_CURVE('',#602,#600,#603,.T.);
#501=EDGE_CURVE('',#604,#602,#605,.T.);
#502=EDGE_CURVE('',#606,#604,#607,.T.);
#503=EDGE_CURVE('',#608,#606,#609,.F.);
#504=EDGE_CURVE('',#560,#608,#610,.T.);
#505=EDGE_CURVE('',#611,#562,#612,.F.);
#506=EDGE_CURVE('',#613,#611,#614,.T.);
#507=EDGE_CURVE('',#615,#613,#616,.F.);
#508=EDGE_CURVE('',#617,#615,#618,.F.);
#509=EDGE_CURVE('',#619,#617,#620,.F.);
#510=EDGE_CURVE('',#621,#619,#622,.F.);
#511=EDGE_CURVE('',#623,#621,#624,.F.);
#512=EDGE_CURVE('',#625,#623,#626,.F.);
#513=EDGE_CURVE('',#627,#625,#628,.F.);
#514=EDGE_CURVE('',#629,#627,#630,.F.);
#515=EDGE_CURVE('',#631,#629,#632,.F.);
#516=EDGE_CURVE('',#633,#631,#634,.F.);
#517=EDGE_CURVE('',#635,#633,#636,.F.);
#518=EDGE_CURVE('',#637,#635,#638,.F.);
#519=EDGE_CURVE('',#639,#637,#640,.F.);
#520=EDGE_CURVE('',#641,#639,#642,.F.);
#521=EDGE_CURVE('',#643,#641,#644,.F.);
#522=EDGE_CURVE('',#645,#643,#646,.F.);
#523=EDGE_CURVE('',#568,#645,#647,.F.);
#524=EDGE_CURVE('',#566,#557,#648,.T.);
#525=EDGE_CURVE('',#608,#611,#649,.T.);
#526=EDGE_CURVE('',#574,#645,#650,.T.);
#527=EDGE_CURVE('',#576,#643,#651,.T.);
#528=EDGE_CURVE('',#578,#641,#652,.T.);
#529=EDGE_CURVE('',#580,#639,#653,.T.);
#530=EDGE_CURVE('',#654,#637,#655,.T.);
#531=EDGE_CURVE('',#582,#654,#656,.T.);
#532=EDGE_CURVE('',#657,#657,#658,.T.);
#533=EDGE_CURVE('',#659,#659,#660,.T.);
#534=EDGE_CURVE('',#661,#654,#662,.T.);
#535=EDGE_CURVE('',#584,#661,#663,.T.);
#536=EDGE_CURVE('',#586,#633,#664,.T.);
#537=EDGE_CURVE('',#635,#661,#665,.T.);
#538=EDGE_CURVE('',#666,#666,#667,.F.);
#539=EDGE_CURVE('',#668,#668,#669,.F.);
#540=EDGE_CURVE('',#588,#631,#670,.T.);
#541=EDGE_CURVE('',#590,#629,#671,.T.);
#542=EDGE_CURVE('',#592,#627,#672,.T.);
#543=EDGE_CURVE('',#594,#625,#673,.T.);
#544=EDGE_CURVE('',#596,#623,#674,.T.);
#545=EDGE_CURVE('',#675,#621,#676,.T.);
#546=EDGE_CURVE('',#598,#675,#677,.T.);
#547=EDGE_CURVE('',#678,#678,#679,.T.);
#548=EDGE_CURVE('',#680,#680,#681,.T.);
#549=EDGE_CURVE('',#682,#675,#683,.T.);
#550=EDGE_CURVE('',#600,#682,#684,.T.);
#551=EDGE_CURVE('',#602,#617,#685,.T.);
#552=EDGE_CURVE('',#619,#682,#686,.T.);
#553=EDGE_CURVE('',#687,#687,#688,.F.);
#554=EDGE_CURVE('',#689,#689,#690,.F.);
#555=EDGE_CURVE('',#604,#615,#691,.T.);
#556=EDGE_CURVE('',#606,#613,#692,.T.);
#557=VERTEX_POINT('',#693);
#558=VERTEX_POINT('',#694);
#559=LINE('',#695,#696);
#560=VERTEX_POINT('',#698);
#561=LINE('',#699,#700);
#562=VERTEX_POINT('',#702);
#563=LINE('',#703,#704);
#564=LINE('',#706,#707);
#565=VERTEX_POINT('',#709);
#566=VERTEX_POINT('',#710);
#567=LINE('',#711,#712);
#568=VERTEX_POINT('',#714);
#569=LINE('',#715,#716);
#570=VERTEX_POINT('',#718);
#571=LINE('',#719,#720);
#572=LINE('',#722,#723);
#573=CIRCLE('',#725,11.05);
#574=VERTEX_POINT('',#729);
#575=CIRCLE('',#730,14.);
#576=VERTEX_POINT('',#734);
#577=CIRCLE('',#735,2.);
#578=VERTEX_POINT('',#739);
#579=LINE('',#740,#741);
#580=VERTEX_POINT('',#743);
#581=LINE('',#744,#745);
#582=VERTEX_POINT('',#747);
#583=LINE('',#748,#749);
#584=VERTEX_POINT('',#751);
#585=LINE('',#752,#753);
#586=VERTEX_POINT('',#755);
#587=LINE('',#756,#757);
#588=VERTEX_POINT('',#759);
#589=LINE('',#760,#761);
#590=VERTEX_POINT('',#763);
#591=LINE('',#764,#765);
#592=VERTEX_POINT('',#767);
#593=CIRCLE('',#768,18.);
#594=VERTEX_POINT('',#772);
#595=LINE('',#773,#774);
#596=VERTEX_POINT('',#776);
#597=LINE('',#777,#778);
#598=VERTEX_POINT('',#780);
#599=LINE('',#781,#782);
#600=VERTEX_POINT('',#784);
#601=LINE('',#785,#786);
#602=VERTEX_POINT('',#788);
#603=LINE('',#789,#790);
#604=VERTEX_POINT('',#792);
#605=LINE('',#793,#794);
#606=VERTEX_POINT('',#796);
#607=LINE('',#797,#798);
#608=VERTEX_POINT('',#800);
#609=CIRCLE('',#801,2.);
#610=CIRCLE('',#805,14.);
#611=VERTEX_POINT('',#809);
#612=(BOUNDED_CURVE()B_SPLINE_CURVE(3,
(#810,#811,#812,#813),
.UNSPECIFIED.,.F.,.F.)B_SPLINE_CURVE_WITH_KNOTS((4,4),
(0.,1.),
.UNSPECIFIED.)CURVE()GEOMETRIC_REPRESENTATION_ITEM()RATIONAL_B_SPLINE_CURVE((1.,
0.980665121203611,0.980665121203611,1.))REPRESENTATION_ITEM(''));
#613=VERTEX_POINT('',#814);
#614=(BOUNDED_CURVE()B_SPLINE_CURVE(3,
(#815,#816,#817,#818),
.UNSPECIFIED.,.F.,.F.)B_SPLINE_CURVE_WITH_KNOTS((4,4),
(0.,1.),
.UNSPECIFIED.)CURVE()GEOMETRIC_REPRESENTATION_ITEM()RATIONAL_B_SPLINE_CURVE((1.,
0.569035593728828,0.569035593728828,1.))REPRESENTATION_ITEM(''));
#615=VERTEX_POINT('',#819);
#616=LINE('',#820,#821);
#617=VERTEX_POINT('',#823);
#618=LINE('',#824,#825);
#619=VERTEX_POINT('',#827);
#620=LINE('',#828,#829);
#621=VERTEX_POINT('',#831);
#622=LINE('',#832,#833);
#623=VERTEX_POINT('',#835);
#624=LINE('',#836,#837);
#625=VERTEX_POINT('',#839);
#626=LINE('',#840,#841);
#627=VERTEX_POINT('',#843);
#628=LINE('',#844,#845);
#629=VERTEX_POINT('',#847);
#630=(BOUNDED_CURVE()B_SPLINE_CURVE(3,
(#848,#849,#850,#851),
.UNSPECIFIED.,.F.,.F.)B_SPLINE_CURVE_WITH_KNOTS((4,4),
(0.,1.),
.UNSPECIFIED.)CURVE()GEOMETRIC_REPRESENTATION_ITEM()RATIONAL_B_SPLINE_CURVE((1.,
0.333333333333333,0.333333333333333,1.))REPRESENTATION_ITEM(''));
#631=VERTEX_POINT('',#852);
#632=LINE('',#853,#854);
#633=VERTEX_POINT('',#856);
#634=LINE('',#857,#858);
#635=VERTEX_POINT('',#860);
#636=LINE('',#861,#862);
#637=VERTEX_POINT('',#864);
#638=LINE('',#865,#866);
#639=VERTEX_POINT('',#868);
#640=LINE('',#869,#870);
#641=VERTEX_POINT('',#872);
#642=LINE('',#873,#874);
#643=VERTEX_POINT('',#876);
#644=LINE('',#877,#878);
#645=VERTEX_POINT('',#880);
#646=(BOUNDED_CURVE()B_SPLINE_CURVE(3,
(#881,#882,#883,#884),
.UNSPECIFIED.,.F.,.F.)B_SPLINE_CURVE_WITH_KNOTS((4,4),
(0.,1.),
.UNSPECIFIED.)CURVE()GEOMETRIC_REPRESENTATION_ITEM()RATIONAL_B_SPLINE_CURVE((1.,
0.569035593728849,0.569035593728849,1.))REPRESENTATION_ITEM(''));
#647=(BOUNDED_CURVE()B_SPLINE_CURVE(3,
(#885,#886,#887,#888),
.UNSPECIFIED.,.F.,.F.)B_SPLINE_CURVE_WITH_KNOTS((4,4),
(0.,1.),
.UNSPECIFIED.)CURVE()GEOMETRIC_REPRESENTATION_ITEM()RATIONAL_B_SPLINE_CURVE((1.,
0.980665121203549,0.980665121203549,1.))REPRESENTATION_ITEM(''));
#648=(BOUNDED_CURVE()B_SPLINE_CURVE(3,
(#889,#890,#891,#892,#893,#894,#895),
.UNSPECIFIED.,.F.,.F.)B_SPLINE_CURVE_WITH_KNOTS((4,3,4),
(0.,0.5,1.),
.UNSPECIFIED.)CURVE()GEOMETRIC_REPRESENTATION_ITEM()RATIONAL_B_SPLINE_CURVE((1.,
0.454393673094417,0.454393673094417,1.,0.454393673094417,0.454393673094417,1.))
REPRESENTATION_ITEM(''));
#649=LINE('',#896,#897);
#650=LINE('',#899,#900);
#651=LINE('',#902,#903);
#652=LINE('',#905,#906);
#653=LINE('',#908,#909);
#654=VERTEX_POINT('',#911);
#655=LINE('',#912,#913);
#656=LINE('',#915,#916);
#657=VERTEX_POINT('',#918);
#658=CIRCLE('',#919,2.55);
#659=VERTEX_POINT('',#923);
#660=CIRCLE('',#924,2.55);
#661=VERTEX_POINT('',#928);
#662=LINE('',#929,#930);
#663=LINE('',#932,#933);
#664=LINE('',#935,#936);
#665=LINE('',#938,#939);
#666=VERTEX_POINT('',#941);
#667=CIRCLE('',#942,2.55);
#668=VERTEX_POINT('',#946);
#669=CIRCLE('',#947,2.55);
#670=LINE('',#951,#952);
#671=LINE('',#954,#955);
#672=LINE('',#957,#958);
#673=LINE('',#960,#961);
#674=LINE('',#963,#964);
#675=VERTEX_POINT('',#966);
#676=LINE('',#967,#968);
#677=LINE('',#970,#971);
#678=VERTEX_POINT('',#973);
#679=CIRCLE('',#974,2.55);
#680=VERTEX_POINT('',#978);
#681=CIRCLE('',#979,2.55);
#682=VERTEX_POINT('',#983);
#683=LINE('',#984,#985);
#684=LINE('',#987,#988);
#685=LINE('',#990,#991);
#686=LINE('',#993,#994);
#687=VERTEX_POINT('',#996);
#688=CIRCLE('',#997,2.55);
#689=VERTEX_POINT('',#1001);
#690=CIRCLE('',#1002,2.55);
#691=LINE('',#1006,#1007);
#692=LINE('',#1009,#1010);
#693=CARTESIAN_POINT('',(-3.94642857142342,22.1485755805701,24.6787500015428));
#694=CARTESIAN_POINT('',(-3.94642857142342,-1.51113760981736E-15,24.6787500015428));
#695=CARTESIAN_POINT('',(-3.94642857142342,22.1485755805701,24.6787500015428));
#696=VECTOR('',#697,1.);
#697=DIRECTION('',(0.,-1.,0.));
#698=CARTESIAN_POINT('',(-4.99999999999918,-1.34241515265562E-15,21.9233031693752));
#699=CARTESIAN_POINT('',(-3.94642857142342,-1.51113760981736E-15,24.6787500015428));
#700=VECTOR('',#701,1.);
#701=DIRECTION('',(-0.357142857144051,5.71940532751206E-17,-0.934049773615402));
#702=CARTESIAN_POINT('',(-4.99999999999918,23.6224192349865,21.9233031693752));
#703=CARTESIAN_POINT('',(-4.99999999999918,-1.34241515265562E-15,21.9233031693752));
#704=VECTOR('',#705,1.);
#705=DIRECTION('',(0.,1.,0.));
#706=CARTESIAN_POINT('',(-3.94642857142342,22.1485755805701,24.6787500015428));
#707=VECTOR('',#708,1.);
#708=DIRECTION('',(-0.319488360207656,0.446933050365758,-0.835570485466416));
#709=CARTESIAN_POINT('',(3.94642857141458,-1.51113760981715E-15,24.6787500015394));
#710=CARTESIAN_POINT('',(3.94642857141458,22.1485755805719,24.6787500015394));
#711=CARTESIAN_POINT('',(3.94642857141458,22.1485755805719,24.6787500015394));
#712=VECTOR('',#713,1.);
#713=DIRECTION('',(-2.00504636623045E-17,-1.,0.));
#714=CARTESIAN_POINT('',(4.99999999998718,23.6224192349865,21.9233031693731));
#715=CARTESIAN_POINT('',(4.99999999998717,23.6224192349865,21.9233031693731));
#716=VECTOR('',#717,1.);
#717=DIRECTION('',(-0.319488360206921,-0.446933050365876,0.835570485466634));
#718=CARTESIAN_POINT('',(4.99999999998718,-1.34241515265549E-15,21.9233031693731));
#719=CARTESIAN_POINT('',(4.99999999998718,-1.34241515265549E-15,21.9233031693731));
#720=VECTOR('',#721,1.);
#721=DIRECTION('',(0.,1.,0.));
#722=CARTESIAN_POINT('',(4.99999999998717,-1.34241515265549E-15,21.9233031693731));
#723=VECTOR('',#724,1.);
#724=DIRECTION('',(-0.357142857143253,-5.71940532751393E-17,0.934049773615707));
#725=AXIS2_PLACEMENT_3D('',#726,#727,#728);
#726=CARTESIAN_POINT('',(-7.98782456177079E-15,-2.14313189850787E-15,35.));
#727=DIRECTION('',(6.84227765783602E-49,-1.,-6.12323399573677E-17));
#728=DIRECTION('',(0.357142857141592,5.71940532751782E-17,-0.934049773616342));
#729=CARTESIAN_POINT('',(10.5,-2.21647583951089E-15,25.7398704112739));
#730=AXIS2_PLACEMENT_3D('',#731,#732,#733);
#731=CARTESIAN_POINT('',(-7.98782456177079E-15,-2.14313189850787E-15,35.));
#732=DIRECTION('',(0.,1.,6.12323399573677E-17));
#733=DIRECTION('',(0.75,4.05013859304396E-17,-0.661437827766148));
#734=CARTESIAN_POINT('',(14.,-2.32900744529741E-15,24.4169947557416));
#735=AXIS2_PLACEMENT_3D('',#736,#737,#738);
#736=CARTESIAN_POINT('',(12.,-1.49510972362084E-15,24.4169947557416));
#737=DIRECTION('',(0.,1.,6.12323399573677E-17));
#738=DIRECTION('',(-0.750000000000001,-4.05013859304395E-17,0.661437827766146));
#739=CARTESIAN_POINT('',(14.,-1.40834381901945E-15,22.9999999999999));
#740=CARTESIAN_POINT('',(14.,-1.40834381901945E-15,22.9999999999999));
#741=VECTOR('',#742,1.);
#742=DIRECTION('',(0.,-6.12323399573677E-17,1.));
#743=CARTESIAN_POINT('',(10.,-9.84113723529487E-16,16.0717967697244));
#744=CARTESIAN_POINT('',(10.,-9.84113723529487E-16,16.0717967697244));
#745=VECTOR('',#746,1.);
#746=DIRECTION('',(0.499999999999999,-5.30287619362454E-17,0.866025403784439));
#747=CARTESIAN_POINT('',(10.,6.12323399573676E-16,-10.));
#748=CARTESIAN_POINT('',(10.,6.12323399573676E-16,-10.));
#749=VECTOR('',#750,1.);
#750=DIRECTION('',(-6.81332727118764E-17,-6.12323399573677E-17,1.));
#751=CARTESIAN_POINT('',(14.,6.12323399573676E-16,-10.));
#752=CARTESIAN_POINT('',(14.,6.12323399573676E-16,-10.));
#753=VECTOR('',#754,1.);
#754=DIRECTION('',(-1.,0.,0.));
#755=CARTESIAN_POINT('',(14.,-9.18485099360515E-16,15.));
#756=CARTESIAN_POINT('',(14.,-9.18485099360515E-16,15.));
#757=VECTOR('',#758,1.);
#758=DIRECTION('',(1.4210854715202E-16,6.12323399573677E-17,-1.));
#759=CARTESIAN_POINT('',(18.,-1.34271519485048E-15,21.9282032302755));
#760=CARTESIAN_POINT('',(18.,-1.34271519485048E-15,21.9282032302755));
#761=VECTOR('',#762,1.);
#762=DIRECTION('',(-0.499999999999999,5.30287619362454E-17,-0.866025403784439));
#763=CARTESIAN_POINT('',(18.,-2.14313189850787E-15,35.));
#764=CARTESIAN_POINT('',(18.,-2.14313189850787E-15,35.));
#765=VECTOR('',#766,1.);
#766=DIRECTION('',(0.,6.12323399573677E-17,-1.));
#767=CARTESIAN_POINT('',(-18.,-2.14313189850787E-15,35.));
#768=AXIS2_PLACEMENT_3D('',#769,#770,#771);
#769=CARTESIAN_POINT('',(-7.98782456177079E-15,-2.14313189850787E-15,35.));
#770=DIRECTION('',(0.,1.,6.12323399573677E-17));
#771=DIRECTION('',(-1.,0.,0.));
#772=CARTESIAN_POINT('',(-18.,-1.34271519485048E-15,21.9282032302755));
#773=CARTESIAN_POINT('',(-18.,-1.34271519485048E-15,21.9282032302755));
#774=VECTOR('',#775,1.);
#775=DIRECTION('',(0.,-6.12323399573677E-17,1.));
#776=CARTESIAN_POINT('',(-14.,-9.18485099360515E-16,15.));
#777=CARTESIAN_POINT('',(-14.,-9.18485099360515E-16,15.));
#778=VECTOR('',#779,1.);
#779=DIRECTION('',(-0.5,-5.30287619362453E-17,0.866025403784439));
#780=CARTESIAN_POINT('',(-14.,6.12323399573677E-16,-10.));
#781=CARTESIAN_POINT('',(-14.,6.12323399573677E-16,-10.));
#782=VECTOR('',#783,1.);
#783=DIRECTION('',(-1.4210854715202E-16,-6.12323399573677E-17,1.));
#784=CARTESIAN_POINT('',(-10.,6.12323399573677E-16,-10.));
#785=CARTESIAN_POINT('',(-10.,6.12323399573677E-16,-10.));
#786=VECTOR('',#787,1.);
#787=DIRECTION('',(-1.,0.,0.));
#788=CARTESIAN_POINT('',(-10.,-9.84113723529409E-16,16.0717967697231));
#789=CARTESIAN_POINT('',(-10.,-9.84113723529409E-16,16.0717967697231));
#790=VECTOR('',#791,1.);
#791=DIRECTION('',(1.36266545423759E-16,6.12323399573677E-17,-1.));
#792=CARTESIAN_POINT('',(-14.0000000000007,-1.40834381901945E-15,22.9999999999999));
#793=CARTESIAN_POINT('',(-14.0000000000007,-1.40834381901945E-15,22.9999999999999));
#794=VECTOR('',#795,1.);
#795=DIRECTION('',(0.5,5.30287619362454E-17,-0.866025403784439));
#796=CARTESIAN_POINT('',(-14.0000000000007,-7.00680342513882E-16,24.4169947557425));
#797=CARTESIAN_POINT('',(-14.0000000000007,-1.49510972362089E-15,24.4169947557425));
#798=VECTOR('',#799,1.);
#799=DIRECTION('',(0.,6.12323399573677E-17,-1.));
#800=CARTESIAN_POINT('',(-10.5000000000006,-7.03796968459144E-16,25.7398704112747));
#801=AXIS2_PLACEMENT_3D('',#802,#803,#804);
#802=CARTESIAN_POINT('',(-12.0000000000007,-1.49510972362089E-15,24.4169947557425));
#803=DIRECTION('',(0.,1.,6.12323399573677E-17));
#804=DIRECTION('',(-1.,0.,0.));
#805=AXIS2_PLACEMENT_3D('',#806,#807,#808);
#806=CARTESIAN_POINT('',(-7.98782456177079E-15,-2.14313189850787E-15,35.));
#807=DIRECTION('',(0.,1.,6.12323399573677E-17));
#808=DIRECTION('',(-0.357142857142739,5.71940532751513E-17,-0.934049773615904));
#809=CARTESIAN_POINT('',(-10.5000000000006,21.5809995474577,25.7398704112747));
#810=CARTESIAN_POINT('',(-4.99999999999836,23.6224192349842,21.9233031693774));
#811=CARTESIAN_POINT('',(-7.12542351001516,23.1877320772427,22.7359791599375));
#812=CARTESIAN_POINT('',(-8.99490300275368,22.4938425787151,24.0332508310978));
#813=CARTESIAN_POINT('',(-10.5000000000006,21.5809995474577,25.7398704112747));
#814=CARTESIAN_POINT('',(-14.0000000000007,22.2885842004168,24.4169947557425));
#815=CARTESIAN_POINT('',(-14.0000000000007,22.2885842004168,24.4169947557425));
#816=CARTESIAN_POINT('',(-14.0000000000007,21.1162195612858,26.6088069071613));
#817=CARTESIAN_POINT('',(-11.9497474683064,20.7017260681094,27.3837295248389));
#818=CARTESIAN_POINT('',(-10.5000000000006,21.5809995474577,25.7398704112747));
#819=CARTESIAN_POINT('',(-14.0000000000007,23.046511627907,22.9999999999999));
#820=CARTESIAN_POINT('',(-14.0000000000007,22.2885842004168,24.4169947557425));
#821=VECTOR('',#822,1.);
#822=DIRECTION('',(0.,0.471652250337161,-0.881784641934692));
#823=CARTESIAN_POINT('',(-10.,26.7522947510783,16.0717967697231));
#824=CARTESIAN_POINT('',(-14.0000000000007,23.046511627907,22.9999999999999));
#825=VECTOR('',#826,1.);
#826=DIRECTION('',(0.453688484056531,0.420317781848389,-0.785811505194813));
#827=CARTESIAN_POINT('',(-10.,30.,10.));
#828=CARTESIAN_POINT('',(-10.,26.7522947510783,16.0717967697231));
#829=VECTOR('',#830,1.);
#830=DIRECTION('',(0.,0.47165225033716,-0.881784641934692));
#831=CARTESIAN_POINT('',(-14.,30.,9.99999999999999));
#832=CARTESIAN_POINT('',(-10.,30.,10.));
#833=VECTOR('',#834,1.);
#834=DIRECTION('',(-1.,0.,0.));
#835=CARTESIAN_POINT('',(-14.,27.3255813953488,15.));
#836=CARTESIAN_POINT('',(-14.,30.,10.));
#837=VECTOR('',#838,1.);
#838=DIRECTION('',(0.,-0.47165225033716,0.881784641934692));
#839=CARTESIAN_POINT('',(-18.,23.6197982721782,21.9282032302755));
#840=CARTESIAN_POINT('',(-14.,27.3255813953488,15.));
#841=VECTOR('',#842,1.);
#842=DIRECTION('',(-0.453688484056531,-0.420317781848388,0.785811505194813));
#843=CARTESIAN_POINT('',(-18.,16.6279069767442,35.));
#844=CARTESIAN_POINT('',(-18.,23.6197982721782,21.9282032302755));
#845=VECTOR('',#846,1.);
#846=DIRECTION('',(0.,-0.471652250337161,0.881784641934692));
#847=CARTESIAN_POINT('',(18.,16.6279069767442,35.));
#848=CARTESIAN_POINT('',(-18.,16.6279069767442,35.));
#849=CARTESIAN_POINT('',(-18.,-2.6279069767442,71.));
#850=CARTESIAN_POINT('',(18.,-2.6279069767442,71.));
#851=CARTESIAN_POINT('',(18.,16.6279069767442,35.));
#852=CARTESIAN_POINT('',(18.,23.6197982721782,21.9282032302755));
#853=CARTESIAN_POINT('',(18.,16.6279069767442,35.));
#854=VECTOR('',#855,1.);
#855=DIRECTION('',(0.,0.471652250337161,-0.881784641934692));
#856=CARTESIAN_POINT('',(14.,27.3255813953488,15.));
#857=CARTESIAN_POINT('',(18.,23.6197982721782,21.9282032302755));
#858=VECTOR('',#859,1.);
#859=DIRECTION('',(-0.453688484056529,0.420317781848389,-0.785811505194814));
#860=CARTESIAN_POINT('',(14.,30.,10.));
#861=CARTESIAN_POINT('',(14.,27.3255813953488,15.));
#862=VECTOR('',#863,1.);
#863=DIRECTION('',(0.,0.471652250337161,-0.881784641934691));
#864=CARTESIAN_POINT('',(10.,30.,10.));
#865=CARTESIAN_POINT('',(14.,30.,10.));
#866=VECTOR('',#867,1.);
#867=DIRECTION('',(-1.,0.,0.));
#868=CARTESIAN_POINT('',(10.,26.7522947510777,16.0717967697244));
#869=CARTESIAN_POINT('',(10.,30.,10.));
#870=VECTOR('',#871,1.);
#871=DIRECTION('',(0.,-0.471652250337161,0.881784641934692));
#872=CARTESIAN_POINT('',(14.,23.046511627907,22.9999999999999));
#873=CARTESIAN_POINT('',(10.,26.7522947510777,16.0717967697244));
#874=VECTOR('',#875,1.);
#875=DIRECTION('',(0.45368848405653,-0.420317781848389,0.785811505194814));
#876=CARTESIAN_POINT('',(14.,22.2885842004173,24.4169947557416));
#877=CARTESIAN_POINT('',(14.,23.046511627907,22.9999999999999));
#878=VECTOR('',#879,1.);
#879=DIRECTION('',(0.,-0.471652250337162,0.881784641934691));
#880=CARTESIAN_POINT('',(10.5,21.5809995474581,25.7398704112739));
#881=CARTESIAN_POINT('',(14.,22.2885842004173,24.4169947557416));
#882=CARTESIAN_POINT('',(14.,21.1162195612863,26.6088069071603));
#883=CARTESIAN_POINT('',(11.9497474683058,20.7017260681099,27.383729524838));
#884=CARTESIAN_POINT('',(10.5,21.5809995474581,25.7398704112739));
#885=CARTESIAN_POINT('',(10.5,21.5809995474581,25.7398704112739));
#886=CARTESIAN_POINT('',(8.99490300275042,22.493842578717,24.0332508310943));
#887=CARTESIAN_POINT('',(7.12542351000819,23.1877320772453,22.7359791599327));
#888=CARTESIAN_POINT('',(4.99999999998718,23.6224192349865,21.9233031693731));
#889=CARTESIAN_POINT('',(3.94642857141458,22.1485755805719,24.6787500015394));
#890=CARTESIAN_POINT('',(18.8375562819997,19.1030733785171,30.3725149879898));
#891=CARTESIAN_POINT('',(15.9425419621224,10.7174418604688,46.0499999999932));
#892=CARTESIAN_POINT('',(4.72859035118574E-12,10.7174418604651,46.05));
#893=CARTESIAN_POINT('',(-15.942541962113,10.7174418604615,46.0500000000068));
#894=CARTESIAN_POINT('',(-18.8375562820036,19.1030733785084,30.372514988006));
#895=CARTESIAN_POINT('',(-3.94642857142343,22.1485755805701,24.6787500015428));
#896=CARTESIAN_POINT('',(-10.5000000000006,5.0555567569041E-16,25.7398704112747));
#897=VECTOR('',#898,1.);
#898=DIRECTION('',(0.,1.,1.64622295227239E-16));
#899=CARTESIAN_POINT('',(10.5,-3.24144703241945E-15,25.7398704112739));
#900=VECTOR('',#901,1.);
#901=DIRECTION('',(0.,1.,0.));
#902=CARTESIAN_POINT('',(14.,-3.41209012091079E-15,24.4169947557416));
#903=VECTOR('',#904,1.);
#904=DIRECTION('',(0.,1.,0.));
#905=CARTESIAN_POINT('',(14.,-1.40834381901945E-15,22.9999999999999));
#906=VECTOR('',#907,1.);
#907=DIRECTION('',(0.,1.,0.));
#908=CARTESIAN_POINT('',(10.,-9.84113723529487E-16,16.0717967697244));
#909=VECTOR('',#910,1.);
#910=DIRECTION('',(0.,1.,0.));
#911=CARTESIAN_POINT('',(10.,30.,-9.99999999999999));
#912=CARTESIAN_POINT('',(10.,30.,-9.99999999999999));
#913=VECTOR('',#914,1.);
#914=DIRECTION('',(-8.88178419700125E-17,0.,1.));
#915=CARTESIAN_POINT('',(10.,6.12323399573676E-16,-10.));
#916=VECTOR('',#917,1.);
#917=DIRECTION('',(0.,1.,5.9211894646675E-17));
#918=CARTESIAN_POINT('',(10.,4.95,2.43509967845122E-15));
#919=AXIS2_PLACEMENT_3D('',#920,#921,#922);
#920=CARTESIAN_POINT('',(10.,7.5,1.77635683940025E-15));
#921=DIRECTION('',(1.,-4.03430016574881E-33,6.81332727118764E-17));
#922=DIRECTION('',(1.37659551352851E-34,-1.,-6.12323399573676E-17));
#923=CARTESIAN_POINT('',(10.,19.95,4.15084315853069E-15));
#924=AXIS2_PLACEMENT_3D('',#925,#926,#927);
#925=CARTESIAN_POINT('',(10.,22.5,3.5527136788005E-15));
#926=DIRECTION('',(1.,-4.03430016574881E-33,6.81332727118764E-17));
#927=DIRECTION('',(1.37659551352846E-34,-1.,-6.12323399573675E-17));
#928=CARTESIAN_POINT('',(14.,30.,-9.99999999999999));
#929=CARTESIAN_POINT('',(14.,30.,-9.99999999999999));
#930=VECTOR('',#931,1.);
#931=DIRECTION('',(-1.,0.,0.));
#932=CARTESIAN_POINT('',(14.,6.12323399573677E-16,-10.));
#933=VECTOR('',#934,1.);
#934=DIRECTION('',(0.,1.,0.));
#935=CARTESIAN_POINT('',(14.,-9.18485099360515E-16,15.));
#936=VECTOR('',#937,1.);
#937=DIRECTION('',(0.,1.,6.50071013567751E-17));
#938=CARTESIAN_POINT('',(14.,30.,10.));
#939=VECTOR('',#940,1.);
#940=DIRECTION('',(1.77635683940025E-16,0.,-1.));
#941=CARTESIAN_POINT('',(14.,4.95,3.0035338670593E-15));
#942=AXIS2_PLACEMENT_3D('',#943,#944,#945);
#943=CARTESIAN_POINT('',(14.,7.5,1.77635683940025E-15));
#944=DIRECTION('',(1.,-8.41451632235746E-33,1.4210854715202E-16));
#945=DIRECTION('',(2.87122547702637E-34,-1.,-6.12323399573676E-17));
#946=CARTESIAN_POINT('',(14.,19.95,4.71927734713877E-15));
#947=AXIS2_PLACEMENT_3D('',#948,#949,#950);
#948=CARTESIAN_POINT('',(14.,22.5,3.5527136788005E-15));
#949=DIRECTION('',(1.,-8.41451632235746E-33,1.4210854715202E-16));
#950=DIRECTION('',(2.87122547702627E-34,-1.,-6.12323399573675E-17));
#951=CARTESIAN_POINT('',(18.,-1.34271519485048E-15,21.9282032302755));
#952=VECTOR('',#953,1.);
#953=DIRECTION('',(0.,1.,-1.50412532650004E-16));
#954=CARTESIAN_POINT('',(18.,-2.14313189850787E-15,35.));
#955=VECTOR('',#956,1.);
#956=DIRECTION('',(0.,1.,0.));
#957=CARTESIAN_POINT('',(-18.,-2.14313189850787E-15,35.));
#958=VECTOR('',#959,1.);
#959=DIRECTION('',(0.,1.,0.));
#960=CARTESIAN_POINT('',(-18.,-1.34271519485048E-15,21.9282032302755));
#961=VECTOR('',#962,1.);
#962=DIRECTION('',(0.,1.,0.));
#963=CARTESIAN_POINT('',(-14.,-9.18485099360515E-16,15.));
#964=VECTOR('',#965,1.);
#965=DIRECTION('',(0.,1.,0.));
#966=CARTESIAN_POINT('',(-14.,30.,-10.));
#967=CARTESIAN_POINT('',(-14.,30.,-10.));
#968=VECTOR('',#969,1.);
#969=DIRECTION('',(-1.77635683940025E-16,0.,1.));
#970=CARTESIAN_POINT('',(-14.,6.12323399573677E-16,-10.));
#971=VECTOR('',#972,1.);
#972=DIRECTION('',(0.,1.,5.9211894646675E-17));
#973=CARTESIAN_POINT('',(-14.,4.95,-1.51889838270782E-15));
#974=AXIS2_PLACEMENT_3D('',#975,#976,#977);
#975=CARTESIAN_POINT('',(-14.,7.5,-1.77635683940025E-15));
#976=DIRECTION('',(1.,-8.41451632235746E-33,1.4210854715202E-16));
#977=DIRECTION('',(2.87122547702637E-34,-1.,-6.12323399573676E-17));
#978=CARTESIAN_POINT('',(-14.,19.95,-6.89076962013321E-17));
#979=AXIS2_PLACEMENT_3D('',#980,#981,#982);
#980=CARTESIAN_POINT('',(-14.,22.5,0.));
#981=DIRECTION('',(1.,-8.41451632235746E-33,1.4210854715202E-16));
#982=DIRECTION('',(2.87122547702627E-34,-1.,-6.12323399573675E-17));
#983=CARTESIAN_POINT('',(-10.,30.,-10.));
#984=CARTESIAN_POINT('',(-10.,30.,-10.));
#985=VECTOR('',#986,1.);
#986=DIRECTION('',(-1.,0.,0.));
#987=CARTESIAN_POINT('',(-10.,6.12323399573677E-16,-10.));
#988=VECTOR('',#989,1.);
#989=DIRECTION('',(0.,1.,1.1842378929335E-16));
#990=CARTESIAN_POINT('',(-10.,-9.84113723529409E-16,16.0717967697231));
#991=VECTOR('',#992,1.);
#992=DIRECTION('',(0.,1.,-1.32800334022086E-16));
#993=CARTESIAN_POINT('',(-10.,30.,10.));
#994=VECTOR('',#995,1.);
#995=DIRECTION('',(1.77635683940025E-16,0.,-1.));
#996=CARTESIAN_POINT('',(-10.,4.95,-1.53949874970684E-15));
#997=AXIS2_PLACEMENT_3D('',#998,#999,#1000);
#998=CARTESIAN_POINT('',(-10.,7.5,0.));
#999=DIRECTION('',(1.,1.3684555315672E-48,1.36266545423759E-16));
#1000=DIRECTION('',(8.34391943420372E-33,-1.,-6.12323399573676E-17));
#1001=CARTESIAN_POINT('',(-10.,19.95,1.76244730372635E-16));
#1002=AXIS2_PLACEMENT_3D('',#1003,#1004,#1005);
#1003=CARTESIAN_POINT('',(-10.,22.5,0.));
#1004=DIRECTION('',(1.,1.3684555315672E-48,1.36266545423759E-16));
#1005=DIRECTION('',(8.34391943420371E-33,-1.,-6.12323399573675E-17));
#1006=CARTESIAN_POINT('',(-14.0000000000007,-1.40834381901945E-15,22.9999999999999));
#1007=VECTOR('',#1008,1.);
#1008=DIRECTION('',(0.,1.,0.));
#1009=CARTESIAN_POINT('',(-14.0000000000007,1.40623557889683E-16,24.4169947557425));
#1010=VECTOR('',#1011,1.);
#1011=DIRECTION('',(1.59396112685079E-16,1.,1.59396112685079E-16));
ENDSEC;
END-ISO-10303-21;
