ISO-10303-21;
HEADER;
FILE_DESCRIPTION(('STEP AP242'),
    '1');
FILE_NAME('ίχεικΰ',
    '',
    ('UNSPECIFIED'),
    ('UNSPECIFIED'),
    'C3D Converter',
    'C3D Toolkit',
    '');
FILE_SCHEMA(('AP242_MANAGED_MODEL_BASED_3D_ENGINEERING_MIM_LF { 1 0 10303 442 1 1 4 }'));
ENDSEC;

DATA;
#1=PRODUCT_DEFINITION('','UNSPECIFIED',#28,#31);
#2=SHAPE_DEFINITION_REPRESENTATION(#26,#3);
#3=SHAPE_REPRESENTATION('NONE',(#4),#8);
#4=AXIS2_PLACEMENT_3D('',#5,#6,#7);
#5=CARTESIAN_POINT('',(0.,0.,0.));
#6=DIRECTION('',(0.,0.,1.));
#7=DIRECTION('',(1.,0.,0.));
#8=(GEOMETRIC_REPRESENTATION_CONTEXT(3)GLOBAL_UNCERTAINTY_ASSIGNED_CONTEXT((#10))
GLOBAL_UNIT_ASSIGNED_CONTEXT((#9,#11,#12))REPRESENTATION_CONTEXT('NONE','NONE'));
#9=(LENGTH_UNIT()NAMED_UNIT(*)SI_UNIT(.MILLI.,.METRE.));
#10=UNCERTAINTY_MEASURE_WITH_UNIT(LENGTH_MEASURE(1.E-5),#9,'NONE','NONE');
#11=(NAMED_UNIT(*)PLANE_ANGLE_UNIT()SI_UNIT($,.RADIAN.));
#12=(NAMED_UNIT(*)SI_UNIT($,.STERADIAN.)SOLID_ANGLE_UNIT());
#13=MANIFOLD_SOLID_BREP('',#14);
#14=CLOSED_SHELL('',(#53,#54,#55,#56,#57,#58,#59,#60,#61,#62,#63,#64,#65,#66,#67,
#68,#69));
#15=COLOUR_RGB('',0.2,0.6,1.);
#16=FILL_AREA_STYLE_COLOUR('',#15);
#17=FILL_AREA_STYLE($,(#16));
#18=SURFACE_STYLE_FILL_AREA(#17);
#19=SURFACE_SIDE_STYLE('',(#18));
#20=SURFACE_STYLE_USAGE(.BOTH.,#19);
#21=PRESENTATION_STYLE_ASSIGNMENT((#20));
#22=MECHANICAL_DESIGN_GEOMETRIC_PRESENTATION_REPRESENTATION('NONE',(#23),#8);
#23=STYLED_ITEM('',(#21),#13);
#24=ADVANCED_BREP_SHAPE_REPRESENTATION('NONE',(#13),#8);
#25=SHAPE_REPRESENTATION_RELATIONSHIP('','',#3,#24);
#26=PRODUCT_DEFINITION_SHAPE('NONE','NONE',#1);
#27=MECHANICAL_CONTEXT('NONE',#32,'mechanical');
#28=PRODUCT_DEFINITION_FORMATION_WITH_SPECIFIED_SOURCE('ANY','UNSPECIFIED',#29,.NOT_KNOWN.);
#29=PRODUCT('','\X2\042F044704350439043A0430\X0\','NONE',(#27));
#30=PRODUCT_RELATED_PRODUCT_CATEGORY('detail','',(#29));
#31=DESIGN_CONTEXT('detailed design',#32,'design');
#32=APPLICATION_CONTEXT('configuration controlled 3d designs of mechanical parts and assemblies');
#33=APPLICATION_PROTOCOL_DEFINITION('international standard','config_control_design',
1994,#32);
#34=CC_DESIGN_DATE_AND_TIME_ASSIGNMENT(#35,#39,(#1));
#35=DATE_AND_TIME(#36,#37);
#36=CALENDAR_DATE(0,1,1);
#37=LOCAL_TIME(0,0,0.,#38);
#38=COORDINATED_UNIVERSAL_TIME_OFFSET(0,0,.AHEAD.);
#39=DATE_TIME_ROLE('creation_date');
#40=CC_DESIGN_APPROVAL(#41,(#1));
#41=APPROVAL(#42,'UNSPECIFIED');
#42=APPROVAL_STATUS('not_yet_approved');
#43=APPROVAL_DATE_TIME(#44,#41);
#44=DATE_AND_TIME(#45,#46);
#45=CALENDAR_DATE(0,1,1);
#46=LOCAL_TIME(0,0,0.,#47);
#47=COORDINATED_UNIVERSAL_TIME_OFFSET(0,0,.AHEAD.);
#48=PERSON('UNSPECIFIED','Admin','UNSPECIFIED',('UNSPECIFIED'),('UNSPECIFIED'),(
'UNSPECIFIED'));
#49=ORGANIZATION('UNSPECIFIED','UNSPECIFIED','UNSPECIFIED');
#50=PERSON_AND_ORGANIZATION(#48,#49);
#51=PERSON_AND_ORGANIZATION_ROLE('creator');
#52=CC_DESIGN_PERSON_AND_ORGANIZATION_ASSIGNMENT(#50,#51,(#28,#1));
#53=ADVANCED_FACE('',(#70,#72),#74,.F.);
#54=ADVANCED_FACE('',(#79),#81,.F.);
#55=ADVANCED_FACE('',(#86),#88,.F.);
#56=ADVANCED_FACE('',(#93),#95,.F.);
#57=ADVANCED_FACE('',(#100),#102,.F.);
#58=ADVANCED_FACE('',(#107),#109,.T.);
#59=ADVANCED_FACE('',(#114),#116,.T.);
#60=ADVANCED_FACE('',(#121),#123,.T.);
#61=ADVANCED_FACE('',(#128),#130,.T.);
#62=ADVANCED_FACE('',(#135),#137,.F.);
#63=ADVANCED_FACE('',(#142,#144),#146,.T.);
#64=ADVANCED_FACE('',(#151,#153),#155,.F.);
#65=ADVANCED_FACE('',(#160),#162,.T.);
#66=ADVANCED_FACE('',(#167),#169,.F.);
#67=ADVANCED_FACE('',(#174),#176,.F.);
#68=ADVANCED_FACE('',(#181),#183,.F.);
#69=ADVANCED_FACE('',(#188),#190,.F.);
#70=FACE_BOUND('',#71,.T.);
#71=EDGE_LOOP('',(#195,#196,#197,#198));
#72=FACE_BOUND('',#73,.T.);
#73=EDGE_LOOP('',(#199,#200,#201,#202,#203,#204,#205,#206));
#74=PLANE('',#75);
#75=AXIS2_PLACEMENT_3D('',#76,#77,#78);
#76=CARTESIAN_POINT('',(0.,0.,0.));
#77=DIRECTION('',(0.,0.,1.));
#78=DIRECTION('',(-1.,1.22464679914735E-16,0.));
#79=FACE_BOUND('',#80,.T.);
#80=EDGE_LOOP('',(#207,#208,#209,#210));
#81=PLANE('',#82);
#82=AXIS2_PLACEMENT_3D('',#83,#84,#85);
#83=CARTESIAN_POINT('',(15.05,-4.05,0.));
#84=DIRECTION('',(1.,0.,0.));
#85=DIRECTION('',(0.,1.,0.));
#86=FACE_BOUND('',#87,.T.);
#87=EDGE_LOOP('',(#211,#212,#213,#214));
#88=PLANE('',#89);
#89=AXIS2_PLACEMENT_3D('',#90,#91,#92);
#90=CARTESIAN_POINT('',(-15.05,-4.05,0.));
#91=DIRECTION('',(-8.85227660830689E-17,-1.,0.));
#92=DIRECTION('',(1.,-8.85227660830689E-17,0.));
#93=FACE_BOUND('',#94,.T.);
#94=EDGE_LOOP('',(#215,#216,#217,#218));
#95=PLANE('',#96);
#96=AXIS2_PLACEMENT_3D('',#97,#98,#99);
#97=CARTESIAN_POINT('',(-15.05,4.05,0.));
#98=DIRECTION('',(-1.,0.,0.));
#99=DIRECTION('',(0.,-1.,0.));
#100=FACE_BOUND('',#101,.T.);
#101=EDGE_LOOP('',(#219,#220,#221,#222));
#102=PLANE('',#103);
#103=AXIS2_PLACEMENT_3D('',#104,#105,#106);
#104=CARTESIAN_POINT('',(15.05,4.05,0.));
#105=DIRECTION('',(1.18030354777425E-16,1.,0.));
#106=DIRECTION('',(-1.,1.18030354777425E-16,0.));
#107=FACE_BOUND('',#108,.T.);
#108=EDGE_LOOP('',(#223,#224,#225,#226));
#109=PLANE('',#110);
#110=AXIS2_PLACEMENT_3D('',#111,#112,#113);
#111=CARTESIAN_POINT('',(30.,-30.,0.));
#112=DIRECTION('',(1.,-1.1842378929335E-16,0.));
#113=DIRECTION('',(1.1842378929335E-16,1.,0.));
#114=FACE_BOUND('',#115,.T.);
#115=EDGE_LOOP('',(#227,#228,#229,#230));
#116=PLANE('',#117);
#117=AXIS2_PLACEMENT_3D('',#118,#119,#120);
#118=CARTESIAN_POINT('',(-30.,-30.,0.));
#119=DIRECTION('',(-2.368475785867E-16,-1.,0.));
#120=DIRECTION('',(1.,-2.368475785867E-16,0.));
#121=FACE_BOUND('',#122,.T.);
#122=EDGE_LOOP('',(#231,#232,#233,#234));
#123=PLANE('',#124);
#124=AXIS2_PLACEMENT_3D('',#125,#126,#127);
#125=CARTESIAN_POINT('',(-30.,30.,0.));
#126=DIRECTION('',(-1.,1.1842378929335E-16,0.));
#127=DIRECTION('',(-1.1842378929335E-16,-1.,0.));
#128=FACE_BOUND('',#129,.T.);
#129=EDGE_LOOP('',(#235,#236,#237,#238));
#130=PLANE('',#131);
#131=AXIS2_PLACEMENT_3D('',#132,#133,#134);
#132=CARTESIAN_POINT('',(30.,30.,0.));
#133=DIRECTION('',(1.1842378929335E-16,1.,0.));
#134=DIRECTION('',(-1.,1.1842378929335E-16,0.));
#135=FACE_BOUND('',#136,.T.);
#136=EDGE_LOOP('',(#239,#240,#241,#242,#243,#244,#245,#246));
#137=PLANE('',#138);
#138=AXIS2_PLACEMENT_3D('',#139,#140,#141);
#139=CARTESIAN_POINT('',(0.,0.,5.2));
#140=DIRECTION('',(0.,0.,1.));
#141=DIRECTION('',(-1.,1.22464679914735E-16,0.));
#142=FACE_BOUND('',#143,.T.);
#143=EDGE_LOOP('',(#247,#248,#249,#250));
#144=FACE_BOUND('',#145,.T.);
#145=EDGE_LOOP('',(#251));
#146=PLANE('',#147);
#147=AXIS2_PLACEMENT_3D('',#148,#149,#150);
#148=CARTESIAN_POINT('',(0.,0.,15.));
#149=DIRECTION('',(0.,0.,1.));
#150=DIRECTION('',(-1.,1.22464679914735E-16,0.));
#151=FACE_OUTER_BOUND('',#152,.T.);
#152=EDGE_LOOP('',(#252));
#153=FACE_OUTER_BOUND('',#154,.T.);
#154=EDGE_LOOP('',(#253));
#155=CYLINDRICAL_SURFACE('',#156,22.);
#156=AXIS2_PLACEMENT_3D('',#157,#158,#159);
#157=CARTESIAN_POINT('',(0.,0.,0.));
#158=DIRECTION('',(0.,0.,1.));
#159=DIRECTION('',(-1.,1.22464679914735E-16,0.));
#160=FACE_BOUND('',#161,.T.);
#161=EDGE_LOOP('',(#254));
#162=PLANE('',#163);
#163=AXIS2_PLACEMENT_3D('',#164,#165,#166);
#164=CARTESIAN_POINT('',(0.,0.,10.));
#165=DIRECTION('',(0.,0.,1.));
#166=DIRECTION('',(-1.,1.22464679914735E-16,0.));
#167=FACE_BOUND('',#168,.T.);
#168=EDGE_LOOP('',(#255,#256,#257,#258));
#169=CYLINDRICAL_SURFACE('',#170,2.);
#170=AXIS2_PLACEMENT_3D('',#171,#172,#173);
#171=CARTESIAN_POINT('',(13.05,-2.05,-8.));
#172=DIRECTION('',(0.,0.,-1.));
#173=DIRECTION('',(1.,0.,0.));
#174=FACE_BOUND('',#175,.T.);
#175=EDGE_LOOP('',(#259,#260,#261,#262));
#176=CYLINDRICAL_SURFACE('',#177,2.);
#177=AXIS2_PLACEMENT_3D('',#178,#179,#180);
#178=CARTESIAN_POINT('',(13.05,2.05,-8.));
#179=DIRECTION('',(0.,0.,-1.));
#180=DIRECTION('',(0.,1.,0.));
#181=FACE_BOUND('',#182,.T.);
#182=EDGE_LOOP('',(#263,#264,#265,#266));
#183=CYLINDRICAL_SURFACE('',#184,2.);
#184=AXIS2_PLACEMENT_3D('',#185,#186,#187);
#185=CARTESIAN_POINT('',(-13.05,-2.05,-8.));
#186=DIRECTION('',(0.,0.,-1.));
#187=DIRECTION('',(0.,-1.,0.));
#188=FACE_BOUND('',#189,.T.);
#189=EDGE_LOOP('',(#267,#268,#269,#270));
#190=CYLINDRICAL_SURFACE('',#191,2.);
#191=AXIS2_PLACEMENT_3D('',#192,#193,#194);
#192=CARTESIAN_POINT('',(-13.05,2.05,-8.));
#193=DIRECTION('',(-1.67580833905684E-16,0.,-1.));
#194=DIRECTION('',(-1.,-2.22044604925032E-16,1.67580833905684E-16));
#195=ORIENTED_EDGE('',*,*,#271,.F.);
#196=ORIENTED_EDGE('',*,*,#272,.F.);
#197=ORIENTED_EDGE('',*,*,#273,.F.);
#198=ORIENTED_EDGE('',*,*,#274,.F.);
#199=ORIENTED_EDGE('',*,*,#275,.F.);
#200=ORIENTED_EDGE('',*,*,#276,.T.);
#201=ORIENTED_EDGE('',*,*,#277,.F.);
#202=ORIENTED_EDGE('',*,*,#278,.T.);
#203=ORIENTED_EDGE('',*,*,#279,.F.);
#204=ORIENTED_EDGE('',*,*,#280,.T.);
#205=ORIENTED_EDGE('',*,*,#281,.F.);
#206=ORIENTED_EDGE('',*,*,#282,.T.);
#207=ORIENTED_EDGE('',*,*,#283,.F.);
#208=ORIENTED_EDGE('',*,*,#280,.F.);
#209=ORIENTED_EDGE('',*,*,#284,.T.);
#210=ORIENTED_EDGE('',*,*,#285,.T.);
#211=ORIENTED_EDGE('',*,*,#286,.T.);
#212=ORIENTED_EDGE('',*,*,#287,.T.);
#213=ORIENTED_EDGE('',*,*,#288,.F.);
#214=ORIENTED_EDGE('',*,*,#278,.F.);
#215=ORIENTED_EDGE('',*,*,#289,.T.);
#216=ORIENTED_EDGE('',*,*,#290,.T.);
#217=ORIENTED_EDGE('',*,*,#291,.F.);
#218=ORIENTED_EDGE('',*,*,#276,.F.);
#219=ORIENTED_EDGE('',*,*,#292,.F.);
#220=ORIENTED_EDGE('',*,*,#282,.F.);
#221=ORIENTED_EDGE('',*,*,#293,.T.);
#222=ORIENTED_EDGE('',*,*,#294,.T.);
#223=ORIENTED_EDGE('',*,*,#295,.F.);
#224=ORIENTED_EDGE('',*,*,#296,.F.);
#225=ORIENTED_EDGE('',*,*,#271,.T.);
#226=ORIENTED_EDGE('',*,*,#297,.T.);
#227=ORIENTED_EDGE('',*,*,#298,.F.);
#228=ORIENTED_EDGE('',*,*,#299,.F.);
#229=ORIENTED_EDGE('',*,*,#272,.T.);
#230=ORIENTED_EDGE('',*,*,#296,.T.);
#231=ORIENTED_EDGE('',*,*,#300,.F.);
#232=ORIENTED_EDGE('',*,*,#301,.F.);
#233=ORIENTED_EDGE('',*,*,#273,.T.);
#234=ORIENTED_EDGE('',*,*,#299,.T.);
#235=ORIENTED_EDGE('',*,*,#302,.F.);
#236=ORIENTED_EDGE('',*,*,#297,.F.);
#237=ORIENTED_EDGE('',*,*,#274,.T.);
#238=ORIENTED_EDGE('',*,*,#301,.T.);
#239=ORIENTED_EDGE('',*,*,#303,.F.);
#240=ORIENTED_EDGE('',*,*,#294,.F.);
#241=ORIENTED_EDGE('',*,*,#304,.F.);
#242=ORIENTED_EDGE('',*,*,#285,.F.);
#243=ORIENTED_EDGE('',*,*,#305,.F.);
#244=ORIENTED_EDGE('',*,*,#287,.F.);
#245=ORIENTED_EDGE('',*,*,#306,.F.);
#246=ORIENTED_EDGE('',*,*,#290,.F.);
#247=ORIENTED_EDGE('',*,*,#302,.T.);
#248=ORIENTED_EDGE('',*,*,#300,.T.);
#249=ORIENTED_EDGE('',*,*,#298,.T.);
#250=ORIENTED_EDGE('',*,*,#295,.T.);
#251=ORIENTED_EDGE('',*,*,#307,.T.);
#252=ORIENTED_EDGE('',*,*,#307,.F.);
#253=ORIENTED_EDGE('',*,*,#308,.T.);
#254=ORIENTED_EDGE('',*,*,#308,.F.);
#255=ORIENTED_EDGE('',*,*,#288,.T.);
#256=ORIENTED_EDGE('',*,*,#305,.T.);
#257=ORIENTED_EDGE('',*,*,#284,.F.);
#258=ORIENTED_EDGE('',*,*,#279,.T.);
#259=ORIENTED_EDGE('',*,*,#283,.T.);
#260=ORIENTED_EDGE('',*,*,#304,.T.);
#261=ORIENTED_EDGE('',*,*,#293,.F.);
#262=ORIENTED_EDGE('',*,*,#281,.T.);
#263=ORIENTED_EDGE('',*,*,#291,.T.);
#264=ORIENTED_EDGE('',*,*,#306,.T.);
#265=ORIENTED_EDGE('',*,*,#286,.F.);
#266=ORIENTED_EDGE('',*,*,#277,.T.);
#267=ORIENTED_EDGE('',*,*,#292,.T.);
#268=ORIENTED_EDGE('',*,*,#303,.T.);
#269=ORIENTED_EDGE('',*,*,#289,.F.);
#270=ORIENTED_EDGE('',*,*,#275,.T.);
#271=EDGE_CURVE('',#309,#310,#311,.T.);
#272=EDGE_CURVE('',#312,#309,#313,.T.);
#273=EDGE_CURVE('',#314,#312,#315,.T.);
#274=EDGE_CURVE('',#310,#314,#316,.T.);
#275=EDGE_CURVE('',#317,#318,#319,.F.);
#276=EDGE_CURVE('',#317,#320,#321,.T.);
#277=EDGE_CURVE('',#322,#320,#323,.F.);
#278=EDGE_CURVE('',#322,#324,#325,.T.);
#279=EDGE_CURVE('',#326,#324,#327,.F.);
#280=EDGE_CURVE('',#326,#328,#329,.T.);
#281=EDGE_CURVE('',#330,#328,#331,.F.);
#282=EDGE_CURVE('',#330,#318,#332,.T.);
#283=EDGE_CURVE('',#328,#333,#334,.T.);
#284=EDGE_CURVE('',#326,#335,#336,.T.);
#285=EDGE_CURVE('',#335,#333,#337,.T.);
#286=EDGE_CURVE('',#322,#338,#339,.T.);
#287=EDGE_CURVE('',#338,#340,#341,.T.);
#288=EDGE_CURVE('',#324,#340,#342,.T.);
#289=EDGE_CURVE('',#317,#343,#344,.T.);
#290=EDGE_CURVE('',#343,#345,#346,.T.);
#291=EDGE_CURVE('',#320,#345,#347,.T.);
#292=EDGE_CURVE('',#318,#348,#349,.T.);
#293=EDGE_CURVE('',#330,#350,#351,.T.);
#294=EDGE_CURVE('',#350,#348,#352,.T.);
#295=EDGE_CURVE('',#353,#354,#355,.T.);
#296=EDGE_CURVE('',#309,#353,#356,.T.);
#297=EDGE_CURVE('',#310,#354,#357,.T.);
#298=EDGE_CURVE('',#358,#353,#359,.T.);
#299=EDGE_CURVE('',#312,#358,#360,.T.);
#300=EDGE_CURVE('',#361,#358,#362,.T.);
#301=EDGE_CURVE('',#314,#361,#363,.T.);
#302=EDGE_CURVE('',#354,#361,#364,.T.);
#303=EDGE_CURVE('',#348,#343,#365,.F.);
#304=EDGE_CURVE('',#333,#350,#366,.F.);
#305=EDGE_CURVE('',#340,#335,#367,.F.);
#306=EDGE_CURVE('',#345,#338,#368,.F.);
#307=EDGE_CURVE('',#369,#369,#370,.F.);
#308=EDGE_CURVE('',#371,#371,#372,.F.);
#309=VERTEX_POINT('',#373);
#310=VERTEX_POINT('',#374);
#311=LINE('',#375,#376);
#312=VERTEX_POINT('',#378);
#313=LINE('',#379,#380);
#314=VERTEX_POINT('',#382);
#315=LINE('',#383,#384);
#316=LINE('',#386,#387);
#317=VERTEX_POINT('',#389);
#318=VERTEX_POINT('',#390);
#319=CIRCLE('',#391,2.);
#320=VERTEX_POINT('',#395);
#321=LINE('',#396,#397);
#322=VERTEX_POINT('',#399);
#323=CIRCLE('',#400,2.);
#324=VERTEX_POINT('',#404);
#325=LINE('',#405,#406);
#326=VERTEX_POINT('',#408);
#327=CIRCLE('',#409,2.);
#328=VERTEX_POINT('',#413);
#329=LINE('',#414,#415);
#330=VERTEX_POINT('',#417);
#331=CIRCLE('',#418,2.);
#332=LINE('',#422,#423);
#333=VERTEX_POINT('',#425);
#334=LINE('',#426,#427);
#335=VERTEX_POINT('',#429);
#336=LINE('',#430,#431);
#337=LINE('',#433,#434);
#338=VERTEX_POINT('',#436);
#339=LINE('',#437,#438);
#340=VERTEX_POINT('',#440);
#341=LINE('',#441,#442);
#342=LINE('',#444,#445);
#343=VERTEX_POINT('',#447);
#344=LINE('',#448,#449);
#345=VERTEX_POINT('',#451);
#346=LINE('',#452,#453);
#347=LINE('',#455,#456);
#348=VERTEX_POINT('',#458);
#349=LINE('',#459,#460);
#350=VERTEX_POINT('',#462);
#351=LINE('',#463,#464);
#352=LINE('',#466,#467);
#353=VERTEX_POINT('',#469);
#354=VERTEX_POINT('',#470);
#355=LINE('',#471,#472);
#356=LINE('',#474,#475);
#357=LINE('',#477,#478);
#358=VERTEX_POINT('',#480);
#359=LINE('',#481,#482);
#360=LINE('',#484,#485);
#361=VERTEX_POINT('',#487);
#362=LINE('',#488,#489);
#363=LINE('',#491,#492);
#364=LINE('',#494,#495);
#365=CIRCLE('',#497,2.);
#366=CIRCLE('',#501,2.);
#367=CIRCLE('',#505,2.);
#368=CIRCLE('',#509,2.);
#369=VERTEX_POINT('',#513);
#370=CIRCLE('',#514,22.);
#371=VERTEX_POINT('',#518);
#372=CIRCLE('',#519,22.);
#373=CARTESIAN_POINT('',(30.,-30.,0.));
#374=CARTESIAN_POINT('',(30.,30.,0.));
#375=CARTESIAN_POINT('',(30.,-30.,0.));
#376=VECTOR('',#377,1.);
#377=DIRECTION('',(1.1842378929335E-16,1.,0.));
#378=CARTESIAN_POINT('',(-30.,-30.,0.));
#379=CARTESIAN_POINT('',(-30.,-30.,0.));
#380=VECTOR('',#381,1.);
#381=DIRECTION('',(1.,-2.368475785867E-16,0.));
#382=CARTESIAN_POINT('',(-30.,30.,0.));
#383=CARTESIAN_POINT('',(-30.,30.,0.));
#384=VECTOR('',#385,1.);
#385=DIRECTION('',(-1.1842378929335E-16,-1.,0.));
#386=CARTESIAN_POINT('',(30.,30.,0.));
#387=VECTOR('',#388,1.);
#388=DIRECTION('',(-1.,1.1842378929335E-16,0.));
#389=CARTESIAN_POINT('',(-15.05,2.05,0.));
#390=CARTESIAN_POINT('',(-13.05,4.05,0.));
#391=AXIS2_PLACEMENT_3D('',#392,#393,#394);
#392=CARTESIAN_POINT('',(-13.05,2.05,0.));
#393=DIRECTION('',(0.,0.,1.));
#394=DIRECTION('',(-6.21724893790088E-15,1.,0.));
#395=CARTESIAN_POINT('',(-15.05,-2.05,0.));
#396=CARTESIAN_POINT('',(-15.05,2.05,0.));
#397=VECTOR('',#398,1.);
#398=DIRECTION('',(0.,-1.,0.));
#399=CARTESIAN_POINT('',(-13.05,-4.05,0.));
#400=AXIS2_PLACEMENT_3D('',#401,#402,#403);
#401=CARTESIAN_POINT('',(-13.05,-2.05,0.));
#402=DIRECTION('',(0.,0.,1.));
#403=DIRECTION('',(-1.,2.22044604925031E-16,0.));
#404=CARTESIAN_POINT('',(13.05,-4.05,0.));
#405=CARTESIAN_POINT('',(-13.05,-4.05,0.));
#406=VECTOR('',#407,1.);
#407=DIRECTION('',(1.,-1.0208947352875E-16,0.));
#408=CARTESIAN_POINT('',(15.05,-2.05,0.));
#409=AXIS2_PLACEMENT_3D('',#410,#411,#412);
#410=CARTESIAN_POINT('',(13.05,-2.05,0.));
#411=DIRECTION('',(0.,0.,1.));
#412=DIRECTION('',(2.66453525910038E-15,-1.,0.));
#413=CARTESIAN_POINT('',(15.05,2.05,0.));
#414=CARTESIAN_POINT('',(15.05,-2.05,0.));
#415=VECTOR('',#416,1.);
#416=DIRECTION('',(0.,1.,0.));
#417=CARTESIAN_POINT('',(13.05,4.05,0.));
#418=AXIS2_PLACEMENT_3D('',#419,#420,#421);
#419=CARTESIAN_POINT('',(13.05,2.05,0.));
#420=DIRECTION('',(0.,0.,1.));
#421=DIRECTION('',(1.,-8.88178419700125E-16,0.));
#422=CARTESIAN_POINT('',(13.05,4.05,0.));
#423=VECTOR('',#424,1.);
#424=DIRECTION('',(-1.,1.36119298038333E-16,0.));
#425=CARTESIAN_POINT('',(15.05,2.05,5.2));
#426=CARTESIAN_POINT('',(15.05,2.05,0.));
#427=VECTOR('',#428,1.);
#428=DIRECTION('',(0.,0.,1.));
#429=CARTESIAN_POINT('',(15.05,-2.05,5.2));
#430=CARTESIAN_POINT('',(15.05,-2.05,0.));
#431=VECTOR('',#432,1.);
#432=DIRECTION('',(0.,0.,1.));
#433=CARTESIAN_POINT('',(15.05,-2.05,5.2));
#434=VECTOR('',#435,1.);
#435=DIRECTION('',(0.,1.,0.));
#436=CARTESIAN_POINT('',(-13.05,-4.05,5.2));
#437=CARTESIAN_POINT('',(-13.05,-4.05,0.));
#438=VECTOR('',#439,1.);
#439=DIRECTION('',(0.,0.,1.));
#440=CARTESIAN_POINT('',(13.05,-4.05,5.2));
#441=CARTESIAN_POINT('',(-13.05,-4.05,5.2));
#442=VECTOR('',#443,1.);
#443=DIRECTION('',(1.,-1.0208947352875E-16,0.));
#444=CARTESIAN_POINT('',(13.05,-4.05,0.));
#445=VECTOR('',#446,1.);
#446=DIRECTION('',(0.,0.,1.));
#447=CARTESIAN_POINT('',(-15.05,2.05,5.2));
#448=CARTESIAN_POINT('',(-15.05,2.05,0.));
#449=VECTOR('',#450,1.);
#450=DIRECTION('',(0.,8.5401771125012E-17,1.));
#451=CARTESIAN_POINT('',(-15.05,-2.05,5.2));
#452=CARTESIAN_POINT('',(-15.05,2.05,5.2));
#453=VECTOR('',#454,1.);
#454=DIRECTION('',(0.,-1.,0.));
#455=CARTESIAN_POINT('',(-15.05,-2.05,0.));
#456=VECTOR('',#457,1.);
#457=DIRECTION('',(0.,0.,1.));
#458=CARTESIAN_POINT('',(-13.05,4.05,5.2));
#459=CARTESIAN_POINT('',(-13.05,4.05,0.));
#460=VECTOR('',#461,1.);
#461=DIRECTION('',(3.41607084500048E-16,0.,1.));
#462=CARTESIAN_POINT('',(13.05,4.05,5.2));
#463=CARTESIAN_POINT('',(13.05,4.05,0.));
#464=VECTOR('',#465,1.);
#465=DIRECTION('',(0.,0.,1.));
#466=CARTESIAN_POINT('',(13.05,4.05,5.2));
#467=VECTOR('',#468,1.);
#468=DIRECTION('',(-1.,1.36119298038333E-16,-3.40298245095833E-17));
#469=CARTESIAN_POINT('',(30.,-30.,15.));
#470=CARTESIAN_POINT('',(30.,30.,15.));
#471=CARTESIAN_POINT('',(30.,-30.,15.));
#472=VECTOR('',#473,1.);
#473=DIRECTION('',(1.1842378929335E-16,1.,0.));
#474=CARTESIAN_POINT('',(30.,-30.,0.));
#475=VECTOR('',#476,1.);
#476=DIRECTION('',(0.,0.,1.));
#477=CARTESIAN_POINT('',(30.,30.,0.));
#478=VECTOR('',#479,1.);
#479=DIRECTION('',(0.,0.,1.));
#480=CARTESIAN_POINT('',(-30.,-30.,15.));
#481=CARTESIAN_POINT('',(-30.,-30.,15.));
#482=VECTOR('',#483,1.);
#483=DIRECTION('',(1.,-2.368475785867E-16,0.));
#484=CARTESIAN_POINT('',(-30.,-30.,0.));
#485=VECTOR('',#486,1.);
#486=DIRECTION('',(0.,0.,1.));
#487=CARTESIAN_POINT('',(-30.,30.,15.));
#488=CARTESIAN_POINT('',(-30.,30.,15.));
#489=VECTOR('',#490,1.);
#490=DIRECTION('',(-1.1842378929335E-16,-1.,0.));
#491=CARTESIAN_POINT('',(-30.,30.,0.));
#492=VECTOR('',#493,1.);
#493=DIRECTION('',(0.,0.,1.));
#494=CARTESIAN_POINT('',(30.,30.,15.));
#495=VECTOR('',#496,1.);
#496=DIRECTION('',(-1.,1.1842378929335E-16,0.));
#497=AXIS2_PLACEMENT_3D('',#498,#499,#500);
#498=CARTESIAN_POINT('',(-13.05,2.05,5.2));
#499=DIRECTION('',(0.,0.,-1.));
#500=DIRECTION('',(-1.,0.,0.));
#501=AXIS2_PLACEMENT_3D('',#502,#503,#504);
#502=CARTESIAN_POINT('',(13.05,2.05,5.2));
#503=DIRECTION('',(0.,0.,-1.));
#504=DIRECTION('',(0.,1.,0.));
#505=AXIS2_PLACEMENT_3D('',#506,#507,#508);
#506=CARTESIAN_POINT('',(13.05,-2.05,5.2));
#507=DIRECTION('',(0.,0.,-1.));
#508=DIRECTION('',(1.,-2.22044604925031E-16,0.));
#509=AXIS2_PLACEMENT_3D('',#510,#511,#512);
#510=CARTESIAN_POINT('',(-13.05,-2.05,5.2));
#511=DIRECTION('',(0.,0.,-1.));
#512=DIRECTION('',(0.,-1.,0.));
#513=CARTESIAN_POINT('',(-22.,5.38844591624835E-15,15.));
#514=AXIS2_PLACEMENT_3D('',#515,#516,#517);
#515=CARTESIAN_POINT('',(0.,0.,15.));
#516=DIRECTION('',(0.,0.,1.));
#517=DIRECTION('',(-1.,1.22464679914735E-16,0.));
#518=CARTESIAN_POINT('',(-22.,5.38844591624835E-15,10.));
#519=AXIS2_PLACEMENT_3D('',#520,#521,#522);
#520=CARTESIAN_POINT('',(0.,0.,10.));
#521=DIRECTION('',(0.,0.,1.));
#522=DIRECTION('',(-1.,1.22464679914735E-16,0.));
ENDSEC;
END-ISO-10303-21;
