  0
SECTION
  2
HEADER
  9
$ANGBASE
  50
0.0
  9
$ANGDIR
  70
1
  9
$MEASUREMENT
  70
1
  0
ENDSEC
  0
SECTION
  2
TABLES
  0
TABLE
  2
LTYPE
  70
4
  0
LTYPE
  5
40F
  2
CONTINUOUS
  70
0
  3
Solid line
  72
65
  73
0
  40
0.0
  0
LTYPE
  5
410
  2
DASHDOT
 70
0
  3
Dash Dot ____ _ ____ _
 72
65
 73
4
 40
2.0
 49
1.25
 49
-0.25
 49
0.25
 49
-0.25
  0
LTYPE
  5
411
  2
DASHED
 70
0
  3
Dashed __ __ __ __ __
 72
65
 73
2
 40
0.75
 49
0.5
 49
-0.25
  0
LTYPE
  5
43B
  2
DOTTED
 70
0
  3
Dotted .  .  .  .
 72
65
 73
2
 40
0.2
 49
0.0
 49
-0.2
  0
ENDTAB
  0
TABLE
  2
STYLE
  70
4
  0
STYLE
  2
KICAD
  70
0
  40
0
  41
1
  42
1
  50
0
  71
0
  3
isocp.shx
  0
STYLE
  2
KICADB
  70
0
  40
0
  41
1
  42
1
  50
0
  71
0
  3
isocp.shx
  0
STYLE
  2
KICADI
  70
0
  40
0
  41
1
  42
1
  50
15
  71
0
  3
isocp.shx
  0
STYLE
  2
KICADBI
  70
0
  40
0
  41
1
  42
1
  50
15
  71
0
  3
isocp.shx
  0
ENDTAB
  0
TABLE
  2
LAYER
  70
1
  0
LAYER
  2
BLACK
  70
0
  62
7
  6
CONTINUOUS
  0
ENDTAB
  0
ENDSEC
  0
SECTION
  2
ENTITIES
0
LINE
8
BLACK
6
CONTINUOUS
10
80.7425
20
5.03092
11
80.979
21
4.97414
0
LINE
8
BLACK
6
CONTINUOUS
10
80.979
20
4.97414
11
81.2037
21
4.88106
0
LINE
8
BLACK
6
CONTINUOUS
10
81.2037
20
4.88106
11
81.4111
21
4.75398
0
LINE
8
BLACK
6
CONTINUOUS
10
81.4111
20
4.75398
11
81.596
21
4.59602
0
LINE
8
BLACK
6
CONTINUOUS
10
81.596
20
4.59602
11
81.754
21
4.41107
0
LINE
8
BLACK
6
CONTINUOUS
10
81.754
20
4.41107
11
81.8811
21
4.20369
0
LINE
8
BLACK
6
CONTINUOUS
10
81.8811
20
4.20369
11
81.9741
21
3.97898
0
LINE
8
BLACK
6
CONTINUOUS
10
81.9741
20
3.97898
11
82.0309
21
3.74247
0
LINE
8
BLACK
6
CONTINUOUS
10
82.0309
20
3.74247
11
82.05
21
3.5
0
LINE
8
BLACK
6
CONTINUOUS
10
82.05
20
3.5
11
82.0309
21
3.25753
0
LINE
8
BLACK
6
CONTINUOUS
10
82.0309
20
3.25753
11
81.9741
21
3.02102
0
LINE
8
BLACK
6
CONTINUOUS
10
81.9741
20
3.02102
11
81.8811
21
2.79631
0
LINE
8
BLACK
6
CONTINUOUS
10
81.8811
20
2.79631
11
81.754
21
2.58893
0
LINE
8
BLACK
6
CONTINUOUS
10
81.754
20
2.58893
11
81.596
21
2.40398
0
LINE
8
BLACK
6
CONTINUOUS
10
81.596
20
2.40398
11
81.4111
21
2.24602
0
LINE
8
BLACK
6
CONTINUOUS
10
81.4111
20
2.24602
11
81.2037
21
2.11894
0
LINE
8
BLACK
6
CONTINUOUS
10
81.2037
20
2.11894
11
80.979
21
2.02586
0
LINE
8
BLACK
6
CONTINUOUS
10
80.979
20
2.02586
11
80.7425
21
1.96908
0
LINE
8
BLACK
6
CONTINUOUS
10
80.7425
20
1.96908
11
80.5
21
1.95
0
LINE
8
BLACK
6
CONTINUOUS
10
80.5
20
1.95
11
80.2575
21
1.96908
0
LINE
8
BLACK
6
CONTINUOUS
10
80.2575
20
1.96908
11
80.021
21
2.02586
0
LINE
8
BLACK
6
CONTINUOUS
10
80.021
20
2.02586
11
79.7963
21
2.11894
0
LINE
8
BLACK
6
CONTINUOUS
10
79.7963
20
2.11894
11
79.5889
21
2.24602
0
LINE
8
BLACK
6
CONTINUOUS
10
79.5889
20
2.24602
11
79.404
21
2.40398
0
LINE
8
BLACK
6
CONTINUOUS
10
79.404
20
2.40398
11
79.246
21
2.58893
0
LINE
8
BLACK
6
CONTINUOUS
10
79.246
20
2.58893
11
79.1189
21
2.79631
0
LINE
8
BLACK
6
CONTINUOUS
10
79.1189
20
2.79631
11
79.0259
21
3.02102
0
LINE
8
BLACK
6
CONTINUOUS
10
79.0259
20
3.02102
11
78.9691
21
3.25753
0
LINE
8
BLACK
6
CONTINUOUS
10
78.9691
20
3.25753
11
78.95
21
3.5
0
LINE
8
BLACK
6
CONTINUOUS
10
78.95
20
3.5
11
78.9691
21
3.74247
0
LINE
8
BLACK
6
CONTINUOUS
10
78.9691
20
3.74247
11
79.0259
21
3.97898
0
LINE
8
BLACK
6
CONTINUOUS
10
79.0259
20
3.97898
11
79.1189
21
4.20369
0
LINE
8
BLACK
6
CONTINUOUS
10
79.1189
20
4.20369
11
79.246
21
4.41107
0
LINE
8
BLACK
6
CONTINUOUS
10
79.246
20
4.41107
11
79.404
21
4.59602
0
LINE
8
BLACK
6
CONTINUOUS
10
79.404
20
4.59602
11
79.5889
21
4.75398
0
LINE
8
BLACK
6
CONTINUOUS
10
79.5889
20
4.75398
11
79.7963
21
4.88106
0
LINE
8
BLACK
6
CONTINUOUS
10
79.7963
20
4.88106
11
80.021
21
4.97414
0
LINE
8
BLACK
6
CONTINUOUS
10
80.021
20
4.97414
11
80.2575
21
5.03092
0
LINE
8
BLACK
6
CONTINUOUS
10
80.2575
20
5.03092
11
80.5
21
5.05
0
LINE
8
BLACK
6
CONTINUOUS
10
80.5
20
5.05
11
80.7425
21
5.03092
0
LINE
8
BLACK
6
CONTINUOUS
10
3.74247
20
5.03092
11
3.97898
21
4.97414
0
LINE
8
BLACK
6
CONTINUOUS
10
3.97898
20
4.97414
11
4.20369
21
4.88106
0
LINE
8
BLACK
6
CONTINUOUS
10
4.20369
20
4.88106
11
4.41107
21
4.75398
0
LINE
8
BLACK
6
CONTINUOUS
10
4.41107
20
4.75398
11
4.59602
21
4.59602
0
LINE
8
BLACK
6
CONTINUOUS
10
4.59602
20
4.59602
11
4.75398
21
4.41107
0
LINE
8
BLACK
6
CONTINUOUS
10
4.75398
20
4.41107
11
4.88106
21
4.20369
0
LINE
8
BLACK
6
CONTINUOUS
10
4.88106
20
4.20369
11
4.97414
21
3.97898
0
LINE
8
BLACK
6
CONTINUOUS
10
4.97414
20
3.97898
11
5.03092
21
3.74247
0
LINE
8
BLACK
6
CONTINUOUS
10
5.03092
20
3.74247
11
5.05
21
3.5
0
LINE
8
BLACK
6
CONTINUOUS
10
5.05
20
3.5
11
5.03092
21
3.25753
0
LINE
8
BLACK
6
CONTINUOUS
10
5.03092
20
3.25753
11
4.97414
21
3.02102
0
LINE
8
BLACK
6
CONTINUOUS
10
4.97414
20
3.02102
11
4.88106
21
2.79631
0
LINE
8
BLACK
6
CONTINUOUS
10
4.88106
20
2.79631
11
4.75398
21
2.58893
0
LINE
8
BLACK
6
CONTINUOUS
10
4.75398
20
2.58893
11
4.59602
21
2.40398
0
LINE
8
BLACK
6
CONTINUOUS
10
4.59602
20
2.40398
11
4.41107
21
2.24602
0
LINE
8
BLACK
6
CONTINUOUS
10
4.41107
20
2.24602
11
4.20369
21
2.11894
0
LINE
8
BLACK
6
CONTINUOUS
10
4.20369
20
2.11894
11
3.97898
21
2.02586
0
LINE
8
BLACK
6
CONTINUOUS
10
3.97898
20
2.02586
11
3.74247
21
1.96908
0
LINE
8
BLACK
6
CONTINUOUS
10
3.74247
20
1.96908
11
3.5
21
1.95
0
LINE
8
BLACK
6
CONTINUOUS
10
3.5
20
1.95
11
3.25753
21
1.96908
0
LINE
8
BLACK
6
CONTINUOUS
10
3.25753
20
1.96908
11
3.02102
21
2.02586
0
LINE
8
BLACK
6
CONTINUOUS
10
3.02102
20
2.02586
11
2.79631
21
2.11894
0
LINE
8
BLACK
6
CONTINUOUS
10
2.79631
20
2.11894
11
2.58893
21
2.24602
0
LINE
8
BLACK
6
CONTINUOUS
10
2.58893
20
2.24602
11
2.40398
21
2.40398
0
LINE
8
BLACK
6
CONTINUOUS
10
2.40398
20
2.40398
11
2.24602
21
2.58893
0
LINE
8
BLACK
6
CONTINUOUS
10
2.24602
20
2.58893
11
2.11894
21
2.79631
0
LINE
8
BLACK
6
CONTINUOUS
10
2.11894
20
2.79631
11
2.02586
21
3.02102
0
LINE
8
BLACK
6
CONTINUOUS
10
2.02586
20
3.02102
11
1.96908
21
3.25753
0
LINE
8
BLACK
6
CONTINUOUS
10
1.96908
20
3.25753
11
1.95
21
3.5
0
LINE
8
BLACK
6
CONTINUOUS
10
1.95
20
3.5
11
1.96908
21
3.74247
0
LINE
8
BLACK
6
CONTINUOUS
10
1.96908
20
3.74247
11
2.02586
21
3.97898
0
LINE
8
BLACK
6
CONTINUOUS
10
2.02586
20
3.97898
11
2.11894
21
4.20369
0
LINE
8
BLACK
6
CONTINUOUS
10
2.11894
20
4.20369
11
2.24602
21
4.41107
0
LINE
8
BLACK
6
CONTINUOUS
10
2.24602
20
4.41107
11
2.40398
21
4.59602
0
LINE
8
BLACK
6
CONTINUOUS
10
2.40398
20
4.59602
11
2.58893
21
4.75398
0
LINE
8
BLACK
6
CONTINUOUS
10
2.58893
20
4.75398
11
2.79631
21
4.88106
0
LINE
8
BLACK
6
CONTINUOUS
10
2.79631
20
4.88106
11
3.02102
21
4.97414
0
LINE
8
BLACK
6
CONTINUOUS
10
3.02102
20
4.97414
11
3.25753
21
5.03092
0
LINE
8
BLACK
6
CONTINUOUS
10
3.25753
20
5.03092
11
3.5
21
5.05
0
LINE
8
BLACK
6
CONTINUOUS
10
3.5
20
5.05
11
3.74247
21
5.03092
0
LINE
8
BLACK
6
CONTINUOUS
10
81.35
20
17.15
11
76.35
21
17.15
0
LINE
8
BLACK
6
CONTINUOUS
10
76.35
20
17.15
11
76.35
21
18.4
0
LINE
8
BLACK
6
CONTINUOUS
10
76.35
20
18.4
11
63.8171
21
18.4
0
LINE
8
BLACK
6
CONTINUOUS
10
63.8171
20
18.4
11
50.91
21
5.49289
0
LINE
8
BLACK
6
CONTINUOUS
10
50.91
20
5.49289
11
50.91
21
3.2
0
LINE
8
BLACK
6
CONTINUOUS
10
50.91
20
3.2
11
47.91
21
3.2
0
LINE
8
BLACK
6
CONTINUOUS
10
47.91
20
3.2
11
47.91
21
6.2
0
LINE
8
BLACK
6
CONTINUOUS
10
47.91
20
6.2
11
50.2029
21
6.2
0
LINE
8
BLACK
6
CONTINUOUS
10
50.2029
20
6.2
11
63.2564
21
19.2536
0
LINE
8
BLACK
6
CONTINUOUS
10
63.2564
20
19.2536
11
63.2993
21
19.2856
0
LINE
8
BLACK
6
CONTINUOUS
10
63.2993
20
19.2856
11
63.3397
21
19.3206
0
LINE
8
BLACK
6
CONTINUOUS
10
63.3397
20
19.3206
11
63.356
21
19.3281
0
LINE
8
BLACK
6
CONTINUOUS
10
63.356
20
19.3281
11
63.3704
21
19.3388
0
LINE
8
BLACK
6
CONTINUOUS
10
63.3704
20
19.3388
11
63.4205
21
19.3575
0
LINE
8
BLACK
6
CONTINUOUS
10
63.4205
20
19.3575
11
63.4691
21
19.3797
0
LINE
8
BLACK
6
CONTINUOUS
10
63.4691
20
19.3797
11
63.4869
21
19.3823
0
LINE
8
BLACK
6
CONTINUOUS
10
63.4869
20
19.3823
11
63.5037
21
19.3886
0
LINE
8
BLACK
6
CONTINUOUS
10
63.5037
20
19.3886
11
63.5571
21
19.3924
0
LINE
8
BLACK
6
CONTINUOUS
10
63.5571
20
19.3924
11
63.61
21
19.4
0
LINE
8
BLACK
6
CONTINUOUS
10
63.61
20
19.4
11
76.35
21
19.4
0
LINE
8
BLACK
6
CONTINUOUS
10
76.35
20
19.4
11
76.35
21
20.65
0
LINE
8
BLACK
6
CONTINUOUS
10
76.35
20
20.65
11
81.35
21
20.65
0
LINE
8
BLACK
6
CONTINUOUS
10
81.35
20
20.65
11
81.35
21
17.15
0
LINE
8
BLACK
6
CONTINUOUS
10
81.35
20
10.7
11
76.6071
21
10.7
0
LINE
8
BLACK
6
CONTINUOUS
10
76.6071
20
10.7
11
71.2503
21
5.34315
0
LINE
8
BLACK
6
CONTINUOUS
10
71.2503
20
5.34315
11
71.3187
21
5.18705
0
LINE
8
BLACK
6
CONTINUOUS
10
71.3187
20
5.18705
11
71.3795
21
4.94689
0
LINE
8
BLACK
6
CONTINUOUS
10
71.3795
20
4.94689
11
71.4
21
4.7
0
LINE
8
BLACK
6
CONTINUOUS
10
71.4
20
4.7
11
71.3795
21
4.45311
0
LINE
8
BLACK
6
CONTINUOUS
10
71.3795
20
4.45311
11
71.3187
21
4.21295
0
LINE
8
BLACK
6
CONTINUOUS
10
71.3187
20
4.21295
11
71.2192
21
3.98608
0
LINE
8
BLACK
6
CONTINUOUS
10
71.2192
20
3.98608
11
71.0837
21
3.77868
0
LINE
8
BLACK
6
CONTINUOUS
10
71.0837
20
3.77868
11
70.9159
21
3.59641
0
LINE
8
BLACK
6
CONTINUOUS
10
70.9159
20
3.59641
11
70.7204
21
3.44425
0
LINE
8
BLACK
6
CONTINUOUS
10
70.7204
20
3.44425
11
70.5025
21
3.32634
0
LINE
8
BLACK
6
CONTINUOUS
10
70.5025
20
3.32634
11
70.2682
21
3.2459
0
LINE
8
BLACK
6
CONTINUOUS
10
70.2682
20
3.2459
11
70.0239
21
3.20512
0
LINE
8
BLACK
6
CONTINUOUS
10
70.0239
20
3.20512
11
69.7761
21
3.20512
0
LINE
8
BLACK
6
CONTINUOUS
10
69.7761
20
3.20512
11
69.5318
21
3.2459
0
LINE
8
BLACK
6
CONTINUOUS
10
69.5318
20
3.2459
11
69.2975
21
3.32634
0
LINE
8
BLACK
6
CONTINUOUS
10
69.2975
20
3.32634
11
69.0796
21
3.44425
0
LINE
8
BLACK
6
CONTINUOUS
10
69.0796
20
3.44425
11
68.8841
21
3.59641
0
LINE
8
BLACK
6
CONTINUOUS
10
68.8841
20
3.59641
11
68.7163
21
3.77868
0
LINE
8
BLACK
6
CONTINUOUS
10
68.7163
20
3.77868
11
68.5808
21
3.98608
0
LINE
8
BLACK
6
CONTINUOUS
10
68.5808
20
3.98608
11
68.4813
21
4.21295
0
LINE
8
BLACK
6
CONTINUOUS
10
68.4813
20
4.21295
11
68.4205
21
4.45311
0
LINE
8
BLACK
6
CONTINUOUS
10
68.4205
20
4.45311
11
68.4
21
4.7
0
LINE
8
BLACK
6
CONTINUOUS
10
68.4
20
4.7
11
68.4205
21
4.94689
0
LINE
8
BLACK
6
CONTINUOUS
10
68.4205
20
4.94689
11
68.4813
21
5.18705
0
LINE
8
BLACK
6
CONTINUOUS
10
68.4813
20
5.18705
11
68.5808
21
5.41392
0
LINE
8
BLACK
6
CONTINUOUS
10
68.5808
20
5.41392
11
68.7163
21
5.62132
0
LINE
8
BLACK
6
CONTINUOUS
10
68.7163
20
5.62132
11
68.8841
21
5.80359
0
LINE
8
BLACK
6
CONTINUOUS
10
68.8841
20
5.80359
11
69.0796
21
5.95575
0
LINE
8
BLACK
6
CONTINUOUS
10
69.0796
20
5.95575
11
69.2975
21
6.07366
0
LINE
8
BLACK
6
CONTINUOUS
10
69.2975
20
6.07366
11
69.5318
21
6.1541
0
LINE
8
BLACK
6
CONTINUOUS
10
69.5318
20
6.1541
11
69.7761
21
6.19488
0
LINE
8
BLACK
6
CONTINUOUS
10
69.7761
20
6.19488
11
70.0239
21
6.19488
0
LINE
8
BLACK
6
CONTINUOUS
10
70.0239
20
6.19488
11
70.2682
21
6.1541
0
LINE
8
BLACK
6
CONTINUOUS
10
70.2682
20
6.1541
11
70.5025
21
6.07366
0
LINE
8
BLACK
6
CONTINUOUS
10
70.5025
20
6.07366
11
70.5441
21
6.05118
0
LINE
8
BLACK
6
CONTINUOUS
10
70.5441
20
6.05118
11
76.35
21
11.8571
0
LINE
8
BLACK
6
CONTINUOUS
10
76.35
20
11.8571
11
76.35
21
14.2
0
LINE
8
BLACK
6
CONTINUOUS
10
76.35
20
14.2
11
81.35
21
14.2
0
LINE
8
BLACK
6
CONTINUOUS
10
81.35
20
14.2
11
81.35
21
10.7
0
LINE
8
BLACK
6
CONTINUOUS
10
43.9
20
5.16
11
42.2
21
5.16
0
LINE
8
BLACK
6
CONTINUOUS
10
42.2
20
5.16
11
42.2
21
6.86
0
LINE
8
BLACK
6
CONTINUOUS
10
42.2
20
6.86
11
43.9
21
6.86
0
LINE
8
BLACK
6
CONTINUOUS
10
43.9
20
6.86
11
43.9
21
5.16
0
LINE
8
BLACK
6
CONTINUOUS
10
50.35
20
17.2
11
49.8571
21
17.2
0
LINE
8
BLACK
6
CONTINUOUS
10
49.8571
20
17.2
11
50.1036
21
16.9536
0
LINE
8
BLACK
6
CONTINUOUS
10
50.1036
20
16.9536
11
50.1036
21
16.9535
0
LINE
8
BLACK
6
CONTINUOUS
10
50.1036
20
16.9535
11
51.7036
21
15.3536
0
LINE
8
BLACK
6
CONTINUOUS
10
51.7036
20
15.3536
11
51.7356
21
15.3107
0
LINE
8
BLACK
6
CONTINUOUS
10
51.7356
20
15.3107
11
51.7706
21
15.2703
0
LINE
8
BLACK
6
CONTINUOUS
10
51.7706
20
15.2703
11
51.7781
21
15.254
0
LINE
8
BLACK
6
CONTINUOUS
10
51.7781
20
15.254
11
51.7888
21
15.2396
0
LINE
8
BLACK
6
CONTINUOUS
10
51.7888
20
15.2396
11
51.8075
21
15.1895
0
LINE
8
BLACK
6
CONTINUOUS
10
51.8075
20
15.1895
11
51.8297
21
15.1409
0
LINE
8
BLACK
6
CONTINUOUS
10
51.8297
20
15.1409
11
51.8323
21
15.1231
0
LINE
8
BLACK
6
CONTINUOUS
10
51.8323
20
15.1231
11
51.8386
21
15.1063
0
LINE
8
BLACK
6
CONTINUOUS
10
51.8386
20
15.1063
11
51.8424
21
15.0529
0
LINE
8
BLACK
6
CONTINUOUS
10
51.8424
20
15.0529
11
51.85
21
15
0
LINE
8
BLACK
6
CONTINUOUS
10
51.85
20
15
11
51.85
21
10.1
0
LINE
8
BLACK
6
CONTINUOUS
10
51.85
20
10.1
11
51.8424
21
10.0471
0
LINE
8
BLACK
6
CONTINUOUS
10
51.8424
20
10.0471
11
51.8386
21
9.99372
0
LINE
8
BLACK
6
CONTINUOUS
10
51.8386
20
9.99372
11
51.8323
21
9.9769
0
LINE
8
BLACK
6
CONTINUOUS
10
51.8323
20
9.9769
11
51.8297
21
9.95913
0
LINE
8
BLACK
6
CONTINUOUS
10
51.8297
20
9.95913
11
51.8075
21
9.91048
0
LINE
8
BLACK
6
CONTINUOUS
10
51.8075
20
9.91048
11
51.7888
21
9.86038
0
LINE
8
BLACK
6
CONTINUOUS
10
51.7888
20
9.86038
11
51.7781
21
9.84601
0
LINE
8
BLACK
6
CONTINUOUS
10
51.7781
20
9.84601
11
51.7706
21
9.82968
0
LINE
8
BLACK
6
CONTINUOUS
10
51.7706
20
9.82968
11
51.7356
21
9.78926
0
LINE
8
BLACK
6
CONTINUOUS
10
51.7356
20
9.78926
11
51.7036
21
9.74645
0
LINE
8
BLACK
6
CONTINUOUS
10
51.7036
20
9.74645
11
50.1536
21
8.19645
0
LINE
8
BLACK
6
CONTINUOUS
10
50.1536
20
8.19645
11
50.1107
21
8.1644
0
LINE
8
BLACK
6
CONTINUOUS
10
50.1107
20
8.1644
11
50.0703
21
8.12937
0
LINE
8
BLACK
6
CONTINUOUS
10
50.0703
20
8.12937
11
50.054
21
8.12192
0
LINE
8
BLACK
6
CONTINUOUS
10
50.054
20
8.12192
11
50.0396
21
8.11116
0
LINE
8
BLACK
6
CONTINUOUS
10
50.0396
20
8.11116
11
49.9895
21
8.09247
0
LINE
8
BLACK
6
CONTINUOUS
10
49.9895
20
8.09247
11
49.9409
21
8.07025
0
LINE
8
BLACK
6
CONTINUOUS
10
49.9409
20
8.07025
11
49.9231
21
8.0677
0
LINE
8
BLACK
6
CONTINUOUS
10
49.9231
20
8.0677
11
49.9063
21
8.06143
0
LINE
8
BLACK
6
CONTINUOUS
10
49.9063
20
8.06143
11
49.8529
21
8.05761
0
LINE
8
BLACK
6
CONTINUOUS
10
49.8529
20
8.05761
11
49.8
21
8.05
0
LINE
8
BLACK
6
CONTINUOUS
10
49.8
20
8.05
11
43.6743
21
8.05
0
LINE
8
BLACK
6
CONTINUOUS
10
43.6743
20
8.05
11
43.5488
21
7.92453
0
LINE
8
BLACK
6
CONTINUOUS
10
43.5488
20
7.92453
11
43.3971
21
7.82922
0
LINE
8
BLACK
6
CONTINUOUS
10
43.3971
20
7.82922
11
43.228
21
7.77006
0
LINE
8
BLACK
6
CONTINUOUS
10
43.228
20
7.77006
11
43.05
21
7.75
0
LINE
8
BLACK
6
CONTINUOUS
10
43.05
20
7.75
11
42.872
21
7.77006
0
LINE
8
BLACK
6
CONTINUOUS
10
42.872
20
7.77006
11
42.7029
21
7.82922
0
LINE
8
BLACK
6
CONTINUOUS
10
42.7029
20
7.82922
11
42.5512
21
7.92453
0
LINE
8
BLACK
6
CONTINUOUS
10
42.5512
20
7.92453
11
42.4257
21
8.05
0
LINE
8
BLACK
6
CONTINUOUS
10
42.4257
20
8.05
11
41.3167
21
8.05
0
LINE
8
BLACK
6
CONTINUOUS
10
41.3167
20
8.05
11
40.4143
21
7.14758
0
LINE
8
BLACK
6
CONTINUOUS
10
40.4143
20
7.14758
11
40.4237
21
7.06409
0
LINE
8
BLACK
6
CONTINUOUS
10
40.4237
20
7.06409
11
40.4036
21
6.88607
0
LINE
8
BLACK
6
CONTINUOUS
10
40.4036
20
6.88607
11
40.3444
21
6.71698
0
LINE
8
BLACK
6
CONTINUOUS
10
40.3444
20
6.71698
11
40.2491
21
6.5653
0
LINE
8
BLACK
6
CONTINUOUS
10
40.2491
20
6.5653
11
40.1225
21
6.43863
0
LINE
8
BLACK
6
CONTINUOUS
10
40.1225
20
6.43863
11
39.9708
21
6.34331
0
LINE
8
BLACK
6
CONTINUOUS
10
39.9708
20
6.34331
11
39.8017
21
6.28415
0
LINE
8
BLACK
6
CONTINUOUS
10
39.8017
20
6.28415
11
39.6237
21
6.26409
0
LINE
8
BLACK
6
CONTINUOUS
10
39.6237
20
6.26409
11
39.4456
21
6.28415
0
LINE
8
BLACK
6
CONTINUOUS
10
39.4456
20
6.28415
11
39.2766
21
6.34331
0
LINE
8
BLACK
6
CONTINUOUS
10
39.2766
20
6.34331
11
39.1249
21
6.43863
0
LINE
8
BLACK
6
CONTINUOUS
10
39.1249
20
6.43863
11
38.9982
21
6.5653
0
LINE
8
BLACK
6
CONTINUOUS
10
38.9982
20
6.5653
11
38.9029
21
6.71698
0
LINE
8
BLACK
6
CONTINUOUS
10
38.9029
20
6.71698
11
38.8437
21
6.88607
0
LINE
8
BLACK
6
CONTINUOUS
10
38.8437
20
6.88607
11
38.8237
21
7.06409
0
LINE
8
BLACK
6
CONTINUOUS
10
38.8237
20
7.06409
11
38.8437
21
7.24211
0
LINE
8
BLACK
6
CONTINUOUS
10
38.8437
20
7.24211
11
38.9029
21
7.4112
0
LINE
8
BLACK
6
CONTINUOUS
10
38.9029
20
7.4112
11
38.9982
21
7.56288
0
LINE
8
BLACK
6
CONTINUOUS
10
38.9982
20
7.56288
11
39.1249
21
7.68955
0
LINE
8
BLACK
6
CONTINUOUS
10
39.1249
20
7.68955
11
39.2766
21
7.78486
0
LINE
8
BLACK
6
CONTINUOUS
10
39.2766
20
7.78486
11
39.4456
21
7.84403
0
LINE
8
BLACK
6
CONTINUOUS
10
39.4456
20
7.84403
11
39.6237
21
7.86409
0
LINE
8
BLACK
6
CONTINUOUS
10
39.6237
20
7.86409
11
39.7071
21
7.85468
0
LINE
8
BLACK
6
CONTINUOUS
10
39.7071
20
7.85468
11
40.756
21
8.90355
0
LINE
8
BLACK
6
CONTINUOUS
10
40.756
20
8.90355
11
40.7988
21
8.9356
0
LINE
8
BLACK
6
CONTINUOUS
10
40.7988
20
8.9356
11
40.8392
21
8.97063
0
LINE
8
BLACK
6
CONTINUOUS
10
40.8392
20
8.97063
11
40.8556
21
8.97809
0
LINE
8
BLACK
6
CONTINUOUS
10
40.8556
20
8.97809
11
40.8699
21
8.98884
0
LINE
8
BLACK
6
CONTINUOUS
10
40.8699
20
8.98884
11
40.9201
21
9.00753
0
LINE
8
BLACK
6
CONTINUOUS
10
40.9201
20
9.00753
11
40.9687
21
9.02975
0
LINE
8
BLACK
6
CONTINUOUS
10
40.9687
20
9.02975
11
40.9865
21
9.0323
0
LINE
8
BLACK
6
CONTINUOUS
10
40.9865
20
9.0323
11
41.0033
21
9.03857
0
LINE
8
BLACK
6
CONTINUOUS
10
41.0033
20
9.03857
11
41.0566
21
9.04239
0
LINE
8
BLACK
6
CONTINUOUS
10
41.0566
20
9.04239
11
41.1096
21
9.05
0
LINE
8
BLACK
6
CONTINUOUS
10
41.1096
20
9.05
11
42.4257
21
9.05
0
LINE
8
BLACK
6
CONTINUOUS
10
42.4257
20
9.05
11
42.5512
21
9.17546
0
LINE
8
BLACK
6
CONTINUOUS
10
42.5512
20
9.17546
11
42.7029
21
9.27078
0
LINE
8
BLACK
6
CONTINUOUS
10
42.7029
20
9.27078
11
42.872
21
9.32994
0
LINE
8
BLACK
6
CONTINUOUS
10
42.872
20
9.32994
11
43.05
21
9.35
0
LINE
8
BLACK
6
CONTINUOUS
10
43.05
20
9.35
11
43.228
21
9.32994
0
LINE
8
BLACK
6
CONTINUOUS
10
43.228
20
9.32994
11
43.3971
21
9.27078
0
LINE
8
BLACK
6
CONTINUOUS
10
43.3971
20
9.27078
11
43.5488
21
9.17546
0
LINE
8
BLACK
6
CONTINUOUS
10
43.5488
20
9.17546
11
43.6743
21
9.05
0
LINE
8
BLACK
6
CONTINUOUS
10
43.6743
20
9.05
11
49.5929
21
9.05
0
LINE
8
BLACK
6
CONTINUOUS
10
49.5929
20
9.05
11
50.85
21
10.3071
0
LINE
8
BLACK
6
CONTINUOUS
10
50.85
20
10.3071
11
50.85
21
14.7929
0
LINE
8
BLACK
6
CONTINUOUS
10
50.85
20
14.7929
11
49.3964
21
16.2464
0
LINE
8
BLACK
6
CONTINUOUS
10
49.3964
20
16.2464
11
49.3964
21
16.2464
0
LINE
8
BLACK
6
CONTINUOUS
10
49.3964
20
16.2464
11
48.4429
21
17.2
0
LINE
8
BLACK
6
CONTINUOUS
10
48.4429
20
17.2
11
45.35
21
17.2
0
LINE
8
BLACK
6
CONTINUOUS
10
45.35
20
17.2
11
45.35
21
20.7
0
LINE
8
BLACK
6
CONTINUOUS
10
45.35
20
20.7
11
50.35
21
20.7
0
LINE
8
BLACK
6
CONTINUOUS
10
50.35
20
20.7
11
50.35
21
17.2
0
LINE
8
BLACK
6
CONTINUOUS
10
50.35
20
10.7
11
45.35
21
10.7
0
LINE
8
BLACK
6
CONTINUOUS
10
45.35
20
10.7
11
45.35
21
10.9929
0
LINE
8
BLACK
6
CONTINUOUS
10
45.35
20
10.9929
11
45.0936
21
10.7364
0
LINE
8
BLACK
6
CONTINUOUS
10
45.0936
20
10.7364
11
45.0507
21
10.7044
0
LINE
8
BLACK
6
CONTINUOUS
10
45.0507
20
10.7044
11
45.0103
21
10.6694
0
LINE
8
BLACK
6
CONTINUOUS
10
45.0103
20
10.6694
11
44.994
21
10.6619
0
LINE
8
BLACK
6
CONTINUOUS
10
44.994
20
10.6619
11
44.9796
21
10.6512
0
LINE
8
BLACK
6
CONTINUOUS
10
44.9796
20
10.6512
11
44.9295
21
10.6325
0
LINE
8
BLACK
6
CONTINUOUS
10
44.9295
20
10.6325
11
44.8809
21
10.6103
0
LINE
8
BLACK
6
CONTINUOUS
10
44.8809
20
10.6103
11
44.8631
21
10.6077
0
LINE
8
BLACK
6
CONTINUOUS
10
44.8631
20
10.6077
11
44.8463
21
10.6014
0
LINE
8
BLACK
6
CONTINUOUS
10
44.8463
20
10.6014
11
44.7929
21
10.5976
0
LINE
8
BLACK
6
CONTINUOUS
10
44.7929
20
10.5976
11
44.74
21
10.59
0
LINE
8
BLACK
6
CONTINUOUS
10
44.74
20
10.59
11
43.6743
21
10.59
0
LINE
8
BLACK
6
CONTINUOUS
10
43.6743
20
10.59
11
43.5488
21
10.4645
0
LINE
8
BLACK
6
CONTINUOUS
10
43.5488
20
10.4645
11
43.3971
21
10.3692
0
LINE
8
BLACK
6
CONTINUOUS
10
43.3971
20
10.3692
11
43.228
21
10.3101
0
LINE
8
BLACK
6
CONTINUOUS
10
43.228
20
10.3101
11
43.05
21
10.29
0
LINE
8
BLACK
6
CONTINUOUS
10
43.05
20
10.29
11
42.872
21
10.3101
0
LINE
8
BLACK
6
CONTINUOUS
10
42.872
20
10.3101
11
42.7029
21
10.3692
0
LINE
8
BLACK
6
CONTINUOUS
10
42.7029
20
10.3692
11
42.5512
21
10.4645
0
LINE
8
BLACK
6
CONTINUOUS
10
42.5512
20
10.4645
11
42.4257
21
10.59
0
LINE
8
BLACK
6
CONTINUOUS
10
42.4257
20
10.59
11
38.9971
21
10.59
0
LINE
8
BLACK
6
CONTINUOUS
10
38.9971
20
10.59
11
37.5837
21
9.17655
0
LINE
8
BLACK
6
CONTINUOUS
10
37.5837
20
9.17655
11
37.5837
21
7.68835
0
LINE
8
BLACK
6
CONTINUOUS
10
37.5837
20
7.68835
11
37.7091
21
7.56288
0
LINE
8
BLACK
6
CONTINUOUS
10
37.7091
20
7.56288
11
37.8044
21
7.4112
0
LINE
8
BLACK
6
CONTINUOUS
10
37.8044
20
7.4112
11
37.8636
21
7.24211
0
LINE
8
BLACK
6
CONTINUOUS
10
37.8636
20
7.24211
11
37.8837
21
7.06409
0
LINE
8
BLACK
6
CONTINUOUS
10
37.8837
20
7.06409
11
37.8636
21
6.88607
0
LINE
8
BLACK
6
CONTINUOUS
10
37.8636
20
6.88607
11
37.8044
21
6.71698
0
LINE
8
BLACK
6
CONTINUOUS
10
37.8044
20
6.71698
11
37.7091
21
6.5653
0
LINE
8
BLACK
6
CONTINUOUS
10
37.7091
20
6.5653
11
37.5825
21
6.43863
0
LINE
8
BLACK
6
CONTINUOUS
10
37.5825
20
6.43863
11
37.4308
21
6.34331
0
LINE
8
BLACK
6
CONTINUOUS
10
37.4308
20
6.34331
11
37.2617
21
6.28415
0
LINE
8
BLACK
6
CONTINUOUS
10
37.2617
20
6.28415
11
37.0837
21
6.26409
0
LINE
8
BLACK
6
CONTINUOUS
10
37.0837
20
6.26409
11
36.9056
21
6.28415
0
LINE
8
BLACK
6
CONTINUOUS
10
36.9056
20
6.28415
11
36.7366
21
6.34331
0
LINE
8
BLACK
6
CONTINUOUS
10
36.7366
20
6.34331
11
36.5849
21
6.43863
0
LINE
8
BLACK
6
CONTINUOUS
10
36.5849
20
6.43863
11
36.4582
21
6.5653
0
LINE
8
BLACK
6
CONTINUOUS
10
36.4582
20
6.5653
11
36.3629
21
6.71698
0
LINE
8
BLACK
6
CONTINUOUS
10
36.3629
20
6.71698
11
36.3037
21
6.88607
0
LINE
8
BLACK
6
CONTINUOUS
10
36.3037
20
6.88607
11
36.2837
21
7.06409
0
LINE
8
BLACK
6
CONTINUOUS
10
36.2837
20
7.06409
11
36.3037
21
7.24211
0
LINE
8
BLACK
6
CONTINUOUS
10
36.3037
20
7.24211
11
36.3629
21
7.4112
0
LINE
8
BLACK
6
CONTINUOUS
10
36.3629
20
7.4112
11
36.4582
21
7.56288
0
LINE
8
BLACK
6
CONTINUOUS
10
36.4582
20
7.56288
11
36.5837
21
7.68835
0
LINE
8
BLACK
6
CONTINUOUS
10
36.5837
20
7.68835
11
36.5837
21
9.38366
0
LINE
8
BLACK
6
CONTINUOUS
10
36.5837
20
9.38366
11
36.5913
21
9.4366
0
LINE
8
BLACK
6
CONTINUOUS
10
36.5913
20
9.4366
11
36.5951
21
9.48994
0
LINE
8
BLACK
6
CONTINUOUS
10
36.5951
20
9.48994
11
36.6014
21
9.50676
0
LINE
8
BLACK
6
CONTINUOUS
10
36.6014
20
9.50676
11
36.6039
21
9.52453
0
LINE
8
BLACK
6
CONTINUOUS
10
36.6039
20
9.52453
11
36.6261
21
9.57318
0
LINE
8
BLACK
6
CONTINUOUS
10
36.6261
20
9.57318
11
36.6448
21
9.62328
0
LINE
8
BLACK
6
CONTINUOUS
10
36.6448
20
9.62328
11
36.6556
21
9.63765
0
LINE
8
BLACK
6
CONTINUOUS
10
36.6556
20
9.63765
11
36.663
21
9.65398
0
LINE
8
BLACK
6
CONTINUOUS
10
36.663
20
9.65398
11
36.6981
21
9.6944
0
LINE
8
BLACK
6
CONTINUOUS
10
36.6981
20
9.6944
11
36.7301
21
9.73721
0
LINE
8
BLACK
6
CONTINUOUS
10
36.7301
20
9.73721
11
38.4364
21
11.4436
0
LINE
8
BLACK
6
CONTINUOUS
10
38.4364
20
11.4436
11
38.4793
21
11.4756
0
LINE
8
BLACK
6
CONTINUOUS
10
38.4793
20
11.4756
11
38.5197
21
11.5106
0
LINE
8
BLACK
6
CONTINUOUS
10
38.5197
20
11.5106
11
38.536
21
11.5181
0
LINE
8
BLACK
6
CONTINUOUS
10
38.536
20
11.5181
11
38.5504
21
11.5288
0
LINE
8
BLACK
6
CONTINUOUS
10
38.5504
20
11.5288
11
38.6005
21
11.5475
0
LINE
8
BLACK
6
CONTINUOUS
10
38.6005
20
11.5475
11
38.6491
21
11.5697
0
LINE
8
BLACK
6
CONTINUOUS
10
38.6491
20
11.5697
11
38.6669
21
11.5723
0
LINE
8
BLACK
6
CONTINUOUS
10
38.6669
20
11.5723
11
38.6837
21
11.5786
0
LINE
8
BLACK
6
CONTINUOUS
10
38.6837
20
11.5786
11
38.7371
21
11.5824
0
LINE
8
BLACK
6
CONTINUOUS
10
38.7371
20
11.5824
11
38.79
21
11.59
0
LINE
8
BLACK
6
CONTINUOUS
10
38.79
20
11.59
11
42.4257
21
11.59
0
LINE
8
BLACK
6
CONTINUOUS
10
42.4257
20
11.59
11
42.5512
21
11.7155
0
LINE
8
BLACK
6
CONTINUOUS
10
42.5512
20
11.7155
11
42.7029
21
11.8108
0
LINE
8
BLACK
6
CONTINUOUS
10
42.7029
20
11.8108
11
42.872
21
11.8699
0
LINE
8
BLACK
6
CONTINUOUS
10
42.872
20
11.8699
11
43.05
21
11.89
0
LINE
8
BLACK
6
CONTINUOUS
10
43.05
20
11.89
11
43.228
21
11.8699
0
LINE
8
BLACK
6
CONTINUOUS
10
43.228
20
11.8699
11
43.3971
21
11.8108
0
LINE
8
BLACK
6
CONTINUOUS
10
43.3971
20
11.8108
11
43.5488
21
11.7155
0
LINE
8
BLACK
6
CONTINUOUS
10
43.5488
20
11.7155
11
43.6743
21
11.59
0
LINE
8
BLACK
6
CONTINUOUS
10
43.6743
20
11.59
11
44.5329
21
11.59
0
LINE
8
BLACK
6
CONTINUOUS
10
44.5329
20
11.59
11
45.35
21
12.4071
0
LINE
8
BLACK
6
CONTINUOUS
10
45.35
20
12.4071
11
45.35
21
14.2
0
LINE
8
BLACK
6
CONTINUOUS
10
45.35
20
14.2
11
50.35
21
14.2
0
LINE
8
BLACK
6
CONTINUOUS
10
50.35
20
14.2
11
50.35
21
10.7
0
LINE
8
BLACK
6
CONTINUOUS
10
34.7217
20
7.84403
11
34.8908
21
7.78486
0
LINE
8
BLACK
6
CONTINUOUS
10
34.8908
20
7.78486
11
35.0425
21
7.68955
0
LINE
8
BLACK
6
CONTINUOUS
10
35.0425
20
7.68955
11
35.1691
21
7.56288
0
LINE
8
BLACK
6
CONTINUOUS
10
35.1691
20
7.56288
11
35.2644
21
7.4112
0
LINE
8
BLACK
6
CONTINUOUS
10
35.2644
20
7.4112
11
35.3236
21
7.24211
0
LINE
8
BLACK
6
CONTINUOUS
10
35.3236
20
7.24211
11
35.3437
21
7.06409
0
LINE
8
BLACK
6
CONTINUOUS
10
35.3437
20
7.06409
11
35.3236
21
6.88607
0
LINE
8
BLACK
6
CONTINUOUS
10
35.3236
20
6.88607
11
35.2644
21
6.71698
0
LINE
8
BLACK
6
CONTINUOUS
10
35.2644
20
6.71698
11
35.1691
21
6.5653
0
LINE
8
BLACK
6
CONTINUOUS
10
35.1691
20
6.5653
11
35.0425
21
6.43863
0
LINE
8
BLACK
6
CONTINUOUS
10
35.0425
20
6.43863
11
34.8908
21
6.34331
0
LINE
8
BLACK
6
CONTINUOUS
10
34.8908
20
6.34331
11
34.7217
21
6.28415
0
LINE
8
BLACK
6
CONTINUOUS
10
34.7217
20
6.28415
11
34.5437
21
6.26409
0
LINE
8
BLACK
6
CONTINUOUS
10
34.5437
20
6.26409
11
34.3656
21
6.28415
0
LINE
8
BLACK
6
CONTINUOUS
10
34.3656
20
6.28415
11
34.1966
21
6.34331
0
LINE
8
BLACK
6
CONTINUOUS
10
34.1966
20
6.34331
11
34.0449
21
6.43863
0
LINE
8
BLACK
6
CONTINUOUS
10
34.0449
20
6.43863
11
33.9182
21
6.5653
0
LINE
8
BLACK
6
CONTINUOUS
10
33.9182
20
6.5653
11
33.8229
21
6.71698
0
LINE
8
BLACK
6
CONTINUOUS
10
33.8229
20
6.71698
11
33.7637
21
6.88607
0
LINE
8
BLACK
6
CONTINUOUS
10
33.7637
20
6.88607
11
33.7437
21
7.06409
0
LINE
8
BLACK
6
CONTINUOUS
10
33.7437
20
7.06409
11
33.7637
21
7.24211
0
LINE
8
BLACK
6
CONTINUOUS
10
33.7637
20
7.24211
11
33.8229
21
7.4112
0
LINE
8
BLACK
6
CONTINUOUS
10
33.8229
20
7.4112
11
33.9182
21
7.56288
0
LINE
8
BLACK
6
CONTINUOUS
10
33.9182
20
7.56288
11
34.0449
21
7.68955
0
LINE
8
BLACK
6
CONTINUOUS
10
34.0449
20
7.68955
11
34.1966
21
7.78486
0
LINE
8
BLACK
6
CONTINUOUS
10
34.1966
20
7.78486
11
34.3656
21
7.84403
0
LINE
8
BLACK
6
CONTINUOUS
10
34.3656
20
7.84403
11
34.5437
21
7.86409
0
LINE
8
BLACK
6
CONTINUOUS
10
34.5437
20
7.86409
11
34.7217
21
7.84403
0
LINE
8
BLACK
6
CONTINUOUS
10
6.7836
20
32.5755
11
6.83694
21
32.5717
0
LINE
8
BLACK
6
CONTINUOUS
10
6.83694
20
32.5717
11
6.85376
21
32.5654
0
LINE
8
BLACK
6
CONTINUOUS
10
6.85376
20
32.5654
11
6.87153
21
32.5628
0
LINE
8
BLACK
6
CONTINUOUS
10
6.87153
20
32.5628
11
6.92018
21
32.5406
0
LINE
8
BLACK
6
CONTINUOUS
10
6.92018
20
32.5406
11
6.97028
21
32.5219
0
LINE
8
BLACK
6
CONTINUOUS
10
6.97028
20
32.5219
11
6.98465
21
32.5112
0
LINE
8
BLACK
6
CONTINUOUS
10
6.98465
20
32.5112
11
7.00098
21
32.5037
0
LINE
8
BLACK
6
CONTINUOUS
10
7.00098
20
32.5037
11
7.0414
21
32.4687
0
LINE
8
BLACK
6
CONTINUOUS
10
7.0414
20
32.4687
11
7.08421
21
32.4366
0
LINE
8
BLACK
6
CONTINUOUS
10
7.08421
20
32.4366
11
8.45451
21
31.0663
0
LINE
8
BLACK
6
CONTINUOUS
10
8.45451
20
31.0663
11
8.48656
21
31.0235
0
LINE
8
BLACK
6
CONTINUOUS
10
8.48656
20
31.0235
11
8.52159
21
30.9831
0
LINE
8
BLACK
6
CONTINUOUS
10
8.52159
20
30.9831
11
8.52904
21
30.9668
0
LINE
8
BLACK
6
CONTINUOUS
10
8.52904
20
30.9668
11
8.5398
21
30.9524
0
LINE
8
BLACK
6
CONTINUOUS
10
8.5398
20
30.9524
11
8.55849
21
30.9023
0
LINE
8
BLACK
6
CONTINUOUS
10
8.55849
20
30.9023
11
8.58071
21
30.8537
0
LINE
8
BLACK
6
CONTINUOUS
10
8.58071
20
30.8537
11
8.58326
21
30.8359
0
LINE
8
BLACK
6
CONTINUOUS
10
8.58326
20
30.8359
11
8.58953
21
30.8191
0
LINE
8
BLACK
6
CONTINUOUS
10
8.58953
20
30.8191
11
8.59335
21
30.7657
0
LINE
8
BLACK
6
CONTINUOUS
10
8.59335
20
30.7657
11
8.60096
21
30.7128
0
LINE
8
BLACK
6
CONTINUOUS
10
8.60096
20
30.7128
11
8.60096
21
30.0483
0
LINE
8
BLACK
6
CONTINUOUS
10
8.60096
20
30.0483
11
8.72642
21
29.9229
0
LINE
8
BLACK
6
CONTINUOUS
10
8.72642
20
29.9229
11
8.82174
21
29.7712
0
LINE
8
BLACK
6
CONTINUOUS
10
8.82174
20
29.7712
11
8.8809
21
29.6021
0
LINE
8
BLACK
6
CONTINUOUS
10
8.8809
20
29.6021
11
8.90096
21
29.4241
0
LINE
8
BLACK
6
CONTINUOUS
10
8.90096
20
29.4241
11
8.8809
21
29.2461
0
LINE
8
BLACK
6
CONTINUOUS
10
8.8809
20
29.2461
11
8.82174
21
29.077
0
LINE
8
BLACK
6
CONTINUOUS
10
8.82174
20
29.077
11
8.72642
21
28.9253
0
LINE
8
BLACK
6
CONTINUOUS
10
8.72642
20
28.9253
11
8.59975
21
28.7986
0
LINE
8
BLACK
6
CONTINUOUS
10
8.59975
20
28.7986
11
8.44807
21
28.7033
0
LINE
8
BLACK
6
CONTINUOUS
10
8.44807
20
28.7033
11
8.27898
21
28.6441
0
LINE
8
BLACK
6
CONTINUOUS
10
8.27898
20
28.6441
11
8.10096
21
28.6241
0
LINE
8
BLACK
6
CONTINUOUS
10
8.10096
20
28.6241
11
7.92294
21
28.6441
0
LINE
8
BLACK
6
CONTINUOUS
10
7.92294
20
28.6441
11
7.75385
21
28.7033
0
LINE
8
BLACK
6
CONTINUOUS
10
7.75385
20
28.7033
11
7.60217
21
28.7986
0
LINE
8
BLACK
6
CONTINUOUS
10
7.60217
20
28.7986
11
7.47549
21
28.9253
0
LINE
8
BLACK
6
CONTINUOUS
10
7.47549
20
28.9253
11
7.38018
21
29.077
0
LINE
8
BLACK
6
CONTINUOUS
10
7.38018
20
29.077
11
7.32102
21
29.2461
0
LINE
8
BLACK
6
CONTINUOUS
10
7.32102
20
29.2461
11
7.30096
21
29.4241
0
LINE
8
BLACK
6
CONTINUOUS
10
7.30096
20
29.4241
11
7.32102
21
29.6021
0
LINE
8
BLACK
6
CONTINUOUS
10
7.32102
20
29.6021
11
7.38018
21
29.7712
0
LINE
8
BLACK
6
CONTINUOUS
10
7.38018
20
29.7712
11
7.47549
21
29.9229
0
LINE
8
BLACK
6
CONTINUOUS
10
7.47549
20
29.9229
11
7.60096
21
30.0483
0
LINE
8
BLACK
6
CONTINUOUS
10
7.60096
20
30.0483
11
7.60096
21
30.5057
0
LINE
8
BLACK
6
CONTINUOUS
10
7.60096
20
30.5057
11
6.52355
21
31.5831
0
LINE
8
BLACK
6
CONTINUOUS
10
6.52355
20
31.5831
11
3.50877
21
31.5831
0
LINE
8
BLACK
6
CONTINUOUS
10
3.50877
20
31.5831
11
2.27766
21
30.352
0
LINE
8
BLACK
6
CONTINUOUS
10
2.27766
20
30.352
11
2.27766
21
16.7962
0
LINE
8
BLACK
6
CONTINUOUS
10
2.27766
20
16.7962
11
3.88977
21
15.1841
0
LINE
8
BLACK
6
CONTINUOUS
10
3.88977
20
15.1841
11
26.2887
21
15.1841
0
LINE
8
BLACK
6
CONTINUOUS
10
26.2887
20
15.1841
11
26.3416
21
15.1765
0
LINE
8
BLACK
6
CONTINUOUS
10
26.3416
20
15.1765
11
26.3949
21
15.1727
0
LINE
8
BLACK
6
CONTINUOUS
10
26.3949
20
15.1727
11
26.4118
21
15.1664
0
LINE
8
BLACK
6
CONTINUOUS
10
26.4118
20
15.1664
11
26.4295
21
15.1638
0
LINE
8
BLACK
6
CONTINUOUS
10
26.4295
20
15.1638
11
26.4782
21
15.1416
0
LINE
8
BLACK
6
CONTINUOUS
10
26.4782
20
15.1416
11
26.5283
21
15.1229
0
LINE
8
BLACK
6
CONTINUOUS
10
26.5283
20
15.1229
11
26.5426
21
15.1122
0
LINE
8
BLACK
6
CONTINUOUS
10
26.5426
20
15.1122
11
26.559
21
15.1047
0
LINE
8
BLACK
6
CONTINUOUS
10
26.559
20
15.1047
11
26.5994
21
15.0697
0
LINE
8
BLACK
6
CONTINUOUS
10
26.5994
20
15.0697
11
26.6422
21
15.0376
0
LINE
8
BLACK
6
CONTINUOUS
10
26.6422
20
15.0376
11
32.3572
21
9.32264
0
LINE
8
BLACK
6
CONTINUOUS
10
32.3572
20
9.32264
11
32.3893
21
9.27983
0
LINE
8
BLACK
6
CONTINUOUS
10
32.3893
20
9.27983
11
32.4243
21
9.23941
0
LINE
8
BLACK
6
CONTINUOUS
10
32.4243
20
9.23941
11
32.4317
21
9.22308
0
LINE
8
BLACK
6
CONTINUOUS
10
32.4317
20
9.22308
11
32.4425
21
9.20871
0
LINE
8
BLACK
6
CONTINUOUS
10
32.4425
20
9.20871
11
32.4612
21
9.1586
0
LINE
8
BLACK
6
CONTINUOUS
10
32.4612
20
9.1586
11
32.4834
21
9.10996
0
LINE
8
BLACK
6
CONTINUOUS
10
32.4834
20
9.10996
11
32.486
21
9.0922
0
LINE
8
BLACK
6
CONTINUOUS
10
32.486
20
9.0922
11
32.4922
21
9.07537
0
LINE
8
BLACK
6
CONTINUOUS
10
32.4922
20
9.07537
11
32.496
21
9.02202
0
LINE
8
BLACK
6
CONTINUOUS
10
32.496
20
9.02202
11
32.5037
21
8.96909
0
LINE
8
BLACK
6
CONTINUOUS
10
32.5037
20
8.96909
11
32.5037
21
7.68835
0
LINE
8
BLACK
6
CONTINUOUS
10
32.5037
20
7.68835
11
32.6291
21
7.56288
0
LINE
8
BLACK
6
CONTINUOUS
10
32.6291
20
7.56288
11
32.7244
21
7.4112
0
LINE
8
BLACK
6
CONTINUOUS
10
32.7244
20
7.4112
11
32.7836
21
7.24211
0
LINE
8
BLACK
6
CONTINUOUS
10
32.7836
20
7.24211
11
32.8037
21
7.06409
0
LINE
8
BLACK
6
CONTINUOUS
10
32.8037
20
7.06409
11
32.7836
21
6.88607
0
LINE
8
BLACK
6
CONTINUOUS
10
32.7836
20
6.88607
11
32.7244
21
6.71698
0
LINE
8
BLACK
6
CONTINUOUS
10
32.7244
20
6.71698
11
32.6291
21
6.5653
0
LINE
8
BLACK
6
CONTINUOUS
10
32.6291
20
6.5653
11
32.5025
21
6.43863
0
LINE
8
BLACK
6
CONTINUOUS
10
32.5025
20
6.43863
11
32.3508
21
6.34331
0
LINE
8
BLACK
6
CONTINUOUS
10
32.3508
20
6.34331
11
32.1817
21
6.28415
0
LINE
8
BLACK
6
CONTINUOUS
10
32.1817
20
6.28415
11
32.0037
21
6.26409
0
LINE
8
BLACK
6
CONTINUOUS
10
32.0037
20
6.26409
11
31.8256
21
6.28415
0
LINE
8
BLACK
6
CONTINUOUS
10
31.8256
20
6.28415
11
31.6566
21
6.34331
0
LINE
8
BLACK
6
CONTINUOUS
10
31.6566
20
6.34331
11
31.5049
21
6.43863
0
LINE
8
BLACK
6
CONTINUOUS
10
31.5049
20
6.43863
11
31.3782
21
6.5653
0
LINE
8
BLACK
6
CONTINUOUS
10
31.3782
20
6.5653
11
31.2829
21
6.71698
0
LINE
8
BLACK
6
CONTINUOUS
10
31.2829
20
6.71698
11
31.2237
21
6.88607
0
LINE
8
BLACK
6
CONTINUOUS
10
31.2237
20
6.88607
11
31.2037
21
7.06409
0
LINE
8
BLACK
6
CONTINUOUS
10
31.2037
20
7.06409
11
31.2237
21
7.24211
0
LINE
8
BLACK
6
CONTINUOUS
10
31.2237
20
7.24211
11
31.2829
21
7.4112
0
LINE
8
BLACK
6
CONTINUOUS
10
31.2829
20
7.4112
11
31.3782
21
7.56288
0
LINE
8
BLACK
6
CONTINUOUS
10
31.3782
20
7.56288
11
31.5037
21
7.68835
0
LINE
8
BLACK
6
CONTINUOUS
10
31.5037
20
7.68835
11
31.5037
21
8.76198
0
LINE
8
BLACK
6
CONTINUOUS
10
31.5037
20
8.76198
11
26.0816
21
14.1841
0
LINE
8
BLACK
6
CONTINUOUS
10
26.0816
20
14.1841
11
3.68266
21
14.1841
0
LINE
8
BLACK
6
CONTINUOUS
10
3.68266
20
14.1841
11
3.62972
21
14.1917
0
LINE
8
BLACK
6
CONTINUOUS
10
3.62972
20
14.1917
11
3.57638
21
14.1955
0
LINE
8
BLACK
6
CONTINUOUS
10
3.57638
20
14.1955
11
3.55956
21
14.2018
0
LINE
8
BLACK
6
CONTINUOUS
10
3.55956
20
14.2018
11
3.54179
21
14.2043
0
LINE
8
BLACK
6
CONTINUOUS
10
3.54179
20
14.2043
11
3.49314
21
14.2266
0
LINE
8
BLACK
6
CONTINUOUS
10
3.49314
20
14.2266
11
3.44304
21
14.2453
0
LINE
8
BLACK
6
CONTINUOUS
10
3.44304
20
14.2453
11
3.42867
21
14.256
0
LINE
8
BLACK
6
CONTINUOUS
10
3.42867
20
14.256
11
3.41234
21
14.2635
0
LINE
8
BLACK
6
CONTINUOUS
10
3.41234
20
14.2635
11
3.37192
21
14.2985
0
LINE
8
BLACK
6
CONTINUOUS
10
3.37192
20
14.2985
11
3.32911
21
14.3305
0
LINE
8
BLACK
6
CONTINUOUS
10
3.32911
20
14.3305
11
1.42411
21
16.2355
0
LINE
8
BLACK
6
CONTINUOUS
10
1.42411
20
16.2355
11
1.39206
21
16.2783
0
LINE
8
BLACK
6
CONTINUOUS
10
1.39206
20
16.2783
11
1.35703
21
16.3188
0
LINE
8
BLACK
6
CONTINUOUS
10
1.35703
20
16.3188
11
1.34957
21
16.3351
0
LINE
8
BLACK
6
CONTINUOUS
10
1.34957
20
16.3351
11
1.33882
21
16.3495
0
LINE
8
BLACK
6
CONTINUOUS
10
1.33882
20
16.3495
11
1.32013
21
16.3996
0
LINE
8
BLACK
6
CONTINUOUS
10
1.32013
20
16.3996
11
1.29791
21
16.4482
0
LINE
8
BLACK
6
CONTINUOUS
10
1.29791
20
16.4482
11
1.29536
21
16.466
0
LINE
8
BLACK
6
CONTINUOUS
10
1.29536
20
16.466
11
1.28909
21
16.4828
0
LINE
8
BLACK
6
CONTINUOUS
10
1.28909
20
16.4828
11
1.28527
21
16.5362
0
LINE
8
BLACK
6
CONTINUOUS
10
1.28527
20
16.5362
11
1.27766
21
16.5891
0
LINE
8
BLACK
6
CONTINUOUS
10
1.27766
20
16.5891
11
1.27766
21
30.5591
0
LINE
8
BLACK
6
CONTINUOUS
10
1.27766
20
30.5591
11
1.28527
21
30.612
0
LINE
8
BLACK
6
CONTINUOUS
10
1.28527
20
30.612
11
1.28909
21
30.6654
0
LINE
8
BLACK
6
CONTINUOUS
10
1.28909
20
30.6654
11
1.29536
21
30.6822
0
LINE
8
BLACK
6
CONTINUOUS
10
1.29536
20
30.6822
11
1.29791
21
30.7
0
LINE
8
BLACK
6
CONTINUOUS
10
1.29791
20
30.7
11
1.32013
21
30.7486
0
LINE
8
BLACK
6
CONTINUOUS
10
1.32013
20
30.7486
11
1.33882
21
30.7987
0
LINE
8
BLACK
6
CONTINUOUS
10
1.33882
20
30.7987
11
1.34957
21
30.8131
0
LINE
8
BLACK
6
CONTINUOUS
10
1.34957
20
30.8131
11
1.35703
21
30.8294
0
LINE
8
BLACK
6
CONTINUOUS
10
1.35703
20
30.8294
11
1.39206
21
30.8698
0
LINE
8
BLACK
6
CONTINUOUS
10
1.39206
20
30.8698
11
1.42411
21
30.9126
0
LINE
8
BLACK
6
CONTINUOUS
10
1.42411
20
30.9126
11
2.94811
21
32.4366
0
LINE
8
BLACK
6
CONTINUOUS
10
2.94811
20
32.4366
11
2.99092
21
32.4687
0
LINE
8
BLACK
6
CONTINUOUS
10
2.99092
20
32.4687
11
3.03134
21
32.5037
0
LINE
8
BLACK
6
CONTINUOUS
10
3.03134
20
32.5037
11
3.04767
21
32.5112
0
LINE
8
BLACK
6
CONTINUOUS
10
3.04767
20
32.5112
11
3.06203
21
32.5219
0
LINE
8
BLACK
6
CONTINUOUS
10
3.06203
20
32.5219
11
3.11214
21
32.5406
0
LINE
8
BLACK
6
CONTINUOUS
10
3.11214
20
32.5406
11
3.16079
21
32.5628
0
LINE
8
BLACK
6
CONTINUOUS
10
3.16079
20
32.5628
11
3.17856
21
32.5654
0
LINE
8
BLACK
6
CONTINUOUS
10
3.17856
20
32.5654
11
3.19538
21
32.5717
0
LINE
8
BLACK
6
CONTINUOUS
10
3.19538
20
32.5717
11
3.24872
21
32.5755
0
LINE
8
BLACK
6
CONTINUOUS
10
3.24872
20
32.5755
11
3.30166
21
32.5831
0
LINE
8
BLACK
6
CONTINUOUS
10
3.30166
20
32.5831
11
6.73066
21
32.5831
0
LINE
8
BLACK
6
CONTINUOUS
10
6.73066
20
32.5831
11
6.7836
21
32.5755
0
LINE
8
BLACK
6
CONTINUOUS
10
29.6417
20
7.84403
11
29.8108
21
7.78486
0
LINE
8
BLACK
6
CONTINUOUS
10
29.8108
20
7.78486
11
29.9625
21
7.68955
0
LINE
8
BLACK
6
CONTINUOUS
10
29.9625
20
7.68955
11
30.0891
21
7.56288
0
LINE
8
BLACK
6
CONTINUOUS
10
30.0891
20
7.56288
11
30.1844
21
7.4112
0
LINE
8
BLACK
6
CONTINUOUS
10
30.1844
20
7.4112
11
30.2436
21
7.24211
0
LINE
8
BLACK
6
CONTINUOUS
10
30.2436
20
7.24211
11
30.2637
21
7.06409
0
LINE
8
BLACK
6
CONTINUOUS
10
30.2637
20
7.06409
11
30.2436
21
6.88607
0
LINE
8
BLACK
6
CONTINUOUS
10
30.2436
20
6.88607
11
30.1844
21
6.71698
0
LINE
8
BLACK
6
CONTINUOUS
10
30.1844
20
6.71698
11
30.0891
21
6.5653
0
LINE
8
BLACK
6
CONTINUOUS
10
30.0891
20
6.5653
11
29.9625
21
6.43863
0
LINE
8
BLACK
6
CONTINUOUS
10
29.9625
20
6.43863
11
29.8108
21
6.34331
0
LINE
8
BLACK
6
CONTINUOUS
10
29.8108
20
6.34331
11
29.6417
21
6.28415
0
LINE
8
BLACK
6
CONTINUOUS
10
29.6417
20
6.28415
11
29.4637
21
6.26409
0
LINE
8
BLACK
6
CONTINUOUS
10
29.4637
20
6.26409
11
29.2856
21
6.28415
0
LINE
8
BLACK
6
CONTINUOUS
10
29.2856
20
6.28415
11
29.1166
21
6.34331
0
LINE
8
BLACK
6
CONTINUOUS
10
29.1166
20
6.34331
11
28.9649
21
6.43863
0
LINE
8
BLACK
6
CONTINUOUS
10
28.9649
20
6.43863
11
28.8382
21
6.5653
0
LINE
8
BLACK
6
CONTINUOUS
10
28.8382
20
6.5653
11
28.7429
21
6.71698
0
LINE
8
BLACK
6
CONTINUOUS
10
28.7429
20
6.71698
11
28.6837
21
6.88607
0
LINE
8
BLACK
6
CONTINUOUS
10
28.6837
20
6.88607
11
28.6637
21
7.06409
0
LINE
8
BLACK
6
CONTINUOUS
10
28.6637
20
7.06409
11
28.6837
21
7.24211
0
LINE
8
BLACK
6
CONTINUOUS
10
28.6837
20
7.24211
11
28.7429
21
7.4112
0
LINE
8
BLACK
6
CONTINUOUS
10
28.7429
20
7.4112
11
28.8382
21
7.56288
0
LINE
8
BLACK
6
CONTINUOUS
10
28.8382
20
7.56288
11
28.9649
21
7.68955
0
LINE
8
BLACK
6
CONTINUOUS
10
28.9649
20
7.68955
11
29.1166
21
7.78486
0
LINE
8
BLACK
6
CONTINUOUS
10
29.1166
20
7.78486
11
29.2856
21
7.84403
0
LINE
8
BLACK
6
CONTINUOUS
10
29.2856
20
7.84403
11
29.4637
21
7.86409
0
LINE
8
BLACK
6
CONTINUOUS
10
29.4637
20
7.86409
11
29.6417
21
7.84403
0
LINE
8
BLACK
6
CONTINUOUS
10
27.1017
20
7.84403
11
27.2708
21
7.78486
0
LINE
8
BLACK
6
CONTINUOUS
10
27.2708
20
7.78486
11
27.4225
21
7.68955
0
LINE
8
BLACK
6
CONTINUOUS
10
27.4225
20
7.68955
11
27.5491
21
7.56288
0
LINE
8
BLACK
6
CONTINUOUS
10
27.5491
20
7.56288
11
27.6444
21
7.4112
0
LINE
8
BLACK
6
CONTINUOUS
10
27.6444
20
7.4112
11
27.7036
21
7.24211
0
LINE
8
BLACK
6
CONTINUOUS
10
27.7036
20
7.24211
11
27.7237
21
7.06409
0
LINE
8
BLACK
6
CONTINUOUS
10
27.7237
20
7.06409
11
27.7036
21
6.88607
0
LINE
8
BLACK
6
CONTINUOUS
10
27.7036
20
6.88607
11
27.6444
21
6.71698
0
LINE
8
BLACK
6
CONTINUOUS
10
27.6444
20
6.71698
11
27.5491
21
6.5653
0
LINE
8
BLACK
6
CONTINUOUS
10
27.5491
20
6.5653
11
27.4225
21
6.43863
0
LINE
8
BLACK
6
CONTINUOUS
10
27.4225
20
6.43863
11
27.2708
21
6.34331
0
LINE
8
BLACK
6
CONTINUOUS
10
27.2708
20
6.34331
11
27.1017
21
6.28415
0
LINE
8
BLACK
6
CONTINUOUS
10
27.1017
20
6.28415
11
26.9237
21
6.26409
0
LINE
8
BLACK
6
CONTINUOUS
10
26.9237
20
6.26409
11
26.7456
21
6.28415
0
LINE
8
BLACK
6
CONTINUOUS
10
26.7456
20
6.28415
11
26.5766
21
6.34331
0
LINE
8
BLACK
6
CONTINUOUS
10
26.5766
20
6.34331
11
26.4249
21
6.43863
0
LINE
8
BLACK
6
CONTINUOUS
10
26.4249
20
6.43863
11
26.2982
21
6.5653
0
LINE
8
BLACK
6
CONTINUOUS
10
26.2982
20
6.5653
11
26.2029
21
6.71698
0
LINE
8
BLACK
6
CONTINUOUS
10
26.2029
20
6.71698
11
26.1437
21
6.88607
0
LINE
8
BLACK
6
CONTINUOUS
10
26.1437
20
6.88607
11
26.1237
21
7.06409
0
LINE
8
BLACK
6
CONTINUOUS
10
26.1237
20
7.06409
11
26.1437
21
7.24211
0
LINE
8
BLACK
6
CONTINUOUS
10
26.1437
20
7.24211
11
26.2029
21
7.4112
0
LINE
8
BLACK
6
CONTINUOUS
10
26.2029
20
7.4112
11
26.2982
21
7.56288
0
LINE
8
BLACK
6
CONTINUOUS
10
26.2982
20
7.56288
11
26.4249
21
7.68955
0
LINE
8
BLACK
6
CONTINUOUS
10
26.4249
20
7.68955
11
26.5766
21
7.78486
0
LINE
8
BLACK
6
CONTINUOUS
10
26.5766
20
7.78486
11
26.7456
21
7.84403
0
LINE
8
BLACK
6
CONTINUOUS
10
26.7456
20
7.84403
11
26.9237
21
7.86409
0
LINE
8
BLACK
6
CONTINUOUS
10
26.9237
20
7.86409
11
27.1017
21
7.84403
0
LINE
8
BLACK
6
CONTINUOUS
10
24.5617
20
7.84403
11
24.7308
21
7.78486
0
LINE
8
BLACK
6
CONTINUOUS
10
24.7308
20
7.78486
11
24.8825
21
7.68955
0
LINE
8
BLACK
6
CONTINUOUS
10
24.8825
20
7.68955
11
25.0091
21
7.56288
0
LINE
8
BLACK
6
CONTINUOUS
10
25.0091
20
7.56288
11
25.1044
21
7.4112
0
LINE
8
BLACK
6
CONTINUOUS
10
25.1044
20
7.4112
11
25.1636
21
7.24211
0
LINE
8
BLACK
6
CONTINUOUS
10
25.1636
20
7.24211
11
25.1837
21
7.06409
0
LINE
8
BLACK
6
CONTINUOUS
10
25.1837
20
7.06409
11
25.1636
21
6.88607
0
LINE
8
BLACK
6
CONTINUOUS
10
25.1636
20
6.88607
11
25.1044
21
6.71698
0
LINE
8
BLACK
6
CONTINUOUS
10
25.1044
20
6.71698
11
25.0091
21
6.5653
0
LINE
8
BLACK
6
CONTINUOUS
10
25.0091
20
6.5653
11
24.8825
21
6.43863
0
LINE
8
BLACK
6
CONTINUOUS
10
24.8825
20
6.43863
11
24.7308
21
6.34331
0
LINE
8
BLACK
6
CONTINUOUS
10
24.7308
20
6.34331
11
24.5617
21
6.28415
0
LINE
8
BLACK
6
CONTINUOUS
10
24.5617
20
6.28415
11
24.3837
21
6.26409
0
LINE
8
BLACK
6
CONTINUOUS
10
24.3837
20
6.26409
11
24.2056
21
6.28415
0
LINE
8
BLACK
6
CONTINUOUS
10
24.2056
20
6.28415
11
24.0366
21
6.34331
0
LINE
8
BLACK
6
CONTINUOUS
10
24.0366
20
6.34331
11
23.8849
21
6.43863
0
LINE
8
BLACK
6
CONTINUOUS
10
23.8849
20
6.43863
11
23.7582
21
6.5653
0
LINE
8
BLACK
6
CONTINUOUS
10
23.7582
20
6.5653
11
23.6629
21
6.71698
0
LINE
8
BLACK
6
CONTINUOUS
10
23.6629
20
6.71698
11
23.6037
21
6.88607
0
LINE
8
BLACK
6
CONTINUOUS
10
23.6037
20
6.88607
11
23.5837
21
7.06409
0
LINE
8
BLACK
6
CONTINUOUS
10
23.5837
20
7.06409
11
23.6037
21
7.24211
0
LINE
8
BLACK
6
CONTINUOUS
10
23.6037
20
7.24211
11
23.6629
21
7.4112
0
LINE
8
BLACK
6
CONTINUOUS
10
23.6629
20
7.4112
11
23.7582
21
7.56288
0
LINE
8
BLACK
6
CONTINUOUS
10
23.7582
20
7.56288
11
23.8849
21
7.68955
0
LINE
8
BLACK
6
CONTINUOUS
10
23.8849
20
7.68955
11
24.0366
21
7.78486
0
LINE
8
BLACK
6
CONTINUOUS
10
24.0366
20
7.78486
11
24.2056
21
7.84403
0
LINE
8
BLACK
6
CONTINUOUS
10
24.2056
20
7.84403
11
24.3837
21
7.86409
0
LINE
8
BLACK
6
CONTINUOUS
10
24.3837
20
7.86409
11
24.5617
21
7.84403
0
LINE
8
BLACK
6
CONTINUOUS
10
22.0217
20
7.84403
11
22.1908
21
7.78486
0
LINE
8
BLACK
6
CONTINUOUS
10
22.1908
20
7.78486
11
22.3425
21
7.68955
0
LINE
8
BLACK
6
CONTINUOUS
10
22.3425
20
7.68955
11
22.4691
21
7.56288
0
LINE
8
BLACK
6
CONTINUOUS
10
22.4691
20
7.56288
11
22.5644
21
7.4112
0
LINE
8
BLACK
6
CONTINUOUS
10
22.5644
20
7.4112
11
22.6236
21
7.24211
0
LINE
8
BLACK
6
CONTINUOUS
10
22.6236
20
7.24211
11
22.6437
21
7.06409
0
LINE
8
BLACK
6
CONTINUOUS
10
22.6437
20
7.06409
11
22.6236
21
6.88607
0
LINE
8
BLACK
6
CONTINUOUS
10
22.6236
20
6.88607
11
22.5644
21
6.71698
0
LINE
8
BLACK
6
CONTINUOUS
10
22.5644
20
6.71698
11
22.4691
21
6.5653
0
LINE
8
BLACK
6
CONTINUOUS
10
22.4691
20
6.5653
11
22.3425
21
6.43863
0
LINE
8
BLACK
6
CONTINUOUS
10
22.3425
20
6.43863
11
22.1908
21
6.34331
0
LINE
8
BLACK
6
CONTINUOUS
10
22.1908
20
6.34331
11
22.0217
21
6.28415
0
LINE
8
BLACK
6
CONTINUOUS
10
22.0217
20
6.28415
11
21.8437
21
6.26409
0
LINE
8
BLACK
6
CONTINUOUS
10
21.8437
20
6.26409
11
21.6656
21
6.28415
0
LINE
8
BLACK
6
CONTINUOUS
10
21.6656
20
6.28415
11
21.4966
21
6.34331
0
LINE
8
BLACK
6
CONTINUOUS
10
21.4966
20
6.34331
11
21.3449
21
6.43863
0
LINE
8
BLACK
6
CONTINUOUS
10
21.3449
20
6.43863
11
21.2182
21
6.5653
0
LINE
8
BLACK
6
CONTINUOUS
10
21.2182
20
6.5653
11
21.1229
21
6.71698
0
LINE
8
BLACK
6
CONTINUOUS
10
21.1229
20
6.71698
11
21.0637
21
6.88607
0
LINE
8
BLACK
6
CONTINUOUS
10
21.0637
20
6.88607
11
21.0437
21
7.06409
0
LINE
8
BLACK
6
CONTINUOUS
10
21.0437
20
7.06409
11
21.0637
21
7.24211
0
LINE
8
BLACK
6
CONTINUOUS
10
21.0637
20
7.24211
11
21.1229
21
7.4112
0
LINE
8
BLACK
6
CONTINUOUS
10
21.1229
20
7.4112
11
21.2182
21
7.56288
0
LINE
8
BLACK
6
CONTINUOUS
10
21.2182
20
7.56288
11
21.3449
21
7.68955
0
LINE
8
BLACK
6
CONTINUOUS
10
21.3449
20
7.68955
11
21.4966
21
7.78486
0
LINE
8
BLACK
6
CONTINUOUS
10
21.4966
20
7.78486
11
21.6656
21
7.84403
0
LINE
8
BLACK
6
CONTINUOUS
10
21.6656
20
7.84403
11
21.8437
21
7.86409
0
LINE
8
BLACK
6
CONTINUOUS
10
21.8437
20
7.86409
11
22.0217
21
7.84403
0
LINE
8
BLACK
6
CONTINUOUS
10
19.4817
20
7.84403
11
19.6508
21
7.78486
0
LINE
8
BLACK
6
CONTINUOUS
10
19.6508
20
7.78486
11
19.8025
21
7.68955
0
LINE
8
BLACK
6
CONTINUOUS
10
19.8025
20
7.68955
11
19.9291
21
7.56288
0
LINE
8
BLACK
6
CONTINUOUS
10
19.9291
20
7.56288
11
20.0244
21
7.4112
0
LINE
8
BLACK
6
CONTINUOUS
10
20.0244
20
7.4112
11
20.0836
21
7.24211
0
LINE
8
BLACK
6
CONTINUOUS
10
20.0836
20
7.24211
11
20.1037
21
7.06409
0
LINE
8
BLACK
6
CONTINUOUS
10
20.1037
20
7.06409
11
20.0836
21
6.88607
0
LINE
8
BLACK
6
CONTINUOUS
10
20.0836
20
6.88607
11
20.0244
21
6.71698
0
LINE
8
BLACK
6
CONTINUOUS
10
20.0244
20
6.71698
11
19.9291
21
6.5653
0
LINE
8
BLACK
6
CONTINUOUS
10
19.9291
20
6.5653
11
19.8025
21
6.43863
0
LINE
8
BLACK
6
CONTINUOUS
10
19.8025
20
6.43863
11
19.6508
21
6.34331
0
LINE
8
BLACK
6
CONTINUOUS
10
19.6508
20
6.34331
11
19.4817
21
6.28415
0
LINE
8
BLACK
6
CONTINUOUS
10
19.4817
20
6.28415
11
19.3037
21
6.26409
0
LINE
8
BLACK
6
CONTINUOUS
10
19.3037
20
6.26409
11
19.1256
21
6.28415
0
LINE
8
BLACK
6
CONTINUOUS
10
19.1256
20
6.28415
11
18.9566
21
6.34331
0
LINE
8
BLACK
6
CONTINUOUS
10
18.9566
20
6.34331
11
18.8049
21
6.43863
0
LINE
8
BLACK
6
CONTINUOUS
10
18.8049
20
6.43863
11
18.6782
21
6.5653
0
LINE
8
BLACK
6
CONTINUOUS
10
18.6782
20
6.5653
11
18.5829
21
6.71698
0
LINE
8
BLACK
6
CONTINUOUS
10
18.5829
20
6.71698
11
18.5237
21
6.88607
0
LINE
8
BLACK
6
CONTINUOUS
10
18.5237
20
6.88607
11
18.5037
21
7.06409
0
LINE
8
BLACK
6
CONTINUOUS
10
18.5037
20
7.06409
11
18.5237
21
7.24211
0
LINE
8
BLACK
6
CONTINUOUS
10
18.5237
20
7.24211
11
18.5829
21
7.4112
0
LINE
8
BLACK
6
CONTINUOUS
10
18.5829
20
7.4112
11
18.6782
21
7.56288
0
LINE
8
BLACK
6
CONTINUOUS
10
18.6782
20
7.56288
11
18.8049
21
7.68955
0
LINE
8
BLACK
6
CONTINUOUS
10
18.8049
20
7.68955
11
18.9566
21
7.78486
0
LINE
8
BLACK
6
CONTINUOUS
10
18.9566
20
7.78486
11
19.1256
21
7.84403
0
LINE
8
BLACK
6
CONTINUOUS
10
19.1256
20
7.84403
11
19.3037
21
7.86409
0
LINE
8
BLACK
6
CONTINUOUS
10
19.3037
20
7.86409
11
19.4817
21
7.84403
0
LINE
8
BLACK
6
CONTINUOUS
10
16.9417
20
7.84403
11
17.1108
21
7.78486
0
LINE
8
BLACK
6
CONTINUOUS
10
17.1108
20
7.78486
11
17.2625
21
7.68955
0
LINE
8
BLACK
6
CONTINUOUS
10
17.2625
20
7.68955
11
17.3891
21
7.56288
0
LINE
8
BLACK
6
CONTINUOUS
10
17.3891
20
7.56288
11
17.4844
21
7.4112
0
LINE
8
BLACK
6
CONTINUOUS
10
17.4844
20
7.4112
11
17.5436
21
7.24211
0
LINE
8
BLACK
6
CONTINUOUS
10
17.5436
20
7.24211
11
17.5637
21
7.06409
0
LINE
8
BLACK
6
CONTINUOUS
10
17.5637
20
7.06409
11
17.5436
21
6.88607
0
LINE
8
BLACK
6
CONTINUOUS
10
17.5436
20
6.88607
11
17.4844
21
6.71698
0
LINE
8
BLACK
6
CONTINUOUS
10
17.4844
20
6.71698
11
17.3891
21
6.5653
0
LINE
8
BLACK
6
CONTINUOUS
10
17.3891
20
6.5653
11
17.2625
21
6.43863
0
LINE
8
BLACK
6
CONTINUOUS
10
17.2625
20
6.43863
11
17.1108
21
6.34331
0
LINE
8
BLACK
6
CONTINUOUS
10
17.1108
20
6.34331
11
16.9417
21
6.28415
0
LINE
8
BLACK
6
CONTINUOUS
10
16.9417
20
6.28415
11
16.7637
21
6.26409
0
LINE
8
BLACK
6
CONTINUOUS
10
16.7637
20
6.26409
11
16.5856
21
6.28415
0
LINE
8
BLACK
6
CONTINUOUS
10
16.5856
20
6.28415
11
16.4166
21
6.34331
0
LINE
8
BLACK
6
CONTINUOUS
10
16.4166
20
6.34331
11
16.2649
21
6.43863
0
LINE
8
BLACK
6
CONTINUOUS
10
16.2649
20
6.43863
11
16.1382
21
6.5653
0
LINE
8
BLACK
6
CONTINUOUS
10
16.1382
20
6.5653
11
16.0429
21
6.71698
0
LINE
8
BLACK
6
CONTINUOUS
10
16.0429
20
6.71698
11
15.9837
21
6.88607
0
LINE
8
BLACK
6
CONTINUOUS
10
15.9837
20
6.88607
11
15.9637
21
7.06409
0
LINE
8
BLACK
6
CONTINUOUS
10
15.9637
20
7.06409
11
15.9837
21
7.24211
0
LINE
8
BLACK
6
CONTINUOUS
10
15.9837
20
7.24211
11
16.0429
21
7.4112
0
LINE
8
BLACK
6
CONTINUOUS
10
16.0429
20
7.4112
11
16.1382
21
7.56288
0
LINE
8
BLACK
6
CONTINUOUS
10
16.1382
20
7.56288
11
16.2649
21
7.68955
0
LINE
8
BLACK
6
CONTINUOUS
10
16.2649
20
7.68955
11
16.4166
21
7.78486
0
LINE
8
BLACK
6
CONTINUOUS
10
16.4166
20
7.78486
11
16.5856
21
7.84403
0
LINE
8
BLACK
6
CONTINUOUS
10
16.5856
20
7.84403
11
16.7637
21
7.86409
0
LINE
8
BLACK
6
CONTINUOUS
10
16.7637
20
7.86409
11
16.9417
21
7.84403
0
LINE
8
BLACK
6
CONTINUOUS
10
14.4017
20
7.84403
11
14.5708
21
7.78486
0
LINE
8
BLACK
6
CONTINUOUS
10
14.5708
20
7.78486
11
14.7225
21
7.68955
0
LINE
8
BLACK
6
CONTINUOUS
10
14.7225
20
7.68955
11
14.8491
21
7.56288
0
LINE
8
BLACK
6
CONTINUOUS
10
14.8491
20
7.56288
11
14.9444
21
7.4112
0
LINE
8
BLACK
6
CONTINUOUS
10
14.9444
20
7.4112
11
15.0036
21
7.24211
0
LINE
8
BLACK
6
CONTINUOUS
10
15.0036
20
7.24211
11
15.0237
21
7.06409
0
LINE
8
BLACK
6
CONTINUOUS
10
15.0237
20
7.06409
11
15.0036
21
6.88607
0
LINE
8
BLACK
6
CONTINUOUS
10
15.0036
20
6.88607
11
14.9444
21
6.71698
0
LINE
8
BLACK
6
CONTINUOUS
10
14.9444
20
6.71698
11
14.8491
21
6.5653
0
LINE
8
BLACK
6
CONTINUOUS
10
14.8491
20
6.5653
11
14.7225
21
6.43863
0
LINE
8
BLACK
6
CONTINUOUS
10
14.7225
20
6.43863
11
14.5708
21
6.34331
0
LINE
8
BLACK
6
CONTINUOUS
10
14.5708
20
6.34331
11
14.4017
21
6.28415
0
LINE
8
BLACK
6
CONTINUOUS
10
14.4017
20
6.28415
11
14.2237
21
6.26409
0
LINE
8
BLACK
6
CONTINUOUS
10
14.2237
20
6.26409
11
14.0456
21
6.28415
0
LINE
8
BLACK
6
CONTINUOUS
10
14.0456
20
6.28415
11
13.8766
21
6.34331
0
LINE
8
BLACK
6
CONTINUOUS
10
13.8766
20
6.34331
11
13.7249
21
6.43863
0
LINE
8
BLACK
6
CONTINUOUS
10
13.7249
20
6.43863
11
13.5982
21
6.5653
0
LINE
8
BLACK
6
CONTINUOUS
10
13.5982
20
6.5653
11
13.5029
21
6.71698
0
LINE
8
BLACK
6
CONTINUOUS
10
13.5029
20
6.71698
11
13.4437
21
6.88607
0
LINE
8
BLACK
6
CONTINUOUS
10
13.4437
20
6.88607
11
13.4237
21
7.06409
0
LINE
8
BLACK
6
CONTINUOUS
10
13.4237
20
7.06409
11
13.4437
21
7.24211
0
LINE
8
BLACK
6
CONTINUOUS
10
13.4437
20
7.24211
11
13.5029
21
7.4112
0
LINE
8
BLACK
6
CONTINUOUS
10
13.5029
20
7.4112
11
13.5982
21
7.56288
0
LINE
8
BLACK
6
CONTINUOUS
10
13.5982
20
7.56288
11
13.7249
21
7.68955
0
LINE
8
BLACK
6
CONTINUOUS
10
13.7249
20
7.68955
11
13.8766
21
7.78486
0
LINE
8
BLACK
6
CONTINUOUS
10
13.8766
20
7.78486
11
14.0456
21
7.84403
0
LINE
8
BLACK
6
CONTINUOUS
10
14.0456
20
7.84403
11
14.2237
21
7.86409
0
LINE
8
BLACK
6
CONTINUOUS
10
14.2237
20
7.86409
11
14.4017
21
7.84403
0
LINE
8
BLACK
6
CONTINUOUS
10
11.8617
20
7.84403
11
12.0308
21
7.78486
0
LINE
8
BLACK
6
CONTINUOUS
10
12.0308
20
7.78486
11
12.1825
21
7.68955
0
LINE
8
BLACK
6
CONTINUOUS
10
12.1825
20
7.68955
11
12.3091
21
7.56288
0
LINE
8
BLACK
6
CONTINUOUS
10
12.3091
20
7.56288
11
12.4044
21
7.4112
0
LINE
8
BLACK
6
CONTINUOUS
10
12.4044
20
7.4112
11
12.4636
21
7.24211
0
LINE
8
BLACK
6
CONTINUOUS
10
12.4636
20
7.24211
11
12.4837
21
7.06409
0
LINE
8
BLACK
6
CONTINUOUS
10
12.4837
20
7.06409
11
12.4636
21
6.88607
0
LINE
8
BLACK
6
CONTINUOUS
10
12.4636
20
6.88607
11
12.4044
21
6.71698
0
LINE
8
BLACK
6
CONTINUOUS
10
12.4044
20
6.71698
11
12.3091
21
6.5653
0
LINE
8
BLACK
6
CONTINUOUS
10
12.3091
20
6.5653
11
12.1825
21
6.43863
0
LINE
8
BLACK
6
CONTINUOUS
10
12.1825
20
6.43863
11
12.0308
21
6.34331
0
LINE
8
BLACK
6
CONTINUOUS
10
12.0308
20
6.34331
11
11.8617
21
6.28415
0
LINE
8
BLACK
6
CONTINUOUS
10
11.8617
20
6.28415
11
11.6837
21
6.26409
0
LINE
8
BLACK
6
CONTINUOUS
10
11.6837
20
6.26409
11
11.5056
21
6.28415
0
LINE
8
BLACK
6
CONTINUOUS
10
11.5056
20
6.28415
11
11.3366
21
6.34331
0
LINE
8
BLACK
6
CONTINUOUS
10
11.3366
20
6.34331
11
11.1849
21
6.43863
0
LINE
8
BLACK
6
CONTINUOUS
10
11.1849
20
6.43863
11
11.0582
21
6.5653
0
LINE
8
BLACK
6
CONTINUOUS
10
11.0582
20
6.5653
11
10.9629
21
6.71698
0
LINE
8
BLACK
6
CONTINUOUS
10
10.9629
20
6.71698
11
10.9037
21
6.88607
0
LINE
8
BLACK
6
CONTINUOUS
10
10.9037
20
6.88607
11
10.8837
21
7.06409
0
LINE
8
BLACK
6
CONTINUOUS
10
10.8837
20
7.06409
11
10.9037
21
7.24211
0
LINE
8
BLACK
6
CONTINUOUS
10
10.9037
20
7.24211
11
10.9629
21
7.4112
0
LINE
8
BLACK
6
CONTINUOUS
10
10.9629
20
7.4112
11
11.0582
21
7.56288
0
LINE
8
BLACK
6
CONTINUOUS
10
11.0582
20
7.56288
11
11.1849
21
7.68955
0
LINE
8
BLACK
6
CONTINUOUS
10
11.1849
20
7.68955
11
11.3366
21
7.78486
0
LINE
8
BLACK
6
CONTINUOUS
10
11.3366
20
7.78486
11
11.5056
21
7.84403
0
LINE
8
BLACK
6
CONTINUOUS
10
11.5056
20
7.84403
11
11.6837
21
7.86409
0
LINE
8
BLACK
6
CONTINUOUS
10
11.6837
20
7.86409
11
11.8617
21
7.84403
0
LINE
8
BLACK
6
CONTINUOUS
10
9.32168
20
7.84403
11
9.49077
21
7.78486
0
LINE
8
BLACK
6
CONTINUOUS
10
9.49077
20
7.78486
11
9.64245
21
7.68955
0
LINE
8
BLACK
6
CONTINUOUS
10
9.64245
20
7.68955
11
9.76912
21
7.56288
0
LINE
8
BLACK
6
CONTINUOUS
10
9.76912
20
7.56288
11
9.86444
21
7.4112
0
LINE
8
BLACK
6
CONTINUOUS
10
9.86444
20
7.4112
11
9.9236
21
7.24211
0
LINE
8
BLACK
6
CONTINUOUS
10
9.9236
20
7.24211
11
9.94366
21
7.06409
0
LINE
8
BLACK
6
CONTINUOUS
10
9.94366
20
7.06409
11
9.9236
21
6.88607
0
LINE
8
BLACK
6
CONTINUOUS
10
9.9236
20
6.88607
11
9.86444
21
6.71698
0
LINE
8
BLACK
6
CONTINUOUS
10
9.86444
20
6.71698
11
9.76912
21
6.5653
0
LINE
8
BLACK
6
CONTINUOUS
10
9.76912
20
6.5653
11
9.64245
21
6.43863
0
LINE
8
BLACK
6
CONTINUOUS
10
9.64245
20
6.43863
11
9.49077
21
6.34331
0
LINE
8
BLACK
6
CONTINUOUS
10
9.49077
20
6.34331
11
9.32168
21
6.28415
0
LINE
8
BLACK
6
CONTINUOUS
10
9.32168
20
6.28415
11
9.14366
21
6.26409
0
LINE
8
BLACK
6
CONTINUOUS
10
9.14366
20
6.26409
11
8.96564
21
6.28415
0
LINE
8
BLACK
6
CONTINUOUS
10
8.96564
20
6.28415
11
8.79655
21
6.34331
0
LINE
8
BLACK
6
CONTINUOUS
10
8.79655
20
6.34331
11
8.64487
21
6.43863
0
LINE
8
BLACK
6
CONTINUOUS
10
8.64487
20
6.43863
11
8.5182
21
6.5653
0
LINE
8
BLACK
6
CONTINUOUS
10
8.5182
20
6.5653
11
8.42288
21
6.71698
0
LINE
8
BLACK
6
CONTINUOUS
10
8.42288
20
6.71698
11
8.36372
21
6.88607
0
LINE
8
BLACK
6
CONTINUOUS
10
8.36372
20
6.88607
11
8.34366
21
7.06409
0
LINE
8
BLACK
6
CONTINUOUS
10
8.34366
20
7.06409
11
8.36372
21
7.24211
0
LINE
8
BLACK
6
CONTINUOUS
10
8.36372
20
7.24211
11
8.42288
21
7.4112
0
LINE
8
BLACK
6
CONTINUOUS
10
8.42288
20
7.4112
11
8.5182
21
7.56288
0
LINE
8
BLACK
6
CONTINUOUS
10
8.5182
20
7.56288
11
8.64487
21
7.68955
0
LINE
8
BLACK
6
CONTINUOUS
10
8.64487
20
7.68955
11
8.79655
21
7.78486
0
LINE
8
BLACK
6
CONTINUOUS
10
8.79655
20
7.78486
11
8.96564
21
7.84403
0
LINE
8
BLACK
6
CONTINUOUS
10
8.96564
20
7.84403
11
9.14366
21
7.86409
0
LINE
8
BLACK
6
CONTINUOUS
10
9.14366
20
7.86409
11
9.32168
21
7.84403
0
LINE
8
BLACK
6
CONTINUOUS
10
6.78168
20
7.84403
11
6.95077
21
7.78486
0
LINE
8
BLACK
6
CONTINUOUS
10
6.95077
20
7.78486
11
7.10245
21
7.68955
0
LINE
8
BLACK
6
CONTINUOUS
10
7.10245
20
7.68955
11
7.22912
21
7.56288
0
LINE
8
BLACK
6
CONTINUOUS
10
7.22912
20
7.56288
11
7.32443
21
7.4112
0
LINE
8
BLACK
6
CONTINUOUS
10
7.32443
20
7.4112
11
7.3836
21
7.24211
0
LINE
8
BLACK
6
CONTINUOUS
10
7.3836
20
7.24211
11
7.40366
21
7.06409
0
LINE
8
BLACK
6
CONTINUOUS
10
7.40366
20
7.06409
11
7.3836
21
6.88607
0
LINE
8
BLACK
6
CONTINUOUS
10
7.3836
20
6.88607
11
7.32443
21
6.71698
0
LINE
8
BLACK
6
CONTINUOUS
10
7.32443
20
6.71698
11
7.22912
21
6.5653
0
LINE
8
BLACK
6
CONTINUOUS
10
7.22912
20
6.5653
11
7.10245
21
6.43863
0
LINE
8
BLACK
6
CONTINUOUS
10
7.10245
20
6.43863
11
6.95077
21
6.34331
0
LINE
8
BLACK
6
CONTINUOUS
10
6.95077
20
6.34331
11
6.78168
21
6.28415
0
LINE
8
BLACK
6
CONTINUOUS
10
6.78168
20
6.28415
11
6.60366
21
6.26409
0
LINE
8
BLACK
6
CONTINUOUS
10
6.60366
20
6.26409
11
6.42564
21
6.28415
0
LINE
8
BLACK
6
CONTINUOUS
10
6.42564
20
6.28415
11
6.25655
21
6.34331
0
LINE
8
BLACK
6
CONTINUOUS
10
6.25655
20
6.34331
11
6.10487
21
6.43863
0
LINE
8
BLACK
6
CONTINUOUS
10
6.10487
20
6.43863
11
5.97819
21
6.5653
0
LINE
8
BLACK
6
CONTINUOUS
10
5.97819
20
6.5653
11
5.88288
21
6.71698
0
LINE
8
BLACK
6
CONTINUOUS
10
5.88288
20
6.71698
11
5.82372
21
6.88607
0
LINE
8
BLACK
6
CONTINUOUS
10
5.82372
20
6.88607
11
5.80366
21
7.06409
0
LINE
8
BLACK
6
CONTINUOUS
10
5.80366
20
7.06409
11
5.82372
21
7.24211
0
LINE
8
BLACK
6
CONTINUOUS
10
5.82372
20
7.24211
11
5.88288
21
7.4112
0
LINE
8
BLACK
6
CONTINUOUS
10
5.88288
20
7.4112
11
5.97819
21
7.56288
0
LINE
8
BLACK
6
CONTINUOUS
10
5.97819
20
7.56288
11
6.10487
21
7.68955
0
LINE
8
BLACK
6
CONTINUOUS
10
6.10487
20
7.68955
11
6.25655
21
7.78486
0
LINE
8
BLACK
6
CONTINUOUS
10
6.25655
20
7.78486
11
6.42564
21
7.84403
0
LINE
8
BLACK
6
CONTINUOUS
10
6.42564
20
7.84403
11
6.60366
21
7.86409
0
LINE
8
BLACK
6
CONTINUOUS
10
6.60366
20
7.86409
11
6.78168
21
7.84403
0
LINE
8
BLACK
6
CONTINUOUS
10
4.06366
20
7.86409
11
4.24168
21
7.84403
0
LINE
8
BLACK
6
CONTINUOUS
10
4.24168
20
7.84403
11
4.41077
21
7.78486
0
LINE
8
BLACK
6
CONTINUOUS
10
4.41077
20
7.78486
11
4.56245
21
7.68955
0
LINE
8
BLACK
6
CONTINUOUS
10
4.56245
20
7.68955
11
4.68912
21
7.56288
0
LINE
8
BLACK
6
CONTINUOUS
10
4.68912
20
7.56288
11
4.78444
21
7.4112
0
LINE
8
BLACK
6
CONTINUOUS
10
4.78444
20
7.4112
11
4.8436
21
7.24211
0
LINE
8
BLACK
6
CONTINUOUS
10
4.8436
20
7.24211
11
4.86366
21
7.06409
0
LINE
8
BLACK
6
CONTINUOUS
10
4.86366
20
7.06409
11
4.8436
21
6.88607
0
LINE
8
BLACK
6
CONTINUOUS
10
4.8436
20
6.88607
11
4.78444
21
6.71698
0
LINE
8
BLACK
6
CONTINUOUS
10
4.78444
20
6.71698
11
4.68912
21
6.5653
0
LINE
8
BLACK
6
CONTINUOUS
10
4.68912
20
6.5653
11
4.56245
21
6.43863
0
LINE
8
BLACK
6
CONTINUOUS
10
4.56245
20
6.43863
11
4.41077
21
6.34331
0
LINE
8
BLACK
6
CONTINUOUS
10
4.41077
20
6.34331
11
4.24168
21
6.28415
0
LINE
8
BLACK
6
CONTINUOUS
10
4.24168
20
6.28415
11
4.06366
21
6.26409
0
LINE
8
BLACK
6
CONTINUOUS
10
4.06366
20
6.26409
11
3.88564
21
6.28415
0
LINE
8
BLACK
6
CONTINUOUS
10
3.88564
20
6.28415
11
3.71655
21
6.34331
0
LINE
8
BLACK
6
CONTINUOUS
10
3.71655
20
6.34331
11
3.56487
21
6.43863
0
LINE
8
BLACK
6
CONTINUOUS
10
3.56487
20
6.43863
11
3.43819
21
6.5653
0
LINE
8
BLACK
6
CONTINUOUS
10
3.43819
20
6.5653
11
3.34288
21
6.71698
0
LINE
8
BLACK
6
CONTINUOUS
10
3.34288
20
6.71698
11
3.28372
21
6.88607
0
LINE
8
BLACK
6
CONTINUOUS
10
3.28372
20
6.88607
11
3.26366
21
7.06409
0
LINE
8
BLACK
6
CONTINUOUS
10
3.26366
20
7.06409
11
3.28372
21
7.24211
0
LINE
8
BLACK
6
CONTINUOUS
10
3.28372
20
7.24211
11
3.34288
21
7.4112
0
LINE
8
BLACK
6
CONTINUOUS
10
3.34288
20
7.4112
11
3.43819
21
7.56288
0
LINE
8
BLACK
6
CONTINUOUS
10
3.43819
20
7.56288
11
3.56487
21
7.68955
0
LINE
8
BLACK
6
CONTINUOUS
10
3.56487
20
7.68955
11
3.71655
21
7.78486
0
LINE
8
BLACK
6
CONTINUOUS
10
3.71655
20
7.78486
11
3.88564
21
7.84403
0
LINE
8
BLACK
6
CONTINUOUS
10
3.88564
20
7.84403
11
4.06366
21
7.86409
0
LINE
8
BLACK
6
CONTINUOUS
10
37.2617
20
23.084
11
37.4308
21
23.0249
0
LINE
8
BLACK
6
CONTINUOUS
10
37.4308
20
23.0249
11
37.5825
21
22.9296
0
LINE
8
BLACK
6
CONTINUOUS
10
37.5825
20
22.9296
11
37.7091
21
22.8029
0
LINE
8
BLACK
6
CONTINUOUS
10
37.7091
20
22.8029
11
37.8044
21
22.6512
0
LINE
8
BLACK
6
CONTINUOUS
10
37.8044
20
22.6512
11
37.8636
21
22.4821
0
LINE
8
BLACK
6
CONTINUOUS
10
37.8636
20
22.4821
11
37.8837
21
22.3041
0
LINE
8
BLACK
6
CONTINUOUS
10
37.8837
20
22.3041
11
37.8636
21
22.1261
0
LINE
8
BLACK
6
CONTINUOUS
10
37.8636
20
22.1261
11
37.8044
21
21.957
0
LINE
8
BLACK
6
CONTINUOUS
10
37.8044
20
21.957
11
37.7091
21
21.8053
0
LINE
8
BLACK
6
CONTINUOUS
10
37.7091
20
21.8053
11
37.5837
21
21.6798
0
LINE
8
BLACK
6
CONTINUOUS
10
37.5837
20
21.6798
11
37.5837
21
16.3234
0
LINE
8
BLACK
6
CONTINUOUS
10
37.5837
20
16.3234
11
39.7771
21
14.13
0
LINE
8
BLACK
6
CONTINUOUS
10
39.7771
20
14.13
11
42.4257
21
14.13
0
LINE
8
BLACK
6
CONTINUOUS
10
42.4257
20
14.13
11
42.5512
21
14.2555
0
LINE
8
BLACK
6
CONTINUOUS
10
42.5512
20
14.2555
11
42.7029
21
14.3508
0
LINE
8
BLACK
6
CONTINUOUS
10
42.7029
20
14.3508
11
42.872
21
14.4099
0
LINE
8
BLACK
6
CONTINUOUS
10
42.872
20
14.4099
11
43.05
21
14.43
0
LINE
8
BLACK
6
CONTINUOUS
10
43.05
20
14.43
11
43.228
21
14.4099
0
LINE
8
BLACK
6
CONTINUOUS
10
43.228
20
14.4099
11
43.3971
21
14.3508
0
LINE
8
BLACK
6
CONTINUOUS
10
43.3971
20
14.3508
11
43.5488
21
14.2555
0
LINE
8
BLACK
6
CONTINUOUS
10
43.5488
20
14.2555
11
43.6755
21
14.1288
0
LINE
8
BLACK
6
CONTINUOUS
10
43.6755
20
14.1288
11
43.7708
21
13.9771
0
LINE
8
BLACK
6
CONTINUOUS
10
43.7708
20
13.9771
11
43.8299
21
13.808
0
LINE
8
BLACK
6
CONTINUOUS
10
43.8299
20
13.808
11
43.85
21
13.63
0
LINE
8
BLACK
6
CONTINUOUS
10
43.85
20
13.63
11
43.8299
21
13.452
0
LINE
8
BLACK
6
CONTINUOUS
10
43.8299
20
13.452
11
43.7708
21
13.2829
0
LINE
8
BLACK
6
CONTINUOUS
10
43.7708
20
13.2829
11
43.6755
21
13.1312
0
LINE
8
BLACK
6
CONTINUOUS
10
43.6755
20
13.1312
11
43.5488
21
13.0045
0
LINE
8
BLACK
6
CONTINUOUS
10
43.5488
20
13.0045
11
43.3971
21
12.9092
0
LINE
8
BLACK
6
CONTINUOUS
10
43.3971
20
12.9092
11
43.228
21
12.8501
0
LINE
8
BLACK
6
CONTINUOUS
10
43.228
20
12.8501
11
43.05
21
12.83
0
LINE
8
BLACK
6
CONTINUOUS
10
43.05
20
12.83
11
42.872
21
12.8501
0
LINE
8
BLACK
6
CONTINUOUS
10
42.872
20
12.8501
11
42.7029
21
12.9092
0
LINE
8
BLACK
6
CONTINUOUS
10
42.7029
20
12.9092
11
42.5512
21
13.0045
0
LINE
8
BLACK
6
CONTINUOUS
10
42.5512
20
13.0045
11
42.4257
21
13.13
0
LINE
8
BLACK
6
CONTINUOUS
10
42.4257
20
13.13
11
39.57
21
13.13
0
LINE
8
BLACK
6
CONTINUOUS
10
39.57
20
13.13
11
39.5171
21
13.1376
0
LINE
8
BLACK
6
CONTINUOUS
10
39.5171
20
13.1376
11
39.4637
21
13.1414
0
LINE
8
BLACK
6
CONTINUOUS
10
39.4637
20
13.1414
11
39.4469
21
13.1477
0
LINE
8
BLACK
6
CONTINUOUS
10
39.4469
20
13.1477
11
39.4291
21
13.1503
0
LINE
8
BLACK
6
CONTINUOUS
10
39.4291
20
13.1503
11
39.3805
21
13.1725
0
LINE
8
BLACK
6
CONTINUOUS
10
39.3805
20
13.1725
11
39.3304
21
13.1912
0
LINE
8
BLACK
6
CONTINUOUS
10
39.3304
20
13.1912
11
39.316
21
13.2019
0
LINE
8
BLACK
6
CONTINUOUS
10
39.316
20
13.2019
11
39.2997
21
13.2094
0
LINE
8
BLACK
6
CONTINUOUS
10
39.2997
20
13.2094
11
39.2593
21
13.2444
0
LINE
8
BLACK
6
CONTINUOUS
10
39.2593
20
13.2444
11
39.2164
21
13.2764
0
LINE
8
BLACK
6
CONTINUOUS
10
39.2164
20
13.2764
11
36.6964
21
15.7964
0
LINE
8
BLACK
6
CONTINUOUS
10
36.6964
20
15.7964
11
36.675
21
15.8251
0
LINE
8
BLACK
6
CONTINUOUS
10
36.675
20
15.8251
11
36.6497
21
15.8504
0
LINE
8
BLACK
6
CONTINUOUS
10
36.6497
20
15.8504
11
36.6326
21
15.8818
0
LINE
8
BLACK
6
CONTINUOUS
10
36.6326
20
15.8818
11
36.6112
21
15.9104
0
LINE
8
BLACK
6
CONTINUOUS
10
36.6112
20
15.9104
11
36.5987
21
15.9439
0
LINE
8
BLACK
6
CONTINUOUS
10
36.5987
20
15.9439
11
36.5815
21
15.9753
0
LINE
8
BLACK
6
CONTINUOUS
10
36.5815
20
15.9753
11
36.5739
21
16.0102
0
LINE
8
BLACK
6
CONTINUOUS
10
36.5739
20
16.0102
11
36.5614
21
16.0437
0
LINE
8
BLACK
6
CONTINUOUS
10
36.5614
20
16.0437
11
36.5589
21
16.0794
0
LINE
8
BLACK
6
CONTINUOUS
10
36.5589
20
16.0794
11
36.5513
21
16.1143
0
LINE
8
BLACK
6
CONTINUOUS
10
36.5513
20
16.1143
11
36.5538
21
16.15
0
LINE
8
BLACK
6
CONTINUOUS
10
36.5538
20
16.15
11
36.5513
21
16.1857
0
LINE
8
BLACK
6
CONTINUOUS
10
36.5513
20
16.1857
11
36.5589
21
16.2206
0
LINE
8
BLACK
6
CONTINUOUS
10
36.5589
20
16.2206
11
36.5614
21
16.2563
0
LINE
8
BLACK
6
CONTINUOUS
10
36.5614
20
16.2563
11
36.5739
21
16.2898
0
LINE
8
BLACK
6
CONTINUOUS
10
36.5739
20
16.2898
11
36.5815
21
16.3247
0
LINE
8
BLACK
6
CONTINUOUS
10
36.5815
20
16.3247
11
36.5837
21
16.3286
0
LINE
8
BLACK
6
CONTINUOUS
10
36.5837
20
16.3286
11
36.5837
21
21.6798
0
LINE
8
BLACK
6
CONTINUOUS
10
36.5837
20
21.6798
11
36.4582
21
21.8053
0
LINE
8
BLACK
6
CONTINUOUS
10
36.4582
20
21.8053
11
36.3629
21
21.957
0
LINE
8
BLACK
6
CONTINUOUS
10
36.3629
20
21.957
11
36.3037
21
22.1261
0
LINE
8
BLACK
6
CONTINUOUS
10
36.3037
20
22.1261
11
36.2837
21
22.3041
0
LINE
8
BLACK
6
CONTINUOUS
10
36.2837
20
22.3041
11
36.3037
21
22.4821
0
LINE
8
BLACK
6
CONTINUOUS
10
36.3037
20
22.4821
11
36.3629
21
22.6512
0
LINE
8
BLACK
6
CONTINUOUS
10
36.3629
20
22.6512
11
36.4582
21
22.8029
0
LINE
8
BLACK
6
CONTINUOUS
10
36.4582
20
22.8029
11
36.5849
21
22.9296
0
LINE
8
BLACK
6
CONTINUOUS
10
36.5849
20
22.9296
11
36.7366
21
23.0249
0
LINE
8
BLACK
6
CONTINUOUS
10
36.7366
20
23.0249
11
36.9056
21
23.084
0
LINE
8
BLACK
6
CONTINUOUS
10
36.9056
20
23.084
11
37.0837
21
23.1041
0
LINE
8
BLACK
6
CONTINUOUS
10
37.0837
20
23.1041
11
37.2617
21
23.084
0
LINE
8
BLACK
6
CONTINUOUS
10
40.4237
20
21.5041
11
40.1237
21
21.5041
0
LINE
8
BLACK
6
CONTINUOUS
10
40.1237
20
21.5041
11
40.1237
21
17.6834
0
LINE
8
BLACK
6
CONTINUOUS
10
40.1237
20
17.6834
11
41.1371
21
16.67
0
LINE
8
BLACK
6
CONTINUOUS
10
41.1371
20
16.67
11
42.4257
21
16.67
0
LINE
8
BLACK
6
CONTINUOUS
10
42.4257
20
16.67
11
42.5512
21
16.7955
0
LINE
8
BLACK
6
CONTINUOUS
10
42.5512
20
16.7955
11
42.7029
21
16.8908
0
LINE
8
BLACK
6
CONTINUOUS
10
42.7029
20
16.8908
11
42.872
21
16.9499
0
LINE
8
BLACK
6
CONTINUOUS
10
42.872
20
16.9499
11
43.05
21
16.97
0
LINE
8
BLACK
6
CONTINUOUS
10
43.05
20
16.97
11
43.228
21
16.9499
0
LINE
8
BLACK
6
CONTINUOUS
10
43.228
20
16.9499
11
43.3971
21
16.8908
0
LINE
8
BLACK
6
CONTINUOUS
10
43.3971
20
16.8908
11
43.5488
21
16.7955
0
LINE
8
BLACK
6
CONTINUOUS
10
43.5488
20
16.7955
11
43.6755
21
16.6688
0
LINE
8
BLACK
6
CONTINUOUS
10
43.6755
20
16.6688
11
43.7708
21
16.5171
0
LINE
8
BLACK
6
CONTINUOUS
10
43.7708
20
16.5171
11
43.8299
21
16.348
0
LINE
8
BLACK
6
CONTINUOUS
10
43.8299
20
16.348
11
43.85
21
16.17
0
LINE
8
BLACK
6
CONTINUOUS
10
43.85
20
16.17
11
43.8299
21
15.992
0
LINE
8
BLACK
6
CONTINUOUS
10
43.8299
20
15.992
11
43.7708
21
15.8229
0
LINE
8
BLACK
6
CONTINUOUS
10
43.7708
20
15.8229
11
43.6755
21
15.6712
0
LINE
8
BLACK
6
CONTINUOUS
10
43.6755
20
15.6712
11
43.5488
21
15.5445
0
LINE
8
BLACK
6
CONTINUOUS
10
43.5488
20
15.5445
11
43.3971
21
15.4492
0
LINE
8
BLACK
6
CONTINUOUS
10
43.3971
20
15.4492
11
43.228
21
15.3901
0
LINE
8
BLACK
6
CONTINUOUS
10
43.228
20
15.3901
11
43.05
21
15.37
0
LINE
8
BLACK
6
CONTINUOUS
10
43.05
20
15.37
11
42.872
21
15.3901
0
LINE
8
BLACK
6
CONTINUOUS
10
42.872
20
15.3901
11
42.7029
21
15.4492
0
LINE
8
BLACK
6
CONTINUOUS
10
42.7029
20
15.4492
11
42.5512
21
15.5445
0
LINE
8
BLACK
6
CONTINUOUS
10
42.5512
20
15.5445
11
42.4257
21
15.67
0
LINE
8
BLACK
6
CONTINUOUS
10
42.4257
20
15.67
11
40.93
21
15.67
0
LINE
8
BLACK
6
CONTINUOUS
10
40.93
20
15.67
11
40.8771
21
15.6776
0
LINE
8
BLACK
6
CONTINUOUS
10
40.8771
20
15.6776
11
40.8237
21
15.6814
0
LINE
8
BLACK
6
CONTINUOUS
10
40.8237
20
15.6814
11
40.8069
21
15.6877
0
LINE
8
BLACK
6
CONTINUOUS
10
40.8069
20
15.6877
11
40.7891
21
15.6903
0
LINE
8
BLACK
6
CONTINUOUS
10
40.7891
20
15.6903
11
40.7405
21
15.7125
0
LINE
8
BLACK
6
CONTINUOUS
10
40.7405
20
15.7125
11
40.6904
21
15.7312
0
LINE
8
BLACK
6
CONTINUOUS
10
40.6904
20
15.7312
11
40.676
21
15.7419
0
LINE
8
BLACK
6
CONTINUOUS
10
40.676
20
15.7419
11
40.6597
21
15.7494
0
LINE
8
BLACK
6
CONTINUOUS
10
40.6597
20
15.7494
11
40.6193
21
15.7844
0
LINE
8
BLACK
6
CONTINUOUS
10
40.6193
20
15.7844
11
40.5764
21
15.8164
0
LINE
8
BLACK
6
CONTINUOUS
10
40.5764
20
15.8164
11
39.2701
21
17.1228
0
LINE
8
BLACK
6
CONTINUOUS
10
39.2701
20
17.1228
11
39.2381
21
17.1656
0
LINE
8
BLACK
6
CONTINUOUS
10
39.2381
20
17.1656
11
39.203
21
17.206
0
LINE
8
BLACK
6
CONTINUOUS
10
39.203
20
17.206
11
39.1956
21
17.2223
0
LINE
8
BLACK
6
CONTINUOUS
10
39.1956
20
17.2223
11
39.1848
21
17.2367
0
LINE
8
BLACK
6
CONTINUOUS
10
39.1848
20
17.2367
11
39.1661
21
17.2868
0
LINE
8
BLACK
6
CONTINUOUS
10
39.1661
20
17.2868
11
39.1439
21
17.3355
0
LINE
8
BLACK
6
CONTINUOUS
10
39.1439
20
17.3355
11
39.1414
21
17.3532
0
LINE
8
BLACK
6
CONTINUOUS
10
39.1414
20
17.3532
11
39.1351
21
17.3701
0
LINE
8
BLACK
6
CONTINUOUS
10
39.1351
20
17.3701
11
39.1313
21
17.4234
0
LINE
8
BLACK
6
CONTINUOUS
10
39.1313
20
17.4234
11
39.1237
21
17.4763
0
LINE
8
BLACK
6
CONTINUOUS
10
39.1237
20
17.4763
11
39.1237
21
21.5041
0
LINE
8
BLACK
6
CONTINUOUS
10
39.1237
20
21.5041
11
38.8237
21
21.5041
0
LINE
8
BLACK
6
CONTINUOUS
10
38.8237
20
21.5041
11
38.8237
21
23.1041
0
LINE
8
BLACK
6
CONTINUOUS
10
38.8237
20
23.1041
11
40.4237
21
23.1041
0
LINE
8
BLACK
6
CONTINUOUS
10
40.4237
20
23.1041
11
40.4237
21
21.5041
0
LINE
8
BLACK
6
CONTINUOUS
10
43.228
20
19.4899
11
43.3971
21
19.4308
0
LINE
8
BLACK
6
CONTINUOUS
10
43.3971
20
19.4308
11
43.5488
21
19.3355
0
LINE
8
BLACK
6
CONTINUOUS
10
43.5488
20
19.3355
11
43.6755
21
19.2088
0
LINE
8
BLACK
6
CONTINUOUS
10
43.6755
20
19.2088
11
43.7708
21
19.0571
0
LINE
8
BLACK
6
CONTINUOUS
10
43.7708
20
19.0571
11
43.8299
21
18.888
0
LINE
8
BLACK
6
CONTINUOUS
10
43.8299
20
18.888
11
43.85
21
18.71
0
LINE
8
BLACK
6
CONTINUOUS
10
43.85
20
18.71
11
43.8299
21
18.532
0
LINE
8
BLACK
6
CONTINUOUS
10
43.8299
20
18.532
11
43.7708
21
18.3629
0
LINE
8
BLACK
6
CONTINUOUS
10
43.7708
20
18.3629
11
43.6755
21
18.2112
0
LINE
8
BLACK
6
CONTINUOUS
10
43.6755
20
18.2112
11
43.5488
21
18.0845
0
LINE
8
BLACK
6
CONTINUOUS
10
43.5488
20
18.0845
11
43.3971
21
17.9892
0
LINE
8
BLACK
6
CONTINUOUS
10
43.3971
20
17.9892
11
43.228
21
17.9301
0
LINE
8
BLACK
6
CONTINUOUS
10
43.228
20
17.9301
11
43.05
21
17.91
0
LINE
8
BLACK
6
CONTINUOUS
10
43.05
20
17.91
11
42.872
21
17.9301
0
LINE
8
BLACK
6
CONTINUOUS
10
42.872
20
17.9301
11
42.7029
21
17.9892
0
LINE
8
BLACK
6
CONTINUOUS
10
42.7029
20
17.9892
11
42.5512
21
18.0845
0
LINE
8
BLACK
6
CONTINUOUS
10
42.5512
20
18.0845
11
42.4245
21
18.2112
0
LINE
8
BLACK
6
CONTINUOUS
10
42.4245
20
18.2112
11
42.3292
21
18.3629
0
LINE
8
BLACK
6
CONTINUOUS
10
42.3292
20
18.3629
11
42.2701
21
18.532
0
LINE
8
BLACK
6
CONTINUOUS
10
42.2701
20
18.532
11
42.25
21
18.71
0
LINE
8
BLACK
6
CONTINUOUS
10
42.25
20
18.71
11
42.2701
21
18.888
0
LINE
8
BLACK
6
CONTINUOUS
10
42.2701
20
18.888
11
42.3292
21
19.0571
0
LINE
8
BLACK
6
CONTINUOUS
10
42.3292
20
19.0571
11
42.4245
21
19.2088
0
LINE
8
BLACK
6
CONTINUOUS
10
42.4245
20
19.2088
11
42.5512
21
19.3355
0
LINE
8
BLACK
6
CONTINUOUS
10
42.5512
20
19.3355
11
42.7029
21
19.4308
0
LINE
8
BLACK
6
CONTINUOUS
10
42.7029
20
19.4308
11
42.872
21
19.4899
0
LINE
8
BLACK
6
CONTINUOUS
10
42.872
20
19.4899
11
43.05
21
19.51
0
LINE
8
BLACK
6
CONTINUOUS
10
43.05
20
19.51
11
43.228
21
19.4899
0
LINE
8
BLACK
6
CONTINUOUS
10
34.7217
20
23.084
11
34.8908
21
23.0249
0
LINE
8
BLACK
6
CONTINUOUS
10
34.8908
20
23.0249
11
35.0425
21
22.9296
0
LINE
8
BLACK
6
CONTINUOUS
10
35.0425
20
22.9296
11
35.1691
21
22.8029
0
LINE
8
BLACK
6
CONTINUOUS
10
35.1691
20
22.8029
11
35.2644
21
22.6512
0
LINE
8
BLACK
6
CONTINUOUS
10
35.2644
20
22.6512
11
35.3236
21
22.4821
0
LINE
8
BLACK
6
CONTINUOUS
10
35.3236
20
22.4821
11
35.3437
21
22.3041
0
LINE
8
BLACK
6
CONTINUOUS
10
35.3437
20
22.3041
11
35.3236
21
22.1261
0
LINE
8
BLACK
6
CONTINUOUS
10
35.3236
20
22.1261
11
35.2644
21
21.957
0
LINE
8
BLACK
6
CONTINUOUS
10
35.2644
20
21.957
11
35.1691
21
21.8053
0
LINE
8
BLACK
6
CONTINUOUS
10
35.1691
20
21.8053
11
35.0425
21
21.6786
0
LINE
8
BLACK
6
CONTINUOUS
10
35.0425
20
21.6786
11
34.8908
21
21.5833
0
LINE
8
BLACK
6
CONTINUOUS
10
34.8908
20
21.5833
11
34.7217
21
21.5241
0
LINE
8
BLACK
6
CONTINUOUS
10
34.7217
20
21.5241
11
34.5437
21
21.5041
0
LINE
8
BLACK
6
CONTINUOUS
10
34.5437
20
21.5041
11
34.3656
21
21.5241
0
LINE
8
BLACK
6
CONTINUOUS
10
34.3656
20
21.5241
11
34.1966
21
21.5833
0
LINE
8
BLACK
6
CONTINUOUS
10
34.1966
20
21.5833
11
34.0449
21
21.6786
0
LINE
8
BLACK
6
CONTINUOUS
10
34.0449
20
21.6786
11
33.9182
21
21.8053
0
LINE
8
BLACK
6
CONTINUOUS
10
33.9182
20
21.8053
11
33.8229
21
21.957
0
LINE
8
BLACK
6
CONTINUOUS
10
33.8229
20
21.957
11
33.7637
21
22.1261
0
LINE
8
BLACK
6
CONTINUOUS
10
33.7637
20
22.1261
11
33.7437
21
22.3041
0
LINE
8
BLACK
6
CONTINUOUS
10
33.7437
20
22.3041
11
33.7637
21
22.4821
0
LINE
8
BLACK
6
CONTINUOUS
10
33.7637
20
22.4821
11
33.8229
21
22.6512
0
LINE
8
BLACK
6
CONTINUOUS
10
33.8229
20
22.6512
11
33.9182
21
22.8029
0
LINE
8
BLACK
6
CONTINUOUS
10
33.9182
20
22.8029
11
34.0449
21
22.9296
0
LINE
8
BLACK
6
CONTINUOUS
10
34.0449
20
22.9296
11
34.1966
21
23.0249
0
LINE
8
BLACK
6
CONTINUOUS
10
34.1966
20
23.0249
11
34.3656
21
23.084
0
LINE
8
BLACK
6
CONTINUOUS
10
34.3656
20
23.084
11
34.5437
21
23.1041
0
LINE
8
BLACK
6
CONTINUOUS
10
34.5437
20
23.1041
11
34.7217
21
23.084
0
LINE
8
BLACK
6
CONTINUOUS
10
57.188
20
32.7799
11
57.3571
21
32.7208
0
LINE
8
BLACK
6
CONTINUOUS
10
57.3571
20
32.7208
11
57.5088
21
32.6255
0
LINE
8
BLACK
6
CONTINUOUS
10
57.5088
20
32.6255
11
57.6355
21
32.4988
0
LINE
8
BLACK
6
CONTINUOUS
10
57.6355
20
32.4988
11
57.7308
21
32.3471
0
LINE
8
BLACK
6
CONTINUOUS
10
57.7308
20
32.3471
11
57.7899
21
32.178
0
LINE
8
BLACK
6
CONTINUOUS
10
57.7899
20
32.178
11
57.81
21
32
0
LINE
8
BLACK
6
CONTINUOUS
10
57.81
20
32
11
57.7899
21
31.822
0
LINE
8
BLACK
6
CONTINUOUS
10
57.7899
20
31.822
11
57.7308
21
31.6529
0
LINE
8
BLACK
6
CONTINUOUS
10
57.7308
20
31.6529
11
57.6355
21
31.5012
0
LINE
8
BLACK
6
CONTINUOUS
10
57.6355
20
31.5012
11
57.51
21
31.3757
0
LINE
8
BLACK
6
CONTINUOUS
10
57.51
20
31.3757
11
57.51
21
30.7979
0
LINE
8
BLACK
6
CONTINUOUS
10
57.51
20
30.7979
11
57.5024
21
30.745
0
LINE
8
BLACK
6
CONTINUOUS
10
57.5024
20
30.745
11
57.4986
21
30.6916
0
LINE
8
BLACK
6
CONTINUOUS
10
57.4986
20
30.6916
11
57.4923
21
30.6748
0
LINE
8
BLACK
6
CONTINUOUS
10
57.4923
20
30.6748
11
57.4897
21
30.6571
0
LINE
8
BLACK
6
CONTINUOUS
10
57.4897
20
30.6571
11
57.4675
21
30.6084
0
LINE
8
BLACK
6
CONTINUOUS
10
57.4675
20
30.6084
11
57.4488
21
30.5583
0
LINE
8
BLACK
6
CONTINUOUS
10
57.4488
20
30.5583
11
57.4381
21
30.5439
0
LINE
8
BLACK
6
CONTINUOUS
10
57.4381
20
30.5439
11
57.4306
21
30.5276
0
LINE
8
BLACK
6
CONTINUOUS
10
57.4306
20
30.5276
11
57.3956
21
30.4872
0
LINE
8
BLACK
6
CONTINUOUS
10
57.3956
20
30.4872
11
57.3636
21
30.4444
0
LINE
8
BLACK
6
CONTINUOUS
10
57.3636
20
30.4444
11
52.3656
21
25.4464
0
LINE
8
BLACK
6
CONTINUOUS
10
52.3656
20
25.4464
11
52.3228
21
25.4144
0
LINE
8
BLACK
6
CONTINUOUS
10
52.3228
20
25.4144
11
52.2824
21
25.3794
0
LINE
8
BLACK
6
CONTINUOUS
10
52.2824
20
25.3794
11
52.2661
21
25.3719
0
LINE
8
BLACK
6
CONTINUOUS
10
52.2661
20
25.3719
11
52.2517
21
25.3612
0
LINE
8
BLACK
6
CONTINUOUS
10
52.2517
20
25.3612
11
52.2016
21
25.3425
0
LINE
8
BLACK
6
CONTINUOUS
10
52.2016
20
25.3425
11
52.1529
21
25.3203
0
LINE
8
BLACK
6
CONTINUOUS
10
52.1529
20
25.3203
11
52.1352
21
25.3177
0
LINE
8
BLACK
6
CONTINUOUS
10
52.1352
20
25.3177
11
52.1184
21
25.3114
0
LINE
8
BLACK
6
CONTINUOUS
10
52.1184
20
25.3114
11
52.065
21
25.3076
0
LINE
8
BLACK
6
CONTINUOUS
10
52.065
20
25.3076
11
52.0121
21
25.3
0
LINE
8
BLACK
6
CONTINUOUS
10
52.0121
20
25.3
11
32.5037
21
25.3
0
LINE
8
BLACK
6
CONTINUOUS
10
32.5037
20
25.3
11
32.5037
21
22.9283
0
LINE
8
BLACK
6
CONTINUOUS
10
32.5037
20
22.9283
11
32.6291
21
22.8029
0
LINE
8
BLACK
6
CONTINUOUS
10
32.6291
20
22.8029
11
32.7244
21
22.6512
0
LINE
8
BLACK
6
CONTINUOUS
10
32.7244
20
22.6512
11
32.7836
21
22.4821
0
LINE
8
BLACK
6
CONTINUOUS
10
32.7836
20
22.4821
11
32.8037
21
22.3041
0
LINE
8
BLACK
6
CONTINUOUS
10
32.8037
20
22.3041
11
32.7836
21
22.1261
0
LINE
8
BLACK
6
CONTINUOUS
10
32.7836
20
22.1261
11
32.7244
21
21.957
0
LINE
8
BLACK
6
CONTINUOUS
10
32.7244
20
21.957
11
32.6291
21
21.8053
0
LINE
8
BLACK
6
CONTINUOUS
10
32.6291
20
21.8053
11
32.5025
21
21.6786
0
LINE
8
BLACK
6
CONTINUOUS
10
32.5025
20
21.6786
11
32.3508
21
21.5833
0
LINE
8
BLACK
6
CONTINUOUS
10
32.3508
20
21.5833
11
32.1817
21
21.5241
0
LINE
8
BLACK
6
CONTINUOUS
10
32.1817
20
21.5241
11
32.0037
21
21.5041
0
LINE
8
BLACK
6
CONTINUOUS
10
32.0037
20
21.5041
11
31.8256
21
21.5241
0
LINE
8
BLACK
6
CONTINUOUS
10
31.8256
20
21.5241
11
31.6566
21
21.5833
0
LINE
8
BLACK
6
CONTINUOUS
10
31.6566
20
21.5833
11
31.5049
21
21.6786
0
LINE
8
BLACK
6
CONTINUOUS
10
31.5049
20
21.6786
11
31.3782
21
21.8053
0
LINE
8
BLACK
6
CONTINUOUS
10
31.3782
20
21.8053
11
31.2829
21
21.957
0
LINE
8
BLACK
6
CONTINUOUS
10
31.2829
20
21.957
11
31.2237
21
22.1261
0
LINE
8
BLACK
6
CONTINUOUS
10
31.2237
20
22.1261
11
31.2037
21
22.3041
0
LINE
8
BLACK
6
CONTINUOUS
10
31.2037
20
22.3041
11
31.2237
21
22.4821
0
LINE
8
BLACK
6
CONTINUOUS
10
31.2237
20
22.4821
11
31.2829
21
22.6512
0
LINE
8
BLACK
6
CONTINUOUS
10
31.2829
20
22.6512
11
31.3782
21
22.8029
0
LINE
8
BLACK
6
CONTINUOUS
10
31.3782
20
22.8029
11
31.5037
21
22.9283
0
LINE
8
BLACK
6
CONTINUOUS
10
31.5037
20
22.9283
11
31.5037
21
25.3601
0
LINE
8
BLACK
6
CONTINUOUS
10
31.5037
20
25.3601
11
29.8918
21
25.3601
0
LINE
8
BLACK
6
CONTINUOUS
10
29.8918
20
25.3601
11
29.8621
21
25.3045
0
LINE
8
BLACK
6
CONTINUOUS
10
29.8621
20
25.3045
11
29.7377
21
25.153
0
LINE
8
BLACK
6
CONTINUOUS
10
29.7377
20
25.153
11
29.5862
21
25.0286
0
LINE
8
BLACK
6
CONTINUOUS
10
29.5862
20
25.0286
11
29.4133
21
24.9362
0
LINE
8
BLACK
6
CONTINUOUS
10
29.4133
20
24.9362
11
29.2257
21
24.8793
0
LINE
8
BLACK
6
CONTINUOUS
10
29.2257
20
24.8793
11
29.0306
21
24.8601
0
LINE
8
BLACK
6
CONTINUOUS
10
29.0306
20
24.8601
11
28.8355
21
24.8793
0
LINE
8
BLACK
6
CONTINUOUS
10
28.8355
20
24.8793
11
28.6479
21
24.9362
0
LINE
8
BLACK
6
CONTINUOUS
10
28.6479
20
24.9362
11
28.475
21
25.0286
0
LINE
8
BLACK
6
CONTINUOUS
10
28.475
20
25.0286
11
28.3235
21
25.153
0
LINE
8
BLACK
6
CONTINUOUS
10
28.3235
20
25.153
11
28.1991
21
25.3045
0
LINE
8
BLACK
6
CONTINUOUS
10
28.1991
20
25.3045
11
28.1694
21
25.3601
0
LINE
8
BLACK
6
CONTINUOUS
10
28.1694
20
25.3601
11
27.5999
21
25.3601
0
LINE
8
BLACK
6
CONTINUOUS
10
27.5999
20
25.3601
11
27.547
21
25.3677
0
LINE
8
BLACK
6
CONTINUOUS
10
27.547
20
25.3677
11
27.4936
21
25.3715
0
LINE
8
BLACK
6
CONTINUOUS
10
27.4936
20
25.3715
11
27.4768
21
25.3778
0
LINE
8
BLACK
6
CONTINUOUS
10
27.4768
20
25.3778
11
27.459
21
25.3803
0
LINE
8
BLACK
6
CONTINUOUS
10
27.459
20
25.3803
11
27.4104
21
25.4026
0
LINE
8
BLACK
6
CONTINUOUS
10
27.4104
20
25.4026
11
27.3603
21
25.4213
0
LINE
8
BLACK
6
CONTINUOUS
10
27.3603
20
25.4213
11
27.3459
21
25.432
0
LINE
8
BLACK
6
CONTINUOUS
10
27.3459
20
25.432
11
27.3296
21
25.4395
0
LINE
8
BLACK
6
CONTINUOUS
10
27.3296
20
25.4395
11
27.2892
21
25.4745
0
LINE
8
BLACK
6
CONTINUOUS
10
27.2892
20
25.4745
11
27.2464
21
25.5065
0
LINE
8
BLACK
6
CONTINUOUS
10
27.2464
20
25.5065
11
21.5935
21
31.1594
0
LINE
8
BLACK
6
CONTINUOUS
10
21.5935
20
31.1594
11
21.51
21
31.15
0
LINE
8
BLACK
6
CONTINUOUS
10
21.51
20
31.15
11
21.332
21
31.1701
0
LINE
8
BLACK
6
CONTINUOUS
10
21.332
20
31.1701
11
21.1629
21
31.2292
0
LINE
8
BLACK
6
CONTINUOUS
10
21.1629
20
31.2292
11
21.0112
21
31.3245
0
LINE
8
BLACK
6
CONTINUOUS
10
21.0112
20
31.3245
11
20.8857
21
31.45
0
LINE
8
BLACK
6
CONTINUOUS
10
20.8857
20
31.45
11
20.7171
21
31.45
0
LINE
8
BLACK
6
CONTINUOUS
10
20.7171
20
31.45
11
15.5506
21
26.2835
0
LINE
8
BLACK
6
CONTINUOUS
10
15.5506
20
26.2835
11
15.56
21
26.2
0
LINE
8
BLACK
6
CONTINUOUS
10
15.56
20
26.2
11
15.5399
21
26.022
0
LINE
8
BLACK
6
CONTINUOUS
10
15.5399
20
26.022
11
15.4808
21
25.8529
0
LINE
8
BLACK
6
CONTINUOUS
10
15.4808
20
25.8529
11
15.3855
21
25.7012
0
LINE
8
BLACK
6
CONTINUOUS
10
15.3855
20
25.7012
11
15.2588
21
25.5745
0
LINE
8
BLACK
6
CONTINUOUS
10
15.2588
20
25.5745
11
15.1071
21
25.4792
0
LINE
8
BLACK
6
CONTINUOUS
10
15.1071
20
25.4792
11
14.938
21
25.4201
0
LINE
8
BLACK
6
CONTINUOUS
10
14.938
20
25.4201
11
14.76
21
25.4
0
LINE
8
BLACK
6
CONTINUOUS
10
14.76
20
25.4
11
14.582
21
25.4201
0
LINE
8
BLACK
6
CONTINUOUS
10
14.582
20
25.4201
11
14.4129
21
25.4792
0
LINE
8
BLACK
6
CONTINUOUS
10
14.4129
20
25.4792
11
14.2612
21
25.5745
0
LINE
8
BLACK
6
CONTINUOUS
10
14.2612
20
25.5745
11
14.1345
21
25.7012
0
LINE
8
BLACK
6
CONTINUOUS
10
14.1345
20
25.7012
11
14.0392
21
25.8529
0
LINE
8
BLACK
6
CONTINUOUS
10
14.0392
20
25.8529
11
13.9801
21
26.022
0
LINE
8
BLACK
6
CONTINUOUS
10
13.9801
20
26.022
11
13.96
21
26.2
0
LINE
8
BLACK
6
CONTINUOUS
10
13.96
20
26.2
11
13.9801
21
26.378
0
LINE
8
BLACK
6
CONTINUOUS
10
13.9801
20
26.378
11
14.0392
21
26.5471
0
LINE
8
BLACK
6
CONTINUOUS
10
14.0392
20
26.5471
11
14.1345
21
26.6988
0
LINE
8
BLACK
6
CONTINUOUS
10
14.1345
20
26.6988
11
14.2612
21
26.8255
0
LINE
8
BLACK
6
CONTINUOUS
10
14.2612
20
26.8255
11
14.4129
21
26.9208
0
LINE
8
BLACK
6
CONTINUOUS
10
14.4129
20
26.9208
11
14.582
21
26.9799
0
LINE
8
BLACK
6
CONTINUOUS
10
14.582
20
26.9799
11
14.76
21
27
0
LINE
8
BLACK
6
CONTINUOUS
10
14.76
20
27
11
14.8435
21
26.9906
0
LINE
8
BLACK
6
CONTINUOUS
10
14.8435
20
26.9906
11
20.1564
21
32.3036
0
LINE
8
BLACK
6
CONTINUOUS
10
20.1564
20
32.3036
11
20.1993
21
32.3356
0
LINE
8
BLACK
6
CONTINUOUS
10
20.1993
20
32.3356
11
20.2397
21
32.3706
0
LINE
8
BLACK
6
CONTINUOUS
10
20.2397
20
32.3706
11
20.256
21
32.3781
0
LINE
8
BLACK
6
CONTINUOUS
10
20.256
20
32.3781
11
20.2704
21
32.3888
0
LINE
8
BLACK
6
CONTINUOUS
10
20.2704
20
32.3888
11
20.3205
21
32.4075
0
LINE
8
BLACK
6
CONTINUOUS
10
20.3205
20
32.4075
11
20.3691
21
32.4297
0
LINE
8
BLACK
6
CONTINUOUS
10
20.3691
20
32.4297
11
20.3869
21
32.4323
0
LINE
8
BLACK
6
CONTINUOUS
10
20.3869
20
32.4323
11
20.4037
21
32.4386
0
LINE
8
BLACK
6
CONTINUOUS
10
20.4037
20
32.4386
11
20.4571
21
32.4424
0
LINE
8
BLACK
6
CONTINUOUS
10
20.4571
20
32.4424
11
20.51
21
32.45
0
LINE
8
BLACK
6
CONTINUOUS
10
20.51
20
32.45
11
20.8857
21
32.45
0
LINE
8
BLACK
6
CONTINUOUS
10
20.8857
20
32.45
11
21.0112
21
32.5755
0
LINE
8
BLACK
6
CONTINUOUS
10
21.0112
20
32.5755
11
21.1629
21
32.6708
0
LINE
8
BLACK
6
CONTINUOUS
10
21.1629
20
32.6708
11
21.332
21
32.7299
0
LINE
8
BLACK
6
CONTINUOUS
10
21.332
20
32.7299
11
21.51
21
32.75
0
LINE
8
BLACK
6
CONTINUOUS
10
21.51
20
32.75
11
21.688
21
32.7299
0
LINE
8
BLACK
6
CONTINUOUS
10
21.688
20
32.7299
11
21.8571
21
32.6708
0
LINE
8
BLACK
6
CONTINUOUS
10
21.8571
20
32.6708
11
22.0088
21
32.5755
0
LINE
8
BLACK
6
CONTINUOUS
10
22.0088
20
32.5755
11
22.1355
21
32.4488
0
LINE
8
BLACK
6
CONTINUOUS
10
22.1355
20
32.4488
11
22.2308
21
32.2971
0
LINE
8
BLACK
6
CONTINUOUS
10
22.2308
20
32.2971
11
22.2899
21
32.128
0
LINE
8
BLACK
6
CONTINUOUS
10
22.2899
20
32.128
11
22.31
21
31.95
0
LINE
8
BLACK
6
CONTINUOUS
10
22.31
20
31.95
11
22.3006
21
31.8665
0
LINE
8
BLACK
6
CONTINUOUS
10
22.3006
20
31.8665
11
27.807
21
26.3601
0
LINE
8
BLACK
6
CONTINUOUS
10
27.807
20
26.3601
11
28.1694
21
26.3601
0
LINE
8
BLACK
6
CONTINUOUS
10
28.1694
20
26.3601
11
28.1991
21
26.4157
0
LINE
8
BLACK
6
CONTINUOUS
10
28.1991
20
26.4157
11
28.3235
21
26.5672
0
LINE
8
BLACK
6
CONTINUOUS
10
28.3235
20
26.5672
11
28.475
21
26.6916
0
LINE
8
BLACK
6
CONTINUOUS
10
28.475
20
26.6916
11
28.6479
21
26.784
0
LINE
8
BLACK
6
CONTINUOUS
10
28.6479
20
26.784
11
28.8355
21
26.8409
0
LINE
8
BLACK
6
CONTINUOUS
10
28.8355
20
26.8409
11
29.0306
21
26.8601
0
LINE
8
BLACK
6
CONTINUOUS
10
29.0306
20
26.8601
11
29.2257
21
26.8409
0
LINE
8
BLACK
6
CONTINUOUS
10
29.2257
20
26.8409
11
29.4133
21
26.784
0
LINE
8
BLACK
6
CONTINUOUS
10
29.4133
20
26.784
11
29.5862
21
26.6916
0
LINE
8
BLACK
6
CONTINUOUS
10
29.5862
20
26.6916
11
29.7377
21
26.5672
0
LINE
8
BLACK
6
CONTINUOUS
10
29.7377
20
26.5672
11
29.8621
21
26.4157
0
LINE
8
BLACK
6
CONTINUOUS
10
29.8621
20
26.4157
11
29.8918
21
26.3601
0
LINE
8
BLACK
6
CONTINUOUS
10
29.8918
20
26.3601
11
31.8972
21
26.3601
0
LINE
8
BLACK
6
CONTINUOUS
10
31.8972
20
26.3601
11
31.9502
21
26.3525
0
LINE
8
BLACK
6
CONTINUOUS
10
31.9502
20
26.3525
11
32.0035
21
26.3487
0
LINE
8
BLACK
6
CONTINUOUS
10
32.0035
20
26.3487
11
32.0203
21
26.3424
0
LINE
8
BLACK
6
CONTINUOUS
10
32.0203
20
26.3424
11
32.0381
21
26.3398
0
LINE
8
BLACK
6
CONTINUOUS
10
32.0381
20
26.3398
11
32.0867
21
26.3176
0
LINE
8
BLACK
6
CONTINUOUS
10
32.0867
20
26.3176
11
32.134
21
26.3
0
LINE
8
BLACK
6
CONTINUOUS
10
32.134
20
26.3
11
51.805
21
26.3
0
LINE
8
BLACK
6
CONTINUOUS
10
51.805
20
26.3
11
56.51
21
31.005
0
LINE
8
BLACK
6
CONTINUOUS
10
56.51
20
31.005
11
56.51
21
31.3757
0
LINE
8
BLACK
6
CONTINUOUS
10
56.51
20
31.3757
11
56.3845
21
31.5012
0
LINE
8
BLACK
6
CONTINUOUS
10
56.3845
20
31.5012
11
56.2892
21
31.6529
0
LINE
8
BLACK
6
CONTINUOUS
10
56.2892
20
31.6529
11
56.2301
21
31.822
0
LINE
8
BLACK
6
CONTINUOUS
10
56.2301
20
31.822
11
56.21
21
32
0
LINE
8
BLACK
6
CONTINUOUS
10
56.21
20
32
11
56.2301
21
32.178
0
LINE
8
BLACK
6
CONTINUOUS
10
56.2301
20
32.178
11
56.2892
21
32.3471
0
LINE
8
BLACK
6
CONTINUOUS
10
56.2892
20
32.3471
11
56.3845
21
32.4988
0
LINE
8
BLACK
6
CONTINUOUS
10
56.3845
20
32.4988
11
56.5112
21
32.6255
0
LINE
8
BLACK
6
CONTINUOUS
10
56.5112
20
32.6255
11
56.6629
21
32.7208
0
LINE
8
BLACK
6
CONTINUOUS
10
56.6629
20
32.7208
11
56.832
21
32.7799
0
LINE
8
BLACK
6
CONTINUOUS
10
56.832
20
32.7799
11
57.01
21
32.8
0
LINE
8
BLACK
6
CONTINUOUS
10
57.01
20
32.8
11
57.188
21
32.7799
0
LINE
8
BLACK
6
CONTINUOUS
10
29.6417
20
23.084
11
29.8108
21
23.0249
0
LINE
8
BLACK
6
CONTINUOUS
10
29.8108
20
23.0249
11
29.9625
21
22.9296
0
LINE
8
BLACK
6
CONTINUOUS
10
29.9625
20
22.9296
11
30.0891
21
22.8029
0
LINE
8
BLACK
6
CONTINUOUS
10
30.0891
20
22.8029
11
30.1844
21
22.6512
0
LINE
8
BLACK
6
CONTINUOUS
10
30.1844
20
22.6512
11
30.2436
21
22.4821
0
LINE
8
BLACK
6
CONTINUOUS
10
30.2436
20
22.4821
11
30.2637
21
22.3041
0
LINE
8
BLACK
6
CONTINUOUS
10
30.2637
20
22.3041
11
30.2436
21
22.1261
0
LINE
8
BLACK
6
CONTINUOUS
10
30.2436
20
22.1261
11
30.1844
21
21.957
0
LINE
8
BLACK
6
CONTINUOUS
10
30.1844
20
21.957
11
30.0891
21
21.8053
0
LINE
8
BLACK
6
CONTINUOUS
10
30.0891
20
21.8053
11
29.9625
21
21.6786
0
LINE
8
BLACK
6
CONTINUOUS
10
29.9625
20
21.6786
11
29.8108
21
21.5833
0
LINE
8
BLACK
6
CONTINUOUS
10
29.8108
20
21.5833
11
29.6417
21
21.5241
0
LINE
8
BLACK
6
CONTINUOUS
10
29.6417
20
21.5241
11
29.4637
21
21.5041
0
LINE
8
BLACK
6
CONTINUOUS
10
29.4637
20
21.5041
11
29.2856
21
21.5241
0
LINE
8
BLACK
6
CONTINUOUS
10
29.2856
20
21.5241
11
29.1166
21
21.5833
0
LINE
8
BLACK
6
CONTINUOUS
10
29.1166
20
21.5833
11
28.9649
21
21.6786
0
LINE
8
BLACK
6
CONTINUOUS
10
28.9649
20
21.6786
11
28.8382
21
21.8053
0
LINE
8
BLACK
6
CONTINUOUS
10
28.8382
20
21.8053
11
28.7429
21
21.957
0
LINE
8
BLACK
6
CONTINUOUS
10
28.7429
20
21.957
11
28.6837
21
22.1261
0
LINE
8
BLACK
6
CONTINUOUS
10
28.6837
20
22.1261
11
28.6637
21
22.3041
0
LINE
8
BLACK
6
CONTINUOUS
10
28.6637
20
22.3041
11
28.6837
21
22.4821
0
LINE
8
BLACK
6
CONTINUOUS
10
28.6837
20
22.4821
11
28.7429
21
22.6512
0
LINE
8
BLACK
6
CONTINUOUS
10
28.7429
20
22.6512
11
28.8382
21
22.8029
0
LINE
8
BLACK
6
CONTINUOUS
10
28.8382
20
22.8029
11
28.9649
21
22.9296
0
LINE
8
BLACK
6
CONTINUOUS
10
28.9649
20
22.9296
11
29.1166
21
23.0249
0
LINE
8
BLACK
6
CONTINUOUS
10
29.1166
20
23.0249
11
29.2856
21
23.084
0
LINE
8
BLACK
6
CONTINUOUS
10
29.2856
20
23.084
11
29.4637
21
23.1041
0
LINE
8
BLACK
6
CONTINUOUS
10
29.4637
20
23.1041
11
29.6417
21
23.084
0
LINE
8
BLACK
6
CONTINUOUS
10
27.1017
20
23.084
11
27.2708
21
23.0249
0
LINE
8
BLACK
6
CONTINUOUS
10
27.2708
20
23.0249
11
27.4225
21
22.9296
0
LINE
8
BLACK
6
CONTINUOUS
10
27.4225
20
22.9296
11
27.5491
21
22.8029
0
LINE
8
BLACK
6
CONTINUOUS
10
27.5491
20
22.8029
11
27.6444
21
22.6512
0
LINE
8
BLACK
6
CONTINUOUS
10
27.6444
20
22.6512
11
27.7036
21
22.4821
0
LINE
8
BLACK
6
CONTINUOUS
10
27.7036
20
22.4821
11
27.7237
21
22.3041
0
LINE
8
BLACK
6
CONTINUOUS
10
27.7237
20
22.3041
11
27.7036
21
22.1261
0
LINE
8
BLACK
6
CONTINUOUS
10
27.7036
20
22.1261
11
27.6444
21
21.957
0
LINE
8
BLACK
6
CONTINUOUS
10
27.6444
20
21.957
11
27.5491
21
21.8053
0
LINE
8
BLACK
6
CONTINUOUS
10
27.5491
20
21.8053
11
27.4225
21
21.6786
0
LINE
8
BLACK
6
CONTINUOUS
10
27.4225
20
21.6786
11
27.2708
21
21.5833
0
LINE
8
BLACK
6
CONTINUOUS
10
27.2708
20
21.5833
11
27.1017
21
21.5241
0
LINE
8
BLACK
6
CONTINUOUS
10
27.1017
20
21.5241
11
26.9237
21
21.5041
0
LINE
8
BLACK
6
CONTINUOUS
10
26.9237
20
21.5041
11
26.7456
21
21.5241
0
LINE
8
BLACK
6
CONTINUOUS
10
26.7456
20
21.5241
11
26.5766
21
21.5833
0
LINE
8
BLACK
6
CONTINUOUS
10
26.5766
20
21.5833
11
26.4249
21
21.6786
0
LINE
8
BLACK
6
CONTINUOUS
10
26.4249
20
21.6786
11
26.2982
21
21.8053
0
LINE
8
BLACK
6
CONTINUOUS
10
26.2982
20
21.8053
11
26.2029
21
21.957
0
LINE
8
BLACK
6
CONTINUOUS
10
26.2029
20
21.957
11
26.1437
21
22.1261
0
LINE
8
BLACK
6
CONTINUOUS
10
26.1437
20
22.1261
11
26.1237
21
22.3041
0
LINE
8
BLACK
6
CONTINUOUS
10
26.1237
20
22.3041
11
26.1437
21
22.4821
0
LINE
8
BLACK
6
CONTINUOUS
10
26.1437
20
22.4821
11
26.2029
21
22.6512
0
LINE
8
BLACK
6
CONTINUOUS
10
26.2029
20
22.6512
11
26.2982
21
22.8029
0
LINE
8
BLACK
6
CONTINUOUS
10
26.2982
20
22.8029
11
26.4249
21
22.9296
0
LINE
8
BLACK
6
CONTINUOUS
10
26.4249
20
22.9296
11
26.5766
21
23.0249
0
LINE
8
BLACK
6
CONTINUOUS
10
26.5766
20
23.0249
11
26.7456
21
23.084
0
LINE
8
BLACK
6
CONTINUOUS
10
26.7456
20
23.084
11
26.9237
21
23.1041
0
LINE
8
BLACK
6
CONTINUOUS
10
26.9237
20
23.1041
11
27.1017
21
23.084
0
LINE
8
BLACK
6
CONTINUOUS
10
24.5617
20
23.084
11
24.7308
21
23.0249
0
LINE
8
BLACK
6
CONTINUOUS
10
24.7308
20
23.0249
11
24.8825
21
22.9296
0
LINE
8
BLACK
6
CONTINUOUS
10
24.8825
20
22.9296
11
25.0091
21
22.8029
0
LINE
8
BLACK
6
CONTINUOUS
10
25.0091
20
22.8029
11
25.1044
21
22.6512
0
LINE
8
BLACK
6
CONTINUOUS
10
25.1044
20
22.6512
11
25.1636
21
22.4821
0
LINE
8
BLACK
6
CONTINUOUS
10
25.1636
20
22.4821
11
25.1837
21
22.3041
0
LINE
8
BLACK
6
CONTINUOUS
10
25.1837
20
22.3041
11
25.1636
21
22.1261
0
LINE
8
BLACK
6
CONTINUOUS
10
25.1636
20
22.1261
11
25.1044
21
21.957
0
LINE
8
BLACK
6
CONTINUOUS
10
25.1044
20
21.957
11
25.0091
21
21.8053
0
LINE
8
BLACK
6
CONTINUOUS
10
25.0091
20
21.8053
11
24.8825
21
21.6786
0
LINE
8
BLACK
6
CONTINUOUS
10
24.8825
20
21.6786
11
24.7308
21
21.5833
0
LINE
8
BLACK
6
CONTINUOUS
10
24.7308
20
21.5833
11
24.5617
21
21.5241
0
LINE
8
BLACK
6
CONTINUOUS
10
24.5617
20
21.5241
11
24.3837
21
21.5041
0
LINE
8
BLACK
6
CONTINUOUS
10
24.3837
20
21.5041
11
24.2056
21
21.5241
0
LINE
8
BLACK
6
CONTINUOUS
10
24.2056
20
21.5241
11
24.0366
21
21.5833
0
LINE
8
BLACK
6
CONTINUOUS
10
24.0366
20
21.5833
11
23.8849
21
21.6786
0
LINE
8
BLACK
6
CONTINUOUS
10
23.8849
20
21.6786
11
23.7582
21
21.8053
0
LINE
8
BLACK
6
CONTINUOUS
10
23.7582
20
21.8053
11
23.6629
21
21.957
0
LINE
8
BLACK
6
CONTINUOUS
10
23.6629
20
21.957
11
23.6037
21
22.1261
0
LINE
8
BLACK
6
CONTINUOUS
10
23.6037
20
22.1261
11
23.5837
21
22.3041
0
LINE
8
BLACK
6
CONTINUOUS
10
23.5837
20
22.3041
11
23.6037
21
22.4821
0
LINE
8
BLACK
6
CONTINUOUS
10
23.6037
20
22.4821
11
23.6629
21
22.6512
0
LINE
8
BLACK
6
CONTINUOUS
10
23.6629
20
22.6512
11
23.7582
21
22.8029
0
LINE
8
BLACK
6
CONTINUOUS
10
23.7582
20
22.8029
11
23.8849
21
22.9296
0
LINE
8
BLACK
6
CONTINUOUS
10
23.8849
20
22.9296
11
24.0366
21
23.0249
0
LINE
8
BLACK
6
CONTINUOUS
10
24.0366
20
23.0249
11
24.2056
21
23.084
0
LINE
8
BLACK
6
CONTINUOUS
10
24.2056
20
23.084
11
24.3837
21
23.1041
0
LINE
8
BLACK
6
CONTINUOUS
10
24.3837
20
23.1041
11
24.5617
21
23.084
0
LINE
8
BLACK
6
CONTINUOUS
10
22.0217
20
23.084
11
22.1908
21
23.0249
0
LINE
8
BLACK
6
CONTINUOUS
10
22.1908
20
23.0249
11
22.3425
21
22.9296
0
LINE
8
BLACK
6
CONTINUOUS
10
22.3425
20
22.9296
11
22.4691
21
22.8029
0
LINE
8
BLACK
6
CONTINUOUS
10
22.4691
20
22.8029
11
22.5644
21
22.6512
0
LINE
8
BLACK
6
CONTINUOUS
10
22.5644
20
22.6512
11
22.6236
21
22.4821
0
LINE
8
BLACK
6
CONTINUOUS
10
22.6236
20
22.4821
11
22.6437
21
22.3041
0
LINE
8
BLACK
6
CONTINUOUS
10
22.6437
20
22.3041
11
22.6236
21
22.1261
0
LINE
8
BLACK
6
CONTINUOUS
10
22.6236
20
22.1261
11
22.5644
21
21.957
0
LINE
8
BLACK
6
CONTINUOUS
10
22.5644
20
21.957
11
22.4691
21
21.8053
0
LINE
8
BLACK
6
CONTINUOUS
10
22.4691
20
21.8053
11
22.3425
21
21.6786
0
LINE
8
BLACK
6
CONTINUOUS
10
22.3425
20
21.6786
11
22.1908
21
21.5833
0
LINE
8
BLACK
6
CONTINUOUS
10
22.1908
20
21.5833
11
22.0217
21
21.5241
0
LINE
8
BLACK
6
CONTINUOUS
10
22.0217
20
21.5241
11
21.8437
21
21.5041
0
LINE
8
BLACK
6
CONTINUOUS
10
21.8437
20
21.5041
11
21.6656
21
21.5241
0
LINE
8
BLACK
6
CONTINUOUS
10
21.6656
20
21.5241
11
21.4966
21
21.5833
0
LINE
8
BLACK
6
CONTINUOUS
10
21.4966
20
21.5833
11
21.3449
21
21.6786
0
LINE
8
BLACK
6
CONTINUOUS
10
21.3449
20
21.6786
11
21.2182
21
21.8053
0
LINE
8
BLACK
6
CONTINUOUS
10
21.2182
20
21.8053
11
21.1229
21
21.957
0
LINE
8
BLACK
6
CONTINUOUS
10
21.1229
20
21.957
11
21.0637
21
22.1261
0
LINE
8
BLACK
6
CONTINUOUS
10
21.0637
20
22.1261
11
21.0437
21
22.3041
0
LINE
8
BLACK
6
CONTINUOUS
10
21.0437
20
22.3041
11
21.0637
21
22.4821
0
LINE
8
BLACK
6
CONTINUOUS
10
21.0637
20
22.4821
11
21.1229
21
22.6512
0
LINE
8
BLACK
6
CONTINUOUS
10
21.1229
20
22.6512
11
21.2182
21
22.8029
0
LINE
8
BLACK
6
CONTINUOUS
10
21.2182
20
22.8029
11
21.3449
21
22.9296
0
LINE
8
BLACK
6
CONTINUOUS
10
21.3449
20
22.9296
11
21.4966
21
23.0249
0
LINE
8
BLACK
6
CONTINUOUS
10
21.4966
20
23.0249
11
21.6656
21
23.084
0
LINE
8
BLACK
6
CONTINUOUS
10
21.6656
20
23.084
11
21.8437
21
23.1041
0
LINE
8
BLACK
6
CONTINUOUS
10
21.8437
20
23.1041
11
22.0217
21
23.084
0
LINE
8
BLACK
6
CONTINUOUS
10
19.4817
20
23.084
11
19.6508
21
23.0249
0
LINE
8
BLACK
6
CONTINUOUS
10
19.6508
20
23.0249
11
19.8025
21
22.9296
0
LINE
8
BLACK
6
CONTINUOUS
10
19.8025
20
22.9296
11
19.9291
21
22.8029
0
LINE
8
BLACK
6
CONTINUOUS
10
19.9291
20
22.8029
11
20.0244
21
22.6512
0
LINE
8
BLACK
6
CONTINUOUS
10
20.0244
20
22.6512
11
20.0836
21
22.4821
0
LINE
8
BLACK
6
CONTINUOUS
10
20.0836
20
22.4821
11
20.1037
21
22.3041
0
LINE
8
BLACK
6
CONTINUOUS
10
20.1037
20
22.3041
11
20.0836
21
22.1261
0
LINE
8
BLACK
6
CONTINUOUS
10
20.0836
20
22.1261
11
20.0244
21
21.957
0
LINE
8
BLACK
6
CONTINUOUS
10
20.0244
20
21.957
11
19.9291
21
21.8053
0
LINE
8
BLACK
6
CONTINUOUS
10
19.9291
20
21.8053
11
19.8025
21
21.6786
0
LINE
8
BLACK
6
CONTINUOUS
10
19.8025
20
21.6786
11
19.6508
21
21.5833
0
LINE
8
BLACK
6
CONTINUOUS
10
19.6508
20
21.5833
11
19.4817
21
21.5241
0
LINE
8
BLACK
6
CONTINUOUS
10
19.4817
20
21.5241
11
19.3037
21
21.5041
0
LINE
8
BLACK
6
CONTINUOUS
10
19.3037
20
21.5041
11
19.1256
21
21.5241
0
LINE
8
BLACK
6
CONTINUOUS
10
19.1256
20
21.5241
11
18.9566
21
21.5833
0
LINE
8
BLACK
6
CONTINUOUS
10
18.9566
20
21.5833
11
18.8049
21
21.6786
0
LINE
8
BLACK
6
CONTINUOUS
10
18.8049
20
21.6786
11
18.6782
21
21.8053
0
LINE
8
BLACK
6
CONTINUOUS
10
18.6782
20
21.8053
11
18.5829
21
21.957
0
LINE
8
BLACK
6
CONTINUOUS
10
18.5829
20
21.957
11
18.5237
21
22.1261
0
LINE
8
BLACK
6
CONTINUOUS
10
18.5237
20
22.1261
11
18.5037
21
22.3041
0
LINE
8
BLACK
6
CONTINUOUS
10
18.5037
20
22.3041
11
18.5237
21
22.4821
0
LINE
8
BLACK
6
CONTINUOUS
10
18.5237
20
22.4821
11
18.5829
21
22.6512
0
LINE
8
BLACK
6
CONTINUOUS
10
18.5829
20
22.6512
11
18.6782
21
22.8029
0
LINE
8
BLACK
6
CONTINUOUS
10
18.6782
20
22.8029
11
18.8049
21
22.9296
0
LINE
8
BLACK
6
CONTINUOUS
10
18.8049
20
22.9296
11
18.9566
21
23.0249
0
LINE
8
BLACK
6
CONTINUOUS
10
18.9566
20
23.0249
11
19.1256
21
23.084
0
LINE
8
BLACK
6
CONTINUOUS
10
19.1256
20
23.084
11
19.3037
21
23.1041
0
LINE
8
BLACK
6
CONTINUOUS
10
19.3037
20
23.1041
11
19.4817
21
23.084
0
LINE
8
BLACK
6
CONTINUOUS
10
22.4306
20
24.8601
11
20.4306
21
24.8601
0
LINE
8
BLACK
6
CONTINUOUS
10
20.4306
20
24.8601
11
20.4306
21
25.2639
0
LINE
8
BLACK
6
CONTINUOUS
10
20.4306
20
25.2639
11
17.5543
21
22.3876
0
LINE
8
BLACK
6
CONTINUOUS
10
17.5543
20
22.3876
11
17.5637
21
22.3041
0
LINE
8
BLACK
6
CONTINUOUS
10
17.5637
20
22.3041
11
17.5436
21
22.1261
0
LINE
8
BLACK
6
CONTINUOUS
10
17.5436
20
22.1261
11
17.4844
21
21.957
0
LINE
8
BLACK
6
CONTINUOUS
10
17.4844
20
21.957
11
17.3891
21
21.8053
0
LINE
8
BLACK
6
CONTINUOUS
10
17.3891
20
21.8053
11
17.2625
21
21.6786
0
LINE
8
BLACK
6
CONTINUOUS
10
17.2625
20
21.6786
11
17.1108
21
21.5833
0
LINE
8
BLACK
6
CONTINUOUS
10
17.1108
20
21.5833
11
16.9417
21
21.5241
0
LINE
8
BLACK
6
CONTINUOUS
10
16.9417
20
21.5241
11
16.7637
21
21.5041
0
LINE
8
BLACK
6
CONTINUOUS
10
16.7637
20
21.5041
11
16.5856
21
21.5241
0
LINE
8
BLACK
6
CONTINUOUS
10
16.5856
20
21.5241
11
16.4166
21
21.5833
0
LINE
8
BLACK
6
CONTINUOUS
10
16.4166
20
21.5833
11
16.2649
21
21.6786
0
LINE
8
BLACK
6
CONTINUOUS
10
16.2649
20
21.6786
11
16.1382
21
21.8053
0
LINE
8
BLACK
6
CONTINUOUS
10
16.1382
20
21.8053
11
16.0429
21
21.957
0
LINE
8
BLACK
6
CONTINUOUS
10
16.0429
20
21.957
11
15.9837
21
22.1261
0
LINE
8
BLACK
6
CONTINUOUS
10
15.9837
20
22.1261
11
15.9637
21
22.3041
0
LINE
8
BLACK
6
CONTINUOUS
10
15.9637
20
22.3041
11
15.9837
21
22.4821
0
LINE
8
BLACK
6
CONTINUOUS
10
15.9837
20
22.4821
11
16.0429
21
22.6512
0
LINE
8
BLACK
6
CONTINUOUS
10
16.0429
20
22.6512
11
16.1382
21
22.8029
0
LINE
8
BLACK
6
CONTINUOUS
10
16.1382
20
22.8029
11
16.2649
21
22.9296
0
LINE
8
BLACK
6
CONTINUOUS
10
16.2649
20
22.9296
11
16.4166
21
23.0249
0
LINE
8
BLACK
6
CONTINUOUS
10
16.4166
20
23.0249
11
16.5856
21
23.084
0
LINE
8
BLACK
6
CONTINUOUS
10
16.5856
20
23.084
11
16.7637
21
23.1041
0
LINE
8
BLACK
6
CONTINUOUS
10
16.7637
20
23.1041
11
16.8471
21
23.0947
0
LINE
8
BLACK
6
CONTINUOUS
10
16.8471
20
23.0947
11
19.9661
21
26.2136
0
LINE
8
BLACK
6
CONTINUOUS
10
19.9661
20
26.2136
11
20.0089
21
26.2457
0
LINE
8
BLACK
6
CONTINUOUS
10
20.0089
20
26.2457
11
20.0493
21
26.2807
0
LINE
8
BLACK
6
CONTINUOUS
10
20.0493
20
26.2807
11
20.0657
21
26.2882
0
LINE
8
BLACK
6
CONTINUOUS
10
20.0657
20
26.2882
11
20.08
21
26.2989
0
LINE
8
BLACK
6
CONTINUOUS
10
20.08
20
26.2989
11
20.1301
21
26.3176
0
LINE
8
BLACK
6
CONTINUOUS
10
20.1301
20
26.3176
11
20.1788
21
26.3398
0
LINE
8
BLACK
6
CONTINUOUS
10
20.1788
20
26.3398
11
20.1966
21
26.3424
0
LINE
8
BLACK
6
CONTINUOUS
10
20.1966
20
26.3424
11
20.2134
21
26.3487
0
LINE
8
BLACK
6
CONTINUOUS
10
20.2134
20
26.3487
11
20.2667
21
26.3525
0
LINE
8
BLACK
6
CONTINUOUS
10
20.2667
20
26.3525
11
20.3197
21
26.3601
0
LINE
8
BLACK
6
CONTINUOUS
10
20.3197
20
26.3601
11
20.4306
21
26.3601
0
LINE
8
BLACK
6
CONTINUOUS
10
20.4306
20
26.3601
11
20.4306
21
26.8601
0
LINE
8
BLACK
6
CONTINUOUS
10
20.4306
20
26.8601
11
22.4306
21
26.8601
0
LINE
8
BLACK
6
CONTINUOUS
10
22.4306
20
26.8601
11
22.4306
21
24.8601
0
LINE
8
BLACK
6
CONTINUOUS
10
21.068
20
29.3799
11
21.2371
21
29.3208
0
LINE
8
BLACK
6
CONTINUOUS
10
21.2371
20
29.3208
11
21.3888
21
29.2255
0
LINE
8
BLACK
6
CONTINUOUS
10
21.3888
20
29.2255
11
21.5155
21
29.0988
0
LINE
8
BLACK
6
CONTINUOUS
10
21.5155
20
29.0988
11
21.6108
21
28.9471
0
LINE
8
BLACK
6
CONTINUOUS
10
21.6108
20
28.9471
11
21.6699
21
28.778
0
LINE
8
BLACK
6
CONTINUOUS
10
21.6699
20
28.778
11
21.69
21
28.6
0
LINE
8
BLACK
6
CONTINUOUS
10
21.69
20
28.6
11
21.6699
21
28.422
0
LINE
8
BLACK
6
CONTINUOUS
10
21.6699
20
28.422
11
21.6108
21
28.2529
0
LINE
8
BLACK
6
CONTINUOUS
10
21.6108
20
28.2529
11
21.5155
21
28.1012
0
LINE
8
BLACK
6
CONTINUOUS
10
21.5155
20
28.1012
11
21.3888
21
27.9745
0
LINE
8
BLACK
6
CONTINUOUS
10
21.3888
20
27.9745
11
21.2371
21
27.8792
0
LINE
8
BLACK
6
CONTINUOUS
10
21.2371
20
27.8792
11
21.068
21
27.8201
0
LINE
8
BLACK
6
CONTINUOUS
10
21.068
20
27.8201
11
20.89
21
27.8
0
LINE
8
BLACK
6
CONTINUOUS
10
20.89
20
27.8
11
20.712
21
27.8201
0
LINE
8
BLACK
6
CONTINUOUS
10
20.712
20
27.8201
11
20.5429
21
27.8792
0
LINE
8
BLACK
6
CONTINUOUS
10
20.5429
20
27.8792
11
20.5202
21
27.8935
0
LINE
8
BLACK
6
CONTINUOUS
10
20.5202
20
27.8935
11
15.0143
21
22.3876
0
LINE
8
BLACK
6
CONTINUOUS
10
15.0143
20
22.3876
11
15.0237
21
22.3041
0
LINE
8
BLACK
6
CONTINUOUS
10
15.0237
20
22.3041
11
15.0036
21
22.1261
0
LINE
8
BLACK
6
CONTINUOUS
10
15.0036
20
22.1261
11
14.9444
21
21.957
0
LINE
8
BLACK
6
CONTINUOUS
10
14.9444
20
21.957
11
14.8491
21
21.8053
0
LINE
8
BLACK
6
CONTINUOUS
10
14.8491
20
21.8053
11
14.7225
21
21.6786
0
LINE
8
BLACK
6
CONTINUOUS
10
14.7225
20
21.6786
11
14.5708
21
21.5833
0
LINE
8
BLACK
6
CONTINUOUS
10
14.5708
20
21.5833
11
14.4017
21
21.5241
0
LINE
8
BLACK
6
CONTINUOUS
10
14.4017
20
21.5241
11
14.2237
21
21.5041
0
LINE
8
BLACK
6
CONTINUOUS
10
14.2237
20
21.5041
11
14.0456
21
21.5241
0
LINE
8
BLACK
6
CONTINUOUS
10
14.0456
20
21.5241
11
13.8766
21
21.5833
0
LINE
8
BLACK
6
CONTINUOUS
10
13.8766
20
21.5833
11
13.7249
21
21.6786
0
LINE
8
BLACK
6
CONTINUOUS
10
13.7249
20
21.6786
11
13.5982
21
21.8053
0
LINE
8
BLACK
6
CONTINUOUS
10
13.5982
20
21.8053
11
13.5029
21
21.957
0
LINE
8
BLACK
6
CONTINUOUS
10
13.5029
20
21.957
11
13.4437
21
22.1261
0
LINE
8
BLACK
6
CONTINUOUS
10
13.4437
20
22.1261
11
13.4237
21
22.3041
0
LINE
8
BLACK
6
CONTINUOUS
10
13.4237
20
22.3041
11
13.4437
21
22.4821
0
LINE
8
BLACK
6
CONTINUOUS
10
13.4437
20
22.4821
11
13.5029
21
22.6512
0
LINE
8
BLACK
6
CONTINUOUS
10
13.5029
20
22.6512
11
13.5982
21
22.8029
0
LINE
8
BLACK
6
CONTINUOUS
10
13.5982
20
22.8029
11
13.7249
21
22.9296
0
LINE
8
BLACK
6
CONTINUOUS
10
13.7249
20
22.9296
11
13.8766
21
23.0249
0
LINE
8
BLACK
6
CONTINUOUS
10
13.8766
20
23.0249
11
14.0456
21
23.084
0
LINE
8
BLACK
6
CONTINUOUS
10
14.0456
20
23.084
11
14.2237
21
23.1041
0
LINE
8
BLACK
6
CONTINUOUS
10
14.2237
20
23.1041
11
14.3071
21
23.0947
0
LINE
8
BLACK
6
CONTINUOUS
10
14.3071
20
23.0947
11
20.166
21
28.9536
0
LINE
8
BLACK
6
CONTINUOUS
10
20.166
20
28.9536
11
20.1797
21
28.9638
0
LINE
8
BLACK
6
CONTINUOUS
10
20.1797
20
28.9638
11
20.2645
21
29.0988
0
LINE
8
BLACK
6
CONTINUOUS
10
20.2645
20
29.0988
11
20.3912
21
29.2255
0
LINE
8
BLACK
6
CONTINUOUS
10
20.3912
20
29.2255
11
20.5429
21
29.3208
0
LINE
8
BLACK
6
CONTINUOUS
10
20.5429
20
29.3208
11
20.712
21
29.3799
0
LINE
8
BLACK
6
CONTINUOUS
10
20.712
20
29.3799
11
20.89
21
29.4
0
LINE
8
BLACK
6
CONTINUOUS
10
20.89
20
29.4
11
21.068
21
29.3799
0
LINE
8
BLACK
6
CONTINUOUS
10
14.068
20
32.7299
11
14.2371
21
32.6708
0
LINE
8
BLACK
6
CONTINUOUS
10
14.2371
20
32.6708
11
14.3888
21
32.5755
0
LINE
8
BLACK
6
CONTINUOUS
10
14.3888
20
32.5755
11
14.5155
21
32.4488
0
LINE
8
BLACK
6
CONTINUOUS
10
14.5155
20
32.4488
11
14.6108
21
32.2971
0
LINE
8
BLACK
6
CONTINUOUS
10
14.6108
20
32.2971
11
14.6699
21
32.128
0
LINE
8
BLACK
6
CONTINUOUS
10
14.6699
20
32.128
11
14.69
21
31.95
0
LINE
8
BLACK
6
CONTINUOUS
10
14.69
20
31.95
11
14.6699
21
31.772
0
LINE
8
BLACK
6
CONTINUOUS
10
14.6699
20
31.772
11
14.6108
21
31.6029
0
LINE
8
BLACK
6
CONTINUOUS
10
14.6108
20
31.6029
11
14.5155
21
31.4512
0
LINE
8
BLACK
6
CONTINUOUS
10
14.5155
20
31.4512
11
14.3888
21
31.3245
0
LINE
8
BLACK
6
CONTINUOUS
10
14.3888
20
31.3245
11
14.2371
21
31.2292
0
LINE
8
BLACK
6
CONTINUOUS
10
14.2371
20
31.2292
11
14.068
21
31.1701
0
LINE
8
BLACK
6
CONTINUOUS
10
14.068
20
31.1701
11
13.89
21
31.15
0
LINE
8
BLACK
6
CONTINUOUS
10
13.89
20
31.15
11
13.712
21
31.1701
0
LINE
8
BLACK
6
CONTINUOUS
10
13.712
20
31.1701
11
13.5429
21
31.2292
0
LINE
8
BLACK
6
CONTINUOUS
10
13.5429
20
31.2292
11
13.3912
21
31.3245
0
LINE
8
BLACK
6
CONTINUOUS
10
13.3912
20
31.3245
11
13.3199
21
31.3959
0
LINE
8
BLACK
6
CONTINUOUS
10
13.3199
20
31.3959
11
11.4316
21
29.5076
0
LINE
8
BLACK
6
CONTINUOUS
10
11.4316
20
29.5076
11
11.441
21
29.4241
0
LINE
8
BLACK
6
CONTINUOUS
10
11.441
20
29.4241
11
11.4209
21
29.2461
0
LINE
8
BLACK
6
CONTINUOUS
10
11.4209
20
29.2461
11
11.3617
21
29.077
0
LINE
8
BLACK
6
CONTINUOUS
10
11.3617
20
29.077
11
11.2664
21
28.9253
0
LINE
8
BLACK
6
CONTINUOUS
10
11.2664
20
28.9253
11
11.141
21
28.7998
0
LINE
8
BLACK
6
CONTINUOUS
10
11.141
20
28.7998
11
11.141
21
26.9661
0
LINE
8
BLACK
6
CONTINUOUS
10
11.141
20
26.9661
11
12.0372
21
26.0699
0
LINE
8
BLACK
6
CONTINUOUS
10
12.0372
20
26.0699
11
12.0693
21
26.0271
0
LINE
8
BLACK
6
CONTINUOUS
10
12.0693
20
26.0271
11
12.1043
21
25.9867
0
LINE
8
BLACK
6
CONTINUOUS
10
12.1043
20
25.9867
11
12.1117
21
25.9703
0
LINE
8
BLACK
6
CONTINUOUS
10
12.1117
20
25.9703
11
12.1225
21
25.956
0
LINE
8
BLACK
6
CONTINUOUS
10
12.1225
20
25.956
11
12.1412
21
25.9059
0
LINE
8
BLACK
6
CONTINUOUS
10
12.1412
20
25.9059
11
12.1634
21
25.8572
0
LINE
8
BLACK
6
CONTINUOUS
10
12.1634
20
25.8572
11
12.166
21
25.8394
0
LINE
8
BLACK
6
CONTINUOUS
10
12.166
20
25.8394
11
12.1722
21
25.8226
0
LINE
8
BLACK
6
CONTINUOUS
10
12.1722
20
25.8226
11
12.176
21
25.7693
0
LINE
8
BLACK
6
CONTINUOUS
10
12.176
20
25.7693
11
12.1837
21
25.7163
0
LINE
8
BLACK
6
CONTINUOUS
10
12.1837
20
25.7163
11
12.1837
21
22.9283
0
LINE
8
BLACK
6
CONTINUOUS
10
12.1837
20
22.9283
11
12.3091
21
22.8029
0
LINE
8
BLACK
6
CONTINUOUS
10
12.3091
20
22.8029
11
12.4044
21
22.6512
0
LINE
8
BLACK
6
CONTINUOUS
10
12.4044
20
22.6512
11
12.4636
21
22.4821
0
LINE
8
BLACK
6
CONTINUOUS
10
12.4636
20
22.4821
11
12.4837
21
22.3041
0
LINE
8
BLACK
6
CONTINUOUS
10
12.4837
20
22.3041
11
12.4636
21
22.1261
0
LINE
8
BLACK
6
CONTINUOUS
10
12.4636
20
22.1261
11
12.4044
21
21.957
0
LINE
8
BLACK
6
CONTINUOUS
10
12.4044
20
21.957
11
12.3091
21
21.8053
0
LINE
8
BLACK
6
CONTINUOUS
10
12.3091
20
21.8053
11
12.1825
21
21.6786
0
LINE
8
BLACK
6
CONTINUOUS
10
12.1825
20
21.6786
11
12.0308
21
21.5833
0
LINE
8
BLACK
6
CONTINUOUS
10
12.0308
20
21.5833
11
11.8617
21
21.5241
0
LINE
8
BLACK
6
CONTINUOUS
10
11.8617
20
21.5241
11
11.6837
21
21.5041
0
LINE
8
BLACK
6
CONTINUOUS
10
11.6837
20
21.5041
11
11.5056
21
21.5241
0
LINE
8
BLACK
6
CONTINUOUS
10
11.5056
20
21.5241
11
11.3366
21
21.5833
0
LINE
8
BLACK
6
CONTINUOUS
10
11.3366
20
21.5833
11
11.1849
21
21.6786
0
LINE
8
BLACK
6
CONTINUOUS
10
11.1849
20
21.6786
11
11.0582
21
21.8053
0
LINE
8
BLACK
6
CONTINUOUS
10
11.0582
20
21.8053
11
10.9629
21
21.957
0
LINE
8
BLACK
6
CONTINUOUS
10
10.9629
20
21.957
11
10.9037
21
22.1261
0
LINE
8
BLACK
6
CONTINUOUS
10
10.9037
20
22.1261
11
10.8837
21
22.3041
0
LINE
8
BLACK
6
CONTINUOUS
10
10.8837
20
22.3041
11
10.9037
21
22.4821
0
LINE
8
BLACK
6
CONTINUOUS
10
10.9037
20
22.4821
11
10.9629
21
22.6512
0
LINE
8
BLACK
6
CONTINUOUS
10
10.9629
20
22.6512
11
11.0582
21
22.8029
0
LINE
8
BLACK
6
CONTINUOUS
10
11.0582
20
22.8029
11
11.1837
21
22.9283
0
LINE
8
BLACK
6
CONTINUOUS
10
11.1837
20
22.9283
11
11.1837
21
25.5092
0
LINE
8
BLACK
6
CONTINUOUS
10
11.1837
20
25.5092
11
10.2874
21
26.4055
0
LINE
8
BLACK
6
CONTINUOUS
10
10.2874
20
26.4055
11
10.2554
21
26.4483
0
LINE
8
BLACK
6
CONTINUOUS
10
10.2554
20
26.4483
11
10.2203
21
26.4887
0
LINE
8
BLACK
6
CONTINUOUS
10
10.2203
20
26.4887
11
10.2129
21
26.505
0
LINE
8
BLACK
6
CONTINUOUS
10
10.2129
20
26.505
11
10.2021
21
26.5194
0
LINE
8
BLACK
6
CONTINUOUS
10
10.2021
20
26.5194
11
10.1834
21
26.5695
0
LINE
8
BLACK
6
CONTINUOUS
10
10.1834
20
26.5695
11
10.1612
21
26.6182
0
LINE
8
BLACK
6
CONTINUOUS
10
10.1612
20
26.6182
11
10.1587
21
26.6359
0
LINE
8
BLACK
6
CONTINUOUS
10
10.1587
20
26.6359
11
10.1524
21
26.6528
0
LINE
8
BLACK
6
CONTINUOUS
10
10.1524
20
26.6528
11
10.1486
21
26.7061
0
LINE
8
BLACK
6
CONTINUOUS
10
10.1486
20
26.7061
11
10.141
21
26.759
0
LINE
8
BLACK
6
CONTINUOUS
10
10.141
20
26.759
11
10.141
21
28.7998
0
LINE
8
BLACK
6
CONTINUOUS
10
10.141
20
28.7998
11
10.0155
21
28.9253
0
LINE
8
BLACK
6
CONTINUOUS
10
10.0155
20
28.9253
11
9.92019
21
29.077
0
LINE
8
BLACK
6
CONTINUOUS
10
9.92019
20
29.077
11
9.86102
21
29.2461
0
LINE
8
BLACK
6
CONTINUOUS
10
9.86102
20
29.2461
11
9.84096
21
29.4241
0
LINE
8
BLACK
6
CONTINUOUS
10
9.84096
20
29.4241
11
9.86102
21
29.6021
0
LINE
8
BLACK
6
CONTINUOUS
10
9.86102
20
29.6021
11
9.92019
21
29.7712
0
LINE
8
BLACK
6
CONTINUOUS
10
9.92019
20
29.7712
11
10.0155
21
29.9229
0
LINE
8
BLACK
6
CONTINUOUS
10
10.0155
20
29.9229
11
10.1422
21
30.0496
0
LINE
8
BLACK
6
CONTINUOUS
10
10.1422
20
30.0496
11
10.2939
21
30.1449
0
LINE
8
BLACK
6
CONTINUOUS
10
10.2939
20
30.1449
11
10.4629
21
30.204
0
LINE
8
BLACK
6
CONTINUOUS
10
10.4629
20
30.204
11
10.641
21
30.2241
0
LINE
8
BLACK
6
CONTINUOUS
10
10.641
20
30.2241
11
10.7244
21
30.2147
0
LINE
8
BLACK
6
CONTINUOUS
10
10.7244
20
30.2147
11
12.8133
21
32.3036
0
LINE
8
BLACK
6
CONTINUOUS
10
12.8133
20
32.3036
11
12.8561
21
32.3356
0
LINE
8
BLACK
6
CONTINUOUS
10
12.8561
20
32.3356
11
12.8965
21
32.3706
0
LINE
8
BLACK
6
CONTINUOUS
10
12.8965
20
32.3706
11
12.9129
21
32.3781
0
LINE
8
BLACK
6
CONTINUOUS
10
12.9129
20
32.3781
11
12.9272
21
32.3888
0
LINE
8
BLACK
6
CONTINUOUS
10
12.9272
20
32.3888
11
12.9774
21
32.4075
0
LINE
8
BLACK
6
CONTINUOUS
10
12.9774
20
32.4075
11
13.026
21
32.4297
0
LINE
8
BLACK
6
CONTINUOUS
10
13.026
20
32.4297
11
13.0438
21
32.4323
0
LINE
8
BLACK
6
CONTINUOUS
10
13.0438
20
32.4323
11
13.0606
21
32.4386
0
LINE
8
BLACK
6
CONTINUOUS
10
13.0606
20
32.4386
11
13.1139
21
32.4424
0
LINE
8
BLACK
6
CONTINUOUS
10
13.1139
20
32.4424
11
13.1669
21
32.45
0
LINE
8
BLACK
6
CONTINUOUS
10
13.1669
20
32.45
11
13.2657
21
32.45
0
LINE
8
BLACK
6
CONTINUOUS
10
13.2657
20
32.45
11
13.3912
21
32.5755
0
LINE
8
BLACK
6
CONTINUOUS
10
13.3912
20
32.5755
11
13.5429
21
32.6708
0
LINE
8
BLACK
6
CONTINUOUS
10
13.5429
20
32.6708
11
13.712
21
32.7299
0
LINE
8
BLACK
6
CONTINUOUS
10
13.712
20
32.7299
11
13.89
21
32.75
0
LINE
8
BLACK
6
CONTINUOUS
10
13.89
20
32.75
11
14.068
21
32.7299
0
LINE
8
BLACK
6
CONTINUOUS
10
6.41096
20
28.5741
11
6.06096
21
28.5741
0
LINE
8
BLACK
6
CONTINUOUS
10
6.06096
20
28.5741
11
6.06096
21
27.9861
0
LINE
8
BLACK
6
CONTINUOUS
10
6.06096
20
27.9861
11
7.05651
21
26.9906
0
LINE
8
BLACK
6
CONTINUOUS
10
7.05651
20
26.9906
11
7.14
21
27
0
LINE
8
BLACK
6
CONTINUOUS
10
7.14
20
27
11
7.31802
21
26.9799
0
LINE
8
BLACK
6
CONTINUOUS
10
7.31802
20
26.9799
11
7.48711
21
26.9208
0
LINE
8
BLACK
6
CONTINUOUS
10
7.48711
20
26.9208
11
7.63879
21
26.8255
0
LINE
8
BLACK
6
CONTINUOUS
10
7.63879
20
26.8255
11
7.76546
21
26.6988
0
LINE
8
BLACK
6
CONTINUOUS
10
7.76546
20
26.6988
11
7.86077
21
26.5471
0
LINE
8
BLACK
6
CONTINUOUS
10
7.86077
20
26.5471
11
7.91994
21
26.378
0
LINE
8
BLACK
6
CONTINUOUS
10
7.91994
20
26.378
11
7.94
21
26.2
0
LINE
8
BLACK
6
CONTINUOUS
10
7.94
20
26.2
11
7.93059
21
26.1165
0
LINE
8
BLACK
6
CONTINUOUS
10
7.93059
20
26.1165
11
9.49721
21
24.5499
0
LINE
8
BLACK
6
CONTINUOUS
10
9.49721
20
24.5499
11
9.52926
21
24.5071
0
LINE
8
BLACK
6
CONTINUOUS
10
9.52926
20
24.5071
11
9.56429
21
24.4667
0
LINE
8
BLACK
6
CONTINUOUS
10
9.56429
20
24.4667
11
9.57174
21
24.4503
0
LINE
8
BLACK
6
CONTINUOUS
10
9.57174
20
24.4503
11
9.5825
21
24.436
0
LINE
8
BLACK
6
CONTINUOUS
10
9.5825
20
24.436
11
9.60119
21
24.3859
0
LINE
8
BLACK
6
CONTINUOUS
10
9.60119
20
24.3859
11
9.62341
21
24.3372
0
LINE
8
BLACK
6
CONTINUOUS
10
9.62341
20
24.3372
11
9.62596
21
24.3194
0
LINE
8
BLACK
6
CONTINUOUS
10
9.62596
20
24.3194
11
9.63223
21
24.3026
0
LINE
8
BLACK
6
CONTINUOUS
10
9.63223
20
24.3026
11
9.63605
21
24.2493
0
LINE
8
BLACK
6
CONTINUOUS
10
9.63605
20
24.2493
11
9.64366
21
24.1963
0
LINE
8
BLACK
6
CONTINUOUS
10
9.64366
20
24.1963
11
9.64366
21
22.9283
0
LINE
8
BLACK
6
CONTINUOUS
10
9.64366
20
22.9283
11
9.76912
21
22.8029
0
LINE
8
BLACK
6
CONTINUOUS
10
9.76912
20
22.8029
11
9.86444
21
22.6512
0
LINE
8
BLACK
6
CONTINUOUS
10
9.86444
20
22.6512
11
9.9236
21
22.4821
0
LINE
8
BLACK
6
CONTINUOUS
10
9.9236
20
22.4821
11
9.94366
21
22.3041
0
LINE
8
BLACK
6
CONTINUOUS
10
9.94366
20
22.3041
11
9.9236
21
22.1261
0
LINE
8
BLACK
6
CONTINUOUS
10
9.9236
20
22.1261
11
9.86444
21
21.957
0
LINE
8
BLACK
6
CONTINUOUS
10
9.86444
20
21.957
11
9.76912
21
21.8053
0
LINE
8
BLACK
6
CONTINUOUS
10
9.76912
20
21.8053
11
9.64245
21
21.6786
0
LINE
8
BLACK
6
CONTINUOUS
10
9.64245
20
21.6786
11
9.49077
21
21.5833
0
LINE
8
BLACK
6
CONTINUOUS
10
9.49077
20
21.5833
11
9.32168
21
21.5241
0
LINE
8
BLACK
6
CONTINUOUS
10
9.32168
20
21.5241
11
9.14366
21
21.5041
0
LINE
8
BLACK
6
CONTINUOUS
10
9.14366
20
21.5041
11
8.96564
21
21.5241
0
LINE
8
BLACK
6
CONTINUOUS
10
8.96564
20
21.5241
11
8.79655
21
21.5833
0
LINE
8
BLACK
6
CONTINUOUS
10
8.79655
20
21.5833
11
8.64487
21
21.6786
0
LINE
8
BLACK
6
CONTINUOUS
10
8.64487
20
21.6786
11
8.5182
21
21.8053
0
LINE
8
BLACK
6
CONTINUOUS
10
8.5182
20
21.8053
11
8.42288
21
21.957
0
LINE
8
BLACK
6
CONTINUOUS
10
8.42288
20
21.957
11
8.36372
21
22.1261
0
LINE
8
BLACK
6
CONTINUOUS
10
8.36372
20
22.1261
11
8.34366
21
22.3041
0
LINE
8
BLACK
6
CONTINUOUS
10
8.34366
20
22.3041
11
8.36372
21
22.4821
0
LINE
8
BLACK
6
CONTINUOUS
10
8.36372
20
22.4821
11
8.42288
21
22.6512
0
LINE
8
BLACK
6
CONTINUOUS
10
8.42288
20
22.6512
11
8.5182
21
22.8029
0
LINE
8
BLACK
6
CONTINUOUS
10
8.5182
20
22.8029
11
8.64366
21
22.9283
0
LINE
8
BLACK
6
CONTINUOUS
10
8.64366
20
22.9283
11
8.64366
21
23.9892
0
LINE
8
BLACK
6
CONTINUOUS
10
8.64366
20
23.9892
11
7.22349
21
25.4094
0
LINE
8
BLACK
6
CONTINUOUS
10
7.22349
20
25.4094
11
7.14
21
25.4
0
LINE
8
BLACK
6
CONTINUOUS
10
7.14
20
25.4
11
6.96198
21
25.4201
0
LINE
8
BLACK
6
CONTINUOUS
10
6.96198
20
25.4201
11
6.79289
21
25.4792
0
LINE
8
BLACK
6
CONTINUOUS
10
6.79289
20
25.4792
11
6.64121
21
25.5745
0
LINE
8
BLACK
6
CONTINUOUS
10
6.64121
20
25.5745
11
6.51453
21
25.7012
0
LINE
8
BLACK
6
CONTINUOUS
10
6.51453
20
25.7012
11
6.41922
21
25.8529
0
LINE
8
BLACK
6
CONTINUOUS
10
6.41922
20
25.8529
11
6.36006
21
26.022
0
LINE
8
BLACK
6
CONTINUOUS
10
6.36006
20
26.022
11
6.34
21
26.2
0
LINE
8
BLACK
6
CONTINUOUS
10
6.34
20
26.2
11
6.34941
21
26.2835
0
LINE
8
BLACK
6
CONTINUOUS
10
6.34941
20
26.2835
11
5.20741
21
27.4255
0
LINE
8
BLACK
6
CONTINUOUS
10
5.20741
20
27.4255
11
5.17536
21
27.4683
0
LINE
8
BLACK
6
CONTINUOUS
10
5.17536
20
27.4683
11
5.14033
21
27.5087
0
LINE
8
BLACK
6
CONTINUOUS
10
5.14033
20
27.5087
11
5.13287
21
27.5251
0
LINE
8
BLACK
6
CONTINUOUS
10
5.13287
20
27.5251
11
5.12212
21
27.5394
0
LINE
8
BLACK
6
CONTINUOUS
10
5.12212
20
27.5394
11
5.10343
21
27.5895
0
LINE
8
BLACK
6
CONTINUOUS
10
5.10343
20
27.5895
11
5.08121
21
27.6382
0
LINE
8
BLACK
6
CONTINUOUS
10
5.08121
20
27.6382
11
5.07866
21
27.6559
0
LINE
8
BLACK
6
CONTINUOUS
10
5.07866
20
27.6559
11
5.07239
21
27.6728
0
LINE
8
BLACK
6
CONTINUOUS
10
5.07239
20
27.6728
11
5.06857
21
27.7261
0
LINE
8
BLACK
6
CONTINUOUS
10
5.06857
20
27.7261
11
5.06096
21
27.779
0
LINE
8
BLACK
6
CONTINUOUS
10
5.06096
20
27.779
11
5.06096
21
28.5741
0
LINE
8
BLACK
6
CONTINUOUS
10
5.06096
20
28.5741
11
4.71096
21
28.5741
0
LINE
8
BLACK
6
CONTINUOUS
10
4.71096
20
28.5741
11
4.71096
21
30.2741
0
LINE
8
BLACK
6
CONTINUOUS
10
4.71096
20
30.2741
11
6.41096
21
30.2741
0
LINE
8
BLACK
6
CONTINUOUS
10
6.41096
20
30.2741
11
6.41096
21
28.5741
0
LINE
8
BLACK
6
CONTINUOUS
10
6.78168
20
23.084
11
6.95077
21
23.0249
0
LINE
8
BLACK
6
CONTINUOUS
10
6.95077
20
23.0249
11
7.10245
21
22.9296
0
LINE
8
BLACK
6
CONTINUOUS
10
7.10245
20
22.9296
11
7.22912
21
22.8029
0
LINE
8
BLACK
6
CONTINUOUS
10
7.22912
20
22.8029
11
7.32443
21
22.6512
0
LINE
8
BLACK
6
CONTINUOUS
10
7.32443
20
22.6512
11
7.3836
21
22.4821
0
LINE
8
BLACK
6
CONTINUOUS
10
7.3836
20
22.4821
11
7.40366
21
22.3041
0
LINE
8
BLACK
6
CONTINUOUS
10
7.40366
20
22.3041
11
7.3836
21
22.1261
0
LINE
8
BLACK
6
CONTINUOUS
10
7.3836
20
22.1261
11
7.32443
21
21.957
0
LINE
8
BLACK
6
CONTINUOUS
10
7.32443
20
21.957
11
7.22912
21
21.8053
0
LINE
8
BLACK
6
CONTINUOUS
10
7.22912
20
21.8053
11
7.10245
21
21.6786
0
LINE
8
BLACK
6
CONTINUOUS
10
7.10245
20
21.6786
11
6.95077
21
21.5833
0
LINE
8
BLACK
6
CONTINUOUS
10
6.95077
20
21.5833
11
6.78168
21
21.5241
0
LINE
8
BLACK
6
CONTINUOUS
10
6.78168
20
21.5241
11
6.60366
21
21.5041
0
LINE
8
BLACK
6
CONTINUOUS
10
6.60366
20
21.5041
11
6.42564
21
21.5241
0
LINE
8
BLACK
6
CONTINUOUS
10
6.42564
20
21.5241
11
6.25655
21
21.5833
0
LINE
8
BLACK
6
CONTINUOUS
10
6.25655
20
21.5833
11
6.10487
21
21.6786
0
LINE
8
BLACK
6
CONTINUOUS
10
6.10487
20
21.6786
11
5.97819
21
21.8053
0
LINE
8
BLACK
6
CONTINUOUS
10
5.97819
20
21.8053
11
5.88288
21
21.957
0
LINE
8
BLACK
6
CONTINUOUS
10
5.88288
20
21.957
11
5.82372
21
22.1261
0
LINE
8
BLACK
6
CONTINUOUS
10
5.82372
20
22.1261
11
5.80366
21
22.3041
0
LINE
8
BLACK
6
CONTINUOUS
10
5.80366
20
22.3041
11
5.82372
21
22.4821
0
LINE
8
BLACK
6
CONTINUOUS
10
5.82372
20
22.4821
11
5.88288
21
22.6512
0
LINE
8
BLACK
6
CONTINUOUS
10
5.88288
20
22.6512
11
5.97819
21
22.8029
0
LINE
8
BLACK
6
CONTINUOUS
10
5.97819
20
22.8029
11
6.10487
21
22.9296
0
LINE
8
BLACK
6
CONTINUOUS
10
6.10487
20
22.9296
11
6.25655
21
23.0249
0
LINE
8
BLACK
6
CONTINUOUS
10
6.25655
20
23.0249
11
6.42564
21
23.084
0
LINE
8
BLACK
6
CONTINUOUS
10
6.42564
20
23.084
11
6.60366
21
23.1041
0
LINE
8
BLACK
6
CONTINUOUS
10
6.60366
20
23.1041
11
6.78168
21
23.084
0
LINE
8
BLACK
6
CONTINUOUS
10
4.06366
20
23.1041
11
4.24168
21
23.084
0
LINE
8
BLACK
6
CONTINUOUS
10
4.24168
20
23.084
11
4.41077
21
23.0249
0
LINE
8
BLACK
6
CONTINUOUS
10
4.41077
20
23.0249
11
4.56245
21
22.9296
0
LINE
8
BLACK
6
CONTINUOUS
10
4.56245
20
22.9296
11
4.68912
21
22.8029
0
LINE
8
BLACK
6
CONTINUOUS
10
4.68912
20
22.8029
11
4.78444
21
22.6512
0
LINE
8
BLACK
6
CONTINUOUS
10
4.78444
20
22.6512
11
4.8436
21
22.4821
0
LINE
8
BLACK
6
CONTINUOUS
10
4.8436
20
22.4821
11
4.86366
21
22.3041
0
LINE
8
BLACK
6
CONTINUOUS
10
4.86366
20
22.3041
11
4.8436
21
22.1261
0
LINE
8
BLACK
6
CONTINUOUS
10
4.8436
20
22.1261
11
4.78444
21
21.957
0
LINE
8
BLACK
6
CONTINUOUS
10
4.78444
20
21.957
11
4.68912
21
21.8053
0
LINE
8
BLACK
6
CONTINUOUS
10
4.68912
20
21.8053
11
4.56245
21
21.6786
0
LINE
8
BLACK
6
CONTINUOUS
10
4.56245
20
21.6786
11
4.41077
21
21.5833
0
LINE
8
BLACK
6
CONTINUOUS
10
4.41077
20
21.5833
11
4.24168
21
21.5241
0
LINE
8
BLACK
6
CONTINUOUS
10
4.24168
20
21.5241
11
4.06366
21
21.5041
0
LINE
8
BLACK
6
CONTINUOUS
10
4.06366
20
21.5041
11
3.88564
21
21.5241
0
LINE
8
BLACK
6
CONTINUOUS
10
3.88564
20
21.5241
11
3.71655
21
21.5833
0
LINE
8
BLACK
6
CONTINUOUS
10
3.71655
20
21.5833
11
3.56487
21
21.6786
0
LINE
8
BLACK
6
CONTINUOUS
10
3.56487
20
21.6786
11
3.43819
21
21.8053
0
LINE
8
BLACK
6
CONTINUOUS
10
3.43819
20
21.8053
11
3.34288
21
21.957
0
LINE
8
BLACK
6
CONTINUOUS
10
3.34288
20
21.957
11
3.28372
21
22.1261
0
LINE
8
BLACK
6
CONTINUOUS
10
3.28372
20
22.1261
11
3.26366
21
22.3041
0
LINE
8
BLACK
6
CONTINUOUS
10
3.26366
20
22.3041
11
3.28372
21
22.4821
0
LINE
8
BLACK
6
CONTINUOUS
10
3.28372
20
22.4821
11
3.34288
21
22.6512
0
LINE
8
BLACK
6
CONTINUOUS
10
3.34288
20
22.6512
11
3.43819
21
22.8029
0
LINE
8
BLACK
6
CONTINUOUS
10
3.43819
20
22.8029
11
3.56487
21
22.9296
0
LINE
8
BLACK
6
CONTINUOUS
10
3.56487
20
22.9296
11
3.71655
21
23.0249
0
LINE
8
BLACK
6
CONTINUOUS
10
3.71655
20
23.0249
11
3.88564
21
23.084
0
LINE
8
BLACK
6
CONTINUOUS
10
3.88564
20
23.084
11
4.06366
21
23.1041
0
LINE
8
BLACK
6
CONTINUOUS
10
55.32
20
31.15
11
54.3271
21
31.15
0
LINE
8
BLACK
6
CONTINUOUS
10
54.3271
20
31.15
11
51.4236
21
28.2464
0
LINE
8
BLACK
6
CONTINUOUS
10
51.4236
20
28.2464
11
51.3807
21
28.2144
0
LINE
8
BLACK
6
CONTINUOUS
10
51.3807
20
28.2144
11
51.3403
21
28.1794
0
LINE
8
BLACK
6
CONTINUOUS
10
51.3403
20
28.1794
11
51.324
21
28.1719
0
LINE
8
BLACK
6
CONTINUOUS
10
51.324
20
28.1719
11
51.3096
21
28.1612
0
LINE
8
BLACK
6
CONTINUOUS
10
51.3096
20
28.1612
11
51.2595
21
28.1425
0
LINE
8
BLACK
6
CONTINUOUS
10
51.2595
20
28.1425
11
51.2109
21
28.1203
0
LINE
8
BLACK
6
CONTINUOUS
10
51.2109
20
28.1203
11
51.1931
21
28.1177
0
LINE
8
BLACK
6
CONTINUOUS
10
51.1931
20
28.1177
11
51.1763
21
28.1114
0
LINE
8
BLACK
6
CONTINUOUS
10
51.1763
20
28.1114
11
51.1229
21
28.1076
0
LINE
8
BLACK
6
CONTINUOUS
10
51.1229
20
28.1076
11
51.07
21
28.1
0
LINE
8
BLACK
6
CONTINUOUS
10
51.07
20
28.1
11
29.1343
21
28.1
0
LINE
8
BLACK
6
CONTINUOUS
10
29.1343
20
28.1
11
29.0088
21
27.9745
0
LINE
8
BLACK
6
CONTINUOUS
10
29.0088
20
27.9745
11
28.8571
21
27.8792
0
LINE
8
BLACK
6
CONTINUOUS
10
28.8571
20
27.8792
11
28.688
21
27.8201
0
LINE
8
BLACK
6
CONTINUOUS
10
28.688
20
27.8201
11
28.51
21
27.8
0
LINE
8
BLACK
6
CONTINUOUS
10
28.51
20
27.8
11
28.332
21
27.8201
0
LINE
8
BLACK
6
CONTINUOUS
10
28.332
20
27.8201
11
28.1629
21
27.8792
0
LINE
8
BLACK
6
CONTINUOUS
10
28.1629
20
27.8792
11
28.0112
21
27.9745
0
LINE
8
BLACK
6
CONTINUOUS
10
28.0112
20
27.9745
11
27.8845
21
28.1012
0
LINE
8
BLACK
6
CONTINUOUS
10
27.8845
20
28.1012
11
27.7892
21
28.2529
0
LINE
8
BLACK
6
CONTINUOUS
10
27.7892
20
28.2529
11
27.7301
21
28.422
0
LINE
8
BLACK
6
CONTINUOUS
10
27.7301
20
28.422
11
27.71
21
28.6
0
LINE
8
BLACK
6
CONTINUOUS
10
27.71
20
28.6
11
27.7301
21
28.778
0
LINE
8
BLACK
6
CONTINUOUS
10
27.7301
20
28.778
11
27.7892
21
28.9471
0
LINE
8
BLACK
6
CONTINUOUS
10
27.7892
20
28.9471
11
27.8845
21
29.0988
0
LINE
8
BLACK
6
CONTINUOUS
10
27.8845
20
29.0988
11
28.0112
21
29.2255
0
LINE
8
BLACK
6
CONTINUOUS
10
28.0112
20
29.2255
11
28.1629
21
29.3208
0
LINE
8
BLACK
6
CONTINUOUS
10
28.1629
20
29.3208
11
28.332
21
29.3799
0
LINE
8
BLACK
6
CONTINUOUS
10
28.332
20
29.3799
11
28.51
21
29.4
0
LINE
8
BLACK
6
CONTINUOUS
10
28.51
20
29.4
11
28.688
21
29.3799
0
LINE
8
BLACK
6
CONTINUOUS
10
28.688
20
29.3799
11
28.8571
21
29.3208
0
LINE
8
BLACK
6
CONTINUOUS
10
28.8571
20
29.3208
11
29.0088
21
29.2255
0
LINE
8
BLACK
6
CONTINUOUS
10
29.0088
20
29.2255
11
29.1343
21
29.1
0
LINE
8
BLACK
6
CONTINUOUS
10
29.1343
20
29.1
11
50.8629
21
29.1
0
LINE
8
BLACK
6
CONTINUOUS
10
50.8629
20
29.1
11
53.62
21
31.8571
0
LINE
8
BLACK
6
CONTINUOUS
10
53.62
20
31.8571
11
53.62
21
32.85
0
LINE
8
BLACK
6
CONTINUOUS
10
53.62
20
32.85
11
55.32
21
32.85
0
LINE
8
BLACK
6
CONTINUOUS
10
55.32
20
32.85
11
55.32
21
31.15
0
LINE
8
BLACK
6
CONTINUOUS
10
62.268
20
32.7799
11
62.4371
21
32.7208
0
LINE
8
BLACK
6
CONTINUOUS
10
62.4371
20
32.7208
11
62.5888
21
32.6255
0
LINE
8
BLACK
6
CONTINUOUS
10
62.5888
20
32.6255
11
62.7155
21
32.4988
0
LINE
8
BLACK
6
CONTINUOUS
10
62.7155
20
32.4988
11
62.8108
21
32.3471
0
LINE
8
BLACK
6
CONTINUOUS
10
62.8108
20
32.3471
11
62.8699
21
32.178
0
LINE
8
BLACK
6
CONTINUOUS
10
62.8699
20
32.178
11
62.89
21
32
0
LINE
8
BLACK
6
CONTINUOUS
10
62.89
20
32
11
62.8699
21
31.822
0
LINE
8
BLACK
6
CONTINUOUS
10
62.8699
20
31.822
11
62.8108
21
31.6529
0
LINE
8
BLACK
6
CONTINUOUS
10
62.8108
20
31.6529
11
62.7155
21
31.5012
0
LINE
8
BLACK
6
CONTINUOUS
10
62.7155
20
31.5012
11
62.5888
21
31.3745
0
LINE
8
BLACK
6
CONTINUOUS
10
62.5888
20
31.3745
11
62.4371
21
31.2792
0
LINE
8
BLACK
6
CONTINUOUS
10
62.4371
20
31.2792
11
62.268
21
31.2201
0
LINE
8
BLACK
6
CONTINUOUS
10
62.268
20
31.2201
11
62.09
21
31.2
0
LINE
8
BLACK
6
CONTINUOUS
10
62.09
20
31.2
11
61.912
21
31.2201
0
LINE
8
BLACK
6
CONTINUOUS
10
61.912
20
31.2201
11
61.7429
21
31.2792
0
LINE
8
BLACK
6
CONTINUOUS
10
61.7429
20
31.2792
11
61.5912
21
31.3745
0
LINE
8
BLACK
6
CONTINUOUS
10
61.5912
20
31.3745
11
61.4645
21
31.5012
0
LINE
8
BLACK
6
CONTINUOUS
10
61.4645
20
31.5012
11
61.3692
21
31.6529
0
LINE
8
BLACK
6
CONTINUOUS
10
61.3692
20
31.6529
11
61.3101
21
31.822
0
LINE
8
BLACK
6
CONTINUOUS
10
61.3101
20
31.822
11
61.29
21
32
0
LINE
8
BLACK
6
CONTINUOUS
10
61.29
20
32
11
61.3101
21
32.178
0
LINE
8
BLACK
6
CONTINUOUS
10
61.3101
20
32.178
11
61.3692
21
32.3471
0
LINE
8
BLACK
6
CONTINUOUS
10
61.3692
20
32.3471
11
61.4645
21
32.4988
0
LINE
8
BLACK
6
CONTINUOUS
10
61.4645
20
32.4988
11
61.5912
21
32.6255
0
LINE
8
BLACK
6
CONTINUOUS
10
61.5912
20
32.6255
11
61.7429
21
32.7208
0
LINE
8
BLACK
6
CONTINUOUS
10
61.7429
20
32.7208
11
61.912
21
32.7799
0
LINE
8
BLACK
6
CONTINUOUS
10
61.912
20
32.7799
11
62.09
21
32.8
0
LINE
8
BLACK
6
CONTINUOUS
10
62.09
20
32.8
11
62.268
21
32.7799
0
LINE
8
BLACK
6
CONTINUOUS
10
59.728
20
32.7799
11
59.8971
21
32.7208
0
LINE
8
BLACK
6
CONTINUOUS
10
59.8971
20
32.7208
11
60.0488
21
32.6255
0
LINE
8
BLACK
6
CONTINUOUS
10
60.0488
20
32.6255
11
60.1755
21
32.4988
0
LINE
8
BLACK
6
CONTINUOUS
10
60.1755
20
32.4988
11
60.2708
21
32.3471
0
LINE
8
BLACK
6
CONTINUOUS
10
60.2708
20
32.3471
11
60.3299
21
32.178
0
LINE
8
BLACK
6
CONTINUOUS
10
60.3299
20
32.178
11
60.35
21
32
0
LINE
8
BLACK
6
CONTINUOUS
10
60.35
20
32
11
60.3299
21
31.822
0
LINE
8
BLACK
6
CONTINUOUS
10
60.3299
20
31.822
11
60.2708
21
31.6529
0
LINE
8
BLACK
6
CONTINUOUS
10
60.2708
20
31.6529
11
60.1755
21
31.5012
0
LINE
8
BLACK
6
CONTINUOUS
10
60.1755
20
31.5012
11
60.0488
21
31.3745
0
LINE
8
BLACK
6
CONTINUOUS
10
60.0488
20
31.3745
11
59.8971
21
31.2792
0
LINE
8
BLACK
6
CONTINUOUS
10
59.8971
20
31.2792
11
59.728
21
31.2201
0
LINE
8
BLACK
6
CONTINUOUS
10
59.728
20
31.2201
11
59.55
21
31.2
0
LINE
8
BLACK
6
CONTINUOUS
10
59.55
20
31.2
11
59.372
21
31.2201
0
LINE
8
BLACK
6
CONTINUOUS
10
59.372
20
31.2201
11
59.2029
21
31.2792
0
LINE
8
BLACK
6
CONTINUOUS
10
59.2029
20
31.2792
11
59.0512
21
31.3745
0
LINE
8
BLACK
6
CONTINUOUS
10
59.0512
20
31.3745
11
58.9245
21
31.5012
0
LINE
8
BLACK
6
CONTINUOUS
10
58.9245
20
31.5012
11
58.8292
21
31.6529
0
LINE
8
BLACK
6
CONTINUOUS
10
58.8292
20
31.6529
11
58.7701
21
31.822
0
LINE
8
BLACK
6
CONTINUOUS
10
58.7701
20
31.822
11
58.75
21
32
0
LINE
8
BLACK
6
CONTINUOUS
10
58.75
20
32
11
58.7701
21
32.178
0
LINE
8
BLACK
6
CONTINUOUS
10
58.7701
20
32.178
11
58.8292
21
32.3471
0
LINE
8
BLACK
6
CONTINUOUS
10
58.8292
20
32.3471
11
58.9245
21
32.4988
0
LINE
8
BLACK
6
CONTINUOUS
10
58.9245
20
32.4988
11
59.0512
21
32.6255
0
LINE
8
BLACK
6
CONTINUOUS
10
59.0512
20
32.6255
11
59.2029
21
32.7208
0
LINE
8
BLACK
6
CONTINUOUS
10
59.2029
20
32.7208
11
59.372
21
32.7799
0
LINE
8
BLACK
6
CONTINUOUS
10
59.372
20
32.7799
11
59.55
21
32.8
0
LINE
8
BLACK
6
CONTINUOUS
10
59.55
20
32.8
11
59.728
21
32.7799
0
LINE
8
BLACK
6
CONTINUOUS
10
42.2425
20
34.5309
11
42.479
21
34.4741
0
LINE
8
BLACK
6
CONTINUOUS
10
42.479
20
34.4741
11
42.7037
21
34.3811
0
LINE
8
BLACK
6
CONTINUOUS
10
42.7037
20
34.3811
11
42.9111
21
34.254
0
LINE
8
BLACK
6
CONTINUOUS
10
42.9111
20
34.254
11
43.096
21
34.096
0
LINE
8
BLACK
6
CONTINUOUS
10
43.096
20
34.096
11
43.254
21
33.9111
0
LINE
8
BLACK
6
CONTINUOUS
10
43.254
20
33.9111
11
43.3811
21
33.7037
0
LINE
8
BLACK
6
CONTINUOUS
10
43.3811
20
33.7037
11
43.4741
21
33.479
0
LINE
8
BLACK
6
CONTINUOUS
10
43.4741
20
33.479
11
43.5309
21
33.2425
0
LINE
8
BLACK
6
CONTINUOUS
10
43.5309
20
33.2425
11
43.55
21
33
0
LINE
8
BLACK
6
CONTINUOUS
10
43.55
20
33
11
43.5309
21
32.7575
0
LINE
8
BLACK
6
CONTINUOUS
10
43.5309
20
32.7575
11
43.4741
21
32.521
0
LINE
8
BLACK
6
CONTINUOUS
10
43.4741
20
32.521
11
43.3811
21
32.2963
0
LINE
8
BLACK
6
CONTINUOUS
10
43.3811
20
32.2963
11
43.254
21
32.0889
0
LINE
8
BLACK
6
CONTINUOUS
10
43.254
20
32.0889
11
43.096
21
31.904
0
LINE
8
BLACK
6
CONTINUOUS
10
43.096
20
31.904
11
42.9111
21
31.746
0
LINE
8
BLACK
6
CONTINUOUS
10
42.9111
20
31.746
11
42.7037
21
31.6189
0
LINE
8
BLACK
6
CONTINUOUS
10
42.7037
20
31.6189
11
42.479
21
31.5259
0
LINE
8
BLACK
6
CONTINUOUS
10
42.479
20
31.5259
11
42.2425
21
31.4691
0
LINE
8
BLACK
6
CONTINUOUS
10
42.2425
20
31.4691
11
42
21
31.45
0
LINE
8
BLACK
6
CONTINUOUS
10
42
20
31.45
11
41.7575
21
31.4691
0
LINE
8
BLACK
6
CONTINUOUS
10
41.7575
20
31.4691
11
41.521
21
31.5259
0
LINE
8
BLACK
6
CONTINUOUS
10
41.521
20
31.5259
11
41.2963
21
31.6189
0
LINE
8
BLACK
6
CONTINUOUS
10
41.2963
20
31.6189
11
41.0889
21
31.746
0
LINE
8
BLACK
6
CONTINUOUS
10
41.0889
20
31.746
11
40.904
21
31.904
0
LINE
8
BLACK
6
CONTINUOUS
10
40.904
20
31.904
11
40.746
21
32.0889
0
LINE
8
BLACK
6
CONTINUOUS
10
40.746
20
32.0889
11
40.6189
21
32.2963
0
LINE
8
BLACK
6
CONTINUOUS
10
40.6189
20
32.2963
11
40.5259
21
32.521
0
LINE
8
BLACK
6
CONTINUOUS
10
40.5259
20
32.521
11
40.4691
21
32.7575
0
LINE
8
BLACK
6
CONTINUOUS
10
40.4691
20
32.7575
11
40.45
21
33
0
LINE
8
BLACK
6
CONTINUOUS
10
40.45
20
33
11
40.4691
21
33.2425
0
LINE
8
BLACK
6
CONTINUOUS
10
40.4691
20
33.2425
11
40.5259
21
33.479
0
LINE
8
BLACK
6
CONTINUOUS
10
40.5259
20
33.479
11
40.6189
21
33.7037
0
LINE
8
BLACK
6
CONTINUOUS
10
40.6189
20
33.7037
11
40.746
21
33.9111
0
LINE
8
BLACK
6
CONTINUOUS
10
40.746
20
33.9111
11
40.904
21
34.096
0
LINE
8
BLACK
6
CONTINUOUS
10
40.904
20
34.096
11
41.0889
21
34.254
0
LINE
8
BLACK
6
CONTINUOUS
10
41.0889
20
34.254
11
41.2963
21
34.3811
0
LINE
8
BLACK
6
CONTINUOUS
10
41.2963
20
34.3811
11
41.521
21
34.4741
0
LINE
8
BLACK
6
CONTINUOUS
10
41.521
20
34.4741
11
41.7575
21
34.5309
0
LINE
8
BLACK
6
CONTINUOUS
10
41.7575
20
34.5309
11
42
21
34.55
0
LINE
8
BLACK
6
CONTINUOUS
10
42
20
34.55
11
42.2425
21
34.5309
0
CIRCLE
8
BLACK
10
62.09
20
32
40
0.55
0
CIRCLE
8
BLACK
10
59.55
20
32
40
0.55
0
CIRCLE
8
BLACK
10
57.01
20
32
40
0.55
0
CIRCLE
8
BLACK
10
54.47
20
32
40
0.55
0
CIRCLE
8
BLACK
10
43.05
20
18.71
40
0.55
0
CIRCLE
8
BLACK
10
43.05
20
16.17
40
0.55
0
CIRCLE
8
BLACK
10
43.05
20
13.63
40
0.55
0
CIRCLE
8
BLACK
10
43.05
20
11.09
40
0.55
0
CIRCLE
8
BLACK
10
43.05
20
8.55
40
0.55
0
CIRCLE
8
BLACK
10
43.05
20
6.01
40
0.55
0
CIRCLE
8
BLACK
10
28.51
20
28.6
40
0.55
0
CIRCLE
8
BLACK
10
20.89
20
28.6
40
0.55
0
CIRCLE
8
BLACK
10
78.85
20
18.9
40
0.625
0
CIRCLE
8
BLACK
10
78.85
20
12.45
40
0.625
0
CIRCLE
8
BLACK
10
47.85
20
12.45
40
0.625
0
CIRCLE
8
BLACK
10
47.85
20
18.95
40
0.625
0
CIRCLE
8
BLACK
10
21.4306
20
25.8601
40
0.55
0
CIRCLE
8
BLACK
10
29.0306
20
25.8601
40
0.55
0
CIRCLE
8
BLACK
10
14.76
20
26.2
40
0.55
0
CIRCLE
8
BLACK
10
7.14
20
26.2
40
0.55
0
CIRCLE
8
BLACK
10
39.6237
20
22.3041
40
0.55
0
CIRCLE
8
BLACK
10
37.0837
20
22.3041
40
0.55
0
CIRCLE
8
BLACK
10
34.5437
20
22.3041
40
0.55
0
CIRCLE
8
BLACK
10
32.0037
20
22.3041
40
0.55
0
CIRCLE
8
BLACK
10
29.4637
20
22.3041
40
0.55
0
CIRCLE
8
BLACK
10
26.9237
20
22.3041
40
0.55
0
CIRCLE
8
BLACK
10
24.3837
20
22.3041
40
0.55
0
CIRCLE
8
BLACK
10
21.8437
20
22.3041
40
0.55
0
CIRCLE
8
BLACK
10
19.3037
20
22.3041
40
0.55
0
CIRCLE
8
BLACK
10
16.7637
20
22.3041
40
0.55
0
CIRCLE
8
BLACK
10
14.2237
20
22.3041
40
0.55
0
CIRCLE
8
BLACK
10
11.6837
20
22.3041
40
0.55
0
CIRCLE
8
BLACK
10
9.14366
20
22.3041
40
0.55
0
CIRCLE
8
BLACK
10
6.60366
20
22.3041
40
0.55
0
CIRCLE
8
BLACK
10
4.06366
20
22.3041
40
0.55
0
CIRCLE
8
BLACK
10
4.06366
20
7.06409
40
0.55
0
CIRCLE
8
BLACK
10
6.60366
20
7.06409
40
0.55
0
CIRCLE
8
BLACK
10
9.14366
20
7.06409
40
0.55
0
CIRCLE
8
BLACK
10
11.6837
20
7.06409
40
0.55
0
CIRCLE
8
BLACK
10
14.2237
20
7.06409
40
0.55
0
CIRCLE
8
BLACK
10
16.7637
20
7.06409
40
0.55
0
CIRCLE
8
BLACK
10
19.3037
20
7.06409
40
0.55
0
CIRCLE
8
BLACK
10
21.8437
20
7.06409
40
0.55
0
CIRCLE
8
BLACK
10
24.3837
20
7.06409
40
0.55
0
CIRCLE
8
BLACK
10
26.9237
20
7.06409
40
0.55
0
CIRCLE
8
BLACK
10
29.4637
20
7.06409
40
0.55
0
CIRCLE
8
BLACK
10
32.0037
20
7.06409
40
0.55
0
CIRCLE
8
BLACK
10
34.5437
20
7.06409
40
0.55
0
CIRCLE
8
BLACK
10
37.0837
20
7.06409
40
0.55
0
CIRCLE
8
BLACK
10
39.6237
20
7.06409
40
0.55
0
CIRCLE
8
BLACK
10
49.41
20
4.7
40
0.75
0
CIRCLE
8
BLACK
10
69.9
20
4.7
40
0.75
0
CIRCLE
8
BLACK
10
5.56096
20
29.4241
40
0.55
0
CIRCLE
8
BLACK
10
8.10096
20
29.4241
40
0.55
0
CIRCLE
8
BLACK
10
10.641
20
29.4241
40
0.55
0
CIRCLE
8
BLACK
10
21.51
20
31.95
40
0.55
0
CIRCLE
8
BLACK
10
13.89
20
31.95
40
0.55
0
CIRCLE
8
BLACK
10
42
20
33
40
1.5
0
CIRCLE
8
BLACK
10
80.5
20
3.5
40
1.5
0
CIRCLE
8
BLACK
10
3.5
20
3.5
40
1.5
0
LINE
8
BLACK
6
CONTINUOUS
10
84.0358
20
35.1219
11
84.0436
21
35.1168
0
LINE
8
BLACK
6
CONTINUOUS
10
84.0436
20
35.1168
11
84.0528
21
35.1155
0
LINE
8
BLACK
6
CONTINUOUS
10
84.0528
20
35.1155
11
84.0732
21
35.0978
0
LINE
8
BLACK
6
CONTINUOUS
10
84.0732
20
35.0978
11
84.096
21
35.0832
0
LINE
8
BLACK
6
CONTINUOUS
10
84.096
20
35.0832
11
84.0998
21
35.0747
0
LINE
8
BLACK
6
CONTINUOUS
10
84.0998
20
35.0747
11
84.1068
21
35.0687
0
LINE
8
BLACK
6
CONTINUOUS
10
84.1068
20
35.0687
11
84.1145
21
35.0427
0
LINE
8
BLACK
6
CONTINUOUS
10
84.1145
20
35.0427
11
84.1257
21
35.0181
0
LINE
8
BLACK
6
CONTINUOUS
10
84.1257
20
35.0181
11
84.1244
21
35.0089
0
LINE
8
BLACK
6
CONTINUOUS
10
84.1244
20
35.0089
11
84.127
21
35
0
LINE
8
BLACK
6
CONTINUOUS
10
84.127
20
35
11
84.127
21
0
0
LINE
8
BLACK
6
CONTINUOUS
10
84.127
20
0
11
84.1219
21
-0.03578
0
LINE
8
BLACK
6
CONTINUOUS
10
84.1219
20
-0.03578
11
84.1168
21
-0.043581
0
LINE
8
BLACK
6
CONTINUOUS
10
84.1168
20
-0.043581
11
84.1155
21
-0.052758
0
LINE
8
BLACK
6
CONTINUOUS
10
84.1155
20
-0.052758
11
84.0978
21
-0.073211
0
LINE
8
BLACK
6
CONTINUOUS
10
84.0978
20
-0.073211
11
84.0832
21
-0.09598
0
LINE
8
BLACK
6
CONTINUOUS
10
84.0832
20
-0.09598
11
84.0747
21
-0.099831
0
LINE
8
BLACK
6
CONTINUOUS
10
84.0747
20
-0.099831
11
84.0687
21
-0.106839
0
LINE
8
BLACK
6
CONTINUOUS
10
84.0687
20
-0.106839
11
84.0427
21
-0.114464
0
LINE
8
BLACK
6
CONTINUOUS
10
84.0427
20
-0.114464
11
84.0181
21
-0.125707
0
LINE
8
BLACK
6
CONTINUOUS
10
84.0181
20
-0.125707
11
84.0089
21
-0.124387
0
LINE
8
BLACK
6
CONTINUOUS
10
84.0089
20
-0.124387
11
84
21
-0.127
0
LINE
8
BLACK
6
CONTINUOUS
10
84
20
-0.127
11
0
21
-0.127
0
LINE
8
BLACK
6
CONTINUOUS
10
0
20
-0.127
11
-0.03578
21
-0.121856
0
LINE
8
BLACK
6
CONTINUOUS
10
-0.03578
20
-0.121856
11
-0.043582
21
-0.116842
0
LINE
8
BLACK
6
CONTINUOUS
10
-0.043582
20
-0.116842
11
-0.052758
21
-0.115523
0
LINE
8
BLACK
6
CONTINUOUS
10
-0.052758
20
-0.115523
11
-0.073212
21
-0.097799
0
LINE
8
BLACK
6
CONTINUOUS
10
-0.073212
20
-0.097799
11
-0.09598
21
-0.083167
0
LINE
8
BLACK
6
CONTINUOUS
10
-0.09598
20
-0.083167
11
-0.099832
21
-0.074732
0
LINE
8
BLACK
6
CONTINUOUS
10
-0.099832
20
-0.074732
11
-0.106839
21
-0.068661
0
LINE
8
BLACK
6
CONTINUOUS
10
-0.106839
20
-0.068661
11
-0.114465
21
-0.042692
0
LINE
8
BLACK
6
CONTINUOUS
10
-0.114465
20
-0.042692
11
-0.125707
21
-0.018074
0
LINE
8
BLACK
6
CONTINUOUS
10
-0.125707
20
-0.018074
11
-0.124388
21
-0.008897
0
LINE
8
BLACK
6
CONTINUOUS
10
-0.124388
20
-0.008897
11
-0.127
21
0
0
LINE
8
BLACK
6
CONTINUOUS
10
-0.127
20
0
11
-0.127
21
35
0
LINE
8
BLACK
6
CONTINUOUS
10
-0.127
20
35
11
-0.121856
21
35.0358
0
LINE
8
BLACK
6
CONTINUOUS
10
-0.121856
20
35.0358
11
-0.116843
21
35.0436
0
LINE
8
BLACK
6
CONTINUOUS
10
-0.116843
20
35.0436
11
-0.115523
21
35.0528
0
LINE
8
BLACK
6
CONTINUOUS
10
-0.115523
20
35.0528
11
-0.0978
21
35.0732
0
LINE
8
BLACK
6
CONTINUOUS
10
-0.0978
20
35.0732
11
-0.083167
21
35.096
0
LINE
8
BLACK
6
CONTINUOUS
10
-0.083167
20
35.096
11
-0.074733
21
35.0998
0
LINE
8
BLACK
6
CONTINUOUS
10
-0.074733
20
35.0998
11
-0.068661
21
35.1068
0
LINE
8
BLACK
6
CONTINUOUS
10
-0.068661
20
35.1068
11
-0.042693
21
35.1145
0
LINE
8
BLACK
6
CONTINUOUS
10
-0.042693
20
35.1145
11
-0.018074
21
35.1257
0
LINE
8
BLACK
6
CONTINUOUS
10
-0.018074
20
35.1257
11
-0.008898
21
35.1244
0
LINE
8
BLACK
6
CONTINUOUS
10
-0.008898
20
35.1244
11
0
21
35.127
0
LINE
8
BLACK
6
CONTINUOUS
10
0
20
35.127
11
84
21
35.127
0
LINE
8
BLACK
6
CONTINUOUS
10
84
20
35.127
11
84.0358
21
35.1219
0
LINE
8
BLACK
6
CONTINUOUS
10
0.127
20
34.873
11
0.127
21
0.127
0
LINE
8
BLACK
6
CONTINUOUS
10
0.127
20
0.127
11
83.873
21
0.127
0
LINE
8
BLACK
6
CONTINUOUS
10
83.873
20
0.127
11
83.873
21
34.873
0
LINE
8
BLACK
6
CONTINUOUS
10
83.873
20
34.873
11
0.127
21
34.873
  0
ENDSEC
  0
EOF
