ISO-10303-21;
HEADER;
FILE_DESCRIPTION(('STEP AP203'),
    '1');
FILE_NAME('Стойка углового лазера',
    '',
    ('UNSPECIFIED'),
    ('UNSPECIFIED'),
    'C3D Converter',
    'C3D Toolkit',
    '');
FILE_SCHEMA(('CONFIG_CONTROL_DESIGN'));
ENDSEC;

DATA;
#1=PRODUCT_DEFINITION('','UNSPECIFIED',#31,#34);
#2=SHAPE_DEFINITION_REPRESENTATION(#29,#3);
#3=SHAPE_REPRESENTATION('NONE',(#4),#8);
#4=AXIS2_PLACEMENT_3D('',#5,#6,#7);
#5=CARTESIAN_POINT('',(0.,0.,0.));
#6=DIRECTION('',(0.,0.,1.));
#7=DIRECTION('',(1.,0.,0.));
#8=(GEOMETRIC_REPRESENTATION_CONTEXT(3)GLOBAL_UNCERTAINTY_ASSIGNED_CONTEXT((#10))
GLOBAL_UNIT_ASSIGNED_CONTEXT((#9,#11,#12))REPRESENTATION_CONTEXT('NONE','NONE'));
#9=(LENGTH_UNIT()NAMED_UNIT(*)SI_UNIT(.MILLI.,.METRE.));
#10=UNCERTAINTY_MEASURE_WITH_UNIT(LENGTH_MEASURE(1.E-5),#9,'NONE','NONE');
#11=(NAMED_UNIT(*)PLANE_ANGLE_UNIT()SI_UNIT($,.RADIAN.));
#12=(NAMED_UNIT(*)SI_UNIT($,.STERADIAN.)SOLID_ANGLE_UNIT());
#13=MANIFOLD_SOLID_BREP('',#14);
#14=CLOSED_SHELL('',(#56,#65,#74,#83,#92,#101,#110,#119,#128,#137,#146,#155,#164,
#173,#182));
#15=COLOUR_RGB('',0.282352941176471,0.282352941176471,0.282352941176471);
#16=FILL_AREA_STYLE_COLOUR('',#15);
#17=FILL_AREA_STYLE($,(#16));
#18=SURFACE_STYLE_FILL_AREA(#17);
#19=SURFACE_SIDE_STYLE('',(#18));
#20=SURFACE_STYLE_USAGE(.BOTH.,#19);
#21=PRESENTATION_STYLE_ASSIGNMENT((#20));
#22=MECHANICAL_DESIGN_GEOMETRIC_PRESENTATION_REPRESENTATION('NONE',(#23,#64,#73,
#82,#91,#100,#109,#118,#127,#136,#145,#154,#163,#172,#181,#190,#196,#202,#208,#214,
#220,#226),#8);
#23=STYLED_ITEM('',(#21),#13);
#24=ADVANCED_BREP_SHAPE_REPRESENTATION('NONE',(#13),#8);
#25=SHAPE_REPRESENTATION_RELATIONSHIP('','',#3,#24);
#26=GEOMETRIC_CURVE_SET('',(#191,#197,#203,#209,#215,#221));
#27=GEOMETRICALLY_BOUNDED_WIREFRAME_SHAPE_REPRESENTATION('NONE',(#26),#8);
#28=SHAPE_REPRESENTATION_RELATIONSHIP('','',#3,#27);
#29=PRODUCT_DEFINITION_SHAPE('NONE','NONE',#1);
#30=MECHANICAL_CONTEXT('NONE',#35,'mechanical');
#31=PRODUCT_DEFINITION_FORMATION_WITH_SPECIFIED_SOURCE('ANY','UNSPECIFIED',#32,.NOT_KNOWN.);
#32=PRODUCT('','\X2\04210442043E0439043A0430\X0\ \X2\04430433043B043E0432043E0433043E\X0\ \X2\043B04300437043504400430\X0\',
'NONE',(#30));
#33=PRODUCT_RELATED_PRODUCT_CATEGORY('detail','',(#32));
#34=DESIGN_CONTEXT('detailed design',#35,'design');
#35=APPLICATION_CONTEXT('configuration controlled 3d designs of mechanical parts and assemblies');
#36=APPLICATION_PROTOCOL_DEFINITION('international standard','config_control_design',
1994,#35);
#37=CC_DESIGN_DATE_AND_TIME_ASSIGNMENT(#38,#42,(#1));
#38=DATE_AND_TIME(#39,#40);
#39=CALENDAR_DATE(0,1,1);
#40=LOCAL_TIME(0,0,0.,#41);
#41=COORDINATED_UNIVERSAL_TIME_OFFSET(0,0,.AHEAD.);
#42=DATE_TIME_ROLE('creation_date');
#43=CC_DESIGN_APPROVAL(#44,(#1));
#44=APPROVAL(#45,'UNSPECIFIED');
#45=APPROVAL_STATUS('not_yet_approved');
#46=APPROVAL_DATE_TIME(#47,#44);
#47=DATE_AND_TIME(#48,#49);
#48=CALENDAR_DATE(0,1,1);
#49=LOCAL_TIME(0,0,0.,#50);
#50=COORDINATED_UNIVERSAL_TIME_OFFSET(0,0,.AHEAD.);
#51=PERSON('UNSPECIFIED','Admin','UNSPECIFIED',('UNSPECIFIED'),('UNSPECIFIED'),(
'UNSPECIFIED'));
#52=ORGANIZATION('UNSPECIFIED','UNSPECIFIED','UNSPECIFIED');
#53=PERSON_AND_ORGANIZATION(#51,#52);
#54=PERSON_AND_ORGANIZATION_ROLE('creator');
#55=CC_DESIGN_PERSON_AND_ORGANIZATION_ASSIGNMENT(#53,#54,(#31,#1));
#56=ADVANCED_FACE('',(#227,#229),#231,.T.);
#57=COLOUR_RGB('',0.6,1.,1.);
#58=FILL_AREA_STYLE_COLOUR('',#57);
#59=FILL_AREA_STYLE($,(#58));
#60=SURFACE_STYLE_FILL_AREA(#59);
#61=SURFACE_SIDE_STYLE('',(#60));
#62=SURFACE_STYLE_USAGE(.BOTH.,#61);
#63=PRESENTATION_STYLE_ASSIGNMENT((#62));
#64=STYLED_ITEM('',(#63),#56);
#65=ADVANCED_FACE('',(#236,#238),#240,.T.);
#66=COLOUR_RGB('',0.6,1.,1.);
#67=FILL_AREA_STYLE_COLOUR('',#66);
#68=FILL_AREA_STYLE($,(#67));
#69=SURFACE_STYLE_FILL_AREA(#68);
#70=SURFACE_SIDE_STYLE('',(#69));
#71=SURFACE_STYLE_USAGE(.BOTH.,#70);
#72=PRESENTATION_STYLE_ASSIGNMENT((#71));
#73=STYLED_ITEM('',(#72),#65);
#74=ADVANCED_FACE('',(#245,#247),#249,.F.);
#75=COLOUR_RGB('',0.6,1.,1.);
#76=FILL_AREA_STYLE_COLOUR('',#75);
#77=FILL_AREA_STYLE($,(#76));
#78=SURFACE_STYLE_FILL_AREA(#77);
#79=SURFACE_SIDE_STYLE('',(#78));
#80=SURFACE_STYLE_USAGE(.BOTH.,#79);
#81=PRESENTATION_STYLE_ASSIGNMENT((#80));
#82=STYLED_ITEM('',(#81),#74);
#83=ADVANCED_FACE('',(#254),#256,.T.);
#84=COLOUR_RGB('',0.6,1.,1.);
#85=FILL_AREA_STYLE_COLOUR('',#84);
#86=FILL_AREA_STYLE($,(#85));
#87=SURFACE_STYLE_FILL_AREA(#86);
#88=SURFACE_SIDE_STYLE('',(#87));
#89=SURFACE_STYLE_USAGE(.BOTH.,#88);
#90=PRESENTATION_STYLE_ASSIGNMENT((#89));
#91=STYLED_ITEM('',(#90),#83);
#92=ADVANCED_FACE('',(#261,#263),#265,.T.);
#93=COLOUR_RGB('',0.6,1.,1.);
#94=FILL_AREA_STYLE_COLOUR('',#93);
#95=FILL_AREA_STYLE($,(#94));
#96=SURFACE_STYLE_FILL_AREA(#95);
#97=SURFACE_SIDE_STYLE('',(#96));
#98=SURFACE_STYLE_USAGE(.BOTH.,#97);
#99=PRESENTATION_STYLE_ASSIGNMENT((#98));
#100=STYLED_ITEM('',(#99),#92);
#101=ADVANCED_FACE('',(#270),#272,.T.);
#102=COLOUR_RGB('',0.6,1.,1.);
#103=FILL_AREA_STYLE_COLOUR('',#102);
#104=FILL_AREA_STYLE($,(#103));
#105=SURFACE_STYLE_FILL_AREA(#104);
#106=SURFACE_SIDE_STYLE('',(#105));
#107=SURFACE_STYLE_USAGE(.BOTH.,#106);
#108=PRESENTATION_STYLE_ASSIGNMENT((#107));
#109=STYLED_ITEM('',(#108),#101);
#110=ADVANCED_FACE('',(#277),#279,.T.);
#111=COLOUR_RGB('',0.6,1.,1.);
#112=FILL_AREA_STYLE_COLOUR('',#111);
#113=FILL_AREA_STYLE($,(#112));
#114=SURFACE_STYLE_FILL_AREA(#113);
#115=SURFACE_SIDE_STYLE('',(#114));
#116=SURFACE_STYLE_USAGE(.BOTH.,#115);
#117=PRESENTATION_STYLE_ASSIGNMENT((#116));
#118=STYLED_ITEM('',(#117),#110);
#119=ADVANCED_FACE('',(#284),#286,.T.);
#120=COLOUR_RGB('',0.6,1.,1.);
#121=FILL_AREA_STYLE_COLOUR('',#120);
#122=FILL_AREA_STYLE($,(#121));
#123=SURFACE_STYLE_FILL_AREA(#122);
#124=SURFACE_SIDE_STYLE('',(#123));
#125=SURFACE_STYLE_USAGE(.BOTH.,#124);
#126=PRESENTATION_STYLE_ASSIGNMENT((#125));
#127=STYLED_ITEM('',(#126),#119);
#128=ADVANCED_FACE('',(#291,#293),#295,.T.);
#129=COLOUR_RGB('',0.6,1.,1.);
#130=FILL_AREA_STYLE_COLOUR('',#129);
#131=FILL_AREA_STYLE($,(#130));
#132=SURFACE_STYLE_FILL_AREA(#131);
#133=SURFACE_SIDE_STYLE('',(#132));
#134=SURFACE_STYLE_USAGE(.BOTH.,#133);
#135=PRESENTATION_STYLE_ASSIGNMENT((#134));
#136=STYLED_ITEM('',(#135),#128);
#137=ADVANCED_FACE('',(#300),#302,.T.);
#138=COLOUR_RGB('',0.6,1.,1.);
#139=FILL_AREA_STYLE_COLOUR('',#138);
#140=FILL_AREA_STYLE($,(#139));
#141=SURFACE_STYLE_FILL_AREA(#140);
#142=SURFACE_SIDE_STYLE('',(#141));
#143=SURFACE_STYLE_USAGE(.BOTH.,#142);
#144=PRESENTATION_STYLE_ASSIGNMENT((#143));
#145=STYLED_ITEM('',(#144),#137);
#146=ADVANCED_FACE('',(#307,#309,#311),#313,.F.);
#147=COLOUR_RGB('',0.6,1.,1.);
#148=FILL_AREA_STYLE_COLOUR('',#147);
#149=FILL_AREA_STYLE($,(#148));
#150=SURFACE_STYLE_FILL_AREA(#149);
#151=SURFACE_SIDE_STYLE('',(#150));
#152=SURFACE_STYLE_USAGE(.BOTH.,#151);
#153=PRESENTATION_STYLE_ASSIGNMENT((#152));
#154=STYLED_ITEM('',(#153),#146);
#155=ADVANCED_FACE('',(#318,#320),#322,.F.);
#156=COLOUR_RGB('',0.6,1.,1.);
#157=FILL_AREA_STYLE_COLOUR('',#156);
#158=FILL_AREA_STYLE($,(#157));
#159=SURFACE_STYLE_FILL_AREA(#158);
#160=SURFACE_SIDE_STYLE('',(#159));
#161=SURFACE_STYLE_USAGE(.BOTH.,#160);
#162=PRESENTATION_STYLE_ASSIGNMENT((#161));
#163=STYLED_ITEM('',(#162),#155);
#164=ADVANCED_FACE('',(#327,#329),#331,.F.);
#165=COLOUR_RGB('',0.6,1.,1.);
#166=FILL_AREA_STYLE_COLOUR('',#165);
#167=FILL_AREA_STYLE($,(#166));
#168=SURFACE_STYLE_FILL_AREA(#167);
#169=SURFACE_SIDE_STYLE('',(#168));
#170=SURFACE_STYLE_USAGE(.BOTH.,#169);
#171=PRESENTATION_STYLE_ASSIGNMENT((#170));
#172=STYLED_ITEM('',(#171),#164);
#173=ADVANCED_FACE('',(#336),#338,.F.);
#174=COLOUR_RGB('',0.6,1.,1.);
#175=FILL_AREA_STYLE_COLOUR('',#174);
#176=FILL_AREA_STYLE($,(#175));
#177=SURFACE_STYLE_FILL_AREA(#176);
#178=SURFACE_SIDE_STYLE('',(#177));
#179=SURFACE_STYLE_USAGE(.BOTH.,#178);
#180=PRESENTATION_STYLE_ASSIGNMENT((#179));
#181=STYLED_ITEM('',(#180),#173);
#182=ADVANCED_FACE('',(#343),#345,.F.);
#183=COLOUR_RGB('',0.6,1.,1.);
#184=FILL_AREA_STYLE_COLOUR('',#183);
#185=FILL_AREA_STYLE($,(#184));
#186=SURFACE_STYLE_FILL_AREA(#185);
#187=SURFACE_SIDE_STYLE('',(#186));
#188=SURFACE_STYLE_USAGE(.BOTH.,#187);
#189=PRESENTATION_STYLE_ASSIGNMENT((#188));
#190=STYLED_ITEM('',(#189),#182);
#191=POLYLINE('',(#350,#351));
#192=COLOUR_RGB('',0.,0.,1.);
#193=PRESENTATION_STYLE_ASSIGNMENT((#194));
#194=CURVE_STYLE('',#195,POSITIVE_LENGTH_MEASURE(0.1),#192);
#195=PRE_DEFINED_CURVE_FONT('continuous');
#196=STYLED_ITEM('',(#193),#191);
#197=CIRCLE('',#352,2.5);
#198=COLOUR_RGB('',0.,0.,1.);
#199=PRESENTATION_STYLE_ASSIGNMENT((#200));
#200=CURVE_STYLE('',#201,POSITIVE_LENGTH_MEASURE(0.1),#198);
#201=PRE_DEFINED_CURVE_FONT('continuous');
#202=STYLED_ITEM('',(#199),#197);
#203=CIRCLE('',#356,2.5);
#204=COLOUR_RGB('',0.,0.,1.);
#205=PRESENTATION_STYLE_ASSIGNMENT((#206));
#206=CURVE_STYLE('',#207,POSITIVE_LENGTH_MEASURE(0.1),#204);
#207=PRE_DEFINED_CURVE_FONT('continuous');
#208=STYLED_ITEM('',(#205),#203);
#209=POLYLINE('',(#360,#361));
#210=COLOUR_RGB('',0.,0.,1.);
#211=PRESENTATION_STYLE_ASSIGNMENT((#212));
#212=CURVE_STYLE('',#213,POSITIVE_LENGTH_MEASURE(0.1),#210);
#213=PRE_DEFINED_CURVE_FONT('continuous');
#214=STYLED_ITEM('',(#211),#209);
#215=POLYLINE('',(#362,#363));
#216=COLOUR_RGB('',0.,0.,1.);
#217=PRESENTATION_STYLE_ASSIGNMENT((#218));
#218=CURVE_STYLE('',#219,POSITIVE_LENGTH_MEASURE(0.1),#216);
#219=PRE_DEFINED_CURVE_FONT('continuous');
#220=STYLED_ITEM('',(#217),#215);
#221=POLYLINE('',(#364,#365));
#222=COLOUR_RGB('',0.,0.,1.);
#223=PRESENTATION_STYLE_ASSIGNMENT((#224));
#224=CURVE_STYLE('',#225,POSITIVE_LENGTH_MEASURE(0.1),#222);
#225=PRE_DEFINED_CURVE_FONT('continuous');
#226=STYLED_ITEM('',(#223),#221);
#227=FACE_BOUND('',#228,.T.);
#228=EDGE_LOOP('',(#366,#367,#368,#369,#370,#371,#372,#373));
#229=FACE_BOUND('',#230,.T.);
#230=EDGE_LOOP('',(#374));
#231=PLANE('',#232);
#232=AXIS2_PLACEMENT_3D('',#233,#234,#235);
#233=CARTESIAN_POINT('',(-70.4367328411345,27.,105.));
#234=DIRECTION('',(0.,0.,-1.));
#235=DIRECTION('',(-1.,0.,0.));
#236=FACE_BOUND('',#237,.T.);
#237=EDGE_LOOP('',(#375,#376,#377,#378,#379,#380,#381,#382));
#238=FACE_BOUND('',#239,.T.);
#239=EDGE_LOOP('',(#383));
#240=PLANE('',#241);
#241=AXIS2_PLACEMENT_3D('',#242,#243,#244);
#242=CARTESIAN_POINT('',(-98.1495457622366,27.,125.));
#243=DIRECTION('',(0.,0.,1.));
#244=DIRECTION('',(1.,0.,0.));
#245=FACE_OUTER_BOUND('',#246,.T.);
#246=EDGE_LOOP('',(#384));
#247=FACE_OUTER_BOUND('',#248,.T.);
#248=EDGE_LOOP('',(#385));
#249=CYLINDRICAL_SURFACE('',#250,4.5);
#250=AXIS2_PLACEMENT_3D('',#251,#252,#253);
#251=CARTESIAN_POINT('',(-58.3227401592342,39.,101.017949192431));
#252=DIRECTION('',(-0.5,0.,0.866025403784439));
#253=DIRECTION('',(0.866025403784439,6.12323399573677E-17,0.5));
#254=FACE_BOUND('',#255,.T.);
#255=EDGE_LOOP('',(#386,#387,#388,#389));
#256=PLANE('',#257);
#257=AXIS2_PLACEMENT_3D('',#258,#259,#260);
#258=CARTESIAN_POINT('',(-86.602540378444,27.,105.));
#259=DIRECTION('',(-0.866025403784438,0.,-0.500000000000002));
#260=DIRECTION('',(-0.500000000000002,0.,0.866025403784438));
#261=FACE_BOUND('',#262,.T.);
#262=EDGE_LOOP('',(#390,#391,#392,#393,#394));
#263=FACE_BOUND('',#264,.T.);
#264=EDGE_LOOP('',(#395));
#265=PLANE('',#266);
#266=AXIS2_PLACEMENT_3D('',#267,#268,#269);
#267=CARTESIAN_POINT('',(0.,31.,1.8982025386784E-15));
#268=DIRECTION('',(0.,1.,6.12323399573677E-17));
#269=DIRECTION('',(6.12323399573677E-17,6.12323399573677E-17,-1.));
#270=FACE_BOUND('',#271,.T.);
#271=EDGE_LOOP('',(#396,#397,#398,#399));
#272=PLANE('',#273);
#273=AXIS2_PLACEMENT_3D('',#274,#275,#276);
#274=CARTESIAN_POINT('',(-70.4367328411345,27.,105.));
#275=DIRECTION('',(-0.866025403784438,0.,-0.500000000000002));
#276=DIRECTION('',(-0.500000000000002,0.,0.866025403784438));
#277=FACE_BOUND('',#278,.T.);
#278=EDGE_LOOP('',(#400,#401,#402,#403,#404,#405));
#279=PLANE('',#280);
#280=AXIS2_PLACEMENT_3D('',#281,#282,#283);
#281=CARTESIAN_POINT('',(0.,47.,2.87791997799628E-15));
#282=DIRECTION('',(0.,1.,6.12323399573677E-17));
#283=DIRECTION('',(6.12323399573677E-17,6.12323399573677E-17,-1.));
#284=FACE_BOUND('',#285,.T.);
#285=EDGE_LOOP('',(#406,#407,#408,#409));
#286=PLANE('',#287);
#287=AXIS2_PLACEMENT_3D('',#288,#289,#290);
#288=CARTESIAN_POINT('',(-62.3538290724797,27.,125.));
#289=DIRECTION('',(0.866025403784438,0.,0.500000000000001));
#290=DIRECTION('',(0.500000000000001,0.,-0.866025403784438));
#291=FACE_BOUND('',#292,.T.);
#292=EDGE_LOOP('',(#410,#411,#412,#413,#414));
#293=FACE_BOUND('',#294,.T.);
#294=EDGE_LOOP('',(#415));
#295=PLANE('',#296);
#296=AXIS2_PLACEMENT_3D('',#297,#298,#299);
#297=CARTESIAN_POINT('',(0.,31.,1.8982025386784E-15));
#298=DIRECTION('',(0.,1.,6.12323399573677E-17));
#299=DIRECTION('',(6.12323399573677E-17,6.12323399573677E-17,-1.));
#300=FACE_BOUND('',#301,.T.);
#301=EDGE_LOOP('',(#416,#417,#418,#419));
#302=PLANE('',#303);
#303=AXIS2_PLACEMENT_3D('',#304,#305,#306);
#304=CARTESIAN_POINT('',(-46.1880215351702,27.,125.));
#305=DIRECTION('',(0.866025403784438,0.,0.500000000000001));
#306=DIRECTION('',(0.500000000000001,0.,-0.866025403784438));
#307=FACE_BOUND('',#308,.T.);
#308=EDGE_LOOP('',(#420,#421,#422,#423));
#309=FACE_BOUND('',#310,.T.);
#310=EDGE_LOOP('',(#424));
#311=FACE_BOUND('',#312,.T.);
#312=EDGE_LOOP('',(#425));
#313=PLANE('',#314);
#314=AXIS2_PLACEMENT_3D('',#315,#316,#317);
#315=CARTESIAN_POINT('',(0.,27.,1.65327317884893E-15));
#316=DIRECTION('',(0.,1.,6.12323399573677E-17));
#317=DIRECTION('',(6.12323399573677E-17,6.12323399573677E-17,-1.));
#318=FACE_OUTER_BOUND('',#319,.T.);
#319=EDGE_LOOP('',(#426));
#320=FACE_OUTER_BOUND('',#321,.T.);
#321=EDGE_LOOP('',(#427));
#322=CYLINDRICAL_SURFACE('',#323,2.75);
#323=AXIS2_PLACEMENT_3D('',#324,#325,#326);
#324=CARTESIAN_POINT('',(-84.2931393016855,27.,115.));
#325=DIRECTION('',(0.,1.,6.12323399573677E-17));
#326=DIRECTION('',(6.12323399573677E-17,6.12323399573677E-17,-1.));
#327=FACE_OUTER_BOUND('',#328,.T.);
#328=EDGE_LOOP('',(#428));
#329=FACE_OUTER_BOUND('',#330,.T.);
#330=EDGE_LOOP('',(#429));
#331=CYLINDRICAL_SURFACE('',#332,2.75);
#332=AXIS2_PLACEMENT_3D('',#333,#334,#335);
#333=CARTESIAN_POINT('',(-48.4974226119287,27.,115.));
#334=DIRECTION('',(0.,1.,6.12323399573677E-17));
#335=DIRECTION('',(6.12323399573677E-17,6.12323399573677E-17,-1.));
#336=FACE_BOUND('',#337,.T.);
#337=EDGE_LOOP('',(#430,#431,#432,#433));
#338=PLANE('',#339);
#339=AXIS2_PLACEMENT_3D('',#340,#341,#342);
#340=CARTESIAN_POINT('',(-52.8068236886872,15.,108.464101615138));
#341=DIRECTION('',(-0.965925826289069,0.,0.258819045102518));
#342=DIRECTION('',(0.,1.,0.));
#343=FACE_BOUND('',#344,.T.);
#344=EDGE_LOOP('',(#434,#435,#436,#437));
#345=PLANE('',#346);
#346=AXIS2_PLACEMENT_3D('',#347,#348,#349);
#347=CARTESIAN_POINT('',(-79.983738224927,15.,121.535898384862));
#348=DIRECTION('',(0.965925826289069,0.,-0.258819045102518));
#349=DIRECTION('',(0.,1.,0.));
#350=CARTESIAN_POINT('',(170.,6.99999999999999,105.));
#351=CARTESIAN_POINT('',(-170.,6.99999999999999,105.));
#352=AXIS2_PLACEMENT_3D('',#353,#354,#355);
#353=CARTESIAN_POINT('',(-160.,6.99999999999999,115.));
#354=DIRECTION('',(0.,1.,6.12323399573677E-17));
#355=DIRECTION('',(1.,-3.74939945665464E-33,6.12323399573677E-17));
#356=AXIS2_PLACEMENT_3D('',#357,#358,#359);
#357=CARTESIAN_POINT('',(160.,6.99999999999999,115.));
#358=DIRECTION('',(0.,1.,6.12323399573677E-17));
#359=DIRECTION('',(1.,-3.74939945665464E-33,6.12323399573677E-17));
#360=CARTESIAN_POINT('',(170.,6.99999999999999,125.));
#361=CARTESIAN_POINT('',(-170.,6.99999999999999,125.));
#362=CARTESIAN_POINT('',(170.,6.99999999999999,105.));
#363=CARTESIAN_POINT('',(170.,6.99999999999999,125.));
#364=CARTESIAN_POINT('',(-170.,6.99999999999999,125.));
#365=CARTESIAN_POINT('',(-170.,6.99999999999999,105.));
#366=ORIENTED_EDGE('',*,*,#438,.F.);
#367=ORIENTED_EDGE('',*,*,#439,.F.);
#368=ORIENTED_EDGE('',*,*,#440,.F.);
#369=ORIENTED_EDGE('',*,*,#441,.T.);
#370=ORIENTED_EDGE('',*,*,#442,.T.);
#371=ORIENTED_EDGE('',*,*,#443,.F.);
#372=ORIENTED_EDGE('',*,*,#444,.T.);
#373=ORIENTED_EDGE('',*,*,#445,.F.);
#374=ORIENTED_EDGE('',*,*,#446,.T.);
#375=ORIENTED_EDGE('',*,*,#447,.F.);
#376=ORIENTED_EDGE('',*,*,#448,.F.);
#377=ORIENTED_EDGE('',*,*,#449,.F.);
#378=ORIENTED_EDGE('',*,*,#450,.T.);
#379=ORIENTED_EDGE('',*,*,#451,.T.);
#380=ORIENTED_EDGE('',*,*,#452,.F.);
#381=ORIENTED_EDGE('',*,*,#453,.T.);
#382=ORIENTED_EDGE('',*,*,#454,.F.);
#383=ORIENTED_EDGE('',*,*,#455,.T.);
#384=ORIENTED_EDGE('',*,*,#446,.F.);
#385=ORIENTED_EDGE('',*,*,#455,.F.);
#386=ORIENTED_EDGE('',*,*,#456,.T.);
#387=ORIENTED_EDGE('',*,*,#449,.T.);
#388=ORIENTED_EDGE('',*,*,#457,.F.);
#389=ORIENTED_EDGE('',*,*,#442,.F.);
#390=ORIENTED_EDGE('',*,*,#458,.F.);
#391=ORIENTED_EDGE('',*,*,#459,.F.);
#392=ORIENTED_EDGE('',*,*,#443,.T.);
#393=ORIENTED_EDGE('',*,*,#457,.T.);
#394=ORIENTED_EDGE('',*,*,#448,.T.);
#395=ORIENTED_EDGE('',*,*,#460,.T.);
#396=ORIENTED_EDGE('',*,*,#461,.T.);
#397=ORIENTED_EDGE('',*,*,#462,.F.);
#398=ORIENTED_EDGE('',*,*,#444,.F.);
#399=ORIENTED_EDGE('',*,*,#459,.T.);
#400=ORIENTED_EDGE('',*,*,#463,.F.);
#401=ORIENTED_EDGE('',*,*,#454,.T.);
#402=ORIENTED_EDGE('',*,*,#464,.T.);
#403=ORIENTED_EDGE('',*,*,#465,.F.);
#404=ORIENTED_EDGE('',*,*,#445,.T.);
#405=ORIENTED_EDGE('',*,*,#462,.T.);
#406=ORIENTED_EDGE('',*,*,#466,.T.);
#407=ORIENTED_EDGE('',*,*,#464,.F.);
#408=ORIENTED_EDGE('',*,*,#453,.F.);
#409=ORIENTED_EDGE('',*,*,#467,.T.);
#410=ORIENTED_EDGE('',*,*,#468,.F.);
#411=ORIENTED_EDGE('',*,*,#467,.F.);
#412=ORIENTED_EDGE('',*,*,#452,.T.);
#413=ORIENTED_EDGE('',*,*,#469,.T.);
#414=ORIENTED_EDGE('',*,*,#439,.T.);
#415=ORIENTED_EDGE('',*,*,#470,.T.);
#416=ORIENTED_EDGE('',*,*,#471,.T.);
#417=ORIENTED_EDGE('',*,*,#440,.T.);
#418=ORIENTED_EDGE('',*,*,#469,.F.);
#419=ORIENTED_EDGE('',*,*,#451,.F.);
#420=ORIENTED_EDGE('',*,*,#456,.F.);
#421=ORIENTED_EDGE('',*,*,#441,.F.);
#422=ORIENTED_EDGE('',*,*,#471,.F.);
#423=ORIENTED_EDGE('',*,*,#450,.F.);
#424=ORIENTED_EDGE('',*,*,#472,.T.);
#425=ORIENTED_EDGE('',*,*,#473,.T.);
#426=ORIENTED_EDGE('',*,*,#460,.F.);
#427=ORIENTED_EDGE('',*,*,#472,.F.);
#428=ORIENTED_EDGE('',*,*,#470,.F.);
#429=ORIENTED_EDGE('',*,*,#473,.F.);
#430=ORIENTED_EDGE('',*,*,#466,.F.);
#431=ORIENTED_EDGE('',*,*,#468,.T.);
#432=ORIENTED_EDGE('',*,*,#438,.T.);
#433=ORIENTED_EDGE('',*,*,#465,.T.);
#434=ORIENTED_EDGE('',*,*,#461,.F.);
#435=ORIENTED_EDGE('',*,*,#458,.T.);
#436=ORIENTED_EDGE('',*,*,#447,.T.);
#437=ORIENTED_EDGE('',*,*,#463,.T.);
#438=EDGE_CURVE('',#474,#475,#476,.T.);
#439=EDGE_CURVE('',#477,#474,#478,.T.);
#440=EDGE_CURVE('',#479,#477,#480,.T.);
#441=EDGE_CURVE('',#479,#481,#482,.T.);
#442=EDGE_CURVE('',#481,#483,#484,.T.);
#443=EDGE_CURVE('',#485,#483,#486,.T.);
#444=EDGE_CURVE('',#485,#487,#488,.T.);
#445=EDGE_CURVE('',#475,#487,#489,.T.);
#446=EDGE_CURVE('',#490,#490,#491,.T.);
#447=EDGE_CURVE('',#492,#493,#494,.T.);
#448=EDGE_CURVE('',#495,#492,#496,.T.);
#449=EDGE_CURVE('',#497,#495,#498,.T.);
#450=EDGE_CURVE('',#497,#499,#500,.T.);
#451=EDGE_CURVE('',#499,#501,#502,.T.);
#452=EDGE_CURVE('',#503,#501,#504,.T.);
#453=EDGE_CURVE('',#503,#505,#506,.T.);
#454=EDGE_CURVE('',#493,#505,#507,.T.);
#455=EDGE_CURVE('',#508,#508,#509,.F.);
#456=EDGE_CURVE('',#481,#497,#510,.T.);
#457=EDGE_CURVE('',#483,#495,#511,.T.);
#458=EDGE_CURVE('',#512,#492,#513,.F.);
#459=EDGE_CURVE('',#485,#512,#514,.T.);
#460=EDGE_CURVE('',#515,#515,#516,.F.);
#461=EDGE_CURVE('',#512,#517,#518,.T.);
#462=EDGE_CURVE('',#487,#517,#519,.T.);
#463=EDGE_CURVE('',#493,#517,#520,.F.);
#464=EDGE_CURVE('',#505,#521,#522,.T.);
#465=EDGE_CURVE('',#475,#521,#523,.F.);
#466=EDGE_CURVE('',#524,#521,#525,.T.);
#467=EDGE_CURVE('',#503,#524,#526,.T.);
#468=EDGE_CURVE('',#524,#474,#527,.F.);
#469=EDGE_CURVE('',#501,#477,#528,.T.);
#470=EDGE_CURVE('',#529,#529,#530,.F.);
#471=EDGE_CURVE('',#499,#479,#531,.T.);
#472=EDGE_CURVE('',#532,#532,#533,.T.);
#473=EDGE_CURVE('',#534,#534,#535,.T.);
#474=VERTEX_POINT('',#536);
#475=VERTEX_POINT('',#537);
#476=LINE('',#538,#539);
#477=VERTEX_POINT('',#541);
#478=LINE('',#542,#543);
#479=VERTEX_POINT('',#545);
#480=LINE('',#546,#547);
#481=VERTEX_POINT('',#549);
#482=LINE('',#550,#551);
#483=VERTEX_POINT('',#553);
#484=LINE('',#554,#555);
#485=VERTEX_POINT('',#557);
#486=LINE('',#558,#559);
#487=VERTEX_POINT('',#561);
#488=LINE('',#562,#563);
#489=LINE('',#565,#566);
#490=VERTEX_POINT('',#568);
#491=(BOUNDED_CURVE()B_SPLINE_CURVE(3,
(#569,#570,#571,#572,#573,#574,#575),
.UNSPECIFIED.,.T.,.F.)B_SPLINE_CURVE_WITH_KNOTS((4,3,4),
(0.,0.5,1.),
.UNSPECIFIED.)CURVE()GEOMETRIC_REPRESENTATION_ITEM()RATIONAL_B_SPLINE_CURVE((1.,
0.333333333333333,0.333333333333333,1.,0.333333333333333,0.333333333333333,1.))
REPRESENTATION_ITEM(''));
#492=VERTEX_POINT('',#576);
#493=VERTEX_POINT('',#577);
#494=LINE('',#578,#579);
#495=VERTEX_POINT('',#581);
#496=LINE('',#582,#583);
#497=VERTEX_POINT('',#585);
#498=LINE('',#586,#587);
#499=VERTEX_POINT('',#589);
#500=LINE('',#590,#591);
#501=VERTEX_POINT('',#593);
#502=LINE('',#594,#595);
#503=VERTEX_POINT('',#597);
#504=LINE('',#598,#599);
#505=VERTEX_POINT('',#601);
#506=LINE('',#602,#603);
#507=LINE('',#605,#606);
#508=VERTEX_POINT('',#608);
#509=(BOUNDED_CURVE()B_SPLINE_CURVE(3,
(#609,#610,#611,#612,#613,#614,#615),
.UNSPECIFIED.,.T.,.F.)B_SPLINE_CURVE_WITH_KNOTS((4,3,4),
(0.,0.5,1.),
.UNSPECIFIED.)CURVE()GEOMETRIC_REPRESENTATION_ITEM()RATIONAL_B_SPLINE_CURVE((1.,
0.333333333333333,0.333333333333333,1.,0.333333333333333,0.333333333333333,1.))
REPRESENTATION_ITEM(''));
#510=LINE('',#616,#617);
#511=LINE('',#619,#620);
#512=VERTEX_POINT('',#622);
#513=LINE('',#623,#624);
#514=LINE('',#626,#627);
#515=VERTEX_POINT('',#629);
#516=CIRCLE('',#630,2.75);
#517=VERTEX_POINT('',#634);
#518=LINE('',#635,#636);
#519=LINE('',#638,#639);
#520=LINE('',#641,#642);
#521=VERTEX_POINT('',#644);
#522=LINE('',#645,#646);
#523=LINE('',#648,#649);
#524=VERTEX_POINT('',#651);
#525=LINE('',#652,#653);
#526=LINE('',#655,#656);
#527=LINE('',#658,#659);
#528=LINE('',#661,#662);
#529=VERTEX_POINT('',#664);
#530=CIRCLE('',#665,2.75);
#531=LINE('',#669,#670);
#532=VERTEX_POINT('',#672);
#533=CIRCLE('',#673,2.75);
#534=VERTEX_POINT('',#677);
#535=CIRCLE('',#678,2.75);
#536=CARTESIAN_POINT('',(-53.7350269189627,31.,105.));
#537=CARTESIAN_POINT('',(-53.7350269189627,47.,105.));
#538=CARTESIAN_POINT('',(-53.7350269189627,31.,105.));
#539=VECTOR('',#540,1.);
#540=DIRECTION('',(0.,1.,0.));
#541=CARTESIAN_POINT('',(-34.6410161513777,31.,105.));
#542=CARTESIAN_POINT('',(-34.6410161513777,31.,105.));
#543=VECTOR('',#544,1.);
#544=DIRECTION('',(-1.,0.,0.));
#545=CARTESIAN_POINT('',(-34.6410161513777,27.,105.));
#546=CARTESIAN_POINT('',(-34.6410161513777,27.,105.));
#547=VECTOR('',#548,1.);
#548=DIRECTION('',(0.,1.,0.));
#549=CARTESIAN_POINT('',(-86.602540378444,27.,105.));
#550=CARTESIAN_POINT('',(-34.6410161513777,27.,105.));
#551=VECTOR('',#552,1.);
#552=DIRECTION('',(-1.,0.,0.));
#553=CARTESIAN_POINT('',(-86.602540378444,31.,105.));
#554=CARTESIAN_POINT('',(-86.602540378444,27.,105.));
#555=VECTOR('',#556,1.);
#556=DIRECTION('',(0.,1.,0.));
#557=CARTESIAN_POINT('',(-70.4367328411345,31.,105.));
#558=CARTESIAN_POINT('',(-70.4367328411345,31.,105.));
#559=VECTOR('',#560,1.);
#560=DIRECTION('',(-1.,0.,0.));
#561=CARTESIAN_POINT('',(-70.4367328411345,47.,105.));
#562=CARTESIAN_POINT('',(-70.4367328411345,31.,105.));
#563=VECTOR('',#564,1.);
#564=DIRECTION('',(0.,1.,0.));
#565=CARTESIAN_POINT('',(-53.7350269189627,47.,105.));
#566=VECTOR('',#567,1.);
#567=DIRECTION('',(-1.,0.,0.));
#568=CARTESIAN_POINT('',(-55.4256258422042,39.,105.));
#569=CARTESIAN_POINT('',(-55.4256258422042,39.,105.));
#570=CARTESIAN_POINT('',(-55.4256258422042,48.,105.));
#571=CARTESIAN_POINT('',(-65.8179306876175,48.,105.));
#572=CARTESIAN_POINT('',(-65.8179306876175,39.,105.));
#573=CARTESIAN_POINT('',(-65.8179306876175,30.,105.));
#574=CARTESIAN_POINT('',(-55.4256258422042,30.,105.));
#575=CARTESIAN_POINT('',(-55.4256258422042,39.,105.));
#576=CARTESIAN_POINT('',(-79.0555349946515,31.,125.));
#577=CARTESIAN_POINT('',(-79.0555349946515,47.,125.));
#578=CARTESIAN_POINT('',(-79.0555349946515,31.,125.));
#579=VECTOR('',#580,1.);
#580=DIRECTION('',(0.,1.,0.));
#581=CARTESIAN_POINT('',(-98.1495457622366,31.,125.));
#582=CARTESIAN_POINT('',(-98.1495457622366,31.,125.));
#583=VECTOR('',#584,1.);
#584=DIRECTION('',(1.,0.,0.));
#585=CARTESIAN_POINT('',(-98.1495457622366,27.,125.));
#586=CARTESIAN_POINT('',(-98.1495457622366,27.,125.));
#587=VECTOR('',#588,1.);
#588=DIRECTION('',(0.,1.,0.));
#589=CARTESIAN_POINT('',(-46.1880215351702,27.,125.));
#590=CARTESIAN_POINT('',(-98.1495457622366,27.,125.));
#591=VECTOR('',#592,1.);
#592=DIRECTION('',(1.,0.,0.));
#593=CARTESIAN_POINT('',(-46.1880215351702,31.,125.));
#594=CARTESIAN_POINT('',(-46.1880215351702,27.,125.));
#595=VECTOR('',#596,1.);
#596=DIRECTION('',(0.,1.,0.));
#597=CARTESIAN_POINT('',(-62.3538290724797,31.,125.));
#598=CARTESIAN_POINT('',(-62.3538290724797,31.,125.));
#599=VECTOR('',#600,1.);
#600=DIRECTION('',(1.,0.,0.));
#601=CARTESIAN_POINT('',(-62.3538290724797,47.,125.));
#602=CARTESIAN_POINT('',(-62.3538290724797,31.,125.));
#603=VECTOR('',#604,1.);
#604=DIRECTION('',(0.,1.,0.));
#605=CARTESIAN_POINT('',(-79.0555349946515,47.,125.));
#606=VECTOR('',#607,1.);
#607=DIRECTION('',(1.,0.,0.));
#608=CARTESIAN_POINT('',(-66.9726312259968,39.,125.));
#609=CARTESIAN_POINT('',(-66.9726312259968,39.,125.));
#610=CARTESIAN_POINT('',(-66.9726312259968,48.,125.));
#611=CARTESIAN_POINT('',(-77.36493607141,48.,125.));
#612=CARTESIAN_POINT('',(-77.36493607141,39.,125.));
#613=CARTESIAN_POINT('',(-77.36493607141,30.,125.));
#614=CARTESIAN_POINT('',(-66.9726312259968,30.,125.));
#615=CARTESIAN_POINT('',(-66.9726312259968,39.,125.));
#616=CARTESIAN_POINT('',(-86.602540378444,27.,105.));
#617=VECTOR('',#618,1.);
#618=DIRECTION('',(-0.500000000000002,0.,0.866025403784438));
#619=CARTESIAN_POINT('',(-86.602540378444,31.,105.));
#620=VECTOR('',#621,1.);
#621=DIRECTION('',(-0.500000000000002,0.,0.866025403784438));
#622=CARTESIAN_POINT('',(-79.983738224927,31.,121.535898384862));
#623=CARTESIAN_POINT('',(-79.0555349946515,31.,125.));
#624=VECTOR('',#625,1.);
#625=DIRECTION('',(-0.258819045102518,0.,-0.965925826289069));
#626=CARTESIAN_POINT('',(-70.4367328411345,31.,105.));
#627=VECTOR('',#628,1.);
#628=DIRECTION('',(-0.500000000000002,0.,0.866025403784438));
#629=CARTESIAN_POINT('',(-84.2931393016855,31.,112.25));
#630=AXIS2_PLACEMENT_3D('',#631,#632,#633);
#631=CARTESIAN_POINT('',(-84.2931393016855,31.,115.));
#632=DIRECTION('',(0.,1.,6.12323399573677E-17));
#633=DIRECTION('',(6.12323399573677E-17,6.12323399573677E-17,-1.));
#634=CARTESIAN_POINT('',(-79.983738224927,47.,121.535898384862));
#635=CARTESIAN_POINT('',(-79.983738224927,31.,121.535898384862));
#636=VECTOR('',#637,1.);
#637=DIRECTION('',(0.,1.,0.));
#638=CARTESIAN_POINT('',(-70.4367328411345,47.,105.));
#639=VECTOR('',#640,1.);
#640=DIRECTION('',(-0.500000000000002,0.,0.866025403784438));
#641=CARTESIAN_POINT('',(-79.983738224927,47.,121.535898384862));
#642=VECTOR('',#643,1.);
#643=DIRECTION('',(0.258819045102518,0.,0.965925826289069));
#644=CARTESIAN_POINT('',(-52.8068236886872,47.,108.464101615138));
#645=CARTESIAN_POINT('',(-62.3538290724797,47.,125.));
#646=VECTOR('',#647,1.);
#647=DIRECTION('',(0.500000000000001,0.,-0.866025403784438));
#648=CARTESIAN_POINT('',(-52.8068236886872,47.,108.464101615138));
#649=VECTOR('',#650,1.);
#650=DIRECTION('',(-0.258819045102518,0.,-0.965925826289069));
#651=CARTESIAN_POINT('',(-52.8068236886872,31.,108.464101615138));
#652=CARTESIAN_POINT('',(-52.8068236886872,31.,108.464101615138));
#653=VECTOR('',#654,1.);
#654=DIRECTION('',(0.,1.,0.));
#655=CARTESIAN_POINT('',(-62.3538290724797,31.,125.));
#656=VECTOR('',#657,1.);
#657=DIRECTION('',(0.500000000000001,0.,-0.866025403784438));
#658=CARTESIAN_POINT('',(-53.7350269189627,31.,105.));
#659=VECTOR('',#660,1.);
#660=DIRECTION('',(0.258819045102518,0.,0.965925826289069));
#661=CARTESIAN_POINT('',(-46.1880215351702,31.,125.));
#662=VECTOR('',#663,1.);
#663=DIRECTION('',(0.500000000000001,0.,-0.866025403784438));
#664=CARTESIAN_POINT('',(-48.4974226119287,31.,112.25));
#665=AXIS2_PLACEMENT_3D('',#666,#667,#668);
#666=CARTESIAN_POINT('',(-48.4974226119287,31.,115.));
#667=DIRECTION('',(0.,1.,6.12323399573677E-17));
#668=DIRECTION('',(6.12323399573677E-17,6.12323399573677E-17,-1.));
#669=CARTESIAN_POINT('',(-46.1880215351702,27.,125.));
#670=VECTOR('',#671,1.);
#671=DIRECTION('',(0.500000000000001,0.,-0.866025403784438));
#672=CARTESIAN_POINT('',(-84.2931393016855,27.,112.25));
#673=AXIS2_PLACEMENT_3D('',#674,#675,#676);
#674=CARTESIAN_POINT('',(-84.2931393016855,27.,115.));
#675=DIRECTION('',(0.,1.,6.12323399573677E-17));
#676=DIRECTION('',(6.12323399573677E-17,6.12323399573677E-17,-1.));
#677=CARTESIAN_POINT('',(-48.4974226119287,27.,112.25));
#678=AXIS2_PLACEMENT_3D('',#679,#680,#681);
#679=CARTESIAN_POINT('',(-48.4974226119287,27.,115.));
#680=DIRECTION('',(0.,1.,6.12323399573677E-17));
#681=DIRECTION('',(6.12323399573677E-17,6.12323399573677E-17,-1.));
ENDSEC;
END-ISO-10303-21;
