ISO-10303-21;
HEADER;
FILE_DESCRIPTION(('STEP AP203'),
    '1');
FILE_NAME('Стойка прямого лазера',
    '',
    ('UNSPECIFIED'),
    ('UNSPECIFIED'),
    'C3D Converter',
    'C3D Toolkit',
    '');
FILE_SCHEMA(('CONFIG_CONTROL_DESIGN'));
ENDSEC;

DATA;
#1=PRODUCT_DEFINITION('','UNSPECIFIED',#31,#34);
#2=SHAPE_DEFINITION_REPRESENTATION(#29,#3);
#3=SHAPE_REPRESENTATION('NONE',(#4),#8);
#4=AXIS2_PLACEMENT_3D('',#5,#6,#7);
#5=CARTESIAN_POINT('',(0.,0.,0.));
#6=DIRECTION('',(0.,0.,1.));
#7=DIRECTION('',(1.,0.,0.));
#8=(GEOMETRIC_REPRESENTATION_CONTEXT(3)GLOBAL_UNCERTAINTY_ASSIGNED_CONTEXT((#10))
GLOBAL_UNIT_ASSIGNED_CONTEXT((#9,#11,#12))REPRESENTATION_CONTEXT('NONE','NONE'));
#9=(LENGTH_UNIT()NAMED_UNIT(*)SI_UNIT(.MILLI.,.METRE.));
#10=UNCERTAINTY_MEASURE_WITH_UNIT(LENGTH_MEASURE(1.E-5),#9,'NONE','NONE');
#11=(NAMED_UNIT(*)PLANE_ANGLE_UNIT()SI_UNIT($,.RADIAN.));
#12=(NAMED_UNIT(*)SI_UNIT($,.STERADIAN.)SOLID_ANGLE_UNIT());
#13=MANIFOLD_SOLID_BREP('',#14);
#14=CLOSED_SHELL('',(#56,#65,#74,#83,#92,#101,#110,#119,#128,#137,#146,#155,#164));
#15=COLOUR_RGB('',0.282352941176471,0.282352941176471,0.282352941176471);
#16=FILL_AREA_STYLE_COLOUR('',#15);
#17=FILL_AREA_STYLE($,(#16));
#18=SURFACE_STYLE_FILL_AREA(#17);
#19=SURFACE_SIDE_STYLE('',(#18));
#20=SURFACE_STYLE_USAGE(.BOTH.,#19);
#21=PRESENTATION_STYLE_ASSIGNMENT((#20));
#22=MECHANICAL_DESIGN_GEOMETRIC_PRESENTATION_REPRESENTATION('NONE',(#23,#64,#73,
#82,#91,#100,#109,#118,#127,#136,#145,#154,#163,#172,#178,#184,#190,#196,#202,#208),
#8);
#23=STYLED_ITEM('',(#21),#13);
#24=ADVANCED_BREP_SHAPE_REPRESENTATION('NONE',(#13),#8);
#25=SHAPE_REPRESENTATION_RELATIONSHIP('','',#3,#24);
#26=GEOMETRIC_CURVE_SET('',(#173,#179,#185,#191,#197,#203));
#27=GEOMETRICALLY_BOUNDED_WIREFRAME_SHAPE_REPRESENTATION('NONE',(#26),#8);
#28=SHAPE_REPRESENTATION_RELATIONSHIP('','',#3,#27);
#29=PRODUCT_DEFINITION_SHAPE('NONE','NONE',#1);
#30=MECHANICAL_CONTEXT('NONE',#35,'mechanical');
#31=PRODUCT_DEFINITION_FORMATION_WITH_SPECIFIED_SOURCE('ANY','UNSPECIFIED',#32,.NOT_KNOWN.);
#32=PRODUCT('','\X2\04210442043E0439043A0430\X0\ \X2\043F0440044F043C043E0433043E\X0\ \X2\043B04300437043504400430\X0\',
'NONE',(#30));
#33=PRODUCT_RELATED_PRODUCT_CATEGORY('detail','',(#32));
#34=DESIGN_CONTEXT('detailed design',#35,'design');
#35=APPLICATION_CONTEXT('configuration controlled 3d designs of mechanical parts and assemblies');
#36=APPLICATION_PROTOCOL_DEFINITION('international standard','config_control_design',
1994,#35);
#37=CC_DESIGN_DATE_AND_TIME_ASSIGNMENT(#38,#42,(#1));
#38=DATE_AND_TIME(#39,#40);
#39=CALENDAR_DATE(0,1,1);
#40=LOCAL_TIME(0,0,0.,#41);
#41=COORDINATED_UNIVERSAL_TIME_OFFSET(0,0,.AHEAD.);
#42=DATE_TIME_ROLE('creation_date');
#43=CC_DESIGN_APPROVAL(#44,(#1));
#44=APPROVAL(#45,'UNSPECIFIED');
#45=APPROVAL_STATUS('not_yet_approved');
#46=APPROVAL_DATE_TIME(#47,#44);
#47=DATE_AND_TIME(#48,#49);
#48=CALENDAR_DATE(0,1,1);
#49=LOCAL_TIME(0,0,0.,#50);
#50=COORDINATED_UNIVERSAL_TIME_OFFSET(0,0,.AHEAD.);
#51=PERSON('UNSPECIFIED','Admin','UNSPECIFIED',('UNSPECIFIED'),('UNSPECIFIED'),(
'UNSPECIFIED'));
#52=ORGANIZATION('UNSPECIFIED','UNSPECIFIED','UNSPECIFIED');
#53=PERSON_AND_ORGANIZATION(#51,#52);
#54=PERSON_AND_ORGANIZATION_ROLE('creator');
#55=CC_DESIGN_PERSON_AND_ORGANIZATION_ASSIGNMENT(#53,#54,(#31,#1));
#56=ADVANCED_FACE('',(#209,#211),#213,.T.);
#57=COLOUR_RGB('',0.6,1.,1.);
#58=FILL_AREA_STYLE_COLOUR('',#57);
#59=FILL_AREA_STYLE($,(#58));
#60=SURFACE_STYLE_FILL_AREA(#59);
#61=SURFACE_SIDE_STYLE('',(#60));
#62=SURFACE_STYLE_USAGE(.BOTH.,#61);
#63=PRESENTATION_STYLE_ASSIGNMENT((#62));
#64=STYLED_ITEM('',(#63),#56);
#65=ADVANCED_FACE('',(#218,#220),#222,.T.);
#66=COLOUR_RGB('',0.6,1.,1.);
#67=FILL_AREA_STYLE_COLOUR('',#66);
#68=FILL_AREA_STYLE($,(#67));
#69=SURFACE_STYLE_FILL_AREA(#68);
#70=SURFACE_SIDE_STYLE('',(#69));
#71=SURFACE_STYLE_USAGE(.BOTH.,#70);
#72=PRESENTATION_STYLE_ASSIGNMENT((#71));
#73=STYLED_ITEM('',(#72),#65);
#74=ADVANCED_FACE('',(#227,#229),#231,.F.);
#75=COLOUR_RGB('',0.6,1.,1.);
#76=FILL_AREA_STYLE_COLOUR('',#75);
#77=FILL_AREA_STYLE($,(#76));
#78=SURFACE_STYLE_FILL_AREA(#77);
#79=SURFACE_SIDE_STYLE('',(#78));
#80=SURFACE_STYLE_USAGE(.BOTH.,#79);
#81=PRESENTATION_STYLE_ASSIGNMENT((#80));
#82=STYLED_ITEM('',(#81),#74);
#83=ADVANCED_FACE('',(#236),#238,.T.);
#84=COLOUR_RGB('',0.6,1.,1.);
#85=FILL_AREA_STYLE_COLOUR('',#84);
#86=FILL_AREA_STYLE($,(#85));
#87=SURFACE_STYLE_FILL_AREA(#86);
#88=SURFACE_SIDE_STYLE('',(#87));
#89=SURFACE_STYLE_USAGE(.BOTH.,#88);
#90=PRESENTATION_STYLE_ASSIGNMENT((#89));
#91=STYLED_ITEM('',(#90),#83);
#92=ADVANCED_FACE('',(#243,#245),#247,.T.);
#93=COLOUR_RGB('',0.6,1.,1.);
#94=FILL_AREA_STYLE_COLOUR('',#93);
#95=FILL_AREA_STYLE($,(#94));
#96=SURFACE_STYLE_FILL_AREA(#95);
#97=SURFACE_SIDE_STYLE('',(#96));
#98=SURFACE_STYLE_USAGE(.BOTH.,#97);
#99=PRESENTATION_STYLE_ASSIGNMENT((#98));
#100=STYLED_ITEM('',(#99),#92);
#101=ADVANCED_FACE('',(#252),#254,.T.);
#102=COLOUR_RGB('',0.6,1.,1.);
#103=FILL_AREA_STYLE_COLOUR('',#102);
#104=FILL_AREA_STYLE($,(#103));
#105=SURFACE_STYLE_FILL_AREA(#104);
#106=SURFACE_SIDE_STYLE('',(#105));
#107=SURFACE_STYLE_USAGE(.BOTH.,#106);
#108=PRESENTATION_STYLE_ASSIGNMENT((#107));
#109=STYLED_ITEM('',(#108),#101);
#110=ADVANCED_FACE('',(#259),#261,.T.);
#111=COLOUR_RGB('',0.6,1.,1.);
#112=FILL_AREA_STYLE_COLOUR('',#111);
#113=FILL_AREA_STYLE($,(#112));
#114=SURFACE_STYLE_FILL_AREA(#113);
#115=SURFACE_SIDE_STYLE('',(#114));
#116=SURFACE_STYLE_USAGE(.BOTH.,#115);
#117=PRESENTATION_STYLE_ASSIGNMENT((#116));
#118=STYLED_ITEM('',(#117),#110);
#119=ADVANCED_FACE('',(#266),#268,.T.);
#120=COLOUR_RGB('',0.6,1.,1.);
#121=FILL_AREA_STYLE_COLOUR('',#120);
#122=FILL_AREA_STYLE($,(#121));
#123=SURFACE_STYLE_FILL_AREA(#122);
#124=SURFACE_SIDE_STYLE('',(#123));
#125=SURFACE_STYLE_USAGE(.BOTH.,#124);
#126=PRESENTATION_STYLE_ASSIGNMENT((#125));
#127=STYLED_ITEM('',(#126),#119);
#128=ADVANCED_FACE('',(#273,#275),#277,.T.);
#129=COLOUR_RGB('',0.6,1.,1.);
#130=FILL_AREA_STYLE_COLOUR('',#129);
#131=FILL_AREA_STYLE($,(#130));
#132=SURFACE_STYLE_FILL_AREA(#131);
#133=SURFACE_SIDE_STYLE('',(#132));
#134=SURFACE_STYLE_USAGE(.BOTH.,#133);
#135=PRESENTATION_STYLE_ASSIGNMENT((#134));
#136=STYLED_ITEM('',(#135),#128);
#137=ADVANCED_FACE('',(#282),#284,.T.);
#138=COLOUR_RGB('',0.6,1.,1.);
#139=FILL_AREA_STYLE_COLOUR('',#138);
#140=FILL_AREA_STYLE($,(#139));
#141=SURFACE_STYLE_FILL_AREA(#140);
#142=SURFACE_SIDE_STYLE('',(#141));
#143=SURFACE_STYLE_USAGE(.BOTH.,#142);
#144=PRESENTATION_STYLE_ASSIGNMENT((#143));
#145=STYLED_ITEM('',(#144),#137);
#146=ADVANCED_FACE('',(#289,#291,#293),#295,.F.);
#147=COLOUR_RGB('',0.6,1.,1.);
#148=FILL_AREA_STYLE_COLOUR('',#147);
#149=FILL_AREA_STYLE($,(#148));
#150=SURFACE_STYLE_FILL_AREA(#149);
#151=SURFACE_SIDE_STYLE('',(#150));
#152=SURFACE_STYLE_USAGE(.BOTH.,#151);
#153=PRESENTATION_STYLE_ASSIGNMENT((#152));
#154=STYLED_ITEM('',(#153),#146);
#155=ADVANCED_FACE('',(#300,#302),#304,.F.);
#156=COLOUR_RGB('',0.6,1.,1.);
#157=FILL_AREA_STYLE_COLOUR('',#156);
#158=FILL_AREA_STYLE($,(#157));
#159=SURFACE_STYLE_FILL_AREA(#158);
#160=SURFACE_SIDE_STYLE('',(#159));
#161=SURFACE_STYLE_USAGE(.BOTH.,#160);
#162=PRESENTATION_STYLE_ASSIGNMENT((#161));
#163=STYLED_ITEM('',(#162),#155);
#164=ADVANCED_FACE('',(#309,#311),#313,.F.);
#165=COLOUR_RGB('',0.6,1.,1.);
#166=FILL_AREA_STYLE_COLOUR('',#165);
#167=FILL_AREA_STYLE($,(#166));
#168=SURFACE_STYLE_FILL_AREA(#167);
#169=SURFACE_SIDE_STYLE('',(#168));
#170=SURFACE_STYLE_USAGE(.BOTH.,#169);
#171=PRESENTATION_STYLE_ASSIGNMENT((#170));
#172=STYLED_ITEM('',(#171),#164);
#173=POLYLINE('',(#318,#319));
#174=COLOUR_RGB('',0.,0.,1.);
#175=PRESENTATION_STYLE_ASSIGNMENT((#176));
#176=CURVE_STYLE('',#177,POSITIVE_LENGTH_MEASURE(0.1),#174);
#177=PRE_DEFINED_CURVE_FONT('continuous');
#178=STYLED_ITEM('',(#175),#173);
#179=CIRCLE('',#320,2.5);
#180=COLOUR_RGB('',0.,0.,1.);
#181=PRESENTATION_STYLE_ASSIGNMENT((#182));
#182=CURVE_STYLE('',#183,POSITIVE_LENGTH_MEASURE(0.1),#180);
#183=PRE_DEFINED_CURVE_FONT('continuous');
#184=STYLED_ITEM('',(#181),#179);
#185=CIRCLE('',#324,2.5);
#186=COLOUR_RGB('',0.,0.,1.);
#187=PRESENTATION_STYLE_ASSIGNMENT((#188));
#188=CURVE_STYLE('',#189,POSITIVE_LENGTH_MEASURE(0.1),#186);
#189=PRE_DEFINED_CURVE_FONT('continuous');
#190=STYLED_ITEM('',(#187),#185);
#191=POLYLINE('',(#328,#329));
#192=COLOUR_RGB('',0.,0.,1.);
#193=PRESENTATION_STYLE_ASSIGNMENT((#194));
#194=CURVE_STYLE('',#195,POSITIVE_LENGTH_MEASURE(0.1),#192);
#195=PRE_DEFINED_CURVE_FONT('continuous');
#196=STYLED_ITEM('',(#193),#191);
#197=POLYLINE('',(#330,#331));
#198=COLOUR_RGB('',0.,0.,1.);
#199=PRESENTATION_STYLE_ASSIGNMENT((#200));
#200=CURVE_STYLE('',#201,POSITIVE_LENGTH_MEASURE(0.1),#198);
#201=PRE_DEFINED_CURVE_FONT('continuous');
#202=STYLED_ITEM('',(#199),#197);
#203=POLYLINE('',(#332,#333));
#204=COLOUR_RGB('',0.,0.,1.);
#205=PRESENTATION_STYLE_ASSIGNMENT((#206));
#206=CURVE_STYLE('',#207,POSITIVE_LENGTH_MEASURE(0.1),#204);
#207=PRE_DEFINED_CURVE_FONT('continuous');
#208=STYLED_ITEM('',(#205),#203);
#209=FACE_BOUND('',#210,.T.);
#210=EDGE_LOOP('',(#334,#335,#336,#337,#338,#339,#340,#341));
#211=FACE_BOUND('',#212,.T.);
#212=EDGE_LOOP('',(#342));
#213=PLANE('',#214);
#214=AXIS2_PLACEMENT_3D('',#215,#216,#217);
#215=CARTESIAN_POINT('',(-8.50000000000001,27.,105.));
#216=DIRECTION('',(0.,0.,-1.));
#217=DIRECTION('',(-1.,0.,0.));
#218=FACE_BOUND('',#219,.T.);
#219=EDGE_LOOP('',(#343,#344,#345,#346,#347,#348,#349,#350));
#220=FACE_BOUND('',#221,.T.);
#221=EDGE_LOOP('',(#351));
#222=PLANE('',#223);
#223=AXIS2_PLACEMENT_3D('',#224,#225,#226);
#224=CARTESIAN_POINT('',(-22.5,27.,125.));
#225=DIRECTION('',(0.,0.,1.));
#226=DIRECTION('',(1.,0.,0.));
#227=FACE_OUTER_BOUND('',#228,.T.);
#228=EDGE_LOOP('',(#352));
#229=FACE_OUTER_BOUND('',#230,.T.);
#230=EDGE_LOOP('',(#353));
#231=CYLINDRICAL_SURFACE('',#232,4.5);
#232=AXIS2_PLACEMENT_3D('',#233,#234,#235);
#233=CARTESIAN_POINT('',(-7.5952860772574E-15,39.,104.));
#234=DIRECTION('',(0.,0.,1.));
#235=DIRECTION('',(1.,0.,0.));
#236=FACE_BOUND('',#237,.T.);
#237=EDGE_LOOP('',(#354,#355,#356,#357));
#238=PLANE('',#239);
#239=AXIS2_PLACEMENT_3D('',#240,#241,#242);
#240=CARTESIAN_POINT('',(-22.5,27.,105.));
#241=DIRECTION('',(-1.,0.,0.));
#242=DIRECTION('',(0.,0.,1.));
#243=FACE_BOUND('',#244,.T.);
#244=EDGE_LOOP('',(#358,#359,#360,#361));
#245=FACE_BOUND('',#246,.T.);
#246=EDGE_LOOP('',(#362));
#247=PLANE('',#248);
#248=AXIS2_PLACEMENT_3D('',#249,#250,#251);
#249=CARTESIAN_POINT('',(0.,31.,1.8982025386784E-15));
#250=DIRECTION('',(0.,1.,6.12323399573677E-17));
#251=DIRECTION('',(6.12323399573677E-17,6.12323399573677E-17,-1.));
#252=FACE_BOUND('',#253,.T.);
#253=EDGE_LOOP('',(#363,#364,#365,#366));
#254=PLANE('',#255);
#255=AXIS2_PLACEMENT_3D('',#256,#257,#258);
#256=CARTESIAN_POINT('',(-8.50000000000001,27.,105.));
#257=DIRECTION('',(-1.,0.,0.));
#258=DIRECTION('',(0.,0.,1.));
#259=FACE_BOUND('',#260,.T.);
#260=EDGE_LOOP('',(#367,#368,#369,#370));
#261=PLANE('',#262);
#262=AXIS2_PLACEMENT_3D('',#263,#264,#265);
#263=CARTESIAN_POINT('',(0.,47.,2.87791997799628E-15));
#264=DIRECTION('',(0.,1.,6.12323399573677E-17));
#265=DIRECTION('',(6.12323399573677E-17,6.12323399573677E-17,-1.));
#266=FACE_BOUND('',#267,.T.);
#267=EDGE_LOOP('',(#371,#372,#373,#374));
#268=PLANE('',#269);
#269=AXIS2_PLACEMENT_3D('',#270,#271,#272);
#270=CARTESIAN_POINT('',(8.49999999999999,27.,125.));
#271=DIRECTION('',(1.,0.,0.));
#272=DIRECTION('',(0.,0.,-1.));
#273=FACE_BOUND('',#274,.T.);
#274=EDGE_LOOP('',(#375,#376,#377,#378));
#275=FACE_BOUND('',#276,.T.);
#276=EDGE_LOOP('',(#379));
#277=PLANE('',#278);
#278=AXIS2_PLACEMENT_3D('',#279,#280,#281);
#279=CARTESIAN_POINT('',(0.,31.,1.8982025386784E-15));
#280=DIRECTION('',(0.,1.,6.12323399573677E-17));
#281=DIRECTION('',(6.12323399573677E-17,6.12323399573677E-17,-1.));
#282=FACE_BOUND('',#283,.T.);
#283=EDGE_LOOP('',(#380,#381,#382,#383));
#284=PLANE('',#285);
#285=AXIS2_PLACEMENT_3D('',#286,#287,#288);
#286=CARTESIAN_POINT('',(22.5,27.,125.));
#287=DIRECTION('',(1.,0.,0.));
#288=DIRECTION('',(0.,0.,-1.));
#289=FACE_BOUND('',#290,.T.);
#290=EDGE_LOOP('',(#384,#385,#386,#387));
#291=FACE_BOUND('',#292,.T.);
#292=EDGE_LOOP('',(#388));
#293=FACE_BOUND('',#294,.T.);
#294=EDGE_LOOP('',(#389));
#295=PLANE('',#296);
#296=AXIS2_PLACEMENT_3D('',#297,#298,#299);
#297=CARTESIAN_POINT('',(0.,27.,1.65327317884893E-15));
#298=DIRECTION('',(0.,1.,6.12323399573677E-17));
#299=DIRECTION('',(6.12323399573677E-17,6.12323399573677E-17,-1.));
#300=FACE_OUTER_BOUND('',#301,.T.);
#301=EDGE_LOOP('',(#390));
#302=FACE_OUTER_BOUND('',#303,.T.);
#303=EDGE_LOOP('',(#391));
#304=CYLINDRICAL_SURFACE('',#305,2.75);
#305=AXIS2_PLACEMENT_3D('',#306,#307,#308);
#306=CARTESIAN_POINT('',(-15.5,27.,115.));
#307=DIRECTION('',(0.,1.,6.12323399573677E-17));
#308=DIRECTION('',(6.12323399573677E-17,6.12323399573677E-17,-1.));
#309=FACE_OUTER_BOUND('',#310,.T.);
#310=EDGE_LOOP('',(#392));
#311=FACE_OUTER_BOUND('',#312,.T.);
#312=EDGE_LOOP('',(#393));
#313=CYLINDRICAL_SURFACE('',#314,2.75);
#314=AXIS2_PLACEMENT_3D('',#315,#316,#317);
#315=CARTESIAN_POINT('',(15.5,27.,115.));
#316=DIRECTION('',(0.,1.,6.12323399573677E-17));
#317=DIRECTION('',(6.12323399573677E-17,6.12323399573677E-17,-1.));
#318=CARTESIAN_POINT('',(170.,6.99999999999999,105.));
#319=CARTESIAN_POINT('',(-170.,6.99999999999999,105.));
#320=AXIS2_PLACEMENT_3D('',#321,#322,#323);
#321=CARTESIAN_POINT('',(-160.,6.99999999999999,115.));
#322=DIRECTION('',(0.,1.,6.12323399573677E-17));
#323=DIRECTION('',(1.,-3.74939945665464E-33,6.12323399573677E-17));
#324=AXIS2_PLACEMENT_3D('',#325,#326,#327);
#325=CARTESIAN_POINT('',(160.,6.99999999999999,115.));
#326=DIRECTION('',(0.,1.,6.12323399573677E-17));
#327=DIRECTION('',(1.,-3.74939945665464E-33,6.12323399573677E-17));
#328=CARTESIAN_POINT('',(170.,6.99999999999999,125.));
#329=CARTESIAN_POINT('',(-170.,6.99999999999999,125.));
#330=CARTESIAN_POINT('',(170.,6.99999999999999,105.));
#331=CARTESIAN_POINT('',(170.,6.99999999999999,125.));
#332=CARTESIAN_POINT('',(-170.,6.99999999999999,125.));
#333=CARTESIAN_POINT('',(-170.,6.99999999999999,105.));
#334=ORIENTED_EDGE('',*,*,#394,.T.);
#335=ORIENTED_EDGE('',*,*,#395,.F.);
#336=ORIENTED_EDGE('',*,*,#396,.T.);
#337=ORIENTED_EDGE('',*,*,#397,.F.);
#338=ORIENTED_EDGE('',*,*,#398,.F.);
#339=ORIENTED_EDGE('',*,*,#399,.F.);
#340=ORIENTED_EDGE('',*,*,#400,.F.);
#341=ORIENTED_EDGE('',*,*,#401,.T.);
#342=ORIENTED_EDGE('',*,*,#402,.T.);
#343=ORIENTED_EDGE('',*,*,#403,.T.);
#344=ORIENTED_EDGE('',*,*,#404,.T.);
#345=ORIENTED_EDGE('',*,*,#405,.F.);
#346=ORIENTED_EDGE('',*,*,#406,.T.);
#347=ORIENTED_EDGE('',*,*,#407,.F.);
#348=ORIENTED_EDGE('',*,*,#408,.F.);
#349=ORIENTED_EDGE('',*,*,#409,.F.);
#350=ORIENTED_EDGE('',*,*,#410,.F.);
#351=ORIENTED_EDGE('',*,*,#411,.T.);
#352=ORIENTED_EDGE('',*,*,#411,.F.);
#353=ORIENTED_EDGE('',*,*,#402,.F.);
#354=ORIENTED_EDGE('',*,*,#412,.T.);
#355=ORIENTED_EDGE('',*,*,#410,.T.);
#356=ORIENTED_EDGE('',*,*,#413,.F.);
#357=ORIENTED_EDGE('',*,*,#394,.F.);
#358=ORIENTED_EDGE('',*,*,#414,.F.);
#359=ORIENTED_EDGE('',*,*,#395,.T.);
#360=ORIENTED_EDGE('',*,*,#413,.T.);
#361=ORIENTED_EDGE('',*,*,#409,.T.);
#362=ORIENTED_EDGE('',*,*,#415,.T.);
#363=ORIENTED_EDGE('',*,*,#414,.T.);
#364=ORIENTED_EDGE('',*,*,#408,.T.);
#365=ORIENTED_EDGE('',*,*,#416,.F.);
#366=ORIENTED_EDGE('',*,*,#396,.F.);
#367=ORIENTED_EDGE('',*,*,#397,.T.);
#368=ORIENTED_EDGE('',*,*,#416,.T.);
#369=ORIENTED_EDGE('',*,*,#407,.T.);
#370=ORIENTED_EDGE('',*,*,#417,.T.);
#371=ORIENTED_EDGE('',*,*,#418,.T.);
#372=ORIENTED_EDGE('',*,*,#398,.T.);
#373=ORIENTED_EDGE('',*,*,#417,.F.);
#374=ORIENTED_EDGE('',*,*,#406,.F.);
#375=ORIENTED_EDGE('',*,*,#418,.F.);
#376=ORIENTED_EDGE('',*,*,#405,.T.);
#377=ORIENTED_EDGE('',*,*,#419,.T.);
#378=ORIENTED_EDGE('',*,*,#399,.T.);
#379=ORIENTED_EDGE('',*,*,#420,.T.);
#380=ORIENTED_EDGE('',*,*,#421,.T.);
#381=ORIENTED_EDGE('',*,*,#400,.T.);
#382=ORIENTED_EDGE('',*,*,#419,.F.);
#383=ORIENTED_EDGE('',*,*,#404,.F.);
#384=ORIENTED_EDGE('',*,*,#412,.F.);
#385=ORIENTED_EDGE('',*,*,#401,.F.);
#386=ORIENTED_EDGE('',*,*,#421,.F.);
#387=ORIENTED_EDGE('',*,*,#403,.F.);
#388=ORIENTED_EDGE('',*,*,#422,.T.);
#389=ORIENTED_EDGE('',*,*,#423,.T.);
#390=ORIENTED_EDGE('',*,*,#415,.F.);
#391=ORIENTED_EDGE('',*,*,#422,.F.);
#392=ORIENTED_EDGE('',*,*,#420,.F.);
#393=ORIENTED_EDGE('',*,*,#423,.F.);
#394=EDGE_CURVE('',#424,#425,#426,.T.);
#395=EDGE_CURVE('',#427,#425,#428,.T.);
#396=EDGE_CURVE('',#427,#429,#430,.T.);
#397=EDGE_CURVE('',#431,#429,#432,.T.);
#398=EDGE_CURVE('',#433,#431,#434,.T.);
#399=EDGE_CURVE('',#435,#433,#436,.T.);
#400=EDGE_CURVE('',#437,#435,#438,.T.);
#401=EDGE_CURVE('',#437,#424,#439,.T.);
#402=EDGE_CURVE('',#440,#440,#441,.T.);
#403=EDGE_CURVE('',#442,#443,#444,.T.);
#404=EDGE_CURVE('',#443,#445,#446,.T.);
#405=EDGE_CURVE('',#447,#445,#448,.T.);
#406=EDGE_CURVE('',#447,#449,#450,.T.);
#407=EDGE_CURVE('',#451,#449,#452,.T.);
#408=EDGE_CURVE('',#453,#451,#454,.T.);
#409=EDGE_CURVE('',#455,#453,#456,.T.);
#410=EDGE_CURVE('',#442,#455,#457,.T.);
#411=EDGE_CURVE('',#458,#458,#459,.F.);
#412=EDGE_CURVE('',#424,#442,#460,.T.);
#413=EDGE_CURVE('',#425,#455,#461,.T.);
#414=EDGE_CURVE('',#427,#453,#462,.T.);
#415=EDGE_CURVE('',#463,#463,#464,.F.);
#416=EDGE_CURVE('',#429,#451,#465,.T.);
#417=EDGE_CURVE('',#449,#431,#466,.T.);
#418=EDGE_CURVE('',#447,#433,#467,.T.);
#419=EDGE_CURVE('',#445,#435,#468,.T.);
#420=EDGE_CURVE('',#469,#469,#470,.F.);
#421=EDGE_CURVE('',#443,#437,#471,.T.);
#422=EDGE_CURVE('',#472,#472,#473,.T.);
#423=EDGE_CURVE('',#474,#474,#475,.T.);
#424=VERTEX_POINT('',#476);
#425=VERTEX_POINT('',#477);
#426=LINE('',#478,#479);
#427=VERTEX_POINT('',#481);
#428=LINE('',#482,#483);
#429=VERTEX_POINT('',#485);
#430=LINE('',#486,#487);
#431=VERTEX_POINT('',#489);
#432=LINE('',#490,#491);
#433=VERTEX_POINT('',#493);
#434=LINE('',#494,#495);
#435=VERTEX_POINT('',#497);
#436=LINE('',#498,#499);
#437=VERTEX_POINT('',#501);
#438=LINE('',#502,#503);
#439=LINE('',#505,#506);
#440=VERTEX_POINT('',#508);
#441=CIRCLE('',#509,4.5);
#442=VERTEX_POINT('',#513);
#443=VERTEX_POINT('',#514);
#444=LINE('',#515,#516);
#445=VERTEX_POINT('',#518);
#446=LINE('',#519,#520);
#447=VERTEX_POINT('',#522);
#448=LINE('',#523,#524);
#449=VERTEX_POINT('',#526);
#450=LINE('',#527,#528);
#451=VERTEX_POINT('',#530);
#452=LINE('',#531,#532);
#453=VERTEX_POINT('',#534);
#454=LINE('',#535,#536);
#455=VERTEX_POINT('',#538);
#456=LINE('',#539,#540);
#457=LINE('',#542,#543);
#458=VERTEX_POINT('',#545);
#459=CIRCLE('',#546,4.5);
#460=LINE('',#550,#551);
#461=LINE('',#553,#554);
#462=LINE('',#556,#557);
#463=VERTEX_POINT('',#559);
#464=CIRCLE('',#560,2.75);
#465=LINE('',#564,#565);
#466=LINE('',#567,#568);
#467=LINE('',#570,#571);
#468=LINE('',#573,#574);
#469=VERTEX_POINT('',#576);
#470=CIRCLE('',#577,2.75);
#471=LINE('',#581,#582);
#472=VERTEX_POINT('',#584);
#473=CIRCLE('',#585,2.75);
#474=VERTEX_POINT('',#589);
#475=CIRCLE('',#590,2.75);
#476=CARTESIAN_POINT('',(-22.5,27.,105.));
#477=CARTESIAN_POINT('',(-22.5,31.,105.));
#478=CARTESIAN_POINT('',(-22.5,27.,105.));
#479=VECTOR('',#480,1.);
#480=DIRECTION('',(0.,1.,0.));
#481=CARTESIAN_POINT('',(-8.50000000000001,31.,105.));
#482=CARTESIAN_POINT('',(-8.50000000000001,31.,105.));
#483=VECTOR('',#484,1.);
#484=DIRECTION('',(-1.,0.,0.));
#485=CARTESIAN_POINT('',(-8.50000000000001,47.,105.));
#486=CARTESIAN_POINT('',(-8.50000000000001,31.,105.));
#487=VECTOR('',#488,1.);
#488=DIRECTION('',(0.,1.,0.));
#489=CARTESIAN_POINT('',(8.49999999999999,47.,105.));
#490=CARTESIAN_POINT('',(8.49999999999999,47.,105.));
#491=VECTOR('',#492,1.);
#492=DIRECTION('',(-1.,0.,0.));
#493=CARTESIAN_POINT('',(8.49999999999999,31.,105.));
#494=CARTESIAN_POINT('',(8.49999999999999,31.,105.));
#495=VECTOR('',#496,1.);
#496=DIRECTION('',(0.,1.,0.));
#497=CARTESIAN_POINT('',(22.5,31.,105.));
#498=CARTESIAN_POINT('',(22.5,31.,105.));
#499=VECTOR('',#500,1.);
#500=DIRECTION('',(-1.,0.,0.));
#501=CARTESIAN_POINT('',(22.5,27.,105.));
#502=CARTESIAN_POINT('',(22.5,27.,105.));
#503=VECTOR('',#504,1.);
#504=DIRECTION('',(0.,1.,0.));
#505=CARTESIAN_POINT('',(22.5,27.,105.));
#506=VECTOR('',#507,1.);
#507=DIRECTION('',(-1.,0.,0.));
#508=CARTESIAN_POINT('',(4.49999999999999,39.,105.));
#509=AXIS2_PLACEMENT_3D('',#510,#511,#512);
#510=CARTESIAN_POINT('',(-7.105427357601E-15,39.,105.));
#511=DIRECTION('',(0.,0.,1.));
#512=DIRECTION('',(1.,0.,0.));
#513=CARTESIAN_POINT('',(-22.5,27.,125.));
#514=CARTESIAN_POINT('',(22.5,27.,125.));
#515=CARTESIAN_POINT('',(-22.5,27.,125.));
#516=VECTOR('',#517,1.);
#517=DIRECTION('',(1.,0.,0.));
#518=CARTESIAN_POINT('',(22.5,31.,125.));
#519=CARTESIAN_POINT('',(22.5,27.,125.));
#520=VECTOR('',#521,1.);
#521=DIRECTION('',(0.,1.,0.));
#522=CARTESIAN_POINT('',(8.49999999999999,31.,125.));
#523=CARTESIAN_POINT('',(8.49999999999999,31.,125.));
#524=VECTOR('',#525,1.);
#525=DIRECTION('',(1.,0.,0.));
#526=CARTESIAN_POINT('',(8.49999999999999,47.,125.));
#527=CARTESIAN_POINT('',(8.49999999999999,31.,125.));
#528=VECTOR('',#529,1.);
#529=DIRECTION('',(0.,1.,0.));
#530=CARTESIAN_POINT('',(-8.50000000000001,47.,125.));
#531=CARTESIAN_POINT('',(-8.50000000000001,47.,125.));
#532=VECTOR('',#533,1.);
#533=DIRECTION('',(1.,0.,0.));
#534=CARTESIAN_POINT('',(-8.50000000000001,31.,125.));
#535=CARTESIAN_POINT('',(-8.50000000000001,31.,125.));
#536=VECTOR('',#537,1.);
#537=DIRECTION('',(0.,1.,0.));
#538=CARTESIAN_POINT('',(-22.5,31.,125.));
#539=CARTESIAN_POINT('',(-22.5,31.,125.));
#540=VECTOR('',#541,1.);
#541=DIRECTION('',(1.,0.,0.));
#542=CARTESIAN_POINT('',(-22.5,27.,125.));
#543=VECTOR('',#544,1.);
#544=DIRECTION('',(0.,1.,0.));
#545=CARTESIAN_POINT('',(4.49999999999999,39.,125.));
#546=AXIS2_PLACEMENT_3D('',#547,#548,#549);
#547=CARTESIAN_POINT('',(-7.105427357601E-15,39.,125.));
#548=DIRECTION('',(0.,0.,1.));
#549=DIRECTION('',(1.,0.,0.));
#550=CARTESIAN_POINT('',(-22.5,27.,105.));
#551=VECTOR('',#552,1.);
#552=DIRECTION('',(0.,0.,1.));
#553=CARTESIAN_POINT('',(-22.5,31.,105.));
#554=VECTOR('',#555,1.);
#555=DIRECTION('',(0.,0.,1.));
#556=CARTESIAN_POINT('',(-8.50000000000001,31.,105.));
#557=VECTOR('',#558,1.);
#558=DIRECTION('',(0.,0.,1.));
#559=CARTESIAN_POINT('',(-15.5,31.,112.25));
#560=AXIS2_PLACEMENT_3D('',#561,#562,#563);
#561=CARTESIAN_POINT('',(-15.5,31.,115.));
#562=DIRECTION('',(0.,1.,6.12323399573677E-17));
#563=DIRECTION('',(6.12323399573677E-17,6.12323399573677E-17,-1.));
#564=CARTESIAN_POINT('',(-8.50000000000001,47.,105.));
#565=VECTOR('',#566,1.);
#566=DIRECTION('',(0.,0.,1.));
#567=CARTESIAN_POINT('',(8.49999999999999,47.,125.));
#568=VECTOR('',#569,1.);
#569=DIRECTION('',(0.,0.,-1.));
#570=CARTESIAN_POINT('',(8.49999999999999,31.,125.));
#571=VECTOR('',#572,1.);
#572=DIRECTION('',(0.,0.,-1.));
#573=CARTESIAN_POINT('',(22.5,31.,125.));
#574=VECTOR('',#575,1.);
#575=DIRECTION('',(0.,0.,-1.));
#576=CARTESIAN_POINT('',(15.5,31.,112.25));
#577=AXIS2_PLACEMENT_3D('',#578,#579,#580);
#578=CARTESIAN_POINT('',(15.5,31.,115.));
#579=DIRECTION('',(0.,1.,6.12323399573677E-17));
#580=DIRECTION('',(6.12323399573677E-17,6.12323399573677E-17,-1.));
#581=CARTESIAN_POINT('',(22.5,27.,125.));
#582=VECTOR('',#583,1.);
#583=DIRECTION('',(0.,0.,-1.));
#584=CARTESIAN_POINT('',(-15.5,27.,112.25));
#585=AXIS2_PLACEMENT_3D('',#586,#587,#588);
#586=CARTESIAN_POINT('',(-15.5,27.,115.));
#587=DIRECTION('',(0.,1.,6.12323399573677E-17));
#588=DIRECTION('',(6.12323399573677E-17,6.12323399573677E-17,-1.));
#589=CARTESIAN_POINT('',(15.5,27.,112.25));
#590=AXIS2_PLACEMENT_3D('',#591,#592,#593);
#591=CARTESIAN_POINT('',(15.5,27.,115.));
#592=DIRECTION('',(0.,1.,6.12323399573677E-17));
#593=DIRECTION('',(6.12323399573677E-17,6.12323399573677E-17,-1.));
ENDSEC;
END-ISO-10303-21;
